<?xml version="1.0" encoding="utf-8" standalone="no"?>
<!DOCTYPE svg PUBLIC "-//W3C//DTD SVG 1.1//EN"
  "http://www.w3.org/Graphics/SVG/1.1/DTD/svg11.dtd">
<svg xmlns:xlink="http://www.w3.org/1999/xlink" width="460.8pt" height="345.6pt" viewBox="0 0 460.8 345.6" xmlns="http://www.w3.org/2000/svg" version="1.1">
 <metadata>
  <rdf:RDF xmlns:dc="http://purl.org/dc/elements/1.1/" xmlns:cc="http://creativecommons.org/ns#" xmlns:rdf="http://www.w3.org/1999/02/22-rdf-syntax-ns#">
   <cc:Work>
    <dc:type rdf:resource="http://purl.org/dc/dcmitype/StillImage"/>
    <dc:date>2022-12-30T18:13:48.218119</dc:date>
    <dc:format>image/svg+xml</dc:format>
    <dc:creator>
     <cc:Agent>
      <dc:title>Matplotlib v3.5.1, https://matplotlib.org/</dc:title>
     </cc:Agent>
    </dc:creator>
   </cc:Work>
  </rdf:RDF>
 </metadata>
 <defs>
  <style type="text/css">*{stroke-linejoin: round; stroke-linecap: butt}</style>
 </defs>
 <g id="figure_1">
  <g id="patch_1">
   <path d="M 0 345.6 
L 460.8 345.6 
L 460.8 0 
L 0 0 
z
" style="fill: #ffffff"/>
  </g>
  <g id="axes_1">
   <g id="LineCollection_1">
    <path d="M 420.813223 315.609917 
L 353.790366 287.332289 
" clip-path="url(#pc3c55da25c)" style="fill: none; stroke: #000000; stroke-opacity: 0.9"/>
    <path d="M 353.790366 287.332289 
L 291.075112 240.822992 
" clip-path="url(#pc3c55da25c)" style="fill: none; stroke: #000000; stroke-opacity: 0.9"/>
    <path d="M 291.075112 240.822992 
L 240.160419 181.230031 
" clip-path="url(#pc3c55da25c)" style="fill: none; stroke: #000000; stroke-opacity: 0.9"/>
    <path d="M 240.160419 181.230031 
L 210.152019 109.967218 
" clip-path="url(#pc3c55da25c)" style="fill: none; stroke: #000000; stroke-opacity: 0.9"/>
    <path d="M 210.152019 109.967218 
L 246.672098 55.792396 
" clip-path="url(#pc3c55da25c)" style="fill: none; stroke: #000000; stroke-opacity: 0.9"/>
    <path d="M 210.152019 109.967218 
L 298.080029 96.718027 
" clip-path="url(#pc3c55da25c)" style="fill: none; stroke: #000000; stroke-opacity: 0.9"/>
    <path d="M 210.152019 109.967218 
L 109.133022 78.869173 
" clip-path="url(#pc3c55da25c)" style="fill: none; stroke: #000000; stroke-opacity: 0.9"/>
    <path d="M 246.672098 55.792396 
L 318.796493 29.990083 
" clip-path="url(#pc3c55da25c)" style="fill: none; stroke: #000000; stroke-opacity: 0.9"/>
    <path d="M 318.796493 29.990083 
L 359.115681 65.503946 
" clip-path="url(#pc3c55da25c)" style="fill: none; stroke: #000000; stroke-opacity: 0.9"/>
    <path d="M 359.115681 65.503946 
L 298.080029 96.718027 
" clip-path="url(#pc3c55da25c)" style="fill: none; stroke: #000000; stroke-opacity: 0.9"/>
    <path d="M 109.133022 78.869173 
L 39.986777 44.542838 
" clip-path="url(#pc3c55da25c)" style="fill: none; stroke: #000000; stroke-opacity: 0.9"/>
   </g>
   <g id="text_1">
    <g id="patch_2">
     <path d="M 374.829879 303.015644 
L 394.898089 311.482627 
Q 397.109335 312.415574 398.042282 310.204328 
L 401.052009 303.070756 
Q 401.984956 300.85951 399.77371 299.926562 
L 379.7055 291.459579 
Q 377.494254 290.526632 376.561307 292.737878 
L 373.55158 299.87145 
Q 372.618633 302.082696 374.829879 303.015644 
z
" clip-path="url(#pc3c55da25c)" style="fill: #ffffff; stroke: #ffffff; stroke-linejoin: miter"/>
    </g>
    <g clip-path="url(#pc3c55da25c)">
     <!-- a = 0 -->
     <g style="fill: #ff0000" transform="translate(376.409572 299.271497)rotate(-337.124622)scale(0.08 -0.08)">
      <defs>
       <path id="DejaVuSans-61" d="M 2194 1759 
Q 1497 1759 1228 1600 
Q 959 1441 959 1056 
Q 959 750 1161 570 
Q 1363 391 1709 391 
Q 2188 391 2477 730 
Q 2766 1069 2766 1631 
L 2766 1759 
L 2194 1759 
z
M 3341 1997 
L 3341 0 
L 2766 0 
L 2766 531 
Q 2569 213 2275 61 
Q 1981 -91 1556 -91 
Q 1019 -91 701 211 
Q 384 513 384 1019 
Q 384 1609 779 1909 
Q 1175 2209 1959 2209 
L 2766 2209 
L 2766 2266 
Q 2766 2663 2505 2880 
Q 2244 3097 1772 3097 
Q 1472 3097 1187 3025 
Q 903 2953 641 2809 
L 641 3341 
Q 956 3463 1253 3523 
Q 1550 3584 1831 3584 
Q 2591 3584 2966 3190 
Q 3341 2797 3341 1997 
z
" transform="scale(0.015625)"/>
       <path id="DejaVuSans-20" transform="scale(0.015625)"/>
       <path id="DejaVuSans-3d" d="M 678 2906 
L 4684 2906 
L 4684 2381 
L 678 2381 
L 678 2906 
z
M 678 1631 
L 4684 1631 
L 4684 1100 
L 678 1100 
L 678 1631 
z
" transform="scale(0.015625)"/>
       <path id="DejaVuSans-30" d="M 2034 4250 
Q 1547 4250 1301 3770 
Q 1056 3291 1056 2328 
Q 1056 1369 1301 889 
Q 1547 409 2034 409 
Q 2525 409 2770 889 
Q 3016 1369 3016 2328 
Q 3016 3291 2770 3770 
Q 2525 4250 2034 4250 
z
M 2034 4750 
Q 2819 4750 3233 4129 
Q 3647 3509 3647 2328 
Q 3647 1150 3233 529 
Q 2819 -91 2034 -91 
Q 1250 -91 836 529 
Q 422 1150 422 2328 
Q 422 3509 836 4129 
Q 1250 4750 2034 4750 
z
" transform="scale(0.015625)"/>
      </defs>
      <use xlink:href="#DejaVuSans-61"/>
      <use xlink:href="#DejaVuSans-20" x="61.279297"/>
      <use xlink:href="#DejaVuSans-3d" x="93.066406"/>
      <use xlink:href="#DejaVuSans-20" x="176.855469"/>
      <use xlink:href="#DejaVuSans-30" x="208.642578"/>
     </g>
    </g>
   </g>
   <g id="text_2">
    <g id="patch_3">
     <path d="M 308.208476 261.336552 
L 329.185806 276.893228 
Q 331.113556 278.322837 332.543165 276.395087 
L 337.155142 270.176087 
Q 338.584751 268.248337 336.657001 266.818728 
L 315.679672 251.262053 
Q 313.751922 249.832444 312.322313 251.760193 
L 307.710336 257.979194 
Q 306.280727 259.906944 308.208476 261.336552 
z
" clip-path="url(#pc3c55da25c)" style="fill: #ffffff; stroke: #ffffff; stroke-linejoin: miter"/>
    </g>
    <g clip-path="url(#pc3c55da25c)">
     <!-- su = 1 -->
     <g style="fill: #ff0000" transform="translate(310.629132 258.072431)rotate(-323.439566)scale(0.08 -0.08)">
      <defs>
       <path id="DejaVuSans-73" d="M 2834 3397 
L 2834 2853 
Q 2591 2978 2328 3040 
Q 2066 3103 1784 3103 
Q 1356 3103 1142 2972 
Q 928 2841 928 2578 
Q 928 2378 1081 2264 
Q 1234 2150 1697 2047 
L 1894 2003 
Q 2506 1872 2764 1633 
Q 3022 1394 3022 966 
Q 3022 478 2636 193 
Q 2250 -91 1575 -91 
Q 1294 -91 989 -36 
Q 684 19 347 128 
L 347 722 
Q 666 556 975 473 
Q 1284 391 1588 391 
Q 1994 391 2212 530 
Q 2431 669 2431 922 
Q 2431 1156 2273 1281 
Q 2116 1406 1581 1522 
L 1381 1569 
Q 847 1681 609 1914 
Q 372 2147 372 2553 
Q 372 3047 722 3315 
Q 1072 3584 1716 3584 
Q 2034 3584 2315 3537 
Q 2597 3491 2834 3397 
z
" transform="scale(0.015625)"/>
       <path id="DejaVuSans-75" d="M 544 1381 
L 544 3500 
L 1119 3500 
L 1119 1403 
Q 1119 906 1312 657 
Q 1506 409 1894 409 
Q 2359 409 2629 706 
Q 2900 1003 2900 1516 
L 2900 3500 
L 3475 3500 
L 3475 0 
L 2900 0 
L 2900 538 
Q 2691 219 2414 64 
Q 2138 -91 1772 -91 
Q 1169 -91 856 284 
Q 544 659 544 1381 
z
M 1991 3584 
L 1991 3584 
z
" transform="scale(0.015625)"/>
       <path id="DejaVuSans-31" d="M 794 531 
L 1825 531 
L 1825 4091 
L 703 3866 
L 703 4441 
L 1819 4666 
L 2450 4666 
L 2450 531 
L 3481 531 
L 3481 0 
L 794 0 
L 794 531 
z
" transform="scale(0.015625)"/>
      </defs>
      <use xlink:href="#DejaVuSans-73"/>
      <use xlink:href="#DejaVuSans-75" x="52.099609"/>
      <use xlink:href="#DejaVuSans-20" x="115.478516"/>
      <use xlink:href="#DejaVuSans-3d" x="147.265625"/>
      <use xlink:href="#DejaVuSans-20" x="231.054688"/>
      <use xlink:href="#DejaVuSans-31" x="262.841797"/>
     </g>
    </g>
   </g>
   <g id="text_3">
    <g id="patch_4">
     <path d="M 254.349118 207.491513 
L 267.350404 222.708831 
Q 268.909389 224.533541 270.734099 222.974556 
L 276.620688 217.945205 
Q 278.445398 216.38622 276.886413 214.561511 
L 263.885127 199.344192 
Q 262.326142 197.519482 260.501432 199.078467 
L 254.614842 204.107818 
Q 252.790133 205.666803 254.349118 207.491513 
z
" clip-path="url(#pc3c55da25c)" style="fill: #ffffff; stroke: #ffffff; stroke-linejoin: miter"/>
    </g>
    <g clip-path="url(#pc3c55da25c)">
     <!-- t = 1 -->
     <g style="fill: #ff0000" transform="translate(257.43877 204.851794)rotate(-310.509726)scale(0.08 -0.08)">
      <defs>
       <path id="DejaVuSans-74" d="M 1172 4494 
L 1172 3500 
L 2356 3500 
L 2356 3053 
L 1172 3053 
L 1172 1153 
Q 1172 725 1289 603 
Q 1406 481 1766 481 
L 2356 481 
L 2356 0 
L 1766 0 
Q 1100 0 847 248 
Q 594 497 594 1153 
L 594 3053 
L 172 3053 
L 172 3500 
L 594 3500 
L 594 4494 
L 1172 4494 
z
" transform="scale(0.015625)"/>
      </defs>
      <use xlink:href="#DejaVuSans-74"/>
      <use xlink:href="#DejaVuSans-20" x="39.208984"/>
      <use xlink:href="#DejaVuSans-3d" x="70.996094"/>
      <use xlink:href="#DejaVuSans-20" x="154.785156"/>
      <use xlink:href="#DejaVuSans-31" x="186.572266"/>
     </g>
    </g>
   </g>
   <g id="text_4">
    <g id="patch_5">
     <path d="M 224.445019 99.983934 
L 242.779197 72.786546 
Q 244.120722 70.796493 242.130669 69.454968 
L 235.710676 65.127152 
Q 233.720623 63.785627 232.379098 65.775679 
L 214.04492 92.973068 
Q 212.703395 94.963121 214.693448 96.304646 
L 221.113441 100.632462 
Q 223.103494 101.973987 224.445019 99.983934 
z
" clip-path="url(#pc3c55da25c)" style="fill: #ffffff; stroke: #ffffff; stroke-linejoin: miter"/>
    </g>
    <g clip-path="url(#pc3c55da25c)">
     <!-- su &lt;= n -->
     <g style="fill: #ff0000" transform="translate(221.075404 97.712425)rotate(-56.015485)scale(0.08 -0.08)">
      <defs>
       <path id="DejaVuSans-3c" d="M 4684 3150 
L 1459 2003 
L 4684 863 
L 4684 294 
L 678 1747 
L 678 2266 
L 4684 3719 
L 4684 3150 
z
" transform="scale(0.015625)"/>
       <path id="DejaVuSans-6e" d="M 3513 2113 
L 3513 0 
L 2938 0 
L 2938 2094 
Q 2938 2591 2744 2837 
Q 2550 3084 2163 3084 
Q 1697 3084 1428 2787 
Q 1159 2491 1159 1978 
L 1159 0 
L 581 0 
L 581 3500 
L 1159 3500 
L 1159 2956 
Q 1366 3272 1645 3428 
Q 1925 3584 2291 3584 
Q 2894 3584 3203 3211 
Q 3513 2838 3513 2113 
z
" transform="scale(0.015625)"/>
      </defs>
      <use xlink:href="#DejaVuSans-73"/>
      <use xlink:href="#DejaVuSans-75" x="52.099609"/>
      <use xlink:href="#DejaVuSans-20" x="115.478516"/>
      <use xlink:href="#DejaVuSans-3c" x="147.265625"/>
      <use xlink:href="#DejaVuSans-3d" x="231.054688"/>
      <use xlink:href="#DejaVuSans-20" x="314.84375"/>
      <use xlink:href="#DejaVuSans-6e" x="346.630859"/>
     </g>
    </g>
   </g>
   <g id="text_5">
    <g id="patch_6">
     <path d="M 265.265174 55.80125 
L 304.428247 41.790763 
Q 306.687995 40.982345 305.879576 38.722597 
L 303.271583 31.432557 
Q 302.463165 29.17281 300.203417 29.981228 
L 261.040344 43.991715 
Q 258.780596 44.800134 259.589015 47.059882 
L 262.197008 54.349922 
Q 263.005427 56.609669 265.265174 55.80125 
z
" clip-path="url(#pc3c55da25c)" style="fill: #ffffff; stroke: #ffffff; stroke-linejoin: miter"/>
    </g>
    <g clip-path="url(#pc3c55da25c)">
     <!-- a = (a + 1 -->
     <g style="fill: #ff0000" transform="translate(263.896336 51.97498)rotate(-19.684537)scale(0.08 -0.08)">
      <defs>
       <path id="DejaVuSans-28" d="M 1984 4856 
Q 1566 4138 1362 3434 
Q 1159 2731 1159 2009 
Q 1159 1288 1364 580 
Q 1569 -128 1984 -844 
L 1484 -844 
Q 1016 -109 783 600 
Q 550 1309 550 2009 
Q 550 2706 781 3412 
Q 1013 4119 1484 4856 
L 1984 4856 
z
" transform="scale(0.015625)"/>
       <path id="DejaVuSans-2b" d="M 2944 4013 
L 2944 2272 
L 4684 2272 
L 4684 1741 
L 2944 1741 
L 2944 0 
L 2419 0 
L 2419 1741 
L 678 1741 
L 678 2272 
L 2419 2272 
L 2419 4013 
L 2944 4013 
z
" transform="scale(0.015625)"/>
      </defs>
      <use xlink:href="#DejaVuSans-61"/>
      <use xlink:href="#DejaVuSans-20" x="61.279297"/>
      <use xlink:href="#DejaVuSans-3d" x="93.066406"/>
      <use xlink:href="#DejaVuSans-20" x="176.855469"/>
      <use xlink:href="#DejaVuSans-28" x="208.642578"/>
      <use xlink:href="#DejaVuSans-61" x="247.65625"/>
      <use xlink:href="#DejaVuSans-20" x="308.935547"/>
      <use xlink:href="#DejaVuSans-2b" x="340.722656"/>
      <use xlink:href="#DejaVuSans-20" x="424.511719"/>
      <use xlink:href="#DejaVuSans-31" x="456.298828"/>
     </g>
    </g>
   </g>
   <g id="text_6">
    <g id="patch_7">
     <path d="M 319.717594 39.300936 
L 349.763034 65.765498 
Q 351.564016 67.351835 353.150353 65.550853 
L 358.409225 59.580411 
Q 359.995562 57.779429 358.19458 56.193093 
L 328.14914 29.728531 
Q 326.348158 28.142194 324.761822 29.943175 
L 319.502949 35.913617 
Q 317.916612 37.714599 319.717594 39.300936 
z
" clip-path="url(#pc3c55da25c)" style="fill: #ffffff; stroke: #ffffff; stroke-linejoin: miter"/>
    </g>
    <g clip-path="url(#pc3c55da25c)">
     <!-- t = (_a_0_ -->
     <g style="fill: #ff0000" transform="translate(322.550693 36.084495)rotate(-318.625823)scale(0.08 -0.08)">
      <defs>
       <path id="DejaVuSans-5f" d="M 3263 -1063 
L 3263 -1509 
L -63 -1509 
L -63 -1063 
L 3263 -1063 
z
" transform="scale(0.015625)"/>
      </defs>
      <use xlink:href="#DejaVuSans-74"/>
      <use xlink:href="#DejaVuSans-20" x="39.208984"/>
      <use xlink:href="#DejaVuSans-3d" x="70.996094"/>
      <use xlink:href="#DejaVuSans-20" x="154.785156"/>
      <use xlink:href="#DejaVuSans-28" x="186.572266"/>
      <use xlink:href="#DejaVuSans-5f" x="225.585938"/>
      <use xlink:href="#DejaVuSans-61" x="275.585938"/>
      <use xlink:href="#DejaVuSans-5f" x="336.865234"/>
      <use xlink:href="#DejaVuSans-30" x="386.865234"/>
      <use xlink:href="#DejaVuSans-5f" x="450.488281"/>
     </g>
    </g>
   </g>
   <g id="text_7">
    <g id="patch_8">
     <path d="M 312.742738 96.383204 
L 350.26115 77.196012 
Q 352.397937 76.103244 351.305168 73.966457 
L 347.682527 66.882787 
Q 346.589759 64.746 344.452972 65.838769 
L 306.93456 85.02596 
Q 304.797773 86.118729 305.890542 88.255516 
L 309.513183 95.339186 
Q 310.605951 97.475973 312.742738 96.383204 
z
" clip-path="url(#pc3c55da25c)" style="fill: #ffffff; stroke: #ffffff; stroke-linejoin: miter"/>
    </g>
    <g clip-path="url(#pc3c55da25c)">
     <!-- su = (_a_2 -->
     <g style="fill: #ff0000" transform="translate(310.791122 92.567037)rotate(-27.085536)scale(0.08 -0.08)">
      <defs>
       <path id="DejaVuSans-32" d="M 1228 531 
L 3431 531 
L 3431 0 
L 469 0 
L 469 531 
Q 828 903 1448 1529 
Q 2069 2156 2228 2338 
Q 2531 2678 2651 2914 
Q 2772 3150 2772 3378 
Q 2772 3750 2511 3984 
Q 2250 4219 1831 4219 
Q 1534 4219 1204 4116 
Q 875 4013 500 3803 
L 500 4441 
Q 881 4594 1212 4672 
Q 1544 4750 1819 4750 
Q 2544 4750 2975 4387 
Q 3406 4025 3406 3419 
Q 3406 3131 3298 2873 
Q 3191 2616 2906 2266 
Q 2828 2175 2409 1742 
Q 1991 1309 1228 531 
z
" transform="scale(0.015625)"/>
      </defs>
      <use xlink:href="#DejaVuSans-73"/>
      <use xlink:href="#DejaVuSans-75" x="52.099609"/>
      <use xlink:href="#DejaVuSans-20" x="115.478516"/>
      <use xlink:href="#DejaVuSans-3d" x="147.265625"/>
      <use xlink:href="#DejaVuSans-20" x="231.054688"/>
      <use xlink:href="#DejaVuSans-28" x="262.841797"/>
      <use xlink:href="#DejaVuSans-5f" x="301.855469"/>
      <use xlink:href="#DejaVuSans-61" x="351.855469"/>
      <use xlink:href="#DejaVuSans-5f" x="413.134766"/>
      <use xlink:href="#DejaVuSans-32" x="463.134766"/>
     </g>
    </g>
   </g>
   <g id="text_8">
    <g id="patch_9">
     <path d="M 136.356611 93.811459 
L 179.238202 107.01228 
Q 181.531975 107.718403 182.238097 105.424631 
L 184.516079 98.024826 
Q 185.222202 95.731054 182.92843 95.024931 
L 140.046839 81.824111 
Q 137.753067 81.117988 137.046944 83.41176 
L 134.768962 90.811564 
Q 134.062839 93.105336 136.356611 93.811459 
z
" clip-path="url(#pc3c55da25c)" style="fill: #ffffff; stroke: #ffffff; stroke-linejoin: miter"/>
    </g>
    <g clip-path="url(#pc3c55da25c)">
     <!-- Not(su &lt;=  -->
     <g style="fill: #ff0000" transform="translate(137.552239 89.927577)rotate(-342.889356)scale(0.08 -0.08)">
      <defs>
       <path id="DejaVuSans-4e" d="M 628 4666 
L 1478 4666 
L 3547 763 
L 3547 4666 
L 4159 4666 
L 4159 0 
L 3309 0 
L 1241 3903 
L 1241 0 
L 628 0 
L 628 4666 
z
" transform="scale(0.015625)"/>
       <path id="DejaVuSans-6f" d="M 1959 3097 
Q 1497 3097 1228 2736 
Q 959 2375 959 1747 
Q 959 1119 1226 758 
Q 1494 397 1959 397 
Q 2419 397 2687 759 
Q 2956 1122 2956 1747 
Q 2956 2369 2687 2733 
Q 2419 3097 1959 3097 
z
M 1959 3584 
Q 2709 3584 3137 3096 
Q 3566 2609 3566 1747 
Q 3566 888 3137 398 
Q 2709 -91 1959 -91 
Q 1206 -91 779 398 
Q 353 888 353 1747 
Q 353 2609 779 3096 
Q 1206 3584 1959 3584 
z
" transform="scale(0.015625)"/>
      </defs>
      <use xlink:href="#DejaVuSans-4e"/>
      <use xlink:href="#DejaVuSans-6f" x="74.804688"/>
      <use xlink:href="#DejaVuSans-74" x="135.986328"/>
      <use xlink:href="#DejaVuSans-28" x="175.195312"/>
      <use xlink:href="#DejaVuSans-73" x="214.208984"/>
      <use xlink:href="#DejaVuSans-75" x="266.308594"/>
      <use xlink:href="#DejaVuSans-20" x="329.6875"/>
      <use xlink:href="#DejaVuSans-3c" x="361.474609"/>
      <use xlink:href="#DejaVuSans-3d" x="445.263672"/>
      <use xlink:href="#DejaVuSans-20" x="529.052734"/>
     </g>
    </g>
   </g>
   <g id="PathCollection_1">
    <defs>
     <path id="md9ed99cbfe" d="M 0 11.18034 
C 2.965061 11.18034 5.80908 10.002309 7.905694 7.905694 
C 10.002309 5.80908 11.18034 2.965061 11.18034 0 
C 11.18034 -2.965061 10.002309 -5.80908 7.905694 -7.905694 
C 5.80908 -10.002309 2.965061 -11.18034 0 -11.18034 
C -2.965061 -11.18034 -5.80908 -10.002309 -7.905694 -7.905694 
C -10.002309 -5.80908 -11.18034 -2.965061 -11.18034 0 
C -11.18034 2.965061 -10.002309 5.80908 -7.905694 7.905694 
C -5.80908 10.002309 -2.965061 11.18034 0 11.18034 
z
" style="stroke: #ffc0cb; stroke-opacity: 0.9; stroke-width: 2"/>
    </defs>
    <g clip-path="url(#pc3c55da25c)">
     <use xlink:href="#md9ed99cbfe" x="420.813223" y="315.609917" style="fill: #ffc0cb; fill-opacity: 0.9; stroke: #ffc0cb; stroke-opacity: 0.9; stroke-width: 2"/>
     <use xlink:href="#md9ed99cbfe" x="353.790366" y="287.332289" style="fill: #ffc0cb; fill-opacity: 0.9; stroke: #ffc0cb; stroke-opacity: 0.9; stroke-width: 2"/>
     <use xlink:href="#md9ed99cbfe" x="291.075112" y="240.822992" style="fill: #ffc0cb; fill-opacity: 0.9; stroke: #ffc0cb; stroke-opacity: 0.9; stroke-width: 2"/>
     <use xlink:href="#md9ed99cbfe" x="240.160419" y="181.230031" style="fill: #ffc0cb; fill-opacity: 0.9; stroke: #ffc0cb; stroke-opacity: 0.9; stroke-width: 2"/>
     <use xlink:href="#md9ed99cbfe" x="210.152019" y="109.967218" style="fill: #ffc0cb; fill-opacity: 0.9; stroke: #ffc0cb; stroke-opacity: 0.9; stroke-width: 2"/>
     <use xlink:href="#md9ed99cbfe" x="246.672098" y="55.792396" style="fill: #ffc0cb; fill-opacity: 0.9; stroke: #ffc0cb; stroke-opacity: 0.9; stroke-width: 2"/>
     <use xlink:href="#md9ed99cbfe" x="318.796493" y="29.990083" style="fill: #ffc0cb; fill-opacity: 0.9; stroke: #ffc0cb; stroke-opacity: 0.9; stroke-width: 2"/>
     <use xlink:href="#md9ed99cbfe" x="359.115681" y="65.503946" style="fill: #ffc0cb; fill-opacity: 0.9; stroke: #ffc0cb; stroke-opacity: 0.9; stroke-width: 2"/>
     <use xlink:href="#md9ed99cbfe" x="298.080029" y="96.718027" style="fill: #ffc0cb; fill-opacity: 0.9; stroke: #ffc0cb; stroke-opacity: 0.9; stroke-width: 2"/>
     <use xlink:href="#md9ed99cbfe" x="109.133022" y="78.869173" style="fill: #ffc0cb; fill-opacity: 0.9; stroke: #ffc0cb; stroke-opacity: 0.9; stroke-width: 2"/>
     <use xlink:href="#md9ed99cbfe" x="39.986777" y="44.542838" style="fill: #ffc0cb; fill-opacity: 0.9; stroke: #ffc0cb; stroke-opacity: 0.9; stroke-width: 2"/>
    </g>
   </g>
   <g id="text_9">
    <g clip-path="url(#pc3c55da25c)">
     <!-- 0 -->
     <g style="opacity: 0.9" transform="translate(416.995723 318.921167)scale(0.12 -0.12)">
      <use xlink:href="#DejaVuSans-30"/>
     </g>
    </g>
   </g>
   <g id="text_10">
    <g clip-path="url(#pc3c55da25c)">
     <!-- 1 -->
     <g style="opacity: 0.9" transform="translate(349.972866 290.643539)scale(0.12 -0.12)">
      <use xlink:href="#DejaVuSans-31"/>
     </g>
    </g>
   </g>
   <g id="text_11">
    <g clip-path="url(#pc3c55da25c)">
     <!-- 2 -->
     <g style="opacity: 0.9" transform="translate(287.257612 244.134242)scale(0.12 -0.12)">
      <use xlink:href="#DejaVuSans-32"/>
     </g>
    </g>
   </g>
   <g id="text_12">
    <g clip-path="url(#pc3c55da25c)">
     <!-- 3 -->
     <g style="opacity: 0.9" transform="translate(236.342919 184.541281)scale(0.12 -0.12)">
      <defs>
       <path id="DejaVuSans-33" d="M 2597 2516 
Q 3050 2419 3304 2112 
Q 3559 1806 3559 1356 
Q 3559 666 3084 287 
Q 2609 -91 1734 -91 
Q 1441 -91 1130 -33 
Q 819 25 488 141 
L 488 750 
Q 750 597 1062 519 
Q 1375 441 1716 441 
Q 2309 441 2620 675 
Q 2931 909 2931 1356 
Q 2931 1769 2642 2001 
Q 2353 2234 1838 2234 
L 1294 2234 
L 1294 2753 
L 1863 2753 
Q 2328 2753 2575 2939 
Q 2822 3125 2822 3475 
Q 2822 3834 2567 4026 
Q 2313 4219 1838 4219 
Q 1578 4219 1281 4162 
Q 984 4106 628 3988 
L 628 4550 
Q 988 4650 1302 4700 
Q 1616 4750 1894 4750 
Q 2613 4750 3031 4423 
Q 3450 4097 3450 3541 
Q 3450 3153 3228 2886 
Q 3006 2619 2597 2516 
z
" transform="scale(0.015625)"/>
      </defs>
      <use xlink:href="#DejaVuSans-33"/>
     </g>
    </g>
   </g>
   <g id="text_13">
    <g clip-path="url(#pc3c55da25c)">
     <!-- 4 -->
     <g style="opacity: 0.9" transform="translate(206.334519 113.278468)scale(0.12 -0.12)">
      <defs>
       <path id="DejaVuSans-34" d="M 2419 4116 
L 825 1625 
L 2419 1625 
L 2419 4116 
z
M 2253 4666 
L 3047 4666 
L 3047 1625 
L 3713 1625 
L 3713 1100 
L 3047 1100 
L 3047 0 
L 2419 0 
L 2419 1100 
L 313 1100 
L 313 1709 
L 2253 4666 
z
" transform="scale(0.015625)"/>
      </defs>
      <use xlink:href="#DejaVuSans-34"/>
     </g>
    </g>
   </g>
   <g id="text_14">
    <g clip-path="url(#pc3c55da25c)">
     <!-- 5 -->
     <g style="opacity: 0.9" transform="translate(242.854598 59.103646)scale(0.12 -0.12)">
      <defs>
       <path id="DejaVuSans-35" d="M 691 4666 
L 3169 4666 
L 3169 4134 
L 1269 4134 
L 1269 2991 
Q 1406 3038 1543 3061 
Q 1681 3084 1819 3084 
Q 2600 3084 3056 2656 
Q 3513 2228 3513 1497 
Q 3513 744 3044 326 
Q 2575 -91 1722 -91 
Q 1428 -91 1123 -41 
Q 819 9 494 109 
L 494 744 
Q 775 591 1075 516 
Q 1375 441 1709 441 
Q 2250 441 2565 725 
Q 2881 1009 2881 1497 
Q 2881 1984 2565 2268 
Q 2250 2553 1709 2553 
Q 1456 2553 1204 2497 
Q 953 2441 691 2322 
L 691 4666 
z
" transform="scale(0.015625)"/>
      </defs>
      <use xlink:href="#DejaVuSans-35"/>
     </g>
    </g>
   </g>
   <g id="text_15">
    <g clip-path="url(#pc3c55da25c)">
     <!-- 6 -->
     <g style="opacity: 0.9" transform="translate(314.978993 33.301333)scale(0.12 -0.12)">
      <defs>
       <path id="DejaVuSans-36" d="M 2113 2584 
Q 1688 2584 1439 2293 
Q 1191 2003 1191 1497 
Q 1191 994 1439 701 
Q 1688 409 2113 409 
Q 2538 409 2786 701 
Q 3034 994 3034 1497 
Q 3034 2003 2786 2293 
Q 2538 2584 2113 2584 
z
M 3366 4563 
L 3366 3988 
Q 3128 4100 2886 4159 
Q 2644 4219 2406 4219 
Q 1781 4219 1451 3797 
Q 1122 3375 1075 2522 
Q 1259 2794 1537 2939 
Q 1816 3084 2150 3084 
Q 2853 3084 3261 2657 
Q 3669 2231 3669 1497 
Q 3669 778 3244 343 
Q 2819 -91 2113 -91 
Q 1303 -91 875 529 
Q 447 1150 447 2328 
Q 447 3434 972 4092 
Q 1497 4750 2381 4750 
Q 2619 4750 2861 4703 
Q 3103 4656 3366 4563 
z
" transform="scale(0.015625)"/>
      </defs>
      <use xlink:href="#DejaVuSans-36"/>
     </g>
    </g>
   </g>
   <g id="text_16">
    <g clip-path="url(#pc3c55da25c)">
     <!-- 7 -->
     <g style="opacity: 0.9" transform="translate(355.298181 68.815196)scale(0.12 -0.12)">
      <defs>
       <path id="DejaVuSans-37" d="M 525 4666 
L 3525 4666 
L 3525 4397 
L 1831 0 
L 1172 0 
L 2766 4134 
L 525 4134 
L 525 4666 
z
" transform="scale(0.015625)"/>
      </defs>
      <use xlink:href="#DejaVuSans-37"/>
     </g>
    </g>
   </g>
   <g id="text_17">
    <g clip-path="url(#pc3c55da25c)">
     <!-- 8 -->
     <g style="opacity: 0.9" transform="translate(294.262529 100.029277)scale(0.12 -0.12)">
      <defs>
       <path id="DejaVuSans-38" d="M 2034 2216 
Q 1584 2216 1326 1975 
Q 1069 1734 1069 1313 
Q 1069 891 1326 650 
Q 1584 409 2034 409 
Q 2484 409 2743 651 
Q 3003 894 3003 1313 
Q 3003 1734 2745 1975 
Q 2488 2216 2034 2216 
z
M 1403 2484 
Q 997 2584 770 2862 
Q 544 3141 544 3541 
Q 544 4100 942 4425 
Q 1341 4750 2034 4750 
Q 2731 4750 3128 4425 
Q 3525 4100 3525 3541 
Q 3525 3141 3298 2862 
Q 3072 2584 2669 2484 
Q 3125 2378 3379 2068 
Q 3634 1759 3634 1313 
Q 3634 634 3220 271 
Q 2806 -91 2034 -91 
Q 1263 -91 848 271 
Q 434 634 434 1313 
Q 434 1759 690 2068 
Q 947 2378 1403 2484 
z
M 1172 3481 
Q 1172 3119 1398 2916 
Q 1625 2713 2034 2713 
Q 2441 2713 2670 2916 
Q 2900 3119 2900 3481 
Q 2900 3844 2670 4047 
Q 2441 4250 2034 4250 
Q 1625 4250 1398 4047 
Q 1172 3844 1172 3481 
z
" transform="scale(0.015625)"/>
      </defs>
      <use xlink:href="#DejaVuSans-38"/>
     </g>
    </g>
   </g>
   <g id="text_18">
    <g clip-path="url(#pc3c55da25c)">
     <!-- 9 -->
     <g style="opacity: 0.9" transform="translate(105.315522 82.180423)scale(0.12 -0.12)">
      <defs>
       <path id="DejaVuSans-39" d="M 703 97 
L 703 672 
Q 941 559 1184 500 
Q 1428 441 1663 441 
Q 2288 441 2617 861 
Q 2947 1281 2994 2138 
Q 2813 1869 2534 1725 
Q 2256 1581 1919 1581 
Q 1219 1581 811 2004 
Q 403 2428 403 3163 
Q 403 3881 828 4315 
Q 1253 4750 1959 4750 
Q 2769 4750 3195 4129 
Q 3622 3509 3622 2328 
Q 3622 1225 3098 567 
Q 2575 -91 1691 -91 
Q 1453 -91 1209 -44 
Q 966 3 703 97 
z
M 1959 2075 
Q 2384 2075 2632 2365 
Q 2881 2656 2881 3163 
Q 2881 3666 2632 3958 
Q 2384 4250 1959 4250 
Q 1534 4250 1286 3958 
Q 1038 3666 1038 3163 
Q 1038 2656 1286 2365 
Q 1534 2075 1959 2075 
z
" transform="scale(0.015625)"/>
      </defs>
      <use xlink:href="#DejaVuSans-39"/>
     </g>
    </g>
   </g>
   <g id="text_19">
    <g clip-path="url(#pc3c55da25c)">
     <!-- 10 -->
     <g style="opacity: 0.9" transform="translate(32.351777 47.854088)scale(0.12 -0.12)">
      <use xlink:href="#DejaVuSans-31"/>
      <use xlink:href="#DejaVuSans-30" x="63.623047"/>
     </g>
    </g>
   </g>
   <g id="text_20">
    <g clip-path="url(#pc3c55da25c)">
     <!-- n &gt;= 0 -->
     <g transform="translate(564.336279 136.977806)scale(0.08 -0.08)">
      <defs>
       <path id="DejaVuSans-3e" d="M 678 3150 
L 678 3719 
L 4684 2266 
L 4684 1747 
L 678 294 
L 678 863 
L 3897 2003 
L 678 3150 
z
" transform="scale(0.015625)"/>
      </defs>
      <use xlink:href="#DejaVuSans-6e"/>
      <use xlink:href="#DejaVuSans-20" x="63.378906"/>
      <use xlink:href="#DejaVuSans-3e" x="95.166016"/>
      <use xlink:href="#DejaVuSans-3d" x="178.955078"/>
      <use xlink:href="#DejaVuSans-20" x="262.744141"/>
      <use xlink:href="#DejaVuSans-30" x="294.53125"/>
     </g>
    </g>
   </g>
   <g id="text_21">
    <g clip-path="url(#pc3c55da25c)">
     <!-- (((a * a) &lt;= n and t == ((2 * a) + 1)) and su == ((a + 1) * (a + 1))) -->
     <g transform="translate(205.240121 144.090435)scale(0.08 -0.08)">
      <defs>
       <path id="DejaVuSans-2a" d="M 3009 3897 
L 1888 3291 
L 3009 2681 
L 2828 2375 
L 1778 3009 
L 1778 1831 
L 1422 1831 
L 1422 3009 
L 372 2375 
L 191 2681 
L 1313 3291 
L 191 3897 
L 372 4206 
L 1422 3572 
L 1422 4750 
L 1778 4750 
L 1778 3572 
L 2828 4206 
L 3009 3897 
z
" transform="scale(0.015625)"/>
       <path id="DejaVuSans-29" d="M 513 4856 
L 1013 4856 
Q 1481 4119 1714 3412 
Q 1947 2706 1947 2009 
Q 1947 1309 1714 600 
Q 1481 -109 1013 -844 
L 513 -844 
Q 928 -128 1133 580 
Q 1338 1288 1338 2009 
Q 1338 2731 1133 3434 
Q 928 4138 513 4856 
z
" transform="scale(0.015625)"/>
       <path id="DejaVuSans-64" d="M 2906 2969 
L 2906 4863 
L 3481 4863 
L 3481 0 
L 2906 0 
L 2906 525 
Q 2725 213 2448 61 
Q 2172 -91 1784 -91 
Q 1150 -91 751 415 
Q 353 922 353 1747 
Q 353 2572 751 3078 
Q 1150 3584 1784 3584 
Q 2172 3584 2448 3432 
Q 2725 3281 2906 2969 
z
M 947 1747 
Q 947 1113 1208 752 
Q 1469 391 1925 391 
Q 2381 391 2643 752 
Q 2906 1113 2906 1747 
Q 2906 2381 2643 2742 
Q 2381 3103 1925 3103 
Q 1469 3103 1208 2742 
Q 947 2381 947 1747 
z
" transform="scale(0.015625)"/>
      </defs>
      <use xlink:href="#DejaVuSans-28"/>
      <use xlink:href="#DejaVuSans-28" x="39.013672"/>
      <use xlink:href="#DejaVuSans-28" x="78.027344"/>
      <use xlink:href="#DejaVuSans-61" x="117.041016"/>
      <use xlink:href="#DejaVuSans-20" x="178.320312"/>
      <use xlink:href="#DejaVuSans-2a" x="210.107422"/>
      <use xlink:href="#DejaVuSans-20" x="260.107422"/>
      <use xlink:href="#DejaVuSans-61" x="291.894531"/>
      <use xlink:href="#DejaVuSans-29" x="353.173828"/>
      <use xlink:href="#DejaVuSans-20" x="392.1875"/>
      <use xlink:href="#DejaVuSans-3c" x="423.974609"/>
      <use xlink:href="#DejaVuSans-3d" x="507.763672"/>
      <use xlink:href="#DejaVuSans-20" x="591.552734"/>
      <use xlink:href="#DejaVuSans-6e" x="623.339844"/>
      <use xlink:href="#DejaVuSans-20" x="686.71875"/>
      <use xlink:href="#DejaVuSans-61" x="718.505859"/>
      <use xlink:href="#DejaVuSans-6e" x="779.785156"/>
      <use xlink:href="#DejaVuSans-64" x="843.164062"/>
      <use xlink:href="#DejaVuSans-20" x="906.640625"/>
      <use xlink:href="#DejaVuSans-74" x="938.427734"/>
      <use xlink:href="#DejaVuSans-20" x="977.636719"/>
      <use xlink:href="#DejaVuSans-3d" x="1009.423828"/>
      <use xlink:href="#DejaVuSans-3d" x="1093.212891"/>
      <use xlink:href="#DejaVuSans-20" x="1177.001953"/>
      <use xlink:href="#DejaVuSans-28" x="1208.789062"/>
      <use xlink:href="#DejaVuSans-28" x="1247.802734"/>
      <use xlink:href="#DejaVuSans-32" x="1286.816406"/>
      <use xlink:href="#DejaVuSans-20" x="1350.439453"/>
      <use xlink:href="#DejaVuSans-2a" x="1382.226562"/>
      <use xlink:href="#DejaVuSans-20" x="1432.226562"/>
      <use xlink:href="#DejaVuSans-61" x="1464.013672"/>
      <use xlink:href="#DejaVuSans-29" x="1525.292969"/>
      <use xlink:href="#DejaVuSans-20" x="1564.306641"/>
      <use xlink:href="#DejaVuSans-2b" x="1596.09375"/>
      <use xlink:href="#DejaVuSans-20" x="1679.882812"/>
      <use xlink:href="#DejaVuSans-31" x="1711.669922"/>
      <use xlink:href="#DejaVuSans-29" x="1775.292969"/>
      <use xlink:href="#DejaVuSans-29" x="1814.306641"/>
      <use xlink:href="#DejaVuSans-20" x="1853.320312"/>
      <use xlink:href="#DejaVuSans-61" x="1885.107422"/>
      <use xlink:href="#DejaVuSans-6e" x="1946.386719"/>
      <use xlink:href="#DejaVuSans-64" x="2009.765625"/>
      <use xlink:href="#DejaVuSans-20" x="2073.242188"/>
      <use xlink:href="#DejaVuSans-73" x="2105.029297"/>
      <use xlink:href="#DejaVuSans-75" x="2157.128906"/>
      <use xlink:href="#DejaVuSans-20" x="2220.507812"/>
      <use xlink:href="#DejaVuSans-3d" x="2252.294922"/>
      <use xlink:href="#DejaVuSans-3d" x="2336.083984"/>
      <use xlink:href="#DejaVuSans-20" x="2419.873047"/>
      <use xlink:href="#DejaVuSans-28" x="2451.660156"/>
      <use xlink:href="#DejaVuSans-28" x="2490.673828"/>
      <use xlink:href="#DejaVuSans-61" x="2529.6875"/>
      <use xlink:href="#DejaVuSans-20" x="2590.966797"/>
      <use xlink:href="#DejaVuSans-2b" x="2622.753906"/>
      <use xlink:href="#DejaVuSans-20" x="2706.542969"/>
      <use xlink:href="#DejaVuSans-31" x="2738.330078"/>
      <use xlink:href="#DejaVuSans-29" x="2801.953125"/>
      <use xlink:href="#DejaVuSans-20" x="2840.966797"/>
      <use xlink:href="#DejaVuSans-2a" x="2872.753906"/>
      <use xlink:href="#DejaVuSans-20" x="2922.753906"/>
      <use xlink:href="#DejaVuSans-28" x="2954.541016"/>
      <use xlink:href="#DejaVuSans-61" x="2993.554688"/>
      <use xlink:href="#DejaVuSans-20" x="3054.833984"/>
      <use xlink:href="#DejaVuSans-2b" x="3086.621094"/>
      <use xlink:href="#DejaVuSans-20" x="3170.410156"/>
      <use xlink:href="#DejaVuSans-31" x="3202.197266"/>
      <use xlink:href="#DejaVuSans-29" x="3265.820312"/>
      <use xlink:href="#DejaVuSans-29" x="3304.833984"/>
      <use xlink:href="#DejaVuSans-29" x="3343.847656"/>
     </g>
    </g>
   </g>
   <g id="text_22">
    <g clip-path="url(#pc3c55da25c)">
     <!-- (a * a) &lt;= n -->
     <g transform="translate(89.848805 259.42569)scale(0.08 -0.08)">
      <use xlink:href="#DejaVuSans-28"/>
      <use xlink:href="#DejaVuSans-61" x="39.013672"/>
      <use xlink:href="#DejaVuSans-20" x="100.292969"/>
      <use xlink:href="#DejaVuSans-2a" x="132.080078"/>
      <use xlink:href="#DejaVuSans-20" x="182.080078"/>
      <use xlink:href="#DejaVuSans-61" x="213.867188"/>
      <use xlink:href="#DejaVuSans-29" x="275.146484"/>
      <use xlink:href="#DejaVuSans-20" x="314.160156"/>
      <use xlink:href="#DejaVuSans-3c" x="345.947266"/>
      <use xlink:href="#DejaVuSans-3d" x="429.736328"/>
      <use xlink:href="#DejaVuSans-20" x="513.525391"/>
      <use xlink:href="#DejaVuSans-6e" x="545.3125"/>
     </g>
    </g>
   </g>
  </g>
 </g>
 <defs>
  <clipPath id="pc3c55da25c">
   <rect x="0" y="0" width="460.8" height="345.6"/>
  </clipPath>
 </defs>
</svg>
