<?xml version="1.0" encoding="utf-8" standalone="no"?>
<!DOCTYPE svg PUBLIC "-//W3C//DTD SVG 1.1//EN"
  "http://www.w3.org/Graphics/SVG/1.1/DTD/svg11.dtd">
<svg xmlns:xlink="http://www.w3.org/1999/xlink" width="460.8pt" height="345.6pt" viewBox="0 0 460.8 345.6" xmlns="http://www.w3.org/2000/svg" version="1.1">
 <metadata>
  <rdf:RDF xmlns:dc="http://purl.org/dc/elements/1.1/" xmlns:cc="http://creativecommons.org/ns#" xmlns:rdf="http://www.w3.org/1999/02/22-rdf-syntax-ns#">
   <cc:Work>
    <dc:type rdf:resource="http://purl.org/dc/dcmitype/StillImage"/>
    <dc:date>2022-12-30T18:38:01.131845</dc:date>
    <dc:format>image/svg+xml</dc:format>
    <dc:creator>
     <cc:Agent>
      <dc:title>Matplotlib v3.5.1, https://matplotlib.org/</dc:title>
     </cc:Agent>
    </dc:creator>
   </cc:Work>
  </rdf:RDF>
 </metadata>
 <defs>
  <style type="text/css">*{stroke-linejoin: round; stroke-linecap: butt}</style>
 </defs>
 <g id="figure_1">
  <g id="patch_1">
   <path d="M 0 345.6 
L 460.8 345.6 
L 460.8 0 
L 0 0 
z
" style="fill: #ffffff"/>
  </g>
  <g id="axes_1">
   <g id="LineCollection_1">
    <path d="M 71.288185 315.609917 
L 51.495376 286.461094 
" clip-path="url(#padca1dc6e1)" style="fill: none; stroke: #000000; stroke-opacity: 0.9"/>
    <path d="M 51.495376 286.461094 
L 39.986777 247.481846 
" clip-path="url(#padca1dc6e1)" style="fill: none; stroke: #000000; stroke-opacity: 0.9"/>
    <path d="M 39.986777 247.481846 
L 52.2112 206.420354 
" clip-path="url(#padca1dc6e1)" style="fill: none; stroke: #000000; stroke-opacity: 0.9"/>
    <path d="M 52.2112 206.420354 
L 85.983782 174.076368 
" clip-path="url(#padca1dc6e1)" style="fill: none; stroke: #000000; stroke-opacity: 0.9"/>
    <path d="M 85.983782 174.076368 
L 132.697597 154.799062 
" clip-path="url(#padca1dc6e1)" style="fill: none; stroke: #000000; stroke-opacity: 0.9"/>
    <path d="M 132.697597 154.799062 
L 187.951255 149.779346 
" clip-path="url(#padca1dc6e1)" style="fill: none; stroke: #000000; stroke-opacity: 0.9"/>
    <path d="M 187.951255 149.779346 
L 249.782763 151.261993 
" clip-path="url(#padca1dc6e1)" style="fill: none; stroke: #000000; stroke-opacity: 0.9"/>
    <path d="M 249.782763 151.261993 
L 296.811484 163.888978 
" clip-path="url(#padca1dc6e1)" style="fill: none; stroke: #000000; stroke-opacity: 0.9"/>
    <path d="M 249.782763 151.261993 
L 294.08543 105.423122 
" clip-path="url(#padca1dc6e1)" style="fill: none; stroke: #000000; stroke-opacity: 0.9"/>
    <path d="M 249.782763 151.261993 
L 237.885683 200.493019 
" clip-path="url(#padca1dc6e1)" style="fill: none; stroke: #000000; stroke-opacity: 0.9"/>
    <path d="M 296.811484 163.888978 
L 344.622432 157.049553 
" clip-path="url(#padca1dc6e1)" style="fill: none; stroke: #000000; stroke-opacity: 0.9"/>
    <path d="M 344.622432 157.049553 
L 390.575673 167.508521 
" clip-path="url(#padca1dc6e1)" style="fill: none; stroke: #000000; stroke-opacity: 0.9"/>
    <path d="M 344.622432 157.049553 
L 335.756759 111.747213 
" clip-path="url(#padca1dc6e1)" style="fill: none; stroke: #000000; stroke-opacity: 0.9"/>
    <path d="M 390.575673 167.508521 
L 420.813223 147.392404 
" clip-path="url(#padca1dc6e1)" style="fill: none; stroke: #000000; stroke-opacity: 0.9"/>
    <path d="M 420.813223 147.392404 
L 400.462002 114.662838 
" clip-path="url(#padca1dc6e1)" style="fill: none; stroke: #000000; stroke-opacity: 0.9"/>
    <path d="M 400.462002 114.662838 
L 353.994043 101.548091 
" clip-path="url(#padca1dc6e1)" style="fill: none; stroke: #000000; stroke-opacity: 0.9"/>
    <path d="M 353.994043 101.548091 
L 294.08543 105.423122 
" clip-path="url(#padca1dc6e1)" style="fill: none; stroke: #000000; stroke-opacity: 0.9"/>
    <path d="M 335.756759 111.747213 
L 324.525934 65.628171 
" clip-path="url(#padca1dc6e1)" style="fill: none; stroke: #000000; stroke-opacity: 0.9"/>
    <path d="M 324.525934 65.628171 
L 310.990115 29.990083 
" clip-path="url(#padca1dc6e1)" style="fill: none; stroke: #000000; stroke-opacity: 0.9"/>
    <path d="M 310.990115 29.990083 
L 290.424959 56.780782 
" clip-path="url(#padca1dc6e1)" style="fill: none; stroke: #000000; stroke-opacity: 0.9"/>
    <path d="M 290.424959 56.780782 
L 294.08543 105.423122 
" clip-path="url(#padca1dc6e1)" style="fill: none; stroke: #000000; stroke-opacity: 0.9"/>
    <path d="M 237.885683 200.493019 
L 232.203364 240.370861 
" clip-path="url(#padca1dc6e1)" style="fill: none; stroke: #000000; stroke-opacity: 0.9"/>
   </g>
   <g id="text_1">
    <g id="patch_2">
     <path d="M 50.185376 295.695457 
L 62.221762 313.421415 
Q 63.569984 315.406938 65.555506 314.058716 
L 71.960884 309.709298 
Q 73.946406 308.361077 72.598185 306.375554 
L 60.561798 288.649596 
Q 59.213577 286.664074 57.228055 288.012295 
L 50.822677 292.361714 
Q 48.837154 293.709935 50.185376 295.695457 
z
" clip-path="url(#padca1dc6e1)" style="fill: #ffffff; stroke: #ffffff; stroke-linejoin: miter"/>
    </g>
    <g clip-path="url(#padca1dc6e1)">
     <!-- a = x -->
     <g style="fill: #ff0000" transform="translate(53.54732 293.41261)rotate(-304.177525)scale(0.08 -0.08)">
      <defs>
       <path id="DejaVuSans-61" d="M 2194 1759 
Q 1497 1759 1228 1600 
Q 959 1441 959 1056 
Q 959 750 1161 570 
Q 1363 391 1709 391 
Q 2188 391 2477 730 
Q 2766 1069 2766 1631 
L 2766 1759 
L 2194 1759 
z
M 3341 1997 
L 3341 0 
L 2766 0 
L 2766 531 
Q 2569 213 2275 61 
Q 1981 -91 1556 -91 
Q 1019 -91 701 211 
Q 384 513 384 1019 
Q 384 1609 779 1909 
Q 1175 2209 1959 2209 
L 2766 2209 
L 2766 2266 
Q 2766 2663 2505 2880 
Q 2244 3097 1772 3097 
Q 1472 3097 1187 3025 
Q 903 2953 641 2809 
L 641 3341 
Q 956 3463 1253 3523 
Q 1550 3584 1831 3584 
Q 2591 3584 2966 3190 
Q 3341 2797 3341 1997 
z
" transform="scale(0.015625)"/>
       <path id="DejaVuSans-20" transform="scale(0.015625)"/>
       <path id="DejaVuSans-3d" d="M 678 2906 
L 4684 2906 
L 4684 2381 
L 678 2381 
L 678 2906 
z
M 678 1631 
L 4684 1631 
L 4684 1100 
L 678 1100 
L 678 1631 
z
" transform="scale(0.015625)"/>
       <path id="DejaVuSans-78" d="M 3513 3500 
L 2247 1797 
L 3578 0 
L 2900 0 
L 1881 1375 
L 863 0 
L 184 0 
L 1544 1831 
L 300 3500 
L 978 3500 
L 1906 2253 
L 2834 3500 
L 3513 3500 
z
" transform="scale(0.015625)"/>
      </defs>
      <use xlink:href="#DejaVuSans-61"/>
      <use xlink:href="#DejaVuSans-20" x="61.279297"/>
      <use xlink:href="#DejaVuSans-3d" x="93.066406"/>
      <use xlink:href="#DejaVuSans-20" x="176.855469"/>
      <use xlink:href="#DejaVuSans-78" x="208.642578"/>
     </g>
    </g>
   </g>
   <g id="text_2">
    <g id="patch_3">
     <path d="M 36.667964 258.388102 
L 42.785039 279.106437 
Q 43.464635 281.408208 45.766406 280.728611 
L 53.192015 278.536205 
Q 55.493785 277.856609 54.814189 275.554838 
L 48.697114 254.836503 
Q 48.017517 252.534732 45.715746 253.214329 
L 38.290138 255.406735 
Q 35.988367 256.086331 36.667964 258.388102 
z
" clip-path="url(#padca1dc6e1)" style="fill: #ffffff; stroke: #ffffff; stroke-linejoin: miter"/>
    </g>
    <g clip-path="url(#padca1dc6e1)">
     <!-- b = y -->
     <g style="fill: #ff0000" transform="translate(40.565389 257.23739)rotate(-286.449203)scale(0.08 -0.08)">
      <defs>
       <path id="DejaVuSans-62" d="M 3116 1747 
Q 3116 2381 2855 2742 
Q 2594 3103 2138 3103 
Q 1681 3103 1420 2742 
Q 1159 2381 1159 1747 
Q 1159 1113 1420 752 
Q 1681 391 2138 391 
Q 2594 391 2855 752 
Q 3116 1113 3116 1747 
z
M 1159 2969 
Q 1341 3281 1617 3432 
Q 1894 3584 2278 3584 
Q 2916 3584 3314 3078 
Q 3713 2572 3713 1747 
Q 3713 922 3314 415 
Q 2916 -91 2278 -91 
Q 1894 -91 1617 61 
Q 1341 213 1159 525 
L 1159 0 
L 581 0 
L 581 4863 
L 1159 4863 
L 1159 2969 
z
" transform="scale(0.015625)"/>
       <path id="DejaVuSans-79" d="M 2059 -325 
Q 1816 -950 1584 -1140 
Q 1353 -1331 966 -1331 
L 506 -1331 
L 506 -850 
L 844 -850 
Q 1081 -850 1212 -737 
Q 1344 -625 1503 -206 
L 1606 56 
L 191 3500 
L 800 3500 
L 1894 763 
L 2988 3500 
L 3597 3500 
L 2059 -325 
z
" transform="scale(0.015625)"/>
      </defs>
      <use xlink:href="#DejaVuSans-62"/>
      <use xlink:href="#DejaVuSans-20" x="63.476562"/>
      <use xlink:href="#DejaVuSans-3d" x="95.263672"/>
      <use xlink:href="#DejaVuSans-20" x="179.052734"/>
      <use xlink:href="#DejaVuSans-79" x="210.839844"/>
     </g>
    </g>
   </g>
   <g id="text_3">
    <g id="patch_4">
     <path d="M 48.976923 239.262843 
L 55.24214 218.218156 
Q 55.926941 215.917928 53.626713 215.233127 
L 46.206083 213.02393 
Q 43.905855 212.339129 43.221054 214.639357 
L 36.955837 235.684044 
Q 36.271036 237.984272 38.571264 238.669073 
L 45.991894 240.87827 
Q 48.292122 241.563071 48.976923 239.262843 
z
" clip-path="url(#padca1dc6e1)" style="fill: #ffffff; stroke: #ffffff; stroke-linejoin: miter"/>
    </g>
    <g clip-path="url(#padca1dc6e1)">
     <!-- p = 1 -->
     <g style="fill: #ff0000" transform="translate(45.08211 238.103318)rotate(-73.421197)scale(0.08 -0.08)">
      <defs>
       <path id="DejaVuSans-70" d="M 1159 525 
L 1159 -1331 
L 581 -1331 
L 581 3500 
L 1159 3500 
L 1159 2969 
Q 1341 3281 1617 3432 
Q 1894 3584 2278 3584 
Q 2916 3584 3314 3078 
Q 3713 2572 3713 1747 
Q 3713 922 3314 415 
Q 2916 -91 2278 -91 
Q 1894 -91 1617 61 
Q 1341 213 1159 525 
z
M 3116 1747 
Q 3116 2381 2855 2742 
Q 2594 3103 2138 3103 
Q 1681 3103 1420 2742 
Q 1159 2381 1159 1747 
Q 1159 1113 1420 752 
Q 1681 391 2138 391 
Q 2594 391 2855 752 
Q 3116 1113 3116 1747 
z
" transform="scale(0.015625)"/>
       <path id="DejaVuSans-31" d="M 794 531 
L 1825 531 
L 1825 4091 
L 703 3866 
L 703 4441 
L 1819 4666 
L 2450 4666 
L 2450 531 
L 3481 531 
L 3481 0 
L 794 0 
L 794 531 
z
" transform="scale(0.015625)"/>
      </defs>
      <use xlink:href="#DejaVuSans-70"/>
      <use xlink:href="#DejaVuSans-20" x="63.476562"/>
      <use xlink:href="#DejaVuSans-3d" x="95.263672"/>
      <use xlink:href="#DejaVuSans-20" x="179.052734"/>
      <use xlink:href="#DejaVuSans-31" x="210.839844"/>
     </g>
    </g>
   </g>
   <g id="text_4">
    <g id="patch_5">
     <path d="M 65.506068 202.371199 
L 81.364144 187.183927 
Q 83.097464 185.523927 81.437464 183.790607 
L 76.082234 178.198843 
Q 74.422234 176.465523 72.688914 178.125523 
L 56.830838 193.312795 
Q 55.097518 194.972795 56.757518 196.706115 
L 62.112747 202.297879 
Q 63.772748 204.031199 65.506068 202.371199 
z
" clip-path="url(#padca1dc6e1)" style="fill: #ffffff; stroke: #ffffff; stroke-linejoin: miter"/>
    </g>
    <g clip-path="url(#padca1dc6e1)">
     <!-- q = 0 -->
     <g style="fill: #ff0000" transform="translate(62.695307 199.436291)rotate(-43.76219)scale(0.08 -0.08)">
      <defs>
       <path id="DejaVuSans-71" d="M 947 1747 
Q 947 1113 1208 752 
Q 1469 391 1925 391 
Q 2381 391 2643 752 
Q 2906 1113 2906 1747 
Q 2906 2381 2643 2742 
Q 2381 3103 1925 3103 
Q 1469 3103 1208 2742 
Q 947 2381 947 1747 
z
M 2906 525 
Q 2725 213 2448 61 
Q 2172 -91 1784 -91 
Q 1150 -91 751 415 
Q 353 922 353 1747 
Q 353 2572 751 3078 
Q 1150 3584 1784 3584 
Q 2172 3584 2448 3432 
Q 2725 3281 2906 2969 
L 2906 3500 
L 3481 3500 
L 3481 -1331 
L 2906 -1331 
L 2906 525 
z
" transform="scale(0.015625)"/>
       <path id="DejaVuSans-30" d="M 2034 4250 
Q 1547 4250 1301 3770 
Q 1056 3291 1056 2328 
Q 1056 1369 1301 889 
Q 1547 409 2034 409 
Q 2525 409 2770 889 
Q 3016 1369 3016 2328 
Q 3016 3291 2770 3770 
Q 2525 4250 2034 4250 
z
M 2034 4750 
Q 2819 4750 3233 4129 
Q 3647 3509 3647 2328 
Q 3647 1150 3233 529 
Q 2819 -91 2034 -91 
Q 1250 -91 836 529 
Q 422 1150 422 2328 
Q 422 3509 836 4129 
Q 1250 4750 2034 4750 
z
" transform="scale(0.015625)"/>
      </defs>
      <use xlink:href="#DejaVuSans-71"/>
      <use xlink:href="#DejaVuSans-20" x="63.476562"/>
      <use xlink:href="#DejaVuSans-3d" x="95.263672"/>
      <use xlink:href="#DejaVuSans-20" x="179.052734"/>
      <use xlink:href="#DejaVuSans-30" x="210.839844"/>
     </g>
    </g>
   </g>
   <g id="text_5">
    <g id="patch_6">
     <path d="M 102.411689 174.081342 
L 121.054199 166.388171 
Q 123.27272 165.472658 122.357207 163.254137 
L 119.403724 156.097096 
Q 118.488211 153.878575 116.26969 154.794088 
L 97.62718 162.487259 
Q 95.408659 163.402772 96.324172 165.621293 
L 99.277655 172.778334 
Q 100.193168 174.996855 102.411689 174.081342 
z
" clip-path="url(#padca1dc6e1)" style="fill: #ffffff; stroke: #ffffff; stroke-linejoin: miter"/>
    </g>
    <g clip-path="url(#padca1dc6e1)">
     <!-- r = 0 -->
     <g style="fill: #ff0000" transform="translate(100.861516 170.324878)rotate(-22.424383)scale(0.08 -0.08)">
      <defs>
       <path id="DejaVuSans-72" d="M 2631 2963 
Q 2534 3019 2420 3045 
Q 2306 3072 2169 3072 
Q 1681 3072 1420 2755 
Q 1159 2438 1159 1844 
L 1159 0 
L 581 0 
L 581 3500 
L 1159 3500 
L 1159 2956 
Q 1341 3275 1631 3429 
Q 1922 3584 2338 3584 
Q 2397 3584 2469 3576 
Q 2541 3569 2628 3553 
L 2631 2963 
z
" transform="scale(0.015625)"/>
      </defs>
      <use xlink:href="#DejaVuSans-72"/>
      <use xlink:href="#DejaVuSans-20" x="41.113281"/>
      <use xlink:href="#DejaVuSans-3d" x="72.900391"/>
      <use xlink:href="#DejaVuSans-20" x="156.689453"/>
      <use xlink:href="#DejaVuSans-30" x="188.476562"/>
     </g>
    </g>
   </g>
   <g id="text_6">
    <g id="patch_7">
     <path d="M 150.411858 159.486823 
L 171.37179 157.582644 
Q 173.761946 157.365501 173.544804 154.975345 
L 172.844294 147.264599 
Q 172.627151 144.874443 170.236995 145.091585 
L 149.277063 146.995765 
Q 146.886906 147.212907 147.104049 149.603064 
L 147.804559 157.313809 
Q 148.021701 159.703966 150.411858 159.486823 
z
" clip-path="url(#padca1dc6e1)" style="fill: #ffffff; stroke: #ffffff; stroke-linejoin: miter"/>
    </g>
    <g clip-path="url(#padca1dc6e1)">
     <!-- s = 1 -->
     <g style="fill: #ff0000" transform="translate(150.044186 155.43974)rotate(-5.190989)scale(0.08 -0.08)">
      <defs>
       <path id="DejaVuSans-73" d="M 2834 3397 
L 2834 2853 
Q 2591 2978 2328 3040 
Q 2066 3103 1784 3103 
Q 1356 3103 1142 2972 
Q 928 2841 928 2578 
Q 928 2378 1081 2264 
Q 1234 2150 1697 2047 
L 1894 2003 
Q 2506 1872 2764 1633 
Q 3022 1394 3022 966 
Q 3022 478 2636 193 
Q 2250 -91 1575 -91 
Q 1294 -91 989 -36 
Q 684 19 347 128 
L 347 722 
Q 666 556 975 473 
Q 1284 391 1588 391 
Q 1994 391 2212 530 
Q 2431 669 2431 922 
Q 2431 1156 2273 1281 
Q 2116 1406 1581 1522 
L 1381 1569 
Q 847 1681 609 1914 
Q 372 2147 372 2553 
Q 372 3047 722 3315 
Q 1072 3584 1716 3584 
Q 2034 3584 2315 3537 
Q 2597 3491 2834 3397 
z
" transform="scale(0.015625)"/>
      </defs>
      <use xlink:href="#DejaVuSans-73"/>
      <use xlink:href="#DejaVuSans-20" x="52.099609"/>
      <use xlink:href="#DejaVuSans-3d" x="83.886719"/>
      <use xlink:href="#DejaVuSans-20" x="167.675781"/>
      <use xlink:href="#DejaVuSans-31" x="199.462891"/>
     </g>
    </g>
   </g>
   <g id="text_7">
    <g id="patch_8">
     <path d="M 257.825057 159.914673 
L 285.516782 167.349768 
Q 287.834687 167.972114 288.457034 165.654209 
L 290.464749 158.17655 
Q 291.087095 155.858645 288.76919 155.236298 
L 261.077465 147.801204 
Q 258.75956 147.178857 258.137213 149.496763 
L 256.129498 156.974422 
Q 255.507152 159.292327 257.825057 159.914673 
z
" clip-path="url(#padca1dc6e1)" style="fill: #ffffff; stroke: #ffffff; stroke-linejoin: miter"/>
    </g>
    <g clip-path="url(#padca1dc6e1)">
     <!-- 1 &gt;= 0 -->
     <g style="fill: #ff0000" transform="translate(258.878832 155.989928)rotate(-344.970817)scale(0.08 -0.08)">
      <defs>
       <path id="DejaVuSans-3e" d="M 678 3150 
L 678 3719 
L 4684 2266 
L 4684 1747 
L 678 294 
L 678 863 
L 3897 2003 
L 678 3150 
z
" transform="scale(0.015625)"/>
      </defs>
      <use xlink:href="#DejaVuSans-31"/>
      <use xlink:href="#DejaVuSans-20" x="63.623047"/>
      <use xlink:href="#DejaVuSans-3e" x="95.410156"/>
      <use xlink:href="#DejaVuSans-3d" x="179.199219"/>
      <use xlink:href="#DejaVuSans-20" x="262.988281"/>
      <use xlink:href="#DejaVuSans-30" x="294.775391"/>
     </g>
    </g>
   </g>
   <g id="text_8">
    <g id="patch_9">
     <path d="M 352.325446 165.234391 
L 380.089169 171.553421 
Q 382.429322 172.08604 382.961941 169.745887 
L 384.680193 162.196455 
Q 385.212813 159.856302 382.87266 159.323683 
L 355.108937 153.004654 
Q 352.768784 152.472034 352.236164 154.812187 
L 350.517912 162.361619 
Q 349.985293 164.701772 352.325446 165.234391 
z
" clip-path="url(#padca1dc6e1)" style="fill: #ffffff; stroke: #ffffff; stroke-linejoin: miter"/>
    </g>
    <g clip-path="url(#padca1dc6e1)">
     <!-- a &gt;= b -->
     <g style="fill: #ff0000" transform="translate(353.227292 161.271976)rotate(-347.177893)scale(0.08 -0.08)">
      <use xlink:href="#DejaVuSans-61"/>
      <use xlink:href="#DejaVuSans-20" x="61.279297"/>
      <use xlink:href="#DejaVuSans-3e" x="93.066406"/>
      <use xlink:href="#DejaVuSans-3d" x="176.855469"/>
      <use xlink:href="#DejaVuSans-20" x="260.644531"/>
      <use xlink:href="#DejaVuSans-62" x="292.431641"/>
     </g>
    </g>
   </g>
   <g id="text_9">
    <g id="patch_10">
     <path d="M 391.824111 174.338586 
L 426.630403 151.183025 
Q 428.628612 149.853678 427.299265 147.855469 
L 422.892341 141.2312 
Q 421.562994 139.232992 419.564786 140.562339 
L 384.758493 163.7179 
Q 382.760285 165.047247 384.089632 167.045456 
L 388.496555 173.669725 
Q 389.825902 175.667933 391.824111 174.338586 
z
" clip-path="url(#padca1dc6e1)" style="fill: #ffffff; stroke: #ffffff; stroke-linejoin: miter"/>
    </g>
    <g clip-path="url(#padca1dc6e1)">
     <!-- a = (_a_0_ -->
     <g style="fill: #ff0000" transform="translate(389.44998 170.769911)rotate(-33.634608)scale(0.08 -0.08)">
      <defs>
       <path id="DejaVuSans-28" d="M 1984 4856 
Q 1566 4138 1362 3434 
Q 1159 2731 1159 2009 
Q 1159 1288 1364 580 
Q 1569 -128 1984 -844 
L 1484 -844 
Q 1016 -109 783 600 
Q 550 1309 550 2009 
Q 550 2706 781 3412 
Q 1013 4119 1484 4856 
L 1984 4856 
z
" transform="scale(0.015625)"/>
       <path id="DejaVuSans-5f" d="M 3263 -1063 
L 3263 -1509 
L -63 -1509 
L -63 -1063 
L 3263 -1063 
z
" transform="scale(0.015625)"/>
      </defs>
      <use xlink:href="#DejaVuSans-61"/>
      <use xlink:href="#DejaVuSans-20" x="61.279297"/>
      <use xlink:href="#DejaVuSans-3d" x="93.066406"/>
      <use xlink:href="#DejaVuSans-20" x="176.855469"/>
      <use xlink:href="#DejaVuSans-28" x="208.642578"/>
      <use xlink:href="#DejaVuSans-5f" x="247.65625"/>
      <use xlink:href="#DejaVuSans-61" x="297.65625"/>
      <use xlink:href="#DejaVuSans-5f" x="358.935547"/>
      <use xlink:href="#DejaVuSans-30" x="408.935547"/>
      <use xlink:href="#DejaVuSans-5f" x="472.558594"/>
     </g>
    </g>
   </g>
   <g id="text_10">
    <g id="patch_11">
     <path d="M 394.137245 116.569935 
L 416.305148 152.221155 
Q 417.572451 154.259277 419.610573 152.991974 
L 426.367161 148.790732 
Q 428.405284 147.523429 427.137981 145.485307 
L 404.970078 109.834088 
Q 403.702775 107.795965 401.664652 109.063268 
L 394.908064 113.26451 
Q 392.869942 114.531813 394.137245 116.569935 
z
" clip-path="url(#padca1dc6e1)" style="fill: #ffffff; stroke: #ffffff; stroke-linejoin: miter"/>
    </g>
    <g clip-path="url(#padca1dc6e1)">
     <!-- p = (_a_3_ -->
     <g style="fill: #ff0000" transform="translate(397.777204 114.306611)rotate(-301.87332)scale(0.08 -0.08)">
      <defs>
       <path id="DejaVuSans-33" d="M 2597 2516 
Q 3050 2419 3304 2112 
Q 3559 1806 3559 1356 
Q 3559 666 3084 287 
Q 2609 -91 1734 -91 
Q 1441 -91 1130 -33 
Q 819 25 488 141 
L 488 750 
Q 750 597 1062 519 
Q 1375 441 1716 441 
Q 2309 441 2620 675 
Q 2931 909 2931 1356 
Q 2931 1769 2642 2001 
Q 2353 2234 1838 2234 
L 1294 2234 
L 1294 2753 
L 1863 2753 
Q 2328 2753 2575 2939 
Q 2822 3125 2822 3475 
Q 2822 3834 2567 4026 
Q 2313 4219 1838 4219 
Q 1578 4219 1281 4162 
Q 984 4106 628 3988 
L 628 4550 
Q 988 4650 1302 4700 
Q 1616 4750 1894 4750 
Q 2613 4750 3031 4423 
Q 3450 4097 3450 3541 
Q 3450 3153 3228 2886 
Q 3006 2619 2597 2516 
z
" transform="scale(0.015625)"/>
      </defs>
      <use xlink:href="#DejaVuSans-70"/>
      <use xlink:href="#DejaVuSans-20" x="63.476562"/>
      <use xlink:href="#DejaVuSans-3d" x="95.263672"/>
      <use xlink:href="#DejaVuSans-20" x="179.052734"/>
      <use xlink:href="#DejaVuSans-28" x="210.839844"/>
      <use xlink:href="#DejaVuSans-5f" x="249.853516"/>
      <use xlink:href="#DejaVuSans-61" x="299.853516"/>
      <use xlink:href="#DejaVuSans-5f" x="361.132812"/>
      <use xlink:href="#DejaVuSans-33" x="411.132812"/>
      <use xlink:href="#DejaVuSans-5f" x="474.755859"/>
     </g>
    </g>
   </g>
   <g id="text_11">
    <g id="patch_12">
     <path d="M 359.343595 109.574139 
L 391.70564 118.707745 
Q 394.01541 119.359636 394.667301 117.049866 
L 396.770329 109.598451 
Q 397.42222 107.288681 395.11245 106.63679 
L 362.750405 97.503184 
Q 360.440635 96.851293 359.788744 99.161063 
L 357.685716 106.612478 
Q 357.033825 108.922248 359.343595 109.574139 
z
" clip-path="url(#padca1dc6e1)" style="fill: #ffffff; stroke: #ffffff; stroke-linejoin: miter"/>
    </g>
    <g clip-path="url(#padca1dc6e1)">
     <!-- r = (r - s -->
     <g style="fill: #ff0000" transform="translate(360.447396 105.663169)rotate(-344.239233)scale(0.08 -0.08)">
      <defs>
       <path id="DejaVuSans-2d" d="M 313 2009 
L 1997 2009 
L 1997 1497 
L 313 1497 
L 313 2009 
z
" transform="scale(0.015625)"/>
      </defs>
      <use xlink:href="#DejaVuSans-72"/>
      <use xlink:href="#DejaVuSans-20" x="41.113281"/>
      <use xlink:href="#DejaVuSans-3d" x="72.900391"/>
      <use xlink:href="#DejaVuSans-20" x="156.689453"/>
      <use xlink:href="#DejaVuSans-28" x="188.476562"/>
      <use xlink:href="#DejaVuSans-72" x="227.490234"/>
      <use xlink:href="#DejaVuSans-20" x="268.603516"/>
      <use xlink:href="#DejaVuSans-2d" x="300.390625"/>
      <use xlink:href="#DejaVuSans-20" x="336.474609"/>
      <use xlink:href="#DejaVuSans-73" x="368.261719"/>
     </g>
    </g>
   </g>
   <g id="text_12">
    <g id="patch_13">
     <path d="M 329.898667 114.466267 
L 338.171518 156.739373 
Q 338.632455 159.094694 340.987776 158.633758 
L 348.58614 157.146757 
Q 350.941461 156.685821 350.480524 154.330499 
L 342.207673 112.057393 
Q 341.746736 109.702072 339.391415 110.163008 
L 331.793051 111.650009 
Q 329.43773 112.110945 329.898667 114.466267 
z
" clip-path="url(#padca1dc6e1)" style="fill: #ffffff; stroke: #ffffff; stroke-linejoin: miter"/>
    </g>
    <g clip-path="url(#padca1dc6e1)">
     <!-- Not (a &gt;=  -->
     <g style="fill: #ff0000" transform="translate(333.886765 113.685795)rotate(-281.072848)scale(0.08 -0.08)">
      <defs>
       <path id="DejaVuSans-4e" d="M 628 4666 
L 1478 4666 
L 3547 763 
L 3547 4666 
L 4159 4666 
L 4159 0 
L 3309 0 
L 1241 3903 
L 1241 0 
L 628 0 
L 628 4666 
z
" transform="scale(0.015625)"/>
       <path id="DejaVuSans-6f" d="M 1959 3097 
Q 1497 3097 1228 2736 
Q 959 2375 959 1747 
Q 959 1119 1226 758 
Q 1494 397 1959 397 
Q 2419 397 2687 759 
Q 2956 1122 2956 1747 
Q 2956 2369 2687 2733 
Q 2419 3097 1959 3097 
z
M 1959 3584 
Q 2709 3584 3137 3096 
Q 3566 2609 3566 1747 
Q 3566 888 3137 398 
Q 2709 -91 1959 -91 
Q 1206 -91 779 398 
Q 353 888 353 1747 
Q 353 2609 779 3096 
Q 1206 3584 1959 3584 
z
" transform="scale(0.015625)"/>
       <path id="DejaVuSans-74" d="M 1172 4494 
L 1172 3500 
L 2356 3500 
L 2356 3053 
L 1172 3053 
L 1172 1153 
Q 1172 725 1289 603 
Q 1406 481 1766 481 
L 2356 481 
L 2356 0 
L 1766 0 
Q 1100 0 847 248 
Q 594 497 594 1153 
L 594 3053 
L 172 3053 
L 172 3500 
L 594 3500 
L 594 4494 
L 1172 4494 
z
" transform="scale(0.015625)"/>
      </defs>
      <use xlink:href="#DejaVuSans-4e"/>
      <use xlink:href="#DejaVuSans-6f" x="74.804688"/>
      <use xlink:href="#DejaVuSans-74" x="135.986328"/>
      <use xlink:href="#DejaVuSans-20" x="175.195312"/>
      <use xlink:href="#DejaVuSans-28" x="206.982422"/>
      <use xlink:href="#DejaVuSans-61" x="245.996094"/>
      <use xlink:href="#DejaVuSans-20" x="307.275391"/>
      <use xlink:href="#DejaVuSans-3e" x="339.0625"/>
      <use xlink:href="#DejaVuSans-3d" x="422.851562"/>
      <use xlink:href="#DejaVuSans-20" x="506.640625"/>
     </g>
    </g>
   </g>
   <g id="text_13">
    <g id="patch_14">
     <path d="M 318.973609 69.803193 
L 328.906531 110.592437 
Q 329.47438 112.924292 331.806235 112.356443 
L 339.545078 110.471894 
Q 341.876933 109.904045 341.309084 107.57219 
L 331.376162 66.782946 
Q 330.808313 64.451091 328.476458 65.01894 
L 320.737615 66.903489 
Q 318.40576 67.471338 318.973609 69.803193 
z
" clip-path="url(#padca1dc6e1)" style="fill: #ffffff; stroke: #ffffff; stroke-linejoin: miter"/>
    </g>
    <g clip-path="url(#padca1dc6e1)">
     <!-- b = (_a_6_ -->
     <g style="fill: #ff0000" transform="translate(323.138156 68.78905)rotate(-283.686179)scale(0.08 -0.08)">
      <defs>
       <path id="DejaVuSans-36" d="M 2113 2584 
Q 1688 2584 1439 2293 
Q 1191 2003 1191 1497 
Q 1191 994 1439 701 
Q 1688 409 2113 409 
Q 2538 409 2786 701 
Q 3034 994 3034 1497 
Q 3034 2003 2786 2293 
Q 2538 2584 2113 2584 
z
M 3366 4563 
L 3366 3988 
Q 3128 4100 2886 4159 
Q 2644 4219 2406 4219 
Q 1781 4219 1451 3797 
Q 1122 3375 1075 2522 
Q 1259 2794 1537 2939 
Q 1816 3084 2150 3084 
Q 2853 3084 3261 2657 
Q 3669 2231 3669 1497 
Q 3669 778 3244 343 
Q 2819 -91 2113 -91 
Q 1303 -91 875 529 
Q 447 1150 447 2328 
Q 447 3434 972 4092 
Q 1497 4750 2381 4750 
Q 2619 4750 2861 4703 
Q 3103 4656 3366 4563 
z
" transform="scale(0.015625)"/>
      </defs>
      <use xlink:href="#DejaVuSans-62"/>
      <use xlink:href="#DejaVuSans-20" x="63.476562"/>
      <use xlink:href="#DejaVuSans-3d" x="95.263672"/>
      <use xlink:href="#DejaVuSans-20" x="179.052734"/>
      <use xlink:href="#DejaVuSans-28" x="210.839844"/>
      <use xlink:href="#DejaVuSans-5f" x="249.853516"/>
      <use xlink:href="#DejaVuSans-61" x="299.853516"/>
      <use xlink:href="#DejaVuSans-5f" x="361.132812"/>
      <use xlink:href="#DejaVuSans-36" x="411.132812"/>
      <use xlink:href="#DejaVuSans-5f" x="474.755859"/>
     </g>
    </g>
   </g>
   <g id="text_14">
    <g id="patch_15">
     <path d="M 305.1283 32.218918 
L 318.662499 67.85274 
Q 319.514656 70.09636 321.758275 69.244204 
L 328.996286 66.495111 
Q 331.239905 65.642955 330.387749 63.399335 
L 316.85355 27.765513 
Q 316.001394 25.521893 313.757774 26.37405 
L 306.519763 29.123142 
Q 304.276144 29.975299 305.1283 32.218918 
z
" clip-path="url(#padca1dc6e1)" style="fill: #ffffff; stroke: #ffffff; stroke-linejoin: miter"/>
    </g>
    <g clip-path="url(#padca1dc6e1)">
     <!-- q = (q - p -->
     <g style="fill: #ff0000" transform="translate(308.927263 30.776022)rotate(-290.797442)scale(0.08 -0.08)">
      <use xlink:href="#DejaVuSans-71"/>
      <use xlink:href="#DejaVuSans-20" x="63.476562"/>
      <use xlink:href="#DejaVuSans-3d" x="95.263672"/>
      <use xlink:href="#DejaVuSans-20" x="179.052734"/>
      <use xlink:href="#DejaVuSans-28" x="210.839844"/>
      <use xlink:href="#DejaVuSans-71" x="249.853516"/>
      <use xlink:href="#DejaVuSans-20" x="313.330078"/>
      <use xlink:href="#DejaVuSans-2d" x="345.117188"/>
      <use xlink:href="#DejaVuSans-20" x="381.201172"/>
      <use xlink:href="#DejaVuSans-70" x="412.988281"/>
     </g>
    </g>
   </g>
   <g id="text_15">
    <g id="patch_16">
     <path d="M 293.26297 63.558313 
L 318.270871 30.979949 
Q 319.732253 29.076173 317.828477 27.614791 
L 311.517262 22.770157 
Q 309.613486 21.308775 308.152104 23.212551 
L 283.144203 55.790915 
Q 281.682821 57.694691 283.586597 59.156073 
L 289.897812 64.000707 
Q 291.801588 65.462089 293.26297 63.558313 
z
" clip-path="url(#padca1dc6e1)" style="fill: #ffffff; stroke: #ffffff; stroke-linejoin: miter"/>
    </g>
    <g clip-path="url(#padca1dc6e1)">
     <!-- s = (_a_9_ -->
     <g style="fill: #ff0000" transform="translate(289.862945 60.948376)rotate(-52.489327)scale(0.08 -0.08)">
      <defs>
       <path id="DejaVuSans-39" d="M 703 97 
L 703 672 
Q 941 559 1184 500 
Q 1428 441 1663 441 
Q 2288 441 2617 861 
Q 2947 1281 2994 2138 
Q 2813 1869 2534 1725 
Q 2256 1581 1919 1581 
Q 1219 1581 811 2004 
Q 403 2428 403 3163 
Q 403 3881 828 4315 
Q 1253 4750 1959 4750 
Q 2769 4750 3195 4129 
Q 3622 3509 3622 2328 
Q 3622 1225 3098 567 
Q 2575 -91 1691 -91 
Q 1453 -91 1209 -44 
Q 966 3 703 97 
z
M 1959 2075 
Q 2384 2075 2632 2365 
Q 2881 2656 2881 3163 
Q 2881 3666 2632 3958 
Q 2384 4250 1959 4250 
Q 1534 4250 1286 3958 
Q 1038 3666 1038 3163 
Q 1038 2656 1286 2365 
Q 1534 2075 1959 2075 
z
" transform="scale(0.015625)"/>
      </defs>
      <use xlink:href="#DejaVuSans-73"/>
      <use xlink:href="#DejaVuSans-20" x="52.099609"/>
      <use xlink:href="#DejaVuSans-3d" x="83.886719"/>
      <use xlink:href="#DejaVuSans-20" x="167.675781"/>
      <use xlink:href="#DejaVuSans-28" x="199.462891"/>
      <use xlink:href="#DejaVuSans-5f" x="238.476562"/>
      <use xlink:href="#DejaVuSans-61" x="288.476562"/>
      <use xlink:href="#DejaVuSans-5f" x="349.755859"/>
      <use xlink:href="#DejaVuSans-39" x="399.755859"/>
      <use xlink:href="#DejaVuSans-5f" x="463.378906"/>
     </g>
    </g>
   </g>
   <g id="text_16">
    <g id="patch_17">
     <path d="M 244.549697 199.614728 
L 255.310314 155.086476 
Q 255.874066 152.753627 253.541217 152.189875 
L 246.015349 150.371187 
Q 243.682501 149.807435 243.118749 152.140284 
L 232.358132 196.668536 
Q 231.79438 199.001385 234.127229 199.565137 
L 241.653096 201.383825 
Q 243.985945 201.947577 244.549697 199.614728 
z
" clip-path="url(#padca1dc6e1)" style="fill: #ffffff; stroke: #ffffff; stroke-linejoin: miter"/>
    </g>
    <g clip-path="url(#padca1dc6e1)">
     <!-- Not(1 &gt;= 0 -->
     <g style="fill: #ff0000" transform="translate(240.59965 198.660167)rotate(-76.414468)scale(0.08 -0.08)">
      <use xlink:href="#DejaVuSans-4e"/>
      <use xlink:href="#DejaVuSans-6f" x="74.804688"/>
      <use xlink:href="#DejaVuSans-74" x="135.986328"/>
      <use xlink:href="#DejaVuSans-28" x="175.195312"/>
      <use xlink:href="#DejaVuSans-31" x="214.208984"/>
      <use xlink:href="#DejaVuSans-20" x="277.832031"/>
      <use xlink:href="#DejaVuSans-3e" x="309.619141"/>
      <use xlink:href="#DejaVuSans-3d" x="393.408203"/>
      <use xlink:href="#DejaVuSans-20" x="477.197266"/>
      <use xlink:href="#DejaVuSans-30" x="508.984375"/>
     </g>
    </g>
   </g>
   <g id="PathCollection_1">
    <defs>
     <path id="m0d93770c57" d="M 0 11.18034 
C 2.965061 11.18034 5.80908 10.002309 7.905694 7.905694 
C 10.002309 5.80908 11.18034 2.965061 11.18034 0 
C 11.18034 -2.965061 10.002309 -5.80908 7.905694 -7.905694 
C 5.80908 -10.002309 2.965061 -11.18034 0 -11.18034 
C -2.965061 -11.18034 -5.80908 -10.002309 -7.905694 -7.905694 
C -10.002309 -5.80908 -11.18034 -2.965061 -11.18034 0 
C -11.18034 2.965061 -10.002309 5.80908 -7.905694 7.905694 
C -5.80908 10.002309 -2.965061 11.18034 0 11.18034 
z
" style="stroke: #ffc0cb; stroke-opacity: 0.9; stroke-width: 2"/>
    </defs>
    <g clip-path="url(#padca1dc6e1)">
     <use xlink:href="#m0d93770c57" x="71.288185" y="315.609917" style="fill: #ffc0cb; fill-opacity: 0.9; stroke: #ffc0cb; stroke-opacity: 0.9; stroke-width: 2"/>
     <use xlink:href="#m0d93770c57" x="51.495376" y="286.461094" style="fill: #ffc0cb; fill-opacity: 0.9; stroke: #ffc0cb; stroke-opacity: 0.9; stroke-width: 2"/>
     <use xlink:href="#m0d93770c57" x="39.986777" y="247.481846" style="fill: #ffc0cb; fill-opacity: 0.9; stroke: #ffc0cb; stroke-opacity: 0.9; stroke-width: 2"/>
     <use xlink:href="#m0d93770c57" x="52.2112" y="206.420354" style="fill: #ffc0cb; fill-opacity: 0.9; stroke: #ffc0cb; stroke-opacity: 0.9; stroke-width: 2"/>
     <use xlink:href="#m0d93770c57" x="85.983782" y="174.076368" style="fill: #ffc0cb; fill-opacity: 0.9; stroke: #ffc0cb; stroke-opacity: 0.9; stroke-width: 2"/>
     <use xlink:href="#m0d93770c57" x="132.697597" y="154.799062" style="fill: #ffc0cb; fill-opacity: 0.9; stroke: #ffc0cb; stroke-opacity: 0.9; stroke-width: 2"/>
     <use xlink:href="#m0d93770c57" x="187.951255" y="149.779346" style="fill: #ffc0cb; fill-opacity: 0.9; stroke: #ffc0cb; stroke-opacity: 0.9; stroke-width: 2"/>
     <use xlink:href="#m0d93770c57" x="249.782763" y="151.261993" style="fill: #ffc0cb; fill-opacity: 0.9; stroke: #ffc0cb; stroke-opacity: 0.9; stroke-width: 2"/>
     <use xlink:href="#m0d93770c57" x="296.811484" y="163.888978" style="fill: #ffc0cb; fill-opacity: 0.9; stroke: #ffc0cb; stroke-opacity: 0.9; stroke-width: 2"/>
     <use xlink:href="#m0d93770c57" x="344.622432" y="157.049553" style="fill: #ffc0cb; fill-opacity: 0.9; stroke: #ffc0cb; stroke-opacity: 0.9; stroke-width: 2"/>
     <use xlink:href="#m0d93770c57" x="390.575673" y="167.508521" style="fill: #ffc0cb; fill-opacity: 0.9; stroke: #ffc0cb; stroke-opacity: 0.9; stroke-width: 2"/>
     <use xlink:href="#m0d93770c57" x="420.813223" y="147.392404" style="fill: #ffc0cb; fill-opacity: 0.9; stroke: #ffc0cb; stroke-opacity: 0.9; stroke-width: 2"/>
     <use xlink:href="#m0d93770c57" x="400.462002" y="114.662838" style="fill: #ffc0cb; fill-opacity: 0.9; stroke: #ffc0cb; stroke-opacity: 0.9; stroke-width: 2"/>
     <use xlink:href="#m0d93770c57" x="353.994043" y="101.548091" style="fill: #ffc0cb; fill-opacity: 0.9; stroke: #ffc0cb; stroke-opacity: 0.9; stroke-width: 2"/>
     <use xlink:href="#m0d93770c57" x="335.756759" y="111.747213" style="fill: #ffc0cb; fill-opacity: 0.9; stroke: #ffc0cb; stroke-opacity: 0.9; stroke-width: 2"/>
     <use xlink:href="#m0d93770c57" x="324.525934" y="65.628171" style="fill: #ffc0cb; fill-opacity: 0.9; stroke: #ffc0cb; stroke-opacity: 0.9; stroke-width: 2"/>
     <use xlink:href="#m0d93770c57" x="310.990115" y="29.990083" style="fill: #ffc0cb; fill-opacity: 0.9; stroke: #ffc0cb; stroke-opacity: 0.9; stroke-width: 2"/>
     <use xlink:href="#m0d93770c57" x="290.424959" y="56.780782" style="fill: #ffc0cb; fill-opacity: 0.9; stroke: #ffc0cb; stroke-opacity: 0.9; stroke-width: 2"/>
     <use xlink:href="#m0d93770c57" x="294.08543" y="105.423122" style="fill: #ffc0cb; fill-opacity: 0.9; stroke: #ffc0cb; stroke-opacity: 0.9; stroke-width: 2"/>
     <use xlink:href="#m0d93770c57" x="237.885683" y="200.493019" style="fill: #ffc0cb; fill-opacity: 0.9; stroke: #ffc0cb; stroke-opacity: 0.9; stroke-width: 2"/>
     <use xlink:href="#m0d93770c57" x="232.203364" y="240.370861" style="fill: #ffc0cb; fill-opacity: 0.9; stroke: #ffc0cb; stroke-opacity: 0.9; stroke-width: 2"/>
    </g>
   </g>
   <g id="text_17">
    <g clip-path="url(#padca1dc6e1)">
     <!-- 0 -->
     <g style="opacity: 0.9" transform="translate(67.470685 318.921167)scale(0.12 -0.12)">
      <use xlink:href="#DejaVuSans-30"/>
     </g>
    </g>
   </g>
   <g id="text_18">
    <g clip-path="url(#padca1dc6e1)">
     <!-- 1 -->
     <g style="opacity: 0.9" transform="translate(47.677876 289.772344)scale(0.12 -0.12)">
      <use xlink:href="#DejaVuSans-31"/>
     </g>
    </g>
   </g>
   <g id="text_19">
    <g clip-path="url(#padca1dc6e1)">
     <!-- 2 -->
     <g style="opacity: 0.9" transform="translate(36.169277 250.793096)scale(0.12 -0.12)">
      <defs>
       <path id="DejaVuSans-32" d="M 1228 531 
L 3431 531 
L 3431 0 
L 469 0 
L 469 531 
Q 828 903 1448 1529 
Q 2069 2156 2228 2338 
Q 2531 2678 2651 2914 
Q 2772 3150 2772 3378 
Q 2772 3750 2511 3984 
Q 2250 4219 1831 4219 
Q 1534 4219 1204 4116 
Q 875 4013 500 3803 
L 500 4441 
Q 881 4594 1212 4672 
Q 1544 4750 1819 4750 
Q 2544 4750 2975 4387 
Q 3406 4025 3406 3419 
Q 3406 3131 3298 2873 
Q 3191 2616 2906 2266 
Q 2828 2175 2409 1742 
Q 1991 1309 1228 531 
z
" transform="scale(0.015625)"/>
      </defs>
      <use xlink:href="#DejaVuSans-32"/>
     </g>
    </g>
   </g>
   <g id="text_20">
    <g clip-path="url(#padca1dc6e1)">
     <!-- 3 -->
     <g style="opacity: 0.9" transform="translate(48.3937 209.731604)scale(0.12 -0.12)">
      <use xlink:href="#DejaVuSans-33"/>
     </g>
    </g>
   </g>
   <g id="text_21">
    <g clip-path="url(#padca1dc6e1)">
     <!-- 4 -->
     <g style="opacity: 0.9" transform="translate(82.166282 177.387618)scale(0.12 -0.12)">
      <defs>
       <path id="DejaVuSans-34" d="M 2419 4116 
L 825 1625 
L 2419 1625 
L 2419 4116 
z
M 2253 4666 
L 3047 4666 
L 3047 1625 
L 3713 1625 
L 3713 1100 
L 3047 1100 
L 3047 0 
L 2419 0 
L 2419 1100 
L 313 1100 
L 313 1709 
L 2253 4666 
z
" transform="scale(0.015625)"/>
      </defs>
      <use xlink:href="#DejaVuSans-34"/>
     </g>
    </g>
   </g>
   <g id="text_22">
    <g clip-path="url(#padca1dc6e1)">
     <!-- 5 -->
     <g style="opacity: 0.9" transform="translate(128.880097 158.110312)scale(0.12 -0.12)">
      <defs>
       <path id="DejaVuSans-35" d="M 691 4666 
L 3169 4666 
L 3169 4134 
L 1269 4134 
L 1269 2991 
Q 1406 3038 1543 3061 
Q 1681 3084 1819 3084 
Q 2600 3084 3056 2656 
Q 3513 2228 3513 1497 
Q 3513 744 3044 326 
Q 2575 -91 1722 -91 
Q 1428 -91 1123 -41 
Q 819 9 494 109 
L 494 744 
Q 775 591 1075 516 
Q 1375 441 1709 441 
Q 2250 441 2565 725 
Q 2881 1009 2881 1497 
Q 2881 1984 2565 2268 
Q 2250 2553 1709 2553 
Q 1456 2553 1204 2497 
Q 953 2441 691 2322 
L 691 4666 
z
" transform="scale(0.015625)"/>
      </defs>
      <use xlink:href="#DejaVuSans-35"/>
     </g>
    </g>
   </g>
   <g id="text_23">
    <g clip-path="url(#padca1dc6e1)">
     <!-- 6 -->
     <g style="opacity: 0.9" transform="translate(184.133755 153.090596)scale(0.12 -0.12)">
      <use xlink:href="#DejaVuSans-36"/>
     </g>
    </g>
   </g>
   <g id="text_24">
    <g clip-path="url(#padca1dc6e1)">
     <!-- 7 -->
     <g style="opacity: 0.9" transform="translate(245.965263 154.573243)scale(0.12 -0.12)">
      <defs>
       <path id="DejaVuSans-37" d="M 525 4666 
L 3525 4666 
L 3525 4397 
L 1831 0 
L 1172 0 
L 2766 4134 
L 525 4134 
L 525 4666 
z
" transform="scale(0.015625)"/>
      </defs>
      <use xlink:href="#DejaVuSans-37"/>
     </g>
    </g>
   </g>
   <g id="text_25">
    <g clip-path="url(#padca1dc6e1)">
     <!-- 8 -->
     <g style="opacity: 0.9" transform="translate(292.993984 167.200228)scale(0.12 -0.12)">
      <defs>
       <path id="DejaVuSans-38" d="M 2034 2216 
Q 1584 2216 1326 1975 
Q 1069 1734 1069 1313 
Q 1069 891 1326 650 
Q 1584 409 2034 409 
Q 2484 409 2743 651 
Q 3003 894 3003 1313 
Q 3003 1734 2745 1975 
Q 2488 2216 2034 2216 
z
M 1403 2484 
Q 997 2584 770 2862 
Q 544 3141 544 3541 
Q 544 4100 942 4425 
Q 1341 4750 2034 4750 
Q 2731 4750 3128 4425 
Q 3525 4100 3525 3541 
Q 3525 3141 3298 2862 
Q 3072 2584 2669 2484 
Q 3125 2378 3379 2068 
Q 3634 1759 3634 1313 
Q 3634 634 3220 271 
Q 2806 -91 2034 -91 
Q 1263 -91 848 271 
Q 434 634 434 1313 
Q 434 1759 690 2068 
Q 947 2378 1403 2484 
z
M 1172 3481 
Q 1172 3119 1398 2916 
Q 1625 2713 2034 2713 
Q 2441 2713 2670 2916 
Q 2900 3119 2900 3481 
Q 2900 3844 2670 4047 
Q 2441 4250 2034 4250 
Q 1625 4250 1398 4047 
Q 1172 3844 1172 3481 
z
" transform="scale(0.015625)"/>
      </defs>
      <use xlink:href="#DejaVuSans-38"/>
     </g>
    </g>
   </g>
   <g id="text_26">
    <g clip-path="url(#padca1dc6e1)">
     <!-- 9 -->
     <g style="opacity: 0.9" transform="translate(340.804932 160.360803)scale(0.12 -0.12)">
      <use xlink:href="#DejaVuSans-39"/>
     </g>
    </g>
   </g>
   <g id="text_27">
    <g clip-path="url(#padca1dc6e1)">
     <!-- 10 -->
     <g style="opacity: 0.9" transform="translate(382.940673 170.819771)scale(0.12 -0.12)">
      <use xlink:href="#DejaVuSans-31"/>
      <use xlink:href="#DejaVuSans-30" x="63.623047"/>
     </g>
    </g>
   </g>
   <g id="text_28">
    <g clip-path="url(#padca1dc6e1)">
     <!-- 11 -->
     <g style="opacity: 0.9" transform="translate(413.178223 150.703654)scale(0.12 -0.12)">
      <use xlink:href="#DejaVuSans-31"/>
      <use xlink:href="#DejaVuSans-31" x="63.623047"/>
     </g>
    </g>
   </g>
   <g id="text_29">
    <g clip-path="url(#padca1dc6e1)">
     <!-- 12 -->
     <g style="opacity: 0.9" transform="translate(392.827002 117.974088)scale(0.12 -0.12)">
      <use xlink:href="#DejaVuSans-31"/>
      <use xlink:href="#DejaVuSans-32" x="63.623047"/>
     </g>
    </g>
   </g>
   <g id="text_30">
    <g clip-path="url(#padca1dc6e1)">
     <!-- 13 -->
     <g style="opacity: 0.9" transform="translate(346.359043 104.859341)scale(0.12 -0.12)">
      <use xlink:href="#DejaVuSans-31"/>
      <use xlink:href="#DejaVuSans-33" x="63.623047"/>
     </g>
    </g>
   </g>
   <g id="text_31">
    <g clip-path="url(#padca1dc6e1)">
     <!-- 14 -->
     <g style="opacity: 0.9" transform="translate(328.121759 115.058463)scale(0.12 -0.12)">
      <use xlink:href="#DejaVuSans-31"/>
      <use xlink:href="#DejaVuSans-34" x="63.623047"/>
     </g>
    </g>
   </g>
   <g id="text_32">
    <g clip-path="url(#padca1dc6e1)">
     <!-- 15 -->
     <g style="opacity: 0.9" transform="translate(316.890934 68.939421)scale(0.12 -0.12)">
      <use xlink:href="#DejaVuSans-31"/>
      <use xlink:href="#DejaVuSans-35" x="63.623047"/>
     </g>
    </g>
   </g>
   <g id="text_33">
    <g clip-path="url(#padca1dc6e1)">
     <!-- 16 -->
     <g style="opacity: 0.9" transform="translate(303.355115 33.301333)scale(0.12 -0.12)">
      <use xlink:href="#DejaVuSans-31"/>
      <use xlink:href="#DejaVuSans-36" x="63.623047"/>
     </g>
    </g>
   </g>
   <g id="text_34">
    <g clip-path="url(#padca1dc6e1)">
     <!-- 17 -->
     <g style="opacity: 0.9" transform="translate(282.789959 60.092032)scale(0.12 -0.12)">
      <use xlink:href="#DejaVuSans-31"/>
      <use xlink:href="#DejaVuSans-37" x="63.623047"/>
     </g>
    </g>
   </g>
   <g id="text_35">
    <g clip-path="url(#padca1dc6e1)">
     <!-- 18 -->
     <g style="opacity: 0.9" transform="translate(286.45043 108.734372)scale(0.12 -0.12)">
      <use xlink:href="#DejaVuSans-31"/>
      <use xlink:href="#DejaVuSans-38" x="63.623047"/>
     </g>
    </g>
   </g>
   <g id="text_36">
    <g clip-path="url(#padca1dc6e1)">
     <!-- 19 -->
     <g style="opacity: 0.9" transform="translate(230.250683 203.804269)scale(0.12 -0.12)">
      <use xlink:href="#DejaVuSans-31"/>
      <use xlink:href="#DejaVuSans-39" x="63.623047"/>
     </g>
    </g>
   </g>
   <g id="text_37">
    <g clip-path="url(#padca1dc6e1)">
     <!-- 20 -->
     <g style="opacity: 0.9" transform="translate(224.568364 243.682111)scale(0.12 -0.12)">
      <use xlink:href="#DejaVuSans-32"/>
      <use xlink:href="#DejaVuSans-30" x="63.623047"/>
     </g>
    </g>
   </g>
   <g id="text_38">
    <g clip-path="url(#padca1dc6e1)">
     <!-- (x &gt;= 0 and y &gt;= 0) -->
     <g transform="translate(83.313821 -54.067756)scale(0.08 -0.08)">
      <defs>
       <path id="DejaVuSans-6e" d="M 3513 2113 
L 3513 0 
L 2938 0 
L 2938 2094 
Q 2938 2591 2744 2837 
Q 2550 3084 2163 3084 
Q 1697 3084 1428 2787 
Q 1159 2491 1159 1978 
L 1159 0 
L 581 0 
L 581 3500 
L 1159 3500 
L 1159 2956 
Q 1366 3272 1645 3428 
Q 1925 3584 2291 3584 
Q 2894 3584 3203 3211 
Q 3513 2838 3513 2113 
z
" transform="scale(0.015625)"/>
       <path id="DejaVuSans-64" d="M 2906 2969 
L 2906 4863 
L 3481 4863 
L 3481 0 
L 2906 0 
L 2906 525 
Q 2725 213 2448 61 
Q 2172 -91 1784 -91 
Q 1150 -91 751 415 
Q 353 922 353 1747 
Q 353 2572 751 3078 
Q 1150 3584 1784 3584 
Q 2172 3584 2448 3432 
Q 2725 3281 2906 2969 
z
M 947 1747 
Q 947 1113 1208 752 
Q 1469 391 1925 391 
Q 2381 391 2643 752 
Q 2906 1113 2906 1747 
Q 2906 2381 2643 2742 
Q 2381 3103 1925 3103 
Q 1469 3103 1208 2742 
Q 947 2381 947 1747 
z
" transform="scale(0.015625)"/>
       <path id="DejaVuSans-29" d="M 513 4856 
L 1013 4856 
Q 1481 4119 1714 3412 
Q 1947 2706 1947 2009 
Q 1947 1309 1714 600 
Q 1481 -109 1013 -844 
L 513 -844 
Q 928 -128 1133 580 
Q 1338 1288 1338 2009 
Q 1338 2731 1133 3434 
Q 928 4138 513 4856 
z
" transform="scale(0.015625)"/>
      </defs>
      <use xlink:href="#DejaVuSans-28"/>
      <use xlink:href="#DejaVuSans-78" x="39.013672"/>
      <use xlink:href="#DejaVuSans-20" x="98.193359"/>
      <use xlink:href="#DejaVuSans-3e" x="129.980469"/>
      <use xlink:href="#DejaVuSans-3d" x="213.769531"/>
      <use xlink:href="#DejaVuSans-20" x="297.558594"/>
      <use xlink:href="#DejaVuSans-30" x="329.345703"/>
      <use xlink:href="#DejaVuSans-20" x="392.96875"/>
      <use xlink:href="#DejaVuSans-61" x="424.755859"/>
      <use xlink:href="#DejaVuSans-6e" x="486.035156"/>
      <use xlink:href="#DejaVuSans-64" x="549.414062"/>
      <use xlink:href="#DejaVuSans-20" x="612.890625"/>
      <use xlink:href="#DejaVuSans-79" x="644.677734"/>
      <use xlink:href="#DejaVuSans-20" x="703.857422"/>
      <use xlink:href="#DejaVuSans-3e" x="735.644531"/>
      <use xlink:href="#DejaVuSans-3d" x="819.433594"/>
      <use xlink:href="#DejaVuSans-20" x="903.222656"/>
      <use xlink:href="#DejaVuSans-30" x="935.009766"/>
      <use xlink:href="#DejaVuSans-29" x="998.632812"/>
     </g>
    </g>
   </g>
   <g id="text_39">
    <g clip-path="url(#padca1dc6e1)">
     <!-- (a == ((y * r) + (x * p)) and b == ((x * q) + (y * s))) -->
     <g transform="translate(275.373886 164.518173)scale(0.08 -0.08)">
      <defs>
       <path id="DejaVuSans-2a" d="M 3009 3897 
L 1888 3291 
L 3009 2681 
L 2828 2375 
L 1778 3009 
L 1778 1831 
L 1422 1831 
L 1422 3009 
L 372 2375 
L 191 2681 
L 1313 3291 
L 191 3897 
L 372 4206 
L 1422 3572 
L 1422 4750 
L 1778 4750 
L 1778 3572 
L 2828 4206 
L 3009 3897 
z
" transform="scale(0.015625)"/>
       <path id="DejaVuSans-2b" d="M 2944 4013 
L 2944 2272 
L 4684 2272 
L 4684 1741 
L 2944 1741 
L 2944 0 
L 2419 0 
L 2419 1741 
L 678 1741 
L 678 2272 
L 2419 2272 
L 2419 4013 
L 2944 4013 
z
" transform="scale(0.015625)"/>
      </defs>
      <use xlink:href="#DejaVuSans-28"/>
      <use xlink:href="#DejaVuSans-61" x="39.013672"/>
      <use xlink:href="#DejaVuSans-20" x="100.292969"/>
      <use xlink:href="#DejaVuSans-3d" x="132.080078"/>
      <use xlink:href="#DejaVuSans-3d" x="215.869141"/>
      <use xlink:href="#DejaVuSans-20" x="299.658203"/>
      <use xlink:href="#DejaVuSans-28" x="331.445312"/>
      <use xlink:href="#DejaVuSans-28" x="370.458984"/>
      <use xlink:href="#DejaVuSans-79" x="409.472656"/>
      <use xlink:href="#DejaVuSans-20" x="468.652344"/>
      <use xlink:href="#DejaVuSans-2a" x="500.439453"/>
      <use xlink:href="#DejaVuSans-20" x="550.439453"/>
      <use xlink:href="#DejaVuSans-72" x="582.226562"/>
      <use xlink:href="#DejaVuSans-29" x="623.339844"/>
      <use xlink:href="#DejaVuSans-20" x="662.353516"/>
      <use xlink:href="#DejaVuSans-2b" x="694.140625"/>
      <use xlink:href="#DejaVuSans-20" x="777.929688"/>
      <use xlink:href="#DejaVuSans-28" x="809.716797"/>
      <use xlink:href="#DejaVuSans-78" x="848.730469"/>
      <use xlink:href="#DejaVuSans-20" x="907.910156"/>
      <use xlink:href="#DejaVuSans-2a" x="939.697266"/>
      <use xlink:href="#DejaVuSans-20" x="989.697266"/>
      <use xlink:href="#DejaVuSans-70" x="1021.484375"/>
      <use xlink:href="#DejaVuSans-29" x="1084.960938"/>
      <use xlink:href="#DejaVuSans-29" x="1123.974609"/>
      <use xlink:href="#DejaVuSans-20" x="1162.988281"/>
      <use xlink:href="#DejaVuSans-61" x="1194.775391"/>
      <use xlink:href="#DejaVuSans-6e" x="1256.054688"/>
      <use xlink:href="#DejaVuSans-64" x="1319.433594"/>
      <use xlink:href="#DejaVuSans-20" x="1382.910156"/>
      <use xlink:href="#DejaVuSans-62" x="1414.697266"/>
      <use xlink:href="#DejaVuSans-20" x="1478.173828"/>
      <use xlink:href="#DejaVuSans-3d" x="1509.960938"/>
      <use xlink:href="#DejaVuSans-3d" x="1593.75"/>
      <use xlink:href="#DejaVuSans-20" x="1677.539062"/>
      <use xlink:href="#DejaVuSans-28" x="1709.326172"/>
      <use xlink:href="#DejaVuSans-28" x="1748.339844"/>
      <use xlink:href="#DejaVuSans-78" x="1787.353516"/>
      <use xlink:href="#DejaVuSans-20" x="1846.533203"/>
      <use xlink:href="#DejaVuSans-2a" x="1878.320312"/>
      <use xlink:href="#DejaVuSans-20" x="1928.320312"/>
      <use xlink:href="#DejaVuSans-71" x="1960.107422"/>
      <use xlink:href="#DejaVuSans-29" x="2023.583984"/>
      <use xlink:href="#DejaVuSans-20" x="2062.597656"/>
      <use xlink:href="#DejaVuSans-2b" x="2094.384766"/>
      <use xlink:href="#DejaVuSans-20" x="2178.173828"/>
      <use xlink:href="#DejaVuSans-28" x="2209.960938"/>
      <use xlink:href="#DejaVuSans-79" x="2248.974609"/>
      <use xlink:href="#DejaVuSans-20" x="2308.154297"/>
      <use xlink:href="#DejaVuSans-2a" x="2339.941406"/>
      <use xlink:href="#DejaVuSans-20" x="2389.941406"/>
      <use xlink:href="#DejaVuSans-73" x="2421.728516"/>
      <use xlink:href="#DejaVuSans-29" x="2473.828125"/>
      <use xlink:href="#DejaVuSans-29" x="2512.841797"/>
      <use xlink:href="#DejaVuSans-29" x="2551.855469"/>
     </g>
    </g>
   </g>
   <g id="text_40">
    <g clip-path="url(#padca1dc6e1)">
     <!-- If -->
     <g transform="translate(234.212455 249.392535)scale(0.08 -0.08)">
      <defs>
       <path id="DejaVuSans-49" d="M 628 4666 
L 1259 4666 
L 1259 0 
L 628 0 
L 628 4666 
z
" transform="scale(0.015625)"/>
       <path id="DejaVuSans-66" d="M 2375 4863 
L 2375 4384 
L 1825 4384 
Q 1516 4384 1395 4259 
Q 1275 4134 1275 3809 
L 1275 3500 
L 2222 3500 
L 2222 3053 
L 1275 3053 
L 1275 0 
L 697 0 
L 697 3053 
L 147 3053 
L 147 3500 
L 697 3500 
L 697 3744 
Q 697 4328 969 4595 
Q 1241 4863 1831 4863 
L 2375 4863 
z
" transform="scale(0.015625)"/>
      </defs>
      <use xlink:href="#DejaVuSans-49"/>
      <use xlink:href="#DejaVuSans-66" x="29.492188"/>
     </g>
    </g>
   </g>
   <g id="text_41">
    <g clip-path="url(#padca1dc6e1)">
     <!-- 1 &gt;= 0 -->
     <g transform="translate(331.206539 111.567324)scale(0.08 -0.08)">
      <use xlink:href="#DejaVuSans-31"/>
      <use xlink:href="#DejaVuSans-20" x="63.623047"/>
      <use xlink:href="#DejaVuSans-3e" x="95.410156"/>
      <use xlink:href="#DejaVuSans-3d" x="179.199219"/>
      <use xlink:href="#DejaVuSans-20" x="262.988281"/>
      <use xlink:href="#DejaVuSans-30" x="294.775391"/>
     </g>
    </g>
   </g>
  </g>
 </g>
 <defs>
  <clipPath id="padca1dc6e1">
   <rect x="0" y="0" width="460.8" height="345.6"/>
  </clipPath>
 </defs>
</svg>
