<?xml version="1.0" encoding="utf-8" standalone="no"?>
<!DOCTYPE svg PUBLIC "-//W3C//DTD SVG 1.1//EN"
  "http://www.w3.org/Graphics/SVG/1.1/DTD/svg11.dtd">
<svg xmlns:xlink="http://www.w3.org/1999/xlink" width="460.8pt" height="345.6pt" viewBox="0 0 460.8 345.6" xmlns="http://www.w3.org/2000/svg" version="1.1">
 <metadata>
  <rdf:RDF xmlns:dc="http://purl.org/dc/elements/1.1/" xmlns:cc="http://creativecommons.org/ns#" xmlns:rdf="http://www.w3.org/1999/02/22-rdf-syntax-ns#">
   <cc:Work>
    <dc:type rdf:resource="http://purl.org/dc/dcmitype/StillImage"/>
    <dc:date>2022-12-30T17:37:32.840544</dc:date>
    <dc:format>image/svg+xml</dc:format>
    <dc:creator>
     <cc:Agent>
      <dc:title>Matplotlib v3.5.1, https://matplotlib.org/</dc:title>
     </cc:Agent>
    </dc:creator>
   </cc:Work>
  </rdf:RDF>
 </metadata>
 <defs>
  <style type="text/css">*{stroke-linejoin: round; stroke-linecap: butt}</style>
 </defs>
 <g id="figure_1">
  <g id="patch_1">
   <path d="M 0 345.6 
L 460.8 345.6 
L 460.8 0 
L 0 0 
z
" style="fill: #ffffff"/>
  </g>
  <g id="axes_1">
   <g id="LineCollection_1">
    <path d="M 39.986777 300.413408 
L 113.640024 280.737275 
" clip-path="url(#p543427563b)" style="fill: none; stroke: #000000; stroke-opacity: 0.9"/>
    <path d="M 113.640024 280.737275 
L 203.373965 256.387112 
" clip-path="url(#p543427563b)" style="fill: none; stroke: #000000; stroke-opacity: 0.9"/>
    <path d="M 203.373965 256.387112 
L 305.75159 228.880035 
" clip-path="url(#p543427563b)" style="fill: none; stroke: #000000; stroke-opacity: 0.9"/>
    <path d="M 305.75159 228.880035 
L 387.259963 249.569471 
" clip-path="url(#p543427563b)" style="fill: none; stroke: #000000; stroke-opacity: 0.9"/>
    <path d="M 305.75159 228.880035 
L 354.694814 307.817253 
" clip-path="url(#p543427563b)" style="fill: none; stroke: #000000; stroke-opacity: 0.9"/>
    <path d="M 305.75159 228.880035 
L 317.250341 118.125847 
" clip-path="url(#p543427563b)" style="fill: none; stroke: #000000; stroke-opacity: 0.9"/>
    <path d="M 387.259963 249.569471 
L 420.813223 315.609917 
" clip-path="url(#p543427563b)" style="fill: none; stroke: #000000; stroke-opacity: 0.9"/>
    <path d="M 420.813223 315.609917 
L 354.694814 307.817253 
" clip-path="url(#p543427563b)" style="fill: none; stroke: #000000; stroke-opacity: 0.9"/>
    <path d="M 317.250341 118.125847 
L 329.499959 29.990083 
" clip-path="url(#p543427563b)" style="fill: none; stroke: #000000; stroke-opacity: 0.9"/>
   </g>
   <g id="text_1">
    <g id="patch_2">
     <path d="M 59.726691 301.631152 
L 97.13726 291.637087 
Q 99.455947 291.01766 98.83652 288.698973 
L 96.838224 281.218791 
Q 96.218797 278.900104 93.90011 279.519531 
L 56.489541 289.513596 
Q 54.170853 290.133023 54.79028 292.45171 
L 56.788577 299.931892 
Q 57.408004 302.250579 59.726691 301.631152 
z
" clip-path="url(#p543427563b)" style="fill: #ffffff; stroke: #ffffff; stroke-linejoin: miter"/>
    </g>
    <g clip-path="url(#p543427563b)">
     <!-- x = (a * 0 -->
     <g style="fill: #ff0000" transform="translate(58.67786 297.705083)rotate(-14.957028)scale(0.08 -0.08)">
      <defs>
       <path id="DejaVuSans-78" d="M 3513 3500 
L 2247 1797 
L 3578 0 
L 2900 0 
L 1881 1375 
L 863 0 
L 184 0 
L 1544 1831 
L 300 3500 
L 978 3500 
L 1906 2253 
L 2834 3500 
L 3513 3500 
z
" transform="scale(0.015625)"/>
       <path id="DejaVuSans-20" transform="scale(0.015625)"/>
       <path id="DejaVuSans-3d" d="M 678 2906 
L 4684 2906 
L 4684 2381 
L 678 2381 
L 678 2906 
z
M 678 1631 
L 4684 1631 
L 4684 1100 
L 678 1100 
L 678 1631 
z
" transform="scale(0.015625)"/>
       <path id="DejaVuSans-28" d="M 1984 4856 
Q 1566 4138 1362 3434 
Q 1159 2731 1159 2009 
Q 1159 1288 1364 580 
Q 1569 -128 1984 -844 
L 1484 -844 
Q 1016 -109 783 600 
Q 550 1309 550 2009 
Q 550 2706 781 3412 
Q 1013 4119 1484 4856 
L 1984 4856 
z
" transform="scale(0.015625)"/>
       <path id="DejaVuSans-61" d="M 2194 1759 
Q 1497 1759 1228 1600 
Q 959 1441 959 1056 
Q 959 750 1161 570 
Q 1363 391 1709 391 
Q 2188 391 2477 730 
Q 2766 1069 2766 1631 
L 2766 1759 
L 2194 1759 
z
M 3341 1997 
L 3341 0 
L 2766 0 
L 2766 531 
Q 2569 213 2275 61 
Q 1981 -91 1556 -91 
Q 1019 -91 701 211 
Q 384 513 384 1019 
Q 384 1609 779 1909 
Q 1175 2209 1959 2209 
L 2766 2209 
L 2766 2266 
Q 2766 2663 2505 2880 
Q 2244 3097 1772 3097 
Q 1472 3097 1187 3025 
Q 903 2953 641 2809 
L 641 3341 
Q 956 3463 1253 3523 
Q 1550 3584 1831 3584 
Q 2591 3584 2966 3190 
Q 3341 2797 3341 1997 
z
" transform="scale(0.015625)"/>
       <path id="DejaVuSans-2a" d="M 3009 3897 
L 1888 3291 
L 3009 2681 
L 2828 2375 
L 1778 3009 
L 1778 1831 
L 1422 1831 
L 1422 3009 
L 372 2375 
L 191 2681 
L 1313 3291 
L 191 3897 
L 372 4206 
L 1422 3572 
L 1422 4750 
L 1778 4750 
L 1778 3572 
L 2828 4206 
L 3009 3897 
z
" transform="scale(0.015625)"/>
       <path id="DejaVuSans-30" d="M 2034 4250 
Q 1547 4250 1301 3770 
Q 1056 3291 1056 2328 
Q 1056 1369 1301 889 
Q 1547 409 2034 409 
Q 2525 409 2770 889 
Q 3016 1369 3016 2328 
Q 3016 3291 2770 3770 
Q 2525 4250 2034 4250 
z
M 2034 4750 
Q 2819 4750 3233 4129 
Q 3647 3509 3647 2328 
Q 3647 1150 3233 529 
Q 2819 -91 2034 -91 
Q 1250 -91 836 529 
Q 422 1150 422 2328 
Q 422 3509 836 4129 
Q 1250 4750 2034 4750 
z
" transform="scale(0.015625)"/>
      </defs>
      <use xlink:href="#DejaVuSans-78"/>
      <use xlink:href="#DejaVuSans-20" x="59.179688"/>
      <use xlink:href="#DejaVuSans-3d" x="90.966797"/>
      <use xlink:href="#DejaVuSans-20" x="174.755859"/>
      <use xlink:href="#DejaVuSans-28" x="206.542969"/>
      <use xlink:href="#DejaVuSans-61" x="245.556641"/>
      <use xlink:href="#DejaVuSans-20" x="306.835938"/>
      <use xlink:href="#DejaVuSans-2a" x="338.623047"/>
      <use xlink:href="#DejaVuSans-20" x="388.623047"/>
      <use xlink:href="#DejaVuSans-30" x="420.410156"/>
     </g>
    </g>
   </g>
   <g id="text_2">
    <g id="patch_3">
     <path d="M 150.417555 277.255384 
L 169.881171 271.973746 
Q 172.197407 271.345213 171.568874 269.028978 
L 169.541202 261.556706 
Q 168.912669 259.24047 166.596434 259.869003 
L 147.132818 265.150641 
Q 144.816582 265.779174 145.445115 268.095409 
L 147.472787 275.567681 
Q 148.10132 277.883917 150.417555 277.255384 
z
" clip-path="url(#p543427563b)" style="fill: #ffffff; stroke: #ffffff; stroke-linejoin: miter"/>
    </g>
    <g clip-path="url(#p543427563b)">
     <!-- r = 0 -->
     <g style="fill: #ff0000" transform="translate(149.353305 273.333467)rotate(-15.182154)scale(0.08 -0.08)">
      <defs>
       <path id="DejaVuSans-72" d="M 2631 2963 
Q 2534 3019 2420 3045 
Q 2306 3072 2169 3072 
Q 1681 3072 1420 2755 
Q 1159 2438 1159 1844 
L 1159 0 
L 581 0 
L 581 3500 
L 1159 3500 
L 1159 2956 
Q 1341 3275 1631 3429 
Q 1922 3584 2338 3584 
Q 2397 3584 2469 3576 
Q 2541 3569 2628 3553 
L 2631 2963 
z
" transform="scale(0.015625)"/>
      </defs>
      <use xlink:href="#DejaVuSans-72"/>
      <use xlink:href="#DejaVuSans-20" x="41.113281"/>
      <use xlink:href="#DejaVuSans-3d" x="72.900391"/>
      <use xlink:href="#DejaVuSans-20" x="156.689453"/>
      <use xlink:href="#DejaVuSans-30" x="188.476562"/>
     </g>
    </g>
   </g>
   <g id="text_3">
    <g id="patch_4">
     <path d="M 332.112261 242.041345 
L 357.813462 248.565133 
Q 360.139691 249.155604 360.730163 246.829375 
L 362.635049 239.324862 
Q 363.22552 236.998632 360.899291 236.408161 
L 335.19809 229.884373 
Q 332.871861 229.293901 332.281389 231.620131 
L 330.376504 239.124644 
Q 329.786032 241.450873 332.112261 242.041345 
z
" clip-path="url(#p543427563b)" style="fill: #ffffff; stroke: #ffffff; stroke-linejoin: miter"/>
    </g>
    <g clip-path="url(#p543427563b)">
     <!-- x &gt;= r -->
     <g style="fill: #ff0000" transform="translate(333.112065 238.102505)rotate(-345.7573)scale(0.08 -0.08)">
      <defs>
       <path id="DejaVuSans-3e" d="M 678 3150 
L 678 3719 
L 4684 2266 
L 4684 1747 
L 678 294 
L 678 863 
L 3897 2003 
L 678 3150 
z
" transform="scale(0.015625)"/>
      </defs>
      <use xlink:href="#DejaVuSans-78"/>
      <use xlink:href="#DejaVuSans-20" x="59.179688"/>
      <use xlink:href="#DejaVuSans-3e" x="90.966797"/>
      <use xlink:href="#DejaVuSans-3d" x="174.755859"/>
      <use xlink:href="#DejaVuSans-20" x="258.544922"/>
      <use xlink:href="#DejaVuSans-72" x="290.332031"/>
     </g>
    </g>
   </g>
   <g id="text_4">
    <g id="patch_5">
     <path d="M 388.920219 266.918189 
L 407.780384 304.039283 
Q 408.86749 306.178956 411.007163 305.091849 
L 418.100401 301.487978 
Q 420.240074 300.400871 419.152967 298.261199 
L 400.292802 261.140105 
Q 399.205696 259.000432 397.066023 260.087539 
L 389.972785 263.69141 
Q 387.833112 264.778517 388.920219 266.918189 
z
" clip-path="url(#p543427563b)" style="fill: #ffffff; stroke: #ffffff; stroke-linejoin: miter"/>
    </g>
    <g clip-path="url(#p543427563b)">
     <!-- x = (_a_2_ -->
     <g style="fill: #ff0000" transform="translate(392.741541 264.976685)rotate(-296.93382)scale(0.08 -0.08)">
      <defs>
       <path id="DejaVuSans-5f" d="M 3263 -1063 
L 3263 -1509 
L -63 -1509 
L -63 -1063 
L 3263 -1063 
z
" transform="scale(0.015625)"/>
       <path id="DejaVuSans-32" d="M 1228 531 
L 3431 531 
L 3431 0 
L 469 0 
L 469 531 
Q 828 903 1448 1529 
Q 2069 2156 2228 2338 
Q 2531 2678 2651 2914 
Q 2772 3150 2772 3378 
Q 2772 3750 2511 3984 
Q 2250 4219 1831 4219 
Q 1534 4219 1204 4116 
Q 875 4013 500 3803 
L 500 4441 
Q 881 4594 1212 4672 
Q 1544 4750 1819 4750 
Q 2544 4750 2975 4387 
Q 3406 4025 3406 3419 
Q 3406 3131 3298 2873 
Q 3191 2616 2906 2266 
Q 2828 2175 2409 1742 
Q 1991 1309 1228 531 
z
" transform="scale(0.015625)"/>
      </defs>
      <use xlink:href="#DejaVuSans-78"/>
      <use xlink:href="#DejaVuSans-20" x="59.179688"/>
      <use xlink:href="#DejaVuSans-3d" x="90.966797"/>
      <use xlink:href="#DejaVuSans-20" x="174.755859"/>
      <use xlink:href="#DejaVuSans-28" x="206.542969"/>
      <use xlink:href="#DejaVuSans-5f" x="245.556641"/>
      <use xlink:href="#DejaVuSans-61" x="295.556641"/>
      <use xlink:href="#DejaVuSans-5f" x="356.835938"/>
      <use xlink:href="#DejaVuSans-32" x="406.835938"/>
      <use xlink:href="#DejaVuSans-5f" x="470.458984"/>
     </g>
    </g>
   </g>
   <g id="text_5">
    <g id="patch_6">
     <path d="M 367.968712 315.69636 
L 406.071237 320.187094 
Q 408.45474 320.468012 408.735658 318.08451 
L 409.64191 310.39523 
Q 409.922828 308.011728 407.539325 307.73081 
L 369.4368 303.240076 
Q 367.053297 302.959158 366.772379 305.342661 
L 365.866127 313.03194 
Q 365.585209 315.415443 367.968712 315.69636 
z
" clip-path="url(#p543427563b)" style="fill: #ffffff; stroke: #ffffff; stroke-linejoin: miter"/>
    </g>
    <g clip-path="url(#p543427563b)">
     <!-- r = (r + 1 -->
     <g style="fill: #ff0000" transform="translate(368.44437 311.660544)rotate(-353.278173)scale(0.08 -0.08)">
      <defs>
       <path id="DejaVuSans-2b" d="M 2944 4013 
L 2944 2272 
L 4684 2272 
L 4684 1741 
L 2944 1741 
L 2944 0 
L 2419 0 
L 2419 1741 
L 678 1741 
L 678 2272 
L 2419 2272 
L 2419 4013 
L 2944 4013 
z
" transform="scale(0.015625)"/>
       <path id="DejaVuSans-31" d="M 794 531 
L 1825 531 
L 1825 4091 
L 703 3866 
L 703 4441 
L 1819 4666 
L 2450 4666 
L 2450 531 
L 3481 531 
L 3481 0 
L 794 0 
L 794 531 
z
" transform="scale(0.015625)"/>
      </defs>
      <use xlink:href="#DejaVuSans-72"/>
      <use xlink:href="#DejaVuSans-20" x="41.113281"/>
      <use xlink:href="#DejaVuSans-3d" x="72.900391"/>
      <use xlink:href="#DejaVuSans-20" x="156.689453"/>
      <use xlink:href="#DejaVuSans-28" x="188.476562"/>
      <use xlink:href="#DejaVuSans-72" x="227.490234"/>
      <use xlink:href="#DejaVuSans-20" x="268.603516"/>
      <use xlink:href="#DejaVuSans-2b" x="300.390625"/>
      <use xlink:href="#DejaVuSans-20" x="384.179688"/>
      <use xlink:href="#DejaVuSans-31" x="415.966797"/>
     </g>
    </g>
   </g>
   <g id="text_6">
    <g id="patch_7">
     <path d="M 315.484687 195.860737 
L 319.992687 152.440375 
Q 320.240529 150.053206 317.85336 149.805365 
L 310.152254 149.005818 
Q 307.765085 148.757977 307.517244 151.145146 
L 303.009243 194.565508 
Q 302.761402 196.952676 305.148571 197.200518 
L 312.849677 198.000064 
Q 315.236845 198.247905 315.484687 195.860737 
z
" clip-path="url(#p543427563b)" style="fill: #ffffff; stroke: #ffffff; stroke-linejoin: miter"/>
    </g>
    <g clip-path="url(#p543427563b)">
     <!-- Not(x &gt;= r -->
     <g style="fill: #ff0000" transform="translate(311.442663 195.441084)rotate(-84.072658)scale(0.08 -0.08)">
      <defs>
       <path id="DejaVuSans-4e" d="M 628 4666 
L 1478 4666 
L 3547 763 
L 3547 4666 
L 4159 4666 
L 4159 0 
L 3309 0 
L 1241 3903 
L 1241 0 
L 628 0 
L 628 4666 
z
" transform="scale(0.015625)"/>
       <path id="DejaVuSans-6f" d="M 1959 3097 
Q 1497 3097 1228 2736 
Q 959 2375 959 1747 
Q 959 1119 1226 758 
Q 1494 397 1959 397 
Q 2419 397 2687 759 
Q 2956 1122 2956 1747 
Q 2956 2369 2687 2733 
Q 2419 3097 1959 3097 
z
M 1959 3584 
Q 2709 3584 3137 3096 
Q 3566 2609 3566 1747 
Q 3566 888 3137 398 
Q 2709 -91 1959 -91 
Q 1206 -91 779 398 
Q 353 888 353 1747 
Q 353 2609 779 3096 
Q 1206 3584 1959 3584 
z
" transform="scale(0.015625)"/>
       <path id="DejaVuSans-74" d="M 1172 4494 
L 1172 3500 
L 2356 3500 
L 2356 3053 
L 1172 3053 
L 1172 1153 
Q 1172 725 1289 603 
Q 1406 481 1766 481 
L 2356 481 
L 2356 0 
L 1766 0 
Q 1100 0 847 248 
Q 594 497 594 1153 
L 594 3053 
L 172 3053 
L 172 3500 
L 594 3500 
L 594 4494 
L 1172 4494 
z
" transform="scale(0.015625)"/>
      </defs>
      <use xlink:href="#DejaVuSans-4e"/>
      <use xlink:href="#DejaVuSans-6f" x="74.804688"/>
      <use xlink:href="#DejaVuSans-74" x="135.986328"/>
      <use xlink:href="#DejaVuSans-28" x="175.195312"/>
      <use xlink:href="#DejaVuSans-78" x="214.208984"/>
      <use xlink:href="#DejaVuSans-20" x="273.388672"/>
      <use xlink:href="#DejaVuSans-3e" x="305.175781"/>
      <use xlink:href="#DejaVuSans-3d" x="388.964844"/>
      <use xlink:href="#DejaVuSans-20" x="472.753906"/>
      <use xlink:href="#DejaVuSans-72" x="504.541016"/>
     </g>
    </g>
   </g>
   <g id="PathCollection_1">
    <defs>
     <path id="m297aaf8d43" d="M 0 11.18034 
C 2.965061 11.18034 5.80908 10.002309 7.905694 7.905694 
C 10.002309 5.80908 11.18034 2.965061 11.18034 0 
C 11.18034 -2.965061 10.002309 -5.80908 7.905694 -7.905694 
C 5.80908 -10.002309 2.965061 -11.18034 0 -11.18034 
C -2.965061 -11.18034 -5.80908 -10.002309 -7.905694 -7.905694 
C -10.002309 -5.80908 -11.18034 -2.965061 -11.18034 0 
C -11.18034 2.965061 -10.002309 5.80908 -7.905694 7.905694 
C -5.80908 10.002309 -2.965061 11.18034 0 11.18034 
z
" style="stroke: #ffc0cb; stroke-opacity: 0.9; stroke-width: 2"/>
    </defs>
    <g clip-path="url(#p543427563b)">
     <use xlink:href="#m297aaf8d43" x="39.986777" y="300.413408" style="fill: #ffc0cb; fill-opacity: 0.9; stroke: #ffc0cb; stroke-opacity: 0.9; stroke-width: 2"/>
     <use xlink:href="#m297aaf8d43" x="113.640024" y="280.737275" style="fill: #ffc0cb; fill-opacity: 0.9; stroke: #ffc0cb; stroke-opacity: 0.9; stroke-width: 2"/>
     <use xlink:href="#m297aaf8d43" x="203.373965" y="256.387112" style="fill: #ffc0cb; fill-opacity: 0.9; stroke: #ffc0cb; stroke-opacity: 0.9; stroke-width: 2"/>
     <use xlink:href="#m297aaf8d43" x="305.75159" y="228.880035" style="fill: #ffc0cb; fill-opacity: 0.9; stroke: #ffc0cb; stroke-opacity: 0.9; stroke-width: 2"/>
     <use xlink:href="#m297aaf8d43" x="387.259963" y="249.569471" style="fill: #ffc0cb; fill-opacity: 0.9; stroke: #ffc0cb; stroke-opacity: 0.9; stroke-width: 2"/>
     <use xlink:href="#m297aaf8d43" x="420.813223" y="315.609917" style="fill: #ffc0cb; fill-opacity: 0.9; stroke: #ffc0cb; stroke-opacity: 0.9; stroke-width: 2"/>
     <use xlink:href="#m297aaf8d43" x="354.694814" y="307.817253" style="fill: #ffc0cb; fill-opacity: 0.9; stroke: #ffc0cb; stroke-opacity: 0.9; stroke-width: 2"/>
     <use xlink:href="#m297aaf8d43" x="317.250341" y="118.125847" style="fill: #ffc0cb; fill-opacity: 0.9; stroke: #ffc0cb; stroke-opacity: 0.9; stroke-width: 2"/>
     <use xlink:href="#m297aaf8d43" x="329.499959" y="29.990083" style="fill: #ffc0cb; fill-opacity: 0.9; stroke: #ffc0cb; stroke-opacity: 0.9; stroke-width: 2"/>
    </g>
   </g>
   <g id="text_7">
    <g clip-path="url(#p543427563b)">
     <!-- 0 -->
     <g style="opacity: 0.9" transform="translate(36.169277 303.724658)scale(0.12 -0.12)">
      <use xlink:href="#DejaVuSans-30"/>
     </g>
    </g>
   </g>
   <g id="text_8">
    <g clip-path="url(#p543427563b)">
     <!-- 1 -->
     <g style="opacity: 0.9" transform="translate(109.822524 284.048525)scale(0.12 -0.12)">
      <use xlink:href="#DejaVuSans-31"/>
     </g>
    </g>
   </g>
   <g id="text_9">
    <g clip-path="url(#p543427563b)">
     <!-- 2 -->
     <g style="opacity: 0.9" transform="translate(199.556465 259.698362)scale(0.12 -0.12)">
      <use xlink:href="#DejaVuSans-32"/>
     </g>
    </g>
   </g>
   <g id="text_10">
    <g clip-path="url(#p543427563b)">
     <!-- 3 -->
     <g style="opacity: 0.9" transform="translate(301.93409 232.191285)scale(0.12 -0.12)">
      <defs>
       <path id="DejaVuSans-33" d="M 2597 2516 
Q 3050 2419 3304 2112 
Q 3559 1806 3559 1356 
Q 3559 666 3084 287 
Q 2609 -91 1734 -91 
Q 1441 -91 1130 -33 
Q 819 25 488 141 
L 488 750 
Q 750 597 1062 519 
Q 1375 441 1716 441 
Q 2309 441 2620 675 
Q 2931 909 2931 1356 
Q 2931 1769 2642 2001 
Q 2353 2234 1838 2234 
L 1294 2234 
L 1294 2753 
L 1863 2753 
Q 2328 2753 2575 2939 
Q 2822 3125 2822 3475 
Q 2822 3834 2567 4026 
Q 2313 4219 1838 4219 
Q 1578 4219 1281 4162 
Q 984 4106 628 3988 
L 628 4550 
Q 988 4650 1302 4700 
Q 1616 4750 1894 4750 
Q 2613 4750 3031 4423 
Q 3450 4097 3450 3541 
Q 3450 3153 3228 2886 
Q 3006 2619 2597 2516 
z
" transform="scale(0.015625)"/>
      </defs>
      <use xlink:href="#DejaVuSans-33"/>
     </g>
    </g>
   </g>
   <g id="text_11">
    <g clip-path="url(#p543427563b)">
     <!-- 4 -->
     <g style="opacity: 0.9" transform="translate(383.442463 252.880721)scale(0.12 -0.12)">
      <defs>
       <path id="DejaVuSans-34" d="M 2419 4116 
L 825 1625 
L 2419 1625 
L 2419 4116 
z
M 2253 4666 
L 3047 4666 
L 3047 1625 
L 3713 1625 
L 3713 1100 
L 3047 1100 
L 3047 0 
L 2419 0 
L 2419 1100 
L 313 1100 
L 313 1709 
L 2253 4666 
z
" transform="scale(0.015625)"/>
      </defs>
      <use xlink:href="#DejaVuSans-34"/>
     </g>
    </g>
   </g>
   <g id="text_12">
    <g clip-path="url(#p543427563b)">
     <!-- 5 -->
     <g style="opacity: 0.9" transform="translate(416.995723 318.921167)scale(0.12 -0.12)">
      <defs>
       <path id="DejaVuSans-35" d="M 691 4666 
L 3169 4666 
L 3169 4134 
L 1269 4134 
L 1269 2991 
Q 1406 3038 1543 3061 
Q 1681 3084 1819 3084 
Q 2600 3084 3056 2656 
Q 3513 2228 3513 1497 
Q 3513 744 3044 326 
Q 2575 -91 1722 -91 
Q 1428 -91 1123 -41 
Q 819 9 494 109 
L 494 744 
Q 775 591 1075 516 
Q 1375 441 1709 441 
Q 2250 441 2565 725 
Q 2881 1009 2881 1497 
Q 2881 1984 2565 2268 
Q 2250 2553 1709 2553 
Q 1456 2553 1204 2497 
Q 953 2441 691 2322 
L 691 4666 
z
" transform="scale(0.015625)"/>
      </defs>
      <use xlink:href="#DejaVuSans-35"/>
     </g>
    </g>
   </g>
   <g id="text_13">
    <g clip-path="url(#p543427563b)">
     <!-- 6 -->
     <g style="opacity: 0.9" transform="translate(350.877314 311.128503)scale(0.12 -0.12)">
      <defs>
       <path id="DejaVuSans-36" d="M 2113 2584 
Q 1688 2584 1439 2293 
Q 1191 2003 1191 1497 
Q 1191 994 1439 701 
Q 1688 409 2113 409 
Q 2538 409 2786 701 
Q 3034 994 3034 1497 
Q 3034 2003 2786 2293 
Q 2538 2584 2113 2584 
z
M 3366 4563 
L 3366 3988 
Q 3128 4100 2886 4159 
Q 2644 4219 2406 4219 
Q 1781 4219 1451 3797 
Q 1122 3375 1075 2522 
Q 1259 2794 1537 2939 
Q 1816 3084 2150 3084 
Q 2853 3084 3261 2657 
Q 3669 2231 3669 1497 
Q 3669 778 3244 343 
Q 2819 -91 2113 -91 
Q 1303 -91 875 529 
Q 447 1150 447 2328 
Q 447 3434 972 4092 
Q 1497 4750 2381 4750 
Q 2619 4750 2861 4703 
Q 3103 4656 3366 4563 
z
" transform="scale(0.015625)"/>
      </defs>
      <use xlink:href="#DejaVuSans-36"/>
     </g>
    </g>
   </g>
   <g id="text_14">
    <g clip-path="url(#p543427563b)">
     <!-- 7 -->
     <g style="opacity: 0.9" transform="translate(313.432841 121.437097)scale(0.12 -0.12)">
      <defs>
       <path id="DejaVuSans-37" d="M 525 4666 
L 3525 4666 
L 3525 4397 
L 1831 0 
L 1172 0 
L 2766 4134 
L 525 4134 
L 525 4666 
z
" transform="scale(0.015625)"/>
      </defs>
      <use xlink:href="#DejaVuSans-37"/>
     </g>
    </g>
   </g>
   <g id="text_15">
    <g clip-path="url(#p543427563b)">
     <!-- 8 -->
     <g style="opacity: 0.9" transform="translate(325.682459 33.301333)scale(0.12 -0.12)">
      <defs>
       <path id="DejaVuSans-38" d="M 2034 2216 
Q 1584 2216 1326 1975 
Q 1069 1734 1069 1313 
Q 1069 891 1326 650 
Q 1584 409 2034 409 
Q 2484 409 2743 651 
Q 3003 894 3003 1313 
Q 3003 1734 2745 1975 
Q 2488 2216 2034 2216 
z
M 1403 2484 
Q 997 2584 770 2862 
Q 544 3141 544 3541 
Q 544 4100 942 4425 
Q 1341 4750 2034 4750 
Q 2731 4750 3128 4425 
Q 3525 4100 3525 3541 
Q 3525 3141 3298 2862 
Q 3072 2584 2669 2484 
Q 3125 2378 3379 2068 
Q 3634 1759 3634 1313 
Q 3634 634 3220 271 
Q 2806 -91 2034 -91 
Q 1263 -91 848 271 
Q 434 634 434 1313 
Q 434 1759 690 2068 
Q 947 2378 1403 2484 
z
M 1172 3481 
Q 1172 3119 1398 2916 
Q 1625 2713 2034 2713 
Q 2441 2713 2670 2916 
Q 2900 3119 2900 3481 
Q 2900 3844 2670 4047 
Q 2441 4250 2034 4250 
Q 1625 4250 1398 4047 
Q 1172 3844 1172 3481 
z
" transform="scale(0.015625)"/>
      </defs>
      <use xlink:href="#DejaVuSans-38"/>
     </g>
    </g>
   </g>
   <g id="text_16">
    <g clip-path="url(#p543427563b)">
     <!-- a &gt;= 1 -->
     <g transform="translate(51.207373 501.372887)scale(0.08 -0.08)">
      <use xlink:href="#DejaVuSans-61"/>
      <use xlink:href="#DejaVuSans-20" x="61.279297"/>
      <use xlink:href="#DejaVuSans-3e" x="93.066406"/>
      <use xlink:href="#DejaVuSans-3d" x="176.855469"/>
      <use xlink:href="#DejaVuSans-20" x="260.644531"/>
      <use xlink:href="#DejaVuSans-31" x="292.431641"/>
     </g>
    </g>
   </g>
   <g id="text_17">
    <g clip-path="url(#p543427563b)">
     <!-- (a == (((_a_0_)*(1)+(_a_1_)*(x) + (r * r)) - r) and x &gt;= 0) -->
     <g transform="translate(301.799726 184.331642)scale(0.08 -0.08)">
      <defs>
       <path id="DejaVuSans-29" d="M 513 4856 
L 1013 4856 
Q 1481 4119 1714 3412 
Q 1947 2706 1947 2009 
Q 1947 1309 1714 600 
Q 1481 -109 1013 -844 
L 513 -844 
Q 928 -128 1133 580 
Q 1338 1288 1338 2009 
Q 1338 2731 1133 3434 
Q 928 4138 513 4856 
z
" transform="scale(0.015625)"/>
       <path id="DejaVuSans-2d" d="M 313 2009 
L 1997 2009 
L 1997 1497 
L 313 1497 
L 313 2009 
z
" transform="scale(0.015625)"/>
       <path id="DejaVuSans-6e" d="M 3513 2113 
L 3513 0 
L 2938 0 
L 2938 2094 
Q 2938 2591 2744 2837 
Q 2550 3084 2163 3084 
Q 1697 3084 1428 2787 
Q 1159 2491 1159 1978 
L 1159 0 
L 581 0 
L 581 3500 
L 1159 3500 
L 1159 2956 
Q 1366 3272 1645 3428 
Q 1925 3584 2291 3584 
Q 2894 3584 3203 3211 
Q 3513 2838 3513 2113 
z
" transform="scale(0.015625)"/>
       <path id="DejaVuSans-64" d="M 2906 2969 
L 2906 4863 
L 3481 4863 
L 3481 0 
L 2906 0 
L 2906 525 
Q 2725 213 2448 61 
Q 2172 -91 1784 -91 
Q 1150 -91 751 415 
Q 353 922 353 1747 
Q 353 2572 751 3078 
Q 1150 3584 1784 3584 
Q 2172 3584 2448 3432 
Q 2725 3281 2906 2969 
z
M 947 1747 
Q 947 1113 1208 752 
Q 1469 391 1925 391 
Q 2381 391 2643 752 
Q 2906 1113 2906 1747 
Q 2906 2381 2643 2742 
Q 2381 3103 1925 3103 
Q 1469 3103 1208 2742 
Q 947 2381 947 1747 
z
" transform="scale(0.015625)"/>
      </defs>
      <use xlink:href="#DejaVuSans-28"/>
      <use xlink:href="#DejaVuSans-61" x="39.013672"/>
      <use xlink:href="#DejaVuSans-20" x="100.292969"/>
      <use xlink:href="#DejaVuSans-3d" x="132.080078"/>
      <use xlink:href="#DejaVuSans-3d" x="215.869141"/>
      <use xlink:href="#DejaVuSans-20" x="299.658203"/>
      <use xlink:href="#DejaVuSans-28" x="331.445312"/>
      <use xlink:href="#DejaVuSans-28" x="370.458984"/>
      <use xlink:href="#DejaVuSans-28" x="409.472656"/>
      <use xlink:href="#DejaVuSans-5f" x="448.486328"/>
      <use xlink:href="#DejaVuSans-61" x="498.486328"/>
      <use xlink:href="#DejaVuSans-5f" x="559.765625"/>
      <use xlink:href="#DejaVuSans-30" x="609.765625"/>
      <use xlink:href="#DejaVuSans-5f" x="673.388672"/>
      <use xlink:href="#DejaVuSans-29" x="723.388672"/>
      <use xlink:href="#DejaVuSans-2a" x="762.402344"/>
      <use xlink:href="#DejaVuSans-28" x="812.402344"/>
      <use xlink:href="#DejaVuSans-31" x="851.416016"/>
      <use xlink:href="#DejaVuSans-29" x="915.039062"/>
      <use xlink:href="#DejaVuSans-2b" x="954.052734"/>
      <use xlink:href="#DejaVuSans-28" x="1037.841797"/>
      <use xlink:href="#DejaVuSans-5f" x="1076.855469"/>
      <use xlink:href="#DejaVuSans-61" x="1126.855469"/>
      <use xlink:href="#DejaVuSans-5f" x="1188.134766"/>
      <use xlink:href="#DejaVuSans-31" x="1238.134766"/>
      <use xlink:href="#DejaVuSans-5f" x="1301.757812"/>
      <use xlink:href="#DejaVuSans-29" x="1351.757812"/>
      <use xlink:href="#DejaVuSans-2a" x="1390.771484"/>
      <use xlink:href="#DejaVuSans-28" x="1440.771484"/>
      <use xlink:href="#DejaVuSans-78" x="1479.785156"/>
      <use xlink:href="#DejaVuSans-29" x="1538.964844"/>
      <use xlink:href="#DejaVuSans-20" x="1577.978516"/>
      <use xlink:href="#DejaVuSans-2b" x="1609.765625"/>
      <use xlink:href="#DejaVuSans-20" x="1693.554688"/>
      <use xlink:href="#DejaVuSans-28" x="1725.341797"/>
      <use xlink:href="#DejaVuSans-72" x="1764.355469"/>
      <use xlink:href="#DejaVuSans-20" x="1805.46875"/>
      <use xlink:href="#DejaVuSans-2a" x="1837.255859"/>
      <use xlink:href="#DejaVuSans-20" x="1887.255859"/>
      <use xlink:href="#DejaVuSans-72" x="1919.042969"/>
      <use xlink:href="#DejaVuSans-29" x="1960.15625"/>
      <use xlink:href="#DejaVuSans-29" x="1999.169922"/>
      <use xlink:href="#DejaVuSans-20" x="2038.183594"/>
      <use xlink:href="#DejaVuSans-2d" x="2069.970703"/>
      <use xlink:href="#DejaVuSans-20" x="2106.054688"/>
      <use xlink:href="#DejaVuSans-72" x="2137.841797"/>
      <use xlink:href="#DejaVuSans-29" x="2178.955078"/>
      <use xlink:href="#DejaVuSans-20" x="2217.96875"/>
      <use xlink:href="#DejaVuSans-61" x="2249.755859"/>
      <use xlink:href="#DejaVuSans-6e" x="2311.035156"/>
      <use xlink:href="#DejaVuSans-64" x="2374.414062"/>
      <use xlink:href="#DejaVuSans-20" x="2437.890625"/>
      <use xlink:href="#DejaVuSans-78" x="2469.677734"/>
      <use xlink:href="#DejaVuSans-20" x="2528.857422"/>
      <use xlink:href="#DejaVuSans-3e" x="2560.644531"/>
      <use xlink:href="#DejaVuSans-3d" x="2644.433594"/>
      <use xlink:href="#DejaVuSans-20" x="2728.222656"/>
      <use xlink:href="#DejaVuSans-30" x="2760.009766"/>
      <use xlink:href="#DejaVuSans-29" x="2823.632812"/>
     </g>
    </g>
   </g>
   <g id="text_18">
    <g clip-path="url(#p543427563b)">
     <!-- (((r * r) - r) &gt;= (a - (2 * r)) and ((r * r) - r) &lt;= a) -->
     <g transform="translate(483.830024 361.119932)scale(0.08 -0.08)">
      <defs>
       <path id="DejaVuSans-3c" d="M 4684 3150 
L 1459 2003 
L 4684 863 
L 4684 294 
L 678 1747 
L 678 2266 
L 4684 3719 
L 4684 3150 
z
" transform="scale(0.015625)"/>
      </defs>
      <use xlink:href="#DejaVuSans-28"/>
      <use xlink:href="#DejaVuSans-28" x="39.013672"/>
      <use xlink:href="#DejaVuSans-28" x="78.027344"/>
      <use xlink:href="#DejaVuSans-72" x="117.041016"/>
      <use xlink:href="#DejaVuSans-20" x="158.154297"/>
      <use xlink:href="#DejaVuSans-2a" x="189.941406"/>
      <use xlink:href="#DejaVuSans-20" x="239.941406"/>
      <use xlink:href="#DejaVuSans-72" x="271.728516"/>
      <use xlink:href="#DejaVuSans-29" x="312.841797"/>
      <use xlink:href="#DejaVuSans-20" x="351.855469"/>
      <use xlink:href="#DejaVuSans-2d" x="383.642578"/>
      <use xlink:href="#DejaVuSans-20" x="419.726562"/>
      <use xlink:href="#DejaVuSans-72" x="451.513672"/>
      <use xlink:href="#DejaVuSans-29" x="492.626953"/>
      <use xlink:href="#DejaVuSans-20" x="531.640625"/>
      <use xlink:href="#DejaVuSans-3e" x="563.427734"/>
      <use xlink:href="#DejaVuSans-3d" x="647.216797"/>
      <use xlink:href="#DejaVuSans-20" x="731.005859"/>
      <use xlink:href="#DejaVuSans-28" x="762.792969"/>
      <use xlink:href="#DejaVuSans-61" x="801.806641"/>
      <use xlink:href="#DejaVuSans-20" x="863.085938"/>
      <use xlink:href="#DejaVuSans-2d" x="894.873047"/>
      <use xlink:href="#DejaVuSans-20" x="930.957031"/>
      <use xlink:href="#DejaVuSans-28" x="962.744141"/>
      <use xlink:href="#DejaVuSans-32" x="1001.757812"/>
      <use xlink:href="#DejaVuSans-20" x="1065.380859"/>
      <use xlink:href="#DejaVuSans-2a" x="1097.167969"/>
      <use xlink:href="#DejaVuSans-20" x="1147.167969"/>
      <use xlink:href="#DejaVuSans-72" x="1178.955078"/>
      <use xlink:href="#DejaVuSans-29" x="1220.068359"/>
      <use xlink:href="#DejaVuSans-29" x="1259.082031"/>
      <use xlink:href="#DejaVuSans-20" x="1298.095703"/>
      <use xlink:href="#DejaVuSans-61" x="1329.882812"/>
      <use xlink:href="#DejaVuSans-6e" x="1391.162109"/>
      <use xlink:href="#DejaVuSans-64" x="1454.541016"/>
      <use xlink:href="#DejaVuSans-20" x="1518.017578"/>
      <use xlink:href="#DejaVuSans-28" x="1549.804688"/>
      <use xlink:href="#DejaVuSans-28" x="1588.818359"/>
      <use xlink:href="#DejaVuSans-72" x="1627.832031"/>
      <use xlink:href="#DejaVuSans-20" x="1668.945312"/>
      <use xlink:href="#DejaVuSans-2a" x="1700.732422"/>
      <use xlink:href="#DejaVuSans-20" x="1750.732422"/>
      <use xlink:href="#DejaVuSans-72" x="1782.519531"/>
      <use xlink:href="#DejaVuSans-29" x="1823.632812"/>
      <use xlink:href="#DejaVuSans-20" x="1862.646484"/>
      <use xlink:href="#DejaVuSans-2d" x="1894.433594"/>
      <use xlink:href="#DejaVuSans-20" x="1930.517578"/>
      <use xlink:href="#DejaVuSans-72" x="1962.304688"/>
      <use xlink:href="#DejaVuSans-29" x="2003.417969"/>
      <use xlink:href="#DejaVuSans-20" x="2042.431641"/>
      <use xlink:href="#DejaVuSans-3c" x="2074.21875"/>
      <use xlink:href="#DejaVuSans-3d" x="2158.007812"/>
      <use xlink:href="#DejaVuSans-20" x="2241.796875"/>
      <use xlink:href="#DejaVuSans-61" x="2273.583984"/>
      <use xlink:href="#DejaVuSans-29" x="2334.863281"/>
     </g>
    </g>
   </g>
  </g>
 </g>
 <defs>
  <clipPath id="p543427563b">
   <rect x="0" y="0" width="460.8" height="345.6"/>
  </clipPath>
 </defs>
</svg>
