<?xml version="1.0" encoding="utf-8" standalone="no"?>
<!DOCTYPE svg PUBLIC "-//W3C//DTD SVG 1.1//EN"
  "http://www.w3.org/Graphics/SVG/1.1/DTD/svg11.dtd">
<svg xmlns:xlink="http://www.w3.org/1999/xlink" width="460.8pt" height="345.6pt" viewBox="0 0 460.8 345.6" xmlns="http://www.w3.org/2000/svg" version="1.1">
 <metadata>
  <rdf:RDF xmlns:dc="http://purl.org/dc/elements/1.1/" xmlns:cc="http://creativecommons.org/ns#" xmlns:rdf="http://www.w3.org/1999/02/22-rdf-syntax-ns#">
   <cc:Work>
    <dc:type rdf:resource="http://purl.org/dc/dcmitype/StillImage"/>
    <dc:date>2022-12-30T17:53:19.896122</dc:date>
    <dc:format>image/svg+xml</dc:format>
    <dc:creator>
     <cc:Agent>
      <dc:title>Matplotlib v3.5.1, https://matplotlib.org/</dc:title>
     </cc:Agent>
    </dc:creator>
   </cc:Work>
  </rdf:RDF>
 </metadata>
 <defs>
  <style type="text/css">*{stroke-linejoin: round; stroke-linecap: butt}</style>
 </defs>
 <g id="figure_1">
  <g id="patch_1">
   <path d="M 0 345.6 
L 460.8 345.6 
L 460.8 0 
L 0 0 
z
" style="fill: #ffffff"/>
  </g>
  <g id="axes_1">
   <g id="LineCollection_1">
    <path d="M 39.986777 315.609917 
L 76.527931 281.244317 
" clip-path="url(#p63963447f3)" style="fill: none; stroke: #000000; stroke-opacity: 0.9"/>
    <path d="M 76.527931 281.244317 
L 124.579297 239.353672 
" clip-path="url(#p63963447f3)" style="fill: none; stroke: #000000; stroke-opacity: 0.9"/>
    <path d="M 124.579297 239.353672 
L 182.613008 192.475647 
" clip-path="url(#p63963447f3)" style="fill: none; stroke: #000000; stroke-opacity: 0.9"/>
    <path d="M 182.613008 192.475647 
L 275.290085 182.596137 
" clip-path="url(#p63963447f3)" style="fill: none; stroke: #000000; stroke-opacity: 0.9"/>
    <path d="M 182.613008 192.475647 
L 174.716373 141.127975 
" clip-path="url(#p63963447f3)" style="fill: none; stroke: #000000; stroke-opacity: 0.9"/>
    <path d="M 275.290085 182.596137 
L 350.78384 153.522097 
" clip-path="url(#p63963447f3)" style="fill: none; stroke: #000000; stroke-opacity: 0.9"/>
    <path d="M 350.78384 153.522097 
L 386.549584 109.300025 
" clip-path="url(#p63963447f3)" style="fill: none; stroke: #000000; stroke-opacity: 0.9"/>
    <path d="M 386.549584 109.300025 
L 370.137657 63.223463 
" clip-path="url(#p63963447f3)" style="fill: none; stroke: #000000; stroke-opacity: 0.9"/>
    <path d="M 174.716373 141.127975 
L 208.30749 94.567438 
" clip-path="url(#p63963447f3)" style="fill: none; stroke: #000000; stroke-opacity: 0.9"/>
    <path d="M 208.30749 94.567438 
L 281.277399 65.314531 
" clip-path="url(#p63963447f3)" style="fill: none; stroke: #000000; stroke-opacity: 0.9"/>
    <path d="M 281.277399 65.314531 
L 370.137657 63.223463 
" clip-path="url(#p63963447f3)" style="fill: none; stroke: #000000; stroke-opacity: 0.9"/>
    <path d="M 370.137657 63.223463 
L 420.813223 29.990083 
" clip-path="url(#p63963447f3)" style="fill: none; stroke: #000000; stroke-opacity: 0.9"/>
   </g>
   <g id="text_1">
    <g id="patch_2">
     <path d="M 55.263661 309.851496 
L 69.843775 296.139439 
Q 71.592078 294.495226 69.947864 292.746923 
L 64.643562 287.106827 
Q 62.999349 285.358524 61.251046 287.002738 
L 46.670932 300.714795 
Q 44.92263 302.359008 46.566843 304.107311 
L 51.871145 309.747407 
Q 53.515359 311.49571 55.263661 309.851496 
z
" clip-path="url(#p63963447f3)" style="fill: #ffffff; stroke: #ffffff; stroke-linejoin: miter"/>
    </g>
    <g clip-path="url(#p63963447f3)">
     <!-- t = 0 -->
     <g style="fill: #ff0000" transform="translate(52.479631 306.891219)rotate(-43.242609)scale(0.08 -0.08)">
      <defs>
       <path id="DejaVuSans-74" d="M 1172 4494 
L 1172 3500 
L 2356 3500 
L 2356 3053 
L 1172 3053 
L 1172 1153 
Q 1172 725 1289 603 
Q 1406 481 1766 481 
L 2356 481 
L 2356 0 
L 1766 0 
Q 1100 0 847 248 
Q 594 497 594 1153 
L 594 3053 
L 172 3053 
L 172 3500 
L 594 3500 
L 594 4494 
L 1172 4494 
z
" transform="scale(0.015625)"/>
       <path id="DejaVuSans-20" transform="scale(0.015625)"/>
       <path id="DejaVuSans-3d" d="M 678 2906 
L 4684 2906 
L 4684 2381 
L 678 2381 
L 678 2906 
z
M 678 1631 
L 4684 1631 
L 4684 1100 
L 678 1100 
L 678 1631 
z
" transform="scale(0.015625)"/>
       <path id="DejaVuSans-30" d="M 2034 4250 
Q 1547 4250 1301 3770 
Q 1056 3291 1056 2328 
Q 1056 1369 1301 889 
Q 1547 409 2034 409 
Q 2525 409 2770 889 
Q 3016 1369 3016 2328 
Q 3016 3291 2770 3770 
Q 2525 4250 2034 4250 
z
M 2034 4750 
Q 2819 4750 3233 4129 
Q 3647 3509 3647 2328 
Q 3647 1150 3233 529 
Q 2819 -91 2034 -91 
Q 1250 -91 836 529 
Q 422 1150 422 2328 
Q 422 3509 836 4129 
Q 1250 4750 2034 4750 
z
" transform="scale(0.015625)"/>
      </defs>
      <use xlink:href="#DejaVuSans-74"/>
      <use xlink:href="#DejaVuSans-20" x="39.208984"/>
      <use xlink:href="#DejaVuSans-3d" x="70.996094"/>
      <use xlink:href="#DejaVuSans-20" x="154.785156"/>
      <use xlink:href="#DejaVuSans-30" x="186.572266"/>
     </g>
    </g>
   </g>
   <g id="text_2">
    <g id="patch_3">
     <path d="M 96.458038 272.189262 
L 112.891275 257.862949 
Q 114.700335 256.285831 113.123217 254.476771 
L 108.035367 248.640668 
Q 106.458249 246.831608 104.649189 248.408727 
L 88.215952 262.735039 
Q 86.406892 264.312157 87.984011 266.121217 
L 93.07186 271.95732 
Q 94.648978 273.76638 96.458038 272.189262 
z
" clip-path="url(#p63963447f3)" style="fill: #ffffff; stroke: #ffffff; stroke-linejoin: miter"/>
    </g>
    <g clip-path="url(#p63963447f3)">
     <!-- e = 5 -->
     <g style="fill: #ff0000" transform="translate(93.787616 269.126109)rotate(-41.081555)scale(0.08 -0.08)">
      <defs>
       <path id="DejaVuSans-65" d="M 3597 1894 
L 3597 1613 
L 953 1613 
Q 991 1019 1311 708 
Q 1631 397 2203 397 
Q 2534 397 2845 478 
Q 3156 559 3463 722 
L 3463 178 
Q 3153 47 2828 -22 
Q 2503 -91 2169 -91 
Q 1331 -91 842 396 
Q 353 884 353 1716 
Q 353 2575 817 3079 
Q 1281 3584 2069 3584 
Q 2775 3584 3186 3129 
Q 3597 2675 3597 1894 
z
M 3022 2063 
Q 3016 2534 2758 2815 
Q 2500 3097 2075 3097 
Q 1594 3097 1305 2825 
Q 1016 2553 972 2059 
L 3022 2063 
z
" transform="scale(0.015625)"/>
       <path id="DejaVuSans-35" d="M 691 4666 
L 3169 4666 
L 3169 4134 
L 1269 4134 
L 1269 2991 
Q 1406 3038 1543 3061 
Q 1681 3084 1819 3084 
Q 2600 3084 3056 2656 
Q 3513 2228 3513 1497 
Q 3513 744 3044 326 
Q 2575 -91 1722 -91 
Q 1428 -91 1123 -41 
Q 819 9 494 109 
L 494 744 
Q 775 591 1075 516 
Q 1375 441 1709 441 
Q 2250 441 2565 725 
Q 2881 1009 2881 1497 
Q 2881 1984 2565 2268 
Q 2250 2553 1709 2553 
Q 1456 2553 1204 2497 
Q 953 2441 691 2322 
L 691 4666 
z
" transform="scale(0.015625)"/>
      </defs>
      <use xlink:href="#DejaVuSans-65"/>
      <use xlink:href="#DejaVuSans-20" x="61.523438"/>
      <use xlink:href="#DejaVuSans-3d" x="93.310547"/>
      <use xlink:href="#DejaVuSans-20" x="177.099609"/>
      <use xlink:href="#DejaVuSans-35" x="208.886719"/>
     </g>
    </g>
   </g>
   <g id="text_3">
    <g id="patch_4">
     <path d="M 216.508696 195.1691 
L 242.723913 192.37452 
Q 245.110392 192.120118 244.85599 189.733639 
L 244.035278 182.03476 
Q 243.780876 179.648282 241.394398 179.902684 
L 215.17918 182.697264 
Q 212.792702 182.951666 213.047104 185.338144 
L 213.867815 193.037023 
Q 214.122217 195.423502 216.508696 195.1691 
z
" clip-path="url(#p63963447f3)" style="fill: #ffffff; stroke: #ffffff; stroke-linejoin: miter"/>
    </g>
    <g clip-path="url(#p63963447f3)">
     <!-- x &lt;= t -->
     <g style="fill: #ff0000" transform="translate(216.077935 191.128245)rotate(-6.084833)scale(0.08 -0.08)">
      <defs>
       <path id="DejaVuSans-78" d="M 3513 3500 
L 2247 1797 
L 3578 0 
L 2900 0 
L 1881 1375 
L 863 0 
L 184 0 
L 1544 1831 
L 300 3500 
L 978 3500 
L 1906 2253 
L 2834 3500 
L 3513 3500 
z
" transform="scale(0.015625)"/>
       <path id="DejaVuSans-3c" d="M 4684 3150 
L 1459 2003 
L 4684 863 
L 4684 294 
L 678 1747 
L 678 2266 
L 4684 3719 
L 4684 3150 
z
" transform="scale(0.015625)"/>
      </defs>
      <use xlink:href="#DejaVuSans-78"/>
      <use xlink:href="#DejaVuSans-20" x="59.179688"/>
      <use xlink:href="#DejaVuSans-3c" x="90.966797"/>
      <use xlink:href="#DejaVuSans-3d" x="174.755859"/>
      <use xlink:href="#DejaVuSans-20" x="258.544922"/>
      <use xlink:href="#DejaVuSans-74" x="290.332031"/>
     </g>
    </g>
   </g>
   <g id="text_4">
    <g id="patch_5">
     <path d="M 296.151 181.396981 
L 334.507368 166.625235 
Q 336.74702 165.762703 335.884489 163.523052 
L 333.025108 156.098373 
Q 332.162577 153.858721 329.922925 154.721252 
L 291.566556 169.492999 
Q 289.326905 170.35553 290.189436 172.595182 
L 293.048817 180.019861 
Q 293.911348 182.259512 296.151 181.396981 
z
" clip-path="url(#p63963447f3)" style="fill: #ffffff; stroke: #ffffff; stroke-linejoin: miter"/>
    </g>
    <g clip-path="url(#p63963447f3)">
     <!-- g1 = ((_a_ -->
     <g style="fill: #ff0000" transform="translate(294.610573 177.397103)rotate(-21.062618)scale(0.08 -0.08)">
      <defs>
       <path id="DejaVuSans-67" d="M 2906 1791 
Q 2906 2416 2648 2759 
Q 2391 3103 1925 3103 
Q 1463 3103 1205 2759 
Q 947 2416 947 1791 
Q 947 1169 1205 825 
Q 1463 481 1925 481 
Q 2391 481 2648 825 
Q 2906 1169 2906 1791 
z
M 3481 434 
Q 3481 -459 3084 -895 
Q 2688 -1331 1869 -1331 
Q 1566 -1331 1297 -1286 
Q 1028 -1241 775 -1147 
L 775 -588 
Q 1028 -725 1275 -790 
Q 1522 -856 1778 -856 
Q 2344 -856 2625 -561 
Q 2906 -266 2906 331 
L 2906 616 
Q 2728 306 2450 153 
Q 2172 0 1784 0 
Q 1141 0 747 490 
Q 353 981 353 1791 
Q 353 2603 747 3093 
Q 1141 3584 1784 3584 
Q 2172 3584 2450 3431 
Q 2728 3278 2906 2969 
L 2906 3500 
L 3481 3500 
L 3481 434 
z
" transform="scale(0.015625)"/>
       <path id="DejaVuSans-31" d="M 794 531 
L 1825 531 
L 1825 4091 
L 703 3866 
L 703 4441 
L 1819 4666 
L 2450 4666 
L 2450 531 
L 3481 531 
L 3481 0 
L 794 0 
L 794 531 
z
" transform="scale(0.015625)"/>
       <path id="DejaVuSans-28" d="M 1984 4856 
Q 1566 4138 1362 3434 
Q 1159 2731 1159 2009 
Q 1159 1288 1364 580 
Q 1569 -128 1984 -844 
L 1484 -844 
Q 1016 -109 783 600 
Q 550 1309 550 2009 
Q 550 2706 781 3412 
Q 1013 4119 1484 4856 
L 1984 4856 
z
" transform="scale(0.015625)"/>
       <path id="DejaVuSans-5f" d="M 3263 -1063 
L 3263 -1509 
L -63 -1509 
L -63 -1063 
L 3263 -1063 
z
" transform="scale(0.015625)"/>
       <path id="DejaVuSans-61" d="M 2194 1759 
Q 1497 1759 1228 1600 
Q 959 1441 959 1056 
Q 959 750 1161 570 
Q 1363 391 1709 391 
Q 2188 391 2477 730 
Q 2766 1069 2766 1631 
L 2766 1759 
L 2194 1759 
z
M 3341 1997 
L 3341 0 
L 2766 0 
L 2766 531 
Q 2569 213 2275 61 
Q 1981 -91 1556 -91 
Q 1019 -91 701 211 
Q 384 513 384 1019 
Q 384 1609 779 1909 
Q 1175 2209 1959 2209 
L 2766 2209 
L 2766 2266 
Q 2766 2663 2505 2880 
Q 2244 3097 1772 3097 
Q 1472 3097 1187 3025 
Q 903 2953 641 2809 
L 641 3341 
Q 956 3463 1253 3523 
Q 1550 3584 1831 3584 
Q 2591 3584 2966 3190 
Q 3341 2797 3341 1997 
z
" transform="scale(0.015625)"/>
      </defs>
      <use xlink:href="#DejaVuSans-67"/>
      <use xlink:href="#DejaVuSans-31" x="63.476562"/>
      <use xlink:href="#DejaVuSans-20" x="127.099609"/>
      <use xlink:href="#DejaVuSans-3d" x="158.886719"/>
      <use xlink:href="#DejaVuSans-20" x="242.675781"/>
      <use xlink:href="#DejaVuSans-28" x="274.462891"/>
      <use xlink:href="#DejaVuSans-28" x="313.476562"/>
      <use xlink:href="#DejaVuSans-5f" x="352.490234"/>
      <use xlink:href="#DejaVuSans-61" x="402.490234"/>
      <use xlink:href="#DejaVuSans-5f" x="463.769531"/>
     </g>
    </g>
   </g>
   <g id="text_5">
    <g id="patch_6">
     <path d="M 365.044713 145.862052 
L 382.040871 124.847382 
Q 383.550103 122.981312 381.684033 121.472079 
L 375.664014 116.603232 
Q 373.797944 115.094 372.288711 116.96007 
L 355.292553 137.97474 
Q 353.78332 139.84081 355.64939 141.350043 
L 361.66941 146.218889 
Q 363.53548 147.728122 365.044713 145.862052 
z
" clip-path="url(#p63963447f3)" style="fill: #ffffff; stroke: #ffffff; stroke-linejoin: miter"/>
    </g>
    <g clip-path="url(#p63963447f3)">
     <!-- n = g1 -->
     <g style="fill: #ff0000" transform="translate(361.885028 143.306575)rotate(-51.034904)scale(0.08 -0.08)">
      <defs>
       <path id="DejaVuSans-6e" d="M 3513 2113 
L 3513 0 
L 2938 0 
L 2938 2094 
Q 2938 2591 2744 2837 
Q 2550 3084 2163 3084 
Q 1697 3084 1428 2787 
Q 1159 2491 1159 1978 
L 1159 0 
L 581 0 
L 581 3500 
L 1159 3500 
L 1159 2956 
Q 1366 3272 1645 3428 
Q 1925 3584 2291 3584 
Q 2894 3584 3203 3211 
Q 3513 2838 3513 2113 
z
" transform="scale(0.015625)"/>
      </defs>
      <use xlink:href="#DejaVuSans-6e"/>
      <use xlink:href="#DejaVuSans-20" x="63.378906"/>
      <use xlink:href="#DejaVuSans-3d" x="95.166016"/>
      <use xlink:href="#DejaVuSans-20" x="178.955078"/>
      <use xlink:href="#DejaVuSans-67" x="210.742188"/>
      <use xlink:href="#DejaVuSans-31" x="274.21875"/>
     </g>
    </g>
   </g>
   <g id="text_6">
    <g id="patch_7">
     <path d="M 169.205326 146.550579 
L 175.727294 188.959511 
Q 176.092096 191.331624 178.464209 190.966822 
L 186.116744 189.789957 
Q 188.488857 189.425155 188.124055 187.053042 
L 181.602087 144.644111 
Q 181.237286 142.271998 178.865173 142.636799 
L 171.212638 143.813664 
Q 168.840525 144.178466 169.205326 146.550579 
z
" clip-path="url(#p63963447f3)" style="fill: #ffffff; stroke: #ffffff; stroke-linejoin: miter"/>
    </g>
    <g clip-path="url(#p63963447f3)">
     <!-- Not (x &lt;=  -->
     <g style="fill: #ff0000" transform="translate(173.221857 145.932886)rotate(-278.742885)scale(0.08 -0.08)">
      <defs>
       <path id="DejaVuSans-4e" d="M 628 4666 
L 1478 4666 
L 3547 763 
L 3547 4666 
L 4159 4666 
L 4159 0 
L 3309 0 
L 1241 3903 
L 1241 0 
L 628 0 
L 628 4666 
z
" transform="scale(0.015625)"/>
       <path id="DejaVuSans-6f" d="M 1959 3097 
Q 1497 3097 1228 2736 
Q 959 2375 959 1747 
Q 959 1119 1226 758 
Q 1494 397 1959 397 
Q 2419 397 2687 759 
Q 2956 1122 2956 1747 
Q 2956 2369 2687 2733 
Q 2419 3097 1959 3097 
z
M 1959 3584 
Q 2709 3584 3137 3096 
Q 3566 2609 3566 1747 
Q 3566 888 3137 398 
Q 2709 -91 1959 -91 
Q 1206 -91 779 398 
Q 353 888 353 1747 
Q 353 2609 779 3096 
Q 1206 3584 1959 3584 
z
" transform="scale(0.015625)"/>
      </defs>
      <use xlink:href="#DejaVuSans-4e"/>
      <use xlink:href="#DejaVuSans-6f" x="74.804688"/>
      <use xlink:href="#DejaVuSans-74" x="135.986328"/>
      <use xlink:href="#DejaVuSans-20" x="175.195312"/>
      <use xlink:href="#DejaVuSans-28" x="206.982422"/>
      <use xlink:href="#DejaVuSans-78" x="245.996094"/>
      <use xlink:href="#DejaVuSans-20" x="305.175781"/>
      <use xlink:href="#DejaVuSans-3c" x="336.962891"/>
      <use xlink:href="#DejaVuSans-3d" x="420.751953"/>
      <use xlink:href="#DejaVuSans-20" x="504.541016"/>
     </g>
    </g>
   </g>
   <g id="text_7">
    <g id="patch_8">
     <path d="M 184.660332 138.245989 
L 208.708546 104.912838 
Q 210.112736 102.966496 208.166393 101.562306 
L 201.714063 96.90727 
Q 199.76772 95.50308 198.363531 97.449423 
L 174.315317 130.782574 
Q 172.911127 132.728917 174.85747 134.133107 
L 181.3098 138.788142 
Q 183.256143 140.192332 184.660332 138.245989 
z
" clip-path="url(#p63963447f3)" style="fill: #ffffff; stroke: #ffffff; stroke-linejoin: miter"/>
    </g>
    <g clip-path="url(#p63963447f3)">
     <!-- g2 = ((_a_ -->
     <g style="fill: #ff0000" transform="translate(181.184285 135.738194)rotate(-54.191422)scale(0.08 -0.08)">
      <defs>
       <path id="DejaVuSans-32" d="M 1228 531 
L 3431 531 
L 3431 0 
L 469 0 
L 469 531 
Q 828 903 1448 1529 
Q 2069 2156 2228 2338 
Q 2531 2678 2651 2914 
Q 2772 3150 2772 3378 
Q 2772 3750 2511 3984 
Q 2250 4219 1831 4219 
Q 1534 4219 1204 4116 
Q 875 4013 500 3803 
L 500 4441 
Q 881 4594 1212 4672 
Q 1544 4750 1819 4750 
Q 2544 4750 2975 4387 
Q 3406 4025 3406 3419 
Q 3406 3131 3298 2873 
Q 3191 2616 2906 2266 
Q 2828 2175 2409 1742 
Q 1991 1309 1228 531 
z
" transform="scale(0.015625)"/>
      </defs>
      <use xlink:href="#DejaVuSans-67"/>
      <use xlink:href="#DejaVuSans-32" x="63.476562"/>
      <use xlink:href="#DejaVuSans-20" x="127.099609"/>
      <use xlink:href="#DejaVuSans-3d" x="158.886719"/>
      <use xlink:href="#DejaVuSans-20" x="242.675781"/>
      <use xlink:href="#DejaVuSans-28" x="274.462891"/>
      <use xlink:href="#DejaVuSans-28" x="313.476562"/>
      <use xlink:href="#DejaVuSans-5f" x="352.490234"/>
      <use xlink:href="#DejaVuSans-61" x="402.490234"/>
      <use xlink:href="#DejaVuSans-5f" x="463.769531"/>
     </g>
    </g>
   </g>
   <g id="text_8">
    <g id="patch_9">
     <path d="M 234.582645 90.790409 
L 259.669342 80.733402 
Q 261.897002 79.840356 261.003955 77.612696 
L 258.12295 70.426173 
Q 257.229904 68.198513 255.002244 69.09156 
L 229.915546 79.148566 
Q 227.687887 80.041612 228.580933 82.269272 
L 231.461939 89.455795 
Q 232.354985 91.683455 234.582645 90.790409 
z
" clip-path="url(#p63963447f3)" style="fill: #ffffff; stroke: #ffffff; stroke-linejoin: miter"/>
    </g>
    <g clip-path="url(#p63963447f3)">
     <!-- n = g2 -->
     <g style="fill: #ff0000" transform="translate(233.070512 87.01847)rotate(-21.845356)scale(0.08 -0.08)">
      <use xlink:href="#DejaVuSans-6e"/>
      <use xlink:href="#DejaVuSans-20" x="63.378906"/>
      <use xlink:href="#DejaVuSans-3d" x="95.166016"/>
      <use xlink:href="#DejaVuSans-20" x="178.955078"/>
      <use xlink:href="#DejaVuSans-67" x="210.742188"/>
      <use xlink:href="#DejaVuSans-32" x="274.21875"/>
     </g>
    </g>
   </g>
   <g id="PathCollection_1">
    <defs>
     <path id="mf5104534f1" d="M 0 11.18034 
C 2.965061 11.18034 5.80908 10.002309 7.905694 7.905694 
C 10.002309 5.80908 11.18034 2.965061 11.18034 0 
C 11.18034 -2.965061 10.002309 -5.80908 7.905694 -7.905694 
C 5.80908 -10.002309 2.965061 -11.18034 0 -11.18034 
C -2.965061 -11.18034 -5.80908 -10.002309 -7.905694 -7.905694 
C -10.002309 -5.80908 -11.18034 -2.965061 -11.18034 0 
C -11.18034 2.965061 -10.002309 5.80908 -7.905694 7.905694 
C -5.80908 10.002309 -2.965061 11.18034 0 11.18034 
z
" style="stroke: #ffc0cb; stroke-opacity: 0.9; stroke-width: 2"/>
    </defs>
    <g clip-path="url(#p63963447f3)">
     <use xlink:href="#mf5104534f1" x="39.986777" y="315.609917" style="fill: #ffc0cb; fill-opacity: 0.9; stroke: #ffc0cb; stroke-opacity: 0.9; stroke-width: 2"/>
     <use xlink:href="#mf5104534f1" x="76.527931" y="281.244317" style="fill: #ffc0cb; fill-opacity: 0.9; stroke: #ffc0cb; stroke-opacity: 0.9; stroke-width: 2"/>
     <use xlink:href="#mf5104534f1" x="124.579297" y="239.353672" style="fill: #ffc0cb; fill-opacity: 0.9; stroke: #ffc0cb; stroke-opacity: 0.9; stroke-width: 2"/>
     <use xlink:href="#mf5104534f1" x="182.613008" y="192.475647" style="fill: #ffc0cb; fill-opacity: 0.9; stroke: #ffc0cb; stroke-opacity: 0.9; stroke-width: 2"/>
     <use xlink:href="#mf5104534f1" x="275.290085" y="182.596137" style="fill: #ffc0cb; fill-opacity: 0.9; stroke: #ffc0cb; stroke-opacity: 0.9; stroke-width: 2"/>
     <use xlink:href="#mf5104534f1" x="350.78384" y="153.522097" style="fill: #ffc0cb; fill-opacity: 0.9; stroke: #ffc0cb; stroke-opacity: 0.9; stroke-width: 2"/>
     <use xlink:href="#mf5104534f1" x="386.549584" y="109.300025" style="fill: #ffc0cb; fill-opacity: 0.9; stroke: #ffc0cb; stroke-opacity: 0.9; stroke-width: 2"/>
     <use xlink:href="#mf5104534f1" x="174.716373" y="141.127975" style="fill: #ffc0cb; fill-opacity: 0.9; stroke: #ffc0cb; stroke-opacity: 0.9; stroke-width: 2"/>
     <use xlink:href="#mf5104534f1" x="208.30749" y="94.567438" style="fill: #ffc0cb; fill-opacity: 0.9; stroke: #ffc0cb; stroke-opacity: 0.9; stroke-width: 2"/>
     <use xlink:href="#mf5104534f1" x="281.277399" y="65.314531" style="fill: #ffc0cb; fill-opacity: 0.9; stroke: #ffc0cb; stroke-opacity: 0.9; stroke-width: 2"/>
     <use xlink:href="#mf5104534f1" x="370.137657" y="63.223463" style="fill: #ffc0cb; fill-opacity: 0.9; stroke: #ffc0cb; stroke-opacity: 0.9; stroke-width: 2"/>
     <use xlink:href="#mf5104534f1" x="420.813223" y="29.990083" style="fill: #ffc0cb; fill-opacity: 0.9; stroke: #ffc0cb; stroke-opacity: 0.9; stroke-width: 2"/>
    </g>
   </g>
   <g id="text_9">
    <g clip-path="url(#p63963447f3)">
     <!-- 0 -->
     <g style="opacity: 0.9" transform="translate(36.169277 318.921167)scale(0.12 -0.12)">
      <use xlink:href="#DejaVuSans-30"/>
     </g>
    </g>
   </g>
   <g id="text_10">
    <g clip-path="url(#p63963447f3)">
     <!-- 1 -->
     <g style="opacity: 0.9" transform="translate(72.710431 284.555567)scale(0.12 -0.12)">
      <use xlink:href="#DejaVuSans-31"/>
     </g>
    </g>
   </g>
   <g id="text_11">
    <g clip-path="url(#p63963447f3)">
     <!-- 2 -->
     <g style="opacity: 0.9" transform="translate(120.761797 242.664922)scale(0.12 -0.12)">
      <use xlink:href="#DejaVuSans-32"/>
     </g>
    </g>
   </g>
   <g id="text_12">
    <g clip-path="url(#p63963447f3)">
     <!-- 3 -->
     <g style="opacity: 0.9" transform="translate(178.795508 195.786897)scale(0.12 -0.12)">
      <defs>
       <path id="DejaVuSans-33" d="M 2597 2516 
Q 3050 2419 3304 2112 
Q 3559 1806 3559 1356 
Q 3559 666 3084 287 
Q 2609 -91 1734 -91 
Q 1441 -91 1130 -33 
Q 819 25 488 141 
L 488 750 
Q 750 597 1062 519 
Q 1375 441 1716 441 
Q 2309 441 2620 675 
Q 2931 909 2931 1356 
Q 2931 1769 2642 2001 
Q 2353 2234 1838 2234 
L 1294 2234 
L 1294 2753 
L 1863 2753 
Q 2328 2753 2575 2939 
Q 2822 3125 2822 3475 
Q 2822 3834 2567 4026 
Q 2313 4219 1838 4219 
Q 1578 4219 1281 4162 
Q 984 4106 628 3988 
L 628 4550 
Q 988 4650 1302 4700 
Q 1616 4750 1894 4750 
Q 2613 4750 3031 4423 
Q 3450 4097 3450 3541 
Q 3450 3153 3228 2886 
Q 3006 2619 2597 2516 
z
" transform="scale(0.015625)"/>
      </defs>
      <use xlink:href="#DejaVuSans-33"/>
     </g>
    </g>
   </g>
   <g id="text_13">
    <g clip-path="url(#p63963447f3)">
     <!-- 4 -->
     <g style="opacity: 0.9" transform="translate(271.472585 185.907387)scale(0.12 -0.12)">
      <defs>
       <path id="DejaVuSans-34" d="M 2419 4116 
L 825 1625 
L 2419 1625 
L 2419 4116 
z
M 2253 4666 
L 3047 4666 
L 3047 1625 
L 3713 1625 
L 3713 1100 
L 3047 1100 
L 3047 0 
L 2419 0 
L 2419 1100 
L 313 1100 
L 313 1709 
L 2253 4666 
z
" transform="scale(0.015625)"/>
      </defs>
      <use xlink:href="#DejaVuSans-34"/>
     </g>
    </g>
   </g>
   <g id="text_14">
    <g clip-path="url(#p63963447f3)">
     <!-- 5 -->
     <g style="opacity: 0.9" transform="translate(346.96634 156.833347)scale(0.12 -0.12)">
      <use xlink:href="#DejaVuSans-35"/>
     </g>
    </g>
   </g>
   <g id="text_15">
    <g clip-path="url(#p63963447f3)">
     <!-- 6 -->
     <g style="opacity: 0.9" transform="translate(382.732084 112.611275)scale(0.12 -0.12)">
      <defs>
       <path id="DejaVuSans-36" d="M 2113 2584 
Q 1688 2584 1439 2293 
Q 1191 2003 1191 1497 
Q 1191 994 1439 701 
Q 1688 409 2113 409 
Q 2538 409 2786 701 
Q 3034 994 3034 1497 
Q 3034 2003 2786 2293 
Q 2538 2584 2113 2584 
z
M 3366 4563 
L 3366 3988 
Q 3128 4100 2886 4159 
Q 2644 4219 2406 4219 
Q 1781 4219 1451 3797 
Q 1122 3375 1075 2522 
Q 1259 2794 1537 2939 
Q 1816 3084 2150 3084 
Q 2853 3084 3261 2657 
Q 3669 2231 3669 1497 
Q 3669 778 3244 343 
Q 2819 -91 2113 -91 
Q 1303 -91 875 529 
Q 447 1150 447 2328 
Q 447 3434 972 4092 
Q 1497 4750 2381 4750 
Q 2619 4750 2861 4703 
Q 3103 4656 3366 4563 
z
" transform="scale(0.015625)"/>
      </defs>
      <use xlink:href="#DejaVuSans-36"/>
     </g>
    </g>
   </g>
   <g id="text_16">
    <g clip-path="url(#p63963447f3)">
     <!-- 7 -->
     <g style="opacity: 0.9" transform="translate(170.898873 144.439225)scale(0.12 -0.12)">
      <defs>
       <path id="DejaVuSans-37" d="M 525 4666 
L 3525 4666 
L 3525 4397 
L 1831 0 
L 1172 0 
L 2766 4134 
L 525 4134 
L 525 4666 
z
" transform="scale(0.015625)"/>
      </defs>
      <use xlink:href="#DejaVuSans-37"/>
     </g>
    </g>
   </g>
   <g id="text_17">
    <g clip-path="url(#p63963447f3)">
     <!-- 8 -->
     <g style="opacity: 0.9" transform="translate(204.48999 97.878688)scale(0.12 -0.12)">
      <defs>
       <path id="DejaVuSans-38" d="M 2034 2216 
Q 1584 2216 1326 1975 
Q 1069 1734 1069 1313 
Q 1069 891 1326 650 
Q 1584 409 2034 409 
Q 2484 409 2743 651 
Q 3003 894 3003 1313 
Q 3003 1734 2745 1975 
Q 2488 2216 2034 2216 
z
M 1403 2484 
Q 997 2584 770 2862 
Q 544 3141 544 3541 
Q 544 4100 942 4425 
Q 1341 4750 2034 4750 
Q 2731 4750 3128 4425 
Q 3525 4100 3525 3541 
Q 3525 3141 3298 2862 
Q 3072 2584 2669 2484 
Q 3125 2378 3379 2068 
Q 3634 1759 3634 1313 
Q 3634 634 3220 271 
Q 2806 -91 2034 -91 
Q 1263 -91 848 271 
Q 434 634 434 1313 
Q 434 1759 690 2068 
Q 947 2378 1403 2484 
z
M 1172 3481 
Q 1172 3119 1398 2916 
Q 1625 2713 2034 2713 
Q 2441 2713 2670 2916 
Q 2900 3119 2900 3481 
Q 2900 3844 2670 4047 
Q 2441 4250 2034 4250 
Q 1625 4250 1398 4047 
Q 1172 3844 1172 3481 
z
" transform="scale(0.015625)"/>
      </defs>
      <use xlink:href="#DejaVuSans-38"/>
     </g>
    </g>
   </g>
   <g id="text_18">
    <g clip-path="url(#p63963447f3)">
     <!-- 9 -->
     <g style="opacity: 0.9" transform="translate(277.459899 68.625781)scale(0.12 -0.12)">
      <defs>
       <path id="DejaVuSans-39" d="M 703 97 
L 703 672 
Q 941 559 1184 500 
Q 1428 441 1663 441 
Q 2288 441 2617 861 
Q 2947 1281 2994 2138 
Q 2813 1869 2534 1725 
Q 2256 1581 1919 1581 
Q 1219 1581 811 2004 
Q 403 2428 403 3163 
Q 403 3881 828 4315 
Q 1253 4750 1959 4750 
Q 2769 4750 3195 4129 
Q 3622 3509 3622 2328 
Q 3622 1225 3098 567 
Q 2575 -91 1691 -91 
Q 1453 -91 1209 -44 
Q 966 3 703 97 
z
M 1959 2075 
Q 2384 2075 2632 2365 
Q 2881 2656 2881 3163 
Q 2881 3666 2632 3958 
Q 2384 4250 1959 4250 
Q 1534 4250 1286 3958 
Q 1038 3666 1038 3163 
Q 1038 2656 1286 2365 
Q 1534 2075 1959 2075 
z
" transform="scale(0.015625)"/>
      </defs>
      <use xlink:href="#DejaVuSans-39"/>
     </g>
    </g>
   </g>
   <g id="text_19">
    <g clip-path="url(#p63963447f3)">
     <!-- 10 -->
     <g style="opacity: 0.9" transform="translate(362.502657 66.534713)scale(0.12 -0.12)">
      <use xlink:href="#DejaVuSans-31"/>
      <use xlink:href="#DejaVuSans-30" x="63.623047"/>
     </g>
    </g>
   </g>
   <g id="text_20">
    <g clip-path="url(#p63963447f3)">
     <!-- 11 -->
     <g style="opacity: 0.9" transform="translate(413.178223 33.301333)scale(0.12 -0.12)">
      <use xlink:href="#DejaVuSans-31"/>
      <use xlink:href="#DejaVuSans-31" x="63.623047"/>
     </g>
    </g>
   </g>
   <g id="text_21">
    <g clip-path="url(#p63963447f3)">
     <!-- 1 &gt;= 0 -->
     <g transform="translate(543.192912 227.873653)scale(0.08 -0.08)">
      <defs>
       <path id="DejaVuSans-3e" d="M 678 3150 
L 678 3719 
L 4684 2266 
L 4684 1747 
L 678 294 
L 678 863 
L 3897 2003 
L 678 3150 
z
" transform="scale(0.015625)"/>
      </defs>
      <use xlink:href="#DejaVuSans-31"/>
      <use xlink:href="#DejaVuSans-20" x="63.623047"/>
      <use xlink:href="#DejaVuSans-3e" x="95.410156"/>
      <use xlink:href="#DejaVuSans-3d" x="179.199219"/>
      <use xlink:href="#DejaVuSans-20" x="262.988281"/>
      <use xlink:href="#DejaVuSans-30" x="294.775391"/>
     </g>
    </g>
   </g>
   <g id="text_22">
    <g clip-path="url(#p63963447f3)">
     <!-- If -->
     <g transform="translate(307.035152 183.179707)scale(0.08 -0.08)">
      <defs>
       <path id="DejaVuSans-49" d="M 628 4666 
L 1259 4666 
L 1259 0 
L 628 0 
L 628 4666 
z
" transform="scale(0.015625)"/>
       <path id="DejaVuSans-66" d="M 2375 4863 
L 2375 4384 
L 1825 4384 
Q 1516 4384 1395 4259 
Q 1275 4134 1275 3809 
L 1275 3500 
L 2222 3500 
L 2222 3053 
L 1275 3053 
L 1275 0 
L 697 0 
L 697 3053 
L 147 3053 
L 147 3500 
L 697 3500 
L 697 3744 
Q 697 4328 969 4595 
Q 1241 4863 1831 4863 
L 2375 4863 
z
" transform="scale(0.015625)"/>
      </defs>
      <use xlink:href="#DejaVuSans-49"/>
      <use xlink:href="#DejaVuSans-66" x="29.492188"/>
     </g>
    </g>
   </g>
   <g id="text_23">
    <g clip-path="url(#p63963447f3)">
     <!-- n &lt;= e -->
     <g transform="translate(7.84639 94.401803)scale(0.08 -0.08)">
      <use xlink:href="#DejaVuSans-6e"/>
      <use xlink:href="#DejaVuSans-20" x="63.378906"/>
      <use xlink:href="#DejaVuSans-3c" x="95.166016"/>
      <use xlink:href="#DejaVuSans-3d" x="178.955078"/>
      <use xlink:href="#DejaVuSans-20" x="262.744141"/>
      <use xlink:href="#DejaVuSans-65" x="294.53125"/>
     </g>
    </g>
   </g>
  </g>
 </g>
 <defs>
  <clipPath id="p63963447f3">
   <rect x="0" y="0" width="460.8" height="345.6"/>
  </clipPath>
 </defs>
</svg>
