<?xml version="1.0" encoding="utf-8" standalone="no"?>
<!DOCTYPE svg PUBLIC "-//W3C//DTD SVG 1.1//EN"
  "http://www.w3.org/Graphics/SVG/1.1/DTD/svg11.dtd">
<svg xmlns:xlink="http://www.w3.org/1999/xlink" width="460.8pt" height="345.6pt" viewBox="0 0 460.8 345.6" xmlns="http://www.w3.org/2000/svg" version="1.1">
 <metadata>
  <rdf:RDF xmlns:dc="http://purl.org/dc/elements/1.1/" xmlns:cc="http://creativecommons.org/ns#" xmlns:rdf="http://www.w3.org/1999/02/22-rdf-syntax-ns#">
   <cc:Work>
    <dc:type rdf:resource="http://purl.org/dc/dcmitype/StillImage"/>
    <dc:date>2022-12-30T17:35:16.687938</dc:date>
    <dc:format>image/svg+xml</dc:format>
    <dc:creator>
     <cc:Agent>
      <dc:title>Matplotlib v3.5.1, https://matplotlib.org/</dc:title>
     </cc:Agent>
    </dc:creator>
   </cc:Work>
  </rdf:RDF>
 </metadata>
 <defs>
  <style type="text/css">*{stroke-linejoin: round; stroke-linecap: butt}</style>
 </defs>
 <g id="figure_1">
  <g id="patch_1">
   <path d="M 0 345.6 
L 460.8 345.6 
L 460.8 0 
L 0 0 
z
" style="fill: #ffffff"/>
  </g>
  <g id="axes_1">
   <g id="LineCollection_1">
    <path d="M 232.306622 29.990083 
L 221.659243 70.146113 
" clip-path="url(#p4454612228)" style="fill: none; stroke: #000000; stroke-opacity: 0.9"/>
    <path d="M 221.659243 70.146113 
L 211.89923 119.676447 
" clip-path="url(#p4454612228)" style="fill: none; stroke: #000000; stroke-opacity: 0.9"/>
    <path d="M 211.89923 119.676447 
L 205.792945 175.386054 
" clip-path="url(#p4454612228)" style="fill: none; stroke: #000000; stroke-opacity: 0.9"/>
    <path d="M 205.792945 175.386054 
L 203.906411 236.24867 
" clip-path="url(#p4454612228)" style="fill: none; stroke: #000000; stroke-opacity: 0.9"/>
    <path d="M 203.906411 236.24867 
L 96.371795 258.509627 
" clip-path="url(#p4454612228)" style="fill: none; stroke: #000000; stroke-opacity: 0.9"/>
    <path d="M 203.906411 236.24867 
L 171.765359 284.338649 
" clip-path="url(#p4454612228)" style="fill: none; stroke: #000000; stroke-opacity: 0.9"/>
    <path d="M 203.906411 236.24867 
L 324.519983 249.845577 
" clip-path="url(#p4454612228)" style="fill: none; stroke: #000000; stroke-opacity: 0.9"/>
    <path d="M 96.371795 258.509627 
L 39.986777 294.185278 
" clip-path="url(#p4454612228)" style="fill: none; stroke: #000000; stroke-opacity: 0.9"/>
    <path d="M 39.986777 294.185278 
L 102.677631 315.609917 
" clip-path="url(#p4454612228)" style="fill: none; stroke: #000000; stroke-opacity: 0.9"/>
    <path d="M 102.677631 315.609917 
L 171.765359 284.338649 
" clip-path="url(#p4454612228)" style="fill: none; stroke: #000000; stroke-opacity: 0.9"/>
    <path d="M 324.519983 249.845577 
L 420.813223 262.562967 
" clip-path="url(#p4454612228)" style="fill: none; stroke: #000000; stroke-opacity: 0.9"/>
   </g>
   <g id="text_1">
    <g id="patch_2">
     <path d="M 230.299007 62.030676 
L 235.790424 41.320086 
Q 236.40553 39.000248 234.085692 38.385143 
L 226.6018 36.400788 
Q 224.281963 35.785682 223.666858 38.10552 
L 218.175441 58.816109 
Q 217.560335 61.135947 219.880173 61.751052 
L 227.364065 63.735408 
Q 229.683902 64.350513 230.299007 62.030676 
z
" clip-path="url(#p4454612228)" style="fill: #ffffff; stroke: #ffffff; stroke-linejoin: miter"/>
    </g>
    <g clip-path="url(#p4454612228)">
     <!-- x = a -->
     <g style="fill: #ff0000" transform="translate(226.370991 60.989161)rotate(-75.149732)scale(0.08 -0.08)">
      <defs>
       <path id="DejaVuSans-78" d="M 3513 3500 
L 2247 1797 
L 3578 0 
L 2900 0 
L 1881 1375 
L 863 0 
L 184 0 
L 1544 1831 
L 300 3500 
L 978 3500 
L 1906 2253 
L 2834 3500 
L 3513 3500 
z
" transform="scale(0.015625)"/>
       <path id="DejaVuSans-20" transform="scale(0.015625)"/>
       <path id="DejaVuSans-3d" d="M 678 2906 
L 4684 2906 
L 4684 2381 
L 678 2381 
L 678 2906 
z
M 678 1631 
L 4684 1631 
L 4684 1100 
L 678 1100 
L 678 1631 
z
" transform="scale(0.015625)"/>
       <path id="DejaVuSans-61" d="M 2194 1759 
Q 1497 1759 1228 1600 
Q 959 1441 959 1056 
Q 959 750 1161 570 
Q 1363 391 1709 391 
Q 2188 391 2477 730 
Q 2766 1069 2766 1631 
L 2766 1759 
L 2194 1759 
z
M 3341 1997 
L 3341 0 
L 2766 0 
L 2766 531 
Q 2569 213 2275 61 
Q 1981 -91 1556 -91 
Q 1019 -91 701 211 
Q 384 513 384 1019 
Q 384 1609 779 1909 
Q 1175 2209 1959 2209 
L 2766 2209 
L 2766 2266 
Q 2766 2663 2505 2880 
Q 2244 3097 1772 3097 
Q 1472 3097 1187 3025 
Q 903 2953 641 2809 
L 641 3341 
Q 956 3463 1253 3523 
Q 1550 3584 1831 3584 
Q 2591 3584 2966 3190 
Q 3341 2797 3341 1997 
z
" transform="scale(0.015625)"/>
      </defs>
      <use xlink:href="#DejaVuSans-78"/>
      <use xlink:href="#DejaVuSans-20" x="59.179688"/>
      <use xlink:href="#DejaVuSans-3d" x="90.966797"/>
      <use xlink:href="#DejaVuSans-20" x="174.755859"/>
      <use xlink:href="#DejaVuSans-61" x="206.542969"/>
     </g>
    </g>
   </g>
   <g id="text_2">
    <g id="patch_3">
     <path d="M 220.982641 106.017223 
L 224.881694 86.230221 
Q 225.345694 83.875502 222.990975 83.411502 
L 215.394552 81.914617 
Q 213.039832 81.450617 212.575832 83.805336 
L 208.676779 103.592338 
Q 208.212779 105.947058 210.567498 106.411058 
L 218.163921 107.907942 
Q 220.518641 108.371943 220.982641 106.017223 
z
" clip-path="url(#p4454612228)" style="fill: #ffffff; stroke: #ffffff; stroke-linejoin: miter"/>
    </g>
    <g clip-path="url(#p4454612228)">
     <!-- r = 1 -->
     <g style="fill: #ff0000" transform="translate(216.995561 105.231564)rotate(-78.852614)scale(0.08 -0.08)">
      <defs>
       <path id="DejaVuSans-72" d="M 2631 2963 
Q 2534 3019 2420 3045 
Q 2306 3072 2169 3072 
Q 1681 3072 1420 2755 
Q 1159 2438 1159 1844 
L 1159 0 
L 581 0 
L 581 3500 
L 1159 3500 
L 1159 2956 
Q 1341 3275 1631 3429 
Q 1922 3584 2338 3584 
Q 2397 3584 2469 3576 
Q 2541 3569 2628 3553 
L 2631 2963 
z
" transform="scale(0.015625)"/>
       <path id="DejaVuSans-31" d="M 794 531 
L 1825 531 
L 1825 4091 
L 703 3866 
L 703 4441 
L 1819 4666 
L 2450 4666 
L 2450 531 
L 3481 531 
L 3481 0 
L 794 0 
L 794 531 
z
" transform="scale(0.015625)"/>
      </defs>
      <use xlink:href="#DejaVuSans-72"/>
      <use xlink:href="#DejaVuSans-20" x="41.113281"/>
      <use xlink:href="#DejaVuSans-3d" x="72.900391"/>
      <use xlink:href="#DejaVuSans-20" x="156.689453"/>
      <use xlink:href="#DejaVuSans-31" x="188.476562"/>
     </g>
    </g>
   </g>
   <g id="text_3">
    <g id="patch_4">
     <path d="M 213.240337 164.998399 
L 216.919666 131.430691 
Q 217.181162 129.044979 214.795451 128.783483 
L 207.099046 127.939887 
Q 204.713334 127.678391 204.451838 130.064102 
L 200.772509 163.63181 
Q 200.511013 166.017522 202.896724 166.279018 
L 210.59313 167.122614 
Q 212.978841 167.38411 213.240337 164.998399 
z
" clip-path="url(#p4454612228)" style="fill: #ffffff; stroke: #ffffff; stroke-linejoin: miter"/>
    </g>
    <g clip-path="url(#p4454612228)">
     <!-- s = 3.25 -->
     <g style="fill: #ff0000" transform="translate(209.200781 164.555626)rotate(-83.744826)scale(0.08 -0.08)">
      <defs>
       <path id="DejaVuSans-73" d="M 2834 3397 
L 2834 2853 
Q 2591 2978 2328 3040 
Q 2066 3103 1784 3103 
Q 1356 3103 1142 2972 
Q 928 2841 928 2578 
Q 928 2378 1081 2264 
Q 1234 2150 1697 2047 
L 1894 2003 
Q 2506 1872 2764 1633 
Q 3022 1394 3022 966 
Q 3022 478 2636 193 
Q 2250 -91 1575 -91 
Q 1294 -91 989 -36 
Q 684 19 347 128 
L 347 722 
Q 666 556 975 473 
Q 1284 391 1588 391 
Q 1994 391 2212 530 
Q 2431 669 2431 922 
Q 2431 1156 2273 1281 
Q 2116 1406 1581 1522 
L 1381 1569 
Q 847 1681 609 1914 
Q 372 2147 372 2553 
Q 372 3047 722 3315 
Q 1072 3584 1716 3584 
Q 2034 3584 2315 3537 
Q 2597 3491 2834 3397 
z
" transform="scale(0.015625)"/>
       <path id="DejaVuSans-33" d="M 2597 2516 
Q 3050 2419 3304 2112 
Q 3559 1806 3559 1356 
Q 3559 666 3084 287 
Q 2609 -91 1734 -91 
Q 1441 -91 1130 -33 
Q 819 25 488 141 
L 488 750 
Q 750 597 1062 519 
Q 1375 441 1716 441 
Q 2309 441 2620 675 
Q 2931 909 2931 1356 
Q 2931 1769 2642 2001 
Q 2353 2234 1838 2234 
L 1294 2234 
L 1294 2753 
L 1863 2753 
Q 2328 2753 2575 2939 
Q 2822 3125 2822 3475 
Q 2822 3834 2567 4026 
Q 2313 4219 1838 4219 
Q 1578 4219 1281 4162 
Q 984 4106 628 3988 
L 628 4550 
Q 988 4650 1302 4700 
Q 1616 4750 1894 4750 
Q 2613 4750 3031 4423 
Q 3450 4097 3450 3541 
Q 3450 3153 3228 2886 
Q 3006 2619 2597 2516 
z
" transform="scale(0.015625)"/>
       <path id="DejaVuSans-2e" d="M 684 794 
L 1344 794 
L 1344 0 
L 684 0 
L 684 794 
z
" transform="scale(0.015625)"/>
       <path id="DejaVuSans-32" d="M 1228 531 
L 3431 531 
L 3431 0 
L 469 0 
L 469 531 
Q 828 903 1448 1529 
Q 2069 2156 2228 2338 
Q 2531 2678 2651 2914 
Q 2772 3150 2772 3378 
Q 2772 3750 2511 3984 
Q 2250 4219 1831 4219 
Q 1534 4219 1204 4116 
Q 875 4013 500 3803 
L 500 4441 
Q 881 4594 1212 4672 
Q 1544 4750 1819 4750 
Q 2544 4750 2975 4387 
Q 3406 4025 3406 3419 
Q 3406 3131 3298 2873 
Q 3191 2616 2906 2266 
Q 2828 2175 2409 1742 
Q 1991 1309 1228 531 
z
" transform="scale(0.015625)"/>
       <path id="DejaVuSans-35" d="M 691 4666 
L 3169 4666 
L 3169 4134 
L 1269 4134 
L 1269 2991 
Q 1406 3038 1543 3061 
Q 1681 3084 1819 3084 
Q 2600 3084 3056 2656 
Q 3513 2228 3513 1497 
Q 3513 744 3044 326 
Q 2575 -91 1722 -91 
Q 1428 -91 1123 -41 
Q 819 9 494 109 
L 494 744 
Q 775 591 1075 516 
Q 1375 441 1709 441 
Q 2250 441 2565 725 
Q 2881 1009 2881 1497 
Q 2881 1984 2565 2268 
Q 2250 2553 1709 2553 
Q 1456 2553 1204 2497 
Q 953 2441 691 2322 
L 691 4666 
z
" transform="scale(0.015625)"/>
      </defs>
      <use xlink:href="#DejaVuSans-73"/>
      <use xlink:href="#DejaVuSans-20" x="52.099609"/>
      <use xlink:href="#DejaVuSans-3d" x="83.886719"/>
      <use xlink:href="#DejaVuSans-20" x="167.675781"/>
      <use xlink:href="#DejaVuSans-33" x="199.462891"/>
      <use xlink:href="#DejaVuSans-2e" x="263.085938"/>
      <use xlink:href="#DejaVuSans-32" x="294.873047"/>
      <use xlink:href="#DejaVuSans-35" x="358.496094"/>
     </g>
    </g>
   </g>
   <g id="text_4">
    <g id="patch_5">
     <path d="M 132.282795 257.479833 
L 170.537951 249.560556 
Q 172.888122 249.074043 172.401609 246.723872 
L 170.832095 239.142121 
Q 170.345582 236.79195 167.99541 237.278464 
L 129.740255 245.197741 
Q 127.390083 245.684254 127.876597 248.034426 
L 129.44611 255.616176 
Q 129.932624 257.966347 132.282795 257.479833 
z
" clip-path="url(#p4454612228)" style="fill: #ffffff; stroke: #ffffff; stroke-linejoin: miter"/>
    </g>
    <g clip-path="url(#p4454612228)">
     <!-- (x - s) &gt;= -->
     <g style="fill: #ff0000" transform="translate(131.459016 253.500455)rotate(-11.695713)scale(0.08 -0.08)">
      <defs>
       <path id="DejaVuSans-28" d="M 1984 4856 
Q 1566 4138 1362 3434 
Q 1159 2731 1159 2009 
Q 1159 1288 1364 580 
Q 1569 -128 1984 -844 
L 1484 -844 
Q 1016 -109 783 600 
Q 550 1309 550 2009 
Q 550 2706 781 3412 
Q 1013 4119 1484 4856 
L 1984 4856 
z
" transform="scale(0.015625)"/>
       <path id="DejaVuSans-2d" d="M 313 2009 
L 1997 2009 
L 1997 1497 
L 313 1497 
L 313 2009 
z
" transform="scale(0.015625)"/>
       <path id="DejaVuSans-29" d="M 513 4856 
L 1013 4856 
Q 1481 4119 1714 3412 
Q 1947 2706 1947 2009 
Q 1947 1309 1714 600 
Q 1481 -109 1013 -844 
L 513 -844 
Q 928 -128 1133 580 
Q 1338 1288 1338 2009 
Q 1338 2731 1133 3434 
Q 928 4138 513 4856 
z
" transform="scale(0.015625)"/>
       <path id="DejaVuSans-3e" d="M 678 3150 
L 678 3719 
L 4684 2266 
L 4684 1747 
L 678 294 
L 678 863 
L 3897 2003 
L 678 3150 
z
" transform="scale(0.015625)"/>
      </defs>
      <use xlink:href="#DejaVuSans-28"/>
      <use xlink:href="#DejaVuSans-78" x="39.013672"/>
      <use xlink:href="#DejaVuSans-20" x="98.193359"/>
      <use xlink:href="#DejaVuSans-2d" x="129.980469"/>
      <use xlink:href="#DejaVuSans-20" x="166.064453"/>
      <use xlink:href="#DejaVuSans-73" x="197.851562"/>
      <use xlink:href="#DejaVuSans-29" x="249.951172"/>
      <use xlink:href="#DejaVuSans-20" x="288.964844"/>
      <use xlink:href="#DejaVuSans-3e" x="320.751953"/>
      <use xlink:href="#DejaVuSans-3d" x="404.541016"/>
     </g>
    </g>
   </g>
   <g id="text_5">
    <g id="patch_6">
     <path d="M 53.996544 292.868672 
L 89.182528 270.605969 
Q 91.210661 269.322739 89.927431 267.294606 
L 85.67339 260.571136 
Q 84.39016 258.543004 82.362027 259.826234 
L 47.176043 282.088937 
Q 45.147911 283.372167 46.431141 285.400299 
L 50.685182 292.123769 
Q 51.968412 294.151901 53.996544 292.868672 
z
" clip-path="url(#p4454612228)" style="fill: #ffffff; stroke: #ffffff; stroke-linejoin: miter"/>
    </g>
    <g clip-path="url(#p4454612228)">
     <!-- x = (_a_0_ -->
     <g style="fill: #ff0000" transform="translate(51.704776 289.246554)rotate(-32.322154)scale(0.08 -0.08)">
      <defs>
       <path id="DejaVuSans-5f" d="M 3263 -1063 
L 3263 -1509 
L -63 -1509 
L -63 -1063 
L 3263 -1063 
z
" transform="scale(0.015625)"/>
       <path id="DejaVuSans-30" d="M 2034 4250 
Q 1547 4250 1301 3770 
Q 1056 3291 1056 2328 
Q 1056 1369 1301 889 
Q 1547 409 2034 409 
Q 2525 409 2770 889 
Q 3016 1369 3016 2328 
Q 3016 3291 2770 3770 
Q 2525 4250 2034 4250 
z
M 2034 4750 
Q 2819 4750 3233 4129 
Q 3647 3509 3647 2328 
Q 3647 1150 3233 529 
Q 2819 -91 2034 -91 
Q 1250 -91 836 529 
Q 422 1150 422 2328 
Q 422 3509 836 4129 
Q 1250 4750 2034 4750 
z
" transform="scale(0.015625)"/>
      </defs>
      <use xlink:href="#DejaVuSans-78"/>
      <use xlink:href="#DejaVuSans-20" x="59.179688"/>
      <use xlink:href="#DejaVuSans-3d" x="90.966797"/>
      <use xlink:href="#DejaVuSans-20" x="174.755859"/>
      <use xlink:href="#DejaVuSans-28" x="206.542969"/>
      <use xlink:href="#DejaVuSans-5f" x="245.556641"/>
      <use xlink:href="#DejaVuSans-61" x="295.556641"/>
      <use xlink:href="#DejaVuSans-5f" x="356.835938"/>
      <use xlink:href="#DejaVuSans-30" x="406.835938"/>
      <use xlink:href="#DejaVuSans-5f" x="470.458984"/>
     </g>
    </g>
   </g>
   <g id="text_6">
    <g id="patch_7">
     <path d="M 49.838013 304.292248 
L 88.701187 317.573762 
Q 90.972227 318.349892 91.748356 316.078852 
L 94.321306 308.550117 
Q 95.097435 306.279077 92.826395 305.502948 
L 53.963222 292.221433 
Q 51.692181 291.445304 50.916052 293.716344 
L 48.343102 301.245079 
Q 47.566973 303.516119 49.838013 304.292248 
z
" clip-path="url(#p4454612228)" style="fill: #ffffff; stroke: #ffffff; stroke-linejoin: miter"/>
    </g>
    <g clip-path="url(#p4454612228)">
     <!-- s = (_a_3_ -->
     <g style="fill: #ff0000" transform="translate(51.224132 300.236312)rotate(-341.132105)scale(0.08 -0.08)">
      <use xlink:href="#DejaVuSans-73"/>
      <use xlink:href="#DejaVuSans-20" x="52.099609"/>
      <use xlink:href="#DejaVuSans-3d" x="83.886719"/>
      <use xlink:href="#DejaVuSans-20" x="167.675781"/>
      <use xlink:href="#DejaVuSans-28" x="199.462891"/>
      <use xlink:href="#DejaVuSans-5f" x="238.476562"/>
      <use xlink:href="#DejaVuSans-61" x="288.476562"/>
      <use xlink:href="#DejaVuSans-5f" x="349.755859"/>
      <use xlink:href="#DejaVuSans-33" x="399.755859"/>
      <use xlink:href="#DejaVuSans-5f" x="463.378906"/>
     </g>
    </g>
   </g>
   <g id="text_7">
    <g id="patch_8">
     <path d="M 122.331237 313.597831 
L 157.283744 297.777232 
Q 159.470198 296.787575 158.48054 294.601121 
L 155.287865 287.547532 
Q 154.298208 285.361078 152.111754 286.350735 
L 117.159247 302.171334 
Q 114.972793 303.160992 115.96245 305.347445 
L 119.155126 312.401035 
Q 120.144783 314.587488 122.331237 313.597831 
z
" clip-path="url(#p4454612228)" style="fill: #ffffff; stroke: #ffffff; stroke-linejoin: miter"/>
    </g>
    <g clip-path="url(#p4454612228)">
     <!-- r = (r + 1 -->
     <g style="fill: #ff0000" transform="translate(120.65552 309.895664)rotate(-24.352996)scale(0.08 -0.08)">
      <defs>
       <path id="DejaVuSans-2b" d="M 2944 4013 
L 2944 2272 
L 4684 2272 
L 4684 1741 
L 2944 1741 
L 2944 0 
L 2419 0 
L 2419 1741 
L 678 1741 
L 678 2272 
L 2419 2272 
L 2419 4013 
L 2944 4013 
z
" transform="scale(0.015625)"/>
      </defs>
      <use xlink:href="#DejaVuSans-72"/>
      <use xlink:href="#DejaVuSans-20" x="41.113281"/>
      <use xlink:href="#DejaVuSans-3d" x="72.900391"/>
      <use xlink:href="#DejaVuSans-20" x="156.689453"/>
      <use xlink:href="#DejaVuSans-28" x="188.476562"/>
      <use xlink:href="#DejaVuSans-72" x="227.490234"/>
      <use xlink:href="#DejaVuSans-20" x="268.603516"/>
      <use xlink:href="#DejaVuSans-2b" x="300.390625"/>
      <use xlink:href="#DejaVuSans-20" x="384.179688"/>
      <use xlink:href="#DejaVuSans-31" x="415.966797"/>
     </g>
    </g>
   </g>
   <g id="text_8">
    <g id="patch_9">
     <path d="M 245.061292 247.19908 
L 281.960071 251.358722 
Q 284.344965 251.627574 284.613817 249.24268 
L 285.481144 241.548913 
Q 285.749996 239.164019 283.365102 238.895167 
L 246.466322 234.735525 
Q 244.081429 234.466673 243.812577 236.851567 
L 242.94525 244.545334 
Q 242.676398 246.930228 245.061292 247.19908 
z
" clip-path="url(#p4454612228)" style="fill: #ffffff; stroke: #ffffff; stroke-linejoin: miter"/>
    </g>
    <g clip-path="url(#p4454612228)">
     <!-- Not((x - s -->
     <g style="fill: #ff0000" transform="translate(245.516519 243.160908)rotate(-353.568135)scale(0.08 -0.08)">
      <defs>
       <path id="DejaVuSans-4e" d="M 628 4666 
L 1478 4666 
L 3547 763 
L 3547 4666 
L 4159 4666 
L 4159 0 
L 3309 0 
L 1241 3903 
L 1241 0 
L 628 0 
L 628 4666 
z
" transform="scale(0.015625)"/>
       <path id="DejaVuSans-6f" d="M 1959 3097 
Q 1497 3097 1228 2736 
Q 959 2375 959 1747 
Q 959 1119 1226 758 
Q 1494 397 1959 397 
Q 2419 397 2687 759 
Q 2956 1122 2956 1747 
Q 2956 2369 2687 2733 
Q 2419 3097 1959 3097 
z
M 1959 3584 
Q 2709 3584 3137 3096 
Q 3566 2609 3566 1747 
Q 3566 888 3137 398 
Q 2709 -91 1959 -91 
Q 1206 -91 779 398 
Q 353 888 353 1747 
Q 353 2609 779 3096 
Q 1206 3584 1959 3584 
z
" transform="scale(0.015625)"/>
       <path id="DejaVuSans-74" d="M 1172 4494 
L 1172 3500 
L 2356 3500 
L 2356 3053 
L 1172 3053 
L 1172 1153 
Q 1172 725 1289 603 
Q 1406 481 1766 481 
L 2356 481 
L 2356 0 
L 1766 0 
Q 1100 0 847 248 
Q 594 497 594 1153 
L 594 3053 
L 172 3053 
L 172 3500 
L 594 3500 
L 594 4494 
L 1172 4494 
z
" transform="scale(0.015625)"/>
      </defs>
      <use xlink:href="#DejaVuSans-4e"/>
      <use xlink:href="#DejaVuSans-6f" x="74.804688"/>
      <use xlink:href="#DejaVuSans-74" x="135.986328"/>
      <use xlink:href="#DejaVuSans-28" x="175.195312"/>
      <use xlink:href="#DejaVuSans-28" x="214.208984"/>
      <use xlink:href="#DejaVuSans-78" x="253.222656"/>
      <use xlink:href="#DejaVuSans-20" x="312.402344"/>
      <use xlink:href="#DejaVuSans-2d" x="344.189453"/>
      <use xlink:href="#DejaVuSans-20" x="380.273438"/>
      <use xlink:href="#DejaVuSans-73" x="412.060547"/>
     </g>
    </g>
   </g>
   <g id="PathCollection_1">
    <defs>
     <path id="m8f5b46c2a3" d="M 0 11.18034 
C 2.965061 11.18034 5.80908 10.002309 7.905694 7.905694 
C 10.002309 5.80908 11.18034 2.965061 11.18034 0 
C 11.18034 -2.965061 10.002309 -5.80908 7.905694 -7.905694 
C 5.80908 -10.002309 2.965061 -11.18034 0 -11.18034 
C -2.965061 -11.18034 -5.80908 -10.002309 -7.905694 -7.905694 
C -10.002309 -5.80908 -11.18034 -2.965061 -11.18034 0 
C -11.18034 2.965061 -10.002309 5.80908 -7.905694 7.905694 
C -5.80908 10.002309 -2.965061 11.18034 0 11.18034 
z
" style="stroke: #ffc0cb; stroke-opacity: 0.9; stroke-width: 2"/>
    </defs>
    <g clip-path="url(#p4454612228)">
     <use xlink:href="#m8f5b46c2a3" x="232.306622" y="29.990083" style="fill: #ffc0cb; fill-opacity: 0.9; stroke: #ffc0cb; stroke-opacity: 0.9; stroke-width: 2"/>
     <use xlink:href="#m8f5b46c2a3" x="221.659243" y="70.146113" style="fill: #ffc0cb; fill-opacity: 0.9; stroke: #ffc0cb; stroke-opacity: 0.9; stroke-width: 2"/>
     <use xlink:href="#m8f5b46c2a3" x="211.89923" y="119.676447" style="fill: #ffc0cb; fill-opacity: 0.9; stroke: #ffc0cb; stroke-opacity: 0.9; stroke-width: 2"/>
     <use xlink:href="#m8f5b46c2a3" x="205.792945" y="175.386054" style="fill: #ffc0cb; fill-opacity: 0.9; stroke: #ffc0cb; stroke-opacity: 0.9; stroke-width: 2"/>
     <use xlink:href="#m8f5b46c2a3" x="203.906411" y="236.24867" style="fill: #ffc0cb; fill-opacity: 0.9; stroke: #ffc0cb; stroke-opacity: 0.9; stroke-width: 2"/>
     <use xlink:href="#m8f5b46c2a3" x="96.371795" y="258.509627" style="fill: #ffc0cb; fill-opacity: 0.9; stroke: #ffc0cb; stroke-opacity: 0.9; stroke-width: 2"/>
     <use xlink:href="#m8f5b46c2a3" x="39.986777" y="294.185278" style="fill: #ffc0cb; fill-opacity: 0.9; stroke: #ffc0cb; stroke-opacity: 0.9; stroke-width: 2"/>
     <use xlink:href="#m8f5b46c2a3" x="102.677631" y="315.609917" style="fill: #ffc0cb; fill-opacity: 0.9; stroke: #ffc0cb; stroke-opacity: 0.9; stroke-width: 2"/>
     <use xlink:href="#m8f5b46c2a3" x="171.765359" y="284.338649" style="fill: #ffc0cb; fill-opacity: 0.9; stroke: #ffc0cb; stroke-opacity: 0.9; stroke-width: 2"/>
     <use xlink:href="#m8f5b46c2a3" x="324.519983" y="249.845577" style="fill: #ffc0cb; fill-opacity: 0.9; stroke: #ffc0cb; stroke-opacity: 0.9; stroke-width: 2"/>
     <use xlink:href="#m8f5b46c2a3" x="420.813223" y="262.562967" style="fill: #ffc0cb; fill-opacity: 0.9; stroke: #ffc0cb; stroke-opacity: 0.9; stroke-width: 2"/>
    </g>
   </g>
   <g id="text_9">
    <g clip-path="url(#p4454612228)">
     <!-- 0 -->
     <g style="opacity: 0.9" transform="translate(228.489122 33.301333)scale(0.12 -0.12)">
      <use xlink:href="#DejaVuSans-30"/>
     </g>
    </g>
   </g>
   <g id="text_10">
    <g clip-path="url(#p4454612228)">
     <!-- 1 -->
     <g style="opacity: 0.9" transform="translate(217.841743 73.457363)scale(0.12 -0.12)">
      <use xlink:href="#DejaVuSans-31"/>
     </g>
    </g>
   </g>
   <g id="text_11">
    <g clip-path="url(#p4454612228)">
     <!-- 2 -->
     <g style="opacity: 0.9" transform="translate(208.08173 122.987697)scale(0.12 -0.12)">
      <use xlink:href="#DejaVuSans-32"/>
     </g>
    </g>
   </g>
   <g id="text_12">
    <g clip-path="url(#p4454612228)">
     <!-- 3 -->
     <g style="opacity: 0.9" transform="translate(201.975445 178.697304)scale(0.12 -0.12)">
      <use xlink:href="#DejaVuSans-33"/>
     </g>
    </g>
   </g>
   <g id="text_13">
    <g clip-path="url(#p4454612228)">
     <!-- 4 -->
     <g style="opacity: 0.9" transform="translate(200.088911 239.55992)scale(0.12 -0.12)">
      <defs>
       <path id="DejaVuSans-34" d="M 2419 4116 
L 825 1625 
L 2419 1625 
L 2419 4116 
z
M 2253 4666 
L 3047 4666 
L 3047 1625 
L 3713 1625 
L 3713 1100 
L 3047 1100 
L 3047 0 
L 2419 0 
L 2419 1100 
L 313 1100 
L 313 1709 
L 2253 4666 
z
" transform="scale(0.015625)"/>
      </defs>
      <use xlink:href="#DejaVuSans-34"/>
     </g>
    </g>
   </g>
   <g id="text_14">
    <g clip-path="url(#p4454612228)">
     <!-- 5 -->
     <g style="opacity: 0.9" transform="translate(92.554295 261.820877)scale(0.12 -0.12)">
      <use xlink:href="#DejaVuSans-35"/>
     </g>
    </g>
   </g>
   <g id="text_15">
    <g clip-path="url(#p4454612228)">
     <!-- 6 -->
     <g style="opacity: 0.9" transform="translate(36.169277 297.496528)scale(0.12 -0.12)">
      <defs>
       <path id="DejaVuSans-36" d="M 2113 2584 
Q 1688 2584 1439 2293 
Q 1191 2003 1191 1497 
Q 1191 994 1439 701 
Q 1688 409 2113 409 
Q 2538 409 2786 701 
Q 3034 994 3034 1497 
Q 3034 2003 2786 2293 
Q 2538 2584 2113 2584 
z
M 3366 4563 
L 3366 3988 
Q 3128 4100 2886 4159 
Q 2644 4219 2406 4219 
Q 1781 4219 1451 3797 
Q 1122 3375 1075 2522 
Q 1259 2794 1537 2939 
Q 1816 3084 2150 3084 
Q 2853 3084 3261 2657 
Q 3669 2231 3669 1497 
Q 3669 778 3244 343 
Q 2819 -91 2113 -91 
Q 1303 -91 875 529 
Q 447 1150 447 2328 
Q 447 3434 972 4092 
Q 1497 4750 2381 4750 
Q 2619 4750 2861 4703 
Q 3103 4656 3366 4563 
z
" transform="scale(0.015625)"/>
      </defs>
      <use xlink:href="#DejaVuSans-36"/>
     </g>
    </g>
   </g>
   <g id="text_16">
    <g clip-path="url(#p4454612228)">
     <!-- 7 -->
     <g style="opacity: 0.9" transform="translate(98.860131 318.921167)scale(0.12 -0.12)">
      <defs>
       <path id="DejaVuSans-37" d="M 525 4666 
L 3525 4666 
L 3525 4397 
L 1831 0 
L 1172 0 
L 2766 4134 
L 525 4134 
L 525 4666 
z
" transform="scale(0.015625)"/>
      </defs>
      <use xlink:href="#DejaVuSans-37"/>
     </g>
    </g>
   </g>
   <g id="text_17">
    <g clip-path="url(#p4454612228)">
     <!-- 8 -->
     <g style="opacity: 0.9" transform="translate(167.947859 287.649899)scale(0.12 -0.12)">
      <defs>
       <path id="DejaVuSans-38" d="M 2034 2216 
Q 1584 2216 1326 1975 
Q 1069 1734 1069 1313 
Q 1069 891 1326 650 
Q 1584 409 2034 409 
Q 2484 409 2743 651 
Q 3003 894 3003 1313 
Q 3003 1734 2745 1975 
Q 2488 2216 2034 2216 
z
M 1403 2484 
Q 997 2584 770 2862 
Q 544 3141 544 3541 
Q 544 4100 942 4425 
Q 1341 4750 2034 4750 
Q 2731 4750 3128 4425 
Q 3525 4100 3525 3541 
Q 3525 3141 3298 2862 
Q 3072 2584 2669 2484 
Q 3125 2378 3379 2068 
Q 3634 1759 3634 1313 
Q 3634 634 3220 271 
Q 2806 -91 2034 -91 
Q 1263 -91 848 271 
Q 434 634 434 1313 
Q 434 1759 690 2068 
Q 947 2378 1403 2484 
z
M 1172 3481 
Q 1172 3119 1398 2916 
Q 1625 2713 2034 2713 
Q 2441 2713 2670 2916 
Q 2900 3119 2900 3481 
Q 2900 3844 2670 4047 
Q 2441 4250 2034 4250 
Q 1625 4250 1398 4047 
Q 1172 3844 1172 3481 
z
" transform="scale(0.015625)"/>
      </defs>
      <use xlink:href="#DejaVuSans-38"/>
     </g>
    </g>
   </g>
   <g id="text_18">
    <g clip-path="url(#p4454612228)">
     <!-- 9 -->
     <g style="opacity: 0.9" transform="translate(320.702483 253.156827)scale(0.12 -0.12)">
      <defs>
       <path id="DejaVuSans-39" d="M 703 97 
L 703 672 
Q 941 559 1184 500 
Q 1428 441 1663 441 
Q 2288 441 2617 861 
Q 2947 1281 2994 2138 
Q 2813 1869 2534 1725 
Q 2256 1581 1919 1581 
Q 1219 1581 811 2004 
Q 403 2428 403 3163 
Q 403 3881 828 4315 
Q 1253 4750 1959 4750 
Q 2769 4750 3195 4129 
Q 3622 3509 3622 2328 
Q 3622 1225 3098 567 
Q 2575 -91 1691 -91 
Q 1453 -91 1209 -44 
Q 966 3 703 97 
z
M 1959 2075 
Q 2384 2075 2632 2365 
Q 2881 2656 2881 3163 
Q 2881 3666 2632 3958 
Q 2384 4250 1959 4250 
Q 1534 4250 1286 3958 
Q 1038 3666 1038 3163 
Q 1038 2656 1286 2365 
Q 1534 2075 1959 2075 
z
" transform="scale(0.015625)"/>
      </defs>
      <use xlink:href="#DejaVuSans-39"/>
     </g>
    </g>
   </g>
   <g id="text_19">
    <g clip-path="url(#p4454612228)">
     <!-- 10 -->
     <g style="opacity: 0.9" transform="translate(413.178223 265.874217)scale(0.12 -0.12)">
      <use xlink:href="#DejaVuSans-31"/>
      <use xlink:href="#DejaVuSans-30" x="63.623047"/>
     </g>
    </g>
   </g>
   <g id="text_20">
    <g clip-path="url(#p4454612228)">
     <!-- a &gt;= 0 -->
     <g transform="translate(-223.36068 121.080749)scale(0.08 -0.08)">
      <use xlink:href="#DejaVuSans-61"/>
      <use xlink:href="#DejaVuSans-20" x="61.279297"/>
      <use xlink:href="#DejaVuSans-3e" x="93.066406"/>
      <use xlink:href="#DejaVuSans-3d" x="176.855469"/>
      <use xlink:href="#DejaVuSans-20" x="260.644531"/>
      <use xlink:href="#DejaVuSans-30" x="292.431641"/>
     </g>
    </g>
   </g>
   <g id="text_21">
    <g clip-path="url(#p4454612228)">
     <!-- ((x &gt;= 0 and (((-12 * r) * r) + (4 * s)) == 1) and (((((((4 * r) * r) * r) + ((-6 * r) * r)) + (3 * r)) + (4 * x)) + (-4 * a)) == 1) -->
     <g transform="translate(266.041677 228.838735)scale(0.08 -0.08)">
      <defs>
       <path id="DejaVuSans-6e" d="M 3513 2113 
L 3513 0 
L 2938 0 
L 2938 2094 
Q 2938 2591 2744 2837 
Q 2550 3084 2163 3084 
Q 1697 3084 1428 2787 
Q 1159 2491 1159 1978 
L 1159 0 
L 581 0 
L 581 3500 
L 1159 3500 
L 1159 2956 
Q 1366 3272 1645 3428 
Q 1925 3584 2291 3584 
Q 2894 3584 3203 3211 
Q 3513 2838 3513 2113 
z
" transform="scale(0.015625)"/>
       <path id="DejaVuSans-64" d="M 2906 2969 
L 2906 4863 
L 3481 4863 
L 3481 0 
L 2906 0 
L 2906 525 
Q 2725 213 2448 61 
Q 2172 -91 1784 -91 
Q 1150 -91 751 415 
Q 353 922 353 1747 
Q 353 2572 751 3078 
Q 1150 3584 1784 3584 
Q 2172 3584 2448 3432 
Q 2725 3281 2906 2969 
z
M 947 1747 
Q 947 1113 1208 752 
Q 1469 391 1925 391 
Q 2381 391 2643 752 
Q 2906 1113 2906 1747 
Q 2906 2381 2643 2742 
Q 2381 3103 1925 3103 
Q 1469 3103 1208 2742 
Q 947 2381 947 1747 
z
" transform="scale(0.015625)"/>
       <path id="DejaVuSans-2a" d="M 3009 3897 
L 1888 3291 
L 3009 2681 
L 2828 2375 
L 1778 3009 
L 1778 1831 
L 1422 1831 
L 1422 3009 
L 372 2375 
L 191 2681 
L 1313 3291 
L 191 3897 
L 372 4206 
L 1422 3572 
L 1422 4750 
L 1778 4750 
L 1778 3572 
L 2828 4206 
L 3009 3897 
z
" transform="scale(0.015625)"/>
      </defs>
      <use xlink:href="#DejaVuSans-28"/>
      <use xlink:href="#DejaVuSans-28" x="39.013672"/>
      <use xlink:href="#DejaVuSans-78" x="78.027344"/>
      <use xlink:href="#DejaVuSans-20" x="137.207031"/>
      <use xlink:href="#DejaVuSans-3e" x="168.994141"/>
      <use xlink:href="#DejaVuSans-3d" x="252.783203"/>
      <use xlink:href="#DejaVuSans-20" x="336.572266"/>
      <use xlink:href="#DejaVuSans-30" x="368.359375"/>
      <use xlink:href="#DejaVuSans-20" x="431.982422"/>
      <use xlink:href="#DejaVuSans-61" x="463.769531"/>
      <use xlink:href="#DejaVuSans-6e" x="525.048828"/>
      <use xlink:href="#DejaVuSans-64" x="588.427734"/>
      <use xlink:href="#DejaVuSans-20" x="651.904297"/>
      <use xlink:href="#DejaVuSans-28" x="683.691406"/>
      <use xlink:href="#DejaVuSans-28" x="722.705078"/>
      <use xlink:href="#DejaVuSans-28" x="761.71875"/>
      <use xlink:href="#DejaVuSans-2d" x="800.732422"/>
      <use xlink:href="#DejaVuSans-31" x="836.816406"/>
      <use xlink:href="#DejaVuSans-32" x="900.439453"/>
      <use xlink:href="#DejaVuSans-20" x="964.0625"/>
      <use xlink:href="#DejaVuSans-2a" x="995.849609"/>
      <use xlink:href="#DejaVuSans-20" x="1045.849609"/>
      <use xlink:href="#DejaVuSans-72" x="1077.636719"/>
      <use xlink:href="#DejaVuSans-29" x="1118.75"/>
      <use xlink:href="#DejaVuSans-20" x="1157.763672"/>
      <use xlink:href="#DejaVuSans-2a" x="1189.550781"/>
      <use xlink:href="#DejaVuSans-20" x="1239.550781"/>
      <use xlink:href="#DejaVuSans-72" x="1271.337891"/>
      <use xlink:href="#DejaVuSans-29" x="1312.451172"/>
      <use xlink:href="#DejaVuSans-20" x="1351.464844"/>
      <use xlink:href="#DejaVuSans-2b" x="1383.251953"/>
      <use xlink:href="#DejaVuSans-20" x="1467.041016"/>
      <use xlink:href="#DejaVuSans-28" x="1498.828125"/>
      <use xlink:href="#DejaVuSans-34" x="1537.841797"/>
      <use xlink:href="#DejaVuSans-20" x="1601.464844"/>
      <use xlink:href="#DejaVuSans-2a" x="1633.251953"/>
      <use xlink:href="#DejaVuSans-20" x="1683.251953"/>
      <use xlink:href="#DejaVuSans-73" x="1715.039062"/>
      <use xlink:href="#DejaVuSans-29" x="1767.138672"/>
      <use xlink:href="#DejaVuSans-29" x="1806.152344"/>
      <use xlink:href="#DejaVuSans-20" x="1845.166016"/>
      <use xlink:href="#DejaVuSans-3d" x="1876.953125"/>
      <use xlink:href="#DejaVuSans-3d" x="1960.742188"/>
      <use xlink:href="#DejaVuSans-20" x="2044.53125"/>
      <use xlink:href="#DejaVuSans-31" x="2076.318359"/>
      <use xlink:href="#DejaVuSans-29" x="2139.941406"/>
      <use xlink:href="#DejaVuSans-20" x="2178.955078"/>
      <use xlink:href="#DejaVuSans-61" x="2210.742188"/>
      <use xlink:href="#DejaVuSans-6e" x="2272.021484"/>
      <use xlink:href="#DejaVuSans-64" x="2335.400391"/>
      <use xlink:href="#DejaVuSans-20" x="2398.876953"/>
      <use xlink:href="#DejaVuSans-28" x="2430.664062"/>
      <use xlink:href="#DejaVuSans-28" x="2469.677734"/>
      <use xlink:href="#DejaVuSans-28" x="2508.691406"/>
      <use xlink:href="#DejaVuSans-28" x="2547.705078"/>
      <use xlink:href="#DejaVuSans-28" x="2586.71875"/>
      <use xlink:href="#DejaVuSans-28" x="2625.732422"/>
      <use xlink:href="#DejaVuSans-28" x="2664.746094"/>
      <use xlink:href="#DejaVuSans-34" x="2703.759766"/>
      <use xlink:href="#DejaVuSans-20" x="2767.382812"/>
      <use xlink:href="#DejaVuSans-2a" x="2799.169922"/>
      <use xlink:href="#DejaVuSans-20" x="2849.169922"/>
      <use xlink:href="#DejaVuSans-72" x="2880.957031"/>
      <use xlink:href="#DejaVuSans-29" x="2922.070312"/>
      <use xlink:href="#DejaVuSans-20" x="2961.083984"/>
      <use xlink:href="#DejaVuSans-2a" x="2992.871094"/>
      <use xlink:href="#DejaVuSans-20" x="3042.871094"/>
      <use xlink:href="#DejaVuSans-72" x="3074.658203"/>
      <use xlink:href="#DejaVuSans-29" x="3115.771484"/>
      <use xlink:href="#DejaVuSans-20" x="3154.785156"/>
      <use xlink:href="#DejaVuSans-2a" x="3186.572266"/>
      <use xlink:href="#DejaVuSans-20" x="3236.572266"/>
      <use xlink:href="#DejaVuSans-72" x="3268.359375"/>
      <use xlink:href="#DejaVuSans-29" x="3309.472656"/>
      <use xlink:href="#DejaVuSans-20" x="3348.486328"/>
      <use xlink:href="#DejaVuSans-2b" x="3380.273438"/>
      <use xlink:href="#DejaVuSans-20" x="3464.0625"/>
      <use xlink:href="#DejaVuSans-28" x="3495.849609"/>
      <use xlink:href="#DejaVuSans-28" x="3534.863281"/>
      <use xlink:href="#DejaVuSans-2d" x="3573.876953"/>
      <use xlink:href="#DejaVuSans-36" x="3609.960938"/>
      <use xlink:href="#DejaVuSans-20" x="3673.583984"/>
      <use xlink:href="#DejaVuSans-2a" x="3705.371094"/>
      <use xlink:href="#DejaVuSans-20" x="3755.371094"/>
      <use xlink:href="#DejaVuSans-72" x="3787.158203"/>
      <use xlink:href="#DejaVuSans-29" x="3828.271484"/>
      <use xlink:href="#DejaVuSans-20" x="3867.285156"/>
      <use xlink:href="#DejaVuSans-2a" x="3899.072266"/>
      <use xlink:href="#DejaVuSans-20" x="3949.072266"/>
      <use xlink:href="#DejaVuSans-72" x="3980.859375"/>
      <use xlink:href="#DejaVuSans-29" x="4021.972656"/>
      <use xlink:href="#DejaVuSans-29" x="4060.986328"/>
      <use xlink:href="#DejaVuSans-20" x="4100"/>
      <use xlink:href="#DejaVuSans-2b" x="4131.787109"/>
      <use xlink:href="#DejaVuSans-20" x="4215.576172"/>
      <use xlink:href="#DejaVuSans-28" x="4247.363281"/>
      <use xlink:href="#DejaVuSans-33" x="4286.376953"/>
      <use xlink:href="#DejaVuSans-20" x="4350"/>
      <use xlink:href="#DejaVuSans-2a" x="4381.787109"/>
      <use xlink:href="#DejaVuSans-20" x="4431.787109"/>
      <use xlink:href="#DejaVuSans-72" x="4463.574219"/>
      <use xlink:href="#DejaVuSans-29" x="4504.6875"/>
      <use xlink:href="#DejaVuSans-29" x="4543.701172"/>
      <use xlink:href="#DejaVuSans-20" x="4582.714844"/>
      <use xlink:href="#DejaVuSans-2b" x="4614.501953"/>
      <use xlink:href="#DejaVuSans-20" x="4698.291016"/>
      <use xlink:href="#DejaVuSans-28" x="4730.078125"/>
      <use xlink:href="#DejaVuSans-34" x="4769.091797"/>
      <use xlink:href="#DejaVuSans-20" x="4832.714844"/>
      <use xlink:href="#DejaVuSans-2a" x="4864.501953"/>
      <use xlink:href="#DejaVuSans-20" x="4914.501953"/>
      <use xlink:href="#DejaVuSans-78" x="4946.289062"/>
      <use xlink:href="#DejaVuSans-29" x="5005.46875"/>
      <use xlink:href="#DejaVuSans-29" x="5044.482422"/>
      <use xlink:href="#DejaVuSans-20" x="5083.496094"/>
      <use xlink:href="#DejaVuSans-2b" x="5115.283203"/>
      <use xlink:href="#DejaVuSans-20" x="5199.072266"/>
      <use xlink:href="#DejaVuSans-28" x="5230.859375"/>
      <use xlink:href="#DejaVuSans-2d" x="5269.873047"/>
      <use xlink:href="#DejaVuSans-34" x="5305.957031"/>
      <use xlink:href="#DejaVuSans-20" x="5369.580078"/>
      <use xlink:href="#DejaVuSans-2a" x="5401.367188"/>
      <use xlink:href="#DejaVuSans-20" x="5451.367188"/>
      <use xlink:href="#DejaVuSans-61" x="5483.154297"/>
      <use xlink:href="#DejaVuSans-29" x="5544.433594"/>
      <use xlink:href="#DejaVuSans-29" x="5583.447266"/>
      <use xlink:href="#DejaVuSans-20" x="5622.460938"/>
      <use xlink:href="#DejaVuSans-3d" x="5654.248047"/>
      <use xlink:href="#DejaVuSans-3d" x="5738.037109"/>
      <use xlink:href="#DejaVuSans-20" x="5821.826172"/>
      <use xlink:href="#DejaVuSans-31" x="5853.613281"/>
      <use xlink:href="#DejaVuSans-29" x="5917.236328"/>
     </g>
    </g>
   </g>
   <g id="text_22">
    <g clip-path="url(#p4454612228)">
     <!-- ((((((4 * r) * r) * r) + ((6 * r) * r)) + (3 * r)) &gt;= (4 * a) and (4 * a) &gt;= ((((((4 * r) * r) * r) + ((-6 * r) * r)) + (3 * r)) + -1)) -->
     <g transform="translate(219.084901 334.256059)scale(0.08 -0.08)">
      <use xlink:href="#DejaVuSans-28"/>
      <use xlink:href="#DejaVuSans-28" x="39.013672"/>
      <use xlink:href="#DejaVuSans-28" x="78.027344"/>
      <use xlink:href="#DejaVuSans-28" x="117.041016"/>
      <use xlink:href="#DejaVuSans-28" x="156.054688"/>
      <use xlink:href="#DejaVuSans-28" x="195.068359"/>
      <use xlink:href="#DejaVuSans-34" x="234.082031"/>
      <use xlink:href="#DejaVuSans-20" x="297.705078"/>
      <use xlink:href="#DejaVuSans-2a" x="329.492188"/>
      <use xlink:href="#DejaVuSans-20" x="379.492188"/>
      <use xlink:href="#DejaVuSans-72" x="411.279297"/>
      <use xlink:href="#DejaVuSans-29" x="452.392578"/>
      <use xlink:href="#DejaVuSans-20" x="491.40625"/>
      <use xlink:href="#DejaVuSans-2a" x="523.193359"/>
      <use xlink:href="#DejaVuSans-20" x="573.193359"/>
      <use xlink:href="#DejaVuSans-72" x="604.980469"/>
      <use xlink:href="#DejaVuSans-29" x="646.09375"/>
      <use xlink:href="#DejaVuSans-20" x="685.107422"/>
      <use xlink:href="#DejaVuSans-2a" x="716.894531"/>
      <use xlink:href="#DejaVuSans-20" x="766.894531"/>
      <use xlink:href="#DejaVuSans-72" x="798.681641"/>
      <use xlink:href="#DejaVuSans-29" x="839.794922"/>
      <use xlink:href="#DejaVuSans-20" x="878.808594"/>
      <use xlink:href="#DejaVuSans-2b" x="910.595703"/>
      <use xlink:href="#DejaVuSans-20" x="994.384766"/>
      <use xlink:href="#DejaVuSans-28" x="1026.171875"/>
      <use xlink:href="#DejaVuSans-28" x="1065.185547"/>
      <use xlink:href="#DejaVuSans-36" x="1104.199219"/>
      <use xlink:href="#DejaVuSans-20" x="1167.822266"/>
      <use xlink:href="#DejaVuSans-2a" x="1199.609375"/>
      <use xlink:href="#DejaVuSans-20" x="1249.609375"/>
      <use xlink:href="#DejaVuSans-72" x="1281.396484"/>
      <use xlink:href="#DejaVuSans-29" x="1322.509766"/>
      <use xlink:href="#DejaVuSans-20" x="1361.523438"/>
      <use xlink:href="#DejaVuSans-2a" x="1393.310547"/>
      <use xlink:href="#DejaVuSans-20" x="1443.310547"/>
      <use xlink:href="#DejaVuSans-72" x="1475.097656"/>
      <use xlink:href="#DejaVuSans-29" x="1516.210938"/>
      <use xlink:href="#DejaVuSans-29" x="1555.224609"/>
      <use xlink:href="#DejaVuSans-20" x="1594.238281"/>
      <use xlink:href="#DejaVuSans-2b" x="1626.025391"/>
      <use xlink:href="#DejaVuSans-20" x="1709.814453"/>
      <use xlink:href="#DejaVuSans-28" x="1741.601562"/>
      <use xlink:href="#DejaVuSans-33" x="1780.615234"/>
      <use xlink:href="#DejaVuSans-20" x="1844.238281"/>
      <use xlink:href="#DejaVuSans-2a" x="1876.025391"/>
      <use xlink:href="#DejaVuSans-20" x="1926.025391"/>
      <use xlink:href="#DejaVuSans-72" x="1957.8125"/>
      <use xlink:href="#DejaVuSans-29" x="1998.925781"/>
      <use xlink:href="#DejaVuSans-29" x="2037.939453"/>
      <use xlink:href="#DejaVuSans-20" x="2076.953125"/>
      <use xlink:href="#DejaVuSans-3e" x="2108.740234"/>
      <use xlink:href="#DejaVuSans-3d" x="2192.529297"/>
      <use xlink:href="#DejaVuSans-20" x="2276.318359"/>
      <use xlink:href="#DejaVuSans-28" x="2308.105469"/>
      <use xlink:href="#DejaVuSans-34" x="2347.119141"/>
      <use xlink:href="#DejaVuSans-20" x="2410.742188"/>
      <use xlink:href="#DejaVuSans-2a" x="2442.529297"/>
      <use xlink:href="#DejaVuSans-20" x="2492.529297"/>
      <use xlink:href="#DejaVuSans-61" x="2524.316406"/>
      <use xlink:href="#DejaVuSans-29" x="2585.595703"/>
      <use xlink:href="#DejaVuSans-20" x="2624.609375"/>
      <use xlink:href="#DejaVuSans-61" x="2656.396484"/>
      <use xlink:href="#DejaVuSans-6e" x="2717.675781"/>
      <use xlink:href="#DejaVuSans-64" x="2781.054688"/>
      <use xlink:href="#DejaVuSans-20" x="2844.53125"/>
      <use xlink:href="#DejaVuSans-28" x="2876.318359"/>
      <use xlink:href="#DejaVuSans-34" x="2915.332031"/>
      <use xlink:href="#DejaVuSans-20" x="2978.955078"/>
      <use xlink:href="#DejaVuSans-2a" x="3010.742188"/>
      <use xlink:href="#DejaVuSans-20" x="3060.742188"/>
      <use xlink:href="#DejaVuSans-61" x="3092.529297"/>
      <use xlink:href="#DejaVuSans-29" x="3153.808594"/>
      <use xlink:href="#DejaVuSans-20" x="3192.822266"/>
      <use xlink:href="#DejaVuSans-3e" x="3224.609375"/>
      <use xlink:href="#DejaVuSans-3d" x="3308.398438"/>
      <use xlink:href="#DejaVuSans-20" x="3392.1875"/>
      <use xlink:href="#DejaVuSans-28" x="3423.974609"/>
      <use xlink:href="#DejaVuSans-28" x="3462.988281"/>
      <use xlink:href="#DejaVuSans-28" x="3502.001953"/>
      <use xlink:href="#DejaVuSans-28" x="3541.015625"/>
      <use xlink:href="#DejaVuSans-28" x="3580.029297"/>
      <use xlink:href="#DejaVuSans-28" x="3619.042969"/>
      <use xlink:href="#DejaVuSans-34" x="3658.056641"/>
      <use xlink:href="#DejaVuSans-20" x="3721.679688"/>
      <use xlink:href="#DejaVuSans-2a" x="3753.466797"/>
      <use xlink:href="#DejaVuSans-20" x="3803.466797"/>
      <use xlink:href="#DejaVuSans-72" x="3835.253906"/>
      <use xlink:href="#DejaVuSans-29" x="3876.367188"/>
      <use xlink:href="#DejaVuSans-20" x="3915.380859"/>
      <use xlink:href="#DejaVuSans-2a" x="3947.167969"/>
      <use xlink:href="#DejaVuSans-20" x="3997.167969"/>
      <use xlink:href="#DejaVuSans-72" x="4028.955078"/>
      <use xlink:href="#DejaVuSans-29" x="4070.068359"/>
      <use xlink:href="#DejaVuSans-20" x="4109.082031"/>
      <use xlink:href="#DejaVuSans-2a" x="4140.869141"/>
      <use xlink:href="#DejaVuSans-20" x="4190.869141"/>
      <use xlink:href="#DejaVuSans-72" x="4222.65625"/>
      <use xlink:href="#DejaVuSans-29" x="4263.769531"/>
      <use xlink:href="#DejaVuSans-20" x="4302.783203"/>
      <use xlink:href="#DejaVuSans-2b" x="4334.570312"/>
      <use xlink:href="#DejaVuSans-20" x="4418.359375"/>
      <use xlink:href="#DejaVuSans-28" x="4450.146484"/>
      <use xlink:href="#DejaVuSans-28" x="4489.160156"/>
      <use xlink:href="#DejaVuSans-2d" x="4528.173828"/>
      <use xlink:href="#DejaVuSans-36" x="4564.257812"/>
      <use xlink:href="#DejaVuSans-20" x="4627.880859"/>
      <use xlink:href="#DejaVuSans-2a" x="4659.667969"/>
      <use xlink:href="#DejaVuSans-20" x="4709.667969"/>
      <use xlink:href="#DejaVuSans-72" x="4741.455078"/>
      <use xlink:href="#DejaVuSans-29" x="4782.568359"/>
      <use xlink:href="#DejaVuSans-20" x="4821.582031"/>
      <use xlink:href="#DejaVuSans-2a" x="4853.369141"/>
      <use xlink:href="#DejaVuSans-20" x="4903.369141"/>
      <use xlink:href="#DejaVuSans-72" x="4935.15625"/>
      <use xlink:href="#DejaVuSans-29" x="4976.269531"/>
      <use xlink:href="#DejaVuSans-29" x="5015.283203"/>
      <use xlink:href="#DejaVuSans-20" x="5054.296875"/>
      <use xlink:href="#DejaVuSans-2b" x="5086.083984"/>
      <use xlink:href="#DejaVuSans-20" x="5169.873047"/>
      <use xlink:href="#DejaVuSans-28" x="5201.660156"/>
      <use xlink:href="#DejaVuSans-33" x="5240.673828"/>
      <use xlink:href="#DejaVuSans-20" x="5304.296875"/>
      <use xlink:href="#DejaVuSans-2a" x="5336.083984"/>
      <use xlink:href="#DejaVuSans-20" x="5386.083984"/>
      <use xlink:href="#DejaVuSans-72" x="5417.871094"/>
      <use xlink:href="#DejaVuSans-29" x="5458.984375"/>
      <use xlink:href="#DejaVuSans-29" x="5497.998047"/>
      <use xlink:href="#DejaVuSans-20" x="5537.011719"/>
      <use xlink:href="#DejaVuSans-2b" x="5568.798828"/>
      <use xlink:href="#DejaVuSans-20" x="5652.587891"/>
      <use xlink:href="#DejaVuSans-2d" x="5684.375"/>
      <use xlink:href="#DejaVuSans-31" x="5720.458984"/>
      <use xlink:href="#DejaVuSans-29" x="5784.082031"/>
      <use xlink:href="#DejaVuSans-29" x="5823.095703"/>
     </g>
    </g>
   </g>
  </g>
 </g>
 <defs>
  <clipPath id="p4454612228">
   <rect x="0" y="0" width="460.8" height="345.6"/>
  </clipPath>
 </defs>
</svg>
