<?xml version="1.0" encoding="utf-8" standalone="no"?>
<!DOCTYPE svg PUBLIC "-//W3C//DTD SVG 1.1//EN"
  "http://www.w3.org/Graphics/SVG/1.1/DTD/svg11.dtd">
<svg height="345.6pt" version="1.1" viewBox="0 0 460.8 345.6" width="460.8pt" xmlns="http://www.w3.org/2000/svg" xmlns:xlink="http://www.w3.org/1999/xlink">
 <metadata>
  <rdf:RDF xmlns:cc="http://creativecommons.org/ns#" xmlns:dc="http://purl.org/dc/elements/1.1/" xmlns:rdf="http://www.w3.org/1999/02/22-rdf-syntax-ns#">
   <cc:Work>
    <dc:type rdf:resource="http://purl.org/dc/dcmitype/StillImage"/>
    <dc:date>2022-04-08T02:53:47.721254</dc:date>
    <dc:format>image/svg+xml</dc:format>
    <dc:creator>
     <cc:Agent>
      <dc:title>Matplotlib v3.4.2, https://matplotlib.org/</dc:title>
     </cc:Agent>
    </dc:creator>
   </cc:Work>
  </rdf:RDF>
 </metadata>
 <defs>
  <style type="text/css">*{stroke-linecap:butt;stroke-linejoin:round;}</style>
 </defs>
 <g id="figure_1">
  <g id="patch_1">
   <path d="M 0 345.6 
L 460.8 345.6 
L 460.8 0 
L 0 0 
z
" style="fill:#ffffff;"/>
  </g>
  <g id="axes_1">
   <g id="LineCollection_1">
    <path clip-path="url(#p8b5c9c075c)" d="M 420.813223 315.609917 
L 230.917235 173.18792 
" style="fill:none;stroke:#000000;stroke-opacity:0.9;"/>
    <path clip-path="url(#p8b5c9c075c)" d="M 230.917235 173.18792 
L 39.986777 29.990083 
" style="fill:none;stroke:#000000;stroke-opacity:0.9;"/>
   </g>
   <g id="text_1">
    <g id="patch_2">
     <path clip-path="url(#p8b5c9c075c)" d="M 272.880855 212.633293 
L 371.195853 286.369545 
Q 373.115853 287.809545 374.555853 285.889545 
L 379.329603 279.524545 
Q 380.769603 277.604545 378.849603 276.164545 
L 280.534605 202.428293 
Q 278.614605 200.988293 277.174605 202.908293 
L 272.400855 209.273293 
Q 270.960855 211.193293 272.880855 212.633293 
z
" style="fill:#ffffff;stroke:#ffffff;stroke-linejoin:miter;"/>
    </g>
    <g clip-path="url(#p8b5c9c075c)">
     <!-- x = (((n - 5) * n) + (_a_0_)*(1)) -->
     <g style="fill:#ff0000;" transform="translate(275.452605 209.204293)rotate(-323.130101)scale(0.08 -0.08)">
      <defs>
       <path d="M 3513 3500 
L 2247 1797 
L 3578 0 
L 2900 0 
L 1881 1375 
L 863 0 
L 184 0 
L 1544 1831 
L 300 3500 
L 978 3500 
L 1906 2253 
L 2834 3500 
L 3513 3500 
z
" id="DejaVuSans-78" transform="scale(0.015625)"/>
       <path id="DejaVuSans-20" transform="scale(0.015625)"/>
       <path d="M 678 2906 
L 4684 2906 
L 4684 2381 
L 678 2381 
L 678 2906 
z
M 678 1631 
L 4684 1631 
L 4684 1100 
L 678 1100 
L 678 1631 
z
" id="DejaVuSans-3d" transform="scale(0.015625)"/>
       <path d="M 1984 4856 
Q 1566 4138 1362 3434 
Q 1159 2731 1159 2009 
Q 1159 1288 1364 580 
Q 1569 -128 1984 -844 
L 1484 -844 
Q 1016 -109 783 600 
Q 550 1309 550 2009 
Q 550 2706 781 3412 
Q 1013 4119 1484 4856 
L 1984 4856 
z
" id="DejaVuSans-28" transform="scale(0.015625)"/>
       <path d="M 3513 2113 
L 3513 0 
L 2938 0 
L 2938 2094 
Q 2938 2591 2744 2837 
Q 2550 3084 2163 3084 
Q 1697 3084 1428 2787 
Q 1159 2491 1159 1978 
L 1159 0 
L 581 0 
L 581 3500 
L 1159 3500 
L 1159 2956 
Q 1366 3272 1645 3428 
Q 1925 3584 2291 3584 
Q 2894 3584 3203 3211 
Q 3513 2838 3513 2113 
z
" id="DejaVuSans-6e" transform="scale(0.015625)"/>
       <path d="M 313 2009 
L 1997 2009 
L 1997 1497 
L 313 1497 
L 313 2009 
z
" id="DejaVuSans-2d" transform="scale(0.015625)"/>
       <path d="M 691 4666 
L 3169 4666 
L 3169 4134 
L 1269 4134 
L 1269 2991 
Q 1406 3038 1543 3061 
Q 1681 3084 1819 3084 
Q 2600 3084 3056 2656 
Q 3513 2228 3513 1497 
Q 3513 744 3044 326 
Q 2575 -91 1722 -91 
Q 1428 -91 1123 -41 
Q 819 9 494 109 
L 494 744 
Q 775 591 1075 516 
Q 1375 441 1709 441 
Q 2250 441 2565 725 
Q 2881 1009 2881 1497 
Q 2881 1984 2565 2268 
Q 2250 2553 1709 2553 
Q 1456 2553 1204 2497 
Q 953 2441 691 2322 
L 691 4666 
z
" id="DejaVuSans-35" transform="scale(0.015625)"/>
       <path d="M 513 4856 
L 1013 4856 
Q 1481 4119 1714 3412 
Q 1947 2706 1947 2009 
Q 1947 1309 1714 600 
Q 1481 -109 1013 -844 
L 513 -844 
Q 928 -128 1133 580 
Q 1338 1288 1338 2009 
Q 1338 2731 1133 3434 
Q 928 4138 513 4856 
z
" id="DejaVuSans-29" transform="scale(0.015625)"/>
       <path d="M 3009 3897 
L 1888 3291 
L 3009 2681 
L 2828 2375 
L 1778 3009 
L 1778 1831 
L 1422 1831 
L 1422 3009 
L 372 2375 
L 191 2681 
L 1313 3291 
L 191 3897 
L 372 4206 
L 1422 3572 
L 1422 4750 
L 1778 4750 
L 1778 3572 
L 2828 4206 
L 3009 3897 
z
" id="DejaVuSans-2a" transform="scale(0.015625)"/>
       <path d="M 2944 4013 
L 2944 2272 
L 4684 2272 
L 4684 1741 
L 2944 1741 
L 2944 0 
L 2419 0 
L 2419 1741 
L 678 1741 
L 678 2272 
L 2419 2272 
L 2419 4013 
L 2944 4013 
z
" id="DejaVuSans-2b" transform="scale(0.015625)"/>
       <path d="M 3263 -1063 
L 3263 -1509 
L -63 -1509 
L -63 -1063 
L 3263 -1063 
z
" id="DejaVuSans-5f" transform="scale(0.015625)"/>
       <path d="M 2194 1759 
Q 1497 1759 1228 1600 
Q 959 1441 959 1056 
Q 959 750 1161 570 
Q 1363 391 1709 391 
Q 2188 391 2477 730 
Q 2766 1069 2766 1631 
L 2766 1759 
L 2194 1759 
z
M 3341 1997 
L 3341 0 
L 2766 0 
L 2766 531 
Q 2569 213 2275 61 
Q 1981 -91 1556 -91 
Q 1019 -91 701 211 
Q 384 513 384 1019 
Q 384 1609 779 1909 
Q 1175 2209 1959 2209 
L 2766 2209 
L 2766 2266 
Q 2766 2663 2505 2880 
Q 2244 3097 1772 3097 
Q 1472 3097 1187 3025 
Q 903 2953 641 2809 
L 641 3341 
Q 956 3463 1253 3523 
Q 1550 3584 1831 3584 
Q 2591 3584 2966 3190 
Q 3341 2797 3341 1997 
z
" id="DejaVuSans-61" transform="scale(0.015625)"/>
       <path d="M 2034 4250 
Q 1547 4250 1301 3770 
Q 1056 3291 1056 2328 
Q 1056 1369 1301 889 
Q 1547 409 2034 409 
Q 2525 409 2770 889 
Q 3016 1369 3016 2328 
Q 3016 3291 2770 3770 
Q 2525 4250 2034 4250 
z
M 2034 4750 
Q 2819 4750 3233 4129 
Q 3647 3509 3647 2328 
Q 3647 1150 3233 529 
Q 2819 -91 2034 -91 
Q 1250 -91 836 529 
Q 422 1150 422 2328 
Q 422 3509 836 4129 
Q 1250 4750 2034 4750 
z
" id="DejaVuSans-30" transform="scale(0.015625)"/>
       <path d="M 794 531 
L 1825 531 
L 1825 4091 
L 703 3866 
L 703 4441 
L 1819 4666 
L 2450 4666 
L 2450 531 
L 3481 531 
L 3481 0 
L 794 0 
L 794 531 
z
" id="DejaVuSans-31" transform="scale(0.015625)"/>
      </defs>
      <use xlink:href="#DejaVuSans-78"/>
      <use x="59.179688" xlink:href="#DejaVuSans-20"/>
      <use x="90.966797" xlink:href="#DejaVuSans-3d"/>
      <use x="174.755859" xlink:href="#DejaVuSans-20"/>
      <use x="206.542969" xlink:href="#DejaVuSans-28"/>
      <use x="245.556641" xlink:href="#DejaVuSans-28"/>
      <use x="284.570312" xlink:href="#DejaVuSans-28"/>
      <use x="323.583984" xlink:href="#DejaVuSans-6e"/>
      <use x="386.962891" xlink:href="#DejaVuSans-20"/>
      <use x="418.75" xlink:href="#DejaVuSans-2d"/>
      <use x="454.833984" xlink:href="#DejaVuSans-20"/>
      <use x="486.621094" xlink:href="#DejaVuSans-35"/>
      <use x="550.244141" xlink:href="#DejaVuSans-29"/>
      <use x="589.257812" xlink:href="#DejaVuSans-20"/>
      <use x="621.044922" xlink:href="#DejaVuSans-2a"/>
      <use x="671.044922" xlink:href="#DejaVuSans-20"/>
      <use x="702.832031" xlink:href="#DejaVuSans-6e"/>
      <use x="766.210938" xlink:href="#DejaVuSans-29"/>
      <use x="805.224609" xlink:href="#DejaVuSans-20"/>
      <use x="837.011719" xlink:href="#DejaVuSans-2b"/>
      <use x="920.800781" xlink:href="#DejaVuSans-20"/>
      <use x="952.587891" xlink:href="#DejaVuSans-28"/>
      <use x="991.601562" xlink:href="#DejaVuSans-5f"/>
      <use x="1041.601562" xlink:href="#DejaVuSans-61"/>
      <use x="1102.880859" xlink:href="#DejaVuSans-5f"/>
      <use x="1152.880859" xlink:href="#DejaVuSans-30"/>
      <use x="1216.503906" xlink:href="#DejaVuSans-5f"/>
      <use x="1266.503906" xlink:href="#DejaVuSans-29"/>
      <use x="1305.517578" xlink:href="#DejaVuSans-2a"/>
      <use x="1355.517578" xlink:href="#DejaVuSans-28"/>
      <use x="1394.53125" xlink:href="#DejaVuSans-31"/>
      <use x="1458.154297" xlink:href="#DejaVuSans-29"/>
      <use x="1497.167969" xlink:href="#DejaVuSans-29"/>
     </g>
    </g>
   </g>
   <g id="PathCollection_1">
    <defs>
     <path d="M 0 11.18034 
C 2.965061 11.18034 5.80908 10.002309 7.905694 7.905694 
C 10.002309 5.80908 11.18034 2.965061 11.18034 0 
C 11.18034 -2.965061 10.002309 -5.80908 7.905694 -7.905694 
C 5.80908 -10.002309 2.965061 -11.18034 0 -11.18034 
C -2.965061 -11.18034 -5.80908 -10.002309 -7.905694 -7.905694 
C -10.002309 -5.80908 -11.18034 -2.965061 -11.18034 0 
C -11.18034 2.965061 -10.002309 5.80908 -7.905694 7.905694 
C -5.80908 10.002309 -2.965061 11.18034 0 11.18034 
z
" id="mf83928877a" style="stroke:#ffc0cb;stroke-opacity:0.9;"/>
    </defs>
    <g clip-path="url(#p8b5c9c075c)">
     <use style="fill:#ffc0cb;fill-opacity:0.9;stroke:#ffc0cb;stroke-opacity:0.9;" x="420.813223" xlink:href="#mf83928877a" y="315.609917"/>
     <use style="fill:#ffc0cb;fill-opacity:0.9;stroke:#ffc0cb;stroke-opacity:0.9;" x="230.917235" xlink:href="#mf83928877a" y="173.18792"/>
     <use style="fill:#ffc0cb;fill-opacity:0.9;stroke:#ffc0cb;stroke-opacity:0.9;" x="39.986777" xlink:href="#mf83928877a" y="29.990083"/>
    </g>
   </g>
   <g id="text_2">
    <g clip-path="url(#p8b5c9c075c)">
     <!-- 0 -->
     <g style="opacity:0.9;" transform="translate(416.995723 318.921167)scale(0.12 -0.12)">
      <use xlink:href="#DejaVuSans-30"/>
     </g>
    </g>
   </g>
   <g id="text_3">
    <g clip-path="url(#p8b5c9c075c)">
     <!-- 1 -->
     <g style="opacity:0.9;" transform="translate(227.099735 176.49917)scale(0.12 -0.12)">
      <use xlink:href="#DejaVuSans-31"/>
     </g>
    </g>
   </g>
   <g id="text_4">
    <g clip-path="url(#p8b5c9c075c)">
     <!-- 2 -->
     <g style="opacity:0.9;" transform="translate(36.169277 33.301333)scale(0.12 -0.12)">
      <defs>
       <path d="M 1228 531 
L 3431 531 
L 3431 0 
L 469 0 
L 469 531 
Q 828 903 1448 1529 
Q 2069 2156 2228 2338 
Q 2531 2678 2651 2914 
Q 2772 3150 2772 3378 
Q 2772 3750 2511 3984 
Q 2250 4219 1831 4219 
Q 1534 4219 1204 4116 
Q 875 4013 500 3803 
L 500 4441 
Q 881 4594 1212 4672 
Q 1544 4750 1819 4750 
Q 2544 4750 2975 4387 
Q 3406 4025 3406 3419 
Q 3406 3131 3298 2873 
Q 3191 2616 2906 2266 
Q 2828 2175 2409 1742 
Q 1991 1309 1228 531 
z
" id="DejaVuSans-32" transform="scale(0.015625)"/>
      </defs>
      <use xlink:href="#DejaVuSans-32"/>
     </g>
    </g>
   </g>
   <g id="text_5">
    <g clip-path="url(#p8b5c9c075c)">
     <!-- x &lt;= 100 -->
     <g transform="translate(272.711553 -697.151741)scale(0.12 -0.12)">
      <defs>
       <path d="M 4684 3150 
L 1459 2003 
L 4684 863 
L 4684 294 
L 678 1747 
L 678 2266 
L 4684 3719 
L 4684 3150 
z
" id="DejaVuSans-3c" transform="scale(0.015625)"/>
      </defs>
      <use xlink:href="#DejaVuSans-78"/>
      <use x="59.179688" xlink:href="#DejaVuSans-20"/>
      <use x="90.966797" xlink:href="#DejaVuSans-3c"/>
      <use x="174.755859" xlink:href="#DejaVuSans-3d"/>
      <use x="258.544922" xlink:href="#DejaVuSans-20"/>
      <use x="290.332031" xlink:href="#DejaVuSans-31"/>
      <use x="353.955078" xlink:href="#DejaVuSans-30"/>
      <use x="417.578125" xlink:href="#DejaVuSans-30"/>
     </g>
    </g>
   </g>
   <g id="text_6">
    <g clip-path="url(#p8b5c9c075c)">
     <!-- x &gt;= 0 -->
     <g transform="translate(188.393628 1050.455675)scale(0.12 -0.12)">
      <defs>
       <path d="M 678 3150 
L 678 3719 
L 4684 2266 
L 4684 1747 
L 678 294 
L 678 863 
L 3897 2003 
L 678 3150 
z
" id="DejaVuSans-3e" transform="scale(0.015625)"/>
      </defs>
      <use xlink:href="#DejaVuSans-78"/>
      <use x="59.179688" xlink:href="#DejaVuSans-20"/>
      <use x="90.966797" xlink:href="#DejaVuSans-3e"/>
      <use x="174.755859" xlink:href="#DejaVuSans-3d"/>
      <use x="258.544922" xlink:href="#DejaVuSans-20"/>
      <use x="290.332031" xlink:href="#DejaVuSans-30"/>
     </g>
    </g>
   </g>
  </g>
 </g>
 <defs>
  <clipPath id="p8b5c9c075c">
   <rect height="345.6" width="460.8" x="0" y="0"/>
  </clipPath>
 </defs>
</svg>
