<?xml version="1.0" encoding="utf-8" standalone="no"?>
<!DOCTYPE svg PUBLIC "-//W3C//DTD SVG 1.1//EN"
  "http://www.w3.org/Graphics/SVG/1.1/DTD/svg11.dtd">
<svg xmlns:xlink="http://www.w3.org/1999/xlink" width="460.8pt" height="345.6pt" viewBox="0 0 460.8 345.6" xmlns="http://www.w3.org/2000/svg" version="1.1">
 <metadata>
  <rdf:RDF xmlns:dc="http://purl.org/dc/elements/1.1/" xmlns:cc="http://creativecommons.org/ns#" xmlns:rdf="http://www.w3.org/1999/02/22-rdf-syntax-ns#">
   <cc:Work>
    <dc:type rdf:resource="http://purl.org/dc/dcmitype/StillImage"/>
    <dc:date>2022-12-30T18:51:18.341835</dc:date>
    <dc:format>image/svg+xml</dc:format>
    <dc:creator>
     <cc:Agent>
      <dc:title>Matplotlib v3.5.1, https://matplotlib.org/</dc:title>
     </cc:Agent>
    </dc:creator>
   </cc:Work>
  </rdf:RDF>
 </metadata>
 <defs>
  <style type="text/css">*{stroke-linejoin: round; stroke-linecap: butt}</style>
 </defs>
 <g id="figure_1">
  <g id="patch_1">
   <path d="M 0 345.6 
L 460.8 345.6 
L 460.8 0 
L 0 0 
z
" style="fill: #ffffff"/>
  </g>
  <g id="axes_1">
   <g id="LineCollection_1">
    <path d="M 420.813223 29.990083 
L 361.858266 73.987187 
" clip-path="url(#p45bcb1c702)" style="fill: none; stroke: #000000; stroke-opacity: 0.9"/>
    <path d="M 361.858266 73.987187 
L 287.033232 127.334671 
" clip-path="url(#p45bcb1c702)" style="fill: none; stroke: #000000; stroke-opacity: 0.9"/>
    <path d="M 287.033232 127.334671 
L 198.335327 184.599151 
" clip-path="url(#p45bcb1c702)" style="fill: none; stroke: #000000; stroke-opacity: 0.9"/>
    <path d="M 198.335327 184.599151 
L 101.219806 197.879122 
" clip-path="url(#p45bcb1c702)" style="fill: none; stroke: #000000; stroke-opacity: 0.9"/>
    <path d="M 198.335327 184.599151 
L 114.342754 151.371116 
" clip-path="url(#p45bcb1c702)" style="fill: none; stroke: #000000; stroke-opacity: 0.9"/>
    <path d="M 198.335327 184.599151 
L 237.109693 257.445411 
" clip-path="url(#p45bcb1c702)" style="fill: none; stroke: #000000; stroke-opacity: 0.9"/>
    <path d="M 101.219806 197.879122 
L 39.986777 165.298034 
" clip-path="url(#p45bcb1c702)" style="fill: none; stroke: #000000; stroke-opacity: 0.9"/>
    <path d="M 39.986777 165.298034 
L 114.342754 151.371116 
" clip-path="url(#p45bcb1c702)" style="fill: none; stroke: #000000; stroke-opacity: 0.9"/>
    <path d="M 237.109693 257.445411 
L 264.9906 315.609917 
" clip-path="url(#p45bcb1c702)" style="fill: none; stroke: #000000; stroke-opacity: 0.9"/>
   </g>
   <g id="text_1">
    <g id="patch_2">
     <path d="M 386.653007 63.308384 
L 403.52005 50.72079 
Q 405.443476 49.285369 404.008055 47.361943 
L 399.377328 41.156891 
Q 397.941907 39.233465 396.018481 40.668886 
L 379.151439 53.25648 
Q 377.228013 54.6919 378.663433 56.615326 
L 383.294161 62.820378 
Q 384.729581 64.743804 386.653007 63.308384 
z
" clip-path="url(#p45bcb1c702)" style="fill: #ffffff; stroke: #ffffff; stroke-linejoin: miter"/>
    </g>
    <g clip-path="url(#p45bcb1c702)">
     <!-- s = 0 -->
     <g style="fill: #ff0000" transform="translate(384.222511 60.051583)rotate(-36.733368)scale(0.08 -0.08)">
      <defs>
       <path id="DejaVuSans-73" d="M 2834 3397 
L 2834 2853 
Q 2591 2978 2328 3040 
Q 2066 3103 1784 3103 
Q 1356 3103 1142 2972 
Q 928 2841 928 2578 
Q 928 2378 1081 2264 
Q 1234 2150 1697 2047 
L 1894 2003 
Q 2506 1872 2764 1633 
Q 3022 1394 3022 966 
Q 3022 478 2636 193 
Q 2250 -91 1575 -91 
Q 1294 -91 989 -36 
Q 684 19 347 128 
L 347 722 
Q 666 556 975 473 
Q 1284 391 1588 391 
Q 1994 391 2212 530 
Q 2431 669 2431 922 
Q 2431 1156 2273 1281 
Q 2116 1406 1581 1522 
L 1381 1569 
Q 847 1681 609 1914 
Q 372 2147 372 2553 
Q 372 3047 722 3315 
Q 1072 3584 1716 3584 
Q 2034 3584 2315 3537 
Q 2597 3491 2834 3397 
z
" transform="scale(0.015625)"/>
       <path id="DejaVuSans-20" transform="scale(0.015625)"/>
       <path id="DejaVuSans-3d" d="M 678 2906 
L 4684 2906 
L 4684 2381 
L 678 2381 
L 678 2906 
z
M 678 1631 
L 4684 1631 
L 4684 1100 
L 678 1100 
L 678 1631 
z
" transform="scale(0.015625)"/>
       <path id="DejaVuSans-30" d="M 2034 4250 
Q 1547 4250 1301 3770 
Q 1056 3291 1056 2328 
Q 1056 1369 1301 889 
Q 1547 409 2034 409 
Q 2525 409 2770 889 
Q 3016 1369 3016 2328 
Q 3016 3291 2770 3770 
Q 2525 4250 2034 4250 
z
M 2034 4750 
Q 2819 4750 3233 4129 
Q 3647 3509 3647 2328 
Q 3647 1150 3233 529 
Q 2819 -91 2034 -91 
Q 1250 -91 836 529 
Q 422 1150 422 2328 
Q 422 3509 836 4129 
Q 1250 4750 2034 4750 
z
" transform="scale(0.015625)"/>
      </defs>
      <use xlink:href="#DejaVuSans-73"/>
      <use xlink:href="#DejaVuSans-20" x="52.099609"/>
      <use xlink:href="#DejaVuSans-3d" x="83.886719"/>
      <use xlink:href="#DejaVuSans-20" x="167.675781"/>
      <use xlink:href="#DejaVuSans-30" x="199.462891"/>
     </g>
    </g>
   </g>
   <g id="text_2">
    <g id="patch_3">
     <path d="M 319.150562 112.138145 
L 337.022168 99.39635 
Q 338.97635 98.003091 337.583091 96.048909 
L 333.088377 89.744636 
Q 331.695117 87.790454 329.740935 89.183713 
L 311.869329 101.925508 
Q 309.915147 103.318768 311.308407 105.27295 
L 315.80312 111.577223 
Q 317.19638 113.531405 319.150562 112.138145 
z
" clip-path="url(#p45bcb1c702)" style="fill: #ffffff; stroke: #ffffff; stroke-linejoin: miter"/>
    </g>
    <g clip-path="url(#p45bcb1c702)">
     <!-- n = 0 -->
     <g style="fill: #ff0000" transform="translate(316.791454 108.829267)rotate(-35.487466)scale(0.08 -0.08)">
      <defs>
       <path id="DejaVuSans-6e" d="M 3513 2113 
L 3513 0 
L 2938 0 
L 2938 2094 
Q 2938 2591 2744 2837 
Q 2550 3084 2163 3084 
Q 1697 3084 1428 2787 
Q 1159 2491 1159 1978 
L 1159 0 
L 581 0 
L 581 3500 
L 1159 3500 
L 1159 2956 
Q 1366 3272 1645 3428 
Q 1925 3584 2291 3584 
Q 2894 3584 3203 3211 
Q 3513 2838 3513 2113 
z
" transform="scale(0.015625)"/>
      </defs>
      <use xlink:href="#DejaVuSans-6e"/>
      <use xlink:href="#DejaVuSans-20" x="63.378906"/>
      <use xlink:href="#DejaVuSans-3d" x="95.166016"/>
      <use xlink:href="#DejaVuSans-20" x="178.955078"/>
      <use xlink:href="#DejaVuSans-30" x="210.742188"/>
     </g>
    </g>
   </g>
   <g id="text_3">
    <g id="patch_4">
     <path d="M 135.989685 199.454159 
L 165.264746 195.450968 
Q 167.642618 195.125808 167.317458 192.747937 
L 166.268479 185.076826 
Q 165.943319 182.698954 163.565448 183.024114 
L 134.290387 187.027305 
Q 131.912515 187.352465 132.237675 189.730336 
L 133.286654 197.401447 
Q 133.611814 199.779318 135.989685 199.454159 
z
" clip-path="url(#p45bcb1c702)" style="fill: #ffffff; stroke: #ffffff; stroke-linejoin: miter"/>
    </g>
    <g clip-path="url(#p45bcb1c702)">
     <!-- n &lt;= N -->
     <g style="fill: #ff0000" transform="translate(135.439115 195.427878)rotate(-7.786564)scale(0.08 -0.08)">
      <defs>
       <path id="DejaVuSans-3c" d="M 4684 3150 
L 1459 2003 
L 4684 863 
L 4684 294 
L 678 1747 
L 678 2266 
L 4684 3719 
L 4684 3150 
z
" transform="scale(0.015625)"/>
       <path id="DejaVuSans-4e" d="M 628 4666 
L 1478 4666 
L 3547 763 
L 3547 4666 
L 4159 4666 
L 4159 0 
L 3309 0 
L 1241 3903 
L 1241 0 
L 628 0 
L 628 4666 
z
" transform="scale(0.015625)"/>
      </defs>
      <use xlink:href="#DejaVuSans-6e"/>
      <use xlink:href="#DejaVuSans-20" x="63.378906"/>
      <use xlink:href="#DejaVuSans-3c" x="95.166016"/>
      <use xlink:href="#DejaVuSans-3d" x="178.955078"/>
      <use xlink:href="#DejaVuSans-20" x="262.744141"/>
      <use xlink:href="#DejaVuSans-4e" x="294.53125"/>
     </g>
    </g>
   </g>
   <g id="text_4">
    <g id="patch_5">
     <path d="M 50.815683 178.163649 
L 84.499323 196.08616 
Q 86.618069 197.213509 87.745419 195.094764 
L 91.382296 188.259602 
Q 92.509645 186.140857 90.3909 185.013507 
L 56.707259 167.090996 
Q 54.588514 165.963646 53.461164 168.082392 
L 49.824287 174.917553 
Q 48.696938 177.036299 50.815683 178.163649 
z
" clip-path="url(#p45bcb1c702)" style="fill: #ffffff; stroke: #ffffff; stroke-linejoin: miter"/>
    </g>
    <g clip-path="url(#p45bcb1c702)">
     <!-- s = (s + ( -->
     <g style="fill: #ff0000" transform="translate(52.724544 174.576127)rotate(-331.983291)scale(0.08 -0.08)">
      <defs>
       <path id="DejaVuSans-28" d="M 1984 4856 
Q 1566 4138 1362 3434 
Q 1159 2731 1159 2009 
Q 1159 1288 1364 580 
Q 1569 -128 1984 -844 
L 1484 -844 
Q 1016 -109 783 600 
Q 550 1309 550 2009 
Q 550 2706 781 3412 
Q 1013 4119 1484 4856 
L 1984 4856 
z
" transform="scale(0.015625)"/>
       <path id="DejaVuSans-2b" d="M 2944 4013 
L 2944 2272 
L 4684 2272 
L 4684 1741 
L 2944 1741 
L 2944 0 
L 2419 0 
L 2419 1741 
L 678 1741 
L 678 2272 
L 2419 2272 
L 2419 4013 
L 2944 4013 
z
" transform="scale(0.015625)"/>
      </defs>
      <use xlink:href="#DejaVuSans-73"/>
      <use xlink:href="#DejaVuSans-20" x="52.099609"/>
      <use xlink:href="#DejaVuSans-3d" x="83.886719"/>
      <use xlink:href="#DejaVuSans-20" x="167.675781"/>
      <use xlink:href="#DejaVuSans-28" x="199.462891"/>
      <use xlink:href="#DejaVuSans-73" x="238.476562"/>
      <use xlink:href="#DejaVuSans-20" x="290.576172"/>
      <use xlink:href="#DejaVuSans-2b" x="322.363281"/>
      <use xlink:href="#DejaVuSans-20" x="406.152344"/>
      <use xlink:href="#DejaVuSans-28" x="437.939453"/>
     </g>
    </g>
   </g>
   <g id="text_5">
    <g id="patch_6">
     <path d="M 57.713252 168.358159 
L 98.925342 160.63911 
Q 101.284321 160.197272 100.842483 157.838294 
L 99.417095 150.228131 
Q 98.975257 147.869153 96.616278 148.310991 
L 55.404188 156.030039 
Q 53.04521 156.471877 53.487048 158.830856 
L 54.912436 166.441019 
Q 55.354274 168.799997 57.713252 168.358159 
z
" clip-path="url(#p45bcb1c702)" style="fill: #ffffff; stroke: #ffffff; stroke-linejoin: miter"/>
    </g>
    <g clip-path="url(#p45bcb1c702)">
     <!-- n = (n + 1 -->
     <g style="fill: #ff0000" transform="translate(56.965119 164.363868)rotate(-10.608618)scale(0.08 -0.08)">
      <defs>
       <path id="DejaVuSans-31" d="M 794 531 
L 1825 531 
L 1825 4091 
L 703 3866 
L 703 4441 
L 1819 4666 
L 2450 4666 
L 2450 531 
L 3481 531 
L 3481 0 
L 794 0 
L 794 531 
z
" transform="scale(0.015625)"/>
      </defs>
      <use xlink:href="#DejaVuSans-6e"/>
      <use xlink:href="#DejaVuSans-20" x="63.378906"/>
      <use xlink:href="#DejaVuSans-3d" x="95.166016"/>
      <use xlink:href="#DejaVuSans-20" x="178.955078"/>
      <use xlink:href="#DejaVuSans-28" x="210.742188"/>
      <use xlink:href="#DejaVuSans-6e" x="249.755859"/>
      <use xlink:href="#DejaVuSans-20" x="313.134766"/>
      <use xlink:href="#DejaVuSans-2b" x="344.921875"/>
      <use xlink:href="#DejaVuSans-20" x="428.710938"/>
      <use xlink:href="#DejaVuSans-31" x="460.498047"/>
     </g>
    </g>
   </g>
   <g id="text_6">
    <g id="patch_7">
     <path d="M 201.218876 203.363546 
L 223.154379 244.57426 
Q 224.282047 246.692835 226.400623 245.565167 
L 233.235237 241.927261 
Q 235.353813 240.799593 234.226144 238.681017 
L 212.290642 197.470303 
Q 211.162973 195.351727 209.044397 196.479395 
L 202.209783 200.117301 
Q 200.091208 201.24497 201.218876 203.363546 
z
" clip-path="url(#p45bcb1c702)" style="fill: #ffffff; stroke: #ffffff; stroke-linejoin: miter"/>
    </g>
    <g clip-path="url(#p45bcb1c702)">
     <!-- Not(n &lt;= N -->
     <g style="fill: #ff0000" transform="translate(204.806111 201.454144)rotate(-298.025332)scale(0.08 -0.08)">
      <defs>
       <path id="DejaVuSans-6f" d="M 1959 3097 
Q 1497 3097 1228 2736 
Q 959 2375 959 1747 
Q 959 1119 1226 758 
Q 1494 397 1959 397 
Q 2419 397 2687 759 
Q 2956 1122 2956 1747 
Q 2956 2369 2687 2733 
Q 2419 3097 1959 3097 
z
M 1959 3584 
Q 2709 3584 3137 3096 
Q 3566 2609 3566 1747 
Q 3566 888 3137 398 
Q 2709 -91 1959 -91 
Q 1206 -91 779 398 
Q 353 888 353 1747 
Q 353 2609 779 3096 
Q 1206 3584 1959 3584 
z
" transform="scale(0.015625)"/>
       <path id="DejaVuSans-74" d="M 1172 4494 
L 1172 3500 
L 2356 3500 
L 2356 3053 
L 1172 3053 
L 1172 1153 
Q 1172 725 1289 603 
Q 1406 481 1766 481 
L 2356 481 
L 2356 0 
L 1766 0 
Q 1100 0 847 248 
Q 594 497 594 1153 
L 594 3053 
L 172 3053 
L 172 3500 
L 594 3500 
L 594 4494 
L 1172 4494 
z
" transform="scale(0.015625)"/>
      </defs>
      <use xlink:href="#DejaVuSans-4e"/>
      <use xlink:href="#DejaVuSans-6f" x="74.804688"/>
      <use xlink:href="#DejaVuSans-74" x="135.986328"/>
      <use xlink:href="#DejaVuSans-28" x="175.195312"/>
      <use xlink:href="#DejaVuSans-6e" x="214.208984"/>
      <use xlink:href="#DejaVuSans-20" x="277.587891"/>
      <use xlink:href="#DejaVuSans-3c" x="309.375"/>
      <use xlink:href="#DejaVuSans-3d" x="393.164062"/>
      <use xlink:href="#DejaVuSans-20" x="476.953125"/>
      <use xlink:href="#DejaVuSans-4e" x="508.740234"/>
     </g>
    </g>
   </g>
   <g id="PathCollection_1">
    <defs>
     <path id="m9030e9baeb" d="M 0 11.18034 
C 2.965061 11.18034 5.80908 10.002309 7.905694 7.905694 
C 10.002309 5.80908 11.18034 2.965061 11.18034 0 
C 11.18034 -2.965061 10.002309 -5.80908 7.905694 -7.905694 
C 5.80908 -10.002309 2.965061 -11.18034 0 -11.18034 
C -2.965061 -11.18034 -5.80908 -10.002309 -7.905694 -7.905694 
C -10.002309 -5.80908 -11.18034 -2.965061 -11.18034 0 
C -11.18034 2.965061 -10.002309 5.80908 -7.905694 7.905694 
C -5.80908 10.002309 -2.965061 11.18034 0 11.18034 
z
" style="stroke: #ffc0cb; stroke-opacity: 0.9; stroke-width: 2"/>
    </defs>
    <g clip-path="url(#p45bcb1c702)">
     <use xlink:href="#m9030e9baeb" x="420.813223" y="29.990083" style="fill: #ffc0cb; fill-opacity: 0.9; stroke: #ffc0cb; stroke-opacity: 0.9; stroke-width: 2"/>
     <use xlink:href="#m9030e9baeb" x="361.858266" y="73.987187" style="fill: #ffc0cb; fill-opacity: 0.9; stroke: #ffc0cb; stroke-opacity: 0.9; stroke-width: 2"/>
     <use xlink:href="#m9030e9baeb" x="287.033232" y="127.334671" style="fill: #ffc0cb; fill-opacity: 0.9; stroke: #ffc0cb; stroke-opacity: 0.9; stroke-width: 2"/>
     <use xlink:href="#m9030e9baeb" x="198.335327" y="184.599151" style="fill: #ffc0cb; fill-opacity: 0.9; stroke: #ffc0cb; stroke-opacity: 0.9; stroke-width: 2"/>
     <use xlink:href="#m9030e9baeb" x="101.219806" y="197.879122" style="fill: #ffc0cb; fill-opacity: 0.9; stroke: #ffc0cb; stroke-opacity: 0.9; stroke-width: 2"/>
     <use xlink:href="#m9030e9baeb" x="39.986777" y="165.298034" style="fill: #ffc0cb; fill-opacity: 0.9; stroke: #ffc0cb; stroke-opacity: 0.9; stroke-width: 2"/>
     <use xlink:href="#m9030e9baeb" x="114.342754" y="151.371116" style="fill: #ffc0cb; fill-opacity: 0.9; stroke: #ffc0cb; stroke-opacity: 0.9; stroke-width: 2"/>
     <use xlink:href="#m9030e9baeb" x="237.109693" y="257.445411" style="fill: #ffc0cb; fill-opacity: 0.9; stroke: #ffc0cb; stroke-opacity: 0.9; stroke-width: 2"/>
     <use xlink:href="#m9030e9baeb" x="264.9906" y="315.609917" style="fill: #ffc0cb; fill-opacity: 0.9; stroke: #ffc0cb; stroke-opacity: 0.9; stroke-width: 2"/>
    </g>
   </g>
   <g id="text_7">
    <g clip-path="url(#p45bcb1c702)">
     <!-- 0 -->
     <g style="opacity: 0.9" transform="translate(416.995723 33.301333)scale(0.12 -0.12)">
      <use xlink:href="#DejaVuSans-30"/>
     </g>
    </g>
   </g>
   <g id="text_8">
    <g clip-path="url(#p45bcb1c702)">
     <!-- 1 -->
     <g style="opacity: 0.9" transform="translate(358.040766 77.298437)scale(0.12 -0.12)">
      <use xlink:href="#DejaVuSans-31"/>
     </g>
    </g>
   </g>
   <g id="text_9">
    <g clip-path="url(#p45bcb1c702)">
     <!-- 2 -->
     <g style="opacity: 0.9" transform="translate(283.215732 130.645921)scale(0.12 -0.12)">
      <defs>
       <path id="DejaVuSans-32" d="M 1228 531 
L 3431 531 
L 3431 0 
L 469 0 
L 469 531 
Q 828 903 1448 1529 
Q 2069 2156 2228 2338 
Q 2531 2678 2651 2914 
Q 2772 3150 2772 3378 
Q 2772 3750 2511 3984 
Q 2250 4219 1831 4219 
Q 1534 4219 1204 4116 
Q 875 4013 500 3803 
L 500 4441 
Q 881 4594 1212 4672 
Q 1544 4750 1819 4750 
Q 2544 4750 2975 4387 
Q 3406 4025 3406 3419 
Q 3406 3131 3298 2873 
Q 3191 2616 2906 2266 
Q 2828 2175 2409 1742 
Q 1991 1309 1228 531 
z
" transform="scale(0.015625)"/>
      </defs>
      <use xlink:href="#DejaVuSans-32"/>
     </g>
    </g>
   </g>
   <g id="text_10">
    <g clip-path="url(#p45bcb1c702)">
     <!-- 3 -->
     <g style="opacity: 0.9" transform="translate(194.517827 187.910401)scale(0.12 -0.12)">
      <defs>
       <path id="DejaVuSans-33" d="M 2597 2516 
Q 3050 2419 3304 2112 
Q 3559 1806 3559 1356 
Q 3559 666 3084 287 
Q 2609 -91 1734 -91 
Q 1441 -91 1130 -33 
Q 819 25 488 141 
L 488 750 
Q 750 597 1062 519 
Q 1375 441 1716 441 
Q 2309 441 2620 675 
Q 2931 909 2931 1356 
Q 2931 1769 2642 2001 
Q 2353 2234 1838 2234 
L 1294 2234 
L 1294 2753 
L 1863 2753 
Q 2328 2753 2575 2939 
Q 2822 3125 2822 3475 
Q 2822 3834 2567 4026 
Q 2313 4219 1838 4219 
Q 1578 4219 1281 4162 
Q 984 4106 628 3988 
L 628 4550 
Q 988 4650 1302 4700 
Q 1616 4750 1894 4750 
Q 2613 4750 3031 4423 
Q 3450 4097 3450 3541 
Q 3450 3153 3228 2886 
Q 3006 2619 2597 2516 
z
" transform="scale(0.015625)"/>
      </defs>
      <use xlink:href="#DejaVuSans-33"/>
     </g>
    </g>
   </g>
   <g id="text_11">
    <g clip-path="url(#p45bcb1c702)">
     <!-- 4 -->
     <g style="opacity: 0.9" transform="translate(97.402306 201.190372)scale(0.12 -0.12)">
      <defs>
       <path id="DejaVuSans-34" d="M 2419 4116 
L 825 1625 
L 2419 1625 
L 2419 4116 
z
M 2253 4666 
L 3047 4666 
L 3047 1625 
L 3713 1625 
L 3713 1100 
L 3047 1100 
L 3047 0 
L 2419 0 
L 2419 1100 
L 313 1100 
L 313 1709 
L 2253 4666 
z
" transform="scale(0.015625)"/>
      </defs>
      <use xlink:href="#DejaVuSans-34"/>
     </g>
    </g>
   </g>
   <g id="text_12">
    <g clip-path="url(#p45bcb1c702)">
     <!-- 5 -->
     <g style="opacity: 0.9" transform="translate(36.169277 168.609284)scale(0.12 -0.12)">
      <defs>
       <path id="DejaVuSans-35" d="M 691 4666 
L 3169 4666 
L 3169 4134 
L 1269 4134 
L 1269 2991 
Q 1406 3038 1543 3061 
Q 1681 3084 1819 3084 
Q 2600 3084 3056 2656 
Q 3513 2228 3513 1497 
Q 3513 744 3044 326 
Q 2575 -91 1722 -91 
Q 1428 -91 1123 -41 
Q 819 9 494 109 
L 494 744 
Q 775 591 1075 516 
Q 1375 441 1709 441 
Q 2250 441 2565 725 
Q 2881 1009 2881 1497 
Q 2881 1984 2565 2268 
Q 2250 2553 1709 2553 
Q 1456 2553 1204 2497 
Q 953 2441 691 2322 
L 691 4666 
z
" transform="scale(0.015625)"/>
      </defs>
      <use xlink:href="#DejaVuSans-35"/>
     </g>
    </g>
   </g>
   <g id="text_13">
    <g clip-path="url(#p45bcb1c702)">
     <!-- 6 -->
     <g style="opacity: 0.9" transform="translate(110.525254 154.682366)scale(0.12 -0.12)">
      <defs>
       <path id="DejaVuSans-36" d="M 2113 2584 
Q 1688 2584 1439 2293 
Q 1191 2003 1191 1497 
Q 1191 994 1439 701 
Q 1688 409 2113 409 
Q 2538 409 2786 701 
Q 3034 994 3034 1497 
Q 3034 2003 2786 2293 
Q 2538 2584 2113 2584 
z
M 3366 4563 
L 3366 3988 
Q 3128 4100 2886 4159 
Q 2644 4219 2406 4219 
Q 1781 4219 1451 3797 
Q 1122 3375 1075 2522 
Q 1259 2794 1537 2939 
Q 1816 3084 2150 3084 
Q 2853 3084 3261 2657 
Q 3669 2231 3669 1497 
Q 3669 778 3244 343 
Q 2819 -91 2113 -91 
Q 1303 -91 875 529 
Q 447 1150 447 2328 
Q 447 3434 972 4092 
Q 1497 4750 2381 4750 
Q 2619 4750 2861 4703 
Q 3103 4656 3366 4563 
z
" transform="scale(0.015625)"/>
      </defs>
      <use xlink:href="#DejaVuSans-36"/>
     </g>
    </g>
   </g>
   <g id="text_14">
    <g clip-path="url(#p45bcb1c702)">
     <!-- 7 -->
     <g style="opacity: 0.9" transform="translate(233.292193 260.756661)scale(0.12 -0.12)">
      <defs>
       <path id="DejaVuSans-37" d="M 525 4666 
L 3525 4666 
L 3525 4397 
L 1831 0 
L 1172 0 
L 2766 4134 
L 525 4134 
L 525 4666 
z
" transform="scale(0.015625)"/>
      </defs>
      <use xlink:href="#DejaVuSans-37"/>
     </g>
    </g>
   </g>
   <g id="text_15">
    <g clip-path="url(#p45bcb1c702)">
     <!-- 8 -->
     <g style="opacity: 0.9" transform="translate(261.1731 318.921167)scale(0.12 -0.12)">
      <defs>
       <path id="DejaVuSans-38" d="M 2034 2216 
Q 1584 2216 1326 1975 
Q 1069 1734 1069 1313 
Q 1069 891 1326 650 
Q 1584 409 2034 409 
Q 2484 409 2743 651 
Q 3003 894 3003 1313 
Q 3003 1734 2745 1975 
Q 2488 2216 2034 2216 
z
M 1403 2484 
Q 997 2584 770 2862 
Q 544 3141 544 3541 
Q 544 4100 942 4425 
Q 1341 4750 2034 4750 
Q 2731 4750 3128 4425 
Q 3525 4100 3525 3541 
Q 3525 3141 3298 2862 
Q 3072 2584 2669 2484 
Q 3125 2378 3379 2068 
Q 3634 1759 3634 1313 
Q 3634 634 3220 271 
Q 2806 -91 2034 -91 
Q 1263 -91 848 271 
Q 434 634 434 1313 
Q 434 1759 690 2068 
Q 947 2378 1403 2484 
z
M 1172 3481 
Q 1172 3119 1398 2916 
Q 1625 2713 2034 2713 
Q 2441 2713 2670 2916 
Q 2900 3119 2900 3481 
Q 2900 3844 2670 4047 
Q 2441 4250 2034 4250 
Q 1625 4250 1398 4047 
Q 1172 3844 1172 3481 
z
" transform="scale(0.015625)"/>
      </defs>
      <use xlink:href="#DejaVuSans-38"/>
     </g>
    </g>
   </g>
   <g id="text_16">
    <g clip-path="url(#p45bcb1c702)">
     <!-- N &gt;= 0 -->
     <g transform="translate(3.795533 119.383746)scale(0.08 -0.08)">
      <defs>
       <path id="DejaVuSans-3e" d="M 678 3150 
L 678 3719 
L 4684 2266 
L 4684 1747 
L 678 294 
L 678 863 
L 3897 2003 
L 678 3150 
z
" transform="scale(0.015625)"/>
      </defs>
      <use xlink:href="#DejaVuSans-4e"/>
      <use xlink:href="#DejaVuSans-20" x="74.804688"/>
      <use xlink:href="#DejaVuSans-3e" x="106.591797"/>
      <use xlink:href="#DejaVuSans-3d" x="190.380859"/>
      <use xlink:href="#DejaVuSans-20" x="274.169922"/>
      <use xlink:href="#DejaVuSans-30" x="305.957031"/>
     </g>
    </g>
   </g>
   <g id="text_17">
    <g clip-path="url(#p45bcb1c702)">
     <!-- (s == (((0.25 * n) * n) * ((n + 1) * (n + 1))) and n &lt;= (N + 1)) -->
     <g transform="translate(253.437385 177.750153)scale(0.08 -0.08)">
      <defs>
       <path id="DejaVuSans-2e" d="M 684 794 
L 1344 794 
L 1344 0 
L 684 0 
L 684 794 
z
" transform="scale(0.015625)"/>
       <path id="DejaVuSans-2a" d="M 3009 3897 
L 1888 3291 
L 3009 2681 
L 2828 2375 
L 1778 3009 
L 1778 1831 
L 1422 1831 
L 1422 3009 
L 372 2375 
L 191 2681 
L 1313 3291 
L 191 3897 
L 372 4206 
L 1422 3572 
L 1422 4750 
L 1778 4750 
L 1778 3572 
L 2828 4206 
L 3009 3897 
z
" transform="scale(0.015625)"/>
       <path id="DejaVuSans-29" d="M 513 4856 
L 1013 4856 
Q 1481 4119 1714 3412 
Q 1947 2706 1947 2009 
Q 1947 1309 1714 600 
Q 1481 -109 1013 -844 
L 513 -844 
Q 928 -128 1133 580 
Q 1338 1288 1338 2009 
Q 1338 2731 1133 3434 
Q 928 4138 513 4856 
z
" transform="scale(0.015625)"/>
       <path id="DejaVuSans-61" d="M 2194 1759 
Q 1497 1759 1228 1600 
Q 959 1441 959 1056 
Q 959 750 1161 570 
Q 1363 391 1709 391 
Q 2188 391 2477 730 
Q 2766 1069 2766 1631 
L 2766 1759 
L 2194 1759 
z
M 3341 1997 
L 3341 0 
L 2766 0 
L 2766 531 
Q 2569 213 2275 61 
Q 1981 -91 1556 -91 
Q 1019 -91 701 211 
Q 384 513 384 1019 
Q 384 1609 779 1909 
Q 1175 2209 1959 2209 
L 2766 2209 
L 2766 2266 
Q 2766 2663 2505 2880 
Q 2244 3097 1772 3097 
Q 1472 3097 1187 3025 
Q 903 2953 641 2809 
L 641 3341 
Q 956 3463 1253 3523 
Q 1550 3584 1831 3584 
Q 2591 3584 2966 3190 
Q 3341 2797 3341 1997 
z
" transform="scale(0.015625)"/>
       <path id="DejaVuSans-64" d="M 2906 2969 
L 2906 4863 
L 3481 4863 
L 3481 0 
L 2906 0 
L 2906 525 
Q 2725 213 2448 61 
Q 2172 -91 1784 -91 
Q 1150 -91 751 415 
Q 353 922 353 1747 
Q 353 2572 751 3078 
Q 1150 3584 1784 3584 
Q 2172 3584 2448 3432 
Q 2725 3281 2906 2969 
z
M 947 1747 
Q 947 1113 1208 752 
Q 1469 391 1925 391 
Q 2381 391 2643 752 
Q 2906 1113 2906 1747 
Q 2906 2381 2643 2742 
Q 2381 3103 1925 3103 
Q 1469 3103 1208 2742 
Q 947 2381 947 1747 
z
" transform="scale(0.015625)"/>
      </defs>
      <use xlink:href="#DejaVuSans-28"/>
      <use xlink:href="#DejaVuSans-73" x="39.013672"/>
      <use xlink:href="#DejaVuSans-20" x="91.113281"/>
      <use xlink:href="#DejaVuSans-3d" x="122.900391"/>
      <use xlink:href="#DejaVuSans-3d" x="206.689453"/>
      <use xlink:href="#DejaVuSans-20" x="290.478516"/>
      <use xlink:href="#DejaVuSans-28" x="322.265625"/>
      <use xlink:href="#DejaVuSans-28" x="361.279297"/>
      <use xlink:href="#DejaVuSans-28" x="400.292969"/>
      <use xlink:href="#DejaVuSans-30" x="439.306641"/>
      <use xlink:href="#DejaVuSans-2e" x="502.929688"/>
      <use xlink:href="#DejaVuSans-32" x="534.716797"/>
      <use xlink:href="#DejaVuSans-35" x="598.339844"/>
      <use xlink:href="#DejaVuSans-20" x="661.962891"/>
      <use xlink:href="#DejaVuSans-2a" x="693.75"/>
      <use xlink:href="#DejaVuSans-20" x="743.75"/>
      <use xlink:href="#DejaVuSans-6e" x="775.537109"/>
      <use xlink:href="#DejaVuSans-29" x="838.916016"/>
      <use xlink:href="#DejaVuSans-20" x="877.929688"/>
      <use xlink:href="#DejaVuSans-2a" x="909.716797"/>
      <use xlink:href="#DejaVuSans-20" x="959.716797"/>
      <use xlink:href="#DejaVuSans-6e" x="991.503906"/>
      <use xlink:href="#DejaVuSans-29" x="1054.882812"/>
      <use xlink:href="#DejaVuSans-20" x="1093.896484"/>
      <use xlink:href="#DejaVuSans-2a" x="1125.683594"/>
      <use xlink:href="#DejaVuSans-20" x="1175.683594"/>
      <use xlink:href="#DejaVuSans-28" x="1207.470703"/>
      <use xlink:href="#DejaVuSans-28" x="1246.484375"/>
      <use xlink:href="#DejaVuSans-6e" x="1285.498047"/>
      <use xlink:href="#DejaVuSans-20" x="1348.876953"/>
      <use xlink:href="#DejaVuSans-2b" x="1380.664062"/>
      <use xlink:href="#DejaVuSans-20" x="1464.453125"/>
      <use xlink:href="#DejaVuSans-31" x="1496.240234"/>
      <use xlink:href="#DejaVuSans-29" x="1559.863281"/>
      <use xlink:href="#DejaVuSans-20" x="1598.876953"/>
      <use xlink:href="#DejaVuSans-2a" x="1630.664062"/>
      <use xlink:href="#DejaVuSans-20" x="1680.664062"/>
      <use xlink:href="#DejaVuSans-28" x="1712.451172"/>
      <use xlink:href="#DejaVuSans-6e" x="1751.464844"/>
      <use xlink:href="#DejaVuSans-20" x="1814.84375"/>
      <use xlink:href="#DejaVuSans-2b" x="1846.630859"/>
      <use xlink:href="#DejaVuSans-20" x="1930.419922"/>
      <use xlink:href="#DejaVuSans-31" x="1962.207031"/>
      <use xlink:href="#DejaVuSans-29" x="2025.830078"/>
      <use xlink:href="#DejaVuSans-29" x="2064.84375"/>
      <use xlink:href="#DejaVuSans-29" x="2103.857422"/>
      <use xlink:href="#DejaVuSans-20" x="2142.871094"/>
      <use xlink:href="#DejaVuSans-61" x="2174.658203"/>
      <use xlink:href="#DejaVuSans-6e" x="2235.9375"/>
      <use xlink:href="#DejaVuSans-64" x="2299.316406"/>
      <use xlink:href="#DejaVuSans-20" x="2362.792969"/>
      <use xlink:href="#DejaVuSans-6e" x="2394.580078"/>
      <use xlink:href="#DejaVuSans-20" x="2457.958984"/>
      <use xlink:href="#DejaVuSans-3c" x="2489.746094"/>
      <use xlink:href="#DejaVuSans-3d" x="2573.535156"/>
      <use xlink:href="#DejaVuSans-20" x="2657.324219"/>
      <use xlink:href="#DejaVuSans-28" x="2689.111328"/>
      <use xlink:href="#DejaVuSans-4e" x="2728.125"/>
      <use xlink:href="#DejaVuSans-20" x="2802.929688"/>
      <use xlink:href="#DejaVuSans-2b" x="2834.716797"/>
      <use xlink:href="#DejaVuSans-20" x="2918.505859"/>
      <use xlink:href="#DejaVuSans-31" x="2950.292969"/>
      <use xlink:href="#DejaVuSans-29" x="3013.916016"/>
      <use xlink:href="#DejaVuSans-29" x="3052.929688"/>
     </g>
    </g>
   </g>
   <g id="text_18">
    <g clip-path="url(#p45bcb1c702)">
     <!-- 1 &gt;= 0 -->
     <g transform="translate(367.692195 93.257699)scale(0.08 -0.08)">
      <use xlink:href="#DejaVuSans-31"/>
      <use xlink:href="#DejaVuSans-20" x="63.623047"/>
      <use xlink:href="#DejaVuSans-3e" x="95.410156"/>
      <use xlink:href="#DejaVuSans-3d" x="179.199219"/>
      <use xlink:href="#DejaVuSans-20" x="262.988281"/>
      <use xlink:href="#DejaVuSans-30" x="294.775391"/>
     </g>
    </g>
   </g>
  </g>
 </g>
 <defs>
  <clipPath id="p45bcb1c702">
   <rect x="0" y="0" width="460.8" height="345.6"/>
  </clipPath>
 </defs>
</svg>
