<?xml version="1.0" encoding="utf-8" standalone="no"?>
<!DOCTYPE svg PUBLIC "-//W3C//DTD SVG 1.1//EN"
  "http://www.w3.org/Graphics/SVG/1.1/DTD/svg11.dtd">
<svg xmlns:xlink="http://www.w3.org/1999/xlink" width="460.8pt" height="345.6pt" viewBox="0 0 460.8 345.6" xmlns="http://www.w3.org/2000/svg" version="1.1">
 <metadata>
  <rdf:RDF xmlns:dc="http://purl.org/dc/elements/1.1/" xmlns:cc="http://creativecommons.org/ns#" xmlns:rdf="http://www.w3.org/1999/02/22-rdf-syntax-ns#">
   <cc:Work>
    <dc:type rdf:resource="http://purl.org/dc/dcmitype/StillImage"/>
    <dc:date>2022-12-30T18:24:39.187056</dc:date>
    <dc:format>image/svg+xml</dc:format>
    <dc:creator>
     <cc:Agent>
      <dc:title>Matplotlib v3.5.1, https://matplotlib.org/</dc:title>
     </cc:Agent>
    </dc:creator>
   </cc:Work>
  </rdf:RDF>
 </metadata>
 <defs>
  <style type="text/css">*{stroke-linejoin: round; stroke-linecap: butt}</style>
 </defs>
 <g id="figure_1">
  <g id="patch_1">
   <path d="M 0 345.6 
L 460.8 345.6 
L 460.8 0 
L 0 0 
z
" style="fill: #ffffff"/>
  </g>
  <g id="axes_1">
   <g id="LineCollection_1">
    <path d="M 297.994529 29.990083 
L 386.308315 48.993978 
" clip-path="url(#p2a5e605795)" style="fill: none; stroke: #000000; stroke-opacity: 0.9"/>
    <path d="M 386.308315 48.993978 
L 420.813223 96.749636 
" clip-path="url(#p2a5e605795)" style="fill: none; stroke: #000000; stroke-opacity: 0.9"/>
    <path d="M 420.813223 96.749636 
L 397.17659 153.953324 
" clip-path="url(#p2a5e605795)" style="fill: none; stroke: #000000; stroke-opacity: 0.9"/>
    <path d="M 397.17659 153.953324 
L 319.385218 209.184841 
" clip-path="url(#p2a5e605795)" style="fill: none; stroke: #000000; stroke-opacity: 0.9"/>
    <path d="M 319.385218 209.184841 
L 190.244628 197.799936 
" clip-path="url(#p2a5e605795)" style="fill: none; stroke: #000000; stroke-opacity: 0.9"/>
    <path d="M 319.385218 209.184841 
L 318.313838 186.282219 
" clip-path="url(#p2a5e605795)" style="fill: none; stroke: #000000; stroke-opacity: 0.9"/>
    <path d="M 319.385218 209.184841 
L 335.444966 270.168638 
" clip-path="url(#p2a5e605795)" style="fill: none; stroke: #000000; stroke-opacity: 0.9"/>
    <path d="M 190.244628 197.799936 
L 76.604537 185.112435 
" clip-path="url(#p2a5e605795)" style="fill: none; stroke: #000000; stroke-opacity: 0.9"/>
    <path d="M 76.604537 185.112435 
L 39.986777 138.659918 
" clip-path="url(#p2a5e605795)" style="fill: none; stroke: #000000; stroke-opacity: 0.9"/>
    <path d="M 76.604537 185.112435 
L 73.729618 226.445761 
" clip-path="url(#p2a5e605795)" style="fill: none; stroke: #000000; stroke-opacity: 0.9"/>
    <path d="M 39.986777 138.659918 
L 98.843728 104.883311 
" clip-path="url(#p2a5e605795)" style="fill: none; stroke: #000000; stroke-opacity: 0.9"/>
    <path d="M 98.843728 104.883311 
L 203.850693 108.656906 
" clip-path="url(#p2a5e605795)" style="fill: none; stroke: #000000; stroke-opacity: 0.9"/>
    <path d="M 203.850693 108.656906 
L 301.810037 138.128369 
" clip-path="url(#p2a5e605795)" style="fill: none; stroke: #000000; stroke-opacity: 0.9"/>
    <path d="M 301.810037 138.128369 
L 318.313838 186.282219 
" clip-path="url(#p2a5e605795)" style="fill: none; stroke: #000000; stroke-opacity: 0.9"/>
    <path d="M 73.729618 226.445761 
L 167.850238 238.756306 
" clip-path="url(#p2a5e605795)" style="fill: none; stroke: #000000; stroke-opacity: 0.9"/>
    <path d="M 167.850238 238.756306 
L 263.677769 229.07148 
" clip-path="url(#p2a5e605795)" style="fill: none; stroke: #000000; stroke-opacity: 0.9"/>
    <path d="M 263.677769 229.07148 
L 318.313838 186.282219 
" clip-path="url(#p2a5e605795)" style="fill: none; stroke: #000000; stroke-opacity: 0.9"/>
    <path d="M 335.444966 270.168638 
L 344.209766 315.609917 
" clip-path="url(#p2a5e605795)" style="fill: none; stroke: #000000; stroke-opacity: 0.9"/>
   </g>
   <g id="text_1">
    <g id="patch_2">
     <path d="M 330.276876 43.351596 
L 351.387395 47.894285 
Q 353.733687 48.399174 354.238577 46.052882 
L 355.867371 38.483646 
Q 356.37226 36.137354 354.025968 35.632465 
L 332.915449 31.089775 
Q 330.569157 30.584886 330.064267 32.931178 
L 328.435473 40.500414 
Q 327.930584 42.846706 330.276876 43.351596 
z
" clip-path="url(#p2a5e605795)" style="fill: #ffffff; stroke: #ffffff; stroke-linejoin: miter"/>
    </g>
    <g clip-path="url(#p2a5e605795)">
     <!-- y = n -->
     <g style="fill: #ff0000" transform="translate(331.131769 39.378786)rotate(-347.855931)scale(0.08 -0.08)">
      <defs>
       <path id="DejaVuSans-79" d="M 2059 -325 
Q 1816 -950 1584 -1140 
Q 1353 -1331 966 -1331 
L 506 -1331 
L 506 -850 
L 844 -850 
Q 1081 -850 1212 -737 
Q 1344 -625 1503 -206 
L 1606 56 
L 191 3500 
L 800 3500 
L 1894 763 
L 2988 3500 
L 3597 3500 
L 2059 -325 
z
" transform="scale(0.015625)"/>
       <path id="DejaVuSans-20" transform="scale(0.015625)"/>
       <path id="DejaVuSans-3d" d="M 678 2906 
L 4684 2906 
L 4684 2381 
L 678 2381 
L 678 2906 
z
M 678 1631 
L 4684 1631 
L 4684 1100 
L 678 1100 
L 678 1631 
z
" transform="scale(0.015625)"/>
       <path id="DejaVuSans-6e" d="M 3513 2113 
L 3513 0 
L 2938 0 
L 2938 2094 
Q 2938 2591 2744 2837 
Q 2550 3084 2163 3084 
Q 1697 3084 1428 2787 
Q 1159 2491 1159 1978 
L 1159 0 
L 581 0 
L 581 3500 
L 1159 3500 
L 1159 2956 
Q 1366 3272 1645 3428 
Q 1925 3584 2291 3584 
Q 2894 3584 3203 3211 
Q 3513 2838 3513 2113 
z
" transform="scale(0.015625)"/>
      </defs>
      <use xlink:href="#DejaVuSans-79"/>
      <use xlink:href="#DejaVuSans-20" x="59.179688"/>
      <use xlink:href="#DejaVuSans-3d" x="90.966797"/>
      <use xlink:href="#DejaVuSans-20" x="174.755859"/>
      <use xlink:href="#DejaVuSans-6e" x="206.542969"/>
     </g>
    </g>
   </g>
   <g id="text_2">
    <g id="patch_3">
     <path d="M 392.148444 67.784965 
L 404.806637 85.304222 
Q 406.212208 87.249567 408.157553 85.843996 
L 414.43332 81.309565 
Q 416.378665 79.903994 414.973094 77.958649 
L 402.314901 60.439392 
Q 400.90933 58.494047 398.963985 59.899618 
L 392.688218 64.434049 
Q 390.742873 65.83962 392.148444 67.784965 
z
" clip-path="url(#p2a5e605795)" style="fill: #ffffff; stroke: #ffffff; stroke-linejoin: miter"/>
    </g>
    <g clip-path="url(#p2a5e605795)">
     <!-- x = 0 -->
     <g style="fill: #ff0000" transform="translate(395.44236 65.405011)rotate(-305.84925)scale(0.08 -0.08)">
      <defs>
       <path id="DejaVuSans-78" d="M 3513 3500 
L 2247 1797 
L 3578 0 
L 2900 0 
L 1881 1375 
L 863 0 
L 184 0 
L 1544 1831 
L 300 3500 
L 978 3500 
L 1906 2253 
L 2834 3500 
L 3513 3500 
z
" transform="scale(0.015625)"/>
       <path id="DejaVuSans-30" d="M 2034 4250 
Q 1547 4250 1301 3770 
Q 1056 3291 1056 2328 
Q 1056 1369 1301 889 
Q 1547 409 2034 409 
Q 2525 409 2770 889 
Q 3016 1369 3016 2328 
Q 3016 3291 2770 3770 
Q 2525 4250 2034 4250 
z
M 2034 4750 
Q 2819 4750 3233 4129 
Q 3647 3509 3647 2328 
Q 3647 1150 3233 529 
Q 2819 -91 2034 -91 
Q 1250 -91 836 529 
Q 422 1150 422 2328 
Q 422 3509 836 4129 
Q 1250 4750 2034 4750 
z
" transform="scale(0.015625)"/>
      </defs>
      <use xlink:href="#DejaVuSans-78"/>
      <use xlink:href="#DejaVuSans-20" x="59.179688"/>
      <use xlink:href="#DejaVuSans-3d" x="90.966797"/>
      <use xlink:href="#DejaVuSans-20" x="174.755859"/>
      <use xlink:href="#DejaVuSans-30" x="206.542969"/>
     </g>
    </g>
   </g>
   <g id="text_3">
    <g id="patch_4">
     <path d="M 410.969148 136.995406 
L 418.612569 118.497343 
Q 419.529093 116.279239 417.310989 115.362716 
L 410.155293 112.405974 
Q 407.937189 111.48945 407.020666 113.707554 
L 399.377244 132.205617 
Q 398.460721 134.423721 400.678825 135.340244 
L 407.83452 138.296986 
Q 410.052624 139.21351 410.969148 136.995406 
z
" clip-path="url(#p2a5e605795)" style="fill: #ffffff; stroke: #ffffff; stroke-linejoin: miter"/>
    </g>
    <g clip-path="url(#p2a5e605795)">
     <!-- t = 0 -->
     <g style="fill: #ff0000" transform="translate(407.213389 135.443522)rotate(-67.549527)scale(0.08 -0.08)">
      <defs>
       <path id="DejaVuSans-74" d="M 1172 4494 
L 1172 3500 
L 2356 3500 
L 2356 3053 
L 1172 3053 
L 1172 1153 
Q 1172 725 1289 603 
Q 1406 481 1766 481 
L 2356 481 
L 2356 0 
L 1766 0 
Q 1100 0 847 248 
Q 594 497 594 1153 
L 594 3053 
L 172 3053 
L 172 3500 
L 594 3500 
L 594 4494 
L 1172 4494 
z
" transform="scale(0.015625)"/>
      </defs>
      <use xlink:href="#DejaVuSans-74"/>
      <use xlink:href="#DejaVuSans-20" x="39.208984"/>
      <use xlink:href="#DejaVuSans-3d" x="70.996094"/>
      <use xlink:href="#DejaVuSans-20" x="154.785156"/>
      <use xlink:href="#DejaVuSans-30" x="186.572266"/>
     </g>
    </g>
   </g>
   <g id="text_4">
    <g id="patch_5">
     <path d="M 237.943118 208.30056 
L 270.585266 211.178259 
Q 272.975993 211.389023 273.186758 208.998296 
L 273.866692 201.285709 
Q 274.077456 198.894981 271.686728 198.684217 
L 239.04458 195.806518 
Q 236.653852 195.595754 236.443088 197.986481 
L 235.763154 205.699068 
Q 235.55239 208.089796 237.943118 208.30056 
z
" clip-path="url(#p2a5e605795)" style="fill: #ffffff; stroke: #ffffff; stroke-linejoin: miter"/>
    </g>
    <g clip-path="url(#p2a5e605795)">
     <!-- (y * (y -  -->
     <g style="fill: #ff0000" transform="translate(238.29999 204.25251)rotate(-354.961887)scale(0.08 -0.08)">
      <defs>
       <path id="DejaVuSans-28" d="M 1984 4856 
Q 1566 4138 1362 3434 
Q 1159 2731 1159 2009 
Q 1159 1288 1364 580 
Q 1569 -128 1984 -844 
L 1484 -844 
Q 1016 -109 783 600 
Q 550 1309 550 2009 
Q 550 2706 781 3412 
Q 1013 4119 1484 4856 
L 1984 4856 
z
" transform="scale(0.015625)"/>
       <path id="DejaVuSans-2a" d="M 3009 3897 
L 1888 3291 
L 3009 2681 
L 2828 2375 
L 1778 3009 
L 1778 1831 
L 1422 1831 
L 1422 3009 
L 372 2375 
L 191 2681 
L 1313 3291 
L 191 3897 
L 372 4206 
L 1422 3572 
L 1422 4750 
L 1778 4750 
L 1778 3572 
L 2828 4206 
L 3009 3897 
z
" transform="scale(0.015625)"/>
       <path id="DejaVuSans-2d" d="M 313 2009 
L 1997 2009 
L 1997 1497 
L 313 1497 
L 313 2009 
z
" transform="scale(0.015625)"/>
      </defs>
      <use xlink:href="#DejaVuSans-28"/>
      <use xlink:href="#DejaVuSans-79" x="39.013672"/>
      <use xlink:href="#DejaVuSans-20" x="98.193359"/>
      <use xlink:href="#DejaVuSans-2a" x="129.980469"/>
      <use xlink:href="#DejaVuSans-20" x="179.980469"/>
      <use xlink:href="#DejaVuSans-28" x="211.767578"/>
      <use xlink:href="#DejaVuSans-79" x="250.78125"/>
      <use xlink:href="#DejaVuSans-20" x="309.960938"/>
      <use xlink:href="#DejaVuSans-2d" x="341.748047"/>
      <use xlink:href="#DejaVuSans-20" x="377.832031"/>
     </g>
    </g>
   </g>
   <g id="text_5">
    <g id="patch_6">
     <path d="M 45.21013 155.416294 
L 61.531093 176.120724 
Q 63.016858 178.005533 64.901667 176.519769 
L 70.982139 171.726632 
Q 72.866948 170.240868 71.381184 168.356059 
L 55.06022 147.651629 
Q 53.574456 145.76682 51.689647 147.252584 
L 45.609174 152.045721 
Q 43.724365 153.531485 45.21013 155.416294 
z
" clip-path="url(#p2a5e605795)" style="fill: #ffffff; stroke: #ffffff; stroke-linejoin: miter"/>
    </g>
    <g clip-path="url(#p2a5e605795)">
     <!-- t == x -->
     <g style="fill: #ff0000" transform="translate(48.401543 152.900555)rotate(-308.248134)scale(0.08 -0.08)">
      <use xlink:href="#DejaVuSans-74"/>
      <use xlink:href="#DejaVuSans-20" x="39.208984"/>
      <use xlink:href="#DejaVuSans-3d" x="70.996094"/>
      <use xlink:href="#DejaVuSans-3d" x="154.785156"/>
      <use xlink:href="#DejaVuSans-20" x="238.574219"/>
      <use xlink:href="#DejaVuSans-78" x="270.361328"/>
     </g>
    </g>
   </g>
   <g id="text_6">
    <g id="patch_7">
     <path d="M 54.533223 137.665828 
L 90.646558 116.941243 
Q 92.728144 115.74667 91.533571 113.665085 
L 87.57344 106.764413 
Q 86.378867 104.682828 84.297282 105.8774 
L 48.183947 126.601986 
Q 46.102362 127.796558 47.296934 129.878143 
L 51.257066 136.778815 
Q 52.451638 138.8604 54.533223 137.665828 
z
" clip-path="url(#p2a5e605795)" style="fill: #ffffff; stroke: #ffffff; stroke-linejoin: miter"/>
    </g>
    <g clip-path="url(#p2a5e605795)">
     <!-- y = (_a_0_ -->
     <g style="fill: #ff0000" transform="translate(52.399792 133.948247)rotate(-29.850491)scale(0.08 -0.08)">
      <defs>
       <path id="DejaVuSans-5f" d="M 3263 -1063 
L 3263 -1509 
L -63 -1509 
L -63 -1063 
L 3263 -1063 
z
" transform="scale(0.015625)"/>
       <path id="DejaVuSans-61" d="M 2194 1759 
Q 1497 1759 1228 1600 
Q 959 1441 959 1056 
Q 959 750 1161 570 
Q 1363 391 1709 391 
Q 2188 391 2477 730 
Q 2766 1069 2766 1631 
L 2766 1759 
L 2194 1759 
z
M 3341 1997 
L 3341 0 
L 2766 0 
L 2766 531 
Q 2569 213 2275 61 
Q 1981 -91 1556 -91 
Q 1019 -91 701 211 
Q 384 513 384 1019 
Q 384 1609 779 1909 
Q 1175 2209 1959 2209 
L 2766 2209 
L 2766 2266 
Q 2766 2663 2505 2880 
Q 2244 3097 1772 3097 
Q 1472 3097 1187 3025 
Q 903 2953 641 2809 
L 641 3341 
Q 956 3463 1253 3523 
Q 1550 3584 1831 3584 
Q 2591 3584 2966 3190 
Q 3341 2797 3341 1997 
z
" transform="scale(0.015625)"/>
      </defs>
      <use xlink:href="#DejaVuSans-79"/>
      <use xlink:href="#DejaVuSans-20" x="59.179688"/>
      <use xlink:href="#DejaVuSans-3d" x="90.966797"/>
      <use xlink:href="#DejaVuSans-20" x="174.755859"/>
      <use xlink:href="#DejaVuSans-28" x="206.542969"/>
      <use xlink:href="#DejaVuSans-5f" x="245.556641"/>
      <use xlink:href="#DejaVuSans-61" x="295.556641"/>
      <use xlink:href="#DejaVuSans-5f" x="356.835938"/>
      <use xlink:href="#DejaVuSans-30" x="406.835938"/>
      <use xlink:href="#DejaVuSans-5f" x="470.458984"/>
     </g>
    </g>
   </g>
   <g id="text_7">
    <g id="patch_8">
     <path d="M 141.120944 112.677909 
L 161.123033 113.396716 
Q 163.521484 113.482909 163.607677 111.084457 
L 163.885737 103.346951 
Q 163.971929 100.9485 161.573477 100.862307 
L 141.571389 100.1435 
Q 139.172937 100.057308 139.086745 102.45576 
L 138.808685 110.193265 
Q 138.722493 112.591717 141.120944 112.677909 
z
" clip-path="url(#p2a5e605795)" style="fill: #ffffff; stroke: #ffffff; stroke-linejoin: miter"/>
    </g>
    <g clip-path="url(#p2a5e605795)">
     <!-- t = 0 -->
     <g style="fill: #ff0000" transform="translate(141.266888 108.61678)rotate(-357.941869)scale(0.08 -0.08)">
      <use xlink:href="#DejaVuSans-74"/>
      <use xlink:href="#DejaVuSans-20" x="39.208984"/>
      <use xlink:href="#DejaVuSans-3d" x="70.996094"/>
      <use xlink:href="#DejaVuSans-20" x="154.785156"/>
      <use xlink:href="#DejaVuSans-30" x="186.572266"/>
     </g>
    </g>
   </g>
   <g id="text_8">
    <g id="patch_9">
     <path d="M 231.268921 123.454708 
L 270.778338 135.341275 
Q 273.07658 136.032711 273.768015 133.734469 
L 275.998615 126.320244 
Q 276.69005 124.022002 274.391808 123.330566 
L 234.882392 111.443999 
Q 232.58415 110.752564 231.892714 113.050806 
L 229.662115 120.465031 
Q 228.970679 122.763273 231.268921 123.454708 
z
" clip-path="url(#p2a5e605795)" style="fill: #ffffff; stroke: #ffffff; stroke-linejoin: miter"/>
    </g>
    <g clip-path="url(#p2a5e605795)">
     <!-- x = (x + 1 -->
     <g style="fill: #ff0000" transform="translate(232.43968 119.563258)rotate(-343.255874)scale(0.08 -0.08)">
      <defs>
       <path id="DejaVuSans-2b" d="M 2944 4013 
L 2944 2272 
L 4684 2272 
L 4684 1741 
L 2944 1741 
L 2944 0 
L 2419 0 
L 2419 1741 
L 678 1741 
L 678 2272 
L 2419 2272 
L 2419 4013 
L 2944 4013 
z
" transform="scale(0.015625)"/>
       <path id="DejaVuSans-31" d="M 794 531 
L 1825 531 
L 1825 4091 
L 703 3866 
L 703 4441 
L 1819 4666 
L 2450 4666 
L 2450 531 
L 3481 531 
L 3481 0 
L 794 0 
L 794 531 
z
" transform="scale(0.015625)"/>
      </defs>
      <use xlink:href="#DejaVuSans-78"/>
      <use xlink:href="#DejaVuSans-20" x="59.179688"/>
      <use xlink:href="#DejaVuSans-3d" x="90.966797"/>
      <use xlink:href="#DejaVuSans-20" x="174.755859"/>
      <use xlink:href="#DejaVuSans-28" x="206.542969"/>
      <use xlink:href="#DejaVuSans-78" x="245.556641"/>
      <use xlink:href="#DejaVuSans-20" x="304.736328"/>
      <use xlink:href="#DejaVuSans-2b" x="336.523438"/>
      <use xlink:href="#DejaVuSans-20" x="420.3125"/>
      <use xlink:href="#DejaVuSans-31" x="452.099609"/>
     </g>
    </g>
   </g>
   <g id="text_9">
    <g id="patch_10">
     <path d="M 79.99007 226.818835 
L 82.856355 185.609646 
Q 83.022883 183.21543 80.628668 183.048902 
L 72.904828 182.511674 
Q 70.510613 182.345146 70.344084 184.739361 
L 67.477799 225.94855 
Q 67.311271 228.342766 69.705487 228.509294 
L 77.429326 229.046522 
Q 79.823541 229.21305 79.99007 226.818835 
z
" clip-path="url(#p2a5e605795)" style="fill: #ffffff; stroke: #ffffff; stroke-linejoin: miter"/>
    </g>
    <g clip-path="url(#p2a5e605795)">
     <!-- Not (t ==  -->
     <g style="fill: #ff0000" transform="translate(75.936114 226.536864)rotate(-86.021228)scale(0.08 -0.08)">
      <defs>
       <path id="DejaVuSans-4e" d="M 628 4666 
L 1478 4666 
L 3547 763 
L 3547 4666 
L 4159 4666 
L 4159 0 
L 3309 0 
L 1241 3903 
L 1241 0 
L 628 0 
L 628 4666 
z
" transform="scale(0.015625)"/>
       <path id="DejaVuSans-6f" d="M 1959 3097 
Q 1497 3097 1228 2736 
Q 959 2375 959 1747 
Q 959 1119 1226 758 
Q 1494 397 1959 397 
Q 2419 397 2687 759 
Q 2956 1122 2956 1747 
Q 2956 2369 2687 2733 
Q 2419 3097 1959 3097 
z
M 1959 3584 
Q 2709 3584 3137 3096 
Q 3566 2609 3566 1747 
Q 3566 888 3137 398 
Q 2709 -91 1959 -91 
Q 1206 -91 779 398 
Q 353 888 353 1747 
Q 353 2609 779 3096 
Q 1206 3584 1959 3584 
z
" transform="scale(0.015625)"/>
      </defs>
      <use xlink:href="#DejaVuSans-4e"/>
      <use xlink:href="#DejaVuSans-6f" x="74.804688"/>
      <use xlink:href="#DejaVuSans-74" x="135.986328"/>
      <use xlink:href="#DejaVuSans-20" x="175.195312"/>
      <use xlink:href="#DejaVuSans-28" x="206.982422"/>
      <use xlink:href="#DejaVuSans-74" x="245.996094"/>
      <use xlink:href="#DejaVuSans-20" x="285.205078"/>
      <use xlink:href="#DejaVuSans-3d" x="316.992188"/>
      <use xlink:href="#DejaVuSans-3d" x="400.78125"/>
      <use xlink:href="#DejaVuSans-20" x="484.570312"/>
     </g>
    </g>
   </g>
   <g id="text_10">
    <g id="patch_11">
     <path d="M 101.414085 236.391427 
L 138.539124 241.247212 
Q 140.918855 241.55847 141.230113 239.178739 
L 142.234244 231.501628 
Q 142.545502 229.121897 140.165771 228.81064 
L 103.040731 223.954855 
Q 100.661001 223.643597 100.349743 226.023328 
L 99.345612 233.700438 
Q 99.034354 236.080169 101.414085 236.391427 
z
" clip-path="url(#p2a5e605795)" style="fill: #ffffff; stroke: #ffffff; stroke-linejoin: miter"/>
    </g>
    <g clip-path="url(#p2a5e605795)">
     <!-- y = (y - 2 -->
     <g style="fill: #ff0000" transform="translate(101.941116 232.361997)rotate(-352.548276)scale(0.08 -0.08)">
      <defs>
       <path id="DejaVuSans-32" d="M 1228 531 
L 3431 531 
L 3431 0 
L 469 0 
L 469 531 
Q 828 903 1448 1529 
Q 2069 2156 2228 2338 
Q 2531 2678 2651 2914 
Q 2772 3150 2772 3378 
Q 2772 3750 2511 3984 
Q 2250 4219 1831 4219 
Q 1534 4219 1204 4116 
Q 875 4013 500 3803 
L 500 4441 
Q 881 4594 1212 4672 
Q 1544 4750 1819 4750 
Q 2544 4750 2975 4387 
Q 3406 4025 3406 3419 
Q 3406 3131 3298 2873 
Q 3191 2616 2906 2266 
Q 2828 2175 2409 1742 
Q 1991 1309 1228 531 
z
" transform="scale(0.015625)"/>
      </defs>
      <use xlink:href="#DejaVuSans-79"/>
      <use xlink:href="#DejaVuSans-20" x="59.179688"/>
      <use xlink:href="#DejaVuSans-3d" x="90.966797"/>
      <use xlink:href="#DejaVuSans-20" x="174.755859"/>
      <use xlink:href="#DejaVuSans-28" x="206.542969"/>
      <use xlink:href="#DejaVuSans-79" x="245.556641"/>
      <use xlink:href="#DejaVuSans-20" x="304.736328"/>
      <use xlink:href="#DejaVuSans-2d" x="336.523438"/>
      <use xlink:href="#DejaVuSans-20" x="372.607422"/>
      <use xlink:href="#DejaVuSans-32" x="404.394531"/>
     </g>
    </g>
   </g>
   <g id="text_11">
    <g id="patch_12">
     <path d="M 197.460424 242.066944 
L 235.328768 238.239773 
Q 237.716605 237.998446 237.475278 235.61061 
L 236.696746 227.907351 
Q 236.455419 225.519515 234.067583 225.760842 
L 196.199239 229.588013 
Q 193.811403 229.82934 194.05273 232.217176 
L 194.831261 239.920435 
Q 195.072588 242.308271 197.460424 242.066944 
z
" clip-path="url(#p2a5e605795)" style="fill: #ffffff; stroke: #ffffff; stroke-linejoin: miter"/>
    </g>
    <g clip-path="url(#p2a5e605795)">
     <!-- t = (t + 1 -->
     <g style="fill: #ff0000" transform="translate(197.051802 238.02379)rotate(-5.771012)scale(0.08 -0.08)">
      <use xlink:href="#DejaVuSans-74"/>
      <use xlink:href="#DejaVuSans-20" x="39.208984"/>
      <use xlink:href="#DejaVuSans-3d" x="70.996094"/>
      <use xlink:href="#DejaVuSans-20" x="154.785156"/>
      <use xlink:href="#DejaVuSans-28" x="186.572266"/>
      <use xlink:href="#DejaVuSans-74" x="225.585938"/>
      <use xlink:href="#DejaVuSans-20" x="264.794922"/>
      <use xlink:href="#DejaVuSans-2b" x="296.582031"/>
      <use xlink:href="#DejaVuSans-20" x="380.371094"/>
      <use xlink:href="#DejaVuSans-31" x="412.158203"/>
     </g>
    </g>
   </g>
   <g id="text_12">
    <g id="patch_13">
     <path d="M 316.61389 223.287029 
L 326.087319 259.260549 
Q 326.698508 261.581421 329.01938 260.970232 
L 336.506611 258.998511 
Q 338.827483 258.387322 338.216294 256.06645 
L 328.742865 220.09293 
Q 328.131676 217.772058 325.810804 218.383247 
L 318.323573 220.354968 
Q 316.002701 220.966157 316.61389 223.287029 
z
" clip-path="url(#p2a5e605795)" style="fill: #ffffff; stroke: #ffffff; stroke-linejoin: miter"/>
    </g>
    <g clip-path="url(#p2a5e605795)">
     <!-- Not((y * ( -->
     <g style="fill: #ff0000" transform="translate(320.543659 222.252146)rotate(-284.753562)scale(0.08 -0.08)">
      <use xlink:href="#DejaVuSans-4e"/>
      <use xlink:href="#DejaVuSans-6f" x="74.804688"/>
      <use xlink:href="#DejaVuSans-74" x="135.986328"/>
      <use xlink:href="#DejaVuSans-28" x="175.195312"/>
      <use xlink:href="#DejaVuSans-28" x="214.208984"/>
      <use xlink:href="#DejaVuSans-79" x="253.222656"/>
      <use xlink:href="#DejaVuSans-20" x="312.402344"/>
      <use xlink:href="#DejaVuSans-2a" x="344.189453"/>
      <use xlink:href="#DejaVuSans-20" x="394.189453"/>
      <use xlink:href="#DejaVuSans-28" x="425.976562"/>
     </g>
    </g>
   </g>
   <g id="PathCollection_1">
    <defs>
     <path id="mcbaf716e8e" d="M 0 11.18034 
C 2.965061 11.18034 5.80908 10.002309 7.905694 7.905694 
C 10.002309 5.80908 11.18034 2.965061 11.18034 0 
C 11.18034 -2.965061 10.002309 -5.80908 7.905694 -7.905694 
C 5.80908 -10.002309 2.965061 -11.18034 0 -11.18034 
C -2.965061 -11.18034 -5.80908 -10.002309 -7.905694 -7.905694 
C -10.002309 -5.80908 -11.18034 -2.965061 -11.18034 0 
C -11.18034 2.965061 -10.002309 5.80908 -7.905694 7.905694 
C -5.80908 10.002309 -2.965061 11.18034 0 11.18034 
z
" style="stroke: #ffc0cb; stroke-opacity: 0.9; stroke-width: 2"/>
    </defs>
    <g clip-path="url(#p2a5e605795)">
     <use xlink:href="#mcbaf716e8e" x="297.994529" y="29.990083" style="fill: #ffc0cb; fill-opacity: 0.9; stroke: #ffc0cb; stroke-opacity: 0.9; stroke-width: 2"/>
     <use xlink:href="#mcbaf716e8e" x="386.308315" y="48.993978" style="fill: #ffc0cb; fill-opacity: 0.9; stroke: #ffc0cb; stroke-opacity: 0.9; stroke-width: 2"/>
     <use xlink:href="#mcbaf716e8e" x="420.813223" y="96.749636" style="fill: #ffc0cb; fill-opacity: 0.9; stroke: #ffc0cb; stroke-opacity: 0.9; stroke-width: 2"/>
     <use xlink:href="#mcbaf716e8e" x="397.17659" y="153.953324" style="fill: #ffc0cb; fill-opacity: 0.9; stroke: #ffc0cb; stroke-opacity: 0.9; stroke-width: 2"/>
     <use xlink:href="#mcbaf716e8e" x="319.385218" y="209.184841" style="fill: #ffc0cb; fill-opacity: 0.9; stroke: #ffc0cb; stroke-opacity: 0.9; stroke-width: 2"/>
     <use xlink:href="#mcbaf716e8e" x="190.244628" y="197.799936" style="fill: #ffc0cb; fill-opacity: 0.9; stroke: #ffc0cb; stroke-opacity: 0.9; stroke-width: 2"/>
     <use xlink:href="#mcbaf716e8e" x="76.604537" y="185.112435" style="fill: #ffc0cb; fill-opacity: 0.9; stroke: #ffc0cb; stroke-opacity: 0.9; stroke-width: 2"/>
     <use xlink:href="#mcbaf716e8e" x="39.986777" y="138.659918" style="fill: #ffc0cb; fill-opacity: 0.9; stroke: #ffc0cb; stroke-opacity: 0.9; stroke-width: 2"/>
     <use xlink:href="#mcbaf716e8e" x="98.843728" y="104.883311" style="fill: #ffc0cb; fill-opacity: 0.9; stroke: #ffc0cb; stroke-opacity: 0.9; stroke-width: 2"/>
     <use xlink:href="#mcbaf716e8e" x="203.850693" y="108.656906" style="fill: #ffc0cb; fill-opacity: 0.9; stroke: #ffc0cb; stroke-opacity: 0.9; stroke-width: 2"/>
     <use xlink:href="#mcbaf716e8e" x="301.810037" y="138.128369" style="fill: #ffc0cb; fill-opacity: 0.9; stroke: #ffc0cb; stroke-opacity: 0.9; stroke-width: 2"/>
     <use xlink:href="#mcbaf716e8e" x="73.729618" y="226.445761" style="fill: #ffc0cb; fill-opacity: 0.9; stroke: #ffc0cb; stroke-opacity: 0.9; stroke-width: 2"/>
     <use xlink:href="#mcbaf716e8e" x="167.850238" y="238.756306" style="fill: #ffc0cb; fill-opacity: 0.9; stroke: #ffc0cb; stroke-opacity: 0.9; stroke-width: 2"/>
     <use xlink:href="#mcbaf716e8e" x="263.677769" y="229.07148" style="fill: #ffc0cb; fill-opacity: 0.9; stroke: #ffc0cb; stroke-opacity: 0.9; stroke-width: 2"/>
     <use xlink:href="#mcbaf716e8e" x="318.313838" y="186.282219" style="fill: #ffc0cb; fill-opacity: 0.9; stroke: #ffc0cb; stroke-opacity: 0.9; stroke-width: 2"/>
     <use xlink:href="#mcbaf716e8e" x="335.444966" y="270.168638" style="fill: #ffc0cb; fill-opacity: 0.9; stroke: #ffc0cb; stroke-opacity: 0.9; stroke-width: 2"/>
     <use xlink:href="#mcbaf716e8e" x="344.209766" y="315.609917" style="fill: #ffc0cb; fill-opacity: 0.9; stroke: #ffc0cb; stroke-opacity: 0.9; stroke-width: 2"/>
    </g>
   </g>
   <g id="text_13">
    <g clip-path="url(#p2a5e605795)">
     <!-- 0 -->
     <g style="opacity: 0.9" transform="translate(294.177029 33.301333)scale(0.12 -0.12)">
      <use xlink:href="#DejaVuSans-30"/>
     </g>
    </g>
   </g>
   <g id="text_14">
    <g clip-path="url(#p2a5e605795)">
     <!-- 1 -->
     <g style="opacity: 0.9" transform="translate(382.490815 52.305228)scale(0.12 -0.12)">
      <use xlink:href="#DejaVuSans-31"/>
     </g>
    </g>
   </g>
   <g id="text_15">
    <g clip-path="url(#p2a5e605795)">
     <!-- 2 -->
     <g style="opacity: 0.9" transform="translate(416.995723 100.060886)scale(0.12 -0.12)">
      <use xlink:href="#DejaVuSans-32"/>
     </g>
    </g>
   </g>
   <g id="text_16">
    <g clip-path="url(#p2a5e605795)">
     <!-- 3 -->
     <g style="opacity: 0.9" transform="translate(393.35909 157.264574)scale(0.12 -0.12)">
      <defs>
       <path id="DejaVuSans-33" d="M 2597 2516 
Q 3050 2419 3304 2112 
Q 3559 1806 3559 1356 
Q 3559 666 3084 287 
Q 2609 -91 1734 -91 
Q 1441 -91 1130 -33 
Q 819 25 488 141 
L 488 750 
Q 750 597 1062 519 
Q 1375 441 1716 441 
Q 2309 441 2620 675 
Q 2931 909 2931 1356 
Q 2931 1769 2642 2001 
Q 2353 2234 1838 2234 
L 1294 2234 
L 1294 2753 
L 1863 2753 
Q 2328 2753 2575 2939 
Q 2822 3125 2822 3475 
Q 2822 3834 2567 4026 
Q 2313 4219 1838 4219 
Q 1578 4219 1281 4162 
Q 984 4106 628 3988 
L 628 4550 
Q 988 4650 1302 4700 
Q 1616 4750 1894 4750 
Q 2613 4750 3031 4423 
Q 3450 4097 3450 3541 
Q 3450 3153 3228 2886 
Q 3006 2619 2597 2516 
z
" transform="scale(0.015625)"/>
      </defs>
      <use xlink:href="#DejaVuSans-33"/>
     </g>
    </g>
   </g>
   <g id="text_17">
    <g clip-path="url(#p2a5e605795)">
     <!-- 4 -->
     <g style="opacity: 0.9" transform="translate(315.567718 212.496091)scale(0.12 -0.12)">
      <defs>
       <path id="DejaVuSans-34" d="M 2419 4116 
L 825 1625 
L 2419 1625 
L 2419 4116 
z
M 2253 4666 
L 3047 4666 
L 3047 1625 
L 3713 1625 
L 3713 1100 
L 3047 1100 
L 3047 0 
L 2419 0 
L 2419 1100 
L 313 1100 
L 313 1709 
L 2253 4666 
z
" transform="scale(0.015625)"/>
      </defs>
      <use xlink:href="#DejaVuSans-34"/>
     </g>
    </g>
   </g>
   <g id="text_18">
    <g clip-path="url(#p2a5e605795)">
     <!-- 5 -->
     <g style="opacity: 0.9" transform="translate(186.427128 201.111186)scale(0.12 -0.12)">
      <defs>
       <path id="DejaVuSans-35" d="M 691 4666 
L 3169 4666 
L 3169 4134 
L 1269 4134 
L 1269 2991 
Q 1406 3038 1543 3061 
Q 1681 3084 1819 3084 
Q 2600 3084 3056 2656 
Q 3513 2228 3513 1497 
Q 3513 744 3044 326 
Q 2575 -91 1722 -91 
Q 1428 -91 1123 -41 
Q 819 9 494 109 
L 494 744 
Q 775 591 1075 516 
Q 1375 441 1709 441 
Q 2250 441 2565 725 
Q 2881 1009 2881 1497 
Q 2881 1984 2565 2268 
Q 2250 2553 1709 2553 
Q 1456 2553 1204 2497 
Q 953 2441 691 2322 
L 691 4666 
z
" transform="scale(0.015625)"/>
      </defs>
      <use xlink:href="#DejaVuSans-35"/>
     </g>
    </g>
   </g>
   <g id="text_19">
    <g clip-path="url(#p2a5e605795)">
     <!-- 6 -->
     <g style="opacity: 0.9" transform="translate(72.787037 188.423685)scale(0.12 -0.12)">
      <defs>
       <path id="DejaVuSans-36" d="M 2113 2584 
Q 1688 2584 1439 2293 
Q 1191 2003 1191 1497 
Q 1191 994 1439 701 
Q 1688 409 2113 409 
Q 2538 409 2786 701 
Q 3034 994 3034 1497 
Q 3034 2003 2786 2293 
Q 2538 2584 2113 2584 
z
M 3366 4563 
L 3366 3988 
Q 3128 4100 2886 4159 
Q 2644 4219 2406 4219 
Q 1781 4219 1451 3797 
Q 1122 3375 1075 2522 
Q 1259 2794 1537 2939 
Q 1816 3084 2150 3084 
Q 2853 3084 3261 2657 
Q 3669 2231 3669 1497 
Q 3669 778 3244 343 
Q 2819 -91 2113 -91 
Q 1303 -91 875 529 
Q 447 1150 447 2328 
Q 447 3434 972 4092 
Q 1497 4750 2381 4750 
Q 2619 4750 2861 4703 
Q 3103 4656 3366 4563 
z
" transform="scale(0.015625)"/>
      </defs>
      <use xlink:href="#DejaVuSans-36"/>
     </g>
    </g>
   </g>
   <g id="text_20">
    <g clip-path="url(#p2a5e605795)">
     <!-- 7 -->
     <g style="opacity: 0.9" transform="translate(36.169277 141.971168)scale(0.12 -0.12)">
      <defs>
       <path id="DejaVuSans-37" d="M 525 4666 
L 3525 4666 
L 3525 4397 
L 1831 0 
L 1172 0 
L 2766 4134 
L 525 4134 
L 525 4666 
z
" transform="scale(0.015625)"/>
      </defs>
      <use xlink:href="#DejaVuSans-37"/>
     </g>
    </g>
   </g>
   <g id="text_21">
    <g clip-path="url(#p2a5e605795)">
     <!-- 8 -->
     <g style="opacity: 0.9" transform="translate(95.026228 108.194561)scale(0.12 -0.12)">
      <defs>
       <path id="DejaVuSans-38" d="M 2034 2216 
Q 1584 2216 1326 1975 
Q 1069 1734 1069 1313 
Q 1069 891 1326 650 
Q 1584 409 2034 409 
Q 2484 409 2743 651 
Q 3003 894 3003 1313 
Q 3003 1734 2745 1975 
Q 2488 2216 2034 2216 
z
M 1403 2484 
Q 997 2584 770 2862 
Q 544 3141 544 3541 
Q 544 4100 942 4425 
Q 1341 4750 2034 4750 
Q 2731 4750 3128 4425 
Q 3525 4100 3525 3541 
Q 3525 3141 3298 2862 
Q 3072 2584 2669 2484 
Q 3125 2378 3379 2068 
Q 3634 1759 3634 1313 
Q 3634 634 3220 271 
Q 2806 -91 2034 -91 
Q 1263 -91 848 271 
Q 434 634 434 1313 
Q 434 1759 690 2068 
Q 947 2378 1403 2484 
z
M 1172 3481 
Q 1172 3119 1398 2916 
Q 1625 2713 2034 2713 
Q 2441 2713 2670 2916 
Q 2900 3119 2900 3481 
Q 2900 3844 2670 4047 
Q 2441 4250 2034 4250 
Q 1625 4250 1398 4047 
Q 1172 3844 1172 3481 
z
" transform="scale(0.015625)"/>
      </defs>
      <use xlink:href="#DejaVuSans-38"/>
     </g>
    </g>
   </g>
   <g id="text_22">
    <g clip-path="url(#p2a5e605795)">
     <!-- 9 -->
     <g style="opacity: 0.9" transform="translate(200.033193 111.968156)scale(0.12 -0.12)">
      <defs>
       <path id="DejaVuSans-39" d="M 703 97 
L 703 672 
Q 941 559 1184 500 
Q 1428 441 1663 441 
Q 2288 441 2617 861 
Q 2947 1281 2994 2138 
Q 2813 1869 2534 1725 
Q 2256 1581 1919 1581 
Q 1219 1581 811 2004 
Q 403 2428 403 3163 
Q 403 3881 828 4315 
Q 1253 4750 1959 4750 
Q 2769 4750 3195 4129 
Q 3622 3509 3622 2328 
Q 3622 1225 3098 567 
Q 2575 -91 1691 -91 
Q 1453 -91 1209 -44 
Q 966 3 703 97 
z
M 1959 2075 
Q 2384 2075 2632 2365 
Q 2881 2656 2881 3163 
Q 2881 3666 2632 3958 
Q 2384 4250 1959 4250 
Q 1534 4250 1286 3958 
Q 1038 3666 1038 3163 
Q 1038 2656 1286 2365 
Q 1534 2075 1959 2075 
z
" transform="scale(0.015625)"/>
      </defs>
      <use xlink:href="#DejaVuSans-39"/>
     </g>
    </g>
   </g>
   <g id="text_23">
    <g clip-path="url(#p2a5e605795)">
     <!-- 10 -->
     <g style="opacity: 0.9" transform="translate(294.175037 141.439619)scale(0.12 -0.12)">
      <use xlink:href="#DejaVuSans-31"/>
      <use xlink:href="#DejaVuSans-30" x="63.623047"/>
     </g>
    </g>
   </g>
   <g id="text_24">
    <g clip-path="url(#p2a5e605795)">
     <!-- 11 -->
     <g style="opacity: 0.9" transform="translate(66.094618 229.757011)scale(0.12 -0.12)">
      <use xlink:href="#DejaVuSans-31"/>
      <use xlink:href="#DejaVuSans-31" x="63.623047"/>
     </g>
    </g>
   </g>
   <g id="text_25">
    <g clip-path="url(#p2a5e605795)">
     <!-- 12 -->
     <g style="opacity: 0.9" transform="translate(160.215238 242.067556)scale(0.12 -0.12)">
      <use xlink:href="#DejaVuSans-31"/>
      <use xlink:href="#DejaVuSans-32" x="63.623047"/>
     </g>
    </g>
   </g>
   <g id="text_26">
    <g clip-path="url(#p2a5e605795)">
     <!-- 13 -->
     <g style="opacity: 0.9" transform="translate(256.042769 232.38273)scale(0.12 -0.12)">
      <use xlink:href="#DejaVuSans-31"/>
      <use xlink:href="#DejaVuSans-33" x="63.623047"/>
     </g>
    </g>
   </g>
   <g id="text_27">
    <g clip-path="url(#p2a5e605795)">
     <!-- 14 -->
     <g style="opacity: 0.9" transform="translate(310.678838 189.593469)scale(0.12 -0.12)">
      <use xlink:href="#DejaVuSans-31"/>
      <use xlink:href="#DejaVuSans-34" x="63.623047"/>
     </g>
    </g>
   </g>
   <g id="text_28">
    <g clip-path="url(#p2a5e605795)">
     <!-- 15 -->
     <g style="opacity: 0.9" transform="translate(327.809966 273.479888)scale(0.12 -0.12)">
      <use xlink:href="#DejaVuSans-31"/>
      <use xlink:href="#DejaVuSans-35" x="63.623047"/>
     </g>
    </g>
   </g>
   <g id="text_29">
    <g clip-path="url(#p2a5e605795)">
     <!-- 16 -->
     <g style="opacity: 0.9" transform="translate(336.574766 318.921167)scale(0.12 -0.12)">
      <use xlink:href="#DejaVuSans-31"/>
      <use xlink:href="#DejaVuSans-36" x="63.623047"/>
     </g>
    </g>
   </g>
   <g id="text_30">
    <g clip-path="url(#p2a5e605795)">
     <!-- n &gt;= 0 -->
     <g transform="translate(577.509916 182.469905)scale(0.08 -0.08)">
      <defs>
       <path id="DejaVuSans-3e" d="M 678 3150 
L 678 3719 
L 4684 2266 
L 4684 1747 
L 678 294 
L 678 863 
L 3897 2003 
L 678 3150 
z
" transform="scale(0.015625)"/>
      </defs>
      <use xlink:href="#DejaVuSans-6e"/>
      <use xlink:href="#DejaVuSans-20" x="63.378906"/>
      <use xlink:href="#DejaVuSans-3e" x="95.166016"/>
      <use xlink:href="#DejaVuSans-3d" x="178.955078"/>
      <use xlink:href="#DejaVuSans-20" x="262.744141"/>
      <use xlink:href="#DejaVuSans-30" x="294.53125"/>
     </g>
    </g>
   </g>
   <g id="text_31">
    <g clip-path="url(#p2a5e605795)">
     <!-- ((((x * x) + (2 * t)) + y) - n) == 0 -->
     <g transform="translate(244.703082 166.712222)scale(0.08 -0.08)">
      <defs>
       <path id="DejaVuSans-29" d="M 513 4856 
L 1013 4856 
Q 1481 4119 1714 3412 
Q 1947 2706 1947 2009 
Q 1947 1309 1714 600 
Q 1481 -109 1013 -844 
L 513 -844 
Q 928 -128 1133 580 
Q 1338 1288 1338 2009 
Q 1338 2731 1133 3434 
Q 928 4138 513 4856 
z
" transform="scale(0.015625)"/>
      </defs>
      <use xlink:href="#DejaVuSans-28"/>
      <use xlink:href="#DejaVuSans-28" x="39.013672"/>
      <use xlink:href="#DejaVuSans-28" x="78.027344"/>
      <use xlink:href="#DejaVuSans-28" x="117.041016"/>
      <use xlink:href="#DejaVuSans-78" x="156.054688"/>
      <use xlink:href="#DejaVuSans-20" x="215.234375"/>
      <use xlink:href="#DejaVuSans-2a" x="247.021484"/>
      <use xlink:href="#DejaVuSans-20" x="297.021484"/>
      <use xlink:href="#DejaVuSans-78" x="328.808594"/>
      <use xlink:href="#DejaVuSans-29" x="387.988281"/>
      <use xlink:href="#DejaVuSans-20" x="427.001953"/>
      <use xlink:href="#DejaVuSans-2b" x="458.789062"/>
      <use xlink:href="#DejaVuSans-20" x="542.578125"/>
      <use xlink:href="#DejaVuSans-28" x="574.365234"/>
      <use xlink:href="#DejaVuSans-32" x="613.378906"/>
      <use xlink:href="#DejaVuSans-20" x="677.001953"/>
      <use xlink:href="#DejaVuSans-2a" x="708.789062"/>
      <use xlink:href="#DejaVuSans-20" x="758.789062"/>
      <use xlink:href="#DejaVuSans-74" x="790.576172"/>
      <use xlink:href="#DejaVuSans-29" x="829.785156"/>
      <use xlink:href="#DejaVuSans-29" x="868.798828"/>
      <use xlink:href="#DejaVuSans-20" x="907.8125"/>
      <use xlink:href="#DejaVuSans-2b" x="939.599609"/>
      <use xlink:href="#DejaVuSans-20" x="1023.388672"/>
      <use xlink:href="#DejaVuSans-79" x="1055.175781"/>
      <use xlink:href="#DejaVuSans-29" x="1114.355469"/>
      <use xlink:href="#DejaVuSans-20" x="1153.369141"/>
      <use xlink:href="#DejaVuSans-2d" x="1185.15625"/>
      <use xlink:href="#DejaVuSans-20" x="1221.240234"/>
      <use xlink:href="#DejaVuSans-6e" x="1253.027344"/>
      <use xlink:href="#DejaVuSans-29" x="1316.40625"/>
      <use xlink:href="#DejaVuSans-20" x="1355.419922"/>
      <use xlink:href="#DejaVuSans-3d" x="1387.207031"/>
      <use xlink:href="#DejaVuSans-3d" x="1470.996094"/>
      <use xlink:href="#DejaVuSans-20" x="1554.785156"/>
      <use xlink:href="#DejaVuSans-30" x="1586.572266"/>
     </g>
    </g>
   </g>
   <g id="text_32">
    <g clip-path="url(#p2a5e605795)">
     <!-- If -->
     <g transform="translate(224.753059 147.174601)scale(0.08 -0.08)">
      <defs>
       <path id="DejaVuSans-49" d="M 628 4666 
L 1259 4666 
L 1259 0 
L 628 0 
L 628 4666 
z
" transform="scale(0.015625)"/>
       <path id="DejaVuSans-66" d="M 2375 4863 
L 2375 4384 
L 1825 4384 
Q 1516 4384 1395 4259 
Q 1275 4134 1275 3809 
L 1275 3500 
L 2222 3500 
L 2222 3053 
L 1275 3053 
L 1275 0 
L 697 0 
L 697 3053 
L 147 3053 
L 147 3500 
L 697 3500 
L 697 3744 
Q 697 4328 969 4595 
Q 1241 4863 1831 4863 
L 2375 4863 
z
" transform="scale(0.015625)"/>
      </defs>
      <use xlink:href="#DejaVuSans-49"/>
      <use xlink:href="#DejaVuSans-66" x="29.492188"/>
     </g>
    </g>
   </g>
   <g id="text_33">
    <g clip-path="url(#p2a5e605795)">
     <!-- 1 &gt;= 0 -->
     <g transform="translate(77.51134 168.916422)scale(0.08 -0.08)">
      <use xlink:href="#DejaVuSans-31"/>
      <use xlink:href="#DejaVuSans-20" x="63.623047"/>
      <use xlink:href="#DejaVuSans-3e" x="95.410156"/>
      <use xlink:href="#DejaVuSans-3d" x="179.199219"/>
      <use xlink:href="#DejaVuSans-20" x="262.988281"/>
      <use xlink:href="#DejaVuSans-30" x="294.775391"/>
     </g>
    </g>
   </g>
  </g>
 </g>
 <defs>
  <clipPath id="p2a5e605795">
   <rect x="0" y="0" width="460.8" height="345.6"/>
  </clipPath>
 </defs>
</svg>
