<?xml version="1.0" encoding="utf-8" standalone="no"?>
<!DOCTYPE svg PUBLIC "-//W3C//DTD SVG 1.1//EN"
  "http://www.w3.org/Graphics/SVG/1.1/DTD/svg11.dtd">
<svg xmlns:xlink="http://www.w3.org/1999/xlink" width="460.8pt" height="345.6pt" viewBox="0 0 460.8 345.6" xmlns="http://www.w3.org/2000/svg" version="1.1">
 <metadata>
  <rdf:RDF xmlns:dc="http://purl.org/dc/elements/1.1/" xmlns:cc="http://creativecommons.org/ns#" xmlns:rdf="http://www.w3.org/1999/02/22-rdf-syntax-ns#">
   <cc:Work>
    <dc:type rdf:resource="http://purl.org/dc/dcmitype/StillImage"/>
    <dc:date>2022-12-30T18:52:41.794907</dc:date>
    <dc:format>image/svg+xml</dc:format>
    <dc:creator>
     <cc:Agent>
      <dc:title>Matplotlib v3.5.1, https://matplotlib.org/</dc:title>
     </cc:Agent>
    </dc:creator>
   </cc:Work>
  </rdf:RDF>
 </metadata>
 <defs>
  <style type="text/css">*{stroke-linejoin: round; stroke-linecap: butt}</style>
 </defs>
 <g id="figure_1">
  <g id="patch_1">
   <path d="M 0 345.6 
L 460.8 345.6 
L 460.8 0 
L 0 0 
z
" style="fill: #ffffff"/>
  </g>
  <g id="axes_1">
   <g id="LineCollection_1">
    <path d="M 420.813223 154.012026 
L 341.359106 162.944629 
" clip-path="url(#pc44553daf1)" style="fill: none; stroke: #000000; stroke-opacity: 0.9"/>
    <path d="M 341.359106 162.944629 
L 244.119567 174.619579 
" clip-path="url(#pc44553daf1)" style="fill: none; stroke: #000000; stroke-opacity: 0.9"/>
    <path d="M 244.119567 174.619579 
L 134.456343 190.149363 
" clip-path="url(#pc44553daf1)" style="fill: none; stroke: #000000; stroke-opacity: 0.9"/>
    <path d="M 134.456343 190.149363 
L 63.186268 244.607705 
" clip-path="url(#pc44553daf1)" style="fill: none; stroke: #000000; stroke-opacity: 0.9"/>
    <path d="M 134.456343 190.149363 
L 117.644753 277.431196 
" clip-path="url(#pc44553daf1)" style="fill: none; stroke: #000000; stroke-opacity: 0.9"/>
    <path d="M 134.456343 190.149363 
L 83.057124 100.530901 
" clip-path="url(#pc44553daf1)" style="fill: none; stroke: #000000; stroke-opacity: 0.9"/>
    <path d="M 63.186268 244.607705 
L 57.255663 315.609917 
" clip-path="url(#pc44553daf1)" style="fill: none; stroke: #000000; stroke-opacity: 0.9"/>
    <path d="M 57.255663 315.609917 
L 117.644753 277.431196 
" clip-path="url(#pc44553daf1)" style="fill: none; stroke: #000000; stroke-opacity: 0.9"/>
    <path d="M 83.057124 100.530901 
L 39.986777 29.990083 
" clip-path="url(#pc44553daf1)" style="fill: none; stroke: #000000; stroke-opacity: 0.9"/>
   </g>
   <g id="text_1">
    <g id="patch_2">
     <path d="M 371.329548 165.88597 
L 392.24404 163.534665 
Q 394.629015 163.266535 394.360885 160.88156 
L 393.495887 153.187531 
Q 393.227757 150.802556 390.842782 151.070686 
L 369.928289 153.421991 
Q 367.543314 153.690121 367.811444 156.075096 
L 368.676443 163.769125 
Q 368.944573 166.1541 371.329548 165.88597 
z
" clip-path="url(#pc44553daf1)" style="fill: #ffffff; stroke: #ffffff; stroke-linejoin: miter"/>
    </g>
    <g clip-path="url(#pc44553daf1)">
     <!-- s = 0 -->
     <g style="fill: #ff0000" transform="translate(370.875542 161.84766)rotate(-6.414525)scale(0.08 -0.08)">
      <defs>
       <path id="DejaVuSans-73" d="M 2834 3397 
L 2834 2853 
Q 2591 2978 2328 3040 
Q 2066 3103 1784 3103 
Q 1356 3103 1142 2972 
Q 928 2841 928 2578 
Q 928 2378 1081 2264 
Q 1234 2150 1697 2047 
L 1894 2003 
Q 2506 1872 2764 1633 
Q 3022 1394 3022 966 
Q 3022 478 2636 193 
Q 2250 -91 1575 -91 
Q 1294 -91 989 -36 
Q 684 19 347 128 
L 347 722 
Q 666 556 975 473 
Q 1284 391 1588 391 
Q 1994 391 2212 530 
Q 2431 669 2431 922 
Q 2431 1156 2273 1281 
Q 2116 1406 1581 1522 
L 1381 1569 
Q 847 1681 609 1914 
Q 372 2147 372 2553 
Q 372 3047 722 3315 
Q 1072 3584 1716 3584 
Q 2034 3584 2315 3537 
Q 2597 3491 2834 3397 
z
" transform="scale(0.015625)"/>
       <path id="DejaVuSans-20" transform="scale(0.015625)"/>
       <path id="DejaVuSans-3d" d="M 678 2906 
L 4684 2906 
L 4684 2381 
L 678 2381 
L 678 2906 
z
M 678 1631 
L 4684 1631 
L 4684 1100 
L 678 1100 
L 678 1631 
z
" transform="scale(0.015625)"/>
       <path id="DejaVuSans-30" d="M 2034 4250 
Q 1547 4250 1301 3770 
Q 1056 3291 1056 2328 
Q 1056 1369 1301 889 
Q 1547 409 2034 409 
Q 2525 409 2770 889 
Q 3016 1369 3016 2328 
Q 3016 3291 2770 3770 
Q 2525 4250 2034 4250 
z
M 2034 4750 
Q 2819 4750 3233 4129 
Q 3647 3509 3647 2328 
Q 3647 1150 3233 529 
Q 2819 -91 2034 -91 
Q 1250 -91 836 529 
Q 422 1150 422 2328 
Q 422 3509 836 4129 
Q 1250 4750 2034 4750 
z
" transform="scale(0.015625)"/>
      </defs>
      <use xlink:href="#DejaVuSans-73"/>
      <use xlink:href="#DejaVuSans-20" x="52.099609"/>
      <use xlink:href="#DejaVuSans-3d" x="83.886719"/>
      <use xlink:href="#DejaVuSans-20" x="167.675781"/>
      <use xlink:href="#DejaVuSans-30" x="199.462891"/>
     </g>
    </g>
   </g>
   <g id="text_2">
    <g id="patch_3">
     <path d="M 282.590797 176.316866 
L 304.383038 173.700406 
Q 306.765925 173.414308 306.479826 171.031421 
L 305.556861 163.34413 
Q 305.270762 160.961244 302.887876 161.247342 
L 281.095635 163.863802 
Q 278.712749 164.1499 278.998847 166.532787 
L 279.921812 174.220078 
Q 280.207911 176.602964 282.590797 176.316866 
z
" clip-path="url(#pc44553daf1)" style="fill: #ffffff; stroke: #ffffff; stroke-linejoin: miter"/>
    </g>
    <g clip-path="url(#pc44553daf1)">
     <!-- n = 0 -->
     <g style="fill: #ff0000" transform="translate(282.106367 172.282093)rotate(-6.846378)scale(0.08 -0.08)">
      <defs>
       <path id="DejaVuSans-6e" d="M 3513 2113 
L 3513 0 
L 2938 0 
L 2938 2094 
Q 2938 2591 2744 2837 
Q 2550 3084 2163 3084 
Q 1697 3084 1428 2787 
Q 1159 2491 1159 1978 
L 1159 0 
L 581 0 
L 581 3500 
L 1159 3500 
L 1159 2956 
Q 1366 3272 1645 3428 
Q 1925 3584 2291 3584 
Q 2894 3584 3203 3211 
Q 3513 2838 3513 2113 
z
" transform="scale(0.015625)"/>
      </defs>
      <use xlink:href="#DejaVuSans-6e"/>
      <use xlink:href="#DejaVuSans-20" x="63.378906"/>
      <use xlink:href="#DejaVuSans-3d" x="95.166016"/>
      <use xlink:href="#DejaVuSans-20" x="178.955078"/>
      <use xlink:href="#DejaVuSans-30" x="210.742188"/>
     </g>
    </g>
   </g>
   <g id="text_3">
    <g id="patch_4">
     <path d="M 90.889905 231.331496 
L 114.367916 213.391659 
Q 116.274921 211.934493 114.817755 210.027488 
L 110.116877 203.875411 
Q 108.659711 201.968406 106.752706 203.425572 
L 83.274695 221.36541 
Q 81.36769 222.822576 82.824856 224.72958 
L 87.525734 230.881658 
Q 88.9829 232.788662 90.889905 231.331496 
z
" clip-path="url(#pc44553daf1)" style="fill: #ffffff; stroke: #ffffff; stroke-linejoin: miter"/>
    </g>
    <g clip-path="url(#pc44553daf1)">
     <!-- n &lt;= N -->
     <g style="fill: #ff0000" transform="translate(88.422589 228.1025)rotate(-37.383891)scale(0.08 -0.08)">
      <defs>
       <path id="DejaVuSans-3c" d="M 4684 3150 
L 1459 2003 
L 4684 863 
L 4684 294 
L 678 1747 
L 678 2266 
L 4684 3719 
L 4684 3150 
z
" transform="scale(0.015625)"/>
       <path id="DejaVuSans-4e" d="M 628 4666 
L 1478 4666 
L 3547 763 
L 3547 4666 
L 4159 4666 
L 4159 0 
L 3309 0 
L 1241 3903 
L 1241 0 
L 628 0 
L 628 4666 
z
" transform="scale(0.015625)"/>
      </defs>
      <use xlink:href="#DejaVuSans-6e"/>
      <use xlink:href="#DejaVuSans-20" x="63.378906"/>
      <use xlink:href="#DejaVuSans-3c" x="95.166016"/>
      <use xlink:href="#DejaVuSans-3d" x="178.955078"/>
      <use xlink:href="#DejaVuSans-20" x="262.744141"/>
      <use xlink:href="#DejaVuSans-4e" x="294.53125"/>
     </g>
    </g>
   </g>
   <g id="text_4">
    <g id="patch_5">
     <path d="M 64.882495 299.642109 
L 68.05841 261.619516 
Q 68.25818 259.227845 65.866508 259.028075 
L 58.150876 258.383611 
Q 55.759205 258.183842 55.559436 260.575514 
L 52.383521 298.598107 
Q 52.183751 300.989778 54.575423 301.189547 
L 62.291054 301.834011 
Q 64.682726 302.033781 64.882495 299.642109 
z
" clip-path="url(#pc44553daf1)" style="fill: #ffffff; stroke: #ffffff; stroke-linejoin: miter"/>
    </g>
    <g clip-path="url(#pc44553daf1)">
     <!-- s = (s + ( -->
     <g style="fill: #ff0000" transform="translate(60.832847 299.303854)rotate(-85.225336)scale(0.08 -0.08)">
      <defs>
       <path id="DejaVuSans-28" d="M 1984 4856 
Q 1566 4138 1362 3434 
Q 1159 2731 1159 2009 
Q 1159 1288 1364 580 
Q 1569 -128 1984 -844 
L 1484 -844 
Q 1016 -109 783 600 
Q 550 1309 550 2009 
Q 550 2706 781 3412 
Q 1013 4119 1484 4856 
L 1984 4856 
z
" transform="scale(0.015625)"/>
       <path id="DejaVuSans-2b" d="M 2944 4013 
L 2944 2272 
L 4684 2272 
L 4684 1741 
L 2944 1741 
L 2944 0 
L 2419 0 
L 2419 1741 
L 678 1741 
L 678 2272 
L 2419 2272 
L 2419 4013 
L 2944 4013 
z
" transform="scale(0.015625)"/>
      </defs>
      <use xlink:href="#DejaVuSans-73"/>
      <use xlink:href="#DejaVuSans-20" x="52.099609"/>
      <use xlink:href="#DejaVuSans-3d" x="83.886719"/>
      <use xlink:href="#DejaVuSans-20" x="167.675781"/>
      <use xlink:href="#DejaVuSans-28" x="199.462891"/>
      <use xlink:href="#DejaVuSans-73" x="238.476562"/>
      <use xlink:href="#DejaVuSans-20" x="290.576172"/>
      <use xlink:href="#DejaVuSans-2b" x="322.363281"/>
      <use xlink:href="#DejaVuSans-20" x="406.152344"/>
      <use xlink:href="#DejaVuSans-28" x="437.939453"/>
     </g>
    </g>
   </g>
   <g id="text_5">
    <g id="patch_6">
     <path d="M 73.081332 313.024163 
L 108.521489 290.618463 
Q 110.550082 289.335961 109.26758 287.307368 
L 105.130177 280.763042 
Q 103.847676 278.734449 101.819083 280.016951 
L 66.378927 302.422651 
Q 64.350333 303.705152 65.632835 305.733745 
L 69.770238 312.278071 
Q 71.052739 314.306664 73.081332 313.024163 
z
" clip-path="url(#pc44553daf1)" style="fill: #ffffff; stroke: #ffffff; stroke-linejoin: miter"/>
    </g>
    <g clip-path="url(#pc44553daf1)">
     <!-- n = (n + 1 -->
     <g style="fill: #ff0000" transform="translate(70.909764 309.58929)rotate(-32.301575)scale(0.08 -0.08)">
      <defs>
       <path id="DejaVuSans-31" d="M 794 531 
L 1825 531 
L 1825 4091 
L 703 3866 
L 703 4441 
L 1819 4666 
L 2450 4666 
L 2450 531 
L 3481 531 
L 3481 0 
L 794 0 
L 794 531 
z
" transform="scale(0.015625)"/>
      </defs>
      <use xlink:href="#DejaVuSans-6e"/>
      <use xlink:href="#DejaVuSans-20" x="63.378906"/>
      <use xlink:href="#DejaVuSans-3d" x="95.166016"/>
      <use xlink:href="#DejaVuSans-20" x="178.955078"/>
      <use xlink:href="#DejaVuSans-28" x="210.742188"/>
      <use xlink:href="#DejaVuSans-6e" x="249.755859"/>
      <use xlink:href="#DejaVuSans-20" x="313.134766"/>
      <use xlink:href="#DejaVuSans-2b" x="344.921875"/>
      <use xlink:href="#DejaVuSans-20" x="428.710938"/>
      <use xlink:href="#DejaVuSans-31" x="460.498047"/>
     </g>
    </g>
   </g>
   <g id="text_6">
    <g id="patch_7">
     <path d="M 91.70346 128.211596 
L 114.929948 168.70875 
Q 116.123984 170.790643 118.205877 169.596607 
L 124.92215 165.744597 
Q 127.004043 164.550561 125.810007 162.468668 
L 102.583519 121.971514 
Q 101.389483 119.889621 99.30759 121.083657 
L 92.591317 124.935667 
Q 90.509424 126.129703 91.70346 128.211596 
z
" clip-path="url(#pc44553daf1)" style="fill: #ffffff; stroke: #ffffff; stroke-linejoin: miter"/>
    </g>
    <g clip-path="url(#pc44553daf1)">
     <!-- Not(n &lt;= N -->
     <g style="fill: #ff0000" transform="translate(95.228582 126.189819)rotate(-299.835729)scale(0.08 -0.08)">
      <defs>
       <path id="DejaVuSans-6f" d="M 1959 3097 
Q 1497 3097 1228 2736 
Q 959 2375 959 1747 
Q 959 1119 1226 758 
Q 1494 397 1959 397 
Q 2419 397 2687 759 
Q 2956 1122 2956 1747 
Q 2956 2369 2687 2733 
Q 2419 3097 1959 3097 
z
M 1959 3584 
Q 2709 3584 3137 3096 
Q 3566 2609 3566 1747 
Q 3566 888 3137 398 
Q 2709 -91 1959 -91 
Q 1206 -91 779 398 
Q 353 888 353 1747 
Q 353 2609 779 3096 
Q 1206 3584 1959 3584 
z
" transform="scale(0.015625)"/>
       <path id="DejaVuSans-74" d="M 1172 4494 
L 1172 3500 
L 2356 3500 
L 2356 3053 
L 1172 3053 
L 1172 1153 
Q 1172 725 1289 603 
Q 1406 481 1766 481 
L 2356 481 
L 2356 0 
L 1766 0 
Q 1100 0 847 248 
Q 594 497 594 1153 
L 594 3053 
L 172 3053 
L 172 3500 
L 594 3500 
L 594 4494 
L 1172 4494 
z
" transform="scale(0.015625)"/>
      </defs>
      <use xlink:href="#DejaVuSans-4e"/>
      <use xlink:href="#DejaVuSans-6f" x="74.804688"/>
      <use xlink:href="#DejaVuSans-74" x="135.986328"/>
      <use xlink:href="#DejaVuSans-28" x="175.195312"/>
      <use xlink:href="#DejaVuSans-6e" x="214.208984"/>
      <use xlink:href="#DejaVuSans-20" x="277.587891"/>
      <use xlink:href="#DejaVuSans-3c" x="309.375"/>
      <use xlink:href="#DejaVuSans-3d" x="393.164062"/>
      <use xlink:href="#DejaVuSans-20" x="476.953125"/>
      <use xlink:href="#DejaVuSans-4e" x="508.740234"/>
     </g>
    </g>
   </g>
   <g id="PathCollection_1">
    <defs>
     <path id="m3bbd39d2e2" d="M 0 11.18034 
C 2.965061 11.18034 5.80908 10.002309 7.905694 7.905694 
C 10.002309 5.80908 11.18034 2.965061 11.18034 0 
C 11.18034 -2.965061 10.002309 -5.80908 7.905694 -7.905694 
C 5.80908 -10.002309 2.965061 -11.18034 0 -11.18034 
C -2.965061 -11.18034 -5.80908 -10.002309 -7.905694 -7.905694 
C -10.002309 -5.80908 -11.18034 -2.965061 -11.18034 0 
C -11.18034 2.965061 -10.002309 5.80908 -7.905694 7.905694 
C -5.80908 10.002309 -2.965061 11.18034 0 11.18034 
z
" style="stroke: #ffc0cb; stroke-opacity: 0.9; stroke-width: 2"/>
    </defs>
    <g clip-path="url(#pc44553daf1)">
     <use xlink:href="#m3bbd39d2e2" x="420.813223" y="154.012026" style="fill: #ffc0cb; fill-opacity: 0.9; stroke: #ffc0cb; stroke-opacity: 0.9; stroke-width: 2"/>
     <use xlink:href="#m3bbd39d2e2" x="341.359106" y="162.944629" style="fill: #ffc0cb; fill-opacity: 0.9; stroke: #ffc0cb; stroke-opacity: 0.9; stroke-width: 2"/>
     <use xlink:href="#m3bbd39d2e2" x="244.119567" y="174.619579" style="fill: #ffc0cb; fill-opacity: 0.9; stroke: #ffc0cb; stroke-opacity: 0.9; stroke-width: 2"/>
     <use xlink:href="#m3bbd39d2e2" x="134.456343" y="190.149363" style="fill: #ffc0cb; fill-opacity: 0.9; stroke: #ffc0cb; stroke-opacity: 0.9; stroke-width: 2"/>
     <use xlink:href="#m3bbd39d2e2" x="63.186268" y="244.607705" style="fill: #ffc0cb; fill-opacity: 0.9; stroke: #ffc0cb; stroke-opacity: 0.9; stroke-width: 2"/>
     <use xlink:href="#m3bbd39d2e2" x="57.255663" y="315.609917" style="fill: #ffc0cb; fill-opacity: 0.9; stroke: #ffc0cb; stroke-opacity: 0.9; stroke-width: 2"/>
     <use xlink:href="#m3bbd39d2e2" x="117.644753" y="277.431196" style="fill: #ffc0cb; fill-opacity: 0.9; stroke: #ffc0cb; stroke-opacity: 0.9; stroke-width: 2"/>
     <use xlink:href="#m3bbd39d2e2" x="83.057124" y="100.530901" style="fill: #ffc0cb; fill-opacity: 0.9; stroke: #ffc0cb; stroke-opacity: 0.9; stroke-width: 2"/>
     <use xlink:href="#m3bbd39d2e2" x="39.986777" y="29.990083" style="fill: #ffc0cb; fill-opacity: 0.9; stroke: #ffc0cb; stroke-opacity: 0.9; stroke-width: 2"/>
    </g>
   </g>
   <g id="text_7">
    <g clip-path="url(#pc44553daf1)">
     <!-- 0 -->
     <g style="opacity: 0.9" transform="translate(416.995723 157.323276)scale(0.12 -0.12)">
      <use xlink:href="#DejaVuSans-30"/>
     </g>
    </g>
   </g>
   <g id="text_8">
    <g clip-path="url(#pc44553daf1)">
     <!-- 1 -->
     <g style="opacity: 0.9" transform="translate(337.541606 166.255879)scale(0.12 -0.12)">
      <use xlink:href="#DejaVuSans-31"/>
     </g>
    </g>
   </g>
   <g id="text_9">
    <g clip-path="url(#pc44553daf1)">
     <!-- 2 -->
     <g style="opacity: 0.9" transform="translate(240.302067 177.930829)scale(0.12 -0.12)">
      <defs>
       <path id="DejaVuSans-32" d="M 1228 531 
L 3431 531 
L 3431 0 
L 469 0 
L 469 531 
Q 828 903 1448 1529 
Q 2069 2156 2228 2338 
Q 2531 2678 2651 2914 
Q 2772 3150 2772 3378 
Q 2772 3750 2511 3984 
Q 2250 4219 1831 4219 
Q 1534 4219 1204 4116 
Q 875 4013 500 3803 
L 500 4441 
Q 881 4594 1212 4672 
Q 1544 4750 1819 4750 
Q 2544 4750 2975 4387 
Q 3406 4025 3406 3419 
Q 3406 3131 3298 2873 
Q 3191 2616 2906 2266 
Q 2828 2175 2409 1742 
Q 1991 1309 1228 531 
z
" transform="scale(0.015625)"/>
      </defs>
      <use xlink:href="#DejaVuSans-32"/>
     </g>
    </g>
   </g>
   <g id="text_10">
    <g clip-path="url(#pc44553daf1)">
     <!-- 3 -->
     <g style="opacity: 0.9" transform="translate(130.638843 193.460613)scale(0.12 -0.12)">
      <defs>
       <path id="DejaVuSans-33" d="M 2597 2516 
Q 3050 2419 3304 2112 
Q 3559 1806 3559 1356 
Q 3559 666 3084 287 
Q 2609 -91 1734 -91 
Q 1441 -91 1130 -33 
Q 819 25 488 141 
L 488 750 
Q 750 597 1062 519 
Q 1375 441 1716 441 
Q 2309 441 2620 675 
Q 2931 909 2931 1356 
Q 2931 1769 2642 2001 
Q 2353 2234 1838 2234 
L 1294 2234 
L 1294 2753 
L 1863 2753 
Q 2328 2753 2575 2939 
Q 2822 3125 2822 3475 
Q 2822 3834 2567 4026 
Q 2313 4219 1838 4219 
Q 1578 4219 1281 4162 
Q 984 4106 628 3988 
L 628 4550 
Q 988 4650 1302 4700 
Q 1616 4750 1894 4750 
Q 2613 4750 3031 4423 
Q 3450 4097 3450 3541 
Q 3450 3153 3228 2886 
Q 3006 2619 2597 2516 
z
" transform="scale(0.015625)"/>
      </defs>
      <use xlink:href="#DejaVuSans-33"/>
     </g>
    </g>
   </g>
   <g id="text_11">
    <g clip-path="url(#pc44553daf1)">
     <!-- 4 -->
     <g style="opacity: 0.9" transform="translate(59.368768 247.918955)scale(0.12 -0.12)">
      <defs>
       <path id="DejaVuSans-34" d="M 2419 4116 
L 825 1625 
L 2419 1625 
L 2419 4116 
z
M 2253 4666 
L 3047 4666 
L 3047 1625 
L 3713 1625 
L 3713 1100 
L 3047 1100 
L 3047 0 
L 2419 0 
L 2419 1100 
L 313 1100 
L 313 1709 
L 2253 4666 
z
" transform="scale(0.015625)"/>
      </defs>
      <use xlink:href="#DejaVuSans-34"/>
     </g>
    </g>
   </g>
   <g id="text_12">
    <g clip-path="url(#pc44553daf1)">
     <!-- 5 -->
     <g style="opacity: 0.9" transform="translate(53.438163 318.921167)scale(0.12 -0.12)">
      <defs>
       <path id="DejaVuSans-35" d="M 691 4666 
L 3169 4666 
L 3169 4134 
L 1269 4134 
L 1269 2991 
Q 1406 3038 1543 3061 
Q 1681 3084 1819 3084 
Q 2600 3084 3056 2656 
Q 3513 2228 3513 1497 
Q 3513 744 3044 326 
Q 2575 -91 1722 -91 
Q 1428 -91 1123 -41 
Q 819 9 494 109 
L 494 744 
Q 775 591 1075 516 
Q 1375 441 1709 441 
Q 2250 441 2565 725 
Q 2881 1009 2881 1497 
Q 2881 1984 2565 2268 
Q 2250 2553 1709 2553 
Q 1456 2553 1204 2497 
Q 953 2441 691 2322 
L 691 4666 
z
" transform="scale(0.015625)"/>
      </defs>
      <use xlink:href="#DejaVuSans-35"/>
     </g>
    </g>
   </g>
   <g id="text_13">
    <g clip-path="url(#pc44553daf1)">
     <!-- 6 -->
     <g style="opacity: 0.9" transform="translate(113.827253 280.742446)scale(0.12 -0.12)">
      <defs>
       <path id="DejaVuSans-36" d="M 2113 2584 
Q 1688 2584 1439 2293 
Q 1191 2003 1191 1497 
Q 1191 994 1439 701 
Q 1688 409 2113 409 
Q 2538 409 2786 701 
Q 3034 994 3034 1497 
Q 3034 2003 2786 2293 
Q 2538 2584 2113 2584 
z
M 3366 4563 
L 3366 3988 
Q 3128 4100 2886 4159 
Q 2644 4219 2406 4219 
Q 1781 4219 1451 3797 
Q 1122 3375 1075 2522 
Q 1259 2794 1537 2939 
Q 1816 3084 2150 3084 
Q 2853 3084 3261 2657 
Q 3669 2231 3669 1497 
Q 3669 778 3244 343 
Q 2819 -91 2113 -91 
Q 1303 -91 875 529 
Q 447 1150 447 2328 
Q 447 3434 972 4092 
Q 1497 4750 2381 4750 
Q 2619 4750 2861 4703 
Q 3103 4656 3366 4563 
z
" transform="scale(0.015625)"/>
      </defs>
      <use xlink:href="#DejaVuSans-36"/>
     </g>
    </g>
   </g>
   <g id="text_14">
    <g clip-path="url(#pc44553daf1)">
     <!-- 7 -->
     <g style="opacity: 0.9" transform="translate(79.239624 103.842151)scale(0.12 -0.12)">
      <defs>
       <path id="DejaVuSans-37" d="M 525 4666 
L 3525 4666 
L 3525 4397 
L 1831 0 
L 1172 0 
L 2766 4134 
L 525 4134 
L 525 4666 
z
" transform="scale(0.015625)"/>
      </defs>
      <use xlink:href="#DejaVuSans-37"/>
     </g>
    </g>
   </g>
   <g id="text_15">
    <g clip-path="url(#pc44553daf1)">
     <!-- 8 -->
     <g style="opacity: 0.9" transform="translate(36.169277 33.301333)scale(0.12 -0.12)">
      <defs>
       <path id="DejaVuSans-38" d="M 2034 2216 
Q 1584 2216 1326 1975 
Q 1069 1734 1069 1313 
Q 1069 891 1326 650 
Q 1584 409 2034 409 
Q 2484 409 2743 651 
Q 3003 894 3003 1313 
Q 3003 1734 2745 1975 
Q 2488 2216 2034 2216 
z
M 1403 2484 
Q 997 2584 770 2862 
Q 544 3141 544 3541 
Q 544 4100 942 4425 
Q 1341 4750 2034 4750 
Q 2731 4750 3128 4425 
Q 3525 4100 3525 3541 
Q 3525 3141 3298 2862 
Q 3072 2584 2669 2484 
Q 3125 2378 3379 2068 
Q 3634 1759 3634 1313 
Q 3634 634 3220 271 
Q 2806 -91 2034 -91 
Q 1263 -91 848 271 
Q 434 634 434 1313 
Q 434 1759 690 2068 
Q 947 2378 1403 2484 
z
M 1172 3481 
Q 1172 3119 1398 2916 
Q 1625 2713 2034 2713 
Q 2441 2713 2670 2916 
Q 2900 3119 2900 3481 
Q 2900 3844 2670 4047 
Q 2441 4250 2034 4250 
Q 1625 4250 1398 4047 
Q 1172 3844 1172 3481 
z
" transform="scale(0.015625)"/>
      </defs>
      <use xlink:href="#DejaVuSans-38"/>
     </g>
    </g>
   </g>
   <g id="text_16">
    <g clip-path="url(#pc44553daf1)">
     <!-- N &gt;= 0 -->
     <g transform="translate(274.265176 441.569073)scale(0.08 -0.08)">
      <defs>
       <path id="DejaVuSans-3e" d="M 678 3150 
L 678 3719 
L 4684 2266 
L 4684 1747 
L 678 294 
L 678 863 
L 3897 2003 
L 678 3150 
z
" transform="scale(0.015625)"/>
      </defs>
      <use xlink:href="#DejaVuSans-4e"/>
      <use xlink:href="#DejaVuSans-20" x="74.804688"/>
      <use xlink:href="#DejaVuSans-3e" x="106.591797"/>
      <use xlink:href="#DejaVuSans-3d" x="190.380859"/>
      <use xlink:href="#DejaVuSans-20" x="274.169922"/>
      <use xlink:href="#DejaVuSans-30" x="305.957031"/>
     </g>
    </g>
   </g>
   <g id="text_17">
    <g clip-path="url(#pc44553daf1)">
     <!-- (s == (((n * n) * (n * n)) * (n * n)) and n &lt;= (N + 1)) -->
     <g transform="translate(149.362754 171.329613)scale(0.08 -0.08)">
      <defs>
       <path id="DejaVuSans-2a" d="M 3009 3897 
L 1888 3291 
L 3009 2681 
L 2828 2375 
L 1778 3009 
L 1778 1831 
L 1422 1831 
L 1422 3009 
L 372 2375 
L 191 2681 
L 1313 3291 
L 191 3897 
L 372 4206 
L 1422 3572 
L 1422 4750 
L 1778 4750 
L 1778 3572 
L 2828 4206 
L 3009 3897 
z
" transform="scale(0.015625)"/>
       <path id="DejaVuSans-29" d="M 513 4856 
L 1013 4856 
Q 1481 4119 1714 3412 
Q 1947 2706 1947 2009 
Q 1947 1309 1714 600 
Q 1481 -109 1013 -844 
L 513 -844 
Q 928 -128 1133 580 
Q 1338 1288 1338 2009 
Q 1338 2731 1133 3434 
Q 928 4138 513 4856 
z
" transform="scale(0.015625)"/>
       <path id="DejaVuSans-61" d="M 2194 1759 
Q 1497 1759 1228 1600 
Q 959 1441 959 1056 
Q 959 750 1161 570 
Q 1363 391 1709 391 
Q 2188 391 2477 730 
Q 2766 1069 2766 1631 
L 2766 1759 
L 2194 1759 
z
M 3341 1997 
L 3341 0 
L 2766 0 
L 2766 531 
Q 2569 213 2275 61 
Q 1981 -91 1556 -91 
Q 1019 -91 701 211 
Q 384 513 384 1019 
Q 384 1609 779 1909 
Q 1175 2209 1959 2209 
L 2766 2209 
L 2766 2266 
Q 2766 2663 2505 2880 
Q 2244 3097 1772 3097 
Q 1472 3097 1187 3025 
Q 903 2953 641 2809 
L 641 3341 
Q 956 3463 1253 3523 
Q 1550 3584 1831 3584 
Q 2591 3584 2966 3190 
Q 3341 2797 3341 1997 
z
" transform="scale(0.015625)"/>
       <path id="DejaVuSans-64" d="M 2906 2969 
L 2906 4863 
L 3481 4863 
L 3481 0 
L 2906 0 
L 2906 525 
Q 2725 213 2448 61 
Q 2172 -91 1784 -91 
Q 1150 -91 751 415 
Q 353 922 353 1747 
Q 353 2572 751 3078 
Q 1150 3584 1784 3584 
Q 2172 3584 2448 3432 
Q 2725 3281 2906 2969 
z
M 947 1747 
Q 947 1113 1208 752 
Q 1469 391 1925 391 
Q 2381 391 2643 752 
Q 2906 1113 2906 1747 
Q 2906 2381 2643 2742 
Q 2381 3103 1925 3103 
Q 1469 3103 1208 2742 
Q 947 2381 947 1747 
z
" transform="scale(0.015625)"/>
      </defs>
      <use xlink:href="#DejaVuSans-28"/>
      <use xlink:href="#DejaVuSans-73" x="39.013672"/>
      <use xlink:href="#DejaVuSans-20" x="91.113281"/>
      <use xlink:href="#DejaVuSans-3d" x="122.900391"/>
      <use xlink:href="#DejaVuSans-3d" x="206.689453"/>
      <use xlink:href="#DejaVuSans-20" x="290.478516"/>
      <use xlink:href="#DejaVuSans-28" x="322.265625"/>
      <use xlink:href="#DejaVuSans-28" x="361.279297"/>
      <use xlink:href="#DejaVuSans-28" x="400.292969"/>
      <use xlink:href="#DejaVuSans-6e" x="439.306641"/>
      <use xlink:href="#DejaVuSans-20" x="502.685547"/>
      <use xlink:href="#DejaVuSans-2a" x="534.472656"/>
      <use xlink:href="#DejaVuSans-20" x="584.472656"/>
      <use xlink:href="#DejaVuSans-6e" x="616.259766"/>
      <use xlink:href="#DejaVuSans-29" x="679.638672"/>
      <use xlink:href="#DejaVuSans-20" x="718.652344"/>
      <use xlink:href="#DejaVuSans-2a" x="750.439453"/>
      <use xlink:href="#DejaVuSans-20" x="800.439453"/>
      <use xlink:href="#DejaVuSans-28" x="832.226562"/>
      <use xlink:href="#DejaVuSans-6e" x="871.240234"/>
      <use xlink:href="#DejaVuSans-20" x="934.619141"/>
      <use xlink:href="#DejaVuSans-2a" x="966.40625"/>
      <use xlink:href="#DejaVuSans-20" x="1016.40625"/>
      <use xlink:href="#DejaVuSans-6e" x="1048.193359"/>
      <use xlink:href="#DejaVuSans-29" x="1111.572266"/>
      <use xlink:href="#DejaVuSans-29" x="1150.585938"/>
      <use xlink:href="#DejaVuSans-20" x="1189.599609"/>
      <use xlink:href="#DejaVuSans-2a" x="1221.386719"/>
      <use xlink:href="#DejaVuSans-20" x="1271.386719"/>
      <use xlink:href="#DejaVuSans-28" x="1303.173828"/>
      <use xlink:href="#DejaVuSans-6e" x="1342.1875"/>
      <use xlink:href="#DejaVuSans-20" x="1405.566406"/>
      <use xlink:href="#DejaVuSans-2a" x="1437.353516"/>
      <use xlink:href="#DejaVuSans-20" x="1487.353516"/>
      <use xlink:href="#DejaVuSans-6e" x="1519.140625"/>
      <use xlink:href="#DejaVuSans-29" x="1582.519531"/>
      <use xlink:href="#DejaVuSans-29" x="1621.533203"/>
      <use xlink:href="#DejaVuSans-20" x="1660.546875"/>
      <use xlink:href="#DejaVuSans-61" x="1692.333984"/>
      <use xlink:href="#DejaVuSans-6e" x="1753.613281"/>
      <use xlink:href="#DejaVuSans-64" x="1816.992188"/>
      <use xlink:href="#DejaVuSans-20" x="1880.46875"/>
      <use xlink:href="#DejaVuSans-6e" x="1912.255859"/>
      <use xlink:href="#DejaVuSans-20" x="1975.634766"/>
      <use xlink:href="#DejaVuSans-3c" x="2007.421875"/>
      <use xlink:href="#DejaVuSans-3d" x="2091.210938"/>
      <use xlink:href="#DejaVuSans-20" x="2175"/>
      <use xlink:href="#DejaVuSans-28" x="2206.787109"/>
      <use xlink:href="#DejaVuSans-4e" x="2245.800781"/>
      <use xlink:href="#DejaVuSans-20" x="2320.605469"/>
      <use xlink:href="#DejaVuSans-2b" x="2352.392578"/>
      <use xlink:href="#DejaVuSans-20" x="2436.181641"/>
      <use xlink:href="#DejaVuSans-31" x="2467.96875"/>
      <use xlink:href="#DejaVuSans-29" x="2531.591797"/>
      <use xlink:href="#DejaVuSans-29" x="2570.605469"/>
     </g>
    </g>
   </g>
   <g id="text_18">
    <g clip-path="url(#pc44553daf1)">
     <!-- 1 &gt;= 0 -->
     <g transform="translate(11.333923 25.996424)scale(0.08 -0.08)">
      <use xlink:href="#DejaVuSans-31"/>
      <use xlink:href="#DejaVuSans-20" x="63.623047"/>
      <use xlink:href="#DejaVuSans-3e" x="95.410156"/>
      <use xlink:href="#DejaVuSans-3d" x="179.199219"/>
      <use xlink:href="#DejaVuSans-20" x="262.988281"/>
      <use xlink:href="#DejaVuSans-30" x="294.775391"/>
     </g>
    </g>
   </g>
  </g>
 </g>
 <defs>
  <clipPath id="pc44553daf1">
   <rect x="0" y="0" width="460.8" height="345.6"/>
  </clipPath>
 </defs>
</svg>
