<?xml version="1.0" encoding="utf-8" standalone="no"?>
<!DOCTYPE svg PUBLIC "-//W3C//DTD SVG 1.1//EN"
  "http://www.w3.org/Graphics/SVG/1.1/DTD/svg11.dtd">
<svg xmlns:xlink="http://www.w3.org/1999/xlink" width="460.8pt" height="345.6pt" viewBox="0 0 460.8 345.6" xmlns="http://www.w3.org/2000/svg" version="1.1">
 <metadata>
  <rdf:RDF xmlns:dc="http://purl.org/dc/elements/1.1/" xmlns:cc="http://creativecommons.org/ns#" xmlns:rdf="http://www.w3.org/1999/02/22-rdf-syntax-ns#">
   <cc:Work>
    <dc:type rdf:resource="http://purl.org/dc/dcmitype/StillImage"/>
    <dc:date>2022-12-30T18:18:50.262276</dc:date>
    <dc:format>image/svg+xml</dc:format>
    <dc:creator>
     <cc:Agent>
      <dc:title>Matplotlib v3.5.1, https://matplotlib.org/</dc:title>
     </cc:Agent>
    </dc:creator>
   </cc:Work>
  </rdf:RDF>
 </metadata>
 <defs>
  <style type="text/css">*{stroke-linejoin: round; stroke-linecap: butt}</style>
 </defs>
 <g id="figure_1">
  <g id="patch_1">
   <path d="M 0 345.6 
L 460.8 345.6 
L 460.8 0 
L 0 0 
z
" style="fill: #ffffff"/>
  </g>
  <g id="axes_1">
   <g id="LineCollection_1">
    <path d="M 416.469656 29.990083 
L 380.075871 56.479762 
" clip-path="url(#p385083281a)" style="fill: none; stroke: #000000; stroke-opacity: 0.9"/>
    <path d="M 380.075871 56.479762 
L 335.69551 91.216535 
" clip-path="url(#p385083281a)" style="fill: none; stroke: #000000; stroke-opacity: 0.9"/>
    <path d="M 335.69551 91.216535 
L 287.993673 133.172632 
" clip-path="url(#p385083281a)" style="fill: none; stroke: #000000; stroke-opacity: 0.9"/>
    <path d="M 287.993673 133.172632 
L 212.959383 159.978319 
" clip-path="url(#p385083281a)" style="fill: none; stroke: #000000; stroke-opacity: 0.9"/>
    <path d="M 287.993673 133.172632 
L 223.179485 143.920684 
" clip-path="url(#p385083281a)" style="fill: none; stroke: #000000; stroke-opacity: 0.9"/>
    <path d="M 287.993673 133.172632 
L 362.02002 148.603474 
" clip-path="url(#p385083281a)" style="fill: none; stroke: #000000; stroke-opacity: 0.9"/>
    <path d="M 212.959383 159.978319 
L 134.298997 182.640805 
" clip-path="url(#p385083281a)" style="fill: none; stroke: #000000; stroke-opacity: 0.9"/>
    <path d="M 134.298997 182.640805 
L 83.239075 215.403604 
" clip-path="url(#p385083281a)" style="fill: none; stroke: #000000; stroke-opacity: 0.9"/>
    <path d="M 83.239075 215.403604 
L 79.608347 254.358568 
" clip-path="url(#p385083281a)" style="fill: none; stroke: #000000; stroke-opacity: 0.9"/>
    <path d="M 79.608347 254.358568 
L 39.986777 287.648087 
" clip-path="url(#p385083281a)" style="fill: none; stroke: #000000; stroke-opacity: 0.9"/>
    <path d="M 79.608347 254.358568 
L 82.003717 291.997537 
" clip-path="url(#p385083281a)" style="fill: none; stroke: #000000; stroke-opacity: 0.9"/>
    <path d="M 79.608347 254.358568 
L 129.25434 219.649621 
" clip-path="url(#p385083281a)" style="fill: none; stroke: #000000; stroke-opacity: 0.9"/>
    <path d="M 39.986777 287.648087 
L 59.973123 315.609917 
" clip-path="url(#p385083281a)" style="fill: none; stroke: #000000; stroke-opacity: 0.9"/>
    <path d="M 59.973123 315.609917 
L 82.003717 291.997537 
" clip-path="url(#p385083281a)" style="fill: none; stroke: #000000; stroke-opacity: 0.9"/>
    <path d="M 129.25434 219.649621 
L 170.317694 178.01488 
" clip-path="url(#p385083281a)" style="fill: none; stroke: #000000; stroke-opacity: 0.9"/>
    <path d="M 170.317694 178.01488 
L 223.179485 143.920684 
" clip-path="url(#p385083281a)" style="fill: none; stroke: #000000; stroke-opacity: 0.9"/>
    <path d="M 362.02002 148.603474 
L 420.813223 160.702384 
" clip-path="url(#p385083281a)" style="fill: none; stroke: #000000; stroke-opacity: 0.9"/>
   </g>
   <g id="text_1">
    <g id="patch_2">
     <path d="M 393.086872 54.7661 
L 410.839711 41.84447 
Q 412.780133 40.43211 411.367772 38.491688 
L 406.811438 32.231806 
Q 405.399077 30.291384 403.458655 31.703745 
L 385.705816 44.625374 
Q 383.765394 46.037735 385.177755 47.978157 
L 389.73409 54.238039 
Q 391.14645 56.178461 393.086872 54.7661 
z
" clip-path="url(#p385083281a)" style="fill: #ffffff; stroke: #ffffff; stroke-linejoin: miter"/>
    </g>
    <g clip-path="url(#p385083281a)">
     <!-- q = 0 -->
     <g style="fill: #ff0000" transform="translate(390.695422 51.480521)rotate(-36.049477)scale(0.08 -0.08)">
      <defs>
       <path id="DejaVuSans-71" d="M 947 1747 
Q 947 1113 1208 752 
Q 1469 391 1925 391 
Q 2381 391 2643 752 
Q 2906 1113 2906 1747 
Q 2906 2381 2643 2742 
Q 2381 3103 1925 3103 
Q 1469 3103 1208 2742 
Q 947 2381 947 1747 
z
M 2906 525 
Q 2725 213 2448 61 
Q 2172 -91 1784 -91 
Q 1150 -91 751 415 
Q 353 922 353 1747 
Q 353 2572 751 3078 
Q 1150 3584 1784 3584 
Q 2172 3584 2448 3432 
Q 2725 3281 2906 2969 
L 2906 3500 
L 3481 3500 
L 3481 -1331 
L 2906 -1331 
L 2906 525 
z
" transform="scale(0.015625)"/>
       <path id="DejaVuSans-20" transform="scale(0.015625)"/>
       <path id="DejaVuSans-3d" d="M 678 2906 
L 4684 2906 
L 4684 2381 
L 678 2381 
L 678 2906 
z
M 678 1631 
L 4684 1631 
L 4684 1100 
L 678 1100 
L 678 1631 
z
" transform="scale(0.015625)"/>
       <path id="DejaVuSans-30" d="M 2034 4250 
Q 1547 4250 1301 3770 
Q 1056 3291 1056 2328 
Q 1056 1369 1301 889 
Q 1547 409 2034 409 
Q 2525 409 2770 889 
Q 3016 1369 3016 2328 
Q 3016 3291 2770 3770 
Q 2525 4250 2034 4250 
z
M 2034 4750 
Q 2819 4750 3233 4129 
Q 3647 3509 3647 2328 
Q 3647 1150 3233 529 
Q 2819 -91 2034 -91 
Q 1250 -91 836 529 
Q 422 1150 422 2328 
Q 422 3509 836 4129 
Q 1250 4750 2034 4750 
z
" transform="scale(0.015625)"/>
      </defs>
      <use xlink:href="#DejaVuSans-71"/>
      <use xlink:href="#DejaVuSans-20" x="63.476562"/>
      <use xlink:href="#DejaVuSans-3d" x="95.263672"/>
      <use xlink:href="#DejaVuSans-20" x="179.052734"/>
      <use xlink:href="#DejaVuSans-30" x="210.839844"/>
     </g>
    </g>
   </g>
   <g id="text_2">
    <g id="patch_3">
     <path d="M 353.950158 84.89233 
L 369.551865 72.680782 
Q 371.441787 71.201528 369.962534 69.311605 
L 365.190399 63.214635 
Q 363.711145 61.324713 361.821223 62.803966 
L 346.219516 75.015515 
Q 344.329593 76.494769 345.808847 78.384691 
L 350.580982 84.481661 
Q 352.060235 86.371584 353.950158 84.89233 
z
" clip-path="url(#p385083281a)" style="fill: #ffffff; stroke: #ffffff; stroke-linejoin: miter"/>
    </g>
    <g clip-path="url(#p385083281a)">
     <!-- r = x -->
     <g style="fill: #ff0000" transform="translate(351.445443 81.692258)rotate(-38.050498)scale(0.08 -0.08)">
      <defs>
       <path id="DejaVuSans-72" d="M 2631 2963 
Q 2534 3019 2420 3045 
Q 2306 3072 2169 3072 
Q 1681 3072 1420 2755 
Q 1159 2438 1159 1844 
L 1159 0 
L 581 0 
L 581 3500 
L 1159 3500 
L 1159 2956 
Q 1341 3275 1631 3429 
Q 1922 3584 2338 3584 
Q 2397 3584 2469 3576 
Q 2541 3569 2628 3553 
L 2631 2963 
z
" transform="scale(0.015625)"/>
       <path id="DejaVuSans-78" d="M 3513 3500 
L 2247 1797 
L 3578 0 
L 2900 0 
L 1881 1375 
L 863 0 
L 184 0 
L 1544 1831 
L 300 3500 
L 978 3500 
L 1906 2253 
L 2834 3500 
L 3513 3500 
z
" transform="scale(0.015625)"/>
      </defs>
      <use xlink:href="#DejaVuSans-72"/>
      <use xlink:href="#DejaVuSans-20" x="41.113281"/>
      <use xlink:href="#DejaVuSans-3d" x="72.900391"/>
      <use xlink:href="#DejaVuSans-20" x="156.689453"/>
      <use xlink:href="#DejaVuSans-78" x="188.476562"/>
     </g>
    </g>
   </g>
   <g id="text_3">
    <g id="patch_4">
     <path d="M 240.100992 156.941512 
L 265.071642 148.020852 
Q 267.331749 147.213438 266.524335 144.953331 
L 263.919584 137.662132 
Q 263.112171 135.402025 260.852064 136.209439 
L 235.881414 145.130099 
Q 233.621308 145.937513 234.428721 148.19762 
L 237.033472 155.488819 
Q 237.840886 157.748926 240.100992 156.941512 
z
" clip-path="url(#p385083281a)" style="fill: #ffffff; stroke: #ffffff; stroke-linejoin: miter"/>
    </g>
    <g clip-path="url(#p385083281a)">
     <!-- r &gt;= y -->
     <g style="fill: #ff0000" transform="translate(238.733856 153.114633)rotate(-19.659057)scale(0.08 -0.08)">
      <defs>
       <path id="DejaVuSans-3e" d="M 678 3150 
L 678 3719 
L 4684 2266 
L 4684 1747 
L 678 294 
L 678 863 
L 3897 2003 
L 678 3150 
z
" transform="scale(0.015625)"/>
       <path id="DejaVuSans-79" d="M 2059 -325 
Q 1816 -950 1584 -1140 
Q 1353 -1331 966 -1331 
L 506 -1331 
L 506 -850 
L 844 -850 
Q 1081 -850 1212 -737 
Q 1344 -625 1503 -206 
L 1606 56 
L 191 3500 
L 800 3500 
L 1894 763 
L 2988 3500 
L 3597 3500 
L 2059 -325 
z
" transform="scale(0.015625)"/>
      </defs>
      <use xlink:href="#DejaVuSans-72"/>
      <use xlink:href="#DejaVuSans-20" x="41.113281"/>
      <use xlink:href="#DejaVuSans-3e" x="72.900391"/>
      <use xlink:href="#DejaVuSans-3d" x="156.689453"/>
      <use xlink:href="#DejaVuSans-20" x="240.478516"/>
      <use xlink:href="#DejaVuSans-79" x="272.265625"/>
     </g>
    </g>
   </g>
   <g id="text_4">
    <g id="patch_5">
     <path d="M 164.815711 180.375108 
L 185.914995 174.296289 
Q 188.22119 173.631862 187.556762 171.325666 
L 185.413292 163.885785 
Q 184.748864 161.57959 182.442669 162.244017 
L 161.343386 168.322836 
Q 159.03719 168.987263 159.701618 171.293458 
L 161.845088 178.73334 
Q 162.509516 181.039535 164.815711 180.375108 
z
" clip-path="url(#p385083281a)" style="fill: #ffffff; stroke: #ffffff; stroke-linejoin: miter"/>
    </g>
    <g clip-path="url(#p385083281a)">
     <!-- d = 1 -->
     <g style="fill: #ff0000" transform="translate(163.690683 176.470191)rotate(-16.071979)scale(0.08 -0.08)">
      <defs>
       <path id="DejaVuSans-64" d="M 2906 2969 
L 2906 4863 
L 3481 4863 
L 3481 0 
L 2906 0 
L 2906 525 
Q 2725 213 2448 61 
Q 2172 -91 1784 -91 
Q 1150 -91 751 415 
Q 353 922 353 1747 
Q 353 2572 751 3078 
Q 1150 3584 1784 3584 
Q 2172 3584 2448 3432 
Q 2725 3281 2906 2969 
z
M 947 1747 
Q 947 1113 1208 752 
Q 1469 391 1925 391 
Q 2381 391 2643 752 
Q 2906 1113 2906 1747 
Q 2906 2381 2643 2742 
Q 2381 3103 1925 3103 
Q 1469 3103 1208 2742 
Q 947 2381 947 1747 
z
" transform="scale(0.015625)"/>
       <path id="DejaVuSans-31" d="M 794 531 
L 1825 531 
L 1825 4091 
L 703 3866 
L 703 4441 
L 1819 4666 
L 2450 4666 
L 2450 531 
L 3481 531 
L 3481 0 
L 794 0 
L 794 531 
z
" transform="scale(0.015625)"/>
      </defs>
      <use xlink:href="#DejaVuSans-64"/>
      <use xlink:href="#DejaVuSans-20" x="63.476562"/>
      <use xlink:href="#DejaVuSans-3d" x="95.263672"/>
      <use xlink:href="#DejaVuSans-20" x="179.052734"/>
      <use xlink:href="#DejaVuSans-31" x="210.839844"/>
     </g>
    </g>
   </g>
   <g id="text_5">
    <g id="patch_6">
     <path d="M 100.927779 211.504814 
L 123.383755 197.09585 
Q 125.403688 195.799752 124.10759 193.779819 
L 119.926324 187.26343 
Q 118.630226 185.243497 116.610293 186.539595 
L 94.154317 200.948559 
Q 92.134384 202.244657 93.430482 204.26459 
L 97.611748 210.780979 
Q 98.907846 212.800912 100.927779 211.504814 
z
" clip-path="url(#p385083281a)" style="fill: #ffffff; stroke: #ffffff; stroke-linejoin: miter"/>
    </g>
    <g clip-path="url(#p385083281a)">
     <!-- dd = y -->
     <g style="fill: #ff0000" transform="translate(98.733188 208.084604)rotate(-32.686418)scale(0.08 -0.08)">
      <use xlink:href="#DejaVuSans-64"/>
      <use xlink:href="#DejaVuSans-64" x="63.476562"/>
      <use xlink:href="#DejaVuSans-20" x="126.953125"/>
      <use xlink:href="#DejaVuSans-3d" x="158.740234"/>
      <use xlink:href="#DejaVuSans-20" x="242.529297"/>
      <use xlink:href="#DejaVuSans-79" x="274.316406"/>
     </g>
    </g>
   </g>
   <g id="text_6">
    <g id="patch_7">
     <path d="M 48.872166 288.37362 
L 78.791246 263.236005 
Q 80.628769 261.692143 79.084907 259.85462 
L 74.104343 253.926695 
Q 72.56048 252.089173 70.722958 253.633035 
L 40.803878 278.77065 
Q 38.966356 280.314512 40.510218 282.152035 
L 45.490782 288.079959 
Q 47.034644 289.917482 48.872166 288.37362 
z
" clip-path="url(#p385083281a)" style="fill: #ffffff; stroke: #ffffff; stroke-linejoin: miter"/>
    </g>
    <g clip-path="url(#p385083281a)">
     <!-- r &gt;= (2 *  -->
     <g style="fill: #ff0000" transform="translate(46.258054 285.262273)rotate(-40.036533)scale(0.08 -0.08)">
      <defs>
       <path id="DejaVuSans-28" d="M 1984 4856 
Q 1566 4138 1362 3434 
Q 1159 2731 1159 2009 
Q 1159 1288 1364 580 
Q 1569 -128 1984 -844 
L 1484 -844 
Q 1016 -109 783 600 
Q 550 1309 550 2009 
Q 550 2706 781 3412 
Q 1013 4119 1484 4856 
L 1984 4856 
z
" transform="scale(0.015625)"/>
       <path id="DejaVuSans-32" d="M 1228 531 
L 3431 531 
L 3431 0 
L 469 0 
L 469 531 
Q 828 903 1448 1529 
Q 2069 2156 2228 2338 
Q 2531 2678 2651 2914 
Q 2772 3150 2772 3378 
Q 2772 3750 2511 3984 
Q 2250 4219 1831 4219 
Q 1534 4219 1204 4116 
Q 875 4013 500 3803 
L 500 4441 
Q 881 4594 1212 4672 
Q 1544 4750 1819 4750 
Q 2544 4750 2975 4387 
Q 3406 4025 3406 3419 
Q 3406 3131 3298 2873 
Q 3191 2616 2906 2266 
Q 2828 2175 2409 1742 
Q 1991 1309 1228 531 
z
" transform="scale(0.015625)"/>
       <path id="DejaVuSans-2a" d="M 3009 3897 
L 1888 3291 
L 3009 2681 
L 2828 2375 
L 1778 3009 
L 1778 1831 
L 1422 1831 
L 1422 3009 
L 372 2375 
L 191 2681 
L 1313 3291 
L 191 3897 
L 372 4206 
L 1422 3572 
L 1422 4750 
L 1778 4750 
L 1778 3572 
L 2828 4206 
L 3009 3897 
z
" transform="scale(0.015625)"/>
      </defs>
      <use xlink:href="#DejaVuSans-72"/>
      <use xlink:href="#DejaVuSans-20" x="41.113281"/>
      <use xlink:href="#DejaVuSans-3e" x="72.900391"/>
      <use xlink:href="#DejaVuSans-3d" x="156.689453"/>
      <use xlink:href="#DejaVuSans-20" x="240.478516"/>
      <use xlink:href="#DejaVuSans-28" x="272.265625"/>
      <use xlink:href="#DejaVuSans-32" x="311.279297"/>
      <use xlink:href="#DejaVuSans-20" x="374.902344"/>
      <use xlink:href="#DejaVuSans-2a" x="406.689453"/>
      <use xlink:href="#DejaVuSans-20" x="456.689453"/>
     </g>
    </g>
   </g>
   <g id="text_7">
    <g id="patch_8">
     <path d="M 33.468235 289.312944 
L 56.287763 321.238528 
Q 57.683364 323.191039 59.635875 321.795438 
L 65.934756 317.293172 
Q 67.887266 315.897571 66.491665 313.94506 
L 43.672137 282.019476 
Q 42.276536 280.066965 40.324025 281.462566 
L 34.025144 285.964833 
Q 32.072634 287.360433 33.468235 289.312944 
z
" clip-path="url(#p385083281a)" style="fill: #ffffff; stroke: #ffffff; stroke-linejoin: miter"/>
    </g>
    <g clip-path="url(#p385083281a)">
     <!-- d = (2 * d -->
     <g style="fill: #ff0000" transform="translate(36.774283 286.949872)rotate(-305.55614)scale(0.08 -0.08)">
      <use xlink:href="#DejaVuSans-64"/>
      <use xlink:href="#DejaVuSans-20" x="63.476562"/>
      <use xlink:href="#DejaVuSans-3d" x="95.263672"/>
      <use xlink:href="#DejaVuSans-20" x="179.052734"/>
      <use xlink:href="#DejaVuSans-28" x="210.839844"/>
      <use xlink:href="#DejaVuSans-32" x="249.853516"/>
      <use xlink:href="#DejaVuSans-20" x="313.476562"/>
      <use xlink:href="#DejaVuSans-2a" x="345.263672"/>
      <use xlink:href="#DejaVuSans-20" x="395.263672"/>
      <use xlink:href="#DejaVuSans-64" x="427.050781"/>
     </g>
    </g>
   </g>
   <g id="text_8">
    <g id="patch_9">
     <path d="M 60.967539 323.899974 
L 90.342726 292.415661 
Q 91.979987 290.660846 90.225172 289.023585 
L 84.401378 283.589926 
Q 82.646563 281.952665 81.009302 283.70748 
L 51.634114 315.191793 
Q 49.996853 316.946608 51.751669 318.583869 
L 57.575462 324.017529 
Q 59.330278 325.654789 60.967539 323.899974 
z
" clip-path="url(#p385083281a)" style="fill: #ffffff; stroke: #ffffff; stroke-linejoin: miter"/>
    </g>
    <g clip-path="url(#p385083281a)">
     <!-- dd = (_a_0 -->
     <g style="fill: #ff0000" transform="translate(57.833548 320.975928)rotate(-46.984828)scale(0.08 -0.08)">
      <defs>
       <path id="DejaVuSans-5f" d="M 3263 -1063 
L 3263 -1509 
L -63 -1509 
L -63 -1063 
L 3263 -1063 
z
" transform="scale(0.015625)"/>
       <path id="DejaVuSans-61" d="M 2194 1759 
Q 1497 1759 1228 1600 
Q 959 1441 959 1056 
Q 959 750 1161 570 
Q 1363 391 1709 391 
Q 2188 391 2477 730 
Q 2766 1069 2766 1631 
L 2766 1759 
L 2194 1759 
z
M 3341 1997 
L 3341 0 
L 2766 0 
L 2766 531 
Q 2569 213 2275 61 
Q 1981 -91 1556 -91 
Q 1019 -91 701 211 
Q 384 513 384 1019 
Q 384 1609 779 1909 
Q 1175 2209 1959 2209 
L 2766 2209 
L 2766 2266 
Q 2766 2663 2505 2880 
Q 2244 3097 1772 3097 
Q 1472 3097 1187 3025 
Q 903 2953 641 2809 
L 641 3341 
Q 956 3463 1253 3523 
Q 1550 3584 1831 3584 
Q 2591 3584 2966 3190 
Q 3341 2797 3341 1997 
z
" transform="scale(0.015625)"/>
      </defs>
      <use xlink:href="#DejaVuSans-64"/>
      <use xlink:href="#DejaVuSans-64" x="63.476562"/>
      <use xlink:href="#DejaVuSans-20" x="126.953125"/>
      <use xlink:href="#DejaVuSans-3d" x="158.740234"/>
      <use xlink:href="#DejaVuSans-20" x="242.529297"/>
      <use xlink:href="#DejaVuSans-28" x="274.316406"/>
      <use xlink:href="#DejaVuSans-5f" x="313.330078"/>
      <use xlink:href="#DejaVuSans-61" x="363.330078"/>
      <use xlink:href="#DejaVuSans-5f" x="424.609375"/>
      <use xlink:href="#DejaVuSans-30" x="474.609375"/>
     </g>
    </g>
   </g>
   <g id="text_9">
    <g id="patch_10">
     <path d="M 90.797362 254.187909 
L 125.251966 230.0997 
Q 127.218928 228.724541 125.843768 226.75758 
L 121.407447 220.412081 
Q 120.032287 218.445119 118.065326 219.820279 
L 83.610721 243.908488 
Q 81.64376 245.283647 83.018919 247.250608 
L 87.455241 253.596107 
Q 88.8304 255.563069 90.797362 254.187909 
z
" clip-path="url(#p385083281a)" style="fill: #ffffff; stroke: #ffffff; stroke-linejoin: miter"/>
    </g>
    <g clip-path="url(#p385083281a)">
     <!-- Not(r &gt;= ( -->
     <g style="fill: #ff0000" transform="translate(88.468902 250.857393)rotate(-34.958509)scale(0.08 -0.08)">
      <defs>
       <path id="DejaVuSans-4e" d="M 628 4666 
L 1478 4666 
L 3547 763 
L 3547 4666 
L 4159 4666 
L 4159 0 
L 3309 0 
L 1241 3903 
L 1241 0 
L 628 0 
L 628 4666 
z
" transform="scale(0.015625)"/>
       <path id="DejaVuSans-6f" d="M 1959 3097 
Q 1497 3097 1228 2736 
Q 959 2375 959 1747 
Q 959 1119 1226 758 
Q 1494 397 1959 397 
Q 2419 397 2687 759 
Q 2956 1122 2956 1747 
Q 2956 2369 2687 2733 
Q 2419 3097 1959 3097 
z
M 1959 3584 
Q 2709 3584 3137 3096 
Q 3566 2609 3566 1747 
Q 3566 888 3137 398 
Q 2709 -91 1959 -91 
Q 1206 -91 779 398 
Q 353 888 353 1747 
Q 353 2609 779 3096 
Q 1206 3584 1959 3584 
z
" transform="scale(0.015625)"/>
       <path id="DejaVuSans-74" d="M 1172 4494 
L 1172 3500 
L 2356 3500 
L 2356 3053 
L 1172 3053 
L 1172 1153 
Q 1172 725 1289 603 
Q 1406 481 1766 481 
L 2356 481 
L 2356 0 
L 1766 0 
Q 1100 0 847 248 
Q 594 497 594 1153 
L 594 3053 
L 172 3053 
L 172 3500 
L 594 3500 
L 594 4494 
L 1172 4494 
z
" transform="scale(0.015625)"/>
      </defs>
      <use xlink:href="#DejaVuSans-4e"/>
      <use xlink:href="#DejaVuSans-6f" x="74.804688"/>
      <use xlink:href="#DejaVuSans-74" x="135.986328"/>
      <use xlink:href="#DejaVuSans-28" x="175.195312"/>
      <use xlink:href="#DejaVuSans-72" x="214.208984"/>
      <use xlink:href="#DejaVuSans-20" x="255.322266"/>
      <use xlink:href="#DejaVuSans-3e" x="287.109375"/>
      <use xlink:href="#DejaVuSans-3d" x="370.898438"/>
      <use xlink:href="#DejaVuSans-20" x="454.6875"/>
      <use xlink:href="#DejaVuSans-28" x="486.474609"/>
     </g>
    </g>
   </g>
   <g id="text_10">
    <g id="patch_11">
     <path d="M 142.124801 215.530875 
L 166.377185 190.941024 
Q 168.062476 189.232283 166.353735 187.546993 
L 160.841265 182.110175 
Q 159.132524 180.424885 157.447233 182.133626 
L 133.194849 206.723476 
Q 131.509558 208.432217 133.218299 210.117508 
L 138.730769 215.554325 
Q 140.43951 217.239616 142.124801 215.530875 
z
" clip-path="url(#p385083281a)" style="fill: #ffffff; stroke: #ffffff; stroke-linejoin: miter"/>
    </g>
    <g clip-path="url(#p385083281a)">
     <!-- r = (r - d -->
     <g style="fill: #ff0000" transform="translate(139.23151 212.677292)rotate(-45.395868)scale(0.08 -0.08)">
      <defs>
       <path id="DejaVuSans-2d" d="M 313 2009 
L 1997 2009 
L 1997 1497 
L 313 1497 
L 313 2009 
z
" transform="scale(0.015625)"/>
      </defs>
      <use xlink:href="#DejaVuSans-72"/>
      <use xlink:href="#DejaVuSans-20" x="41.113281"/>
      <use xlink:href="#DejaVuSans-3d" x="72.900391"/>
      <use xlink:href="#DejaVuSans-20" x="156.689453"/>
      <use xlink:href="#DejaVuSans-28" x="188.476562"/>
      <use xlink:href="#DejaVuSans-72" x="227.490234"/>
      <use xlink:href="#DejaVuSans-20" x="268.603516"/>
      <use xlink:href="#DejaVuSans-2d" x="300.390625"/>
      <use xlink:href="#DejaVuSans-20" x="336.474609"/>
      <use xlink:href="#DejaVuSans-64" x="368.261719"/>
     </g>
    </g>
   </g>
   <g id="text_11">
    <g id="patch_12">
     <path d="M 182.565713 177.704951 
L 217.845513 154.950588 
Q 219.862402 153.649758 218.561572 151.632869 
L 214.249185 144.946672 
Q 212.948355 142.929783 210.931466 144.230613 
L 175.651666 166.984976 
Q 173.634777 168.285806 174.935607 170.302695 
L 179.247994 176.988892 
Q 180.548824 179.005781 182.565713 177.704951 
z
" clip-path="url(#p385083281a)" style="fill: #ffffff; stroke: #ffffff; stroke-linejoin: miter"/>
    </g>
    <g clip-path="url(#p385083281a)">
     <!-- q = (_a_2_ -->
     <g style="fill: #ff0000" transform="translate(180.242512 174.102914)rotate(-32.820746)scale(0.08 -0.08)">
      <use xlink:href="#DejaVuSans-71"/>
      <use xlink:href="#DejaVuSans-20" x="63.476562"/>
      <use xlink:href="#DejaVuSans-3d" x="95.263672"/>
      <use xlink:href="#DejaVuSans-20" x="179.052734"/>
      <use xlink:href="#DejaVuSans-28" x="210.839844"/>
      <use xlink:href="#DejaVuSans-5f" x="249.853516"/>
      <use xlink:href="#DejaVuSans-61" x="299.853516"/>
      <use xlink:href="#DejaVuSans-5f" x="361.132812"/>
      <use xlink:href="#DejaVuSans-32" x="411.132812"/>
      <use xlink:href="#DejaVuSans-5f" x="474.755859"/>
     </g>
    </g>
   </g>
   <g id="text_12">
    <g id="patch_13">
     <path d="M 302.359526 142.573253 
L 345.094691 151.481427 
Q 347.444189 151.971181 347.933943 149.621683 
L 349.513911 142.042105 
Q 350.003666 139.692607 347.654168 139.202853 
L 304.919003 130.294678 
Q 302.569505 129.804924 302.07975 132.154422 
L 300.499782 139.734 
Q 300.010028 142.083498 302.359526 142.573253 
z
" clip-path="url(#p385083281a)" style="fill: #ffffff; stroke: #ffffff; stroke-linejoin: miter"/>
    </g>
    <g clip-path="url(#p385083281a)">
     <!-- Not(r &gt;= y -->
     <g style="fill: #ff0000" transform="translate(303.188792 138.595014)rotate(-348.225268)scale(0.08 -0.08)">
      <use xlink:href="#DejaVuSans-4e"/>
      <use xlink:href="#DejaVuSans-6f" x="74.804688"/>
      <use xlink:href="#DejaVuSans-74" x="135.986328"/>
      <use xlink:href="#DejaVuSans-28" x="175.195312"/>
      <use xlink:href="#DejaVuSans-72" x="214.208984"/>
      <use xlink:href="#DejaVuSans-20" x="255.322266"/>
      <use xlink:href="#DejaVuSans-3e" x="287.109375"/>
      <use xlink:href="#DejaVuSans-3d" x="370.898438"/>
      <use xlink:href="#DejaVuSans-20" x="454.6875"/>
      <use xlink:href="#DejaVuSans-79" x="486.474609"/>
     </g>
    </g>
   </g>
   <g id="PathCollection_1">
    <defs>
     <path id="m1e3226e440" d="M 0 11.18034 
C 2.965061 11.18034 5.80908 10.002309 7.905694 7.905694 
C 10.002309 5.80908 11.18034 2.965061 11.18034 0 
C 11.18034 -2.965061 10.002309 -5.80908 7.905694 -7.905694 
C 5.80908 -10.002309 2.965061 -11.18034 0 -11.18034 
C -2.965061 -11.18034 -5.80908 -10.002309 -7.905694 -7.905694 
C -10.002309 -5.80908 -11.18034 -2.965061 -11.18034 0 
C -11.18034 2.965061 -10.002309 5.80908 -7.905694 7.905694 
C -5.80908 10.002309 -2.965061 11.18034 0 11.18034 
z
" style="stroke: #ffc0cb; stroke-opacity: 0.9; stroke-width: 2"/>
    </defs>
    <g clip-path="url(#p385083281a)">
     <use xlink:href="#m1e3226e440" x="416.469656" y="29.990083" style="fill: #ffc0cb; fill-opacity: 0.9; stroke: #ffc0cb; stroke-opacity: 0.9; stroke-width: 2"/>
     <use xlink:href="#m1e3226e440" x="380.075871" y="56.479762" style="fill: #ffc0cb; fill-opacity: 0.9; stroke: #ffc0cb; stroke-opacity: 0.9; stroke-width: 2"/>
     <use xlink:href="#m1e3226e440" x="335.69551" y="91.216535" style="fill: #ffc0cb; fill-opacity: 0.9; stroke: #ffc0cb; stroke-opacity: 0.9; stroke-width: 2"/>
     <use xlink:href="#m1e3226e440" x="287.993673" y="133.172632" style="fill: #ffc0cb; fill-opacity: 0.9; stroke: #ffc0cb; stroke-opacity: 0.9; stroke-width: 2"/>
     <use xlink:href="#m1e3226e440" x="212.959383" y="159.978319" style="fill: #ffc0cb; fill-opacity: 0.9; stroke: #ffc0cb; stroke-opacity: 0.9; stroke-width: 2"/>
     <use xlink:href="#m1e3226e440" x="134.298997" y="182.640805" style="fill: #ffc0cb; fill-opacity: 0.9; stroke: #ffc0cb; stroke-opacity: 0.9; stroke-width: 2"/>
     <use xlink:href="#m1e3226e440" x="83.239075" y="215.403604" style="fill: #ffc0cb; fill-opacity: 0.9; stroke: #ffc0cb; stroke-opacity: 0.9; stroke-width: 2"/>
     <use xlink:href="#m1e3226e440" x="79.608347" y="254.358568" style="fill: #ffc0cb; fill-opacity: 0.9; stroke: #ffc0cb; stroke-opacity: 0.9; stroke-width: 2"/>
     <use xlink:href="#m1e3226e440" x="39.986777" y="287.648087" style="fill: #ffc0cb; fill-opacity: 0.9; stroke: #ffc0cb; stroke-opacity: 0.9; stroke-width: 2"/>
     <use xlink:href="#m1e3226e440" x="59.973123" y="315.609917" style="fill: #ffc0cb; fill-opacity: 0.9; stroke: #ffc0cb; stroke-opacity: 0.9; stroke-width: 2"/>
     <use xlink:href="#m1e3226e440" x="82.003717" y="291.997537" style="fill: #ffc0cb; fill-opacity: 0.9; stroke: #ffc0cb; stroke-opacity: 0.9; stroke-width: 2"/>
     <use xlink:href="#m1e3226e440" x="129.25434" y="219.649621" style="fill: #ffc0cb; fill-opacity: 0.9; stroke: #ffc0cb; stroke-opacity: 0.9; stroke-width: 2"/>
     <use xlink:href="#m1e3226e440" x="170.317694" y="178.01488" style="fill: #ffc0cb; fill-opacity: 0.9; stroke: #ffc0cb; stroke-opacity: 0.9; stroke-width: 2"/>
     <use xlink:href="#m1e3226e440" x="223.179485" y="143.920684" style="fill: #ffc0cb; fill-opacity: 0.9; stroke: #ffc0cb; stroke-opacity: 0.9; stroke-width: 2"/>
     <use xlink:href="#m1e3226e440" x="362.02002" y="148.603474" style="fill: #ffc0cb; fill-opacity: 0.9; stroke: #ffc0cb; stroke-opacity: 0.9; stroke-width: 2"/>
     <use xlink:href="#m1e3226e440" x="420.813223" y="160.702384" style="fill: #ffc0cb; fill-opacity: 0.9; stroke: #ffc0cb; stroke-opacity: 0.9; stroke-width: 2"/>
    </g>
   </g>
   <g id="text_13">
    <g clip-path="url(#p385083281a)">
     <!-- 0 -->
     <g style="opacity: 0.9" transform="translate(412.652156 33.301333)scale(0.12 -0.12)">
      <use xlink:href="#DejaVuSans-30"/>
     </g>
    </g>
   </g>
   <g id="text_14">
    <g clip-path="url(#p385083281a)">
     <!-- 1 -->
     <g style="opacity: 0.9" transform="translate(376.258371 59.791012)scale(0.12 -0.12)">
      <use xlink:href="#DejaVuSans-31"/>
     </g>
    </g>
   </g>
   <g id="text_15">
    <g clip-path="url(#p385083281a)">
     <!-- 2 -->
     <g style="opacity: 0.9" transform="translate(331.87801 94.527785)scale(0.12 -0.12)">
      <use xlink:href="#DejaVuSans-32"/>
     </g>
    </g>
   </g>
   <g id="text_16">
    <g clip-path="url(#p385083281a)">
     <!-- 3 -->
     <g style="opacity: 0.9" transform="translate(284.176173 136.483882)scale(0.12 -0.12)">
      <defs>
       <path id="DejaVuSans-33" d="M 2597 2516 
Q 3050 2419 3304 2112 
Q 3559 1806 3559 1356 
Q 3559 666 3084 287 
Q 2609 -91 1734 -91 
Q 1441 -91 1130 -33 
Q 819 25 488 141 
L 488 750 
Q 750 597 1062 519 
Q 1375 441 1716 441 
Q 2309 441 2620 675 
Q 2931 909 2931 1356 
Q 2931 1769 2642 2001 
Q 2353 2234 1838 2234 
L 1294 2234 
L 1294 2753 
L 1863 2753 
Q 2328 2753 2575 2939 
Q 2822 3125 2822 3475 
Q 2822 3834 2567 4026 
Q 2313 4219 1838 4219 
Q 1578 4219 1281 4162 
Q 984 4106 628 3988 
L 628 4550 
Q 988 4650 1302 4700 
Q 1616 4750 1894 4750 
Q 2613 4750 3031 4423 
Q 3450 4097 3450 3541 
Q 3450 3153 3228 2886 
Q 3006 2619 2597 2516 
z
" transform="scale(0.015625)"/>
      </defs>
      <use xlink:href="#DejaVuSans-33"/>
     </g>
    </g>
   </g>
   <g id="text_17">
    <g clip-path="url(#p385083281a)">
     <!-- 4 -->
     <g style="opacity: 0.9" transform="translate(209.141883 163.289569)scale(0.12 -0.12)">
      <defs>
       <path id="DejaVuSans-34" d="M 2419 4116 
L 825 1625 
L 2419 1625 
L 2419 4116 
z
M 2253 4666 
L 3047 4666 
L 3047 1625 
L 3713 1625 
L 3713 1100 
L 3047 1100 
L 3047 0 
L 2419 0 
L 2419 1100 
L 313 1100 
L 313 1709 
L 2253 4666 
z
" transform="scale(0.015625)"/>
      </defs>
      <use xlink:href="#DejaVuSans-34"/>
     </g>
    </g>
   </g>
   <g id="text_18">
    <g clip-path="url(#p385083281a)">
     <!-- 5 -->
     <g style="opacity: 0.9" transform="translate(130.481497 185.952055)scale(0.12 -0.12)">
      <defs>
       <path id="DejaVuSans-35" d="M 691 4666 
L 3169 4666 
L 3169 4134 
L 1269 4134 
L 1269 2991 
Q 1406 3038 1543 3061 
Q 1681 3084 1819 3084 
Q 2600 3084 3056 2656 
Q 3513 2228 3513 1497 
Q 3513 744 3044 326 
Q 2575 -91 1722 -91 
Q 1428 -91 1123 -41 
Q 819 9 494 109 
L 494 744 
Q 775 591 1075 516 
Q 1375 441 1709 441 
Q 2250 441 2565 725 
Q 2881 1009 2881 1497 
Q 2881 1984 2565 2268 
Q 2250 2553 1709 2553 
Q 1456 2553 1204 2497 
Q 953 2441 691 2322 
L 691 4666 
z
" transform="scale(0.015625)"/>
      </defs>
      <use xlink:href="#DejaVuSans-35"/>
     </g>
    </g>
   </g>
   <g id="text_19">
    <g clip-path="url(#p385083281a)">
     <!-- 6 -->
     <g style="opacity: 0.9" transform="translate(79.421575 218.714854)scale(0.12 -0.12)">
      <defs>
       <path id="DejaVuSans-36" d="M 2113 2584 
Q 1688 2584 1439 2293 
Q 1191 2003 1191 1497 
Q 1191 994 1439 701 
Q 1688 409 2113 409 
Q 2538 409 2786 701 
Q 3034 994 3034 1497 
Q 3034 2003 2786 2293 
Q 2538 2584 2113 2584 
z
M 3366 4563 
L 3366 3988 
Q 3128 4100 2886 4159 
Q 2644 4219 2406 4219 
Q 1781 4219 1451 3797 
Q 1122 3375 1075 2522 
Q 1259 2794 1537 2939 
Q 1816 3084 2150 3084 
Q 2853 3084 3261 2657 
Q 3669 2231 3669 1497 
Q 3669 778 3244 343 
Q 2819 -91 2113 -91 
Q 1303 -91 875 529 
Q 447 1150 447 2328 
Q 447 3434 972 4092 
Q 1497 4750 2381 4750 
Q 2619 4750 2861 4703 
Q 3103 4656 3366 4563 
z
" transform="scale(0.015625)"/>
      </defs>
      <use xlink:href="#DejaVuSans-36"/>
     </g>
    </g>
   </g>
   <g id="text_20">
    <g clip-path="url(#p385083281a)">
     <!-- 7 -->
     <g style="opacity: 0.9" transform="translate(75.790847 257.669818)scale(0.12 -0.12)">
      <defs>
       <path id="DejaVuSans-37" d="M 525 4666 
L 3525 4666 
L 3525 4397 
L 1831 0 
L 1172 0 
L 2766 4134 
L 525 4134 
L 525 4666 
z
" transform="scale(0.015625)"/>
      </defs>
      <use xlink:href="#DejaVuSans-37"/>
     </g>
    </g>
   </g>
   <g id="text_21">
    <g clip-path="url(#p385083281a)">
     <!-- 8 -->
     <g style="opacity: 0.9" transform="translate(36.169277 290.959337)scale(0.12 -0.12)">
      <defs>
       <path id="DejaVuSans-38" d="M 2034 2216 
Q 1584 2216 1326 1975 
Q 1069 1734 1069 1313 
Q 1069 891 1326 650 
Q 1584 409 2034 409 
Q 2484 409 2743 651 
Q 3003 894 3003 1313 
Q 3003 1734 2745 1975 
Q 2488 2216 2034 2216 
z
M 1403 2484 
Q 997 2584 770 2862 
Q 544 3141 544 3541 
Q 544 4100 942 4425 
Q 1341 4750 2034 4750 
Q 2731 4750 3128 4425 
Q 3525 4100 3525 3541 
Q 3525 3141 3298 2862 
Q 3072 2584 2669 2484 
Q 3125 2378 3379 2068 
Q 3634 1759 3634 1313 
Q 3634 634 3220 271 
Q 2806 -91 2034 -91 
Q 1263 -91 848 271 
Q 434 634 434 1313 
Q 434 1759 690 2068 
Q 947 2378 1403 2484 
z
M 1172 3481 
Q 1172 3119 1398 2916 
Q 1625 2713 2034 2713 
Q 2441 2713 2670 2916 
Q 2900 3119 2900 3481 
Q 2900 3844 2670 4047 
Q 2441 4250 2034 4250 
Q 1625 4250 1398 4047 
Q 1172 3844 1172 3481 
z
" transform="scale(0.015625)"/>
      </defs>
      <use xlink:href="#DejaVuSans-38"/>
     </g>
    </g>
   </g>
   <g id="text_22">
    <g clip-path="url(#p385083281a)">
     <!-- 9 -->
     <g style="opacity: 0.9" transform="translate(56.155623 318.921167)scale(0.12 -0.12)">
      <defs>
       <path id="DejaVuSans-39" d="M 703 97 
L 703 672 
Q 941 559 1184 500 
Q 1428 441 1663 441 
Q 2288 441 2617 861 
Q 2947 1281 2994 2138 
Q 2813 1869 2534 1725 
Q 2256 1581 1919 1581 
Q 1219 1581 811 2004 
Q 403 2428 403 3163 
Q 403 3881 828 4315 
Q 1253 4750 1959 4750 
Q 2769 4750 3195 4129 
Q 3622 3509 3622 2328 
Q 3622 1225 3098 567 
Q 2575 -91 1691 -91 
Q 1453 -91 1209 -44 
Q 966 3 703 97 
z
M 1959 2075 
Q 2384 2075 2632 2365 
Q 2881 2656 2881 3163 
Q 2881 3666 2632 3958 
Q 2384 4250 1959 4250 
Q 1534 4250 1286 3958 
Q 1038 3666 1038 3163 
Q 1038 2656 1286 2365 
Q 1534 2075 1959 2075 
z
" transform="scale(0.015625)"/>
      </defs>
      <use xlink:href="#DejaVuSans-39"/>
     </g>
    </g>
   </g>
   <g id="text_23">
    <g clip-path="url(#p385083281a)">
     <!-- 10 -->
     <g style="opacity: 0.9" transform="translate(74.368717 295.308787)scale(0.12 -0.12)">
      <use xlink:href="#DejaVuSans-31"/>
      <use xlink:href="#DejaVuSans-30" x="63.623047"/>
     </g>
    </g>
   </g>
   <g id="text_24">
    <g clip-path="url(#p385083281a)">
     <!-- 11 -->
     <g style="opacity: 0.9" transform="translate(121.61934 222.960871)scale(0.12 -0.12)">
      <use xlink:href="#DejaVuSans-31"/>
      <use xlink:href="#DejaVuSans-31" x="63.623047"/>
     </g>
    </g>
   </g>
   <g id="text_25">
    <g clip-path="url(#p385083281a)">
     <!-- 12 -->
     <g style="opacity: 0.9" transform="translate(162.682694 181.32613)scale(0.12 -0.12)">
      <use xlink:href="#DejaVuSans-31"/>
      <use xlink:href="#DejaVuSans-32" x="63.623047"/>
     </g>
    </g>
   </g>
   <g id="text_26">
    <g clip-path="url(#p385083281a)">
     <!-- 13 -->
     <g style="opacity: 0.9" transform="translate(215.544485 147.231934)scale(0.12 -0.12)">
      <use xlink:href="#DejaVuSans-31"/>
      <use xlink:href="#DejaVuSans-33" x="63.623047"/>
     </g>
    </g>
   </g>
   <g id="text_27">
    <g clip-path="url(#p385083281a)">
     <!-- 14 -->
     <g style="opacity: 0.9" transform="translate(354.38502 151.914724)scale(0.12 -0.12)">
      <use xlink:href="#DejaVuSans-31"/>
      <use xlink:href="#DejaVuSans-34" x="63.623047"/>
     </g>
    </g>
   </g>
   <g id="text_28">
    <g clip-path="url(#p385083281a)">
     <!-- 15 -->
     <g style="opacity: 0.9" transform="translate(413.178223 164.013634)scale(0.12 -0.12)">
      <use xlink:href="#DejaVuSans-31"/>
      <use xlink:href="#DejaVuSans-35" x="63.623047"/>
     </g>
    </g>
   </g>
   <g id="text_29">
    <g clip-path="url(#p385083281a)">
     <!-- (x &gt;= 0 and y &gt;= 1) -->
     <g transform="translate(479.8568 278.139206)scale(0.08 -0.08)">
      <defs>
       <path id="DejaVuSans-6e" d="M 3513 2113 
L 3513 0 
L 2938 0 
L 2938 2094 
Q 2938 2591 2744 2837 
Q 2550 3084 2163 3084 
Q 1697 3084 1428 2787 
Q 1159 2491 1159 1978 
L 1159 0 
L 581 0 
L 581 3500 
L 1159 3500 
L 1159 2956 
Q 1366 3272 1645 3428 
Q 1925 3584 2291 3584 
Q 2894 3584 3203 3211 
Q 3513 2838 3513 2113 
z
" transform="scale(0.015625)"/>
       <path id="DejaVuSans-29" d="M 513 4856 
L 1013 4856 
Q 1481 4119 1714 3412 
Q 1947 2706 1947 2009 
Q 1947 1309 1714 600 
Q 1481 -109 1013 -844 
L 513 -844 
Q 928 -128 1133 580 
Q 1338 1288 1338 2009 
Q 1338 2731 1133 3434 
Q 928 4138 513 4856 
z
" transform="scale(0.015625)"/>
      </defs>
      <use xlink:href="#DejaVuSans-28"/>
      <use xlink:href="#DejaVuSans-78" x="39.013672"/>
      <use xlink:href="#DejaVuSans-20" x="98.193359"/>
      <use xlink:href="#DejaVuSans-3e" x="129.980469"/>
      <use xlink:href="#DejaVuSans-3d" x="213.769531"/>
      <use xlink:href="#DejaVuSans-20" x="297.558594"/>
      <use xlink:href="#DejaVuSans-30" x="329.345703"/>
      <use xlink:href="#DejaVuSans-20" x="392.96875"/>
      <use xlink:href="#DejaVuSans-61" x="424.755859"/>
      <use xlink:href="#DejaVuSans-6e" x="486.035156"/>
      <use xlink:href="#DejaVuSans-64" x="549.414062"/>
      <use xlink:href="#DejaVuSans-20" x="612.890625"/>
      <use xlink:href="#DejaVuSans-79" x="644.677734"/>
      <use xlink:href="#DejaVuSans-20" x="703.857422"/>
      <use xlink:href="#DejaVuSans-3e" x="735.644531"/>
      <use xlink:href="#DejaVuSans-3d" x="819.433594"/>
      <use xlink:href="#DejaVuSans-20" x="903.222656"/>
      <use xlink:href="#DejaVuSans-31" x="935.009766"/>
      <use xlink:href="#DejaVuSans-29" x="998.632812"/>
     </g>
    </g>
   </g>
   <g id="text_30">
    <g clip-path="url(#p385083281a)">
     <!-- (x == ((q * y) + r) and r &gt;= 0) -->
     <g transform="translate(249.628184 247.391876)scale(0.08 -0.08)">
      <defs>
       <path id="DejaVuSans-2b" d="M 2944 4013 
L 2944 2272 
L 4684 2272 
L 4684 1741 
L 2944 1741 
L 2944 0 
L 2419 0 
L 2419 1741 
L 678 1741 
L 678 2272 
L 2419 2272 
L 2419 4013 
L 2944 4013 
z
" transform="scale(0.015625)"/>
      </defs>
      <use xlink:href="#DejaVuSans-28"/>
      <use xlink:href="#DejaVuSans-78" x="39.013672"/>
      <use xlink:href="#DejaVuSans-20" x="98.193359"/>
      <use xlink:href="#DejaVuSans-3d" x="129.980469"/>
      <use xlink:href="#DejaVuSans-3d" x="213.769531"/>
      <use xlink:href="#DejaVuSans-20" x="297.558594"/>
      <use xlink:href="#DejaVuSans-28" x="329.345703"/>
      <use xlink:href="#DejaVuSans-28" x="368.359375"/>
      <use xlink:href="#DejaVuSans-71" x="407.373047"/>
      <use xlink:href="#DejaVuSans-20" x="470.849609"/>
      <use xlink:href="#DejaVuSans-2a" x="502.636719"/>
      <use xlink:href="#DejaVuSans-20" x="552.636719"/>
      <use xlink:href="#DejaVuSans-79" x="584.423828"/>
      <use xlink:href="#DejaVuSans-29" x="643.603516"/>
      <use xlink:href="#DejaVuSans-20" x="682.617188"/>
      <use xlink:href="#DejaVuSans-2b" x="714.404297"/>
      <use xlink:href="#DejaVuSans-20" x="798.193359"/>
      <use xlink:href="#DejaVuSans-72" x="829.980469"/>
      <use xlink:href="#DejaVuSans-29" x="871.09375"/>
      <use xlink:href="#DejaVuSans-20" x="910.107422"/>
      <use xlink:href="#DejaVuSans-61" x="941.894531"/>
      <use xlink:href="#DejaVuSans-6e" x="1003.173828"/>
      <use xlink:href="#DejaVuSans-64" x="1066.552734"/>
      <use xlink:href="#DejaVuSans-20" x="1130.029297"/>
      <use xlink:href="#DejaVuSans-72" x="1161.816406"/>
      <use xlink:href="#DejaVuSans-20" x="1202.929688"/>
      <use xlink:href="#DejaVuSans-3e" x="1234.716797"/>
      <use xlink:href="#DejaVuSans-3d" x="1318.505859"/>
      <use xlink:href="#DejaVuSans-20" x="1402.294922"/>
      <use xlink:href="#DejaVuSans-30" x="1434.082031"/>
      <use xlink:href="#DejaVuSans-29" x="1497.705078"/>
     </g>
    </g>
   </g>
   <g id="text_31">
    <g clip-path="url(#p385083281a)">
     <!-- (((dd == (y * d) and x == ((q * y) + r)) and r &gt;= 0) and r &gt;= (y * d)) -->
     <g transform="translate(137.686849 93.474546)scale(0.08 -0.08)">
      <use xlink:href="#DejaVuSans-28"/>
      <use xlink:href="#DejaVuSans-28" x="39.013672"/>
      <use xlink:href="#DejaVuSans-28" x="78.027344"/>
      <use xlink:href="#DejaVuSans-64" x="117.041016"/>
      <use xlink:href="#DejaVuSans-64" x="180.517578"/>
      <use xlink:href="#DejaVuSans-20" x="243.994141"/>
      <use xlink:href="#DejaVuSans-3d" x="275.78125"/>
      <use xlink:href="#DejaVuSans-3d" x="359.570312"/>
      <use xlink:href="#DejaVuSans-20" x="443.359375"/>
      <use xlink:href="#DejaVuSans-28" x="475.146484"/>
      <use xlink:href="#DejaVuSans-79" x="514.160156"/>
      <use xlink:href="#DejaVuSans-20" x="573.339844"/>
      <use xlink:href="#DejaVuSans-2a" x="605.126953"/>
      <use xlink:href="#DejaVuSans-20" x="655.126953"/>
      <use xlink:href="#DejaVuSans-64" x="686.914062"/>
      <use xlink:href="#DejaVuSans-29" x="750.390625"/>
      <use xlink:href="#DejaVuSans-20" x="789.404297"/>
      <use xlink:href="#DejaVuSans-61" x="821.191406"/>
      <use xlink:href="#DejaVuSans-6e" x="882.470703"/>
      <use xlink:href="#DejaVuSans-64" x="945.849609"/>
      <use xlink:href="#DejaVuSans-20" x="1009.326172"/>
      <use xlink:href="#DejaVuSans-78" x="1041.113281"/>
      <use xlink:href="#DejaVuSans-20" x="1100.292969"/>
      <use xlink:href="#DejaVuSans-3d" x="1132.080078"/>
      <use xlink:href="#DejaVuSans-3d" x="1215.869141"/>
      <use xlink:href="#DejaVuSans-20" x="1299.658203"/>
      <use xlink:href="#DejaVuSans-28" x="1331.445312"/>
      <use xlink:href="#DejaVuSans-28" x="1370.458984"/>
      <use xlink:href="#DejaVuSans-71" x="1409.472656"/>
      <use xlink:href="#DejaVuSans-20" x="1472.949219"/>
      <use xlink:href="#DejaVuSans-2a" x="1504.736328"/>
      <use xlink:href="#DejaVuSans-20" x="1554.736328"/>
      <use xlink:href="#DejaVuSans-79" x="1586.523438"/>
      <use xlink:href="#DejaVuSans-29" x="1645.703125"/>
      <use xlink:href="#DejaVuSans-20" x="1684.716797"/>
      <use xlink:href="#DejaVuSans-2b" x="1716.503906"/>
      <use xlink:href="#DejaVuSans-20" x="1800.292969"/>
      <use xlink:href="#DejaVuSans-72" x="1832.080078"/>
      <use xlink:href="#DejaVuSans-29" x="1873.193359"/>
      <use xlink:href="#DejaVuSans-29" x="1912.207031"/>
      <use xlink:href="#DejaVuSans-20" x="1951.220703"/>
      <use xlink:href="#DejaVuSans-61" x="1983.007812"/>
      <use xlink:href="#DejaVuSans-6e" x="2044.287109"/>
      <use xlink:href="#DejaVuSans-64" x="2107.666016"/>
      <use xlink:href="#DejaVuSans-20" x="2171.142578"/>
      <use xlink:href="#DejaVuSans-72" x="2202.929688"/>
      <use xlink:href="#DejaVuSans-20" x="2244.042969"/>
      <use xlink:href="#DejaVuSans-3e" x="2275.830078"/>
      <use xlink:href="#DejaVuSans-3d" x="2359.619141"/>
      <use xlink:href="#DejaVuSans-20" x="2443.408203"/>
      <use xlink:href="#DejaVuSans-30" x="2475.195312"/>
      <use xlink:href="#DejaVuSans-29" x="2538.818359"/>
      <use xlink:href="#DejaVuSans-20" x="2577.832031"/>
      <use xlink:href="#DejaVuSans-61" x="2609.619141"/>
      <use xlink:href="#DejaVuSans-6e" x="2670.898438"/>
      <use xlink:href="#DejaVuSans-64" x="2734.277344"/>
      <use xlink:href="#DejaVuSans-20" x="2797.753906"/>
      <use xlink:href="#DejaVuSans-72" x="2829.541016"/>
      <use xlink:href="#DejaVuSans-20" x="2870.654297"/>
      <use xlink:href="#DejaVuSans-3e" x="2902.441406"/>
      <use xlink:href="#DejaVuSans-3d" x="2986.230469"/>
      <use xlink:href="#DejaVuSans-20" x="3070.019531"/>
      <use xlink:href="#DejaVuSans-28" x="3101.806641"/>
      <use xlink:href="#DejaVuSans-79" x="3140.820312"/>
      <use xlink:href="#DejaVuSans-20" x="3200"/>
      <use xlink:href="#DejaVuSans-2a" x="3231.787109"/>
      <use xlink:href="#DejaVuSans-20" x="3281.787109"/>
      <use xlink:href="#DejaVuSans-64" x="3313.574219"/>
      <use xlink:href="#DejaVuSans-29" x="3377.050781"/>
      <use xlink:href="#DejaVuSans-29" x="3416.064453"/>
     </g>
    </g>
   </g>
   <g id="text_32">
    <g clip-path="url(#p385083281a)">
     <!-- 1 &gt;= 0 -->
     <g transform="translate(129.443759 296.904943)scale(0.08 -0.08)">
      <use xlink:href="#DejaVuSans-31"/>
      <use xlink:href="#DejaVuSans-20" x="63.623047"/>
      <use xlink:href="#DejaVuSans-3e" x="95.410156"/>
      <use xlink:href="#DejaVuSans-3d" x="179.199219"/>
      <use xlink:href="#DejaVuSans-20" x="262.988281"/>
      <use xlink:href="#DejaVuSans-30" x="294.775391"/>
     </g>
    </g>
   </g>
  </g>
 </g>
 <defs>
  <clipPath id="p385083281a">
   <rect x="0" y="0" width="460.8" height="345.6"/>
  </clipPath>
 </defs>
</svg>
