<?xml version="1.0" encoding="utf-8" standalone="no"?>
<!DOCTYPE svg PUBLIC "-//W3C//DTD SVG 1.1//EN"
  "http://www.w3.org/Graphics/SVG/1.1/DTD/svg11.dtd">
<svg xmlns:xlink="http://www.w3.org/1999/xlink" width="460.8pt" height="345.6pt" viewBox="0 0 460.8 345.6" xmlns="http://www.w3.org/2000/svg" version="1.1">
 <metadata>
  <rdf:RDF xmlns:dc="http://purl.org/dc/elements/1.1/" xmlns:cc="http://creativecommons.org/ns#" xmlns:rdf="http://www.w3.org/1999/02/22-rdf-syntax-ns#">
   <cc:Work>
    <dc:type rdf:resource="http://purl.org/dc/dcmitype/StillImage"/>
    <dc:date>2022-12-30T18:09:21.653567</dc:date>
    <dc:format>image/svg+xml</dc:format>
    <dc:creator>
     <cc:Agent>
      <dc:title>Matplotlib v3.5.1, https://matplotlib.org/</dc:title>
     </cc:Agent>
    </dc:creator>
   </cc:Work>
  </rdf:RDF>
 </metadata>
 <defs>
  <style type="text/css">*{stroke-linejoin: round; stroke-linecap: butt}</style>
 </defs>
 <g id="figure_1">
  <g id="patch_1">
   <path d="M 0 345.6 
L 460.8 345.6 
L 460.8 0 
L 0 0 
z
" style="fill: #ffffff"/>
  </g>
  <g id="axes_1">
   <g id="LineCollection_1">
    <path d="M 125.833446 29.990083 
L 151.857813 59.97227 
" clip-path="url(#pb133e7407c)" style="fill: none; stroke: #000000; stroke-opacity: 0.9"/>
    <path d="M 151.857813 59.97227 
L 184.094881 97.88672 
" clip-path="url(#pb133e7407c)" style="fill: none; stroke: #000000; stroke-opacity: 0.9"/>
    <path d="M 184.094881 97.88672 
L 219.732448 142.502602 
" clip-path="url(#pb133e7407c)" style="fill: none; stroke: #000000; stroke-opacity: 0.9"/>
    <path d="M 219.732448 142.502602 
L 258.958482 192.201244 
" clip-path="url(#pb133e7407c)" style="fill: none; stroke: #000000; stroke-opacity: 0.9"/>
    <path d="M 258.958482 192.201244 
L 285.609626 226.121283 
" clip-path="url(#pb133e7407c)" style="fill: none; stroke: #000000; stroke-opacity: 0.9"/>
    <path d="M 258.958482 192.201244 
L 207.375625 244.523279 
" clip-path="url(#pb133e7407c)" style="fill: none; stroke: #000000; stroke-opacity: 0.9"/>
    <path d="M 258.958482 192.201244 
L 349.364577 167.966366 
" clip-path="url(#pb133e7407c)" style="fill: none; stroke: #000000; stroke-opacity: 0.9"/>
    <path d="M 285.609626 226.121283 
L 268.434732 264.315788 
" clip-path="url(#pb133e7407c)" style="fill: none; stroke: #000000; stroke-opacity: 0.9"/>
    <path d="M 268.434732 264.315788 
L 162.947991 270.781848 
" clip-path="url(#pb133e7407c)" style="fill: none; stroke: #000000; stroke-opacity: 0.9"/>
    <path d="M 268.434732 264.315788 
L 330.197869 293.471136 
" clip-path="url(#pb133e7407c)" style="fill: none; stroke: #000000; stroke-opacity: 0.9"/>
    <path d="M 162.947991 270.781848 
L 68.441804 277.341869 
" clip-path="url(#pb133e7407c)" style="fill: none; stroke: #000000; stroke-opacity: 0.9"/>
    <path d="M 68.441804 277.341869 
L 39.986777 292.418052 
" clip-path="url(#pb133e7407c)" style="fill: none; stroke: #000000; stroke-opacity: 0.9"/>
    <path d="M 39.986777 292.418052 
L 114.57676 271.063383 
" clip-path="url(#pb133e7407c)" style="fill: none; stroke: #000000; stroke-opacity: 0.9"/>
    <path d="M 114.57676 271.063383 
L 207.375625 244.523279 
" clip-path="url(#pb133e7407c)" style="fill: none; stroke: #000000; stroke-opacity: 0.9"/>
    <path d="M 330.197869 293.471136 
L 306.412148 315.609917 
" clip-path="url(#pb133e7407c)" style="fill: none; stroke: #000000; stroke-opacity: 0.9"/>
    <path d="M 306.412148 315.609917 
L 252.093474 287.967293 
" clip-path="url(#pb133e7407c)" style="fill: none; stroke: #000000; stroke-opacity: 0.9"/>
    <path d="M 252.093474 287.967293 
L 207.375625 244.523279 
" clip-path="url(#pb133e7407c)" style="fill: none; stroke: #000000; stroke-opacity: 0.9"/>
    <path d="M 349.364577 167.966366 
L 420.813223 149.87584 
" clip-path="url(#pb133e7407c)" style="fill: none; stroke: #000000; stroke-opacity: 0.9"/>
   </g>
   <g id="text_1">
    <g id="patch_2">
     <path d="M 121.728407 34.827826 
L 146.490848 63.356172 
Q 148.064055 65.168634 149.876518 63.595428 
L 155.723597 58.520196 
Q 157.536059 56.946989 155.962852 55.134527 
L 131.200411 26.60618 
Q 129.627204 24.793718 127.814741 26.366925 
L 121.967662 31.442156 
Q 120.1552 33.015363 121.728407 34.827826 
z
" clip-path="url(#pb133e7407c)" style="fill: #ffffff; stroke: #ffffff; stroke-linejoin: miter"/>
    </g>
    <g clip-path="url(#pb133e7407c)">
     <!-- r = (a + - -->
     <g style="fill: #ff0000" transform="translate(124.797321 32.164026)rotate(-310.957794)scale(0.08 -0.08)">
      <defs>
       <path id="DejaVuSans-72" d="M 2631 2963 
Q 2534 3019 2420 3045 
Q 2306 3072 2169 3072 
Q 1681 3072 1420 2755 
Q 1159 2438 1159 1844 
L 1159 0 
L 581 0 
L 581 3500 
L 1159 3500 
L 1159 2956 
Q 1341 3275 1631 3429 
Q 1922 3584 2338 3584 
Q 2397 3584 2469 3576 
Q 2541 3569 2628 3553 
L 2631 2963 
z
" transform="scale(0.015625)"/>
       <path id="DejaVuSans-20" transform="scale(0.015625)"/>
       <path id="DejaVuSans-3d" d="M 678 2906 
L 4684 2906 
L 4684 2381 
L 678 2381 
L 678 2906 
z
M 678 1631 
L 4684 1631 
L 4684 1100 
L 678 1100 
L 678 1631 
z
" transform="scale(0.015625)"/>
       <path id="DejaVuSans-28" d="M 1984 4856 
Q 1566 4138 1362 3434 
Q 1159 2731 1159 2009 
Q 1159 1288 1364 580 
Q 1569 -128 1984 -844 
L 1484 -844 
Q 1016 -109 783 600 
Q 550 1309 550 2009 
Q 550 2706 781 3412 
Q 1013 4119 1484 4856 
L 1984 4856 
z
" transform="scale(0.015625)"/>
       <path id="DejaVuSans-61" d="M 2194 1759 
Q 1497 1759 1228 1600 
Q 959 1441 959 1056 
Q 959 750 1161 570 
Q 1363 391 1709 391 
Q 2188 391 2477 730 
Q 2766 1069 2766 1631 
L 2766 1759 
L 2194 1759 
z
M 3341 1997 
L 3341 0 
L 2766 0 
L 2766 531 
Q 2569 213 2275 61 
Q 1981 -91 1556 -91 
Q 1019 -91 701 211 
Q 384 513 384 1019 
Q 384 1609 779 1909 
Q 1175 2209 1959 2209 
L 2766 2209 
L 2766 2266 
Q 2766 2663 2505 2880 
Q 2244 3097 1772 3097 
Q 1472 3097 1187 3025 
Q 903 2953 641 2809 
L 641 3341 
Q 956 3463 1253 3523 
Q 1550 3584 1831 3584 
Q 2591 3584 2966 3190 
Q 3341 2797 3341 1997 
z
" transform="scale(0.015625)"/>
       <path id="DejaVuSans-2b" d="M 2944 4013 
L 2944 2272 
L 4684 2272 
L 4684 1741 
L 2944 1741 
L 2944 0 
L 2419 0 
L 2419 1741 
L 678 1741 
L 678 2272 
L 2419 2272 
L 2419 4013 
L 2944 4013 
z
" transform="scale(0.015625)"/>
       <path id="DejaVuSans-2d" d="M 313 2009 
L 1997 2009 
L 1997 1497 
L 313 1497 
L 313 2009 
z
" transform="scale(0.015625)"/>
      </defs>
      <use xlink:href="#DejaVuSans-72"/>
      <use xlink:href="#DejaVuSans-20" x="41.113281"/>
      <use xlink:href="#DejaVuSans-3d" x="72.900391"/>
      <use xlink:href="#DejaVuSans-20" x="156.689453"/>
      <use xlink:href="#DejaVuSans-28" x="188.476562"/>
      <use xlink:href="#DejaVuSans-61" x="227.490234"/>
      <use xlink:href="#DejaVuSans-20" x="288.769531"/>
      <use xlink:href="#DejaVuSans-2b" x="320.556641"/>
      <use xlink:href="#DejaVuSans-20" x="404.345703"/>
      <use xlink:href="#DejaVuSans-2d" x="436.132812"/>
     </g>
    </g>
   </g>
   <g id="text_2">
    <g id="patch_3">
     <path d="M 156.08702 74.6277 
L 170.310267 91.355852 
Q 171.864897 93.184273 173.693319 91.629643 
L 179.591882 86.614341 
Q 181.420304 85.059711 179.865674 83.23129 
L 165.642427 66.503138 
Q 164.087797 64.674716 162.259375 66.229347 
L 156.360812 71.244648 
Q 154.53239 72.799278 156.08702 74.6277 
z
" clip-path="url(#pb133e7407c)" style="fill: #ffffff; stroke: #ffffff; stroke-linejoin: miter"/>
    </g>
    <g clip-path="url(#pb133e7407c)">
     <!-- q = 1 -->
     <g style="fill: #ff0000" transform="translate(159.182957 71.995355)rotate(-310.373121)scale(0.08 -0.08)">
      <defs>
       <path id="DejaVuSans-71" d="M 947 1747 
Q 947 1113 1208 752 
Q 1469 391 1925 391 
Q 2381 391 2643 752 
Q 2906 1113 2906 1747 
Q 2906 2381 2643 2742 
Q 2381 3103 1925 3103 
Q 1469 3103 1208 2742 
Q 947 2381 947 1747 
z
M 2906 525 
Q 2725 213 2448 61 
Q 2172 -91 1784 -91 
Q 1150 -91 751 415 
Q 353 922 353 1747 
Q 353 2572 751 3078 
Q 1150 3584 1784 3584 
Q 2172 3584 2448 3432 
Q 2725 3281 2906 2969 
L 2906 3500 
L 3481 3500 
L 3481 -1331 
L 2906 -1331 
L 2906 525 
z
" transform="scale(0.015625)"/>
       <path id="DejaVuSans-31" d="M 794 531 
L 1825 531 
L 1825 4091 
L 703 3866 
L 703 4441 
L 1819 4666 
L 2450 4666 
L 2450 531 
L 3481 531 
L 3481 0 
L 794 0 
L 794 531 
z
" transform="scale(0.015625)"/>
      </defs>
      <use xlink:href="#DejaVuSans-71"/>
      <use xlink:href="#DejaVuSans-20" x="63.476562"/>
      <use xlink:href="#DejaVuSans-3d" x="95.263672"/>
      <use xlink:href="#DejaVuSans-20" x="179.052734"/>
      <use xlink:href="#DejaVuSans-31" x="210.839844"/>
     </g>
    </g>
   </g>
   <g id="text_3">
    <g id="patch_4">
     <path d="M 187.780039 112.548666 
L 206.247338 135.668506 
Q 207.745192 137.543721 209.620407 136.045866 
L 215.669929 131.213725 
Q 217.545144 129.71587 216.04729 127.840655 
L 197.579991 104.720816 
Q 196.082137 102.845601 194.206922 104.343455 
L 188.157399 109.175597 
Q 186.282184 110.673451 187.780039 112.548666 
z
" clip-path="url(#pb133e7407c)" style="fill: #ffffff; stroke: #ffffff; stroke-linejoin: miter"/>
    </g>
    <g clip-path="url(#pb133e7407c)">
     <!-- p = 0.5 -->
     <g style="fill: #ff0000" transform="translate(190.955208 110.012455)rotate(-308.616606)scale(0.08 -0.08)">
      <defs>
       <path id="DejaVuSans-70" d="M 1159 525 
L 1159 -1331 
L 581 -1331 
L 581 3500 
L 1159 3500 
L 1159 2969 
Q 1341 3281 1617 3432 
Q 1894 3584 2278 3584 
Q 2916 3584 3314 3078 
Q 3713 2572 3713 1747 
Q 3713 922 3314 415 
Q 2916 -91 2278 -91 
Q 1894 -91 1617 61 
Q 1341 213 1159 525 
z
M 3116 1747 
Q 3116 2381 2855 2742 
Q 2594 3103 2138 3103 
Q 1681 3103 1420 2742 
Q 1159 2381 1159 1747 
Q 1159 1113 1420 752 
Q 1681 391 2138 391 
Q 2594 391 2855 752 
Q 3116 1113 3116 1747 
z
" transform="scale(0.015625)"/>
       <path id="DejaVuSans-30" d="M 2034 4250 
Q 1547 4250 1301 3770 
Q 1056 3291 1056 2328 
Q 1056 1369 1301 889 
Q 1547 409 2034 409 
Q 2525 409 2770 889 
Q 3016 1369 3016 2328 
Q 3016 3291 2770 3770 
Q 2525 4250 2034 4250 
z
M 2034 4750 
Q 2819 4750 3233 4129 
Q 3647 3509 3647 2328 
Q 3647 1150 3233 529 
Q 2819 -91 2034 -91 
Q 1250 -91 836 529 
Q 422 1150 422 2328 
Q 422 3509 836 4129 
Q 1250 4750 2034 4750 
z
" transform="scale(0.015625)"/>
       <path id="DejaVuSans-2e" d="M 684 794 
L 1344 794 
L 1344 0 
L 684 0 
L 684 794 
z
" transform="scale(0.015625)"/>
       <path id="DejaVuSans-35" d="M 691 4666 
L 3169 4666 
L 3169 4134 
L 1269 4134 
L 1269 2991 
Q 1406 3038 1543 3061 
Q 1681 3084 1819 3084 
Q 2600 3084 3056 2656 
Q 3513 2228 3513 1497 
Q 3513 744 3044 326 
Q 2575 -91 1722 -91 
Q 1428 -91 1123 -41 
Q 819 9 494 109 
L 494 744 
Q 775 591 1075 516 
Q 1375 441 1709 441 
Q 2250 441 2565 725 
Q 2881 1009 2881 1497 
Q 2881 1984 2565 2268 
Q 2250 2553 1709 2553 
Q 1456 2553 1204 2497 
Q 953 2441 691 2322 
L 691 4666 
z
" transform="scale(0.015625)"/>
      </defs>
      <use xlink:href="#DejaVuSans-70"/>
      <use xlink:href="#DejaVuSans-20" x="63.476562"/>
      <use xlink:href="#DejaVuSans-3d" x="95.263672"/>
      <use xlink:href="#DejaVuSans-20" x="179.052734"/>
      <use xlink:href="#DejaVuSans-30" x="210.839844"/>
      <use xlink:href="#DejaVuSans-2e" x="274.462891"/>
      <use xlink:href="#DejaVuSans-35" x="306.25"/>
     </g>
    </g>
   </g>
   <g id="text_4">
    <g id="patch_5">
     <path d="M 256.67039 199.439752 
L 278.035276 226.631746 
Q 279.518037 228.518918 281.405209 227.036157 
L 287.493306 222.252709 
Q 289.380479 220.769948 287.897718 218.882775 
L 266.532832 191.690782 
Q 265.050071 189.803609 263.162899 191.28637 
L 257.074802 196.069819 
Q 255.187629 197.55258 256.67039 199.439752 
z
" clip-path="url(#pb133e7407c)" style="fill: #ffffff; stroke: #ffffff; stroke-linejoin: miter"/>
    </g>
    <g clip-path="url(#pb133e7407c)">
     <!-- (2 * (p *  -->
     <g style="fill: #ff0000" transform="translate(259.865806 196.929098)rotate(-308.156898)scale(0.08 -0.08)">
      <defs>
       <path id="DejaVuSans-32" d="M 1228 531 
L 3431 531 
L 3431 0 
L 469 0 
L 469 531 
Q 828 903 1448 1529 
Q 2069 2156 2228 2338 
Q 2531 2678 2651 2914 
Q 2772 3150 2772 3378 
Q 2772 3750 2511 3984 
Q 2250 4219 1831 4219 
Q 1534 4219 1204 4116 
Q 875 4013 500 3803 
L 500 4441 
Q 881 4594 1212 4672 
Q 1544 4750 1819 4750 
Q 2544 4750 2975 4387 
Q 3406 4025 3406 3419 
Q 3406 3131 3298 2873 
Q 3191 2616 2906 2266 
Q 2828 2175 2409 1742 
Q 1991 1309 1228 531 
z
" transform="scale(0.015625)"/>
       <path id="DejaVuSans-2a" d="M 3009 3897 
L 1888 3291 
L 3009 2681 
L 2828 2375 
L 1778 3009 
L 1778 1831 
L 1422 1831 
L 1422 3009 
L 372 2375 
L 191 2681 
L 1313 3291 
L 191 3897 
L 372 4206 
L 1422 3572 
L 1422 4750 
L 1778 4750 
L 1778 3572 
L 2828 4206 
L 3009 3897 
z
" transform="scale(0.015625)"/>
      </defs>
      <use xlink:href="#DejaVuSans-28"/>
      <use xlink:href="#DejaVuSans-32" x="39.013672"/>
      <use xlink:href="#DejaVuSans-20" x="102.636719"/>
      <use xlink:href="#DejaVuSans-2a" x="134.423828"/>
      <use xlink:href="#DejaVuSans-20" x="184.423828"/>
      <use xlink:href="#DejaVuSans-28" x="216.210938"/>
      <use xlink:href="#DejaVuSans-70" x="255.224609"/>
      <use xlink:href="#DejaVuSans-20" x="318.701172"/>
      <use xlink:href="#DejaVuSans-2a" x="350.488281"/>
      <use xlink:href="#DejaVuSans-20" x="400.488281"/>
     </g>
    </g>
   </g>
   <g id="text_5">
    <g id="patch_6">
     <path d="M 199.859862 274.802268 
L 232.290243 272.814371 
Q 234.685747 272.667532 234.538909 270.272029 
L 234.065203 262.544033 
Q 233.918365 260.14853 231.522861 260.295368 
L 199.09248 262.283265 
Q 196.696976 262.430103 196.843815 264.825607 
L 197.31752 272.553602 
Q 197.464358 274.949106 199.859862 274.802268 
z
" clip-path="url(#pb133e7407c)" style="fill: #ffffff; stroke: #ffffff; stroke-linejoin: miter"/>
    </g>
    <g clip-path="url(#pb133e7407c)">
     <!-- (((2 * r)  -->
     <g style="fill: #ff0000" transform="translate(199.611232 270.746131)rotate(-3.507692)scale(0.08 -0.08)">
      <defs>
       <path id="DejaVuSans-29" d="M 513 4856 
L 1013 4856 
Q 1481 4119 1714 3412 
Q 1947 2706 1947 2009 
Q 1947 1309 1714 600 
Q 1481 -109 1013 -844 
L 513 -844 
Q 928 -128 1133 580 
Q 1338 1288 1338 2009 
Q 1338 2731 1133 3434 
Q 928 4138 513 4856 
z
" transform="scale(0.015625)"/>
      </defs>
      <use xlink:href="#DejaVuSans-28"/>
      <use xlink:href="#DejaVuSans-28" x="39.013672"/>
      <use xlink:href="#DejaVuSans-28" x="78.027344"/>
      <use xlink:href="#DejaVuSans-32" x="117.041016"/>
      <use xlink:href="#DejaVuSans-20" x="180.664062"/>
      <use xlink:href="#DejaVuSans-2a" x="212.451172"/>
      <use xlink:href="#DejaVuSans-20" x="262.451172"/>
      <use xlink:href="#DejaVuSans-72" x="294.238281"/>
      <use xlink:href="#DejaVuSans-29" x="335.351562"/>
      <use xlink:href="#DejaVuSans-20" x="374.365234"/>
     </g>
    </g>
   </g>
   <g id="text_6">
    <g id="patch_7">
     <path d="M 96.089177 281.816236 
L 136.18395 279.033111 
Q 138.578189 278.866918 138.411996 276.472679 
L 137.861049 268.535527 
Q 137.694856 266.141288 135.300617 266.307481 
L 95.205845 269.090607 
Q 92.811606 269.2568 92.977799 271.651039 
L 93.528746 279.58819 
Q 93.694938 281.982429 96.089177 281.816236 
z
" clip-path="url(#pb133e7407c)" style="fill: #ffffff; stroke: #ffffff; stroke-linejoin: miter"/>
    </g>
    <g clip-path="url(#pb133e7407c)">
     <!-- r = (_a_0_ -->
     <g style="fill: #ff0000" transform="translate(95.792367 277.540275)rotate(-3.970741)scale(0.08 -0.08)">
      <defs>
       <path id="DejaVuSans-5f" d="M 3263 -1063 
L 3263 -1509 
L -63 -1509 
L -63 -1063 
L 3263 -1063 
z
" transform="scale(0.015625)"/>
      </defs>
      <use xlink:href="#DejaVuSans-72"/>
      <use xlink:href="#DejaVuSans-20" x="41.113281"/>
      <use xlink:href="#DejaVuSans-3d" x="72.900391"/>
      <use xlink:href="#DejaVuSans-20" x="156.689453"/>
      <use xlink:href="#DejaVuSans-28" x="188.476562"/>
      <use xlink:href="#DejaVuSans-5f" x="227.490234"/>
      <use xlink:href="#DejaVuSans-61" x="277.490234"/>
      <use xlink:href="#DejaVuSans-5f" x="338.769531"/>
      <use xlink:href="#DejaVuSans-30" x="388.769531"/>
      <use xlink:href="#DejaVuSans-5f" x="452.392578"/>
     </g>
    </g>
   </g>
   <g id="text_7">
    <g id="patch_8">
     <path d="M 39.487522 299.779659 
L 74.813116 281.063278 
Q 76.933845 279.939663 75.81023 277.818935 
L 72.185402 270.977376 
Q 71.061787 268.856648 68.941058 269.980262 
L 33.615464 288.696643 
Q 31.494735 289.820258 32.61835 291.940986 
L 36.243179 298.782545 
Q 37.366794 300.903274 39.487522 299.779659 
z
" clip-path="url(#pb133e7407c)" style="fill: #ffffff; stroke: #ffffff; stroke-linejoin: miter"/>
    </g>
    <g clip-path="url(#pb133e7407c)">
     <!-- q = (p + ( -->
     <g style="fill: #ff0000" transform="translate(37.584985 296.188779)rotate(-27.915758)scale(0.08 -0.08)">
      <use xlink:href="#DejaVuSans-71"/>
      <use xlink:href="#DejaVuSans-20" x="63.476562"/>
      <use xlink:href="#DejaVuSans-3d" x="95.263672"/>
      <use xlink:href="#DejaVuSans-20" x="179.052734"/>
      <use xlink:href="#DejaVuSans-28" x="210.839844"/>
      <use xlink:href="#DejaVuSans-70" x="249.853516"/>
      <use xlink:href="#DejaVuSans-20" x="313.330078"/>
      <use xlink:href="#DejaVuSans-2b" x="345.117188"/>
      <use xlink:href="#DejaVuSans-20" x="428.90625"/>
      <use xlink:href="#DejaVuSans-28" x="460.693359"/>
     </g>
    </g>
   </g>
   <g id="text_8">
    <g id="patch_9">
     <path d="M 60.771733 292.990641 
L 97.243956 282.54886 
Q 99.55126 281.888292 98.890693 279.580988 
L 96.759675 272.13753 
Q 96.099108 269.830227 93.791804 270.490794 
L 57.31958 280.932575 
Q 55.012276 281.593142 55.672844 283.900446 
L 57.803861 291.343904 
Q 58.464429 293.651208 60.771733 292.990641 
z
" clip-path="url(#pb133e7407c)" style="fill: #ffffff; stroke: #ffffff; stroke-linejoin: miter"/>
    </g>
    <g clip-path="url(#pb133e7407c)">
     <!-- p = (p / 2 -->
     <g style="fill: #ff0000" transform="translate(59.653241 289.083847)rotate(-15.976103)scale(0.08 -0.08)">
      <defs>
       <path id="DejaVuSans-2f" d="M 1625 4666 
L 2156 4666 
L 531 -594 
L 0 -594 
L 1625 4666 
z
" transform="scale(0.015625)"/>
      </defs>
      <use xlink:href="#DejaVuSans-70"/>
      <use xlink:href="#DejaVuSans-20" x="63.476562"/>
      <use xlink:href="#DejaVuSans-3d" x="95.263672"/>
      <use xlink:href="#DejaVuSans-20" x="179.052734"/>
      <use xlink:href="#DejaVuSans-28" x="210.839844"/>
      <use xlink:href="#DejaVuSans-70" x="249.853516"/>
      <use xlink:href="#DejaVuSans-20" x="313.330078"/>
      <use xlink:href="#DejaVuSans-2f" x="345.117188"/>
      <use xlink:href="#DejaVuSans-20" x="378.808594"/>
      <use xlink:href="#DejaVuSans-32" x="410.595703"/>
     </g>
    </g>
   </g>
   <g id="text_9">
    <g id="patch_10">
     <path d="M 280.05591 276.736433 
L 313.222553 292.392779 
Q 315.392893 293.41729 316.417404 291.24695 
L 319.72252 284.245341 
Q 320.747031 282.075001 318.576691 281.05049 
L 285.410049 265.394145 
Q 283.239708 264.369633 282.215197 266.539974 
L 278.910081 273.541582 
Q 277.88557 275.711922 280.05591 276.736433 
z
" clip-path="url(#pb133e7407c)" style="fill: #ffffff; stroke: #ffffff; stroke-linejoin: miter"/>
    </g>
    <g clip-path="url(#pb133e7407c)">
     <!-- Not ((((2  -->
     <g style="fill: #ff0000" transform="translate(281.790643 273.06155)rotate(-334.730302)scale(0.08 -0.08)">
      <defs>
       <path id="DejaVuSans-4e" d="M 628 4666 
L 1478 4666 
L 3547 763 
L 3547 4666 
L 4159 4666 
L 4159 0 
L 3309 0 
L 1241 3903 
L 1241 0 
L 628 0 
L 628 4666 
z
" transform="scale(0.015625)"/>
       <path id="DejaVuSans-6f" d="M 1959 3097 
Q 1497 3097 1228 2736 
Q 959 2375 959 1747 
Q 959 1119 1226 758 
Q 1494 397 1959 397 
Q 2419 397 2687 759 
Q 2956 1122 2956 1747 
Q 2956 2369 2687 2733 
Q 2419 3097 1959 3097 
z
M 1959 3584 
Q 2709 3584 3137 3096 
Q 3566 2609 3566 1747 
Q 3566 888 3137 398 
Q 2709 -91 1959 -91 
Q 1206 -91 779 398 
Q 353 888 353 1747 
Q 353 2609 779 3096 
Q 1206 3584 1959 3584 
z
" transform="scale(0.015625)"/>
       <path id="DejaVuSans-74" d="M 1172 4494 
L 1172 3500 
L 2356 3500 
L 2356 3053 
L 1172 3053 
L 1172 1153 
Q 1172 725 1289 603 
Q 1406 481 1766 481 
L 2356 481 
L 2356 0 
L 1766 0 
Q 1100 0 847 248 
Q 594 497 594 1153 
L 594 3053 
L 172 3053 
L 172 3500 
L 594 3500 
L 594 4494 
L 1172 4494 
z
" transform="scale(0.015625)"/>
      </defs>
      <use xlink:href="#DejaVuSans-4e"/>
      <use xlink:href="#DejaVuSans-6f" x="74.804688"/>
      <use xlink:href="#DejaVuSans-74" x="135.986328"/>
      <use xlink:href="#DejaVuSans-20" x="175.195312"/>
      <use xlink:href="#DejaVuSans-28" x="206.982422"/>
      <use xlink:href="#DejaVuSans-28" x="245.996094"/>
      <use xlink:href="#DejaVuSans-28" x="285.009766"/>
      <use xlink:href="#DejaVuSans-28" x="324.023438"/>
      <use xlink:href="#DejaVuSans-32" x="363.037109"/>
      <use xlink:href="#DejaVuSans-20" x="426.660156"/>
     </g>
    </g>
   </g>
   <g id="text_10">
    <g id="patch_11">
     <path d="M 307.940608 322.900641 
L 337.360378 295.517916 
Q 339.117165 293.88277 337.482019 292.125984 
L 332.061342 286.302053 
Q 330.426196 284.545266 328.66941 286.180412 
L 299.249639 313.563137 
Q 297.492852 315.198283 299.127998 316.95507 
L 304.548675 322.779 
Q 306.183821 324.535787 307.940608 322.900641 
z
" clip-path="url(#pb133e7407c)" style="fill: #ffffff; stroke: #ffffff; stroke-linejoin: miter"/>
    </g>
    <g clip-path="url(#pb133e7407c)">
     <!-- r = (_a_6_ -->
     <g style="fill: #ff0000" transform="translate(305.02034 319.76313)rotate(-42.946145)scale(0.08 -0.08)">
      <defs>
       <path id="DejaVuSans-36" d="M 2113 2584 
Q 1688 2584 1439 2293 
Q 1191 2003 1191 1497 
Q 1191 994 1439 701 
Q 1688 409 2113 409 
Q 2538 409 2786 701 
Q 3034 994 3034 1497 
Q 3034 2003 2786 2293 
Q 2538 2584 2113 2584 
z
M 3366 4563 
L 3366 3988 
Q 3128 4100 2886 4159 
Q 2644 4219 2406 4219 
Q 1781 4219 1451 3797 
Q 1122 3375 1075 2522 
Q 1259 2794 1537 2939 
Q 1816 3084 2150 3084 
Q 2853 3084 3261 2657 
Q 3669 2231 3669 1497 
Q 3669 778 3244 343 
Q 2819 -91 2113 -91 
Q 1303 -91 875 529 
Q 447 1150 447 2328 
Q 447 3434 972 4092 
Q 1497 4750 2381 4750 
Q 2619 4750 2861 4703 
Q 3103 4656 3366 4563 
z
" transform="scale(0.015625)"/>
      </defs>
      <use xlink:href="#DejaVuSans-72"/>
      <use xlink:href="#DejaVuSans-20" x="41.113281"/>
      <use xlink:href="#DejaVuSans-3d" x="72.900391"/>
      <use xlink:href="#DejaVuSans-20" x="156.689453"/>
      <use xlink:href="#DejaVuSans-28" x="188.476562"/>
      <use xlink:href="#DejaVuSans-5f" x="227.490234"/>
      <use xlink:href="#DejaVuSans-61" x="277.490234"/>
      <use xlink:href="#DejaVuSans-5f" x="338.769531"/>
      <use xlink:href="#DejaVuSans-36" x="388.769531"/>
      <use xlink:href="#DejaVuSans-5f" x="452.392578"/>
     </g>
    </g>
   </g>
   <g id="text_11">
    <g id="patch_12">
     <path d="M 258.921408 298.47861 
L 293.895614 316.276888 
Q 296.034573 317.365399 297.123083 315.22644 
L 300.634663 308.326069 
Q 301.723173 306.18711 299.584214 305.0986 
L 264.610008 287.300322 
Q 262.471049 286.211811 261.382539 288.35077 
L 257.870959 295.251141 
Q 256.782449 297.3901 258.921408 298.47861 
z
" clip-path="url(#pb133e7407c)" style="fill: #ffffff; stroke: #ffffff; stroke-linejoin: miter"/>
    </g>
    <g clip-path="url(#pb133e7407c)">
     <!-- p = (p * 0 -->
     <g style="fill: #ff0000" transform="translate(260.764505 294.856863)rotate(-333.028581)scale(0.08 -0.08)">
      <use xlink:href="#DejaVuSans-70"/>
      <use xlink:href="#DejaVuSans-20" x="63.476562"/>
      <use xlink:href="#DejaVuSans-3d" x="95.263672"/>
      <use xlink:href="#DejaVuSans-20" x="179.052734"/>
      <use xlink:href="#DejaVuSans-28" x="210.839844"/>
      <use xlink:href="#DejaVuSans-70" x="249.853516"/>
      <use xlink:href="#DejaVuSans-20" x="313.330078"/>
      <use xlink:href="#DejaVuSans-2a" x="345.117188"/>
      <use xlink:href="#DejaVuSans-20" x="395.117188"/>
      <use xlink:href="#DejaVuSans-30" x="426.904297"/>
     </g>
    </g>
   </g>
   <g id="text_12">
    <g id="patch_13">
     <path d="M 287.648175 191.003155 
L 323.922452 181.279224 
Q 326.240606 180.657803 325.619186 178.33965 
L 323.614458 170.861189 
Q 322.993038 168.543035 320.674884 169.164455 
L 284.400607 178.888387 
Q 282.082453 179.509807 282.703873 181.827961 
L 284.708601 189.306422 
Q 285.330021 191.624575 287.648175 191.003155 
z
" clip-path="url(#pb133e7407c)" style="fill: #ffffff; stroke: #ffffff; stroke-linejoin: miter"/>
    </g>
    <g clip-path="url(#pb133e7407c)">
     <!-- Not((2 * ( -->
     <g style="fill: #ff0000" transform="translate(286.595968 187.07799)rotate(-15.00629)scale(0.08 -0.08)">
      <use xlink:href="#DejaVuSans-4e"/>
      <use xlink:href="#DejaVuSans-6f" x="74.804688"/>
      <use xlink:href="#DejaVuSans-74" x="135.986328"/>
      <use xlink:href="#DejaVuSans-28" x="175.195312"/>
      <use xlink:href="#DejaVuSans-28" x="214.208984"/>
      <use xlink:href="#DejaVuSans-32" x="253.222656"/>
      <use xlink:href="#DejaVuSans-20" x="316.845703"/>
      <use xlink:href="#DejaVuSans-2a" x="348.632812"/>
      <use xlink:href="#DejaVuSans-20" x="398.632812"/>
      <use xlink:href="#DejaVuSans-28" x="430.419922"/>
     </g>
    </g>
   </g>
   <g id="PathCollection_1">
    <defs>
     <path id="me35de514f6" d="M 0 11.18034 
C 2.965061 11.18034 5.80908 10.002309 7.905694 7.905694 
C 10.002309 5.80908 11.18034 2.965061 11.18034 0 
C 11.18034 -2.965061 10.002309 -5.80908 7.905694 -7.905694 
C 5.80908 -10.002309 2.965061 -11.18034 0 -11.18034 
C -2.965061 -11.18034 -5.80908 -10.002309 -7.905694 -7.905694 
C -10.002309 -5.80908 -11.18034 -2.965061 -11.18034 0 
C -11.18034 2.965061 -10.002309 5.80908 -7.905694 7.905694 
C -5.80908 10.002309 -2.965061 11.18034 0 11.18034 
z
" style="stroke: #ffc0cb; stroke-opacity: 0.9; stroke-width: 2"/>
    </defs>
    <g clip-path="url(#pb133e7407c)">
     <use xlink:href="#me35de514f6" x="125.833446" y="29.990083" style="fill: #ffc0cb; fill-opacity: 0.9; stroke: #ffc0cb; stroke-opacity: 0.9; stroke-width: 2"/>
     <use xlink:href="#me35de514f6" x="151.857813" y="59.97227" style="fill: #ffc0cb; fill-opacity: 0.9; stroke: #ffc0cb; stroke-opacity: 0.9; stroke-width: 2"/>
     <use xlink:href="#me35de514f6" x="184.094881" y="97.88672" style="fill: #ffc0cb; fill-opacity: 0.9; stroke: #ffc0cb; stroke-opacity: 0.9; stroke-width: 2"/>
     <use xlink:href="#me35de514f6" x="219.732448" y="142.502602" style="fill: #ffc0cb; fill-opacity: 0.9; stroke: #ffc0cb; stroke-opacity: 0.9; stroke-width: 2"/>
     <use xlink:href="#me35de514f6" x="258.958482" y="192.201244" style="fill: #ffc0cb; fill-opacity: 0.9; stroke: #ffc0cb; stroke-opacity: 0.9; stroke-width: 2"/>
     <use xlink:href="#me35de514f6" x="285.609626" y="226.121283" style="fill: #ffc0cb; fill-opacity: 0.9; stroke: #ffc0cb; stroke-opacity: 0.9; stroke-width: 2"/>
     <use xlink:href="#me35de514f6" x="268.434732" y="264.315788" style="fill: #ffc0cb; fill-opacity: 0.9; stroke: #ffc0cb; stroke-opacity: 0.9; stroke-width: 2"/>
     <use xlink:href="#me35de514f6" x="162.947991" y="270.781848" style="fill: #ffc0cb; fill-opacity: 0.9; stroke: #ffc0cb; stroke-opacity: 0.9; stroke-width: 2"/>
     <use xlink:href="#me35de514f6" x="68.441804" y="277.341869" style="fill: #ffc0cb; fill-opacity: 0.9; stroke: #ffc0cb; stroke-opacity: 0.9; stroke-width: 2"/>
     <use xlink:href="#me35de514f6" x="39.986777" y="292.418052" style="fill: #ffc0cb; fill-opacity: 0.9; stroke: #ffc0cb; stroke-opacity: 0.9; stroke-width: 2"/>
     <use xlink:href="#me35de514f6" x="114.57676" y="271.063383" style="fill: #ffc0cb; fill-opacity: 0.9; stroke: #ffc0cb; stroke-opacity: 0.9; stroke-width: 2"/>
     <use xlink:href="#me35de514f6" x="330.197869" y="293.471136" style="fill: #ffc0cb; fill-opacity: 0.9; stroke: #ffc0cb; stroke-opacity: 0.9; stroke-width: 2"/>
     <use xlink:href="#me35de514f6" x="306.412148" y="315.609917" style="fill: #ffc0cb; fill-opacity: 0.9; stroke: #ffc0cb; stroke-opacity: 0.9; stroke-width: 2"/>
     <use xlink:href="#me35de514f6" x="252.093474" y="287.967293" style="fill: #ffc0cb; fill-opacity: 0.9; stroke: #ffc0cb; stroke-opacity: 0.9; stroke-width: 2"/>
     <use xlink:href="#me35de514f6" x="207.375625" y="244.523279" style="fill: #ffc0cb; fill-opacity: 0.9; stroke: #ffc0cb; stroke-opacity: 0.9; stroke-width: 2"/>
     <use xlink:href="#me35de514f6" x="349.364577" y="167.966366" style="fill: #ffc0cb; fill-opacity: 0.9; stroke: #ffc0cb; stroke-opacity: 0.9; stroke-width: 2"/>
     <use xlink:href="#me35de514f6" x="420.813223" y="149.87584" style="fill: #ffc0cb; fill-opacity: 0.9; stroke: #ffc0cb; stroke-opacity: 0.9; stroke-width: 2"/>
    </g>
   </g>
   <g id="text_13">
    <g clip-path="url(#pb133e7407c)">
     <!-- 0 -->
     <g style="opacity: 0.9" transform="translate(122.015946 33.301333)scale(0.12 -0.12)">
      <use xlink:href="#DejaVuSans-30"/>
     </g>
    </g>
   </g>
   <g id="text_14">
    <g clip-path="url(#pb133e7407c)">
     <!-- 1 -->
     <g style="opacity: 0.9" transform="translate(148.040313 63.28352)scale(0.12 -0.12)">
      <use xlink:href="#DejaVuSans-31"/>
     </g>
    </g>
   </g>
   <g id="text_15">
    <g clip-path="url(#pb133e7407c)">
     <!-- 2 -->
     <g style="opacity: 0.9" transform="translate(180.277381 101.19797)scale(0.12 -0.12)">
      <use xlink:href="#DejaVuSans-32"/>
     </g>
    </g>
   </g>
   <g id="text_16">
    <g clip-path="url(#pb133e7407c)">
     <!-- 3 -->
     <g style="opacity: 0.9" transform="translate(215.914948 145.813852)scale(0.12 -0.12)">
      <defs>
       <path id="DejaVuSans-33" d="M 2597 2516 
Q 3050 2419 3304 2112 
Q 3559 1806 3559 1356 
Q 3559 666 3084 287 
Q 2609 -91 1734 -91 
Q 1441 -91 1130 -33 
Q 819 25 488 141 
L 488 750 
Q 750 597 1062 519 
Q 1375 441 1716 441 
Q 2309 441 2620 675 
Q 2931 909 2931 1356 
Q 2931 1769 2642 2001 
Q 2353 2234 1838 2234 
L 1294 2234 
L 1294 2753 
L 1863 2753 
Q 2328 2753 2575 2939 
Q 2822 3125 2822 3475 
Q 2822 3834 2567 4026 
Q 2313 4219 1838 4219 
Q 1578 4219 1281 4162 
Q 984 4106 628 3988 
L 628 4550 
Q 988 4650 1302 4700 
Q 1616 4750 1894 4750 
Q 2613 4750 3031 4423 
Q 3450 4097 3450 3541 
Q 3450 3153 3228 2886 
Q 3006 2619 2597 2516 
z
" transform="scale(0.015625)"/>
      </defs>
      <use xlink:href="#DejaVuSans-33"/>
     </g>
    </g>
   </g>
   <g id="text_17">
    <g clip-path="url(#pb133e7407c)">
     <!-- 4 -->
     <g style="opacity: 0.9" transform="translate(255.140982 195.512494)scale(0.12 -0.12)">
      <defs>
       <path id="DejaVuSans-34" d="M 2419 4116 
L 825 1625 
L 2419 1625 
L 2419 4116 
z
M 2253 4666 
L 3047 4666 
L 3047 1625 
L 3713 1625 
L 3713 1100 
L 3047 1100 
L 3047 0 
L 2419 0 
L 2419 1100 
L 313 1100 
L 313 1709 
L 2253 4666 
z
" transform="scale(0.015625)"/>
      </defs>
      <use xlink:href="#DejaVuSans-34"/>
     </g>
    </g>
   </g>
   <g id="text_18">
    <g clip-path="url(#pb133e7407c)">
     <!-- 5 -->
     <g style="opacity: 0.9" transform="translate(281.792126 229.432533)scale(0.12 -0.12)">
      <use xlink:href="#DejaVuSans-35"/>
     </g>
    </g>
   </g>
   <g id="text_19">
    <g clip-path="url(#pb133e7407c)">
     <!-- 6 -->
     <g style="opacity: 0.9" transform="translate(264.617232 267.627038)scale(0.12 -0.12)">
      <use xlink:href="#DejaVuSans-36"/>
     </g>
    </g>
   </g>
   <g id="text_20">
    <g clip-path="url(#pb133e7407c)">
     <!-- 7 -->
     <g style="opacity: 0.9" transform="translate(159.130491 274.093098)scale(0.12 -0.12)">
      <defs>
       <path id="DejaVuSans-37" d="M 525 4666 
L 3525 4666 
L 3525 4397 
L 1831 0 
L 1172 0 
L 2766 4134 
L 525 4134 
L 525 4666 
z
" transform="scale(0.015625)"/>
      </defs>
      <use xlink:href="#DejaVuSans-37"/>
     </g>
    </g>
   </g>
   <g id="text_21">
    <g clip-path="url(#pb133e7407c)">
     <!-- 8 -->
     <g style="opacity: 0.9" transform="translate(64.624304 280.653119)scale(0.12 -0.12)">
      <defs>
       <path id="DejaVuSans-38" d="M 2034 2216 
Q 1584 2216 1326 1975 
Q 1069 1734 1069 1313 
Q 1069 891 1326 650 
Q 1584 409 2034 409 
Q 2484 409 2743 651 
Q 3003 894 3003 1313 
Q 3003 1734 2745 1975 
Q 2488 2216 2034 2216 
z
M 1403 2484 
Q 997 2584 770 2862 
Q 544 3141 544 3541 
Q 544 4100 942 4425 
Q 1341 4750 2034 4750 
Q 2731 4750 3128 4425 
Q 3525 4100 3525 3541 
Q 3525 3141 3298 2862 
Q 3072 2584 2669 2484 
Q 3125 2378 3379 2068 
Q 3634 1759 3634 1313 
Q 3634 634 3220 271 
Q 2806 -91 2034 -91 
Q 1263 -91 848 271 
Q 434 634 434 1313 
Q 434 1759 690 2068 
Q 947 2378 1403 2484 
z
M 1172 3481 
Q 1172 3119 1398 2916 
Q 1625 2713 2034 2713 
Q 2441 2713 2670 2916 
Q 2900 3119 2900 3481 
Q 2900 3844 2670 4047 
Q 2441 4250 2034 4250 
Q 1625 4250 1398 4047 
Q 1172 3844 1172 3481 
z
" transform="scale(0.015625)"/>
      </defs>
      <use xlink:href="#DejaVuSans-38"/>
     </g>
    </g>
   </g>
   <g id="text_22">
    <g clip-path="url(#pb133e7407c)">
     <!-- 9 -->
     <g style="opacity: 0.9" transform="translate(36.169277 295.729302)scale(0.12 -0.12)">
      <defs>
       <path id="DejaVuSans-39" d="M 703 97 
L 703 672 
Q 941 559 1184 500 
Q 1428 441 1663 441 
Q 2288 441 2617 861 
Q 2947 1281 2994 2138 
Q 2813 1869 2534 1725 
Q 2256 1581 1919 1581 
Q 1219 1581 811 2004 
Q 403 2428 403 3163 
Q 403 3881 828 4315 
Q 1253 4750 1959 4750 
Q 2769 4750 3195 4129 
Q 3622 3509 3622 2328 
Q 3622 1225 3098 567 
Q 2575 -91 1691 -91 
Q 1453 -91 1209 -44 
Q 966 3 703 97 
z
M 1959 2075 
Q 2384 2075 2632 2365 
Q 2881 2656 2881 3163 
Q 2881 3666 2632 3958 
Q 2384 4250 1959 4250 
Q 1534 4250 1286 3958 
Q 1038 3666 1038 3163 
Q 1038 2656 1286 2365 
Q 1534 2075 1959 2075 
z
" transform="scale(0.015625)"/>
      </defs>
      <use xlink:href="#DejaVuSans-39"/>
     </g>
    </g>
   </g>
   <g id="text_23">
    <g clip-path="url(#pb133e7407c)">
     <!-- 10 -->
     <g style="opacity: 0.9" transform="translate(106.94176 274.374633)scale(0.12 -0.12)">
      <use xlink:href="#DejaVuSans-31"/>
      <use xlink:href="#DejaVuSans-30" x="63.623047"/>
     </g>
    </g>
   </g>
   <g id="text_24">
    <g clip-path="url(#pb133e7407c)">
     <!-- 11 -->
     <g style="opacity: 0.9" transform="translate(322.562869 296.782386)scale(0.12 -0.12)">
      <use xlink:href="#DejaVuSans-31"/>
      <use xlink:href="#DejaVuSans-31" x="63.623047"/>
     </g>
    </g>
   </g>
   <g id="text_25">
    <g clip-path="url(#pb133e7407c)">
     <!-- 12 -->
     <g style="opacity: 0.9" transform="translate(298.777148 318.921167)scale(0.12 -0.12)">
      <use xlink:href="#DejaVuSans-31"/>
      <use xlink:href="#DejaVuSans-32" x="63.623047"/>
     </g>
    </g>
   </g>
   <g id="text_26">
    <g clip-path="url(#pb133e7407c)">
     <!-- 13 -->
     <g style="opacity: 0.9" transform="translate(244.458474 291.278543)scale(0.12 -0.12)">
      <use xlink:href="#DejaVuSans-31"/>
      <use xlink:href="#DejaVuSans-33" x="63.623047"/>
     </g>
    </g>
   </g>
   <g id="text_27">
    <g clip-path="url(#pb133e7407c)">
     <!-- 14 -->
     <g style="opacity: 0.9" transform="translate(199.740625 247.834529)scale(0.12 -0.12)">
      <use xlink:href="#DejaVuSans-31"/>
      <use xlink:href="#DejaVuSans-34" x="63.623047"/>
     </g>
    </g>
   </g>
   <g id="text_28">
    <g clip-path="url(#pb133e7407c)">
     <!-- 15 -->
     <g style="opacity: 0.9" transform="translate(341.729577 171.277616)scale(0.12 -0.12)">
      <use xlink:href="#DejaVuSans-31"/>
      <use xlink:href="#DejaVuSans-35" x="63.623047"/>
     </g>
    </g>
   </g>
   <g id="text_29">
    <g clip-path="url(#pb133e7407c)">
     <!-- 16 -->
     <g style="opacity: 0.9" transform="translate(413.178223 153.18709)scale(0.12 -0.12)">
      <use xlink:href="#DejaVuSans-31"/>
      <use xlink:href="#DejaVuSans-36" x="63.623047"/>
     </g>
    </g>
   </g>
   <g id="text_30">
    <g clip-path="url(#pb133e7407c)">
     <!-- (a &gt;= 1 and err &gt;= 0) -->
     <g transform="translate(352.913409 32.197583)scale(0.08 -0.08)">
      <defs>
       <path id="DejaVuSans-3e" d="M 678 3150 
L 678 3719 
L 4684 2266 
L 4684 1747 
L 678 294 
L 678 863 
L 3897 2003 
L 678 3150 
z
" transform="scale(0.015625)"/>
       <path id="DejaVuSans-6e" d="M 3513 2113 
L 3513 0 
L 2938 0 
L 2938 2094 
Q 2938 2591 2744 2837 
Q 2550 3084 2163 3084 
Q 1697 3084 1428 2787 
Q 1159 2491 1159 1978 
L 1159 0 
L 581 0 
L 581 3500 
L 1159 3500 
L 1159 2956 
Q 1366 3272 1645 3428 
Q 1925 3584 2291 3584 
Q 2894 3584 3203 3211 
Q 3513 2838 3513 2113 
z
" transform="scale(0.015625)"/>
       <path id="DejaVuSans-64" d="M 2906 2969 
L 2906 4863 
L 3481 4863 
L 3481 0 
L 2906 0 
L 2906 525 
Q 2725 213 2448 61 
Q 2172 -91 1784 -91 
Q 1150 -91 751 415 
Q 353 922 353 1747 
Q 353 2572 751 3078 
Q 1150 3584 1784 3584 
Q 2172 3584 2448 3432 
Q 2725 3281 2906 2969 
z
M 947 1747 
Q 947 1113 1208 752 
Q 1469 391 1925 391 
Q 2381 391 2643 752 
Q 2906 1113 2906 1747 
Q 2906 2381 2643 2742 
Q 2381 3103 1925 3103 
Q 1469 3103 1208 2742 
Q 947 2381 947 1747 
z
" transform="scale(0.015625)"/>
       <path id="DejaVuSans-65" d="M 3597 1894 
L 3597 1613 
L 953 1613 
Q 991 1019 1311 708 
Q 1631 397 2203 397 
Q 2534 397 2845 478 
Q 3156 559 3463 722 
L 3463 178 
Q 3153 47 2828 -22 
Q 2503 -91 2169 -91 
Q 1331 -91 842 396 
Q 353 884 353 1716 
Q 353 2575 817 3079 
Q 1281 3584 2069 3584 
Q 2775 3584 3186 3129 
Q 3597 2675 3597 1894 
z
M 3022 2063 
Q 3016 2534 2758 2815 
Q 2500 3097 2075 3097 
Q 1594 3097 1305 2825 
Q 1016 2553 972 2059 
L 3022 2063 
z
" transform="scale(0.015625)"/>
      </defs>
      <use xlink:href="#DejaVuSans-28"/>
      <use xlink:href="#DejaVuSans-61" x="39.013672"/>
      <use xlink:href="#DejaVuSans-20" x="100.292969"/>
      <use xlink:href="#DejaVuSans-3e" x="132.080078"/>
      <use xlink:href="#DejaVuSans-3d" x="215.869141"/>
      <use xlink:href="#DejaVuSans-20" x="299.658203"/>
      <use xlink:href="#DejaVuSans-31" x="331.445312"/>
      <use xlink:href="#DejaVuSans-20" x="395.068359"/>
      <use xlink:href="#DejaVuSans-61" x="426.855469"/>
      <use xlink:href="#DejaVuSans-6e" x="488.134766"/>
      <use xlink:href="#DejaVuSans-64" x="551.513672"/>
      <use xlink:href="#DejaVuSans-20" x="614.990234"/>
      <use xlink:href="#DejaVuSans-65" x="646.777344"/>
      <use xlink:href="#DejaVuSans-72" x="708.300781"/>
      <use xlink:href="#DejaVuSans-72" x="747.664062"/>
      <use xlink:href="#DejaVuSans-20" x="788.777344"/>
      <use xlink:href="#DejaVuSans-3e" x="820.564453"/>
      <use xlink:href="#DejaVuSans-3d" x="904.353516"/>
      <use xlink:href="#DejaVuSans-20" x="988.142578"/>
      <use xlink:href="#DejaVuSans-30" x="1019.929688"/>
      <use xlink:href="#DejaVuSans-29" x="1083.552734"/>
     </g>
    </g>
   </g>
   <g id="text_31">
    <g clip-path="url(#pb133e7407c)">
     <!-- ((p &gt;= 0 and r &gt;= 0) and ((q * q) + ((2 * r) * p)) == a) -->
     <g transform="translate(153.488923 218.149727)scale(0.08 -0.08)">
      <use xlink:href="#DejaVuSans-28"/>
      <use xlink:href="#DejaVuSans-28" x="39.013672"/>
      <use xlink:href="#DejaVuSans-70" x="78.027344"/>
      <use xlink:href="#DejaVuSans-20" x="141.503906"/>
      <use xlink:href="#DejaVuSans-3e" x="173.291016"/>
      <use xlink:href="#DejaVuSans-3d" x="257.080078"/>
      <use xlink:href="#DejaVuSans-20" x="340.869141"/>
      <use xlink:href="#DejaVuSans-30" x="372.65625"/>
      <use xlink:href="#DejaVuSans-20" x="436.279297"/>
      <use xlink:href="#DejaVuSans-61" x="468.066406"/>
      <use xlink:href="#DejaVuSans-6e" x="529.345703"/>
      <use xlink:href="#DejaVuSans-64" x="592.724609"/>
      <use xlink:href="#DejaVuSans-20" x="656.201172"/>
      <use xlink:href="#DejaVuSans-72" x="687.988281"/>
      <use xlink:href="#DejaVuSans-20" x="729.101562"/>
      <use xlink:href="#DejaVuSans-3e" x="760.888672"/>
      <use xlink:href="#DejaVuSans-3d" x="844.677734"/>
      <use xlink:href="#DejaVuSans-20" x="928.466797"/>
      <use xlink:href="#DejaVuSans-30" x="960.253906"/>
      <use xlink:href="#DejaVuSans-29" x="1023.876953"/>
      <use xlink:href="#DejaVuSans-20" x="1062.890625"/>
      <use xlink:href="#DejaVuSans-61" x="1094.677734"/>
      <use xlink:href="#DejaVuSans-6e" x="1155.957031"/>
      <use xlink:href="#DejaVuSans-64" x="1219.335938"/>
      <use xlink:href="#DejaVuSans-20" x="1282.8125"/>
      <use xlink:href="#DejaVuSans-28" x="1314.599609"/>
      <use xlink:href="#DejaVuSans-28" x="1353.613281"/>
      <use xlink:href="#DejaVuSans-71" x="1392.626953"/>
      <use xlink:href="#DejaVuSans-20" x="1456.103516"/>
      <use xlink:href="#DejaVuSans-2a" x="1487.890625"/>
      <use xlink:href="#DejaVuSans-20" x="1537.890625"/>
      <use xlink:href="#DejaVuSans-71" x="1569.677734"/>
      <use xlink:href="#DejaVuSans-29" x="1633.154297"/>
      <use xlink:href="#DejaVuSans-20" x="1672.167969"/>
      <use xlink:href="#DejaVuSans-2b" x="1703.955078"/>
      <use xlink:href="#DejaVuSans-20" x="1787.744141"/>
      <use xlink:href="#DejaVuSans-28" x="1819.53125"/>
      <use xlink:href="#DejaVuSans-28" x="1858.544922"/>
      <use xlink:href="#DejaVuSans-32" x="1897.558594"/>
      <use xlink:href="#DejaVuSans-20" x="1961.181641"/>
      <use xlink:href="#DejaVuSans-2a" x="1992.96875"/>
      <use xlink:href="#DejaVuSans-20" x="2042.96875"/>
      <use xlink:href="#DejaVuSans-72" x="2074.755859"/>
      <use xlink:href="#DejaVuSans-29" x="2115.869141"/>
      <use xlink:href="#DejaVuSans-20" x="2154.882812"/>
      <use xlink:href="#DejaVuSans-2a" x="2186.669922"/>
      <use xlink:href="#DejaVuSans-20" x="2236.669922"/>
      <use xlink:href="#DejaVuSans-70" x="2268.457031"/>
      <use xlink:href="#DejaVuSans-29" x="2331.933594"/>
      <use xlink:href="#DejaVuSans-29" x="2370.947266"/>
      <use xlink:href="#DejaVuSans-20" x="2409.960938"/>
      <use xlink:href="#DejaVuSans-3d" x="2441.748047"/>
      <use xlink:href="#DejaVuSans-3d" x="2525.537109"/>
      <use xlink:href="#DejaVuSans-20" x="2609.326172"/>
      <use xlink:href="#DejaVuSans-61" x="2641.113281"/>
      <use xlink:href="#DejaVuSans-29" x="2702.392578"/>
     </g>
    </g>
   </g>
   <g id="text_32">
    <g clip-path="url(#pb133e7407c)">
     <!-- If -->
     <g transform="translate(247.98375 289.744358)scale(0.08 -0.08)">
      <defs>
       <path id="DejaVuSans-49" d="M 628 4666 
L 1259 4666 
L 1259 0 
L 628 0 
L 628 4666 
z
" transform="scale(0.015625)"/>
       <path id="DejaVuSans-66" d="M 2375 4863 
L 2375 4384 
L 1825 4384 
Q 1516 4384 1395 4259 
Q 1275 4134 1275 3809 
L 1275 3500 
L 2222 3500 
L 2222 3053 
L 1275 3053 
L 1275 0 
L 697 0 
L 697 3053 
L 147 3053 
L 147 3500 
L 697 3500 
L 697 3744 
Q 697 4328 969 4595 
Q 1241 4863 1831 4863 
L 2375 4863 
z
" transform="scale(0.015625)"/>
      </defs>
      <use xlink:href="#DejaVuSans-49"/>
      <use xlink:href="#DejaVuSans-66" x="29.492188"/>
     </g>
    </g>
   </g>
   <g id="text_33">
    <g clip-path="url(#pb133e7407c)">
     <!-- ((q * q) &gt;= (a - err) and (q * q) &lt;= a) -->
     <g transform="translate(3.211338 298.4853)scale(0.08 -0.08)">
      <defs>
       <path id="DejaVuSans-3c" d="M 4684 3150 
L 1459 2003 
L 4684 863 
L 4684 294 
L 678 1747 
L 678 2266 
L 4684 3719 
L 4684 3150 
z
" transform="scale(0.015625)"/>
      </defs>
      <use xlink:href="#DejaVuSans-28"/>
      <use xlink:href="#DejaVuSans-28" x="39.013672"/>
      <use xlink:href="#DejaVuSans-71" x="78.027344"/>
      <use xlink:href="#DejaVuSans-20" x="141.503906"/>
      <use xlink:href="#DejaVuSans-2a" x="173.291016"/>
      <use xlink:href="#DejaVuSans-20" x="223.291016"/>
      <use xlink:href="#DejaVuSans-71" x="255.078125"/>
      <use xlink:href="#DejaVuSans-29" x="318.554688"/>
      <use xlink:href="#DejaVuSans-20" x="357.568359"/>
      <use xlink:href="#DejaVuSans-3e" x="389.355469"/>
      <use xlink:href="#DejaVuSans-3d" x="473.144531"/>
      <use xlink:href="#DejaVuSans-20" x="556.933594"/>
      <use xlink:href="#DejaVuSans-28" x="588.720703"/>
      <use xlink:href="#DejaVuSans-61" x="627.734375"/>
      <use xlink:href="#DejaVuSans-20" x="689.013672"/>
      <use xlink:href="#DejaVuSans-2d" x="720.800781"/>
      <use xlink:href="#DejaVuSans-20" x="756.884766"/>
      <use xlink:href="#DejaVuSans-65" x="788.671875"/>
      <use xlink:href="#DejaVuSans-72" x="850.195312"/>
      <use xlink:href="#DejaVuSans-72" x="889.558594"/>
      <use xlink:href="#DejaVuSans-29" x="930.671875"/>
      <use xlink:href="#DejaVuSans-20" x="969.685547"/>
      <use xlink:href="#DejaVuSans-61" x="1001.472656"/>
      <use xlink:href="#DejaVuSans-6e" x="1062.751953"/>
      <use xlink:href="#DejaVuSans-64" x="1126.130859"/>
      <use xlink:href="#DejaVuSans-20" x="1189.607422"/>
      <use xlink:href="#DejaVuSans-28" x="1221.394531"/>
      <use xlink:href="#DejaVuSans-71" x="1260.408203"/>
      <use xlink:href="#DejaVuSans-20" x="1323.884766"/>
      <use xlink:href="#DejaVuSans-2a" x="1355.671875"/>
      <use xlink:href="#DejaVuSans-20" x="1405.671875"/>
      <use xlink:href="#DejaVuSans-71" x="1437.458984"/>
      <use xlink:href="#DejaVuSans-29" x="1500.935547"/>
      <use xlink:href="#DejaVuSans-20" x="1539.949219"/>
      <use xlink:href="#DejaVuSans-3c" x="1571.736328"/>
      <use xlink:href="#DejaVuSans-3d" x="1655.525391"/>
      <use xlink:href="#DejaVuSans-20" x="1739.314453"/>
      <use xlink:href="#DejaVuSans-61" x="1771.101562"/>
      <use xlink:href="#DejaVuSans-29" x="1832.380859"/>
     </g>
    </g>
   </g>
  </g>
 </g>
 <defs>
  <clipPath id="pb133e7407c">
   <rect x="0" y="0" width="460.8" height="345.6"/>
  </clipPath>
 </defs>
</svg>
