<?xml version="1.0" encoding="utf-8" standalone="no"?>
<!DOCTYPE svg PUBLIC "-//W3C//DTD SVG 1.1//EN"
  "http://www.w3.org/Graphics/SVG/1.1/DTD/svg11.dtd">
<svg xmlns:xlink="http://www.w3.org/1999/xlink" width="460.8pt" height="345.6pt" viewBox="0 0 460.8 345.6" xmlns="http://www.w3.org/2000/svg" version="1.1">
 <metadata>
  <rdf:RDF xmlns:dc="http://purl.org/dc/elements/1.1/" xmlns:cc="http://creativecommons.org/ns#" xmlns:rdf="http://www.w3.org/1999/02/22-rdf-syntax-ns#">
   <cc:Work>
    <dc:type rdf:resource="http://purl.org/dc/dcmitype/StillImage"/>
    <dc:date>2022-12-30T18:32:06.828301</dc:date>
    <dc:format>image/svg+xml</dc:format>
    <dc:creator>
     <cc:Agent>
      <dc:title>Matplotlib v3.5.1, https://matplotlib.org/</dc:title>
     </cc:Agent>
    </dc:creator>
   </cc:Work>
  </rdf:RDF>
 </metadata>
 <defs>
  <style type="text/css">*{stroke-linejoin: round; stroke-linecap: butt}</style>
 </defs>
 <g id="figure_1">
  <g id="patch_1">
   <path d="M 0 345.6 
L 460.8 345.6 
L 460.8 0 
L 0 0 
z
" style="fill: #ffffff"/>
  </g>
  <g id="axes_1">
   <g id="LineCollection_1">
    <path d="M 401.806399 29.990083 
L 349.465994 57.596208 
" clip-path="url(#p9d99ad129b)" style="fill: none; stroke: #000000; stroke-opacity: 0.9"/>
    <path d="M 349.465994 57.596208 
L 270.12917 72.932236 
" clip-path="url(#p9d99ad129b)" style="fill: none; stroke: #000000; stroke-opacity: 0.9"/>
    <path d="M 270.12917 72.932236 
L 206.640726 93.261184 
" clip-path="url(#p9d99ad129b)" style="fill: none; stroke: #000000; stroke-opacity: 0.9"/>
    <path d="M 206.640726 93.261184 
L 193.386149 134.892608 
" clip-path="url(#p9d99ad129b)" style="fill: none; stroke: #000000; stroke-opacity: 0.9"/>
    <path d="M 193.386149 134.892608 
L 215.923755 186.37776 
" clip-path="url(#p9d99ad129b)" style="fill: none; stroke: #000000; stroke-opacity: 0.9"/>
    <path d="M 215.923755 186.37776 
L 293.217799 224.431198 
" clip-path="url(#p9d99ad129b)" style="fill: none; stroke: #000000; stroke-opacity: 0.9"/>
    <path d="M 215.923755 186.37776 
L 167.299524 186.17279 
" clip-path="url(#p9d99ad129b)" style="fill: none; stroke: #000000; stroke-opacity: 0.9"/>
    <path d="M 215.923755 186.37776 
L 164.107533 218.846442 
" clip-path="url(#p9d99ad129b)" style="fill: none; stroke: #000000; stroke-opacity: 0.9"/>
    <path d="M 293.217799 224.431198 
L 351.311825 259.360826 
" clip-path="url(#p9d99ad129b)" style="fill: none; stroke: #000000; stroke-opacity: 0.9"/>
    <path d="M 351.311825 259.360826 
L 420.813223 229.064582 
" clip-path="url(#p9d99ad129b)" style="fill: none; stroke: #000000; stroke-opacity: 0.9"/>
    <path d="M 351.311825 259.360826 
L 289.523951 299.446949 
" clip-path="url(#p9d99ad129b)" style="fill: none; stroke: #000000; stroke-opacity: 0.9"/>
    <path d="M 420.813223 229.064582 
L 393.920809 191.460161 
" clip-path="url(#p9d99ad129b)" style="fill: none; stroke: #000000; stroke-opacity: 0.9"/>
    <path d="M 393.920809 191.460161 
L 292.814897 175.948071 
" clip-path="url(#p9d99ad129b)" style="fill: none; stroke: #000000; stroke-opacity: 0.9"/>
    <path d="M 292.814897 175.948071 
L 167.299524 186.17279 
" clip-path="url(#p9d99ad129b)" style="fill: none; stroke: #000000; stroke-opacity: 0.9"/>
    <path d="M 289.523951 299.446949 
L 190.213954 315.609917 
" clip-path="url(#p9d99ad129b)" style="fill: none; stroke: #000000; stroke-opacity: 0.9"/>
    <path d="M 190.213954 315.609917 
L 90.973084 302.824866 
" clip-path="url(#p9d99ad129b)" style="fill: none; stroke: #000000; stroke-opacity: 0.9"/>
    <path d="M 90.973084 302.824866 
L 39.986777 263.829593 
" clip-path="url(#p9d99ad129b)" style="fill: none; stroke: #000000; stroke-opacity: 0.9"/>
    <path d="M 39.986777 263.829593 
L 69.087633 218.558024 
" clip-path="url(#p9d99ad129b)" style="fill: none; stroke: #000000; stroke-opacity: 0.9"/>
    <path d="M 69.087633 218.558024 
L 167.299524 186.17279 
" clip-path="url(#p9d99ad129b)" style="fill: none; stroke: #000000; stroke-opacity: 0.9"/>
    <path d="M 164.107533 218.846442 
L 130.82871 248.355093 
" clip-path="url(#p9d99ad129b)" style="fill: none; stroke: #000000; stroke-opacity: 0.9"/>
   </g>
   <g id="text_1">
    <g id="patch_2">
     <path d="M 368.928998 54.420834 
L 388.194734 44.259424 
Q 390.317559 43.139774 389.197908 41.016949 
L 385.585869 34.16863 
Q 384.466219 32.045806 382.343395 33.165456 
L 363.077659 43.326866 
Q 360.954834 44.446517 362.074485 46.569341 
L 365.686523 53.417661 
Q 366.806174 55.540485 368.928998 54.420834 
z
" clip-path="url(#p9d99ad129b)" style="fill: #ffffff; stroke: #ffffff; stroke-linejoin: miter"/>
    </g>
    <g clip-path="url(#p9d99ad129b)">
     <!-- a = 0 -->
     <g style="fill: #ff0000" transform="translate(367.033173 50.826406)rotate(-27.808702)scale(0.08 -0.08)">
      <defs>
       <path id="DejaVuSans-61" d="M 2194 1759 
Q 1497 1759 1228 1600 
Q 959 1441 959 1056 
Q 959 750 1161 570 
Q 1363 391 1709 391 
Q 2188 391 2477 730 
Q 2766 1069 2766 1631 
L 2766 1759 
L 2194 1759 
z
M 3341 1997 
L 3341 0 
L 2766 0 
L 2766 531 
Q 2569 213 2275 61 
Q 1981 -91 1556 -91 
Q 1019 -91 701 211 
Q 384 513 384 1019 
Q 384 1609 779 1909 
Q 1175 2209 1959 2209 
L 2766 2209 
L 2766 2266 
Q 2766 2663 2505 2880 
Q 2244 3097 1772 3097 
Q 1472 3097 1187 3025 
Q 903 2953 641 2809 
L 641 3341 
Q 956 3463 1253 3523 
Q 1550 3584 1831 3584 
Q 2591 3584 2966 3190 
Q 3341 2797 3341 1997 
z
" transform="scale(0.015625)"/>
       <path id="DejaVuSans-20" transform="scale(0.015625)"/>
       <path id="DejaVuSans-3d" d="M 678 2906 
L 4684 2906 
L 4684 2381 
L 678 2381 
L 678 2906 
z
M 678 1631 
L 4684 1631 
L 4684 1100 
L 678 1100 
L 678 1631 
z
" transform="scale(0.015625)"/>
       <path id="DejaVuSans-30" d="M 2034 4250 
Q 1547 4250 1301 3770 
Q 1056 3291 1056 2328 
Q 1056 1369 1301 889 
Q 1547 409 2034 409 
Q 2525 409 2770 889 
Q 3016 1369 3016 2328 
Q 3016 3291 2770 3770 
Q 2525 4250 2034 4250 
z
M 2034 4750 
Q 2819 4750 3233 4129 
Q 3647 3509 3647 2328 
Q 3647 1150 3233 529 
Q 2819 -91 2034 -91 
Q 1250 -91 836 529 
Q 422 1150 422 2328 
Q 422 3509 836 4129 
Q 1250 4750 2034 4750 
z
" transform="scale(0.015625)"/>
      </defs>
      <use xlink:href="#DejaVuSans-61"/>
      <use xlink:href="#DejaVuSans-20" x="61.279297"/>
      <use xlink:href="#DejaVuSans-3d" x="93.066406"/>
      <use xlink:href="#DejaVuSans-20" x="176.855469"/>
      <use xlink:href="#DejaVuSans-30" x="208.642578"/>
     </g>
    </g>
   </g>
   <g id="text_2">
    <g id="patch_3">
     <path d="M 291.765511 75.137213 
L 330.210088 67.705769 
Q 332.566468 67.250274 332.110973 64.893895 
L 330.641528 57.292116 
Q 330.186034 54.935737 327.829654 55.391231 
L 289.385076 62.822675 
Q 287.028697 63.27817 287.484191 65.634549 
L 288.953636 73.236328 
Q 289.409131 75.592707 291.765511 75.137213 
z
" clip-path="url(#p9d99ad129b)" style="fill: #ffffff; stroke: #ffffff; stroke-linejoin: miter"/>
    </g>
    <g clip-path="url(#p9d99ad129b)">
     <!-- b = (Q / 2 -->
     <g style="fill: #ff0000" transform="translate(290.994254 71.147322)rotate(-10.940498)scale(0.08 -0.08)">
      <defs>
       <path id="DejaVuSans-62" d="M 3116 1747 
Q 3116 2381 2855 2742 
Q 2594 3103 2138 3103 
Q 1681 3103 1420 2742 
Q 1159 2381 1159 1747 
Q 1159 1113 1420 752 
Q 1681 391 2138 391 
Q 2594 391 2855 752 
Q 3116 1113 3116 1747 
z
M 1159 2969 
Q 1341 3281 1617 3432 
Q 1894 3584 2278 3584 
Q 2916 3584 3314 3078 
Q 3713 2572 3713 1747 
Q 3713 922 3314 415 
Q 2916 -91 2278 -91 
Q 1894 -91 1617 61 
Q 1341 213 1159 525 
L 1159 0 
L 581 0 
L 581 4863 
L 1159 4863 
L 1159 2969 
z
" transform="scale(0.015625)"/>
       <path id="DejaVuSans-28" d="M 1984 4856 
Q 1566 4138 1362 3434 
Q 1159 2731 1159 2009 
Q 1159 1288 1364 580 
Q 1569 -128 1984 -844 
L 1484 -844 
Q 1016 -109 783 600 
Q 550 1309 550 2009 
Q 550 2706 781 3412 
Q 1013 4119 1484 4856 
L 1984 4856 
z
" transform="scale(0.015625)"/>
       <path id="DejaVuSans-51" d="M 2522 4238 
Q 1834 4238 1429 3725 
Q 1025 3213 1025 2328 
Q 1025 1447 1429 934 
Q 1834 422 2522 422 
Q 3209 422 3611 934 
Q 4013 1447 4013 2328 
Q 4013 3213 3611 3725 
Q 3209 4238 2522 4238 
z
M 3406 84 
L 4238 -825 
L 3475 -825 
L 2784 -78 
Q 2681 -84 2626 -87 
Q 2572 -91 2522 -91 
Q 1538 -91 948 567 
Q 359 1225 359 2328 
Q 359 3434 948 4092 
Q 1538 4750 2522 4750 
Q 3503 4750 4090 4092 
Q 4678 3434 4678 2328 
Q 4678 1516 4351 937 
Q 4025 359 3406 84 
z
" transform="scale(0.015625)"/>
       <path id="DejaVuSans-2f" d="M 1625 4666 
L 2156 4666 
L 531 -594 
L 0 -594 
L 1625 4666 
z
" transform="scale(0.015625)"/>
       <path id="DejaVuSans-32" d="M 1228 531 
L 3431 531 
L 3431 0 
L 469 0 
L 469 531 
Q 828 903 1448 1529 
Q 2069 2156 2228 2338 
Q 2531 2678 2651 2914 
Q 2772 3150 2772 3378 
Q 2772 3750 2511 3984 
Q 2250 4219 1831 4219 
Q 1534 4219 1204 4116 
Q 875 4013 500 3803 
L 500 4441 
Q 881 4594 1212 4672 
Q 1544 4750 1819 4750 
Q 2544 4750 2975 4387 
Q 3406 4025 3406 3419 
Q 3406 3131 3298 2873 
Q 3191 2616 2906 2266 
Q 2828 2175 2409 1742 
Q 1991 1309 1228 531 
z
" transform="scale(0.015625)"/>
      </defs>
      <use xlink:href="#DejaVuSans-62"/>
      <use xlink:href="#DejaVuSans-20" x="63.476562"/>
      <use xlink:href="#DejaVuSans-3d" x="95.263672"/>
      <use xlink:href="#DejaVuSans-20" x="179.052734"/>
      <use xlink:href="#DejaVuSans-28" x="210.839844"/>
      <use xlink:href="#DejaVuSans-51" x="249.853516"/>
      <use xlink:href="#DejaVuSans-20" x="328.564453"/>
      <use xlink:href="#DejaVuSans-2f" x="360.351562"/>
      <use xlink:href="#DejaVuSans-20" x="394.042969"/>
      <use xlink:href="#DejaVuSans-32" x="425.830078"/>
     </g>
    </g>
   </g>
   <g id="text_3">
    <g id="patch_4">
     <path d="M 229.84153 92.4172 
L 250.753174 85.721309 
Q 253.03886 84.989434 252.306985 82.703748 
L 249.945927 75.330031 
Q 249.214052 73.044345 246.928366 73.77622 
L 226.016723 80.472111 
Q 223.731037 81.203986 224.462912 83.489672 
L 226.82397 90.863389 
Q 227.555845 93.149075 229.84153 92.4172 
z
" clip-path="url(#p9d99ad129b)" style="fill: #ffffff; stroke: #ffffff; stroke-linejoin: miter"/>
    </g>
    <g clip-path="url(#p9d99ad129b)">
     <!-- d = 1 -->
     <g style="fill: #ff0000" transform="translate(228.602299 88.54701)rotate(-17.755023)scale(0.08 -0.08)">
      <defs>
       <path id="DejaVuSans-64" d="M 2906 2969 
L 2906 4863 
L 3481 4863 
L 3481 0 
L 2906 0 
L 2906 525 
Q 2725 213 2448 61 
Q 2172 -91 1784 -91 
Q 1150 -91 751 415 
Q 353 922 353 1747 
Q 353 2572 751 3078 
Q 1150 3584 1784 3584 
Q 2172 3584 2448 3432 
Q 2725 3281 2906 2969 
z
M 947 1747 
Q 947 1113 1208 752 
Q 1469 391 1925 391 
Q 2381 391 2643 752 
Q 2906 1113 2906 1747 
Q 2906 2381 2643 2742 
Q 2381 3103 1925 3103 
Q 1469 3103 1208 2742 
Q 947 2381 947 1747 
z
" transform="scale(0.015625)"/>
       <path id="DejaVuSans-31" d="M 794 531 
L 1825 531 
L 1825 4091 
L 703 3866 
L 703 4441 
L 1819 4666 
L 2450 4666 
L 2450 531 
L 3481 531 
L 3481 0 
L 794 0 
L 794 531 
z
" transform="scale(0.015625)"/>
      </defs>
      <use xlink:href="#DejaVuSans-64"/>
      <use xlink:href="#DejaVuSans-20" x="63.476562"/>
      <use xlink:href="#DejaVuSans-3d" x="95.263672"/>
      <use xlink:href="#DejaVuSans-20" x="179.052734"/>
      <use xlink:href="#DejaVuSans-31" x="210.839844"/>
     </g>
    </g>
   </g>
   <g id="text_4">
    <g id="patch_5">
     <path d="M 202.710603 126.276995 
L 209.267662 105.68187 
Q 209.99576 103.394979 207.708869 102.66688 
L 200.331262 100.318004 
Q 198.04437 99.589905 197.316272 101.876797 
L 190.759213 122.471922 
Q 190.031115 124.758813 192.318006 125.486912 
L 199.695613 127.835788 
Q 201.982505 128.563887 202.710603 126.276995 
z
" clip-path="url(#p9d99ad129b)" style="fill: #ffffff; stroke: #ffffff; stroke-linejoin: miter"/>
    </g>
    <g clip-path="url(#p9d99ad129b)">
     <!-- y = 0 -->
     <g style="fill: #ff0000" transform="translate(198.838372 125.044157)rotate(-72.339609)scale(0.08 -0.08)">
      <defs>
       <path id="DejaVuSans-79" d="M 2059 -325 
Q 1816 -950 1584 -1140 
Q 1353 -1331 966 -1331 
L 506 -1331 
L 506 -850 
L 844 -850 
Q 1081 -850 1212 -737 
Q 1344 -625 1503 -206 
L 1606 56 
L 191 3500 
L 800 3500 
L 1894 763 
L 2988 3500 
L 3597 3500 
L 2059 -325 
z
" transform="scale(0.015625)"/>
      </defs>
      <use xlink:href="#DejaVuSans-79"/>
      <use xlink:href="#DejaVuSans-20" x="59.179688"/>
      <use xlink:href="#DejaVuSans-3d" x="90.966797"/>
      <use xlink:href="#DejaVuSans-20" x="174.755859"/>
      <use xlink:href="#DejaVuSans-30" x="206.542969"/>
     </g>
    </g>
   </g>
   <g id="text_5">
    <g id="patch_6">
     <path d="M 238.959557 204.708822 
L 264.642059 217.352843 
Q 266.795258 218.412907 267.855322 216.259708 
L 271.275132 209.313399 
Q 272.335196 207.1602 270.181997 206.100137 
L 244.499495 193.456116 
Q 242.346296 192.396052 241.286232 194.549251 
L 237.866422 201.49556 
Q 236.806358 203.648758 238.959557 204.708822 
z
" clip-path="url(#p9d99ad129b)" style="fill: #ffffff; stroke: #ffffff; stroke-linejoin: miter"/>
    </g>
    <g clip-path="url(#p9d99ad129b)">
     <!-- d &gt;= E -->
     <g style="fill: #ff0000" transform="translate(240.754488 201.062963)rotate(-333.788034)scale(0.08 -0.08)">
      <defs>
       <path id="DejaVuSans-3e" d="M 678 3150 
L 678 3719 
L 4684 2266 
L 4684 1747 
L 678 294 
L 678 863 
L 3897 2003 
L 678 3150 
z
" transform="scale(0.015625)"/>
       <path id="DejaVuSans-45" d="M 628 4666 
L 3578 4666 
L 3578 4134 
L 1259 4134 
L 1259 2753 
L 3481 2753 
L 3481 2222 
L 1259 2222 
L 1259 531 
L 3634 531 
L 3634 0 
L 628 0 
L 628 4666 
z
" transform="scale(0.015625)"/>
      </defs>
      <use xlink:href="#DejaVuSans-64"/>
      <use xlink:href="#DejaVuSans-20" x="63.476562"/>
      <use xlink:href="#DejaVuSans-3e" x="95.263672"/>
      <use xlink:href="#DejaVuSans-3d" x="179.052734"/>
      <use xlink:href="#DejaVuSans-20" x="262.841797"/>
      <use xlink:href="#DejaVuSans-45" x="294.628906"/>
     </g>
    </g>
   </g>
   <g id="text_6">
    <g id="patch_7">
     <path d="M 368.800581 258.578503 
L 408.336373 241.344518 
Q 410.536435 240.385493 409.577409 238.185432 
L 406.483554 231.087942 
Q 405.524529 228.88788 403.324467 229.846905 
L 363.788675 247.08089 
Q 361.588613 248.039915 362.547639 250.239976 
L 365.641494 257.337466 
Q 366.60052 259.537528 368.800581 258.578503 
z
" clip-path="url(#p9d99ad129b)" style="fill: #ffffff; stroke: #ffffff; stroke-linejoin: miter"/>
    </g>
    <g clip-path="url(#p9d99ad129b)">
     <!-- P &lt;= (a +  -->
     <g style="fill: #ff0000" transform="translate(367.176731 254.853294)rotate(-23.552792)scale(0.08 -0.08)">
      <defs>
       <path id="DejaVuSans-50" d="M 1259 4147 
L 1259 2394 
L 2053 2394 
Q 2494 2394 2734 2622 
Q 2975 2850 2975 3272 
Q 2975 3691 2734 3919 
Q 2494 4147 2053 4147 
L 1259 4147 
z
M 628 4666 
L 2053 4666 
Q 2838 4666 3239 4311 
Q 3641 3956 3641 3272 
Q 3641 2581 3239 2228 
Q 2838 1875 2053 1875 
L 1259 1875 
L 1259 0 
L 628 0 
L 628 4666 
z
" transform="scale(0.015625)"/>
       <path id="DejaVuSans-3c" d="M 4684 3150 
L 1459 2003 
L 4684 863 
L 4684 294 
L 678 1747 
L 678 2266 
L 4684 3719 
L 4684 3150 
z
" transform="scale(0.015625)"/>
       <path id="DejaVuSans-2b" d="M 2944 4013 
L 2944 2272 
L 4684 2272 
L 4684 1741 
L 2944 1741 
L 2944 0 
L 2419 0 
L 2419 1741 
L 678 1741 
L 678 2272 
L 2419 2272 
L 2419 4013 
L 2944 4013 
z
" transform="scale(0.015625)"/>
      </defs>
      <use xlink:href="#DejaVuSans-50"/>
      <use xlink:href="#DejaVuSans-20" x="60.302734"/>
      <use xlink:href="#DejaVuSans-3c" x="92.089844"/>
      <use xlink:href="#DejaVuSans-3d" x="175.878906"/>
      <use xlink:href="#DejaVuSans-20" x="259.667969"/>
      <use xlink:href="#DejaVuSans-28" x="291.455078"/>
      <use xlink:href="#DejaVuSans-61" x="330.46875"/>
      <use xlink:href="#DejaVuSans-20" x="391.748047"/>
      <use xlink:href="#DejaVuSans-2b" x="423.535156"/>
      <use xlink:href="#DejaVuSans-20" x="507.324219"/>
     </g>
    </g>
   </g>
   <g id="text_7">
    <g id="patch_8">
     <path d="M 389.965254 196.901185 
L 414.385666 231.048935 
Q 415.781741 233.001106 417.733913 231.605031 
L 424.212682 226.971806 
Q 426.164853 225.57573 424.768778 223.623559 
L 400.348366 189.475809 
Q 398.952291 187.523637 397.000119 188.919713 
L 390.52135 193.552938 
Q 388.569179 194.949013 389.965254 196.901185 
z
" clip-path="url(#p9d99ad129b)" style="fill: #ffffff; stroke: #ffffff; stroke-linejoin: miter"/>
    </g>
    <g clip-path="url(#p9d99ad129b)">
     <!-- b = (_a_0_ -->
     <g style="fill: #ff0000" transform="translate(393.45171 194.407881)rotate(-305.570064)scale(0.08 -0.08)">
      <defs>
       <path id="DejaVuSans-5f" d="M 3263 -1063 
L 3263 -1509 
L -63 -1509 
L -63 -1063 
L 3263 -1063 
z
" transform="scale(0.015625)"/>
      </defs>
      <use xlink:href="#DejaVuSans-62"/>
      <use xlink:href="#DejaVuSans-20" x="63.476562"/>
      <use xlink:href="#DejaVuSans-3d" x="95.263672"/>
      <use xlink:href="#DejaVuSans-20" x="179.052734"/>
      <use xlink:href="#DejaVuSans-28" x="210.839844"/>
      <use xlink:href="#DejaVuSans-5f" x="249.853516"/>
      <use xlink:href="#DejaVuSans-61" x="299.853516"/>
      <use xlink:href="#DejaVuSans-5f" x="361.132812"/>
      <use xlink:href="#DejaVuSans-30" x="411.132812"/>
      <use xlink:href="#DejaVuSans-5f" x="474.755859"/>
     </g>
    </g>
   </g>
   <g id="text_8">
    <g id="patch_9">
     <path d="M 323.667456 187.02623 
L 361.166183 192.77944 
Q 363.538425 193.143399 363.902384 190.771157 
L 365.076532 183.118205 
Q 365.440491 180.745962 363.068249 180.382003 
L 325.569523 174.628792 
Q 323.19728 174.264833 322.833321 176.637075 
L 321.659173 184.290028 
Q 321.295214 186.66227 323.667456 187.02623 
z
" clip-path="url(#p9d99ad129b)" style="fill: #ffffff; stroke: #ffffff; stroke-linejoin: miter"/>
    </g>
    <g clip-path="url(#p9d99ad129b)">
     <!-- d = (d / 2 -->
     <g style="fill: #ff0000" transform="translate(324.283723 183.00948)rotate(-351.277459)scale(0.08 -0.08)">
      <use xlink:href="#DejaVuSans-64"/>
      <use xlink:href="#DejaVuSans-20" x="63.476562"/>
      <use xlink:href="#DejaVuSans-3d" x="95.263672"/>
      <use xlink:href="#DejaVuSans-20" x="179.052734"/>
      <use xlink:href="#DejaVuSans-28" x="210.839844"/>
      <use xlink:href="#DejaVuSans-64" x="249.853516"/>
      <use xlink:href="#DejaVuSans-20" x="313.330078"/>
      <use xlink:href="#DejaVuSans-2f" x="345.117188"/>
      <use xlink:href="#DejaVuSans-20" x="378.808594"/>
      <use xlink:href="#DejaVuSans-32" x="410.595703"/>
     </g>
    </g>
   </g>
   <g id="text_9">
    <g id="patch_10">
     <path d="M 305.796001 296.365561 
L 341.866191 272.964302 
Q 343.879586 271.658071 342.573356 269.644676 
L 338.359401 263.149378 
Q 337.05317 261.135983 335.039775 262.442213 
L 298.969585 285.843473 
Q 296.95619 287.149703 298.26242 289.163099 
L 302.476375 295.658396 
Q 303.782606 297.671792 305.796001 296.365561 
z
" clip-path="url(#p9d99ad129b)" style="fill: #ffffff; stroke: #ffffff; stroke-linejoin: miter"/>
    </g>
    <g clip-path="url(#p9d99ad129b)">
     <!-- Not (P &lt;=  -->
     <g style="fill: #ff0000" transform="translate(303.584253 292.956421)rotate(-32.9743)scale(0.08 -0.08)">
      <defs>
       <path id="DejaVuSans-4e" d="M 628 4666 
L 1478 4666 
L 3547 763 
L 3547 4666 
L 4159 4666 
L 4159 0 
L 3309 0 
L 1241 3903 
L 1241 0 
L 628 0 
L 628 4666 
z
" transform="scale(0.015625)"/>
       <path id="DejaVuSans-6f" d="M 1959 3097 
Q 1497 3097 1228 2736 
Q 959 2375 959 1747 
Q 959 1119 1226 758 
Q 1494 397 1959 397 
Q 2419 397 2687 759 
Q 2956 1122 2956 1747 
Q 2956 2369 2687 2733 
Q 2419 3097 1959 3097 
z
M 1959 3584 
Q 2709 3584 3137 3096 
Q 3566 2609 3566 1747 
Q 3566 888 3137 398 
Q 2709 -91 1959 -91 
Q 1206 -91 779 398 
Q 353 888 353 1747 
Q 353 2609 779 3096 
Q 1206 3584 1959 3584 
z
" transform="scale(0.015625)"/>
       <path id="DejaVuSans-74" d="M 1172 4494 
L 1172 3500 
L 2356 3500 
L 2356 3053 
L 1172 3053 
L 1172 1153 
Q 1172 725 1289 603 
Q 1406 481 1766 481 
L 2356 481 
L 2356 0 
L 1766 0 
Q 1100 0 847 248 
Q 594 497 594 1153 
L 594 3053 
L 172 3053 
L 172 3500 
L 594 3500 
L 594 4494 
L 1172 4494 
z
" transform="scale(0.015625)"/>
      </defs>
      <use xlink:href="#DejaVuSans-4e"/>
      <use xlink:href="#DejaVuSans-6f" x="74.804688"/>
      <use xlink:href="#DejaVuSans-74" x="135.986328"/>
      <use xlink:href="#DejaVuSans-20" x="175.195312"/>
      <use xlink:href="#DejaVuSans-28" x="206.982422"/>
      <use xlink:href="#DejaVuSans-50" x="245.996094"/>
      <use xlink:href="#DejaVuSans-20" x="306.298828"/>
      <use xlink:href="#DejaVuSans-3c" x="338.085938"/>
      <use xlink:href="#DejaVuSans-3d" x="421.875"/>
      <use xlink:href="#DejaVuSans-20" x="505.664062"/>
     </g>
    </g>
   </g>
   <g id="text_10">
    <g id="patch_11">
     <path d="M 220.262485 317.181485 
L 261.524572 310.465969 
Q 263.893404 310.080435 263.50787 307.711604 
L 262.229786 299.85868 
Q 261.844252 297.489848 259.47542 297.875382 
L 218.213333 304.590897 
Q 215.844501 304.976431 216.230035 307.345263 
L 217.508119 315.198187 
Q 217.893653 317.567018 220.262485 317.181485 
z
" clip-path="url(#p9d99ad129b)" style="fill: #ffffff; stroke: #ffffff; stroke-linejoin: miter"/>
    </g>
    <g clip-path="url(#p9d99ad129b)">
     <!-- a = (_a_2_ -->
     <g style="fill: #ff0000" transform="translate(219.573946 312.950899)rotate(-9.243991)scale(0.08 -0.08)">
      <use xlink:href="#DejaVuSans-61"/>
      <use xlink:href="#DejaVuSans-20" x="61.279297"/>
      <use xlink:href="#DejaVuSans-3d" x="93.066406"/>
      <use xlink:href="#DejaVuSans-20" x="176.855469"/>
      <use xlink:href="#DejaVuSans-28" x="208.642578"/>
      <use xlink:href="#DejaVuSans-5f" x="247.65625"/>
      <use xlink:href="#DejaVuSans-61" x="297.65625"/>
      <use xlink:href="#DejaVuSans-5f" x="358.935547"/>
      <use xlink:href="#DejaVuSans-32" x="408.935547"/>
      <use xlink:href="#DejaVuSans-5f" x="472.558594"/>
     </g>
    </g>
   </g>
   <g id="text_11">
    <g id="patch_12">
     <path d="M 119.130461 312.883173 
L 160.426679 318.203303 
Q 162.807007 318.509957 163.113661 316.129629 
L 164.130251 308.238592 
Q 164.436906 305.858264 162.056577 305.55161 
L 120.760359 300.23148 
Q 118.380031 299.924826 118.073377 302.305154 
L 117.056786 310.196191 
Q 116.750132 312.576519 119.130461 312.883173 
z
" clip-path="url(#p9d99ad129b)" style="fill: #ffffff; stroke: #ffffff; stroke-linejoin: miter"/>
    </g>
    <g clip-path="url(#p9d99ad129b)">
     <!-- y = (_a_5_ -->
     <g style="fill: #ff0000" transform="translate(119.678126 308.632056)rotate(-352.659105)scale(0.08 -0.08)">
      <defs>
       <path id="DejaVuSans-35" d="M 691 4666 
L 3169 4666 
L 3169 4134 
L 1269 4134 
L 1269 2991 
Q 1406 3038 1543 3061 
Q 1681 3084 1819 3084 
Q 2600 3084 3056 2656 
Q 3513 2228 3513 1497 
Q 3513 744 3044 326 
Q 2575 -91 1722 -91 
Q 1428 -91 1123 -41 
Q 819 9 494 109 
L 494 744 
Q 775 591 1075 516 
Q 1375 441 1709 441 
Q 2250 441 2565 725 
Q 2881 1009 2881 1497 
Q 2881 1984 2565 2268 
Q 2250 2553 1709 2553 
Q 1456 2553 1204 2497 
Q 953 2441 691 2322 
L 691 4666 
z
" transform="scale(0.015625)"/>
      </defs>
      <use xlink:href="#DejaVuSans-79"/>
      <use xlink:href="#DejaVuSans-20" x="59.179688"/>
      <use xlink:href="#DejaVuSans-3d" x="90.966797"/>
      <use xlink:href="#DejaVuSans-20" x="174.755859"/>
      <use xlink:href="#DejaVuSans-28" x="206.542969"/>
      <use xlink:href="#DejaVuSans-5f" x="245.556641"/>
      <use xlink:href="#DejaVuSans-61" x="295.556641"/>
      <use xlink:href="#DejaVuSans-5f" x="356.835938"/>
      <use xlink:href="#DejaVuSans-35" x="406.835938"/>
      <use xlink:href="#DejaVuSans-5f" x="470.458984"/>
     </g>
    </g>
   </g>
   <g id="text_12">
    <g id="patch_13">
     <path d="M 46.602949 276.784935 
L 76.737261 299.832216 
Q 78.643616 301.290231 80.101632 299.383876 
L 84.805251 293.233895 
Q 86.263267 291.32754 84.356912 289.869524 
L 54.2226 266.822244 
Q 52.316245 265.364228 50.858229 267.270583 
L 46.154609 273.420564 
Q 44.696593 275.326919 46.602949 276.784935 
z
" clip-path="url(#p9d99ad129b)" style="fill: #ffffff; stroke: #ffffff; stroke-linejoin: miter"/>
    </g>
    <g clip-path="url(#p9d99ad129b)">
     <!-- b = (b / 2 -->
     <g style="fill: #ff0000" transform="translate(49.071703 273.557039)rotate(-322.590571)scale(0.08 -0.08)">
      <use xlink:href="#DejaVuSans-62"/>
      <use xlink:href="#DejaVuSans-20" x="63.476562"/>
      <use xlink:href="#DejaVuSans-3d" x="95.263672"/>
      <use xlink:href="#DejaVuSans-20" x="179.052734"/>
      <use xlink:href="#DejaVuSans-28" x="210.839844"/>
      <use xlink:href="#DejaVuSans-62" x="249.853516"/>
      <use xlink:href="#DejaVuSans-20" x="313.330078"/>
      <use xlink:href="#DejaVuSans-2f" x="345.117188"/>
      <use xlink:href="#DejaVuSans-20" x="378.808594"/>
      <use xlink:href="#DejaVuSans-32" x="410.595703"/>
     </g>
    </g>
   </g>
   <g id="text_13">
    <g id="patch_14">
     <path d="M 49.555644 260.541318 
L 70.06949 228.628373 
Q 71.367236 226.609498 69.348361 225.311753 
L 62.835386 221.125171 
Q 60.816511 219.827425 59.518766 221.8463 
L 39.00492 253.759244 
Q 37.707174 255.778119 39.726049 257.075865 
L 46.239023 261.262447 
Q 48.257898 262.560193 49.555644 260.541318 
z
" clip-path="url(#p9d99ad129b)" style="fill: #ffffff; stroke: #ffffff; stroke-linejoin: miter"/>
    </g>
    <g clip-path="url(#p9d99ad129b)">
     <!-- d = (d / 2 -->
     <g style="fill: #ff0000" transform="translate(46.137226 258.343937)rotate(-57.26683)scale(0.08 -0.08)">
      <use xlink:href="#DejaVuSans-64"/>
      <use xlink:href="#DejaVuSans-20" x="63.476562"/>
      <use xlink:href="#DejaVuSans-3d" x="95.263672"/>
      <use xlink:href="#DejaVuSans-20" x="179.052734"/>
      <use xlink:href="#DejaVuSans-28" x="210.839844"/>
      <use xlink:href="#DejaVuSans-64" x="249.853516"/>
      <use xlink:href="#DejaVuSans-20" x="313.330078"/>
      <use xlink:href="#DejaVuSans-2f" x="345.117188"/>
      <use xlink:href="#DejaVuSans-20" x="378.808594"/>
      <use xlink:href="#DejaVuSans-32" x="410.595703"/>
     </g>
    </g>
   </g>
   <g id="text_14">
    <g id="patch_15">
     <path d="M 173.955831 220.076098 
L 212.735287 195.776414 
Q 214.769008 194.50206 213.494653 192.468339 
L 209.383532 185.907471 
Q 208.109178 183.87375 206.075457 185.148104 
L 167.296001 209.447788 
Q 165.26228 210.722142 166.536635 212.755863 
L 170.647756 219.316731 
Q 171.92211 221.350452 173.955831 220.076098 
z
" clip-path="url(#p9d99ad129b)" style="fill: #ffffff; stroke: #ffffff; stroke-linejoin: miter"/>
    </g>
    <g clip-path="url(#p9d99ad129b)">
     <!-- Not(d &gt;= E -->
     <g style="fill: #ff0000" transform="translate(171.798057 216.632542)rotate(-32.071764)scale(0.08 -0.08)">
      <use xlink:href="#DejaVuSans-4e"/>
      <use xlink:href="#DejaVuSans-6f" x="74.804688"/>
      <use xlink:href="#DejaVuSans-74" x="135.986328"/>
      <use xlink:href="#DejaVuSans-28" x="175.195312"/>
      <use xlink:href="#DejaVuSans-64" x="214.208984"/>
      <use xlink:href="#DejaVuSans-20" x="277.685547"/>
      <use xlink:href="#DejaVuSans-3e" x="309.472656"/>
      <use xlink:href="#DejaVuSans-3d" x="393.261719"/>
      <use xlink:href="#DejaVuSans-20" x="477.050781"/>
      <use xlink:href="#DejaVuSans-45" x="508.837891"/>
     </g>
    </g>
   </g>
   <g id="PathCollection_1">
    <defs>
     <path id="mee4460b467" d="M 0 11.18034 
C 2.965061 11.18034 5.80908 10.002309 7.905694 7.905694 
C 10.002309 5.80908 11.18034 2.965061 11.18034 0 
C 11.18034 -2.965061 10.002309 -5.80908 7.905694 -7.905694 
C 5.80908 -10.002309 2.965061 -11.18034 0 -11.18034 
C -2.965061 -11.18034 -5.80908 -10.002309 -7.905694 -7.905694 
C -10.002309 -5.80908 -11.18034 -2.965061 -11.18034 0 
C -11.18034 2.965061 -10.002309 5.80908 -7.905694 7.905694 
C -5.80908 10.002309 -2.965061 11.18034 0 11.18034 
z
" style="stroke: #ffc0cb; stroke-opacity: 0.9; stroke-width: 2"/>
    </defs>
    <g clip-path="url(#p9d99ad129b)">
     <use xlink:href="#mee4460b467" x="401.806399" y="29.990083" style="fill: #ffc0cb; fill-opacity: 0.9; stroke: #ffc0cb; stroke-opacity: 0.9; stroke-width: 2"/>
     <use xlink:href="#mee4460b467" x="349.465994" y="57.596208" style="fill: #ffc0cb; fill-opacity: 0.9; stroke: #ffc0cb; stroke-opacity: 0.9; stroke-width: 2"/>
     <use xlink:href="#mee4460b467" x="270.12917" y="72.932236" style="fill: #ffc0cb; fill-opacity: 0.9; stroke: #ffc0cb; stroke-opacity: 0.9; stroke-width: 2"/>
     <use xlink:href="#mee4460b467" x="206.640726" y="93.261184" style="fill: #ffc0cb; fill-opacity: 0.9; stroke: #ffc0cb; stroke-opacity: 0.9; stroke-width: 2"/>
     <use xlink:href="#mee4460b467" x="193.386149" y="134.892608" style="fill: #ffc0cb; fill-opacity: 0.9; stroke: #ffc0cb; stroke-opacity: 0.9; stroke-width: 2"/>
     <use xlink:href="#mee4460b467" x="215.923755" y="186.37776" style="fill: #ffc0cb; fill-opacity: 0.9; stroke: #ffc0cb; stroke-opacity: 0.9; stroke-width: 2"/>
     <use xlink:href="#mee4460b467" x="293.217799" y="224.431198" style="fill: #ffc0cb; fill-opacity: 0.9; stroke: #ffc0cb; stroke-opacity: 0.9; stroke-width: 2"/>
     <use xlink:href="#mee4460b467" x="351.311825" y="259.360826" style="fill: #ffc0cb; fill-opacity: 0.9; stroke: #ffc0cb; stroke-opacity: 0.9; stroke-width: 2"/>
     <use xlink:href="#mee4460b467" x="420.813223" y="229.064582" style="fill: #ffc0cb; fill-opacity: 0.9; stroke: #ffc0cb; stroke-opacity: 0.9; stroke-width: 2"/>
     <use xlink:href="#mee4460b467" x="393.920809" y="191.460161" style="fill: #ffc0cb; fill-opacity: 0.9; stroke: #ffc0cb; stroke-opacity: 0.9; stroke-width: 2"/>
     <use xlink:href="#mee4460b467" x="292.814897" y="175.948071" style="fill: #ffc0cb; fill-opacity: 0.9; stroke: #ffc0cb; stroke-opacity: 0.9; stroke-width: 2"/>
     <use xlink:href="#mee4460b467" x="289.523951" y="299.446949" style="fill: #ffc0cb; fill-opacity: 0.9; stroke: #ffc0cb; stroke-opacity: 0.9; stroke-width: 2"/>
     <use xlink:href="#mee4460b467" x="190.213954" y="315.609917" style="fill: #ffc0cb; fill-opacity: 0.9; stroke: #ffc0cb; stroke-opacity: 0.9; stroke-width: 2"/>
     <use xlink:href="#mee4460b467" x="90.973084" y="302.824866" style="fill: #ffc0cb; fill-opacity: 0.9; stroke: #ffc0cb; stroke-opacity: 0.9; stroke-width: 2"/>
     <use xlink:href="#mee4460b467" x="39.986777" y="263.829593" style="fill: #ffc0cb; fill-opacity: 0.9; stroke: #ffc0cb; stroke-opacity: 0.9; stroke-width: 2"/>
     <use xlink:href="#mee4460b467" x="69.087633" y="218.558024" style="fill: #ffc0cb; fill-opacity: 0.9; stroke: #ffc0cb; stroke-opacity: 0.9; stroke-width: 2"/>
     <use xlink:href="#mee4460b467" x="167.299524" y="186.17279" style="fill: #ffc0cb; fill-opacity: 0.9; stroke: #ffc0cb; stroke-opacity: 0.9; stroke-width: 2"/>
     <use xlink:href="#mee4460b467" x="164.107533" y="218.846442" style="fill: #ffc0cb; fill-opacity: 0.9; stroke: #ffc0cb; stroke-opacity: 0.9; stroke-width: 2"/>
     <use xlink:href="#mee4460b467" x="130.82871" y="248.355093" style="fill: #ffc0cb; fill-opacity: 0.9; stroke: #ffc0cb; stroke-opacity: 0.9; stroke-width: 2"/>
    </g>
   </g>
   <g id="text_15">
    <g clip-path="url(#p9d99ad129b)">
     <!-- 0 -->
     <g style="opacity: 0.9" transform="translate(397.988899 33.301333)scale(0.12 -0.12)">
      <use xlink:href="#DejaVuSans-30"/>
     </g>
    </g>
   </g>
   <g id="text_16">
    <g clip-path="url(#p9d99ad129b)">
     <!-- 1 -->
     <g style="opacity: 0.9" transform="translate(345.648494 60.907458)scale(0.12 -0.12)">
      <use xlink:href="#DejaVuSans-31"/>
     </g>
    </g>
   </g>
   <g id="text_17">
    <g clip-path="url(#p9d99ad129b)">
     <!-- 2 -->
     <g style="opacity: 0.9" transform="translate(266.31167 76.243486)scale(0.12 -0.12)">
      <use xlink:href="#DejaVuSans-32"/>
     </g>
    </g>
   </g>
   <g id="text_18">
    <g clip-path="url(#p9d99ad129b)">
     <!-- 3 -->
     <g style="opacity: 0.9" transform="translate(202.823226 96.572434)scale(0.12 -0.12)">
      <defs>
       <path id="DejaVuSans-33" d="M 2597 2516 
Q 3050 2419 3304 2112 
Q 3559 1806 3559 1356 
Q 3559 666 3084 287 
Q 2609 -91 1734 -91 
Q 1441 -91 1130 -33 
Q 819 25 488 141 
L 488 750 
Q 750 597 1062 519 
Q 1375 441 1716 441 
Q 2309 441 2620 675 
Q 2931 909 2931 1356 
Q 2931 1769 2642 2001 
Q 2353 2234 1838 2234 
L 1294 2234 
L 1294 2753 
L 1863 2753 
Q 2328 2753 2575 2939 
Q 2822 3125 2822 3475 
Q 2822 3834 2567 4026 
Q 2313 4219 1838 4219 
Q 1578 4219 1281 4162 
Q 984 4106 628 3988 
L 628 4550 
Q 988 4650 1302 4700 
Q 1616 4750 1894 4750 
Q 2613 4750 3031 4423 
Q 3450 4097 3450 3541 
Q 3450 3153 3228 2886 
Q 3006 2619 2597 2516 
z
" transform="scale(0.015625)"/>
      </defs>
      <use xlink:href="#DejaVuSans-33"/>
     </g>
    </g>
   </g>
   <g id="text_19">
    <g clip-path="url(#p9d99ad129b)">
     <!-- 4 -->
     <g style="opacity: 0.9" transform="translate(189.568649 138.203858)scale(0.12 -0.12)">
      <defs>
       <path id="DejaVuSans-34" d="M 2419 4116 
L 825 1625 
L 2419 1625 
L 2419 4116 
z
M 2253 4666 
L 3047 4666 
L 3047 1625 
L 3713 1625 
L 3713 1100 
L 3047 1100 
L 3047 0 
L 2419 0 
L 2419 1100 
L 313 1100 
L 313 1709 
L 2253 4666 
z
" transform="scale(0.015625)"/>
      </defs>
      <use xlink:href="#DejaVuSans-34"/>
     </g>
    </g>
   </g>
   <g id="text_20">
    <g clip-path="url(#p9d99ad129b)">
     <!-- 5 -->
     <g style="opacity: 0.9" transform="translate(212.106255 189.68901)scale(0.12 -0.12)">
      <use xlink:href="#DejaVuSans-35"/>
     </g>
    </g>
   </g>
   <g id="text_21">
    <g clip-path="url(#p9d99ad129b)">
     <!-- 6 -->
     <g style="opacity: 0.9" transform="translate(289.400299 227.742448)scale(0.12 -0.12)">
      <defs>
       <path id="DejaVuSans-36" d="M 2113 2584 
Q 1688 2584 1439 2293 
Q 1191 2003 1191 1497 
Q 1191 994 1439 701 
Q 1688 409 2113 409 
Q 2538 409 2786 701 
Q 3034 994 3034 1497 
Q 3034 2003 2786 2293 
Q 2538 2584 2113 2584 
z
M 3366 4563 
L 3366 3988 
Q 3128 4100 2886 4159 
Q 2644 4219 2406 4219 
Q 1781 4219 1451 3797 
Q 1122 3375 1075 2522 
Q 1259 2794 1537 2939 
Q 1816 3084 2150 3084 
Q 2853 3084 3261 2657 
Q 3669 2231 3669 1497 
Q 3669 778 3244 343 
Q 2819 -91 2113 -91 
Q 1303 -91 875 529 
Q 447 1150 447 2328 
Q 447 3434 972 4092 
Q 1497 4750 2381 4750 
Q 2619 4750 2861 4703 
Q 3103 4656 3366 4563 
z
" transform="scale(0.015625)"/>
      </defs>
      <use xlink:href="#DejaVuSans-36"/>
     </g>
    </g>
   </g>
   <g id="text_22">
    <g clip-path="url(#p9d99ad129b)">
     <!-- 7 -->
     <g style="opacity: 0.9" transform="translate(347.494325 262.672076)scale(0.12 -0.12)">
      <defs>
       <path id="DejaVuSans-37" d="M 525 4666 
L 3525 4666 
L 3525 4397 
L 1831 0 
L 1172 0 
L 2766 4134 
L 525 4134 
L 525 4666 
z
" transform="scale(0.015625)"/>
      </defs>
      <use xlink:href="#DejaVuSans-37"/>
     </g>
    </g>
   </g>
   <g id="text_23">
    <g clip-path="url(#p9d99ad129b)">
     <!-- 8 -->
     <g style="opacity: 0.9" transform="translate(416.995723 232.375832)scale(0.12 -0.12)">
      <defs>
       <path id="DejaVuSans-38" d="M 2034 2216 
Q 1584 2216 1326 1975 
Q 1069 1734 1069 1313 
Q 1069 891 1326 650 
Q 1584 409 2034 409 
Q 2484 409 2743 651 
Q 3003 894 3003 1313 
Q 3003 1734 2745 1975 
Q 2488 2216 2034 2216 
z
M 1403 2484 
Q 997 2584 770 2862 
Q 544 3141 544 3541 
Q 544 4100 942 4425 
Q 1341 4750 2034 4750 
Q 2731 4750 3128 4425 
Q 3525 4100 3525 3541 
Q 3525 3141 3298 2862 
Q 3072 2584 2669 2484 
Q 3125 2378 3379 2068 
Q 3634 1759 3634 1313 
Q 3634 634 3220 271 
Q 2806 -91 2034 -91 
Q 1263 -91 848 271 
Q 434 634 434 1313 
Q 434 1759 690 2068 
Q 947 2378 1403 2484 
z
M 1172 3481 
Q 1172 3119 1398 2916 
Q 1625 2713 2034 2713 
Q 2441 2713 2670 2916 
Q 2900 3119 2900 3481 
Q 2900 3844 2670 4047 
Q 2441 4250 2034 4250 
Q 1625 4250 1398 4047 
Q 1172 3844 1172 3481 
z
" transform="scale(0.015625)"/>
      </defs>
      <use xlink:href="#DejaVuSans-38"/>
     </g>
    </g>
   </g>
   <g id="text_24">
    <g clip-path="url(#p9d99ad129b)">
     <!-- 9 -->
     <g style="opacity: 0.9" transform="translate(390.103309 194.771411)scale(0.12 -0.12)">
      <defs>
       <path id="DejaVuSans-39" d="M 703 97 
L 703 672 
Q 941 559 1184 500 
Q 1428 441 1663 441 
Q 2288 441 2617 861 
Q 2947 1281 2994 2138 
Q 2813 1869 2534 1725 
Q 2256 1581 1919 1581 
Q 1219 1581 811 2004 
Q 403 2428 403 3163 
Q 403 3881 828 4315 
Q 1253 4750 1959 4750 
Q 2769 4750 3195 4129 
Q 3622 3509 3622 2328 
Q 3622 1225 3098 567 
Q 2575 -91 1691 -91 
Q 1453 -91 1209 -44 
Q 966 3 703 97 
z
M 1959 2075 
Q 2384 2075 2632 2365 
Q 2881 2656 2881 3163 
Q 2881 3666 2632 3958 
Q 2384 4250 1959 4250 
Q 1534 4250 1286 3958 
Q 1038 3666 1038 3163 
Q 1038 2656 1286 2365 
Q 1534 2075 1959 2075 
z
" transform="scale(0.015625)"/>
      </defs>
      <use xlink:href="#DejaVuSans-39"/>
     </g>
    </g>
   </g>
   <g id="text_25">
    <g clip-path="url(#p9d99ad129b)">
     <!-- 10 -->
     <g style="opacity: 0.9" transform="translate(285.179897 179.259321)scale(0.12 -0.12)">
      <use xlink:href="#DejaVuSans-31"/>
      <use xlink:href="#DejaVuSans-30" x="63.623047"/>
     </g>
    </g>
   </g>
   <g id="text_26">
    <g clip-path="url(#p9d99ad129b)">
     <!-- 11 -->
     <g style="opacity: 0.9" transform="translate(281.888951 302.758199)scale(0.12 -0.12)">
      <use xlink:href="#DejaVuSans-31"/>
      <use xlink:href="#DejaVuSans-31" x="63.623047"/>
     </g>
    </g>
   </g>
   <g id="text_27">
    <g clip-path="url(#p9d99ad129b)">
     <!-- 12 -->
     <g style="opacity: 0.9" transform="translate(182.578954 318.921167)scale(0.12 -0.12)">
      <use xlink:href="#DejaVuSans-31"/>
      <use xlink:href="#DejaVuSans-32" x="63.623047"/>
     </g>
    </g>
   </g>
   <g id="text_28">
    <g clip-path="url(#p9d99ad129b)">
     <!-- 13 -->
     <g style="opacity: 0.9" transform="translate(83.338084 306.136116)scale(0.12 -0.12)">
      <use xlink:href="#DejaVuSans-31"/>
      <use xlink:href="#DejaVuSans-33" x="63.623047"/>
     </g>
    </g>
   </g>
   <g id="text_29">
    <g clip-path="url(#p9d99ad129b)">
     <!-- 14 -->
     <g style="opacity: 0.9" transform="translate(32.351777 267.140843)scale(0.12 -0.12)">
      <use xlink:href="#DejaVuSans-31"/>
      <use xlink:href="#DejaVuSans-34" x="63.623047"/>
     </g>
    </g>
   </g>
   <g id="text_30">
    <g clip-path="url(#p9d99ad129b)">
     <!-- 15 -->
     <g style="opacity: 0.9" transform="translate(61.452633 221.869274)scale(0.12 -0.12)">
      <use xlink:href="#DejaVuSans-31"/>
      <use xlink:href="#DejaVuSans-35" x="63.623047"/>
     </g>
    </g>
   </g>
   <g id="text_31">
    <g clip-path="url(#p9d99ad129b)">
     <!-- 16 -->
     <g style="opacity: 0.9" transform="translate(159.664524 189.48404)scale(0.12 -0.12)">
      <use xlink:href="#DejaVuSans-31"/>
      <use xlink:href="#DejaVuSans-36" x="63.623047"/>
     </g>
    </g>
   </g>
   <g id="text_32">
    <g clip-path="url(#p9d99ad129b)">
     <!-- 17 -->
     <g style="opacity: 0.9" transform="translate(156.472533 222.157692)scale(0.12 -0.12)">
      <use xlink:href="#DejaVuSans-31"/>
      <use xlink:href="#DejaVuSans-37" x="63.623047"/>
     </g>
    </g>
   </g>
   <g id="text_33">
    <g clip-path="url(#p9d99ad129b)">
     <!-- 18 -->
     <g style="opacity: 0.9" transform="translate(123.19371 251.666343)scale(0.12 -0.12)">
      <use xlink:href="#DejaVuSans-31"/>
      <use xlink:href="#DejaVuSans-38" x="63.623047"/>
     </g>
    </g>
   </g>
   <g id="text_34">
    <g clip-path="url(#p9d99ad129b)">
     <!-- ((Q &gt;= P and P &gt;= 0) and E &gt;= 0) -->
     <g transform="translate(-153.043058 127.743107)scale(0.08 -0.08)">
      <defs>
       <path id="DejaVuSans-6e" d="M 3513 2113 
L 3513 0 
L 2938 0 
L 2938 2094 
Q 2938 2591 2744 2837 
Q 2550 3084 2163 3084 
Q 1697 3084 1428 2787 
Q 1159 2491 1159 1978 
L 1159 0 
L 581 0 
L 581 3500 
L 1159 3500 
L 1159 2956 
Q 1366 3272 1645 3428 
Q 1925 3584 2291 3584 
Q 2894 3584 3203 3211 
Q 3513 2838 3513 2113 
z
" transform="scale(0.015625)"/>
       <path id="DejaVuSans-29" d="M 513 4856 
L 1013 4856 
Q 1481 4119 1714 3412 
Q 1947 2706 1947 2009 
Q 1947 1309 1714 600 
Q 1481 -109 1013 -844 
L 513 -844 
Q 928 -128 1133 580 
Q 1338 1288 1338 2009 
Q 1338 2731 1133 3434 
Q 928 4138 513 4856 
z
" transform="scale(0.015625)"/>
      </defs>
      <use xlink:href="#DejaVuSans-28"/>
      <use xlink:href="#DejaVuSans-28" x="39.013672"/>
      <use xlink:href="#DejaVuSans-51" x="78.027344"/>
      <use xlink:href="#DejaVuSans-20" x="156.738281"/>
      <use xlink:href="#DejaVuSans-3e" x="188.525391"/>
      <use xlink:href="#DejaVuSans-3d" x="272.314453"/>
      <use xlink:href="#DejaVuSans-20" x="356.103516"/>
      <use xlink:href="#DejaVuSans-50" x="387.890625"/>
      <use xlink:href="#DejaVuSans-20" x="448.193359"/>
      <use xlink:href="#DejaVuSans-61" x="479.980469"/>
      <use xlink:href="#DejaVuSans-6e" x="541.259766"/>
      <use xlink:href="#DejaVuSans-64" x="604.638672"/>
      <use xlink:href="#DejaVuSans-20" x="668.115234"/>
      <use xlink:href="#DejaVuSans-50" x="699.902344"/>
      <use xlink:href="#DejaVuSans-20" x="760.205078"/>
      <use xlink:href="#DejaVuSans-3e" x="791.992188"/>
      <use xlink:href="#DejaVuSans-3d" x="875.78125"/>
      <use xlink:href="#DejaVuSans-20" x="959.570312"/>
      <use xlink:href="#DejaVuSans-30" x="991.357422"/>
      <use xlink:href="#DejaVuSans-29" x="1054.980469"/>
      <use xlink:href="#DejaVuSans-20" x="1093.994141"/>
      <use xlink:href="#DejaVuSans-61" x="1125.78125"/>
      <use xlink:href="#DejaVuSans-6e" x="1187.060547"/>
      <use xlink:href="#DejaVuSans-64" x="1250.439453"/>
      <use xlink:href="#DejaVuSans-20" x="1313.916016"/>
      <use xlink:href="#DejaVuSans-45" x="1345.703125"/>
      <use xlink:href="#DejaVuSans-20" x="1408.886719"/>
      <use xlink:href="#DejaVuSans-3e" x="1440.673828"/>
      <use xlink:href="#DejaVuSans-3d" x="1524.462891"/>
      <use xlink:href="#DejaVuSans-20" x="1608.251953"/>
      <use xlink:href="#DejaVuSans-30" x="1640.039062"/>
      <use xlink:href="#DejaVuSans-29" x="1703.662109"/>
     </g>
    </g>
   </g>
   <g id="text_35">
    <g clip-path="url(#p9d99ad129b)">
     <!-- ((((a == (Q * y) and b == (Q * (d / 2))) and (P - (d * Q)) &lt;= (y * Q)) and (y * Q) &lt;= P) and Q &gt;= 0) -->
     <g transform="translate(209.373425 201.58968)scale(0.08 -0.08)">
      <defs>
       <path id="DejaVuSans-2a" d="M 3009 3897 
L 1888 3291 
L 3009 2681 
L 2828 2375 
L 1778 3009 
L 1778 1831 
L 1422 1831 
L 1422 3009 
L 372 2375 
L 191 2681 
L 1313 3291 
L 191 3897 
L 372 4206 
L 1422 3572 
L 1422 4750 
L 1778 4750 
L 1778 3572 
L 2828 4206 
L 3009 3897 
z
" transform="scale(0.015625)"/>
       <path id="DejaVuSans-2d" d="M 313 2009 
L 1997 2009 
L 1997 1497 
L 313 1497 
L 313 2009 
z
" transform="scale(0.015625)"/>
      </defs>
      <use xlink:href="#DejaVuSans-28"/>
      <use xlink:href="#DejaVuSans-28" x="39.013672"/>
      <use xlink:href="#DejaVuSans-28" x="78.027344"/>
      <use xlink:href="#DejaVuSans-28" x="117.041016"/>
      <use xlink:href="#DejaVuSans-61" x="156.054688"/>
      <use xlink:href="#DejaVuSans-20" x="217.333984"/>
      <use xlink:href="#DejaVuSans-3d" x="249.121094"/>
      <use xlink:href="#DejaVuSans-3d" x="332.910156"/>
      <use xlink:href="#DejaVuSans-20" x="416.699219"/>
      <use xlink:href="#DejaVuSans-28" x="448.486328"/>
      <use xlink:href="#DejaVuSans-51" x="487.5"/>
      <use xlink:href="#DejaVuSans-20" x="566.210938"/>
      <use xlink:href="#DejaVuSans-2a" x="597.998047"/>
      <use xlink:href="#DejaVuSans-20" x="647.998047"/>
      <use xlink:href="#DejaVuSans-79" x="679.785156"/>
      <use xlink:href="#DejaVuSans-29" x="738.964844"/>
      <use xlink:href="#DejaVuSans-20" x="777.978516"/>
      <use xlink:href="#DejaVuSans-61" x="809.765625"/>
      <use xlink:href="#DejaVuSans-6e" x="871.044922"/>
      <use xlink:href="#DejaVuSans-64" x="934.423828"/>
      <use xlink:href="#DejaVuSans-20" x="997.900391"/>
      <use xlink:href="#DejaVuSans-62" x="1029.6875"/>
      <use xlink:href="#DejaVuSans-20" x="1093.164062"/>
      <use xlink:href="#DejaVuSans-3d" x="1124.951172"/>
      <use xlink:href="#DejaVuSans-3d" x="1208.740234"/>
      <use xlink:href="#DejaVuSans-20" x="1292.529297"/>
      <use xlink:href="#DejaVuSans-28" x="1324.316406"/>
      <use xlink:href="#DejaVuSans-51" x="1363.330078"/>
      <use xlink:href="#DejaVuSans-20" x="1442.041016"/>
      <use xlink:href="#DejaVuSans-2a" x="1473.828125"/>
      <use xlink:href="#DejaVuSans-20" x="1523.828125"/>
      <use xlink:href="#DejaVuSans-28" x="1555.615234"/>
      <use xlink:href="#DejaVuSans-64" x="1594.628906"/>
      <use xlink:href="#DejaVuSans-20" x="1658.105469"/>
      <use xlink:href="#DejaVuSans-2f" x="1689.892578"/>
      <use xlink:href="#DejaVuSans-20" x="1723.583984"/>
      <use xlink:href="#DejaVuSans-32" x="1755.371094"/>
      <use xlink:href="#DejaVuSans-29" x="1818.994141"/>
      <use xlink:href="#DejaVuSans-29" x="1858.007812"/>
      <use xlink:href="#DejaVuSans-29" x="1897.021484"/>
      <use xlink:href="#DejaVuSans-20" x="1936.035156"/>
      <use xlink:href="#DejaVuSans-61" x="1967.822266"/>
      <use xlink:href="#DejaVuSans-6e" x="2029.101562"/>
      <use xlink:href="#DejaVuSans-64" x="2092.480469"/>
      <use xlink:href="#DejaVuSans-20" x="2155.957031"/>
      <use xlink:href="#DejaVuSans-28" x="2187.744141"/>
      <use xlink:href="#DejaVuSans-50" x="2226.757812"/>
      <use xlink:href="#DejaVuSans-20" x="2287.060547"/>
      <use xlink:href="#DejaVuSans-2d" x="2318.847656"/>
      <use xlink:href="#DejaVuSans-20" x="2354.931641"/>
      <use xlink:href="#DejaVuSans-28" x="2386.71875"/>
      <use xlink:href="#DejaVuSans-64" x="2425.732422"/>
      <use xlink:href="#DejaVuSans-20" x="2489.208984"/>
      <use xlink:href="#DejaVuSans-2a" x="2520.996094"/>
      <use xlink:href="#DejaVuSans-20" x="2570.996094"/>
      <use xlink:href="#DejaVuSans-51" x="2602.783203"/>
      <use xlink:href="#DejaVuSans-29" x="2681.494141"/>
      <use xlink:href="#DejaVuSans-29" x="2720.507812"/>
      <use xlink:href="#DejaVuSans-20" x="2759.521484"/>
      <use xlink:href="#DejaVuSans-3c" x="2791.308594"/>
      <use xlink:href="#DejaVuSans-3d" x="2875.097656"/>
      <use xlink:href="#DejaVuSans-20" x="2958.886719"/>
      <use xlink:href="#DejaVuSans-28" x="2990.673828"/>
      <use xlink:href="#DejaVuSans-79" x="3029.6875"/>
      <use xlink:href="#DejaVuSans-20" x="3088.867188"/>
      <use xlink:href="#DejaVuSans-2a" x="3120.654297"/>
      <use xlink:href="#DejaVuSans-20" x="3170.654297"/>
      <use xlink:href="#DejaVuSans-51" x="3202.441406"/>
      <use xlink:href="#DejaVuSans-29" x="3281.152344"/>
      <use xlink:href="#DejaVuSans-29" x="3320.166016"/>
      <use xlink:href="#DejaVuSans-20" x="3359.179688"/>
      <use xlink:href="#DejaVuSans-61" x="3390.966797"/>
      <use xlink:href="#DejaVuSans-6e" x="3452.246094"/>
      <use xlink:href="#DejaVuSans-64" x="3515.625"/>
      <use xlink:href="#DejaVuSans-20" x="3579.101562"/>
      <use xlink:href="#DejaVuSans-28" x="3610.888672"/>
      <use xlink:href="#DejaVuSans-79" x="3649.902344"/>
      <use xlink:href="#DejaVuSans-20" x="3709.082031"/>
      <use xlink:href="#DejaVuSans-2a" x="3740.869141"/>
      <use xlink:href="#DejaVuSans-20" x="3790.869141"/>
      <use xlink:href="#DejaVuSans-51" x="3822.65625"/>
      <use xlink:href="#DejaVuSans-29" x="3901.367188"/>
      <use xlink:href="#DejaVuSans-20" x="3940.380859"/>
      <use xlink:href="#DejaVuSans-3c" x="3972.167969"/>
      <use xlink:href="#DejaVuSans-3d" x="4055.957031"/>
      <use xlink:href="#DejaVuSans-20" x="4139.746094"/>
      <use xlink:href="#DejaVuSans-50" x="4171.533203"/>
      <use xlink:href="#DejaVuSans-29" x="4231.835938"/>
      <use xlink:href="#DejaVuSans-20" x="4270.849609"/>
      <use xlink:href="#DejaVuSans-61" x="4302.636719"/>
      <use xlink:href="#DejaVuSans-6e" x="4363.916016"/>
      <use xlink:href="#DejaVuSans-64" x="4427.294922"/>
      <use xlink:href="#DejaVuSans-20" x="4490.771484"/>
      <use xlink:href="#DejaVuSans-51" x="4522.558594"/>
      <use xlink:href="#DejaVuSans-20" x="4601.269531"/>
      <use xlink:href="#DejaVuSans-3e" x="4633.056641"/>
      <use xlink:href="#DejaVuSans-3d" x="4716.845703"/>
      <use xlink:href="#DejaVuSans-20" x="4800.634766"/>
      <use xlink:href="#DejaVuSans-30" x="4832.421875"/>
      <use xlink:href="#DejaVuSans-29" x="4896.044922"/>
     </g>
    </g>
   </g>
   <g id="text_36">
    <g clip-path="url(#p9d99ad129b)">
     <!-- If -->
     <g transform="translate(339.30299 194.264809)scale(0.08 -0.08)">
      <defs>
       <path id="DejaVuSans-49" d="M 628 4666 
L 1259 4666 
L 1259 0 
L 628 0 
L 628 4666 
z
" transform="scale(0.015625)"/>
       <path id="DejaVuSans-66" d="M 2375 4863 
L 2375 4384 
L 1825 4384 
Q 1516 4384 1395 4259 
Q 1275 4134 1275 3809 
L 1275 3500 
L 2222 3500 
L 2222 3053 
L 1275 3053 
L 1275 0 
L 697 0 
L 697 3053 
L 147 3053 
L 147 3500 
L 697 3500 
L 697 3744 
Q 697 4328 969 4595 
Q 1241 4863 1831 4863 
L 2375 4863 
z
" transform="scale(0.015625)"/>
      </defs>
      <use xlink:href="#DejaVuSans-49"/>
      <use xlink:href="#DejaVuSans-66" x="29.492188"/>
     </g>
    </g>
   </g>
   <g id="text_37">
    <g clip-path="url(#p9d99ad129b)">
     <!-- (P &gt;= (y * Q) and (y * Q) &gt;= (P - (E * Q))) -->
     <g transform="translate(114.14403 246.576026)scale(0.08 -0.08)">
      <use xlink:href="#DejaVuSans-28"/>
      <use xlink:href="#DejaVuSans-50" x="39.013672"/>
      <use xlink:href="#DejaVuSans-20" x="99.316406"/>
      <use xlink:href="#DejaVuSans-3e" x="131.103516"/>
      <use xlink:href="#DejaVuSans-3d" x="214.892578"/>
      <use xlink:href="#DejaVuSans-20" x="298.681641"/>
      <use xlink:href="#DejaVuSans-28" x="330.46875"/>
      <use xlink:href="#DejaVuSans-79" x="369.482422"/>
      <use xlink:href="#DejaVuSans-20" x="428.662109"/>
      <use xlink:href="#DejaVuSans-2a" x="460.449219"/>
      <use xlink:href="#DejaVuSans-20" x="510.449219"/>
      <use xlink:href="#DejaVuSans-51" x="542.236328"/>
      <use xlink:href="#DejaVuSans-29" x="620.947266"/>
      <use xlink:href="#DejaVuSans-20" x="659.960938"/>
      <use xlink:href="#DejaVuSans-61" x="691.748047"/>
      <use xlink:href="#DejaVuSans-6e" x="753.027344"/>
      <use xlink:href="#DejaVuSans-64" x="816.40625"/>
      <use xlink:href="#DejaVuSans-20" x="879.882812"/>
      <use xlink:href="#DejaVuSans-28" x="911.669922"/>
      <use xlink:href="#DejaVuSans-79" x="950.683594"/>
      <use xlink:href="#DejaVuSans-20" x="1009.863281"/>
      <use xlink:href="#DejaVuSans-2a" x="1041.650391"/>
      <use xlink:href="#DejaVuSans-20" x="1091.650391"/>
      <use xlink:href="#DejaVuSans-51" x="1123.4375"/>
      <use xlink:href="#DejaVuSans-29" x="1202.148438"/>
      <use xlink:href="#DejaVuSans-20" x="1241.162109"/>
      <use xlink:href="#DejaVuSans-3e" x="1272.949219"/>
      <use xlink:href="#DejaVuSans-3d" x="1356.738281"/>
      <use xlink:href="#DejaVuSans-20" x="1440.527344"/>
      <use xlink:href="#DejaVuSans-28" x="1472.314453"/>
      <use xlink:href="#DejaVuSans-50" x="1511.328125"/>
      <use xlink:href="#DejaVuSans-20" x="1571.630859"/>
      <use xlink:href="#DejaVuSans-2d" x="1603.417969"/>
      <use xlink:href="#DejaVuSans-20" x="1639.501953"/>
      <use xlink:href="#DejaVuSans-28" x="1671.289062"/>
      <use xlink:href="#DejaVuSans-45" x="1710.302734"/>
      <use xlink:href="#DejaVuSans-20" x="1773.486328"/>
      <use xlink:href="#DejaVuSans-2a" x="1805.273438"/>
      <use xlink:href="#DejaVuSans-20" x="1855.273438"/>
      <use xlink:href="#DejaVuSans-51" x="1887.060547"/>
      <use xlink:href="#DejaVuSans-29" x="1965.771484"/>
      <use xlink:href="#DejaVuSans-29" x="2004.785156"/>
      <use xlink:href="#DejaVuSans-29" x="2043.798828"/>
     </g>
    </g>
   </g>
  </g>
 </g>
 <defs>
  <clipPath id="p9d99ad129b">
   <rect x="0" y="0" width="460.8" height="345.6"/>
  </clipPath>
 </defs>
</svg>
