<?xml version="1.0" encoding="utf-8" standalone="no"?>
<!DOCTYPE svg PUBLIC "-//W3C//DTD SVG 1.1//EN"
  "http://www.w3.org/Graphics/SVG/1.1/DTD/svg11.dtd">
<svg xmlns:xlink="http://www.w3.org/1999/xlink" width="460.8pt" height="345.6pt" viewBox="0 0 460.8 345.6" xmlns="http://www.w3.org/2000/svg" version="1.1">
 <metadata>
  <rdf:RDF xmlns:dc="http://purl.org/dc/elements/1.1/" xmlns:cc="http://creativecommons.org/ns#" xmlns:rdf="http://www.w3.org/1999/02/22-rdf-syntax-ns#">
   <cc:Work>
    <dc:type rdf:resource="http://purl.org/dc/dcmitype/StillImage"/>
    <dc:date>2022-12-30T18:54:00.184178</dc:date>
    <dc:format>image/svg+xml</dc:format>
    <dc:creator>
     <cc:Agent>
      <dc:title>Matplotlib v3.5.1, https://matplotlib.org/</dc:title>
     </cc:Agent>
    </dc:creator>
   </cc:Work>
  </rdf:RDF>
 </metadata>
 <defs>
  <style type="text/css">*{stroke-linejoin: round; stroke-linecap: butt}</style>
 </defs>
 <g id="figure_1">
  <g id="patch_1">
   <path d="M 0 345.6 
L 460.8 345.6 
L 460.8 0 
L 0 0 
z
" style="fill: #ffffff"/>
  </g>
  <g id="axes_1">
   <g id="LineCollection_1">
    <path d="M 87.400935 29.990083 
L 104.250527 60.933259 
" clip-path="url(#pced635509f)" style="fill: none; stroke: #000000; stroke-opacity: 0.9"/>
    <path d="M 104.250527 60.933259 
L 126.960305 100.749849 
" clip-path="url(#pced635509f)" style="fill: none; stroke: #000000; stroke-opacity: 0.9"/>
    <path d="M 126.960305 100.749849 
L 156.985143 146.816191 
" clip-path="url(#pced635509f)" style="fill: none; stroke: #000000; stroke-opacity: 0.9"/>
    <path d="M 156.985143 146.816191 
L 194.474983 199.202481 
" clip-path="url(#pced635509f)" style="fill: none; stroke: #000000; stroke-opacity: 0.9"/>
    <path d="M 194.474983 199.202481 
L 255.197917 237.757959 
" clip-path="url(#pced635509f)" style="fill: none; stroke: #000000; stroke-opacity: 0.9"/>
    <path d="M 194.474983 199.202481 
L 279.662884 224.804473 
" clip-path="url(#pced635509f)" style="fill: none; stroke: #000000; stroke-opacity: 0.9"/>
    <path d="M 194.474983 199.202481 
L 105.637639 206.943889 
" clip-path="url(#pced635509f)" style="fill: none; stroke: #000000; stroke-opacity: 0.9"/>
    <path d="M 255.197917 237.757959 
L 325.399512 275.653877 
" clip-path="url(#pced635509f)" style="fill: none; stroke: #000000; stroke-opacity: 0.9"/>
    <path d="M 325.399512 275.653877 
L 332.016634 315.609917 
" clip-path="url(#pced635509f)" style="fill: none; stroke: #000000; stroke-opacity: 0.9"/>
    <path d="M 325.399512 275.653877 
L 248.851676 290.695635 
" clip-path="url(#pced635509f)" style="fill: none; stroke: #000000; stroke-opacity: 0.9"/>
    <path d="M 325.399512 275.653877 
L 397.075849 287.638457 
" clip-path="url(#pced635509f)" style="fill: none; stroke: #000000; stroke-opacity: 0.9"/>
    <path d="M 325.399512 275.653877 
L 391.09794 246.719439 
" clip-path="url(#pced635509f)" style="fill: none; stroke: #000000; stroke-opacity: 0.9"/>
    <path d="M 279.662884 224.804473 
L 280.276382 271.35739 
" clip-path="url(#pced635509f)" style="fill: none; stroke: #000000; stroke-opacity: 0.9"/>
    <path d="M 279.662884 224.804473 
L 213.440247 239.455786 
" clip-path="url(#pced635509f)" style="fill: none; stroke: #000000; stroke-opacity: 0.9"/>
    <path d="M 279.662884 224.804473 
L 357.95863 238.040697 
" clip-path="url(#pced635509f)" style="fill: none; stroke: #000000; stroke-opacity: 0.9"/>
    <path d="M 279.662884 224.804473 
L 348.119673 202.188374 
" clip-path="url(#pced635509f)" style="fill: none; stroke: #000000; stroke-opacity: 0.9"/>
    <path d="M 332.016634 315.609917 
L 289.965853 312.85162 
" clip-path="url(#pced635509f)" style="fill: none; stroke: #000000; stroke-opacity: 0.9"/>
    <path d="M 289.965853 312.85162 
L 280.276382 271.35739 
" clip-path="url(#pced635509f)" style="fill: none; stroke: #000000; stroke-opacity: 0.9"/>
    <path d="M 248.851676 290.695635 
L 194.945544 273.080415 
" clip-path="url(#pced635509f)" style="fill: none; stroke: #000000; stroke-opacity: 0.9"/>
    <path d="M 194.945544 273.080415 
L 213.440247 239.455786 
" clip-path="url(#pced635509f)" style="fill: none; stroke: #000000; stroke-opacity: 0.9"/>
    <path d="M 397.075849 287.638457 
L 420.813223 263.214065 
" clip-path="url(#pced635509f)" style="fill: none; stroke: #000000; stroke-opacity: 0.9"/>
    <path d="M 420.813223 263.214065 
L 357.95863 238.040697 
" clip-path="url(#pced635509f)" style="fill: none; stroke: #000000; stroke-opacity: 0.9"/>
    <path d="M 391.09794 246.719439 
L 408.206702 211.549757 
" clip-path="url(#pced635509f)" style="fill: none; stroke: #000000; stroke-opacity: 0.9"/>
    <path d="M 408.206702 211.549757 
L 348.119673 202.188374 
" clip-path="url(#pced635509f)" style="fill: none; stroke: #000000; stroke-opacity: 0.9"/>
    <path d="M 105.637639 206.943889 
L 39.986777 219.218986 
" clip-path="url(#pced635509f)" style="fill: none; stroke: #000000; stroke-opacity: 0.9"/>
   </g>
   <g id="text_1">
    <g id="patch_2">
     <path d="M 85.49576 39.604854 
L 95.140433 57.316668 
Q 96.288182 59.424433 98.395947 58.276684 
L 105.195685 54.574 
Q 107.30345 53.426252 106.155702 51.318487 
L 96.511028 33.606673 
Q 95.36328 31.498908 93.255515 32.646657 
L 86.455777 36.349341 
Q 84.348012 37.497089 85.49576 39.604854 
z
" clip-path="url(#pced635509f)" style="fill: #ffffff; stroke: #ffffff; stroke-linejoin: miter"/>
    </g>
    <g clip-path="url(#pced635509f)">
     <!-- r = 0 -->
     <g style="fill: #ff0000" transform="translate(89.06469 37.661453)rotate(-298.569766)scale(0.08 -0.08)">
      <defs>
       <path id="DejaVuSans-72" d="M 2631 2963 
Q 2534 3019 2420 3045 
Q 2306 3072 2169 3072 
Q 1681 3072 1420 2755 
Q 1159 2438 1159 1844 
L 1159 0 
L 581 0 
L 581 3500 
L 1159 3500 
L 1159 2956 
Q 1341 3275 1631 3429 
Q 1922 3584 2338 3584 
Q 2397 3584 2469 3576 
Q 2541 3569 2628 3553 
L 2631 2963 
z
" transform="scale(0.015625)"/>
       <path id="DejaVuSans-20" transform="scale(0.015625)"/>
       <path id="DejaVuSans-3d" d="M 678 2906 
L 4684 2906 
L 4684 2381 
L 678 2381 
L 678 2906 
z
M 678 1631 
L 4684 1631 
L 4684 1100 
L 678 1100 
L 678 1631 
z
" transform="scale(0.015625)"/>
       <path id="DejaVuSans-30" d="M 2034 4250 
Q 1547 4250 1301 3770 
Q 1056 3291 1056 2328 
Q 1056 1369 1301 889 
Q 1547 409 2034 409 
Q 2525 409 2770 889 
Q 3016 1369 3016 2328 
Q 3016 3291 2770 3770 
Q 2525 4250 2034 4250 
z
M 2034 4750 
Q 2819 4750 3233 4129 
Q 3647 3509 3647 2328 
Q 3647 1150 3233 529 
Q 2819 -91 2034 -91 
Q 1250 -91 836 529 
Q 422 1150 422 2328 
Q 422 3509 836 4129 
Q 1250 4750 2034 4750 
z
" transform="scale(0.015625)"/>
      </defs>
      <use xlink:href="#DejaVuSans-72"/>
      <use xlink:href="#DejaVuSans-20" x="41.113281"/>
      <use xlink:href="#DejaVuSans-3d" x="72.900391"/>
      <use xlink:href="#DejaVuSans-20" x="156.689453"/>
      <use xlink:href="#DejaVuSans-30" x="188.476562"/>
     </g>
    </g>
   </g>
   <g id="text_2">
    <g id="patch_3">
     <path d="M 104.356041 73.776224 
L 115.959838 94.120925 
Q 117.148892 96.205668 119.233634 95.016614 
L 125.959101 91.180679 
Q 128.043844 89.991626 126.854791 87.906883 
L 115.250993 67.562182 
Q 114.06194 65.47744 111.977197 66.666493 
L 105.25173 70.502428 
Q 103.166988 71.691482 104.356041 73.776224 
z
" clip-path="url(#pced635509f)" style="fill: #ffffff; stroke: #ffffff; stroke-linejoin: miter"/>
    </g>
    <g clip-path="url(#pced635509f)">
     <!-- w = 0 -->
     <g style="fill: #ff0000" transform="translate(107.885988 71.762885)rotate(-299.698693)scale(0.08 -0.08)">
      <defs>
       <path id="DejaVuSans-77" d="M 269 3500 
L 844 3500 
L 1563 769 
L 2278 3500 
L 2956 3500 
L 3675 769 
L 4391 3500 
L 4966 3500 
L 4050 0 
L 3372 0 
L 2619 2869 
L 1863 0 
L 1184 0 
L 269 3500 
z
" transform="scale(0.015625)"/>
      </defs>
      <use xlink:href="#DejaVuSans-77"/>
      <use xlink:href="#DejaVuSans-20" x="81.787109"/>
      <use xlink:href="#DejaVuSans-3d" x="113.574219"/>
      <use xlink:href="#DejaVuSans-20" x="197.363281"/>
      <use xlink:href="#DejaVuSans-30" x="229.150391"/>
     </g>
    </g>
   </g>
   <g id="text_3">
    <g id="patch_4">
     <path d="M 129.581227 116.256182 
L 143.856568 138.158472 
Q 145.167046 140.169105 147.177679 138.858627 
L 153.664066 134.630969 
Q 155.6747 133.320491 154.364221 131.309858 
L 140.088881 109.407567 
Q 138.778403 107.396934 136.767769 108.707412 
L 130.281382 112.93507 
Q 128.270749 114.245548 129.581227 116.256182 
z
" clip-path="url(#pced635509f)" style="fill: #ffffff; stroke: #ffffff; stroke-linejoin: miter"/>
    </g>
    <g clip-path="url(#pced635509f)">
     <!-- k = k0 -->
     <g style="fill: #ff0000" transform="translate(132.98569 114.037242)rotate(-303.095258)scale(0.08 -0.08)">
      <defs>
       <path id="DejaVuSans-6b" d="M 581 4863 
L 1159 4863 
L 1159 1991 
L 2875 3500 
L 3609 3500 
L 1753 1863 
L 3688 0 
L 2938 0 
L 1159 1709 
L 1159 0 
L 581 0 
L 581 4863 
z
" transform="scale(0.015625)"/>
      </defs>
      <use xlink:href="#DejaVuSans-6b"/>
      <use xlink:href="#DejaVuSans-20" x="57.910156"/>
      <use xlink:href="#DejaVuSans-3d" x="89.697266"/>
      <use xlink:href="#DejaVuSans-20" x="173.486328"/>
      <use xlink:href="#DejaVuSans-6b" x="205.273438"/>
      <use xlink:href="#DejaVuSans-30" x="263.183594"/>
     </g>
    </g>
   </g>
   <g id="text_4">
    <g id="patch_5">
     <path d="M 209.372197 216.089919 
L 233.577667 231.458963 
Q 235.603759 232.745412 236.890208 230.71932 
L 241.040345 224.183062 
Q 242.326794 222.15697 240.300702 220.870521 
L 216.095233 205.501477 
Q 214.06914 204.215028 212.782692 206.24112 
L 208.632554 212.777378 
Q 207.346105 214.80347 209.372197 216.089919 
z
" clip-path="url(#pced635509f)" style="fill: #ffffff; stroke: #ffffff; stroke-linejoin: miter"/>
    </g>
    <g clip-path="url(#pced635509f)">
     <!-- 1 &gt;= 0 -->
     <g style="fill: #ff0000" transform="translate(211.55045 212.659281)rotate(-327.586864)scale(0.08 -0.08)">
      <defs>
       <path id="DejaVuSans-31" d="M 794 531 
L 1825 531 
L 1825 4091 
L 703 3866 
L 703 4441 
L 1819 4666 
L 2450 4666 
L 2450 531 
L 3481 531 
L 3481 0 
L 794 0 
L 794 531 
z
" transform="scale(0.015625)"/>
       <path id="DejaVuSans-3e" d="M 678 3150 
L 678 3719 
L 4684 2266 
L 4684 1747 
L 678 294 
L 678 863 
L 3897 2003 
L 678 3150 
z
" transform="scale(0.015625)"/>
      </defs>
      <use xlink:href="#DejaVuSans-31"/>
      <use xlink:href="#DejaVuSans-20" x="63.623047"/>
      <use xlink:href="#DejaVuSans-3e" x="95.410156"/>
      <use xlink:href="#DejaVuSans-3d" x="179.199219"/>
      <use xlink:href="#DejaVuSans-20" x="262.988281"/>
      <use xlink:href="#DejaVuSans-30" x="294.775391"/>
     </g>
    </g>
   </g>
   <g id="text_5">
    <g id="patch_6">
     <path d="M 320.060112 281.796426 
L 324.982075 311.51662 
Q 325.374198 313.88437 327.741948 313.492247 
L 335.380408 312.227241 
Q 337.748157 311.835118 337.356034 309.467368 
L 332.434072 279.747174 
Q 332.041949 277.379425 329.674199 277.771548 
L 322.035739 279.036553 
Q 319.667989 279.428677 320.060112 281.796426 
z
" clip-path="url(#pced635509f)" style="fill: #ffffff; stroke: #ffffff; stroke-linejoin: miter"/>
    </g>
    <g clip-path="url(#pced635509f)">
     <!-- w == 0 -->
     <g style="fill: #ff0000" transform="translate(324.069255 281.132472)rotate(-279.403408)scale(0.08 -0.08)">
      <use xlink:href="#DejaVuSans-77"/>
      <use xlink:href="#DejaVuSans-20" x="81.787109"/>
      <use xlink:href="#DejaVuSans-3d" x="113.574219"/>
      <use xlink:href="#DejaVuSans-3d" x="197.363281"/>
      <use xlink:href="#DejaVuSans-20" x="281.152344"/>
      <use xlink:href="#DejaVuSans-30" x="312.939453"/>
     </g>
    </g>
   </g>
   <g id="text_6">
    <g id="patch_7">
     <path d="M 291.438778 319.232962 
L 329.722755 321.744179 
Q 332.117609 321.901268 332.274698 319.506414 
L 332.781474 311.780517 
Q 332.938563 309.385664 330.54371 309.228575 
L 292.259732 306.717359 
Q 289.864879 306.560269 289.707789 308.955123 
L 289.201014 316.68102 
Q 289.043925 319.075873 291.438778 319.232962 
z
" clip-path="url(#pced635509f)" style="fill: #ffffff; stroke: #ffffff; stroke-linejoin: miter"/>
    </g>
    <g clip-path="url(#pced635509f)">
     <!-- r = (r + 1 -->
     <g style="fill: #ff0000" transform="translate(291.704766 315.177927)rotate(-356.247092)scale(0.08 -0.08)">
      <defs>
       <path id="DejaVuSans-28" d="M 1984 4856 
Q 1566 4138 1362 3434 
Q 1159 2731 1159 2009 
Q 1159 1288 1364 580 
Q 1569 -128 1984 -844 
L 1484 -844 
Q 1016 -109 783 600 
Q 550 1309 550 2009 
Q 550 2706 781 3412 
Q 1013 4119 1484 4856 
L 1984 4856 
z
" transform="scale(0.015625)"/>
       <path id="DejaVuSans-2b" d="M 2944 4013 
L 2944 2272 
L 4684 2272 
L 4684 1741 
L 2944 1741 
L 2944 0 
L 2419 0 
L 2419 1741 
L 678 1741 
L 678 2272 
L 2419 2272 
L 2419 4013 
L 2944 4013 
z
" transform="scale(0.015625)"/>
      </defs>
      <use xlink:href="#DejaVuSans-72"/>
      <use xlink:href="#DejaVuSans-20" x="41.113281"/>
      <use xlink:href="#DejaVuSans-3d" x="72.900391"/>
      <use xlink:href="#DejaVuSans-20" x="156.689453"/>
      <use xlink:href="#DejaVuSans-28" x="188.476562"/>
      <use xlink:href="#DejaVuSans-72" x="227.490234"/>
      <use xlink:href="#DejaVuSans-20" x="268.603516"/>
      <use xlink:href="#DejaVuSans-2b" x="300.390625"/>
      <use xlink:href="#DejaVuSans-20" x="384.179688"/>
      <use xlink:href="#DejaVuSans-31" x="415.966797"/>
     </g>
    </g>
   </g>
   <g id="text_7">
    <g id="patch_8">
     <path d="M 274.183374 273.332421 
L 283.628275 313.779301 
Q 284.174026 316.116427 286.511151 315.570676 
L 294.267487 313.759465 
Q 296.604612 313.213714 296.058862 310.876589 
L 286.613961 270.429709 
Q 286.06821 268.092583 283.731084 268.638334 
L 275.974749 270.449545 
Q 273.637623 270.995296 274.183374 273.332421 
z
" clip-path="url(#pced635509f)" style="fill: #ffffff; stroke: #ffffff; stroke-linejoin: miter"/>
    </g>
    <g clip-path="url(#pced635509f)">
     <!-- k = (_a_0_ -->
     <g style="fill: #ff0000" transform="translate(278.357334 272.357744)rotate(-283.143823)scale(0.08 -0.08)">
      <defs>
       <path id="DejaVuSans-5f" d="M 3263 -1063 
L 3263 -1509 
L -63 -1509 
L -63 -1063 
L 3263 -1063 
z
" transform="scale(0.015625)"/>
       <path id="DejaVuSans-61" d="M 2194 1759 
Q 1497 1759 1228 1600 
Q 959 1441 959 1056 
Q 959 750 1161 570 
Q 1363 391 1709 391 
Q 2188 391 2477 730 
Q 2766 1069 2766 1631 
L 2766 1759 
L 2194 1759 
z
M 3341 1997 
L 3341 0 
L 2766 0 
L 2766 531 
Q 2569 213 2275 61 
Q 1981 -91 1556 -91 
Q 1019 -91 701 211 
Q 384 513 384 1019 
Q 384 1609 779 1909 
Q 1175 2209 1959 2209 
L 2766 2209 
L 2766 2266 
Q 2766 2663 2505 2880 
Q 2244 3097 1772 3097 
Q 1472 3097 1187 3025 
Q 903 2953 641 2809 
L 641 3341 
Q 956 3463 1253 3523 
Q 1550 3584 1831 3584 
Q 2591 3584 2966 3190 
Q 3341 2797 3341 1997 
z
" transform="scale(0.015625)"/>
      </defs>
      <use xlink:href="#DejaVuSans-6b"/>
      <use xlink:href="#DejaVuSans-20" x="57.910156"/>
      <use xlink:href="#DejaVuSans-3d" x="89.697266"/>
      <use xlink:href="#DejaVuSans-20" x="173.486328"/>
      <use xlink:href="#DejaVuSans-28" x="205.273438"/>
      <use xlink:href="#DejaVuSans-5f" x="244.287109"/>
      <use xlink:href="#DejaVuSans-61" x="294.287109"/>
      <use xlink:href="#DejaVuSans-5f" x="355.566406"/>
      <use xlink:href="#DejaVuSans-30" x="405.566406"/>
      <use xlink:href="#DejaVuSans-5f" x="469.189453"/>
     </g>
    </g>
   </g>
   <g id="text_8">
    <g id="patch_9">
     <path d="M 275.15127 291.918906 
L 301.518289 286.73775 
Q 303.873254 286.274996 303.4105 283.920031 
L 301.917637 276.322817 
Q 301.454883 273.967852 299.099918 274.430606 
L 272.732899 279.611762 
Q 270.377934 280.074516 270.840688 282.429481 
L 272.333552 290.026695 
Q 272.796305 292.38166 275.15127 291.918906 
z
" clip-path="url(#pced635509f)" style="fill: #ffffff; stroke: #ffffff; stroke-linejoin: miter"/>
    </g>
    <g clip-path="url(#pced635509f)">
     <!-- r == 0 -->
     <g style="fill: #ff0000" transform="translate(274.367722 287.931411)rotate(-11.117059)scale(0.08 -0.08)">
      <use xlink:href="#DejaVuSans-72"/>
      <use xlink:href="#DejaVuSans-20" x="41.113281"/>
      <use xlink:href="#DejaVuSans-3d" x="72.900391"/>
      <use xlink:href="#DejaVuSans-3d" x="156.689453"/>
      <use xlink:href="#DejaVuSans-20" x="240.478516"/>
      <use xlink:href="#DejaVuSans-30" x="272.265625"/>
     </g>
    </g>
   </g>
   <g id="text_9">
    <g id="patch_10">
     <path d="M 198.62361 280.879906 
L 241.277754 294.818249 
Q 243.559042 295.563719 244.304512 293.282431 
L 246.709428 285.922901 
Q 247.454898 283.641613 245.17361 282.896143 
L 202.519466 268.9578 
Q 200.238178 268.212331 199.492708 270.493619 
L 197.087792 277.853149 
Q 196.342322 280.134437 198.62361 280.879906 
z
" clip-path="url(#pced635509f)" style="fill: #ffffff; stroke: #ffffff; stroke-linejoin: miter"/>
    </g>
    <g clip-path="url(#pced635509f)">
     <!-- w = (w + 1 -->
     <g style="fill: #ff0000" transform="translate(199.885861 277.017163)rotate(-341.90386)scale(0.08 -0.08)">
      <use xlink:href="#DejaVuSans-77"/>
      <use xlink:href="#DejaVuSans-20" x="81.787109"/>
      <use xlink:href="#DejaVuSans-3d" x="113.574219"/>
      <use xlink:href="#DejaVuSans-20" x="197.363281"/>
      <use xlink:href="#DejaVuSans-28" x="229.150391"/>
      <use xlink:href="#DejaVuSans-77" x="268.164062"/>
      <use xlink:href="#DejaVuSans-20" x="349.951172"/>
      <use xlink:href="#DejaVuSans-2b" x="381.738281"/>
      <use xlink:href="#DejaVuSans-20" x="465.527344"/>
      <use xlink:href="#DejaVuSans-31" x="497.314453"/>
     </g>
    </g>
   </g>
   <g id="text_10">
    <g id="patch_11">
     <path d="M 200.881501 275.300901 
L 218.494068 243.280056 
Q 219.650729 241.177169 217.547841 240.020508 
L 210.763838 236.289073 
Q 208.660951 235.132412 207.50429 237.2353 
L 189.891723 269.256145 
Q 188.735062 271.359032 190.83795 272.515693 
L 197.621953 276.247128 
Q 199.724841 277.403789 200.881501 275.300901 
z
" clip-path="url(#pced635509f)" style="fill: #ffffff; stroke: #ffffff; stroke-linejoin: miter"/>
    </g>
    <g clip-path="url(#pced635509f)">
     <!-- k = (k - c -->
     <g style="fill: #ff0000" transform="translate(197.320831 273.34241)rotate(-61.187692)scale(0.08 -0.08)">
      <defs>
       <path id="DejaVuSans-2d" d="M 313 2009 
L 1997 2009 
L 1997 1497 
L 313 1497 
L 313 2009 
z
" transform="scale(0.015625)"/>
       <path id="DejaVuSans-63" d="M 3122 3366 
L 3122 2828 
Q 2878 2963 2633 3030 
Q 2388 3097 2138 3097 
Q 1578 3097 1268 2742 
Q 959 2388 959 1747 
Q 959 1106 1268 751 
Q 1578 397 2138 397 
Q 2388 397 2633 464 
Q 2878 531 3122 666 
L 3122 134 
Q 2881 22 2623 -34 
Q 2366 -91 2075 -91 
Q 1284 -91 818 406 
Q 353 903 353 1747 
Q 353 2603 823 3093 
Q 1294 3584 2113 3584 
Q 2378 3584 2631 3529 
Q 2884 3475 3122 3366 
z
" transform="scale(0.015625)"/>
      </defs>
      <use xlink:href="#DejaVuSans-6b"/>
      <use xlink:href="#DejaVuSans-20" x="57.910156"/>
      <use xlink:href="#DejaVuSans-3d" x="89.697266"/>
      <use xlink:href="#DejaVuSans-20" x="173.486328"/>
      <use xlink:href="#DejaVuSans-28" x="205.273438"/>
      <use xlink:href="#DejaVuSans-6b" x="244.287109"/>
      <use xlink:href="#DejaVuSans-20" x="302.197266"/>
      <use xlink:href="#DejaVuSans-2d" x="333.984375"/>
      <use xlink:href="#DejaVuSans-20" x="370.068359"/>
      <use xlink:href="#DejaVuSans-63" x="401.855469"/>
     </g>
    </g>
   </g>
   <g id="text_11">
    <g id="patch_12">
     <path d="M 345.347197 285.347522 
L 375.059721 290.315579 
Q 377.426859 290.711374 377.822655 288.344235 
L 379.099507 280.707747 
Q 379.495303 278.340608 377.128164 277.944813 
L 347.415641 272.976756 
Q 345.048502 272.58096 344.652707 274.948099 
L 343.375854 282.584588 
Q 342.980059 284.951726 345.347197 285.347522 
z
" clip-path="url(#pced635509f)" style="fill: #ffffff; stroke: #ffffff; stroke-linejoin: miter"/>
    </g>
    <g clip-path="url(#pced635509f)">
     <!-- w == 0 -->
     <g style="fill: #ff0000" transform="translate(346.01737 281.339413)rotate(-350.507718)scale(0.08 -0.08)">
      <use xlink:href="#DejaVuSans-77"/>
      <use xlink:href="#DejaVuSans-20" x="81.787109"/>
      <use xlink:href="#DejaVuSans-3d" x="113.574219"/>
      <use xlink:href="#DejaVuSans-3d" x="197.363281"/>
      <use xlink:href="#DejaVuSans-20" x="281.152344"/>
      <use xlink:href="#DejaVuSans-30" x="312.939453"/>
     </g>
    </g>
   </g>
   <g id="text_12">
    <g id="patch_13">
     <path d="M 401.402418 292.184813 
L 425.481139 267.409194 
Q 427.153817 265.688105 425.432728 264.015427 
L 419.880422 258.619298 
Q 418.159332 256.94662 416.486654 258.66771 
L 392.407933 283.443329 
Q 390.735255 285.164418 392.456344 286.837096 
L 398.00865 292.233224 
Q 399.72974 293.905902 401.402418 292.184813 
z
" clip-path="url(#pced635509f)" style="fill: #ffffff; stroke: #ffffff; stroke-linejoin: miter"/>
    </g>
    <g clip-path="url(#pced635509f)">
     <!-- r = (r - 1 -->
     <g style="fill: #ff0000" transform="translate(398.488219 289.352586)rotate(-45.817258)scale(0.08 -0.08)">
      <use xlink:href="#DejaVuSans-72"/>
      <use xlink:href="#DejaVuSans-20" x="41.113281"/>
      <use xlink:href="#DejaVuSans-3d" x="72.900391"/>
      <use xlink:href="#DejaVuSans-20" x="156.689453"/>
      <use xlink:href="#DejaVuSans-28" x="188.476562"/>
      <use xlink:href="#DejaVuSans-72" x="227.490234"/>
      <use xlink:href="#DejaVuSans-20" x="268.603516"/>
      <use xlink:href="#DejaVuSans-2d" x="300.390625"/>
      <use xlink:href="#DejaVuSans-20" x="336.474609"/>
      <use xlink:href="#DejaVuSans-31" x="368.261719"/>
     </g>
    </g>
   </g>
   <g id="text_13">
    <g id="patch_14">
     <path d="M 367.73416 248.831166 
L 406.291766 264.273551 
Q 408.519725 265.165852 409.412026 262.937893 
L 412.37335 255.543856 
Q 413.265651 253.315897 411.037692 252.423596 
L 372.480086 236.981212 
Q 370.252128 236.088911 369.359827 238.31687 
L 366.398503 245.710907 
Q 365.506202 247.938865 367.73416 248.831166 
z
" clip-path="url(#pced635509f)" style="fill: #ffffff; stroke: #ffffff; stroke-linejoin: miter"/>
    </g>
    <g clip-path="url(#pced635509f)">
     <!-- k = (_a_3_ -->
     <g style="fill: #ff0000" transform="translate(369.327754 244.852172)rotate(-338.173817)scale(0.08 -0.08)">
      <defs>
       <path id="DejaVuSans-33" d="M 2597 2516 
Q 3050 2419 3304 2112 
Q 3559 1806 3559 1356 
Q 3559 666 3084 287 
Q 2609 -91 1734 -91 
Q 1441 -91 1130 -33 
Q 819 25 488 141 
L 488 750 
Q 750 597 1062 519 
Q 1375 441 1716 441 
Q 2309 441 2620 675 
Q 2931 909 2931 1356 
Q 2931 1769 2642 2001 
Q 2353 2234 1838 2234 
L 1294 2234 
L 1294 2753 
L 1863 2753 
Q 2328 2753 2575 2939 
Q 2822 3125 2822 3475 
Q 2822 3834 2567 4026 
Q 2313 4219 1838 4219 
Q 1578 4219 1281 4162 
Q 984 4106 628 3988 
L 628 4550 
Q 988 4650 1302 4700 
Q 1616 4750 1894 4750 
Q 2613 4750 3031 4423 
Q 3450 4097 3450 3541 
Q 3450 3153 3228 2886 
Q 3006 2619 2597 2516 
z
" transform="scale(0.015625)"/>
      </defs>
      <use xlink:href="#DejaVuSans-6b"/>
      <use xlink:href="#DejaVuSans-20" x="57.910156"/>
      <use xlink:href="#DejaVuSans-3d" x="89.697266"/>
      <use xlink:href="#DejaVuSans-20" x="173.486328"/>
      <use xlink:href="#DejaVuSans-28" x="205.273438"/>
      <use xlink:href="#DejaVuSans-5f" x="244.287109"/>
      <use xlink:href="#DejaVuSans-61" x="294.287109"/>
      <use xlink:href="#DejaVuSans-5f" x="355.566406"/>
      <use xlink:href="#DejaVuSans-33" x="405.566406"/>
      <use xlink:href="#DejaVuSans-5f" x="469.189453"/>
     </g>
    </g>
   </g>
   <g id="text_14">
    <g id="patch_15">
     <path d="M 348.480429 272.341252 
L 373.072343 261.510654 
Q 375.268765 260.543322 374.301432 258.3469 
L 371.180777 251.261153 
Q 370.213445 249.064731 368.017023 250.032064 
L 343.425109 260.862661 
Q 341.228688 261.829994 342.19602 264.026415 
L 345.316675 271.112163 
Q 346.284008 273.308584 348.480429 272.341252 
z
" clip-path="url(#pced635509f)" style="fill: #ffffff; stroke: #ffffff; stroke-linejoin: miter"/>
    </g>
    <g clip-path="url(#pced635509f)">
     <!-- r == 0 -->
     <g style="fill: #ff0000" transform="translate(346.842514 268.622207)rotate(-23.769314)scale(0.08 -0.08)">
      <use xlink:href="#DejaVuSans-72"/>
      <use xlink:href="#DejaVuSans-20" x="41.113281"/>
      <use xlink:href="#DejaVuSans-3d" x="72.900391"/>
      <use xlink:href="#DejaVuSans-3d" x="156.689453"/>
      <use xlink:href="#DejaVuSans-20" x="240.478516"/>
      <use xlink:href="#DejaVuSans-30" x="272.265625"/>
     </g>
    </g>
   </g>
   <g id="text_15">
    <g id="patch_16">
     <path d="M 396.311695 250.337727 
L 414.271707 213.418171 
Q 415.321584 211.259987 413.1634 210.21011 
L 406.201009 206.823162 
Q 404.042825 205.773284 402.992948 207.931468 
L 385.032936 244.851024 
Q 383.983059 247.009208 386.141242 248.059086 
L 393.103633 251.446034 
Q 395.261817 252.495911 396.311695 250.337727 
z
" clip-path="url(#pced635509f)" style="fill: #ffffff; stroke: #ffffff; stroke-linejoin: miter"/>
    </g>
    <g clip-path="url(#pced635509f)">
     <!-- w = (w - 1 -->
     <g style="fill: #ff0000" transform="translate(392.657395 248.560044)rotate(-64.058775)scale(0.08 -0.08)">
      <use xlink:href="#DejaVuSans-77"/>
      <use xlink:href="#DejaVuSans-20" x="81.787109"/>
      <use xlink:href="#DejaVuSans-3d" x="113.574219"/>
      <use xlink:href="#DejaVuSans-20" x="197.363281"/>
      <use xlink:href="#DejaVuSans-28" x="229.150391"/>
      <use xlink:href="#DejaVuSans-77" x="268.164062"/>
      <use xlink:href="#DejaVuSans-20" x="349.951172"/>
      <use xlink:href="#DejaVuSans-2d" x="381.738281"/>
      <use xlink:href="#DejaVuSans-20" x="417.822266"/>
      <use xlink:href="#DejaVuSans-31" x="449.609375"/>
     </g>
    </g>
   </g>
   <g id="text_16">
    <g id="patch_17">
     <path d="M 356.66071 209.978538 
L 397.700621 216.372436 
Q 400.072014 216.741892 400.44147 214.3705 
L 401.667602 206.500441 
Q 402.037058 204.129048 399.665665 203.759592 
L 358.625754 197.365694 
Q 356.254362 196.996238 355.884906 199.367631 
L 354.658774 207.23769 
Q 354.289318 209.609082 356.66071 209.978538 
z
" clip-path="url(#pced635509f)" style="fill: #ffffff; stroke: #ffffff; stroke-linejoin: miter"/>
    </g>
    <g clip-path="url(#pced635509f)">
     <!-- k = (_a_6_ -->
     <g style="fill: #ff0000" transform="translate(357.320536 205.743379)rotate(-351.144675)scale(0.08 -0.08)">
      <defs>
       <path id="DejaVuSans-36" d="M 2113 2584 
Q 1688 2584 1439 2293 
Q 1191 2003 1191 1497 
Q 1191 994 1439 701 
Q 1688 409 2113 409 
Q 2538 409 2786 701 
Q 3034 994 3034 1497 
Q 3034 2003 2786 2293 
Q 2538 2584 2113 2584 
z
M 3366 4563 
L 3366 3988 
Q 3128 4100 2886 4159 
Q 2644 4219 2406 4219 
Q 1781 4219 1451 3797 
Q 1122 3375 1075 2522 
Q 1259 2794 1537 2939 
Q 1816 3084 2150 3084 
Q 2853 3084 3261 2657 
Q 3669 2231 3669 1497 
Q 3669 778 3244 343 
Q 2819 -91 2113 -91 
Q 1303 -91 875 529 
Q 447 1150 447 2328 
Q 447 3434 972 4092 
Q 1497 4750 2381 4750 
Q 2619 4750 2861 4703 
Q 3103 4656 3366 4563 
z
" transform="scale(0.015625)"/>
      </defs>
      <use xlink:href="#DejaVuSans-6b"/>
      <use xlink:href="#DejaVuSans-20" x="57.910156"/>
      <use xlink:href="#DejaVuSans-3d" x="89.697266"/>
      <use xlink:href="#DejaVuSans-20" x="173.486328"/>
      <use xlink:href="#DejaVuSans-28" x="205.273438"/>
      <use xlink:href="#DejaVuSans-5f" x="244.287109"/>
      <use xlink:href="#DejaVuSans-61" x="294.287109"/>
      <use xlink:href="#DejaVuSans-5f" x="355.566406"/>
      <use xlink:href="#DejaVuSans-36" x="405.566406"/>
      <use xlink:href="#DejaVuSans-5f" x="469.189453"/>
     </g>
    </g>
   </g>
   <g id="text_17">
    <g id="patch_18">
     <path d="M 127.782207 211.309197 
L 173.419259 207.332322 
Q 175.810199 207.123972 175.601849 204.733033 
L 174.929704 197.019763 
Q 174.721354 194.628824 172.330415 194.837173 
L 126.693363 198.814049 
Q 124.302423 199.022398 124.510773 201.413338 
L 125.182918 209.126607 
Q 125.391268 211.517546 127.782207 211.309197 
z
" clip-path="url(#pced635509f)" style="fill: #ffffff; stroke: #ffffff; stroke-linejoin: miter"/>
    </g>
    <g clip-path="url(#pced635509f)">
     <!-- Not(1 &gt;= 0 -->
     <g style="fill: #ff0000" transform="translate(127.429423 207.260789)rotate(-4.980252)scale(0.08 -0.08)">
      <defs>
       <path id="DejaVuSans-4e" d="M 628 4666 
L 1478 4666 
L 3547 763 
L 3547 4666 
L 4159 4666 
L 4159 0 
L 3309 0 
L 1241 3903 
L 1241 0 
L 628 0 
L 628 4666 
z
" transform="scale(0.015625)"/>
       <path id="DejaVuSans-6f" d="M 1959 3097 
Q 1497 3097 1228 2736 
Q 959 2375 959 1747 
Q 959 1119 1226 758 
Q 1494 397 1959 397 
Q 2419 397 2687 759 
Q 2956 1122 2956 1747 
Q 2956 2369 2687 2733 
Q 2419 3097 1959 3097 
z
M 1959 3584 
Q 2709 3584 3137 3096 
Q 3566 2609 3566 1747 
Q 3566 888 3137 398 
Q 2709 -91 1959 -91 
Q 1206 -91 779 398 
Q 353 888 353 1747 
Q 353 2609 779 3096 
Q 1206 3584 1959 3584 
z
" transform="scale(0.015625)"/>
       <path id="DejaVuSans-74" d="M 1172 4494 
L 1172 3500 
L 2356 3500 
L 2356 3053 
L 1172 3053 
L 1172 1153 
Q 1172 725 1289 603 
Q 1406 481 1766 481 
L 2356 481 
L 2356 0 
L 1766 0 
Q 1100 0 847 248 
Q 594 497 594 1153 
L 594 3053 
L 172 3053 
L 172 3500 
L 594 3500 
L 594 4494 
L 1172 4494 
z
" transform="scale(0.015625)"/>
      </defs>
      <use xlink:href="#DejaVuSans-4e"/>
      <use xlink:href="#DejaVuSans-6f" x="74.804688"/>
      <use xlink:href="#DejaVuSans-74" x="135.986328"/>
      <use xlink:href="#DejaVuSans-28" x="175.195312"/>
      <use xlink:href="#DejaVuSans-31" x="214.208984"/>
      <use xlink:href="#DejaVuSans-20" x="277.832031"/>
      <use xlink:href="#DejaVuSans-3e" x="309.619141"/>
      <use xlink:href="#DejaVuSans-3d" x="393.408203"/>
      <use xlink:href="#DejaVuSans-20" x="477.197266"/>
      <use xlink:href="#DejaVuSans-30" x="508.984375"/>
     </g>
    </g>
   </g>
   <g id="PathCollection_1">
    <defs>
     <path id="ma54839aa0a" d="M 0 11.18034 
C 2.965061 11.18034 5.80908 10.002309 7.905694 7.905694 
C 10.002309 5.80908 11.18034 2.965061 11.18034 0 
C 11.18034 -2.965061 10.002309 -5.80908 7.905694 -7.905694 
C 5.80908 -10.002309 2.965061 -11.18034 0 -11.18034 
C -2.965061 -11.18034 -5.80908 -10.002309 -7.905694 -7.905694 
C -10.002309 -5.80908 -11.18034 -2.965061 -11.18034 0 
C -11.18034 2.965061 -10.002309 5.80908 -7.905694 7.905694 
C -5.80908 10.002309 -2.965061 11.18034 0 11.18034 
z
" style="stroke: #ffc0cb; stroke-opacity: 0.9; stroke-width: 2"/>
    </defs>
    <g clip-path="url(#pced635509f)">
     <use xlink:href="#ma54839aa0a" x="87.400935" y="29.990083" style="fill: #ffc0cb; fill-opacity: 0.9; stroke: #ffc0cb; stroke-opacity: 0.9; stroke-width: 2"/>
     <use xlink:href="#ma54839aa0a" x="104.250527" y="60.933259" style="fill: #ffc0cb; fill-opacity: 0.9; stroke: #ffc0cb; stroke-opacity: 0.9; stroke-width: 2"/>
     <use xlink:href="#ma54839aa0a" x="126.960305" y="100.749849" style="fill: #ffc0cb; fill-opacity: 0.9; stroke: #ffc0cb; stroke-opacity: 0.9; stroke-width: 2"/>
     <use xlink:href="#ma54839aa0a" x="156.985143" y="146.816191" style="fill: #ffc0cb; fill-opacity: 0.9; stroke: #ffc0cb; stroke-opacity: 0.9; stroke-width: 2"/>
     <use xlink:href="#ma54839aa0a" x="194.474983" y="199.202481" style="fill: #ffc0cb; fill-opacity: 0.9; stroke: #ffc0cb; stroke-opacity: 0.9; stroke-width: 2"/>
     <use xlink:href="#ma54839aa0a" x="255.197917" y="237.757959" style="fill: #ffc0cb; fill-opacity: 0.9; stroke: #ffc0cb; stroke-opacity: 0.9; stroke-width: 2"/>
     <use xlink:href="#ma54839aa0a" x="325.399512" y="275.653877" style="fill: #ffc0cb; fill-opacity: 0.9; stroke: #ffc0cb; stroke-opacity: 0.9; stroke-width: 2"/>
     <use xlink:href="#ma54839aa0a" x="279.662884" y="224.804473" style="fill: #ffc0cb; fill-opacity: 0.9; stroke: #ffc0cb; stroke-opacity: 0.9; stroke-width: 2"/>
     <use xlink:href="#ma54839aa0a" x="332.016634" y="315.609917" style="fill: #ffc0cb; fill-opacity: 0.9; stroke: #ffc0cb; stroke-opacity: 0.9; stroke-width: 2"/>
     <use xlink:href="#ma54839aa0a" x="289.965853" y="312.85162" style="fill: #ffc0cb; fill-opacity: 0.9; stroke: #ffc0cb; stroke-opacity: 0.9; stroke-width: 2"/>
     <use xlink:href="#ma54839aa0a" x="280.276382" y="271.35739" style="fill: #ffc0cb; fill-opacity: 0.9; stroke: #ffc0cb; stroke-opacity: 0.9; stroke-width: 2"/>
     <use xlink:href="#ma54839aa0a" x="248.851676" y="290.695635" style="fill: #ffc0cb; fill-opacity: 0.9; stroke: #ffc0cb; stroke-opacity: 0.9; stroke-width: 2"/>
     <use xlink:href="#ma54839aa0a" x="194.945544" y="273.080415" style="fill: #ffc0cb; fill-opacity: 0.9; stroke: #ffc0cb; stroke-opacity: 0.9; stroke-width: 2"/>
     <use xlink:href="#ma54839aa0a" x="213.440247" y="239.455786" style="fill: #ffc0cb; fill-opacity: 0.9; stroke: #ffc0cb; stroke-opacity: 0.9; stroke-width: 2"/>
     <use xlink:href="#ma54839aa0a" x="397.075849" y="287.638457" style="fill: #ffc0cb; fill-opacity: 0.9; stroke: #ffc0cb; stroke-opacity: 0.9; stroke-width: 2"/>
     <use xlink:href="#ma54839aa0a" x="420.813223" y="263.214065" style="fill: #ffc0cb; fill-opacity: 0.9; stroke: #ffc0cb; stroke-opacity: 0.9; stroke-width: 2"/>
     <use xlink:href="#ma54839aa0a" x="357.95863" y="238.040697" style="fill: #ffc0cb; fill-opacity: 0.9; stroke: #ffc0cb; stroke-opacity: 0.9; stroke-width: 2"/>
     <use xlink:href="#ma54839aa0a" x="391.09794" y="246.719439" style="fill: #ffc0cb; fill-opacity: 0.9; stroke: #ffc0cb; stroke-opacity: 0.9; stroke-width: 2"/>
     <use xlink:href="#ma54839aa0a" x="408.206702" y="211.549757" style="fill: #ffc0cb; fill-opacity: 0.9; stroke: #ffc0cb; stroke-opacity: 0.9; stroke-width: 2"/>
     <use xlink:href="#ma54839aa0a" x="348.119673" y="202.188374" style="fill: #ffc0cb; fill-opacity: 0.9; stroke: #ffc0cb; stroke-opacity: 0.9; stroke-width: 2"/>
     <use xlink:href="#ma54839aa0a" x="105.637639" y="206.943889" style="fill: #ffc0cb; fill-opacity: 0.9; stroke: #ffc0cb; stroke-opacity: 0.9; stroke-width: 2"/>
     <use xlink:href="#ma54839aa0a" x="39.986777" y="219.218986" style="fill: #ffc0cb; fill-opacity: 0.9; stroke: #ffc0cb; stroke-opacity: 0.9; stroke-width: 2"/>
    </g>
   </g>
   <g id="text_18">
    <g clip-path="url(#pced635509f)">
     <!-- 0 -->
     <g style="opacity: 0.9" transform="translate(83.583435 33.301333)scale(0.12 -0.12)">
      <use xlink:href="#DejaVuSans-30"/>
     </g>
    </g>
   </g>
   <g id="text_19">
    <g clip-path="url(#pced635509f)">
     <!-- 1 -->
     <g style="opacity: 0.9" transform="translate(100.433027 64.244509)scale(0.12 -0.12)">
      <use xlink:href="#DejaVuSans-31"/>
     </g>
    </g>
   </g>
   <g id="text_20">
    <g clip-path="url(#pced635509f)">
     <!-- 2 -->
     <g style="opacity: 0.9" transform="translate(123.142805 104.061099)scale(0.12 -0.12)">
      <defs>
       <path id="DejaVuSans-32" d="M 1228 531 
L 3431 531 
L 3431 0 
L 469 0 
L 469 531 
Q 828 903 1448 1529 
Q 2069 2156 2228 2338 
Q 2531 2678 2651 2914 
Q 2772 3150 2772 3378 
Q 2772 3750 2511 3984 
Q 2250 4219 1831 4219 
Q 1534 4219 1204 4116 
Q 875 4013 500 3803 
L 500 4441 
Q 881 4594 1212 4672 
Q 1544 4750 1819 4750 
Q 2544 4750 2975 4387 
Q 3406 4025 3406 3419 
Q 3406 3131 3298 2873 
Q 3191 2616 2906 2266 
Q 2828 2175 2409 1742 
Q 1991 1309 1228 531 
z
" transform="scale(0.015625)"/>
      </defs>
      <use xlink:href="#DejaVuSans-32"/>
     </g>
    </g>
   </g>
   <g id="text_21">
    <g clip-path="url(#pced635509f)">
     <!-- 3 -->
     <g style="opacity: 0.9" transform="translate(153.167643 150.127441)scale(0.12 -0.12)">
      <use xlink:href="#DejaVuSans-33"/>
     </g>
    </g>
   </g>
   <g id="text_22">
    <g clip-path="url(#pced635509f)">
     <!-- 4 -->
     <g style="opacity: 0.9" transform="translate(190.657483 202.513731)scale(0.12 -0.12)">
      <defs>
       <path id="DejaVuSans-34" d="M 2419 4116 
L 825 1625 
L 2419 1625 
L 2419 4116 
z
M 2253 4666 
L 3047 4666 
L 3047 1625 
L 3713 1625 
L 3713 1100 
L 3047 1100 
L 3047 0 
L 2419 0 
L 2419 1100 
L 313 1100 
L 313 1709 
L 2253 4666 
z
" transform="scale(0.015625)"/>
      </defs>
      <use xlink:href="#DejaVuSans-34"/>
     </g>
    </g>
   </g>
   <g id="text_23">
    <g clip-path="url(#pced635509f)">
     <!-- 5 -->
     <g style="opacity: 0.9" transform="translate(251.380417 241.069209)scale(0.12 -0.12)">
      <defs>
       <path id="DejaVuSans-35" d="M 691 4666 
L 3169 4666 
L 3169 4134 
L 1269 4134 
L 1269 2991 
Q 1406 3038 1543 3061 
Q 1681 3084 1819 3084 
Q 2600 3084 3056 2656 
Q 3513 2228 3513 1497 
Q 3513 744 3044 326 
Q 2575 -91 1722 -91 
Q 1428 -91 1123 -41 
Q 819 9 494 109 
L 494 744 
Q 775 591 1075 516 
Q 1375 441 1709 441 
Q 2250 441 2565 725 
Q 2881 1009 2881 1497 
Q 2881 1984 2565 2268 
Q 2250 2553 1709 2553 
Q 1456 2553 1204 2497 
Q 953 2441 691 2322 
L 691 4666 
z
" transform="scale(0.015625)"/>
      </defs>
      <use xlink:href="#DejaVuSans-35"/>
     </g>
    </g>
   </g>
   <g id="text_24">
    <g clip-path="url(#pced635509f)">
     <!-- 6 -->
     <g style="opacity: 0.9" transform="translate(321.582012 278.965127)scale(0.12 -0.12)">
      <use xlink:href="#DejaVuSans-36"/>
     </g>
    </g>
   </g>
   <g id="text_25">
    <g clip-path="url(#pced635509f)">
     <!-- 7 -->
     <g style="opacity: 0.9" transform="translate(275.845384 228.115723)scale(0.12 -0.12)">
      <defs>
       <path id="DejaVuSans-37" d="M 525 4666 
L 3525 4666 
L 3525 4397 
L 1831 0 
L 1172 0 
L 2766 4134 
L 525 4134 
L 525 4666 
z
" transform="scale(0.015625)"/>
      </defs>
      <use xlink:href="#DejaVuSans-37"/>
     </g>
    </g>
   </g>
   <g id="text_26">
    <g clip-path="url(#pced635509f)">
     <!-- 8 -->
     <g style="opacity: 0.9" transform="translate(328.199134 318.921167)scale(0.12 -0.12)">
      <defs>
       <path id="DejaVuSans-38" d="M 2034 2216 
Q 1584 2216 1326 1975 
Q 1069 1734 1069 1313 
Q 1069 891 1326 650 
Q 1584 409 2034 409 
Q 2484 409 2743 651 
Q 3003 894 3003 1313 
Q 3003 1734 2745 1975 
Q 2488 2216 2034 2216 
z
M 1403 2484 
Q 997 2584 770 2862 
Q 544 3141 544 3541 
Q 544 4100 942 4425 
Q 1341 4750 2034 4750 
Q 2731 4750 3128 4425 
Q 3525 4100 3525 3541 
Q 3525 3141 3298 2862 
Q 3072 2584 2669 2484 
Q 3125 2378 3379 2068 
Q 3634 1759 3634 1313 
Q 3634 634 3220 271 
Q 2806 -91 2034 -91 
Q 1263 -91 848 271 
Q 434 634 434 1313 
Q 434 1759 690 2068 
Q 947 2378 1403 2484 
z
M 1172 3481 
Q 1172 3119 1398 2916 
Q 1625 2713 2034 2713 
Q 2441 2713 2670 2916 
Q 2900 3119 2900 3481 
Q 2900 3844 2670 4047 
Q 2441 4250 2034 4250 
Q 1625 4250 1398 4047 
Q 1172 3844 1172 3481 
z
" transform="scale(0.015625)"/>
      </defs>
      <use xlink:href="#DejaVuSans-38"/>
     </g>
    </g>
   </g>
   <g id="text_27">
    <g clip-path="url(#pced635509f)">
     <!-- 9 -->
     <g style="opacity: 0.9" transform="translate(286.148353 316.16287)scale(0.12 -0.12)">
      <defs>
       <path id="DejaVuSans-39" d="M 703 97 
L 703 672 
Q 941 559 1184 500 
Q 1428 441 1663 441 
Q 2288 441 2617 861 
Q 2947 1281 2994 2138 
Q 2813 1869 2534 1725 
Q 2256 1581 1919 1581 
Q 1219 1581 811 2004 
Q 403 2428 403 3163 
Q 403 3881 828 4315 
Q 1253 4750 1959 4750 
Q 2769 4750 3195 4129 
Q 3622 3509 3622 2328 
Q 3622 1225 3098 567 
Q 2575 -91 1691 -91 
Q 1453 -91 1209 -44 
Q 966 3 703 97 
z
M 1959 2075 
Q 2384 2075 2632 2365 
Q 2881 2656 2881 3163 
Q 2881 3666 2632 3958 
Q 2384 4250 1959 4250 
Q 1534 4250 1286 3958 
Q 1038 3666 1038 3163 
Q 1038 2656 1286 2365 
Q 1534 2075 1959 2075 
z
" transform="scale(0.015625)"/>
      </defs>
      <use xlink:href="#DejaVuSans-39"/>
     </g>
    </g>
   </g>
   <g id="text_28">
    <g clip-path="url(#pced635509f)">
     <!-- 10 -->
     <g style="opacity: 0.9" transform="translate(272.641382 274.66864)scale(0.12 -0.12)">
      <use xlink:href="#DejaVuSans-31"/>
      <use xlink:href="#DejaVuSans-30" x="63.623047"/>
     </g>
    </g>
   </g>
   <g id="text_29">
    <g clip-path="url(#pced635509f)">
     <!-- 11 -->
     <g style="opacity: 0.9" transform="translate(241.216676 294.006885)scale(0.12 -0.12)">
      <use xlink:href="#DejaVuSans-31"/>
      <use xlink:href="#DejaVuSans-31" x="63.623047"/>
     </g>
    </g>
   </g>
   <g id="text_30">
    <g clip-path="url(#pced635509f)">
     <!-- 12 -->
     <g style="opacity: 0.9" transform="translate(187.310544 276.391665)scale(0.12 -0.12)">
      <use xlink:href="#DejaVuSans-31"/>
      <use xlink:href="#DejaVuSans-32" x="63.623047"/>
     </g>
    </g>
   </g>
   <g id="text_31">
    <g clip-path="url(#pced635509f)">
     <!-- 13 -->
     <g style="opacity: 0.9" transform="translate(205.805247 242.767036)scale(0.12 -0.12)">
      <use xlink:href="#DejaVuSans-31"/>
      <use xlink:href="#DejaVuSans-33" x="63.623047"/>
     </g>
    </g>
   </g>
   <g id="text_32">
    <g clip-path="url(#pced635509f)">
     <!-- 14 -->
     <g style="opacity: 0.9" transform="translate(389.440849 290.949707)scale(0.12 -0.12)">
      <use xlink:href="#DejaVuSans-31"/>
      <use xlink:href="#DejaVuSans-34" x="63.623047"/>
     </g>
    </g>
   </g>
   <g id="text_33">
    <g clip-path="url(#pced635509f)">
     <!-- 15 -->
     <g style="opacity: 0.9" transform="translate(413.178223 266.525315)scale(0.12 -0.12)">
      <use xlink:href="#DejaVuSans-31"/>
      <use xlink:href="#DejaVuSans-35" x="63.623047"/>
     </g>
    </g>
   </g>
   <g id="text_34">
    <g clip-path="url(#pced635509f)">
     <!-- 16 -->
     <g style="opacity: 0.9" transform="translate(350.32363 241.351947)scale(0.12 -0.12)">
      <use xlink:href="#DejaVuSans-31"/>
      <use xlink:href="#DejaVuSans-36" x="63.623047"/>
     </g>
    </g>
   </g>
   <g id="text_35">
    <g clip-path="url(#pced635509f)">
     <!-- 17 -->
     <g style="opacity: 0.9" transform="translate(383.46294 250.030689)scale(0.12 -0.12)">
      <use xlink:href="#DejaVuSans-31"/>
      <use xlink:href="#DejaVuSans-37" x="63.623047"/>
     </g>
    </g>
   </g>
   <g id="text_36">
    <g clip-path="url(#pced635509f)">
     <!-- 18 -->
     <g style="opacity: 0.9" transform="translate(400.571702 214.861007)scale(0.12 -0.12)">
      <use xlink:href="#DejaVuSans-31"/>
      <use xlink:href="#DejaVuSans-38" x="63.623047"/>
     </g>
    </g>
   </g>
   <g id="text_37">
    <g clip-path="url(#pced635509f)">
     <!-- 19 -->
     <g style="opacity: 0.9" transform="translate(340.484673 205.499624)scale(0.12 -0.12)">
      <use xlink:href="#DejaVuSans-31"/>
      <use xlink:href="#DejaVuSans-39" x="63.623047"/>
     </g>
    </g>
   </g>
   <g id="text_38">
    <g clip-path="url(#pced635509f)">
     <!-- 20 -->
     <g style="opacity: 0.9" transform="translate(98.002639 210.255139)scale(0.12 -0.12)">
      <use xlink:href="#DejaVuSans-32"/>
      <use xlink:href="#DejaVuSans-30" x="63.623047"/>
     </g>
    </g>
   </g>
   <g id="text_39">
    <g clip-path="url(#pced635509f)">
     <!-- 21 -->
     <g style="opacity: 0.9" transform="translate(32.351777 222.530236)scale(0.12 -0.12)">
      <use xlink:href="#DejaVuSans-32"/>
      <use xlink:href="#DejaVuSans-31" x="63.623047"/>
     </g>
    </g>
   </g>
   <g id="text_40">
    <g clip-path="url(#pced635509f)">
     <!-- ((c1 &gt;= 0 and c2 &gt;= 0) and k0 &gt;= 0) -->
     <g transform="translate(604.004203 395.006427)scale(0.08 -0.08)">
      <defs>
       <path id="DejaVuSans-6e" d="M 3513 2113 
L 3513 0 
L 2938 0 
L 2938 2094 
Q 2938 2591 2744 2837 
Q 2550 3084 2163 3084 
Q 1697 3084 1428 2787 
Q 1159 2491 1159 1978 
L 1159 0 
L 581 0 
L 581 3500 
L 1159 3500 
L 1159 2956 
Q 1366 3272 1645 3428 
Q 1925 3584 2291 3584 
Q 2894 3584 3203 3211 
Q 3513 2838 3513 2113 
z
" transform="scale(0.015625)"/>
       <path id="DejaVuSans-64" d="M 2906 2969 
L 2906 4863 
L 3481 4863 
L 3481 0 
L 2906 0 
L 2906 525 
Q 2725 213 2448 61 
Q 2172 -91 1784 -91 
Q 1150 -91 751 415 
Q 353 922 353 1747 
Q 353 2572 751 3078 
Q 1150 3584 1784 3584 
Q 2172 3584 2448 3432 
Q 2725 3281 2906 2969 
z
M 947 1747 
Q 947 1113 1208 752 
Q 1469 391 1925 391 
Q 2381 391 2643 752 
Q 2906 1113 2906 1747 
Q 2906 2381 2643 2742 
Q 2381 3103 1925 3103 
Q 1469 3103 1208 2742 
Q 947 2381 947 1747 
z
" transform="scale(0.015625)"/>
       <path id="DejaVuSans-29" d="M 513 4856 
L 1013 4856 
Q 1481 4119 1714 3412 
Q 1947 2706 1947 2009 
Q 1947 1309 1714 600 
Q 1481 -109 1013 -844 
L 513 -844 
Q 928 -128 1133 580 
Q 1338 1288 1338 2009 
Q 1338 2731 1133 3434 
Q 928 4138 513 4856 
z
" transform="scale(0.015625)"/>
      </defs>
      <use xlink:href="#DejaVuSans-28"/>
      <use xlink:href="#DejaVuSans-28" x="39.013672"/>
      <use xlink:href="#DejaVuSans-63" x="78.027344"/>
      <use xlink:href="#DejaVuSans-31" x="133.007812"/>
      <use xlink:href="#DejaVuSans-20" x="196.630859"/>
      <use xlink:href="#DejaVuSans-3e" x="228.417969"/>
      <use xlink:href="#DejaVuSans-3d" x="312.207031"/>
      <use xlink:href="#DejaVuSans-20" x="395.996094"/>
      <use xlink:href="#DejaVuSans-30" x="427.783203"/>
      <use xlink:href="#DejaVuSans-20" x="491.40625"/>
      <use xlink:href="#DejaVuSans-61" x="523.193359"/>
      <use xlink:href="#DejaVuSans-6e" x="584.472656"/>
      <use xlink:href="#DejaVuSans-64" x="647.851562"/>
      <use xlink:href="#DejaVuSans-20" x="711.328125"/>
      <use xlink:href="#DejaVuSans-63" x="743.115234"/>
      <use xlink:href="#DejaVuSans-32" x="798.095703"/>
      <use xlink:href="#DejaVuSans-20" x="861.71875"/>
      <use xlink:href="#DejaVuSans-3e" x="893.505859"/>
      <use xlink:href="#DejaVuSans-3d" x="977.294922"/>
      <use xlink:href="#DejaVuSans-20" x="1061.083984"/>
      <use xlink:href="#DejaVuSans-30" x="1092.871094"/>
      <use xlink:href="#DejaVuSans-29" x="1156.494141"/>
      <use xlink:href="#DejaVuSans-20" x="1195.507812"/>
      <use xlink:href="#DejaVuSans-61" x="1227.294922"/>
      <use xlink:href="#DejaVuSans-6e" x="1288.574219"/>
      <use xlink:href="#DejaVuSans-64" x="1351.953125"/>
      <use xlink:href="#DejaVuSans-20" x="1415.429688"/>
      <use xlink:href="#DejaVuSans-6b" x="1447.216797"/>
      <use xlink:href="#DejaVuSans-30" x="1505.126953"/>
      <use xlink:href="#DejaVuSans-20" x="1568.75"/>
      <use xlink:href="#DejaVuSans-3e" x="1600.537109"/>
      <use xlink:href="#DejaVuSans-3d" x="1684.326172"/>
      <use xlink:href="#DejaVuSans-20" x="1768.115234"/>
      <use xlink:href="#DejaVuSans-30" x="1799.902344"/>
      <use xlink:href="#DejaVuSans-29" x="1863.525391"/>
     </g>
    </g>
   </g>
   <g id="text_41">
    <g clip-path="url(#pced635509f)">
     <!-- ((((r * c1) + (w * c2)) + k) == k0 and (r * w) == 0) -->
     <g transform="translate(227.561284 252.112217)scale(0.08 -0.08)">
      <defs>
       <path id="DejaVuSans-2a" d="M 3009 3897 
L 1888 3291 
L 3009 2681 
L 2828 2375 
L 1778 3009 
L 1778 1831 
L 1422 1831 
L 1422 3009 
L 372 2375 
L 191 2681 
L 1313 3291 
L 191 3897 
L 372 4206 
L 1422 3572 
L 1422 4750 
L 1778 4750 
L 1778 3572 
L 2828 4206 
L 3009 3897 
z
" transform="scale(0.015625)"/>
      </defs>
      <use xlink:href="#DejaVuSans-28"/>
      <use xlink:href="#DejaVuSans-28" x="39.013672"/>
      <use xlink:href="#DejaVuSans-28" x="78.027344"/>
      <use xlink:href="#DejaVuSans-28" x="117.041016"/>
      <use xlink:href="#DejaVuSans-72" x="156.054688"/>
      <use xlink:href="#DejaVuSans-20" x="197.167969"/>
      <use xlink:href="#DejaVuSans-2a" x="228.955078"/>
      <use xlink:href="#DejaVuSans-20" x="278.955078"/>
      <use xlink:href="#DejaVuSans-63" x="310.742188"/>
      <use xlink:href="#DejaVuSans-31" x="365.722656"/>
      <use xlink:href="#DejaVuSans-29" x="429.345703"/>
      <use xlink:href="#DejaVuSans-20" x="468.359375"/>
      <use xlink:href="#DejaVuSans-2b" x="500.146484"/>
      <use xlink:href="#DejaVuSans-20" x="583.935547"/>
      <use xlink:href="#DejaVuSans-28" x="615.722656"/>
      <use xlink:href="#DejaVuSans-77" x="654.736328"/>
      <use xlink:href="#DejaVuSans-20" x="736.523438"/>
      <use xlink:href="#DejaVuSans-2a" x="768.310547"/>
      <use xlink:href="#DejaVuSans-20" x="818.310547"/>
      <use xlink:href="#DejaVuSans-63" x="850.097656"/>
      <use xlink:href="#DejaVuSans-32" x="905.078125"/>
      <use xlink:href="#DejaVuSans-29" x="968.701172"/>
      <use xlink:href="#DejaVuSans-29" x="1007.714844"/>
      <use xlink:href="#DejaVuSans-20" x="1046.728516"/>
      <use xlink:href="#DejaVuSans-2b" x="1078.515625"/>
      <use xlink:href="#DejaVuSans-20" x="1162.304688"/>
      <use xlink:href="#DejaVuSans-6b" x="1194.091797"/>
      <use xlink:href="#DejaVuSans-29" x="1252.001953"/>
      <use xlink:href="#DejaVuSans-20" x="1291.015625"/>
      <use xlink:href="#DejaVuSans-3d" x="1322.802734"/>
      <use xlink:href="#DejaVuSans-3d" x="1406.591797"/>
      <use xlink:href="#DejaVuSans-20" x="1490.380859"/>
      <use xlink:href="#DejaVuSans-6b" x="1522.167969"/>
      <use xlink:href="#DejaVuSans-30" x="1580.078125"/>
      <use xlink:href="#DejaVuSans-20" x="1643.701172"/>
      <use xlink:href="#DejaVuSans-61" x="1675.488281"/>
      <use xlink:href="#DejaVuSans-6e" x="1736.767578"/>
      <use xlink:href="#DejaVuSans-64" x="1800.146484"/>
      <use xlink:href="#DejaVuSans-20" x="1863.623047"/>
      <use xlink:href="#DejaVuSans-28" x="1895.410156"/>
      <use xlink:href="#DejaVuSans-72" x="1934.423828"/>
      <use xlink:href="#DejaVuSans-20" x="1975.537109"/>
      <use xlink:href="#DejaVuSans-2a" x="2007.324219"/>
      <use xlink:href="#DejaVuSans-20" x="2057.324219"/>
      <use xlink:href="#DejaVuSans-77" x="2089.111328"/>
      <use xlink:href="#DejaVuSans-29" x="2170.898438"/>
      <use xlink:href="#DejaVuSans-20" x="2209.912109"/>
      <use xlink:href="#DejaVuSans-3d" x="2241.699219"/>
      <use xlink:href="#DejaVuSans-3d" x="2325.488281"/>
      <use xlink:href="#DejaVuSans-20" x="2409.277344"/>
      <use xlink:href="#DejaVuSans-30" x="2441.064453"/>
      <use xlink:href="#DejaVuSans-29" x="2504.6875"/>
     </g>
    </g>
   </g>
   <g id="text_42">
    <g clip-path="url(#pced635509f)">
     <!-- ndifblock -->
     <g transform="translate(301.298539 210.725065)scale(0.08 -0.08)">
      <defs>
       <path id="DejaVuSans-69" d="M 603 3500 
L 1178 3500 
L 1178 0 
L 603 0 
L 603 3500 
z
M 603 4863 
L 1178 4863 
L 1178 4134 
L 603 4134 
L 603 4863 
z
" transform="scale(0.015625)"/>
       <path id="DejaVuSans-66" d="M 2375 4863 
L 2375 4384 
L 1825 4384 
Q 1516 4384 1395 4259 
Q 1275 4134 1275 3809 
L 1275 3500 
L 2222 3500 
L 2222 3053 
L 1275 3053 
L 1275 0 
L 697 0 
L 697 3053 
L 147 3053 
L 147 3500 
L 697 3500 
L 697 3744 
Q 697 4328 969 4595 
Q 1241 4863 1831 4863 
L 2375 4863 
z
" transform="scale(0.015625)"/>
       <path id="DejaVuSans-62" d="M 3116 1747 
Q 3116 2381 2855 2742 
Q 2594 3103 2138 3103 
Q 1681 3103 1420 2742 
Q 1159 2381 1159 1747 
Q 1159 1113 1420 752 
Q 1681 391 2138 391 
Q 2594 391 2855 752 
Q 3116 1113 3116 1747 
z
M 1159 2969 
Q 1341 3281 1617 3432 
Q 1894 3584 2278 3584 
Q 2916 3584 3314 3078 
Q 3713 2572 3713 1747 
Q 3713 922 3314 415 
Q 2916 -91 2278 -91 
Q 1894 -91 1617 61 
Q 1341 213 1159 525 
L 1159 0 
L 581 0 
L 581 4863 
L 1159 4863 
L 1159 2969 
z
" transform="scale(0.015625)"/>
       <path id="DejaVuSans-6c" d="M 603 4863 
L 1178 4863 
L 1178 0 
L 603 0 
L 603 4863 
z
" transform="scale(0.015625)"/>
      </defs>
      <use xlink:href="#DejaVuSans-6e"/>
      <use xlink:href="#DejaVuSans-64" x="63.378906"/>
      <use xlink:href="#DejaVuSans-69" x="126.855469"/>
      <use xlink:href="#DejaVuSans-66" x="154.638672"/>
      <use xlink:href="#DejaVuSans-62" x="189.84375"/>
      <use xlink:href="#DejaVuSans-6c" x="253.320312"/>
      <use xlink:href="#DejaVuSans-6f" x="281.103516"/>
      <use xlink:href="#DejaVuSans-63" x="342.285156"/>
      <use xlink:href="#DejaVuSans-6b" x="397.265625"/>
     </g>
    </g>
   </g>
   <g id="text_43">
    <g clip-path="url(#pced635509f)">
     <!-- ndifblock -->
     <g transform="translate(316.474156 127.383117)scale(0.08 -0.08)">
      <use xlink:href="#DejaVuSans-6e"/>
      <use xlink:href="#DejaVuSans-64" x="63.378906"/>
      <use xlink:href="#DejaVuSans-69" x="126.855469"/>
      <use xlink:href="#DejaVuSans-66" x="154.638672"/>
      <use xlink:href="#DejaVuSans-62" x="189.84375"/>
      <use xlink:href="#DejaVuSans-6c" x="253.320312"/>
      <use xlink:href="#DejaVuSans-6f" x="281.103516"/>
      <use xlink:href="#DejaVuSans-63" x="342.285156"/>
      <use xlink:href="#DejaVuSans-6b" x="397.265625"/>
     </g>
    </g>
   </g>
   <g id="text_44">
    <g clip-path="url(#pced635509f)">
     <!-- ndifblock -->
     <g transform="translate(203.127707 108.666696)scale(0.08 -0.08)">
      <use xlink:href="#DejaVuSans-6e"/>
      <use xlink:href="#DejaVuSans-64" x="63.378906"/>
      <use xlink:href="#DejaVuSans-69" x="126.855469"/>
      <use xlink:href="#DejaVuSans-66" x="154.638672"/>
      <use xlink:href="#DejaVuSans-62" x="189.84375"/>
      <use xlink:href="#DejaVuSans-6c" x="253.320312"/>
      <use xlink:href="#DejaVuSans-6f" x="281.103516"/>
      <use xlink:href="#DejaVuSans-63" x="342.285156"/>
      <use xlink:href="#DejaVuSans-6b" x="397.265625"/>
     </g>
    </g>
   </g>
   <g id="text_45">
    <g clip-path="url(#pced635509f)">
     <!-- ndifblock -->
     <g transform="translate(126.585906 182.443543)scale(0.08 -0.08)">
      <use xlink:href="#DejaVuSans-6e"/>
      <use xlink:href="#DejaVuSans-64" x="63.378906"/>
      <use xlink:href="#DejaVuSans-69" x="126.855469"/>
      <use xlink:href="#DejaVuSans-66" x="154.638672"/>
      <use xlink:href="#DejaVuSans-62" x="189.84375"/>
      <use xlink:href="#DejaVuSans-6c" x="253.320312"/>
      <use xlink:href="#DejaVuSans-6f" x="281.103516"/>
      <use xlink:href="#DejaVuSans-63" x="342.285156"/>
      <use xlink:href="#DejaVuSans-6b" x="397.265625"/>
     </g>
    </g>
   </g>
   <g id="text_46">
    <g clip-path="url(#pced635509f)">
     <!-- 1 &gt;= 0 -->
     <g transform="translate(-3.996413 223.759382)scale(0.08 -0.08)">
      <use xlink:href="#DejaVuSans-31"/>
      <use xlink:href="#DejaVuSans-20" x="63.623047"/>
      <use xlink:href="#DejaVuSans-3e" x="95.410156"/>
      <use xlink:href="#DejaVuSans-3d" x="179.199219"/>
      <use xlink:href="#DejaVuSans-20" x="262.988281"/>
      <use xlink:href="#DejaVuSans-30" x="294.775391"/>
     </g>
    </g>
   </g>
  </g>
 </g>
 <defs>
  <clipPath id="pced635509f">
   <rect x="0" y="0" width="460.8" height="345.6"/>
  </clipPath>
 </defs>
</svg>
