<?xml version="1.0" encoding="utf-8" standalone="no"?>
<!DOCTYPE svg PUBLIC "-//W3C//DTD SVG 1.1//EN"
  "http://www.w3.org/Graphics/SVG/1.1/DTD/svg11.dtd">
<svg xmlns:xlink="http://www.w3.org/1999/xlink" width="460.8pt" height="345.6pt" viewBox="0 0 460.8 345.6" xmlns="http://www.w3.org/2000/svg" version="1.1">
 <metadata>
  <rdf:RDF xmlns:dc="http://purl.org/dc/elements/1.1/" xmlns:cc="http://creativecommons.org/ns#" xmlns:rdf="http://www.w3.org/1999/02/22-rdf-syntax-ns#">
   <cc:Work>
    <dc:type rdf:resource="http://purl.org/dc/dcmitype/StillImage"/>
    <dc:date>2022-12-30T18:48:26.154516</dc:date>
    <dc:format>image/svg+xml</dc:format>
    <dc:creator>
     <cc:Agent>
      <dc:title>Matplotlib v3.5.1, https://matplotlib.org/</dc:title>
     </cc:Agent>
    </dc:creator>
   </cc:Work>
  </rdf:RDF>
 </metadata>
 <defs>
  <style type="text/css">*{stroke-linejoin: round; stroke-linecap: butt}</style>
 </defs>
 <g id="figure_1">
  <g id="patch_1">
   <path d="M 0 345.6 
L 460.8 345.6 
L 460.8 0 
L 0 0 
z
" style="fill: #ffffff"/>
  </g>
  <g id="axes_1">
   <g id="LineCollection_1">
    <path d="M 39.986777 315.609917 
L 72.678335 281.933525 
" clip-path="url(#pd2bcad06fa)" style="fill: none; stroke: #000000; stroke-opacity: 0.9"/>
    <path d="M 72.678335 281.933525 
L 114.105833 239.92079 
" clip-path="url(#pd2bcad06fa)" style="fill: none; stroke: #000000; stroke-opacity: 0.9"/>
    <path d="M 114.105833 239.92079 
L 162.567017 191.863272 
" clip-path="url(#pd2bcad06fa)" style="fill: none; stroke: #000000; stroke-opacity: 0.9"/>
    <path d="M 162.567017 191.863272 
L 217.09921 137.502271 
" clip-path="url(#pd2bcad06fa)" style="fill: none; stroke: #000000; stroke-opacity: 0.9"/>
    <path d="M 217.09921 137.502271 
L 284.543854 146.200236 
" clip-path="url(#pd2bcad06fa)" style="fill: none; stroke: #000000; stroke-opacity: 0.9"/>
    <path d="M 217.09921 137.502271 
L 286.414632 96.679254 
" clip-path="url(#pd2bcad06fa)" style="fill: none; stroke: #000000; stroke-opacity: 0.9"/>
    <path d="M 217.09921 137.502271 
L 153.377882 109.53177 
" clip-path="url(#pd2bcad06fa)" style="fill: none; stroke: #000000; stroke-opacity: 0.9"/>
    <path d="M 284.543854 146.200236 
L 353.570431 131.826878 
" clip-path="url(#pd2bcad06fa)" style="fill: none; stroke: #000000; stroke-opacity: 0.9"/>
    <path d="M 353.570431 131.826878 
L 408.267389 152.27202 
" clip-path="url(#pd2bcad06fa)" style="fill: none; stroke: #000000; stroke-opacity: 0.9"/>
    <path d="M 353.570431 131.826878 
L 367.715444 73.185294 
" clip-path="url(#pd2bcad06fa)" style="fill: none; stroke: #000000; stroke-opacity: 0.9"/>
    <path d="M 408.267389 152.27202 
L 420.813223 121.735123 
" clip-path="url(#pd2bcad06fa)" style="fill: none; stroke: #000000; stroke-opacity: 0.9"/>
    <path d="M 420.813223 121.735123 
L 361.158214 105.239548 
" clip-path="url(#pd2bcad06fa)" style="fill: none; stroke: #000000; stroke-opacity: 0.9"/>
    <path d="M 361.158214 105.239548 
L 286.414632 96.679254 
" clip-path="url(#pd2bcad06fa)" style="fill: none; stroke: #000000; stroke-opacity: 0.9"/>
    <path d="M 367.715444 73.185294 
L 351.797387 29.990083 
" clip-path="url(#pd2bcad06fa)" style="fill: none; stroke: #000000; stroke-opacity: 0.9"/>
    <path d="M 351.797387 29.990083 
L 305.831757 45.818435 
" clip-path="url(#pd2bcad06fa)" style="fill: none; stroke: #000000; stroke-opacity: 0.9"/>
    <path d="M 305.831757 45.818435 
L 286.414632 96.679254 
" clip-path="url(#pd2bcad06fa)" style="fill: none; stroke: #000000; stroke-opacity: 0.9"/>
    <path d="M 153.377882 109.53177 
L 103.477227 87.078429 
" clip-path="url(#pd2bcad06fa)" style="fill: none; stroke: #000000; stroke-opacity: 0.9"/>
   </g>
   <g id="text_1">
    <g id="patch_2">
     <path d="M 47.850157 316.513118 
L 73.814457 289.766643 
Q 75.486146 288.044594 73.764097 286.372904 
L 68.208694 280.979964 
Q 66.486645 279.308274 64.814955 281.030324 
L 38.850655 307.776799 
Q 37.178966 309.498848 38.901015 311.170538 
L 44.456418 316.563478 
Q 46.178467 318.235168 47.850157 316.513118 
z
" clip-path="url(#pd2bcad06fa)" style="fill: #ffffff; stroke: #ffffff; stroke-linejoin: miter"/>
    </g>
    <g clip-path="url(#pd2bcad06fa)">
     <!-- u = ((2 *  -->
     <g style="fill: #ff0000" transform="translate(44.934333 313.682565)rotate(-45.85015)scale(0.08 -0.08)">
      <defs>
       <path id="DejaVuSans-75" d="M 544 1381 
L 544 3500 
L 1119 3500 
L 1119 1403 
Q 1119 906 1312 657 
Q 1506 409 1894 409 
Q 2359 409 2629 706 
Q 2900 1003 2900 1516 
L 2900 3500 
L 3475 3500 
L 3475 0 
L 2900 0 
L 2900 538 
Q 2691 219 2414 64 
Q 2138 -91 1772 -91 
Q 1169 -91 856 284 
Q 544 659 544 1381 
z
M 1991 3584 
L 1991 3584 
z
" transform="scale(0.015625)"/>
       <path id="DejaVuSans-20" transform="scale(0.015625)"/>
       <path id="DejaVuSans-3d" d="M 678 2906 
L 4684 2906 
L 4684 2381 
L 678 2381 
L 678 2906 
z
M 678 1631 
L 4684 1631 
L 4684 1100 
L 678 1100 
L 678 1631 
z
" transform="scale(0.015625)"/>
       <path id="DejaVuSans-28" d="M 1984 4856 
Q 1566 4138 1362 3434 
Q 1159 2731 1159 2009 
Q 1159 1288 1364 580 
Q 1569 -128 1984 -844 
L 1484 -844 
Q 1016 -109 783 600 
Q 550 1309 550 2009 
Q 550 2706 781 3412 
Q 1013 4119 1484 4856 
L 1984 4856 
z
" transform="scale(0.015625)"/>
       <path id="DejaVuSans-32" d="M 1228 531 
L 3431 531 
L 3431 0 
L 469 0 
L 469 531 
Q 828 903 1448 1529 
Q 2069 2156 2228 2338 
Q 2531 2678 2651 2914 
Q 2772 3150 2772 3378 
Q 2772 3750 2511 3984 
Q 2250 4219 1831 4219 
Q 1534 4219 1204 4116 
Q 875 4013 500 3803 
L 500 4441 
Q 881 4594 1212 4672 
Q 1544 4750 1819 4750 
Q 2544 4750 2975 4387 
Q 3406 4025 3406 3419 
Q 3406 3131 3298 2873 
Q 3191 2616 2906 2266 
Q 2828 2175 2409 1742 
Q 1991 1309 1228 531 
z
" transform="scale(0.015625)"/>
       <path id="DejaVuSans-2a" d="M 3009 3897 
L 1888 3291 
L 3009 2681 
L 2828 2375 
L 1778 3009 
L 1778 1831 
L 1422 1831 
L 1422 3009 
L 372 2375 
L 191 2681 
L 1313 3291 
L 191 3897 
L 372 4206 
L 1422 3572 
L 1422 4750 
L 1778 4750 
L 1778 3572 
L 2828 4206 
L 3009 3897 
z
" transform="scale(0.015625)"/>
      </defs>
      <use xlink:href="#DejaVuSans-75"/>
      <use xlink:href="#DejaVuSans-20" x="63.378906"/>
      <use xlink:href="#DejaVuSans-3d" x="95.166016"/>
      <use xlink:href="#DejaVuSans-20" x="178.955078"/>
      <use xlink:href="#DejaVuSans-28" x="210.742188"/>
      <use xlink:href="#DejaVuSans-28" x="249.755859"/>
      <use xlink:href="#DejaVuSans-32" x="288.769531"/>
      <use xlink:href="#DejaVuSans-20" x="352.392578"/>
      <use xlink:href="#DejaVuSans-2a" x="384.179688"/>
      <use xlink:href="#DejaVuSans-20" x="434.179688"/>
     </g>
    </g>
   </g>
   <g id="text_2">
    <g id="patch_3">
     <path d="M 90.269689 273.025412 
L 105.445351 257.635368 
Q 107.130463 255.92645 105.421546 254.241339 
L 99.908508 248.805097 
Q 98.199591 247.119985 96.514479 248.828902 
L 81.338817 264.218947 
Q 79.653705 265.927864 81.362622 267.612976 
L 86.87566 273.049218 
Q 88.584577 274.734329 90.269689 273.025412 
z
" clip-path="url(#pd2bcad06fa)" style="fill: #ffffff; stroke: #ffffff; stroke-linejoin: miter"/>
    </g>
    <g clip-path="url(#pd2bcad06fa)">
     <!-- v = 1 -->
     <g style="fill: #ff0000" transform="translate(87.376101 270.172132)rotate(-45.401857)scale(0.08 -0.08)">
      <defs>
       <path id="DejaVuSans-76" d="M 191 3500 
L 800 3500 
L 1894 563 
L 2988 3500 
L 3597 3500 
L 2284 0 
L 1503 0 
L 191 3500 
z
" transform="scale(0.015625)"/>
       <path id="DejaVuSans-31" d="M 794 531 
L 1825 531 
L 1825 4091 
L 703 3866 
L 703 4441 
L 1819 4666 
L 2450 4666 
L 2450 531 
L 3481 531 
L 3481 0 
L 794 0 
L 794 531 
z
" transform="scale(0.015625)"/>
      </defs>
      <use xlink:href="#DejaVuSans-76"/>
      <use xlink:href="#DejaVuSans-20" x="59.179688"/>
      <use xlink:href="#DejaVuSans-3d" x="90.966797"/>
      <use xlink:href="#DejaVuSans-20" x="174.755859"/>
      <use xlink:href="#DejaVuSans-31" x="206.542969"/>
     </g>
    </g>
   </g>
   <g id="text_3">
    <g id="patch_4">
     <path d="M 129.984112 233.006799 
L 155.520456 207.683164 
Q 157.224595 205.99322 155.534651 204.289081 
L 150.082821 198.791458 
Q 148.392877 197.087319 146.688738 198.777263 
L 121.152394 224.100898 
Q 119.448255 225.790842 121.138199 227.494981 
L 126.590029 232.992604 
Q 128.279973 234.696743 129.984112 233.006799 
z
" clip-path="url(#pd2bcad06fa)" style="fill: #ffffff; stroke: #ffffff; stroke-linejoin: miter"/>
    </g>
    <g clip-path="url(#pd2bcad06fa)">
     <!-- r = ((R *  -->
     <g style="fill: #ff0000" transform="translate(127.12265 230.121301)rotate(-44.760376)scale(0.08 -0.08)">
      <defs>
       <path id="DejaVuSans-72" d="M 2631 2963 
Q 2534 3019 2420 3045 
Q 2306 3072 2169 3072 
Q 1681 3072 1420 2755 
Q 1159 2438 1159 1844 
L 1159 0 
L 581 0 
L 581 3500 
L 1159 3500 
L 1159 2956 
Q 1341 3275 1631 3429 
Q 1922 3584 2338 3584 
Q 2397 3584 2469 3576 
Q 2541 3569 2628 3553 
L 2631 2963 
z
" transform="scale(0.015625)"/>
       <path id="DejaVuSans-52" d="M 2841 2188 
Q 3044 2119 3236 1894 
Q 3428 1669 3622 1275 
L 4263 0 
L 3584 0 
L 2988 1197 
Q 2756 1666 2539 1819 
Q 2322 1972 1947 1972 
L 1259 1972 
L 1259 0 
L 628 0 
L 628 4666 
L 2053 4666 
Q 2853 4666 3247 4331 
Q 3641 3997 3641 3322 
Q 3641 2881 3436 2590 
Q 3231 2300 2841 2188 
z
M 1259 4147 
L 1259 2491 
L 2053 2491 
Q 2509 2491 2742 2702 
Q 2975 2913 2975 3322 
Q 2975 3731 2742 3939 
Q 2509 4147 2053 4147 
L 1259 4147 
z
" transform="scale(0.015625)"/>
      </defs>
      <use xlink:href="#DejaVuSans-72"/>
      <use xlink:href="#DejaVuSans-20" x="41.113281"/>
      <use xlink:href="#DejaVuSans-3d" x="72.900391"/>
      <use xlink:href="#DejaVuSans-20" x="156.689453"/>
      <use xlink:href="#DejaVuSans-28" x="188.476562"/>
      <use xlink:href="#DejaVuSans-28" x="227.490234"/>
      <use xlink:href="#DejaVuSans-52" x="266.503906"/>
      <use xlink:href="#DejaVuSans-20" x="335.986328"/>
      <use xlink:href="#DejaVuSans-2a" x="367.773438"/>
      <use xlink:href="#DejaVuSans-20" x="417.773438"/>
     </g>
    </g>
   </g>
   <g id="text_4">
    <g id="patch_5">
     <path d="M 236.694136 146.352507 
L 263.344676 149.789481 
Q 265.724963 150.096454 266.031936 147.716166 
L 267.022242 140.03726 
Q 267.329215 137.656973 264.948928 137.35 
L 238.298387 133.913026 
Q 235.9181 133.606054 235.611128 135.986341 
L 234.620821 143.665247 
Q 234.313849 146.045534 236.694136 146.352507 
z
" clip-path="url(#pd2bcad06fa)" style="fill: #ffffff; stroke: #ffffff; stroke-linejoin: miter"/>
    </g>
    <g clip-path="url(#pd2bcad06fa)">
     <!-- r &gt;= 1 -->
     <g style="fill: #ff0000" transform="translate(237.213911 142.322135)rotate(-352.651439)scale(0.08 -0.08)">
      <defs>
       <path id="DejaVuSans-3e" d="M 678 3150 
L 678 3719 
L 4684 2266 
L 4684 1747 
L 678 294 
L 678 863 
L 3897 2003 
L 678 3150 
z
" transform="scale(0.015625)"/>
      </defs>
      <use xlink:href="#DejaVuSans-72"/>
      <use xlink:href="#DejaVuSans-20" x="41.113281"/>
      <use xlink:href="#DejaVuSans-3e" x="72.900391"/>
      <use xlink:href="#DejaVuSans-3d" x="156.689453"/>
      <use xlink:href="#DejaVuSans-20" x="240.478516"/>
      <use xlink:href="#DejaVuSans-31" x="272.265625"/>
     </g>
    </g>
   </g>
   <g id="text_5">
    <g id="patch_6">
     <path d="M 366.137994 143.219535 
L 391.308333 152.627941 
Q 393.556416 153.468251 394.396726 151.220167 
L 397.1076 143.967756 
Q 397.94791 141.719672 395.699827 140.879363 
L 370.529487 131.470957 
Q 368.281404 130.630647 367.441094 132.878731 
L 364.73022 140.131142 
Q 363.88991 142.379225 366.137994 143.219535 
z
" clip-path="url(#pd2bcad06fa)" style="fill: #ffffff; stroke: #ffffff; stroke-linejoin: miter"/>
    </g>
    <g clip-path="url(#pd2bcad06fa)">
     <!-- r &gt;= 0 -->
     <g style="fill: #ff0000" transform="translate(367.560831 139.413015)rotate(-339.50479)scale(0.08 -0.08)">
      <defs>
       <path id="DejaVuSans-30" d="M 2034 4250 
Q 1547 4250 1301 3770 
Q 1056 3291 1056 2328 
Q 1056 1369 1301 889 
Q 1547 409 2034 409 
Q 2525 409 2770 889 
Q 3016 1369 3016 2328 
Q 3016 3291 2770 3770 
Q 2525 4250 2034 4250 
z
M 2034 4750 
Q 2819 4750 3233 4129 
Q 3647 3509 3647 2328 
Q 3647 1150 3233 529 
Q 2819 -91 2034 -91 
Q 1250 -91 836 529 
Q 422 1150 422 2328 
Q 422 3509 836 4129 
Q 1250 4750 2034 4750 
z
" transform="scale(0.015625)"/>
      </defs>
      <use xlink:href="#DejaVuSans-72"/>
      <use xlink:href="#DejaVuSans-20" x="41.113281"/>
      <use xlink:href="#DejaVuSans-3e" x="72.900391"/>
      <use xlink:href="#DejaVuSans-3d" x="156.689453"/>
      <use xlink:href="#DejaVuSans-20" x="240.478516"/>
      <use xlink:href="#DejaVuSans-30" x="272.265625"/>
     </g>
    </g>
   </g>
   <g id="text_6">
    <g id="patch_7">
     <path d="M 413.843926 155.20101 
L 426.838227 123.572531 
Q 427.750275 121.352583 425.530327 120.440536 
L 418.368682 117.498233 
Q 416.148734 116.586185 415.236686 118.806133 
L 402.242385 150.434612 
Q 401.330337 152.65456 403.550286 153.566607 
L 410.711931 156.508911 
Q 412.931879 157.420958 413.843926 155.20101 
z
" clip-path="url(#pd2bcad06fa)" style="fill: #ffffff; stroke: #ffffff; stroke-linejoin: miter"/>
    </g>
    <g clip-path="url(#pd2bcad06fa)">
     <!-- r = (r - v -->
     <g style="fill: #ff0000" transform="translate(410.085045 153.656705)rotate(-67.665092)scale(0.08 -0.08)">
      <defs>
       <path id="DejaVuSans-2d" d="M 313 2009 
L 1997 2009 
L 1997 1497 
L 313 1497 
L 313 2009 
z
" transform="scale(0.015625)"/>
      </defs>
      <use xlink:href="#DejaVuSans-72"/>
      <use xlink:href="#DejaVuSans-20" x="41.113281"/>
      <use xlink:href="#DejaVuSans-3d" x="72.900391"/>
      <use xlink:href="#DejaVuSans-20" x="156.689453"/>
      <use xlink:href="#DejaVuSans-28" x="188.476562"/>
      <use xlink:href="#DejaVuSans-72" x="227.490234"/>
      <use xlink:href="#DejaVuSans-20" x="268.603516"/>
      <use xlink:href="#DejaVuSans-2d" x="300.390625"/>
      <use xlink:href="#DejaVuSans-20" x="336.474609"/>
      <use xlink:href="#DejaVuSans-76" x="368.261719"/>
     </g>
    </g>
   </g>
   <g id="text_7">
    <g id="patch_8">
     <path d="M 369.220101 114.086264 
L 409.351607 125.183274 
Q 411.664801 125.82291 412.304436 123.509716 
L 414.424895 115.841237 
Q 415.06453 113.528043 412.751336 112.888407 
L 372.619831 101.791397 
Q 370.306637 101.151761 369.667001 103.464955 
L 367.546543 111.133434 
Q 366.906907 113.446628 369.220101 114.086264 
z
" clip-path="url(#pd2bcad06fa)" style="fill: #ffffff; stroke: #ffffff; stroke-linejoin: miter"/>
    </g>
    <g clip-path="url(#pd2bcad06fa)">
     <!-- v = (_a_0_ -->
     <g style="fill: #ff0000" transform="translate(370.36245 109.955044)rotate(-344.543017)scale(0.08 -0.08)">
      <defs>
       <path id="DejaVuSans-5f" d="M 3263 -1063 
L 3263 -1509 
L -63 -1509 
L -63 -1063 
L 3263 -1063 
z
" transform="scale(0.015625)"/>
       <path id="DejaVuSans-61" d="M 2194 1759 
Q 1497 1759 1228 1600 
Q 959 1441 959 1056 
Q 959 750 1161 570 
Q 1363 391 1709 391 
Q 2188 391 2477 730 
Q 2766 1069 2766 1631 
L 2766 1759 
L 2194 1759 
z
M 3341 1997 
L 3341 0 
L 2766 0 
L 2766 531 
Q 2569 213 2275 61 
Q 1981 -91 1556 -91 
Q 1019 -91 701 211 
Q 384 513 384 1019 
Q 384 1609 779 1909 
Q 1175 2209 1959 2209 
L 2766 2209 
L 2766 2266 
Q 2766 2663 2505 2880 
Q 2244 3097 1772 3097 
Q 1472 3097 1187 3025 
Q 903 2953 641 2809 
L 641 3341 
Q 956 3463 1253 3523 
Q 1550 3584 1831 3584 
Q 2591 3584 2966 3190 
Q 3341 2797 3341 1997 
z
" transform="scale(0.015625)"/>
      </defs>
      <use xlink:href="#DejaVuSans-76"/>
      <use xlink:href="#DejaVuSans-20" x="59.179688"/>
      <use xlink:href="#DejaVuSans-3d" x="90.966797"/>
      <use xlink:href="#DejaVuSans-20" x="174.755859"/>
      <use xlink:href="#DejaVuSans-28" x="206.542969"/>
      <use xlink:href="#DejaVuSans-5f" x="245.556641"/>
      <use xlink:href="#DejaVuSans-61" x="295.556641"/>
      <use xlink:href="#DejaVuSans-5f" x="356.835938"/>
      <use xlink:href="#DejaVuSans-30" x="406.835938"/>
      <use xlink:href="#DejaVuSans-5f" x="470.458984"/>
     </g>
    </g>
   </g>
   <g id="text_8">
    <g id="patch_9">
     <path d="M 361.878296 124.129251 
L 371.600387 83.823964 
Q 372.163154 81.490877 369.830067 80.92811 
L 362.303432 79.112601 
Q 359.970346 78.549834 359.407579 80.88292 
L 349.685488 121.188208 
Q 349.122721 123.521295 351.455808 124.084061 
L 358.982442 125.899571 
Q 361.315529 126.462338 361.878296 124.129251 
z
" clip-path="url(#pd2bcad06fa)" style="fill: #ffffff; stroke: #ffffff; stroke-linejoin: miter"/>
    </g>
    <g clip-path="url(#pd2bcad06fa)">
     <!-- Not (r &gt;=  -->
     <g style="fill: #ff0000" transform="translate(357.927846 123.176358)rotate(-76.438662)scale(0.08 -0.08)">
      <defs>
       <path id="DejaVuSans-4e" d="M 628 4666 
L 1478 4666 
L 3547 763 
L 3547 4666 
L 4159 4666 
L 4159 0 
L 3309 0 
L 1241 3903 
L 1241 0 
L 628 0 
L 628 4666 
z
" transform="scale(0.015625)"/>
       <path id="DejaVuSans-6f" d="M 1959 3097 
Q 1497 3097 1228 2736 
Q 959 2375 959 1747 
Q 959 1119 1226 758 
Q 1494 397 1959 397 
Q 2419 397 2687 759 
Q 2956 1122 2956 1747 
Q 2956 2369 2687 2733 
Q 2419 3097 1959 3097 
z
M 1959 3584 
Q 2709 3584 3137 3096 
Q 3566 2609 3566 1747 
Q 3566 888 3137 398 
Q 2709 -91 1959 -91 
Q 1206 -91 779 398 
Q 353 888 353 1747 
Q 353 2609 779 3096 
Q 1206 3584 1959 3584 
z
" transform="scale(0.015625)"/>
       <path id="DejaVuSans-74" d="M 1172 4494 
L 1172 3500 
L 2356 3500 
L 2356 3053 
L 1172 3053 
L 1172 1153 
Q 1172 725 1289 603 
Q 1406 481 1766 481 
L 2356 481 
L 2356 0 
L 1766 0 
Q 1100 0 847 248 
Q 594 497 594 1153 
L 594 3053 
L 172 3053 
L 172 3500 
L 594 3500 
L 594 4494 
L 1172 4494 
z
" transform="scale(0.015625)"/>
      </defs>
      <use xlink:href="#DejaVuSans-4e"/>
      <use xlink:href="#DejaVuSans-6f" x="74.804688"/>
      <use xlink:href="#DejaVuSans-74" x="135.986328"/>
      <use xlink:href="#DejaVuSans-20" x="175.195312"/>
      <use xlink:href="#DejaVuSans-28" x="206.982422"/>
      <use xlink:href="#DejaVuSans-72" x="245.996094"/>
      <use xlink:href="#DejaVuSans-20" x="287.109375"/>
      <use xlink:href="#DejaVuSans-3e" x="318.896484"/>
      <use xlink:href="#DejaVuSans-3d" x="402.685547"/>
      <use xlink:href="#DejaVuSans-20" x="486.474609"/>
     </g>
    </g>
   </g>
   <g id="text_9">
    <g id="patch_10">
     <path d="M 346.823012 34.937112 
L 360.720442 72.649152 
Q 361.55032 74.901108 363.802275 74.07123 
L 371.267741 71.320098 
Q 373.519697 70.49022 372.689819 68.238265 
L 358.792389 30.526224 
Q 357.962511 28.274269 355.710556 29.104147 
L 348.245089 31.855278 
Q 345.993134 32.685156 346.823012 34.937112 
z
" clip-path="url(#pd2bcad06fa)" style="fill: #ffffff; stroke: #ffffff; stroke-linejoin: miter"/>
    </g>
    <g clip-path="url(#pd2bcad06fa)">
     <!-- r = (_a_2_ -->
     <g style="fill: #ff0000" transform="translate(350.844863 33.455001)rotate(-290.229568)scale(0.08 -0.08)">
      <use xlink:href="#DejaVuSans-72"/>
      <use xlink:href="#DejaVuSans-20" x="41.113281"/>
      <use xlink:href="#DejaVuSans-3d" x="72.900391"/>
      <use xlink:href="#DejaVuSans-20" x="156.689453"/>
      <use xlink:href="#DejaVuSans-28" x="188.476562"/>
      <use xlink:href="#DejaVuSans-5f" x="227.490234"/>
      <use xlink:href="#DejaVuSans-61" x="277.490234"/>
      <use xlink:href="#DejaVuSans-5f" x="338.769531"/>
      <use xlink:href="#DejaVuSans-32" x="388.769531"/>
      <use xlink:href="#DejaVuSans-5f" x="452.392578"/>
     </g>
    </g>
   </g>
   <g id="text_10">
    <g id="patch_11">
     <path d="M 311.034362 50.659561 
L 350.678478 37.008034 
Q 352.947705 36.226622 352.166292 33.957394 
L 349.645422 26.636771 
Q 348.864009 24.367544 346.594782 25.148956 
L 306.950666 38.800483 
Q 304.681438 39.581896 305.462851 41.851123 
L 307.983721 49.171746 
Q 308.765134 51.440974 311.034362 50.659561 
z
" clip-path="url(#pd2bcad06fa)" style="fill: #ffffff; stroke: #ffffff; stroke-linejoin: miter"/>
    </g>
    <g clip-path="url(#pd2bcad06fa)">
     <!-- u = (u + 2 -->
     <g style="fill: #ff0000" transform="translate(309.711251 46.817238)rotate(-19.001244)scale(0.08 -0.08)">
      <defs>
       <path id="DejaVuSans-2b" d="M 2944 4013 
L 2944 2272 
L 4684 2272 
L 4684 1741 
L 2944 1741 
L 2944 0 
L 2419 0 
L 2419 1741 
L 678 1741 
L 678 2272 
L 2419 2272 
L 2419 4013 
L 2944 4013 
z
" transform="scale(0.015625)"/>
      </defs>
      <use xlink:href="#DejaVuSans-75"/>
      <use xlink:href="#DejaVuSans-20" x="63.378906"/>
      <use xlink:href="#DejaVuSans-3d" x="95.166016"/>
      <use xlink:href="#DejaVuSans-20" x="178.955078"/>
      <use xlink:href="#DejaVuSans-28" x="210.742188"/>
      <use xlink:href="#DejaVuSans-75" x="249.755859"/>
      <use xlink:href="#DejaVuSans-20" x="313.134766"/>
      <use xlink:href="#DejaVuSans-2b" x="344.921875"/>
      <use xlink:href="#DejaVuSans-20" x="428.710938"/>
      <use xlink:href="#DejaVuSans-32" x="460.498047"/>
     </g>
    </g>
   </g>
   <g id="text_11">
    <g id="patch_12">
     <path d="M 162.569198 120.41512 
L 202.866645 138.103699 
Q 205.064251 139.068339 206.028891 136.870733 
L 209.140859 129.781166 
Q 210.105499 127.583561 207.907893 126.618921 
L 167.610446 108.930341 
Q 165.41284 107.965702 164.448201 110.163307 
L 161.336233 117.252874 
Q 160.371593 119.45048 162.569198 120.41512 
z
" clip-path="url(#pd2bcad06fa)" style="fill: #ffffff; stroke: #ffffff; stroke-linejoin: miter"/>
    </g>
    <g clip-path="url(#pd2bcad06fa)">
     <!-- Not(r &gt;= 1 -->
     <g style="fill: #ff0000" transform="translate(164.202555 116.69407)rotate(-336.30091)scale(0.08 -0.08)">
      <use xlink:href="#DejaVuSans-4e"/>
      <use xlink:href="#DejaVuSans-6f" x="74.804688"/>
      <use xlink:href="#DejaVuSans-74" x="135.986328"/>
      <use xlink:href="#DejaVuSans-28" x="175.195312"/>
      <use xlink:href="#DejaVuSans-72" x="214.208984"/>
      <use xlink:href="#DejaVuSans-20" x="255.322266"/>
      <use xlink:href="#DejaVuSans-3e" x="287.109375"/>
      <use xlink:href="#DejaVuSans-3d" x="370.898438"/>
      <use xlink:href="#DejaVuSans-20" x="454.6875"/>
      <use xlink:href="#DejaVuSans-31" x="486.474609"/>
     </g>
    </g>
   </g>
   <g id="PathCollection_1">
    <defs>
     <path id="m43056b4c84" d="M 0 11.18034 
C 2.965061 11.18034 5.80908 10.002309 7.905694 7.905694 
C 10.002309 5.80908 11.18034 2.965061 11.18034 0 
C 11.18034 -2.965061 10.002309 -5.80908 7.905694 -7.905694 
C 5.80908 -10.002309 2.965061 -11.18034 0 -11.18034 
C -2.965061 -11.18034 -5.80908 -10.002309 -7.905694 -7.905694 
C -10.002309 -5.80908 -11.18034 -2.965061 -11.18034 0 
C -11.18034 2.965061 -10.002309 5.80908 -7.905694 7.905694 
C -5.80908 10.002309 -2.965061 11.18034 0 11.18034 
z
" style="stroke: #ffc0cb; stroke-opacity: 0.9; stroke-width: 2"/>
    </defs>
    <g clip-path="url(#pd2bcad06fa)">
     <use xlink:href="#m43056b4c84" x="39.986777" y="315.609917" style="fill: #ffc0cb; fill-opacity: 0.9; stroke: #ffc0cb; stroke-opacity: 0.9; stroke-width: 2"/>
     <use xlink:href="#m43056b4c84" x="72.678335" y="281.933525" style="fill: #ffc0cb; fill-opacity: 0.9; stroke: #ffc0cb; stroke-opacity: 0.9; stroke-width: 2"/>
     <use xlink:href="#m43056b4c84" x="114.105833" y="239.92079" style="fill: #ffc0cb; fill-opacity: 0.9; stroke: #ffc0cb; stroke-opacity: 0.9; stroke-width: 2"/>
     <use xlink:href="#m43056b4c84" x="162.567017" y="191.863272" style="fill: #ffc0cb; fill-opacity: 0.9; stroke: #ffc0cb; stroke-opacity: 0.9; stroke-width: 2"/>
     <use xlink:href="#m43056b4c84" x="217.09921" y="137.502271" style="fill: #ffc0cb; fill-opacity: 0.9; stroke: #ffc0cb; stroke-opacity: 0.9; stroke-width: 2"/>
     <use xlink:href="#m43056b4c84" x="284.543854" y="146.200236" style="fill: #ffc0cb; fill-opacity: 0.9; stroke: #ffc0cb; stroke-opacity: 0.9; stroke-width: 2"/>
     <use xlink:href="#m43056b4c84" x="353.570431" y="131.826878" style="fill: #ffc0cb; fill-opacity: 0.9; stroke: #ffc0cb; stroke-opacity: 0.9; stroke-width: 2"/>
     <use xlink:href="#m43056b4c84" x="408.267389" y="152.27202" style="fill: #ffc0cb; fill-opacity: 0.9; stroke: #ffc0cb; stroke-opacity: 0.9; stroke-width: 2"/>
     <use xlink:href="#m43056b4c84" x="420.813223" y="121.735123" style="fill: #ffc0cb; fill-opacity: 0.9; stroke: #ffc0cb; stroke-opacity: 0.9; stroke-width: 2"/>
     <use xlink:href="#m43056b4c84" x="361.158214" y="105.239548" style="fill: #ffc0cb; fill-opacity: 0.9; stroke: #ffc0cb; stroke-opacity: 0.9; stroke-width: 2"/>
     <use xlink:href="#m43056b4c84" x="367.715444" y="73.185294" style="fill: #ffc0cb; fill-opacity: 0.9; stroke: #ffc0cb; stroke-opacity: 0.9; stroke-width: 2"/>
     <use xlink:href="#m43056b4c84" x="351.797387" y="29.990083" style="fill: #ffc0cb; fill-opacity: 0.9; stroke: #ffc0cb; stroke-opacity: 0.9; stroke-width: 2"/>
     <use xlink:href="#m43056b4c84" x="305.831757" y="45.818435" style="fill: #ffc0cb; fill-opacity: 0.9; stroke: #ffc0cb; stroke-opacity: 0.9; stroke-width: 2"/>
     <use xlink:href="#m43056b4c84" x="286.414632" y="96.679254" style="fill: #ffc0cb; fill-opacity: 0.9; stroke: #ffc0cb; stroke-opacity: 0.9; stroke-width: 2"/>
     <use xlink:href="#m43056b4c84" x="153.377882" y="109.53177" style="fill: #ffc0cb; fill-opacity: 0.9; stroke: #ffc0cb; stroke-opacity: 0.9; stroke-width: 2"/>
     <use xlink:href="#m43056b4c84" x="103.477227" y="87.078429" style="fill: #ffc0cb; fill-opacity: 0.9; stroke: #ffc0cb; stroke-opacity: 0.9; stroke-width: 2"/>
    </g>
   </g>
   <g id="text_12">
    <g clip-path="url(#pd2bcad06fa)">
     <!-- 0 -->
     <g style="opacity: 0.9" transform="translate(36.169277 318.921167)scale(0.12 -0.12)">
      <use xlink:href="#DejaVuSans-30"/>
     </g>
    </g>
   </g>
   <g id="text_13">
    <g clip-path="url(#pd2bcad06fa)">
     <!-- 1 -->
     <g style="opacity: 0.9" transform="translate(68.860835 285.244775)scale(0.12 -0.12)">
      <use xlink:href="#DejaVuSans-31"/>
     </g>
    </g>
   </g>
   <g id="text_14">
    <g clip-path="url(#pd2bcad06fa)">
     <!-- 2 -->
     <g style="opacity: 0.9" transform="translate(110.288333 243.23204)scale(0.12 -0.12)">
      <use xlink:href="#DejaVuSans-32"/>
     </g>
    </g>
   </g>
   <g id="text_15">
    <g clip-path="url(#pd2bcad06fa)">
     <!-- 3 -->
     <g style="opacity: 0.9" transform="translate(158.749517 195.174522)scale(0.12 -0.12)">
      <defs>
       <path id="DejaVuSans-33" d="M 2597 2516 
Q 3050 2419 3304 2112 
Q 3559 1806 3559 1356 
Q 3559 666 3084 287 
Q 2609 -91 1734 -91 
Q 1441 -91 1130 -33 
Q 819 25 488 141 
L 488 750 
Q 750 597 1062 519 
Q 1375 441 1716 441 
Q 2309 441 2620 675 
Q 2931 909 2931 1356 
Q 2931 1769 2642 2001 
Q 2353 2234 1838 2234 
L 1294 2234 
L 1294 2753 
L 1863 2753 
Q 2328 2753 2575 2939 
Q 2822 3125 2822 3475 
Q 2822 3834 2567 4026 
Q 2313 4219 1838 4219 
Q 1578 4219 1281 4162 
Q 984 4106 628 3988 
L 628 4550 
Q 988 4650 1302 4700 
Q 1616 4750 1894 4750 
Q 2613 4750 3031 4423 
Q 3450 4097 3450 3541 
Q 3450 3153 3228 2886 
Q 3006 2619 2597 2516 
z
" transform="scale(0.015625)"/>
      </defs>
      <use xlink:href="#DejaVuSans-33"/>
     </g>
    </g>
   </g>
   <g id="text_16">
    <g clip-path="url(#pd2bcad06fa)">
     <!-- 4 -->
     <g style="opacity: 0.9" transform="translate(213.28171 140.813521)scale(0.12 -0.12)">
      <defs>
       <path id="DejaVuSans-34" d="M 2419 4116 
L 825 1625 
L 2419 1625 
L 2419 4116 
z
M 2253 4666 
L 3047 4666 
L 3047 1625 
L 3713 1625 
L 3713 1100 
L 3047 1100 
L 3047 0 
L 2419 0 
L 2419 1100 
L 313 1100 
L 313 1709 
L 2253 4666 
z
" transform="scale(0.015625)"/>
      </defs>
      <use xlink:href="#DejaVuSans-34"/>
     </g>
    </g>
   </g>
   <g id="text_17">
    <g clip-path="url(#pd2bcad06fa)">
     <!-- 5 -->
     <g style="opacity: 0.9" transform="translate(280.726354 149.511486)scale(0.12 -0.12)">
      <defs>
       <path id="DejaVuSans-35" d="M 691 4666 
L 3169 4666 
L 3169 4134 
L 1269 4134 
L 1269 2991 
Q 1406 3038 1543 3061 
Q 1681 3084 1819 3084 
Q 2600 3084 3056 2656 
Q 3513 2228 3513 1497 
Q 3513 744 3044 326 
Q 2575 -91 1722 -91 
Q 1428 -91 1123 -41 
Q 819 9 494 109 
L 494 744 
Q 775 591 1075 516 
Q 1375 441 1709 441 
Q 2250 441 2565 725 
Q 2881 1009 2881 1497 
Q 2881 1984 2565 2268 
Q 2250 2553 1709 2553 
Q 1456 2553 1204 2497 
Q 953 2441 691 2322 
L 691 4666 
z
" transform="scale(0.015625)"/>
      </defs>
      <use xlink:href="#DejaVuSans-35"/>
     </g>
    </g>
   </g>
   <g id="text_18">
    <g clip-path="url(#pd2bcad06fa)">
     <!-- 6 -->
     <g style="opacity: 0.9" transform="translate(349.752931 135.138128)scale(0.12 -0.12)">
      <defs>
       <path id="DejaVuSans-36" d="M 2113 2584 
Q 1688 2584 1439 2293 
Q 1191 2003 1191 1497 
Q 1191 994 1439 701 
Q 1688 409 2113 409 
Q 2538 409 2786 701 
Q 3034 994 3034 1497 
Q 3034 2003 2786 2293 
Q 2538 2584 2113 2584 
z
M 3366 4563 
L 3366 3988 
Q 3128 4100 2886 4159 
Q 2644 4219 2406 4219 
Q 1781 4219 1451 3797 
Q 1122 3375 1075 2522 
Q 1259 2794 1537 2939 
Q 1816 3084 2150 3084 
Q 2853 3084 3261 2657 
Q 3669 2231 3669 1497 
Q 3669 778 3244 343 
Q 2819 -91 2113 -91 
Q 1303 -91 875 529 
Q 447 1150 447 2328 
Q 447 3434 972 4092 
Q 1497 4750 2381 4750 
Q 2619 4750 2861 4703 
Q 3103 4656 3366 4563 
z
" transform="scale(0.015625)"/>
      </defs>
      <use xlink:href="#DejaVuSans-36"/>
     </g>
    </g>
   </g>
   <g id="text_19">
    <g clip-path="url(#pd2bcad06fa)">
     <!-- 7 -->
     <g style="opacity: 0.9" transform="translate(404.449889 155.58327)scale(0.12 -0.12)">
      <defs>
       <path id="DejaVuSans-37" d="M 525 4666 
L 3525 4666 
L 3525 4397 
L 1831 0 
L 1172 0 
L 2766 4134 
L 525 4134 
L 525 4666 
z
" transform="scale(0.015625)"/>
      </defs>
      <use xlink:href="#DejaVuSans-37"/>
     </g>
    </g>
   </g>
   <g id="text_20">
    <g clip-path="url(#pd2bcad06fa)">
     <!-- 8 -->
     <g style="opacity: 0.9" transform="translate(416.995723 125.046373)scale(0.12 -0.12)">
      <defs>
       <path id="DejaVuSans-38" d="M 2034 2216 
Q 1584 2216 1326 1975 
Q 1069 1734 1069 1313 
Q 1069 891 1326 650 
Q 1584 409 2034 409 
Q 2484 409 2743 651 
Q 3003 894 3003 1313 
Q 3003 1734 2745 1975 
Q 2488 2216 2034 2216 
z
M 1403 2484 
Q 997 2584 770 2862 
Q 544 3141 544 3541 
Q 544 4100 942 4425 
Q 1341 4750 2034 4750 
Q 2731 4750 3128 4425 
Q 3525 4100 3525 3541 
Q 3525 3141 3298 2862 
Q 3072 2584 2669 2484 
Q 3125 2378 3379 2068 
Q 3634 1759 3634 1313 
Q 3634 634 3220 271 
Q 2806 -91 2034 -91 
Q 1263 -91 848 271 
Q 434 634 434 1313 
Q 434 1759 690 2068 
Q 947 2378 1403 2484 
z
M 1172 3481 
Q 1172 3119 1398 2916 
Q 1625 2713 2034 2713 
Q 2441 2713 2670 2916 
Q 2900 3119 2900 3481 
Q 2900 3844 2670 4047 
Q 2441 4250 2034 4250 
Q 1625 4250 1398 4047 
Q 1172 3844 1172 3481 
z
" transform="scale(0.015625)"/>
      </defs>
      <use xlink:href="#DejaVuSans-38"/>
     </g>
    </g>
   </g>
   <g id="text_21">
    <g clip-path="url(#pd2bcad06fa)">
     <!-- 9 -->
     <g style="opacity: 0.9" transform="translate(357.340714 108.550798)scale(0.12 -0.12)">
      <defs>
       <path id="DejaVuSans-39" d="M 703 97 
L 703 672 
Q 941 559 1184 500 
Q 1428 441 1663 441 
Q 2288 441 2617 861 
Q 2947 1281 2994 2138 
Q 2813 1869 2534 1725 
Q 2256 1581 1919 1581 
Q 1219 1581 811 2004 
Q 403 2428 403 3163 
Q 403 3881 828 4315 
Q 1253 4750 1959 4750 
Q 2769 4750 3195 4129 
Q 3622 3509 3622 2328 
Q 3622 1225 3098 567 
Q 2575 -91 1691 -91 
Q 1453 -91 1209 -44 
Q 966 3 703 97 
z
M 1959 2075 
Q 2384 2075 2632 2365 
Q 2881 2656 2881 3163 
Q 2881 3666 2632 3958 
Q 2384 4250 1959 4250 
Q 1534 4250 1286 3958 
Q 1038 3666 1038 3163 
Q 1038 2656 1286 2365 
Q 1534 2075 1959 2075 
z
" transform="scale(0.015625)"/>
      </defs>
      <use xlink:href="#DejaVuSans-39"/>
     </g>
    </g>
   </g>
   <g id="text_22">
    <g clip-path="url(#pd2bcad06fa)">
     <!-- 10 -->
     <g style="opacity: 0.9" transform="translate(360.080444 76.496544)scale(0.12 -0.12)">
      <use xlink:href="#DejaVuSans-31"/>
      <use xlink:href="#DejaVuSans-30" x="63.623047"/>
     </g>
    </g>
   </g>
   <g id="text_23">
    <g clip-path="url(#pd2bcad06fa)">
     <!-- 11 -->
     <g style="opacity: 0.9" transform="translate(344.162387 33.301333)scale(0.12 -0.12)">
      <use xlink:href="#DejaVuSans-31"/>
      <use xlink:href="#DejaVuSans-31" x="63.623047"/>
     </g>
    </g>
   </g>
   <g id="text_24">
    <g clip-path="url(#pd2bcad06fa)">
     <!-- 12 -->
     <g style="opacity: 0.9" transform="translate(298.196757 49.129685)scale(0.12 -0.12)">
      <use xlink:href="#DejaVuSans-31"/>
      <use xlink:href="#DejaVuSans-32" x="63.623047"/>
     </g>
    </g>
   </g>
   <g id="text_25">
    <g clip-path="url(#pd2bcad06fa)">
     <!-- 13 -->
     <g style="opacity: 0.9" transform="translate(278.779632 99.990504)scale(0.12 -0.12)">
      <use xlink:href="#DejaVuSans-31"/>
      <use xlink:href="#DejaVuSans-33" x="63.623047"/>
     </g>
    </g>
   </g>
   <g id="text_26">
    <g clip-path="url(#pd2bcad06fa)">
     <!-- 14 -->
     <g style="opacity: 0.9" transform="translate(145.742882 112.84302)scale(0.12 -0.12)">
      <use xlink:href="#DejaVuSans-31"/>
      <use xlink:href="#DejaVuSans-34" x="63.623047"/>
     </g>
    </g>
   </g>
   <g id="text_27">
    <g clip-path="url(#pd2bcad06fa)">
     <!-- 15 -->
     <g style="opacity: 0.9" transform="translate(95.842227 90.389679)scale(0.12 -0.12)">
      <use xlink:href="#DejaVuSans-31"/>
      <use xlink:href="#DejaVuSans-35" x="63.623047"/>
     </g>
    </g>
   </g>
   <g id="text_28">
    <g clip-path="url(#pd2bcad06fa)">
     <!-- ((N &gt;= 1 and ((R - 1) * (R - 1)) &lt;= (N - 1)) and N &lt;= (R * R)) -->
     <g transform="translate(265.560953 -30.148026)scale(0.08 -0.08)">
      <defs>
       <path id="DejaVuSans-6e" d="M 3513 2113 
L 3513 0 
L 2938 0 
L 2938 2094 
Q 2938 2591 2744 2837 
Q 2550 3084 2163 3084 
Q 1697 3084 1428 2787 
Q 1159 2491 1159 1978 
L 1159 0 
L 581 0 
L 581 3500 
L 1159 3500 
L 1159 2956 
Q 1366 3272 1645 3428 
Q 1925 3584 2291 3584 
Q 2894 3584 3203 3211 
Q 3513 2838 3513 2113 
z
" transform="scale(0.015625)"/>
       <path id="DejaVuSans-64" d="M 2906 2969 
L 2906 4863 
L 3481 4863 
L 3481 0 
L 2906 0 
L 2906 525 
Q 2725 213 2448 61 
Q 2172 -91 1784 -91 
Q 1150 -91 751 415 
Q 353 922 353 1747 
Q 353 2572 751 3078 
Q 1150 3584 1784 3584 
Q 2172 3584 2448 3432 
Q 2725 3281 2906 2969 
z
M 947 1747 
Q 947 1113 1208 752 
Q 1469 391 1925 391 
Q 2381 391 2643 752 
Q 2906 1113 2906 1747 
Q 2906 2381 2643 2742 
Q 2381 3103 1925 3103 
Q 1469 3103 1208 2742 
Q 947 2381 947 1747 
z
" transform="scale(0.015625)"/>
       <path id="DejaVuSans-29" d="M 513 4856 
L 1013 4856 
Q 1481 4119 1714 3412 
Q 1947 2706 1947 2009 
Q 1947 1309 1714 600 
Q 1481 -109 1013 -844 
L 513 -844 
Q 928 -128 1133 580 
Q 1338 1288 1338 2009 
Q 1338 2731 1133 3434 
Q 928 4138 513 4856 
z
" transform="scale(0.015625)"/>
       <path id="DejaVuSans-3c" d="M 4684 3150 
L 1459 2003 
L 4684 863 
L 4684 294 
L 678 1747 
L 678 2266 
L 4684 3719 
L 4684 3150 
z
" transform="scale(0.015625)"/>
      </defs>
      <use xlink:href="#DejaVuSans-28"/>
      <use xlink:href="#DejaVuSans-28" x="39.013672"/>
      <use xlink:href="#DejaVuSans-4e" x="78.027344"/>
      <use xlink:href="#DejaVuSans-20" x="152.832031"/>
      <use xlink:href="#DejaVuSans-3e" x="184.619141"/>
      <use xlink:href="#DejaVuSans-3d" x="268.408203"/>
      <use xlink:href="#DejaVuSans-20" x="352.197266"/>
      <use xlink:href="#DejaVuSans-31" x="383.984375"/>
      <use xlink:href="#DejaVuSans-20" x="447.607422"/>
      <use xlink:href="#DejaVuSans-61" x="479.394531"/>
      <use xlink:href="#DejaVuSans-6e" x="540.673828"/>
      <use xlink:href="#DejaVuSans-64" x="604.052734"/>
      <use xlink:href="#DejaVuSans-20" x="667.529297"/>
      <use xlink:href="#DejaVuSans-28" x="699.316406"/>
      <use xlink:href="#DejaVuSans-28" x="738.330078"/>
      <use xlink:href="#DejaVuSans-52" x="777.34375"/>
      <use xlink:href="#DejaVuSans-20" x="846.826172"/>
      <use xlink:href="#DejaVuSans-2d" x="878.613281"/>
      <use xlink:href="#DejaVuSans-20" x="914.697266"/>
      <use xlink:href="#DejaVuSans-31" x="946.484375"/>
      <use xlink:href="#DejaVuSans-29" x="1010.107422"/>
      <use xlink:href="#DejaVuSans-20" x="1049.121094"/>
      <use xlink:href="#DejaVuSans-2a" x="1080.908203"/>
      <use xlink:href="#DejaVuSans-20" x="1130.908203"/>
      <use xlink:href="#DejaVuSans-28" x="1162.695312"/>
      <use xlink:href="#DejaVuSans-52" x="1201.708984"/>
      <use xlink:href="#DejaVuSans-20" x="1271.191406"/>
      <use xlink:href="#DejaVuSans-2d" x="1302.978516"/>
      <use xlink:href="#DejaVuSans-20" x="1339.0625"/>
      <use xlink:href="#DejaVuSans-31" x="1370.849609"/>
      <use xlink:href="#DejaVuSans-29" x="1434.472656"/>
      <use xlink:href="#DejaVuSans-29" x="1473.486328"/>
      <use xlink:href="#DejaVuSans-20" x="1512.5"/>
      <use xlink:href="#DejaVuSans-3c" x="1544.287109"/>
      <use xlink:href="#DejaVuSans-3d" x="1628.076172"/>
      <use xlink:href="#DejaVuSans-20" x="1711.865234"/>
      <use xlink:href="#DejaVuSans-28" x="1743.652344"/>
      <use xlink:href="#DejaVuSans-4e" x="1782.666016"/>
      <use xlink:href="#DejaVuSans-20" x="1857.470703"/>
      <use xlink:href="#DejaVuSans-2d" x="1889.257812"/>
      <use xlink:href="#DejaVuSans-20" x="1925.341797"/>
      <use xlink:href="#DejaVuSans-31" x="1957.128906"/>
      <use xlink:href="#DejaVuSans-29" x="2020.751953"/>
      <use xlink:href="#DejaVuSans-29" x="2059.765625"/>
      <use xlink:href="#DejaVuSans-20" x="2098.779297"/>
      <use xlink:href="#DejaVuSans-61" x="2130.566406"/>
      <use xlink:href="#DejaVuSans-6e" x="2191.845703"/>
      <use xlink:href="#DejaVuSans-64" x="2255.224609"/>
      <use xlink:href="#DejaVuSans-20" x="2318.701172"/>
      <use xlink:href="#DejaVuSans-4e" x="2350.488281"/>
      <use xlink:href="#DejaVuSans-20" x="2425.292969"/>
      <use xlink:href="#DejaVuSans-3c" x="2457.080078"/>
      <use xlink:href="#DejaVuSans-3d" x="2540.869141"/>
      <use xlink:href="#DejaVuSans-20" x="2624.658203"/>
      <use xlink:href="#DejaVuSans-28" x="2656.445312"/>
      <use xlink:href="#DejaVuSans-52" x="2695.458984"/>
      <use xlink:href="#DejaVuSans-20" x="2764.941406"/>
      <use xlink:href="#DejaVuSans-2a" x="2796.728516"/>
      <use xlink:href="#DejaVuSans-20" x="2846.728516"/>
      <use xlink:href="#DejaVuSans-52" x="2878.515625"/>
      <use xlink:href="#DejaVuSans-29" x="2947.998047"/>
      <use xlink:href="#DejaVuSans-29" x="2987.011719"/>
     </g>
    </g>
   </g>
   <g id="text_29">
    <g clip-path="url(#pd2bcad06fa)">
     <!-- (N &gt;= 1 and (4 * (N + r)) == ((((u * u) - (v * v)) - (2 * u)) + (2 * v))) -->
     <g transform="translate(264.127396 176.809237)scale(0.08 -0.08)">
      <use xlink:href="#DejaVuSans-28"/>
      <use xlink:href="#DejaVuSans-4e" x="39.013672"/>
      <use xlink:href="#DejaVuSans-20" x="113.818359"/>
      <use xlink:href="#DejaVuSans-3e" x="145.605469"/>
      <use xlink:href="#DejaVuSans-3d" x="229.394531"/>
      <use xlink:href="#DejaVuSans-20" x="313.183594"/>
      <use xlink:href="#DejaVuSans-31" x="344.970703"/>
      <use xlink:href="#DejaVuSans-20" x="408.59375"/>
      <use xlink:href="#DejaVuSans-61" x="440.380859"/>
      <use xlink:href="#DejaVuSans-6e" x="501.660156"/>
      <use xlink:href="#DejaVuSans-64" x="565.039062"/>
      <use xlink:href="#DejaVuSans-20" x="628.515625"/>
      <use xlink:href="#DejaVuSans-28" x="660.302734"/>
      <use xlink:href="#DejaVuSans-34" x="699.316406"/>
      <use xlink:href="#DejaVuSans-20" x="762.939453"/>
      <use xlink:href="#DejaVuSans-2a" x="794.726562"/>
      <use xlink:href="#DejaVuSans-20" x="844.726562"/>
      <use xlink:href="#DejaVuSans-28" x="876.513672"/>
      <use xlink:href="#DejaVuSans-4e" x="915.527344"/>
      <use xlink:href="#DejaVuSans-20" x="990.332031"/>
      <use xlink:href="#DejaVuSans-2b" x="1022.119141"/>
      <use xlink:href="#DejaVuSans-20" x="1105.908203"/>
      <use xlink:href="#DejaVuSans-72" x="1137.695312"/>
      <use xlink:href="#DejaVuSans-29" x="1178.808594"/>
      <use xlink:href="#DejaVuSans-29" x="1217.822266"/>
      <use xlink:href="#DejaVuSans-20" x="1256.835938"/>
      <use xlink:href="#DejaVuSans-3d" x="1288.623047"/>
      <use xlink:href="#DejaVuSans-3d" x="1372.412109"/>
      <use xlink:href="#DejaVuSans-20" x="1456.201172"/>
      <use xlink:href="#DejaVuSans-28" x="1487.988281"/>
      <use xlink:href="#DejaVuSans-28" x="1527.001953"/>
      <use xlink:href="#DejaVuSans-28" x="1566.015625"/>
      <use xlink:href="#DejaVuSans-28" x="1605.029297"/>
      <use xlink:href="#DejaVuSans-75" x="1644.042969"/>
      <use xlink:href="#DejaVuSans-20" x="1707.421875"/>
      <use xlink:href="#DejaVuSans-2a" x="1739.208984"/>
      <use xlink:href="#DejaVuSans-20" x="1789.208984"/>
      <use xlink:href="#DejaVuSans-75" x="1820.996094"/>
      <use xlink:href="#DejaVuSans-29" x="1884.375"/>
      <use xlink:href="#DejaVuSans-20" x="1923.388672"/>
      <use xlink:href="#DejaVuSans-2d" x="1955.175781"/>
      <use xlink:href="#DejaVuSans-20" x="1991.259766"/>
      <use xlink:href="#DejaVuSans-28" x="2023.046875"/>
      <use xlink:href="#DejaVuSans-76" x="2062.060547"/>
      <use xlink:href="#DejaVuSans-20" x="2121.240234"/>
      <use xlink:href="#DejaVuSans-2a" x="2153.027344"/>
      <use xlink:href="#DejaVuSans-20" x="2203.027344"/>
      <use xlink:href="#DejaVuSans-76" x="2234.814453"/>
      <use xlink:href="#DejaVuSans-29" x="2293.994141"/>
      <use xlink:href="#DejaVuSans-29" x="2333.007812"/>
      <use xlink:href="#DejaVuSans-20" x="2372.021484"/>
      <use xlink:href="#DejaVuSans-2d" x="2403.808594"/>
      <use xlink:href="#DejaVuSans-20" x="2439.892578"/>
      <use xlink:href="#DejaVuSans-28" x="2471.679688"/>
      <use xlink:href="#DejaVuSans-32" x="2510.693359"/>
      <use xlink:href="#DejaVuSans-20" x="2574.316406"/>
      <use xlink:href="#DejaVuSans-2a" x="2606.103516"/>
      <use xlink:href="#DejaVuSans-20" x="2656.103516"/>
      <use xlink:href="#DejaVuSans-75" x="2687.890625"/>
      <use xlink:href="#DejaVuSans-29" x="2751.269531"/>
      <use xlink:href="#DejaVuSans-29" x="2790.283203"/>
      <use xlink:href="#DejaVuSans-20" x="2829.296875"/>
      <use xlink:href="#DejaVuSans-2b" x="2861.083984"/>
      <use xlink:href="#DejaVuSans-20" x="2944.873047"/>
      <use xlink:href="#DejaVuSans-28" x="2976.660156"/>
      <use xlink:href="#DejaVuSans-32" x="3015.673828"/>
      <use xlink:href="#DejaVuSans-20" x="3079.296875"/>
      <use xlink:href="#DejaVuSans-2a" x="3111.083984"/>
      <use xlink:href="#DejaVuSans-20" x="3161.083984"/>
      <use xlink:href="#DejaVuSans-76" x="3192.871094"/>
      <use xlink:href="#DejaVuSans-29" x="3252.050781"/>
      <use xlink:href="#DejaVuSans-29" x="3291.064453"/>
      <use xlink:href="#DejaVuSans-29" x="3330.078125"/>
     </g>
    </g>
   </g>
   <g id="text_30">
    <g clip-path="url(#pd2bcad06fa)">
     <!-- If -->
     <g transform="translate(229.107729 120.095855)scale(0.08 -0.08)">
      <defs>
       <path id="DejaVuSans-49" d="M 628 4666 
L 1259 4666 
L 1259 0 
L 628 0 
L 628 4666 
z
" transform="scale(0.015625)"/>
       <path id="DejaVuSans-66" d="M 2375 4863 
L 2375 4384 
L 1825 4384 
Q 1516 4384 1395 4259 
Q 1275 4134 1275 3809 
L 1275 3500 
L 2222 3500 
L 2222 3053 
L 1275 3053 
L 1275 0 
L 697 0 
L 697 3053 
L 147 3053 
L 147 3500 
L 697 3500 
L 697 3744 
Q 697 4328 969 4595 
Q 1241 4863 1831 4863 
L 2375 4863 
z
" transform="scale(0.015625)"/>
      </defs>
      <use xlink:href="#DejaVuSans-49"/>
      <use xlink:href="#DejaVuSans-66" x="29.492188"/>
     </g>
    </g>
   </g>
   <g id="text_31">
    <g clip-path="url(#pd2bcad06fa)">
     <!-- 1 &gt;= 0 -->
     <g transform="translate(258.209932 298.585476)scale(0.08 -0.08)">
      <use xlink:href="#DejaVuSans-31"/>
      <use xlink:href="#DejaVuSans-20" x="63.623047"/>
      <use xlink:href="#DejaVuSans-3e" x="95.410156"/>
      <use xlink:href="#DejaVuSans-3d" x="179.199219"/>
      <use xlink:href="#DejaVuSans-20" x="262.988281"/>
      <use xlink:href="#DejaVuSans-30" x="294.775391"/>
     </g>
    </g>
   </g>
  </g>
 </g>
 <defs>
  <clipPath id="pd2bcad06fa">
   <rect x="0" y="0" width="460.8" height="345.6"/>
  </clipPath>
 </defs>
</svg>
