<?xml version="1.0" encoding="utf-8" standalone="no"?>
<!DOCTYPE svg PUBLIC "-//W3C//DTD SVG 1.1//EN"
  "http://www.w3.org/Graphics/SVG/1.1/DTD/svg11.dtd">
<svg xmlns:xlink="http://www.w3.org/1999/xlink" width="460.8pt" height="345.6pt" viewBox="0 0 460.8 345.6" xmlns="http://www.w3.org/2000/svg" version="1.1">
 <metadata>
  <rdf:RDF xmlns:dc="http://purl.org/dc/elements/1.1/" xmlns:cc="http://creativecommons.org/ns#" xmlns:rdf="http://www.w3.org/1999/02/22-rdf-syntax-ns#">
   <cc:Work>
    <dc:type rdf:resource="http://purl.org/dc/dcmitype/StillImage"/>
    <dc:date>2022-12-30T18:26:44.919003</dc:date>
    <dc:format>image/svg+xml</dc:format>
    <dc:creator>
     <cc:Agent>
      <dc:title>Matplotlib v3.5.1, https://matplotlib.org/</dc:title>
     </cc:Agent>
    </dc:creator>
   </cc:Work>
  </rdf:RDF>
 </metadata>
 <defs>
  <style type="text/css">*{stroke-linejoin: round; stroke-linecap: butt}</style>
 </defs>
 <g id="figure_1">
  <g id="patch_1">
   <path d="M 0 345.6 
L 460.8 345.6 
L 460.8 0 
L 0 0 
z
" style="fill: #ffffff"/>
  </g>
  <g id="axes_1">
   <g id="LineCollection_1">
    <path d="M 39.986777 29.990083 
L 76.40802 59.9549 
" clip-path="url(#p04182ad0df)" style="fill: none; stroke: #000000; stroke-opacity: 0.9"/>
    <path d="M 76.40802 59.9549 
L 124.961772 100.587319 
" clip-path="url(#p04182ad0df)" style="fill: none; stroke: #000000; stroke-opacity: 0.9"/>
    <path d="M 124.961772 100.587319 
L 180.793394 149.660908 
" clip-path="url(#p04182ad0df)" style="fill: none; stroke: #000000; stroke-opacity: 0.9"/>
    <path d="M 180.793394 149.660908 
L 214.813878 213.291184 
" clip-path="url(#p04182ad0df)" style="fill: none; stroke: #000000; stroke-opacity: 0.9"/>
    <path d="M 214.813878 213.291184 
L 267.412515 202.337228 
" clip-path="url(#p04182ad0df)" style="fill: none; stroke: #000000; stroke-opacity: 0.9"/>
    <path d="M 214.813878 213.291184 
L 291.4959 231.702324 
" clip-path="url(#p04182ad0df)" style="fill: none; stroke: #000000; stroke-opacity: 0.9"/>
    <path d="M 214.813878 213.291184 
L 156.376794 257.591829 
" clip-path="url(#p04182ad0df)" style="fill: none; stroke: #000000; stroke-opacity: 0.9"/>
    <path d="M 267.412515 202.337228 
L 331.527067 195.162285 
" clip-path="url(#p04182ad0df)" style="fill: none; stroke: #000000; stroke-opacity: 0.9"/>
    <path d="M 331.527067 195.162285 
L 389.352077 236.279667 
" clip-path="url(#p04182ad0df)" style="fill: none; stroke: #000000; stroke-opacity: 0.9"/>
    <path d="M 331.527067 195.162285 
L 298.257838 138.611263 
" clip-path="url(#p04182ad0df)" style="fill: none; stroke: #000000; stroke-opacity: 0.9"/>
    <path d="M 389.352077 236.279667 
L 420.813223 283.514568 
" clip-path="url(#p04182ad0df)" style="fill: none; stroke: #000000; stroke-opacity: 0.9"/>
    <path d="M 420.813223 283.514568 
L 388.590302 315.609917 
" clip-path="url(#p04182ad0df)" style="fill: none; stroke: #000000; stroke-opacity: 0.9"/>
    <path d="M 388.590302 315.609917 
L 336.168017 287.402518 
" clip-path="url(#p04182ad0df)" style="fill: none; stroke: #000000; stroke-opacity: 0.9"/>
    <path d="M 336.168017 287.402518 
L 291.4959 231.702324 
" clip-path="url(#p04182ad0df)" style="fill: none; stroke: #000000; stroke-opacity: 0.9"/>
    <path d="M 298.257838 138.611263 
L 330.425308 115.585455 
" clip-path="url(#p04182ad0df)" style="fill: none; stroke: #000000; stroke-opacity: 0.9"/>
    <path d="M 330.425308 115.585455 
L 323.399512 167.655135 
" clip-path="url(#p04182ad0df)" style="fill: none; stroke: #000000; stroke-opacity: 0.9"/>
    <path d="M 323.399512 167.655135 
L 291.4959 231.702324 
" clip-path="url(#p04182ad0df)" style="fill: none; stroke: #000000; stroke-opacity: 0.9"/>
    <path d="M 156.376794 257.591829 
L 112.83855 291.916745 
" clip-path="url(#p04182ad0df)" style="fill: none; stroke: #000000; stroke-opacity: 0.9"/>
   </g>
   <g id="text_1">
    <g id="patch_2">
     <path d="M 45.875321 42.955685 
L 62.550737 56.675035 
Q 64.404097 58.199848 65.92891 56.346488 
L 70.848022 50.367471 
Q 72.372835 48.514111 70.519475 46.989297 
L 53.84406 33.269947 
Q 51.9907 31.745134 50.465886 33.598494 
L 45.546775 39.577512 
Q 44.021961 41.430872 45.875321 42.955685 
z
" clip-path="url(#p04182ad0df)" style="fill: #ffffff; stroke: #ffffff; stroke-linejoin: miter"/>
    </g>
    <g clip-path="url(#p04182ad0df)">
     <!-- y = n -->
     <g style="fill: #ff0000" transform="translate(48.45718 39.817522)rotate(-320.554874)scale(0.08 -0.08)">
      <defs>
       <path id="DejaVuSans-79" d="M 2059 -325 
Q 1816 -950 1584 -1140 
Q 1353 -1331 966 -1331 
L 506 -1331 
L 506 -850 
L 844 -850 
Q 1081 -850 1212 -737 
Q 1344 -625 1503 -206 
L 1606 56 
L 191 3500 
L 800 3500 
L 1894 763 
L 2988 3500 
L 3597 3500 
L 2059 -325 
z
" transform="scale(0.015625)"/>
       <path id="DejaVuSans-20" transform="scale(0.015625)"/>
       <path id="DejaVuSans-3d" d="M 678 2906 
L 4684 2906 
L 4684 2381 
L 678 2381 
L 678 2906 
z
M 678 1631 
L 4684 1631 
L 4684 1100 
L 678 1100 
L 678 1631 
z
" transform="scale(0.015625)"/>
       <path id="DejaVuSans-6e" d="M 3513 2113 
L 3513 0 
L 2938 0 
L 2938 2094 
Q 2938 2591 2744 2837 
Q 2550 3084 2163 3084 
Q 1697 3084 1428 2787 
Q 1159 2491 1159 1978 
L 1159 0 
L 581 0 
L 581 3500 
L 1159 3500 
L 1159 2956 
Q 1366 3272 1645 3428 
Q 1925 3584 2291 3584 
Q 2894 3584 3203 3211 
Q 3513 2838 3513 2113 
z
" transform="scale(0.015625)"/>
      </defs>
      <use xlink:href="#DejaVuSans-79"/>
      <use xlink:href="#DejaVuSans-20" x="59.179688"/>
      <use xlink:href="#DejaVuSans-3d" x="90.966797"/>
      <use xlink:href="#DejaVuSans-20" x="174.755859"/>
      <use xlink:href="#DejaVuSans-6e" x="206.542969"/>
     </g>
    </g>
   </g>
   <g id="text_2">
    <g id="patch_3">
     <path d="M 88.372452 78.144879 
L 104.947856 92.016078 
Q 106.788396 93.556342 108.32866 91.715802 
L 113.297616 85.778144 
Q 114.837879 83.937604 112.997339 82.39734 
L 96.421935 68.526141 
Q 94.581395 66.985877 93.041132 68.826417 
L 88.072176 74.764075 
Q 86.531912 76.604615 88.372452 78.144879 
z
" clip-path="url(#p04182ad0df)" style="fill: #ffffff; stroke: #ffffff; stroke-linejoin: miter"/>
    </g>
    <g clip-path="url(#p04182ad0df)">
     <!-- x = 0 -->
     <g style="fill: #ff0000" transform="translate(90.980472 75.028423)rotate(-320.075575)scale(0.08 -0.08)">
      <defs>
       <path id="DejaVuSans-78" d="M 3513 3500 
L 2247 1797 
L 3578 0 
L 2900 0 
L 1881 1375 
L 863 0 
L 184 0 
L 1544 1831 
L 300 3500 
L 978 3500 
L 1906 2253 
L 2834 3500 
L 3513 3500 
z
" transform="scale(0.015625)"/>
       <path id="DejaVuSans-30" d="M 2034 4250 
Q 1547 4250 1301 3770 
Q 1056 3291 1056 2328 
Q 1056 1369 1301 889 
Q 1547 409 2034 409 
Q 2525 409 2770 889 
Q 3016 1369 3016 2328 
Q 3016 3291 2770 3770 
Q 2525 4250 2034 4250 
z
M 2034 4750 
Q 2819 4750 3233 4129 
Q 3647 3509 3647 2328 
Q 3647 1150 3233 529 
Q 2819 -91 2034 -91 
Q 1250 -91 836 529 
Q 422 1150 422 2328 
Q 422 3509 836 4129 
Q 1250 4750 2034 4750 
z
" transform="scale(0.015625)"/>
      </defs>
      <use xlink:href="#DejaVuSans-78"/>
      <use xlink:href="#DejaVuSans-20" x="59.179688"/>
      <use xlink:href="#DejaVuSans-3d" x="90.966797"/>
      <use xlink:href="#DejaVuSans-20" x="174.755859"/>
      <use xlink:href="#DejaVuSans-30" x="206.542969"/>
     </g>
    </g>
   </g>
   <g id="text_3">
    <g id="patch_4">
     <path d="M 141.220737 123.227648 
L 156.254043 136.441275 
Q 158.056687 138.025722 159.641134 136.223077 
L 164.752626 130.40767 
Q 166.337073 128.605026 164.534428 127.020579 
L 149.501123 113.806951 
Q 147.698478 112.222504 146.114031 114.025149 
L 141.002539 119.840556 
Q 139.418092 121.643201 141.220737 123.227648 
z
" clip-path="url(#p04182ad0df)" style="fill: #ffffff; stroke: #ffffff; stroke-linejoin: miter"/>
    </g>
    <g clip-path="url(#p04182ad0df)">
     <!-- t = 0 -->
     <g style="fill: #ff0000" transform="translate(143.903569 120.175357)rotate(-318.685922)scale(0.08 -0.08)">
      <defs>
       <path id="DejaVuSans-74" d="M 1172 4494 
L 1172 3500 
L 2356 3500 
L 2356 3053 
L 1172 3053 
L 1172 1153 
Q 1172 725 1289 603 
Q 1406 481 1766 481 
L 2356 481 
L 2356 0 
L 1766 0 
Q 1100 0 847 248 
Q 594 497 594 1153 
L 594 3053 
L 172 3053 
L 172 3500 
L 594 3500 
L 594 4494 
L 1172 4494 
z
" transform="scale(0.015625)"/>
      </defs>
      <use xlink:href="#DejaVuSans-74"/>
      <use xlink:href="#DejaVuSans-20" x="39.208984"/>
      <use xlink:href="#DejaVuSans-3d" x="70.996094"/>
      <use xlink:href="#DejaVuSans-20" x="154.785156"/>
      <use xlink:href="#DejaVuSans-30" x="186.572266"/>
     </g>
    </g>
   </g>
   <g id="text_4">
    <g id="patch_5">
     <path d="M 228.530432 216.840435 
L 256.253141 211.067029 
Q 258.602731 210.577714 258.113416 208.228124 
L 256.534865 200.648251 
Q 256.04555 198.298661 253.695961 198.787976 
L 225.973252 204.561383 
Q 223.623662 205.050698 224.112977 207.400287 
L 225.691528 214.980161 
Q 226.180843 217.32975 228.530432 216.840435 
z
" clip-path="url(#p04182ad0df)" style="fill: #ffffff; stroke: #ffffff; stroke-linejoin: miter"/>
    </g>
    <g clip-path="url(#p04182ad0df)">
     <!-- y &gt;= 0 -->
     <g style="fill: #ff0000" transform="translate(227.70191 212.862042)rotate(-11.764015)scale(0.08 -0.08)">
      <defs>
       <path id="DejaVuSans-3e" d="M 678 3150 
L 678 3719 
L 4684 2266 
L 4684 1747 
L 678 294 
L 678 863 
L 3897 2003 
L 678 3150 
z
" transform="scale(0.015625)"/>
      </defs>
      <use xlink:href="#DejaVuSans-79"/>
      <use xlink:href="#DejaVuSans-20" x="59.179688"/>
      <use xlink:href="#DejaVuSans-3e" x="90.966797"/>
      <use xlink:href="#DejaVuSans-3d" x="174.755859"/>
      <use xlink:href="#DejaVuSans-20" x="258.544922"/>
      <use xlink:href="#DejaVuSans-30" x="290.332031"/>
     </g>
    </g>
   </g>
   <g id="text_5">
    <g id="patch_6">
     <path d="M 341.088637 209.656231 
L 372.522138 232.007516 
Q 374.478073 233.398314 375.868871 231.44238 
L 380.355643 225.132453 
Q 381.746441 223.176518 379.790507 221.78572 
L 348.357006 199.434435 
Q 346.401071 198.043637 345.010273 199.999572 
L 340.5235 206.309499 
Q 339.132702 208.265433 341.088637 209.656231 
z
" clip-path="url(#p04182ad0df)" style="fill: #ffffff; stroke: #ffffff; stroke-linejoin: miter"/>
    </g>
    <g clip-path="url(#p04182ad0df)">
     <!-- t == (x *  -->
     <g style="fill: #ff0000" transform="translate(343.443577 206.344386)rotate(-324.584672)scale(0.08 -0.08)">
      <defs>
       <path id="DejaVuSans-28" d="M 1984 4856 
Q 1566 4138 1362 3434 
Q 1159 2731 1159 2009 
Q 1159 1288 1364 580 
Q 1569 -128 1984 -844 
L 1484 -844 
Q 1016 -109 783 600 
Q 550 1309 550 2009 
Q 550 2706 781 3412 
Q 1013 4119 1484 4856 
L 1984 4856 
z
" transform="scale(0.015625)"/>
       <path id="DejaVuSans-2a" d="M 3009 3897 
L 1888 3291 
L 3009 2681 
L 2828 2375 
L 1778 3009 
L 1778 1831 
L 1422 1831 
L 1422 3009 
L 372 2375 
L 191 2681 
L 1313 3291 
L 191 3897 
L 372 4206 
L 1422 3572 
L 1422 4750 
L 1778 4750 
L 1778 3572 
L 2828 4206 
L 3009 3897 
z
" transform="scale(0.015625)"/>
      </defs>
      <use xlink:href="#DejaVuSans-74"/>
      <use xlink:href="#DejaVuSans-20" x="39.208984"/>
      <use xlink:href="#DejaVuSans-3d" x="70.996094"/>
      <use xlink:href="#DejaVuSans-3d" x="154.785156"/>
      <use xlink:href="#DejaVuSans-20" x="238.574219"/>
      <use xlink:href="#DejaVuSans-28" x="270.361328"/>
      <use xlink:href="#DejaVuSans-78" x="309.375"/>
      <use xlink:href="#DejaVuSans-20" x="368.554688"/>
      <use xlink:href="#DejaVuSans-2a" x="400.341797"/>
      <use xlink:href="#DejaVuSans-20" x="450.341797"/>
     </g>
    </g>
   </g>
   <g id="text_6">
    <g id="patch_7">
     <path d="M 388.233384 246.105705 
L 411.315089 280.759944 
Q 412.645527 282.757426 414.643009 281.426989 
L 421.264871 277.01645 
Q 423.262354 275.686012 421.931916 273.68853 
L 398.850211 239.034291 
Q 397.519773 237.036808 395.522291 238.367246 
L 388.900429 242.777785 
Q 386.902946 244.108223 388.233384 246.105705 
z
" clip-path="url(#p04182ad0df)" style="fill: #ffffff; stroke: #ffffff; stroke-linejoin: miter"/>
    </g>
    <g clip-path="url(#p04182ad0df)">
     <!-- y = (_a_0_ -->
     <g style="fill: #ff0000" transform="translate(391.800762 243.729627)rotate(-303.665886)scale(0.08 -0.08)">
      <defs>
       <path id="DejaVuSans-5f" d="M 3263 -1063 
L 3263 -1509 
L -63 -1509 
L -63 -1063 
L 3263 -1063 
z
" transform="scale(0.015625)"/>
       <path id="DejaVuSans-61" d="M 2194 1759 
Q 1497 1759 1228 1600 
Q 959 1441 959 1056 
Q 959 750 1161 570 
Q 1363 391 1709 391 
Q 2188 391 2477 730 
Q 2766 1069 2766 1631 
L 2766 1759 
L 2194 1759 
z
M 3341 1997 
L 3341 0 
L 2766 0 
L 2766 531 
Q 2569 213 2275 61 
Q 1981 -91 1556 -91 
Q 1019 -91 701 211 
Q 384 513 384 1019 
Q 384 1609 779 1909 
Q 1175 2209 1959 2209 
L 2766 2209 
L 2766 2266 
Q 2766 2663 2505 2880 
Q 2244 3097 1772 3097 
Q 1472 3097 1187 3025 
Q 903 2953 641 2809 
L 641 3341 
Q 956 3463 1253 3523 
Q 1550 3584 1831 3584 
Q 2591 3584 2966 3190 
Q 3341 2797 3341 1997 
z
" transform="scale(0.015625)"/>
      </defs>
      <use xlink:href="#DejaVuSans-79"/>
      <use xlink:href="#DejaVuSans-20" x="59.179688"/>
      <use xlink:href="#DejaVuSans-3d" x="90.966797"/>
      <use xlink:href="#DejaVuSans-20" x="174.755859"/>
      <use xlink:href="#DejaVuSans-28" x="206.542969"/>
      <use xlink:href="#DejaVuSans-5f" x="245.556641"/>
      <use xlink:href="#DejaVuSans-61" x="295.556641"/>
      <use xlink:href="#DejaVuSans-5f" x="356.835938"/>
      <use xlink:href="#DejaVuSans-30" x="406.835938"/>
      <use xlink:href="#DejaVuSans-5f" x="470.458984"/>
     </g>
    </g>
   </g>
   <g id="text_7">
    <g id="patch_8">
     <path d="M 402.037009 311.067795 
L 416.217795 296.943151 
Q 417.918214 295.249464 416.224527 293.549045 
L 410.760622 288.063423 
Q 409.066935 286.363004 407.366516 288.056691 
L 393.185731 302.181334 
Q 391.485312 303.875021 393.178999 305.57544 
L 398.642903 311.061062 
Q 400.33659 312.761481 402.037009 311.067795 
z
" clip-path="url(#p04182ad0df)" style="fill: #ffffff; stroke: #ffffff; stroke-linejoin: miter"/>
    </g>
    <g clip-path="url(#p04182ad0df)">
     <!-- t = 0 -->
     <g style="fill: #ff0000" transform="translate(399.169209 308.188596)rotate(-44.886357)scale(0.08 -0.08)">
      <use xlink:href="#DejaVuSans-74"/>
      <use xlink:href="#DejaVuSans-20" x="39.208984"/>
      <use xlink:href="#DejaVuSans-3d" x="70.996094"/>
      <use xlink:href="#DejaVuSans-20" x="154.785156"/>
      <use xlink:href="#DejaVuSans-30" x="186.572266"/>
     </g>
    </g>
   </g>
   <g id="text_8">
    <g id="patch_9">
     <path d="M 341.241135 297.253737 
L 377.574052 316.803764 
Q 379.687519 317.940979 380.824734 315.827512 
L 384.493437 309.00938 
Q 385.630652 306.895913 383.517185 305.758698 
L 347.184268 286.208671 
Q 345.070801 285.071456 343.933586 287.184923 
L 340.264883 294.003055 
Q 339.127668 296.116522 341.241135 297.253737 
z
" clip-path="url(#p04182ad0df)" style="fill: #ffffff; stroke: #ffffff; stroke-linejoin: miter"/>
    </g>
    <g clip-path="url(#p04182ad0df)">
     <!-- x = (x + 1 -->
     <g style="fill: #ff0000" transform="translate(343.1667 293.675153)rotate(-331.71618)scale(0.08 -0.08)">
      <defs>
       <path id="DejaVuSans-2b" d="M 2944 4013 
L 2944 2272 
L 4684 2272 
L 4684 1741 
L 2944 1741 
L 2944 0 
L 2419 0 
L 2419 1741 
L 678 1741 
L 678 2272 
L 2419 2272 
L 2419 4013 
L 2944 4013 
z
" transform="scale(0.015625)"/>
       <path id="DejaVuSans-31" d="M 794 531 
L 1825 531 
L 1825 4091 
L 703 3866 
L 703 4441 
L 1819 4666 
L 2450 4666 
L 2450 531 
L 3481 531 
L 3481 0 
L 794 0 
L 794 531 
z
" transform="scale(0.015625)"/>
      </defs>
      <use xlink:href="#DejaVuSans-78"/>
      <use xlink:href="#DejaVuSans-20" x="59.179688"/>
      <use xlink:href="#DejaVuSans-3d" x="90.966797"/>
      <use xlink:href="#DejaVuSans-20" x="174.755859"/>
      <use xlink:href="#DejaVuSans-28" x="206.542969"/>
      <use xlink:href="#DejaVuSans-78" x="245.556641"/>
      <use xlink:href="#DejaVuSans-20" x="304.736328"/>
      <use xlink:href="#DejaVuSans-2b" x="336.523438"/>
      <use xlink:href="#DejaVuSans-20" x="420.3125"/>
      <use xlink:href="#DejaVuSans-31" x="452.099609"/>
     </g>
    </g>
   </g>
   <g id="text_9">
    <g id="patch_10">
     <path d="M 299.01411 152.264529 
L 319.960312 187.868875 
Q 321.177267 189.937454 323.245847 188.7205 
L 329.91917 184.794552 
Q 331.98775 183.577597 330.770795 181.509018 
L 309.824592 145.904672 
Q 308.607637 143.836093 306.539058 145.053048 
L 299.865735 148.978995 
Q 297.797155 150.19595 299.01411 152.264529 
z
" clip-path="url(#p04182ad0df)" style="fill: #ffffff; stroke: #ffffff; stroke-linejoin: miter"/>
    </g>
    <g clip-path="url(#p04182ad0df)">
     <!-- Not (t ==  -->
     <g style="fill: #ff0000" transform="translate(302.516689 150.203946)rotate(-300.468497)scale(0.08 -0.08)">
      <defs>
       <path id="DejaVuSans-4e" d="M 628 4666 
L 1478 4666 
L 3547 763 
L 3547 4666 
L 4159 4666 
L 4159 0 
L 3309 0 
L 1241 3903 
L 1241 0 
L 628 0 
L 628 4666 
z
" transform="scale(0.015625)"/>
       <path id="DejaVuSans-6f" d="M 1959 3097 
Q 1497 3097 1228 2736 
Q 959 2375 959 1747 
Q 959 1119 1226 758 
Q 1494 397 1959 397 
Q 2419 397 2687 759 
Q 2956 1122 2956 1747 
Q 2956 2369 2687 2733 
Q 2419 3097 1959 3097 
z
M 1959 3584 
Q 2709 3584 3137 3096 
Q 3566 2609 3566 1747 
Q 3566 888 3137 398 
Q 2709 -91 1959 -91 
Q 1206 -91 779 398 
Q 353 888 353 1747 
Q 353 2609 779 3096 
Q 1206 3584 1959 3584 
z
" transform="scale(0.015625)"/>
      </defs>
      <use xlink:href="#DejaVuSans-4e"/>
      <use xlink:href="#DejaVuSans-6f" x="74.804688"/>
      <use xlink:href="#DejaVuSans-74" x="135.986328"/>
      <use xlink:href="#DejaVuSans-20" x="175.195312"/>
      <use xlink:href="#DejaVuSans-28" x="206.982422"/>
      <use xlink:href="#DejaVuSans-74" x="245.996094"/>
      <use xlink:href="#DejaVuSans-20" x="285.205078"/>
      <use xlink:href="#DejaVuSans-3d" x="316.992188"/>
      <use xlink:href="#DejaVuSans-3d" x="400.78125"/>
      <use xlink:href="#DejaVuSans-20" x="484.570312"/>
     </g>
    </g>
   </g>
   <g id="text_10">
    <g id="patch_11">
     <path d="M 302.769195 143.09431 
L 333.214424 121.301301 
Q 335.165976 119.90436 333.769035 117.952807 
L 329.262444 111.657019 
Q 327.865503 109.705467 325.913951 111.102408 
L 295.468722 132.895417 
Q 293.51717 134.292358 294.914111 136.243911 
L 299.420702 142.539699 
Q 300.817643 144.491251 302.769195 143.09431 
z
" clip-path="url(#p04182ad0df)" style="fill: #ffffff; stroke: #ffffff; stroke-linejoin: miter"/>
    </g>
    <g clip-path="url(#p04182ad0df)">
     <!-- y = (y - 3 -->
     <g style="fill: #ff0000" transform="translate(300.403853 139.789885)rotate(-35.595478)scale(0.08 -0.08)">
      <defs>
       <path id="DejaVuSans-2d" d="M 313 2009 
L 1997 2009 
L 1997 1497 
L 313 1497 
L 313 2009 
z
" transform="scale(0.015625)"/>
       <path id="DejaVuSans-33" d="M 2597 2516 
Q 3050 2419 3304 2112 
Q 3559 1806 3559 1356 
Q 3559 666 3084 287 
Q 2609 -91 1734 -91 
Q 1441 -91 1130 -33 
Q 819 25 488 141 
L 488 750 
Q 750 597 1062 519 
Q 1375 441 1716 441 
Q 2309 441 2620 675 
Q 2931 909 2931 1356 
Q 2931 1769 2642 2001 
Q 2353 2234 1838 2234 
L 1294 2234 
L 1294 2753 
L 1863 2753 
Q 2328 2753 2575 2939 
Q 2822 3125 2822 3475 
Q 2822 3834 2567 4026 
Q 2313 4219 1838 4219 
Q 1578 4219 1281 4162 
Q 984 4106 628 3988 
L 628 4550 
Q 988 4650 1302 4700 
Q 1616 4750 1894 4750 
Q 2613 4750 3031 4423 
Q 3450 4097 3450 3541 
Q 3450 3153 3228 2886 
Q 3006 2619 2597 2516 
z
" transform="scale(0.015625)"/>
      </defs>
      <use xlink:href="#DejaVuSans-79"/>
      <use xlink:href="#DejaVuSans-20" x="59.179688"/>
      <use xlink:href="#DejaVuSans-3d" x="90.966797"/>
      <use xlink:href="#DejaVuSans-20" x="174.755859"/>
      <use xlink:href="#DejaVuSans-28" x="206.542969"/>
      <use xlink:href="#DejaVuSans-79" x="245.556641"/>
      <use xlink:href="#DejaVuSans-20" x="304.736328"/>
      <use xlink:href="#DejaVuSans-2d" x="336.523438"/>
      <use xlink:href="#DejaVuSans-20" x="372.607422"/>
      <use xlink:href="#DejaVuSans-33" x="404.394531"/>
     </g>
    </g>
   </g>
   <g id="text_11">
    <g id="patch_12">
     <path d="M 330.582586 161.318596 
L 335.672094 123.599163 
Q 335.993019 121.220716 333.614573 120.899791 
L 325.941606 119.864473 
Q 323.56316 119.543547 323.242234 121.921994 
L 318.152727 159.641427 
Q 317.831801 162.019873 320.210248 162.340799 
L 327.883215 163.376117 
Q 330.261661 163.697043 330.582586 161.318596 
z
" clip-path="url(#p04182ad0df)" style="fill: #ffffff; stroke: #ffffff; stroke-linejoin: miter"/>
    </g>
    <g clip-path="url(#p04182ad0df)">
     <!-- t = (t + 1 -->
     <g style="fill: #ff0000" transform="translate(326.555332 160.775196)rotate(-82.315455)scale(0.08 -0.08)">
      <use xlink:href="#DejaVuSans-74"/>
      <use xlink:href="#DejaVuSans-20" x="39.208984"/>
      <use xlink:href="#DejaVuSans-3d" x="70.996094"/>
      <use xlink:href="#DejaVuSans-20" x="154.785156"/>
      <use xlink:href="#DejaVuSans-28" x="186.572266"/>
      <use xlink:href="#DejaVuSans-74" x="225.585938"/>
      <use xlink:href="#DejaVuSans-20" x="264.794922"/>
      <use xlink:href="#DejaVuSans-2b" x="296.582031"/>
      <use xlink:href="#DejaVuSans-20" x="380.371094"/>
      <use xlink:href="#DejaVuSans-31" x="412.158203"/>
     </g>
    </g>
   </g>
   <g id="text_12">
    <g id="patch_13">
     <path d="M 171.272499 254.169138 
L 207.495332 226.708923 
Q 209.407878 225.259038 207.957993 223.346491 
L 203.280604 217.176537 
Q 201.83072 215.26399 199.918173 216.713875 
L 163.69534 244.17409 
Q 161.782794 245.623975 163.232679 247.536522 
L 167.910068 253.706476 
Q 169.359953 255.619023 171.272499 254.169138 
z
" clip-path="url(#p04182ad0df)" style="fill: #ffffff; stroke: #ffffff; stroke-linejoin: miter"/>
    </g>
    <g clip-path="url(#p04182ad0df)">
     <!-- Not(y &gt;= 0 -->
     <g style="fill: #ff0000" transform="translate(168.817512 250.930758)rotate(-37.16545)scale(0.08 -0.08)">
      <use xlink:href="#DejaVuSans-4e"/>
      <use xlink:href="#DejaVuSans-6f" x="74.804688"/>
      <use xlink:href="#DejaVuSans-74" x="135.986328"/>
      <use xlink:href="#DejaVuSans-28" x="175.195312"/>
      <use xlink:href="#DejaVuSans-79" x="214.208984"/>
      <use xlink:href="#DejaVuSans-20" x="273.388672"/>
      <use xlink:href="#DejaVuSans-3e" x="305.175781"/>
      <use xlink:href="#DejaVuSans-3d" x="388.964844"/>
      <use xlink:href="#DejaVuSans-20" x="472.753906"/>
      <use xlink:href="#DejaVuSans-30" x="504.541016"/>
     </g>
    </g>
   </g>
   <g id="PathCollection_1">
    <defs>
     <path id="mbc5c6b6236" d="M 0 11.18034 
C 2.965061 11.18034 5.80908 10.002309 7.905694 7.905694 
C 10.002309 5.80908 11.18034 2.965061 11.18034 0 
C 11.18034 -2.965061 10.002309 -5.80908 7.905694 -7.905694 
C 5.80908 -10.002309 2.965061 -11.18034 0 -11.18034 
C -2.965061 -11.18034 -5.80908 -10.002309 -7.905694 -7.905694 
C -10.002309 -5.80908 -11.18034 -2.965061 -11.18034 0 
C -11.18034 2.965061 -10.002309 5.80908 -7.905694 7.905694 
C -5.80908 10.002309 -2.965061 11.18034 0 11.18034 
z
" style="stroke: #ffc0cb; stroke-opacity: 0.9; stroke-width: 2"/>
    </defs>
    <g clip-path="url(#p04182ad0df)">
     <use xlink:href="#mbc5c6b6236" x="39.986777" y="29.990083" style="fill: #ffc0cb; fill-opacity: 0.9; stroke: #ffc0cb; stroke-opacity: 0.9; stroke-width: 2"/>
     <use xlink:href="#mbc5c6b6236" x="76.40802" y="59.9549" style="fill: #ffc0cb; fill-opacity: 0.9; stroke: #ffc0cb; stroke-opacity: 0.9; stroke-width: 2"/>
     <use xlink:href="#mbc5c6b6236" x="124.961772" y="100.587319" style="fill: #ffc0cb; fill-opacity: 0.9; stroke: #ffc0cb; stroke-opacity: 0.9; stroke-width: 2"/>
     <use xlink:href="#mbc5c6b6236" x="180.793394" y="149.660908" style="fill: #ffc0cb; fill-opacity: 0.9; stroke: #ffc0cb; stroke-opacity: 0.9; stroke-width: 2"/>
     <use xlink:href="#mbc5c6b6236" x="214.813878" y="213.291184" style="fill: #ffc0cb; fill-opacity: 0.9; stroke: #ffc0cb; stroke-opacity: 0.9; stroke-width: 2"/>
     <use xlink:href="#mbc5c6b6236" x="267.412515" y="202.337228" style="fill: #ffc0cb; fill-opacity: 0.9; stroke: #ffc0cb; stroke-opacity: 0.9; stroke-width: 2"/>
     <use xlink:href="#mbc5c6b6236" x="331.527067" y="195.162285" style="fill: #ffc0cb; fill-opacity: 0.9; stroke: #ffc0cb; stroke-opacity: 0.9; stroke-width: 2"/>
     <use xlink:href="#mbc5c6b6236" x="389.352077" y="236.279667" style="fill: #ffc0cb; fill-opacity: 0.9; stroke: #ffc0cb; stroke-opacity: 0.9; stroke-width: 2"/>
     <use xlink:href="#mbc5c6b6236" x="420.813223" y="283.514568" style="fill: #ffc0cb; fill-opacity: 0.9; stroke: #ffc0cb; stroke-opacity: 0.9; stroke-width: 2"/>
     <use xlink:href="#mbc5c6b6236" x="388.590302" y="315.609917" style="fill: #ffc0cb; fill-opacity: 0.9; stroke: #ffc0cb; stroke-opacity: 0.9; stroke-width: 2"/>
     <use xlink:href="#mbc5c6b6236" x="336.168017" y="287.402518" style="fill: #ffc0cb; fill-opacity: 0.9; stroke: #ffc0cb; stroke-opacity: 0.9; stroke-width: 2"/>
     <use xlink:href="#mbc5c6b6236" x="298.257838" y="138.611263" style="fill: #ffc0cb; fill-opacity: 0.9; stroke: #ffc0cb; stroke-opacity: 0.9; stroke-width: 2"/>
     <use xlink:href="#mbc5c6b6236" x="330.425308" y="115.585455" style="fill: #ffc0cb; fill-opacity: 0.9; stroke: #ffc0cb; stroke-opacity: 0.9; stroke-width: 2"/>
     <use xlink:href="#mbc5c6b6236" x="323.399512" y="167.655135" style="fill: #ffc0cb; fill-opacity: 0.9; stroke: #ffc0cb; stroke-opacity: 0.9; stroke-width: 2"/>
     <use xlink:href="#mbc5c6b6236" x="291.4959" y="231.702324" style="fill: #ffc0cb; fill-opacity: 0.9; stroke: #ffc0cb; stroke-opacity: 0.9; stroke-width: 2"/>
     <use xlink:href="#mbc5c6b6236" x="156.376794" y="257.591829" style="fill: #ffc0cb; fill-opacity: 0.9; stroke: #ffc0cb; stroke-opacity: 0.9; stroke-width: 2"/>
     <use xlink:href="#mbc5c6b6236" x="112.83855" y="291.916745" style="fill: #ffc0cb; fill-opacity: 0.9; stroke: #ffc0cb; stroke-opacity: 0.9; stroke-width: 2"/>
    </g>
   </g>
   <g id="text_13">
    <g clip-path="url(#p04182ad0df)">
     <!-- 0 -->
     <g style="opacity: 0.9" transform="translate(36.169277 33.301333)scale(0.12 -0.12)">
      <use xlink:href="#DejaVuSans-30"/>
     </g>
    </g>
   </g>
   <g id="text_14">
    <g clip-path="url(#p04182ad0df)">
     <!-- 1 -->
     <g style="opacity: 0.9" transform="translate(72.59052 63.26615)scale(0.12 -0.12)">
      <use xlink:href="#DejaVuSans-31"/>
     </g>
    </g>
   </g>
   <g id="text_15">
    <g clip-path="url(#p04182ad0df)">
     <!-- 2 -->
     <g style="opacity: 0.9" transform="translate(121.144272 103.898569)scale(0.12 -0.12)">
      <defs>
       <path id="DejaVuSans-32" d="M 1228 531 
L 3431 531 
L 3431 0 
L 469 0 
L 469 531 
Q 828 903 1448 1529 
Q 2069 2156 2228 2338 
Q 2531 2678 2651 2914 
Q 2772 3150 2772 3378 
Q 2772 3750 2511 3984 
Q 2250 4219 1831 4219 
Q 1534 4219 1204 4116 
Q 875 4013 500 3803 
L 500 4441 
Q 881 4594 1212 4672 
Q 1544 4750 1819 4750 
Q 2544 4750 2975 4387 
Q 3406 4025 3406 3419 
Q 3406 3131 3298 2873 
Q 3191 2616 2906 2266 
Q 2828 2175 2409 1742 
Q 1991 1309 1228 531 
z
" transform="scale(0.015625)"/>
      </defs>
      <use xlink:href="#DejaVuSans-32"/>
     </g>
    </g>
   </g>
   <g id="text_16">
    <g clip-path="url(#p04182ad0df)">
     <!-- 3 -->
     <g style="opacity: 0.9" transform="translate(176.975894 152.972158)scale(0.12 -0.12)">
      <use xlink:href="#DejaVuSans-33"/>
     </g>
    </g>
   </g>
   <g id="text_17">
    <g clip-path="url(#p04182ad0df)">
     <!-- 4 -->
     <g style="opacity: 0.9" transform="translate(210.996378 216.602434)scale(0.12 -0.12)">
      <defs>
       <path id="DejaVuSans-34" d="M 2419 4116 
L 825 1625 
L 2419 1625 
L 2419 4116 
z
M 2253 4666 
L 3047 4666 
L 3047 1625 
L 3713 1625 
L 3713 1100 
L 3047 1100 
L 3047 0 
L 2419 0 
L 2419 1100 
L 313 1100 
L 313 1709 
L 2253 4666 
z
" transform="scale(0.015625)"/>
      </defs>
      <use xlink:href="#DejaVuSans-34"/>
     </g>
    </g>
   </g>
   <g id="text_18">
    <g clip-path="url(#p04182ad0df)">
     <!-- 5 -->
     <g style="opacity: 0.9" transform="translate(263.595015 205.648478)scale(0.12 -0.12)">
      <defs>
       <path id="DejaVuSans-35" d="M 691 4666 
L 3169 4666 
L 3169 4134 
L 1269 4134 
L 1269 2991 
Q 1406 3038 1543 3061 
Q 1681 3084 1819 3084 
Q 2600 3084 3056 2656 
Q 3513 2228 3513 1497 
Q 3513 744 3044 326 
Q 2575 -91 1722 -91 
Q 1428 -91 1123 -41 
Q 819 9 494 109 
L 494 744 
Q 775 591 1075 516 
Q 1375 441 1709 441 
Q 2250 441 2565 725 
Q 2881 1009 2881 1497 
Q 2881 1984 2565 2268 
Q 2250 2553 1709 2553 
Q 1456 2553 1204 2497 
Q 953 2441 691 2322 
L 691 4666 
z
" transform="scale(0.015625)"/>
      </defs>
      <use xlink:href="#DejaVuSans-35"/>
     </g>
    </g>
   </g>
   <g id="text_19">
    <g clip-path="url(#p04182ad0df)">
     <!-- 6 -->
     <g style="opacity: 0.9" transform="translate(327.709567 198.473535)scale(0.12 -0.12)">
      <defs>
       <path id="DejaVuSans-36" d="M 2113 2584 
Q 1688 2584 1439 2293 
Q 1191 2003 1191 1497 
Q 1191 994 1439 701 
Q 1688 409 2113 409 
Q 2538 409 2786 701 
Q 3034 994 3034 1497 
Q 3034 2003 2786 2293 
Q 2538 2584 2113 2584 
z
M 3366 4563 
L 3366 3988 
Q 3128 4100 2886 4159 
Q 2644 4219 2406 4219 
Q 1781 4219 1451 3797 
Q 1122 3375 1075 2522 
Q 1259 2794 1537 2939 
Q 1816 3084 2150 3084 
Q 2853 3084 3261 2657 
Q 3669 2231 3669 1497 
Q 3669 778 3244 343 
Q 2819 -91 2113 -91 
Q 1303 -91 875 529 
Q 447 1150 447 2328 
Q 447 3434 972 4092 
Q 1497 4750 2381 4750 
Q 2619 4750 2861 4703 
Q 3103 4656 3366 4563 
z
" transform="scale(0.015625)"/>
      </defs>
      <use xlink:href="#DejaVuSans-36"/>
     </g>
    </g>
   </g>
   <g id="text_20">
    <g clip-path="url(#p04182ad0df)">
     <!-- 7 -->
     <g style="opacity: 0.9" transform="translate(385.534577 239.590917)scale(0.12 -0.12)">
      <defs>
       <path id="DejaVuSans-37" d="M 525 4666 
L 3525 4666 
L 3525 4397 
L 1831 0 
L 1172 0 
L 2766 4134 
L 525 4134 
L 525 4666 
z
" transform="scale(0.015625)"/>
      </defs>
      <use xlink:href="#DejaVuSans-37"/>
     </g>
    </g>
   </g>
   <g id="text_21">
    <g clip-path="url(#p04182ad0df)">
     <!-- 8 -->
     <g style="opacity: 0.9" transform="translate(416.995723 286.825818)scale(0.12 -0.12)">
      <defs>
       <path id="DejaVuSans-38" d="M 2034 2216 
Q 1584 2216 1326 1975 
Q 1069 1734 1069 1313 
Q 1069 891 1326 650 
Q 1584 409 2034 409 
Q 2484 409 2743 651 
Q 3003 894 3003 1313 
Q 3003 1734 2745 1975 
Q 2488 2216 2034 2216 
z
M 1403 2484 
Q 997 2584 770 2862 
Q 544 3141 544 3541 
Q 544 4100 942 4425 
Q 1341 4750 2034 4750 
Q 2731 4750 3128 4425 
Q 3525 4100 3525 3541 
Q 3525 3141 3298 2862 
Q 3072 2584 2669 2484 
Q 3125 2378 3379 2068 
Q 3634 1759 3634 1313 
Q 3634 634 3220 271 
Q 2806 -91 2034 -91 
Q 1263 -91 848 271 
Q 434 634 434 1313 
Q 434 1759 690 2068 
Q 947 2378 1403 2484 
z
M 1172 3481 
Q 1172 3119 1398 2916 
Q 1625 2713 2034 2713 
Q 2441 2713 2670 2916 
Q 2900 3119 2900 3481 
Q 2900 3844 2670 4047 
Q 2441 4250 2034 4250 
Q 1625 4250 1398 4047 
Q 1172 3844 1172 3481 
z
" transform="scale(0.015625)"/>
      </defs>
      <use xlink:href="#DejaVuSans-38"/>
     </g>
    </g>
   </g>
   <g id="text_22">
    <g clip-path="url(#p04182ad0df)">
     <!-- 9 -->
     <g style="opacity: 0.9" transform="translate(384.772802 318.921167)scale(0.12 -0.12)">
      <defs>
       <path id="DejaVuSans-39" d="M 703 97 
L 703 672 
Q 941 559 1184 500 
Q 1428 441 1663 441 
Q 2288 441 2617 861 
Q 2947 1281 2994 2138 
Q 2813 1869 2534 1725 
Q 2256 1581 1919 1581 
Q 1219 1581 811 2004 
Q 403 2428 403 3163 
Q 403 3881 828 4315 
Q 1253 4750 1959 4750 
Q 2769 4750 3195 4129 
Q 3622 3509 3622 2328 
Q 3622 1225 3098 567 
Q 2575 -91 1691 -91 
Q 1453 -91 1209 -44 
Q 966 3 703 97 
z
M 1959 2075 
Q 2384 2075 2632 2365 
Q 2881 2656 2881 3163 
Q 2881 3666 2632 3958 
Q 2384 4250 1959 4250 
Q 1534 4250 1286 3958 
Q 1038 3666 1038 3163 
Q 1038 2656 1286 2365 
Q 1534 2075 1959 2075 
z
" transform="scale(0.015625)"/>
      </defs>
      <use xlink:href="#DejaVuSans-39"/>
     </g>
    </g>
   </g>
   <g id="text_23">
    <g clip-path="url(#p04182ad0df)">
     <!-- 10 -->
     <g style="opacity: 0.9" transform="translate(328.533017 290.713768)scale(0.12 -0.12)">
      <use xlink:href="#DejaVuSans-31"/>
      <use xlink:href="#DejaVuSans-30" x="63.623047"/>
     </g>
    </g>
   </g>
   <g id="text_24">
    <g clip-path="url(#p04182ad0df)">
     <!-- 11 -->
     <g style="opacity: 0.9" transform="translate(290.622838 141.922513)scale(0.12 -0.12)">
      <use xlink:href="#DejaVuSans-31"/>
      <use xlink:href="#DejaVuSans-31" x="63.623047"/>
     </g>
    </g>
   </g>
   <g id="text_25">
    <g clip-path="url(#p04182ad0df)">
     <!-- 12 -->
     <g style="opacity: 0.9" transform="translate(322.790308 118.896705)scale(0.12 -0.12)">
      <use xlink:href="#DejaVuSans-31"/>
      <use xlink:href="#DejaVuSans-32" x="63.623047"/>
     </g>
    </g>
   </g>
   <g id="text_26">
    <g clip-path="url(#p04182ad0df)">
     <!-- 13 -->
     <g style="opacity: 0.9" transform="translate(315.764512 170.966385)scale(0.12 -0.12)">
      <use xlink:href="#DejaVuSans-31"/>
      <use xlink:href="#DejaVuSans-33" x="63.623047"/>
     </g>
    </g>
   </g>
   <g id="text_27">
    <g clip-path="url(#p04182ad0df)">
     <!-- 14 -->
     <g style="opacity: 0.9" transform="translate(283.8609 235.013574)scale(0.12 -0.12)">
      <use xlink:href="#DejaVuSans-31"/>
      <use xlink:href="#DejaVuSans-34" x="63.623047"/>
     </g>
    </g>
   </g>
   <g id="text_28">
    <g clip-path="url(#p04182ad0df)">
     <!-- 15 -->
     <g style="opacity: 0.9" transform="translate(148.741794 260.903079)scale(0.12 -0.12)">
      <use xlink:href="#DejaVuSans-31"/>
      <use xlink:href="#DejaVuSans-35" x="63.623047"/>
     </g>
    </g>
   </g>
   <g id="text_29">
    <g clip-path="url(#p04182ad0df)">
     <!-- 16 -->
     <g style="opacity: 0.9" transform="translate(105.20355 295.227995)scale(0.12 -0.12)">
      <use xlink:href="#DejaVuSans-31"/>
      <use xlink:href="#DejaVuSans-36" x="63.623047"/>
     </g>
    </g>
   </g>
   <g id="text_30">
    <g clip-path="url(#p04182ad0df)">
     <!-- n &gt;= 0 -->
     <g transform="translate(281.756047 389.205363)scale(0.08 -0.08)">
      <use xlink:href="#DejaVuSans-6e"/>
      <use xlink:href="#DejaVuSans-20" x="63.378906"/>
      <use xlink:href="#DejaVuSans-3e" x="95.166016"/>
      <use xlink:href="#DejaVuSans-3d" x="178.955078"/>
      <use xlink:href="#DejaVuSans-20" x="262.744141"/>
      <use xlink:href="#DejaVuSans-30" x="294.53125"/>
     </g>
    </g>
   </g>
   <g id="text_31">
    <g clip-path="url(#p04182ad0df)">
     <!-- (((((x * x) * x) + (3 * t)) + y) - n) == 0 -->
     <g transform="translate(257.628351 210.162555)scale(0.08 -0.08)">
      <defs>
       <path id="DejaVuSans-29" d="M 513 4856 
L 1013 4856 
Q 1481 4119 1714 3412 
Q 1947 2706 1947 2009 
Q 1947 1309 1714 600 
Q 1481 -109 1013 -844 
L 513 -844 
Q 928 -128 1133 580 
Q 1338 1288 1338 2009 
Q 1338 2731 1133 3434 
Q 928 4138 513 4856 
z
" transform="scale(0.015625)"/>
      </defs>
      <use xlink:href="#DejaVuSans-28"/>
      <use xlink:href="#DejaVuSans-28" x="39.013672"/>
      <use xlink:href="#DejaVuSans-28" x="78.027344"/>
      <use xlink:href="#DejaVuSans-28" x="117.041016"/>
      <use xlink:href="#DejaVuSans-28" x="156.054688"/>
      <use xlink:href="#DejaVuSans-78" x="195.068359"/>
      <use xlink:href="#DejaVuSans-20" x="254.248047"/>
      <use xlink:href="#DejaVuSans-2a" x="286.035156"/>
      <use xlink:href="#DejaVuSans-20" x="336.035156"/>
      <use xlink:href="#DejaVuSans-78" x="367.822266"/>
      <use xlink:href="#DejaVuSans-29" x="427.001953"/>
      <use xlink:href="#DejaVuSans-20" x="466.015625"/>
      <use xlink:href="#DejaVuSans-2a" x="497.802734"/>
      <use xlink:href="#DejaVuSans-20" x="547.802734"/>
      <use xlink:href="#DejaVuSans-78" x="579.589844"/>
      <use xlink:href="#DejaVuSans-29" x="638.769531"/>
      <use xlink:href="#DejaVuSans-20" x="677.783203"/>
      <use xlink:href="#DejaVuSans-2b" x="709.570312"/>
      <use xlink:href="#DejaVuSans-20" x="793.359375"/>
      <use xlink:href="#DejaVuSans-28" x="825.146484"/>
      <use xlink:href="#DejaVuSans-33" x="864.160156"/>
      <use xlink:href="#DejaVuSans-20" x="927.783203"/>
      <use xlink:href="#DejaVuSans-2a" x="959.570312"/>
      <use xlink:href="#DejaVuSans-20" x="1009.570312"/>
      <use xlink:href="#DejaVuSans-74" x="1041.357422"/>
      <use xlink:href="#DejaVuSans-29" x="1080.566406"/>
      <use xlink:href="#DejaVuSans-29" x="1119.580078"/>
      <use xlink:href="#DejaVuSans-20" x="1158.59375"/>
      <use xlink:href="#DejaVuSans-2b" x="1190.380859"/>
      <use xlink:href="#DejaVuSans-20" x="1274.169922"/>
      <use xlink:href="#DejaVuSans-79" x="1305.957031"/>
      <use xlink:href="#DejaVuSans-29" x="1365.136719"/>
      <use xlink:href="#DejaVuSans-20" x="1404.150391"/>
      <use xlink:href="#DejaVuSans-2d" x="1435.9375"/>
      <use xlink:href="#DejaVuSans-20" x="1472.021484"/>
      <use xlink:href="#DejaVuSans-6e" x="1503.808594"/>
      <use xlink:href="#DejaVuSans-29" x="1567.1875"/>
      <use xlink:href="#DejaVuSans-20" x="1606.201172"/>
      <use xlink:href="#DejaVuSans-3d" x="1637.988281"/>
      <use xlink:href="#DejaVuSans-3d" x="1721.777344"/>
      <use xlink:href="#DejaVuSans-20" x="1805.566406"/>
      <use xlink:href="#DejaVuSans-30" x="1837.353516"/>
     </g>
    </g>
   </g>
   <g id="text_32">
    <g clip-path="url(#p04182ad0df)">
     <!-- If -->
     <g transform="translate(297.710403 139.739984)scale(0.08 -0.08)">
      <defs>
       <path id="DejaVuSans-49" d="M 628 4666 
L 1259 4666 
L 1259 0 
L 628 0 
L 628 4666 
z
" transform="scale(0.015625)"/>
       <path id="DejaVuSans-66" d="M 2375 4863 
L 2375 4384 
L 1825 4384 
Q 1516 4384 1395 4259 
Q 1275 4134 1275 3809 
L 1275 3500 
L 2222 3500 
L 2222 3053 
L 1275 3053 
L 1275 0 
L 697 0 
L 697 3053 
L 147 3053 
L 147 3500 
L 697 3500 
L 697 3744 
Q 697 4328 969 4595 
Q 1241 4863 1831 4863 
L 2375 4863 
z
" transform="scale(0.015625)"/>
      </defs>
      <use xlink:href="#DejaVuSans-49"/>
      <use xlink:href="#DejaVuSans-66" x="29.492188"/>
     </g>
    </g>
   </g>
   <g id="text_33">
    <g clip-path="url(#p04182ad0df)">
     <!-- 1 &gt;= 0 -->
     <g transform="translate(236.872997 140.743231)scale(0.08 -0.08)">
      <use xlink:href="#DejaVuSans-31"/>
      <use xlink:href="#DejaVuSans-20" x="63.623047"/>
      <use xlink:href="#DejaVuSans-3e" x="95.410156"/>
      <use xlink:href="#DejaVuSans-3d" x="179.199219"/>
      <use xlink:href="#DejaVuSans-20" x="262.988281"/>
      <use xlink:href="#DejaVuSans-30" x="294.775391"/>
     </g>
    </g>
   </g>
  </g>
 </g>
 <defs>
  <clipPath id="p04182ad0df">
   <rect x="0" y="0" width="460.8" height="345.6"/>
  </clipPath>
 </defs>
</svg>
