<?xml version="1.0" encoding="utf-8" standalone="no"?>
<!DOCTYPE svg PUBLIC "-//W3C//DTD SVG 1.1//EN"
  "http://www.w3.org/Graphics/SVG/1.1/DTD/svg11.dtd">
<svg xmlns:xlink="http://www.w3.org/1999/xlink" width="460.8pt" height="345.6pt" viewBox="0 0 460.8 345.6" xmlns="http://www.w3.org/2000/svg" version="1.1">
 <metadata>
  <rdf:RDF xmlns:dc="http://purl.org/dc/elements/1.1/" xmlns:cc="http://creativecommons.org/ns#" xmlns:rdf="http://www.w3.org/1999/02/22-rdf-syntax-ns#">
   <cc:Work>
    <dc:type rdf:resource="http://purl.org/dc/dcmitype/StillImage"/>
    <dc:date>2022-12-30T17:46:52.151073</dc:date>
    <dc:format>image/svg+xml</dc:format>
    <dc:creator>
     <cc:Agent>
      <dc:title>Matplotlib v3.5.1, https://matplotlib.org/</dc:title>
     </cc:Agent>
    </dc:creator>
   </cc:Work>
  </rdf:RDF>
 </metadata>
 <defs>
  <style type="text/css">*{stroke-linejoin: round; stroke-linecap: butt}</style>
 </defs>
 <g id="figure_1">
  <g id="patch_1">
   <path d="M 0 345.6 
L 460.8 345.6 
L 460.8 0 
L 0 0 
z
" style="fill: #ffffff"/>
  </g>
  <g id="axes_1">
   <g id="LineCollection_1">
    <path d="M 39.986777 29.990083 
L 65.109835 56.80945 
" clip-path="url(#p28b40ea107)" style="fill: none; stroke: #000000; stroke-opacity: 0.9"/>
    <path d="M 65.109835 56.80945 
L 100.22416 90.742104 
" clip-path="url(#p28b40ea107)" style="fill: none; stroke: #000000; stroke-opacity: 0.9"/>
    <path d="M 100.22416 90.742104 
L 149.156685 130.560807 
" clip-path="url(#p28b40ea107)" style="fill: none; stroke: #000000; stroke-opacity: 0.9"/>
    <path d="M 149.156685 130.560807 
L 183.486518 171.903817 
" clip-path="url(#p28b40ea107)" style="fill: none; stroke: #000000; stroke-opacity: 0.9"/>
    <path d="M 183.486518 171.903817 
L 221.850312 210.060138 
" clip-path="url(#p28b40ea107)" style="fill: none; stroke: #000000; stroke-opacity: 0.9"/>
    <path d="M 221.850312 210.060138 
L 263.426323 243.537233 
" clip-path="url(#p28b40ea107)" style="fill: none; stroke: #000000; stroke-opacity: 0.9"/>
    <path d="M 263.426323 243.537233 
L 349.56433 215.228628 
" clip-path="url(#p28b40ea107)" style="fill: none; stroke: #000000; stroke-opacity: 0.9"/>
    <path d="M 263.426323 243.537233 
L 163.336027 245.75554 
" clip-path="url(#p28b40ea107)" style="fill: none; stroke: #000000; stroke-opacity: 0.9"/>
    <path d="M 263.426323 243.537233 
L 283.054937 284.759142 
" clip-path="url(#p28b40ea107)" style="fill: none; stroke: #000000; stroke-opacity: 0.9"/>
    <path d="M 349.56433 215.228628 
L 393.628088 176.245867 
" clip-path="url(#p28b40ea107)" style="fill: none; stroke: #000000; stroke-opacity: 0.9"/>
    <path d="M 393.628088 176.245867 
L 420.813223 143.49092 
" clip-path="url(#p28b40ea107)" style="fill: none; stroke: #000000; stroke-opacity: 0.9"/>
    <path d="M 393.628088 176.245867 
L 344.92163 153.65493 
" clip-path="url(#p28b40ea107)" style="fill: none; stroke: #000000; stroke-opacity: 0.9"/>
    <path d="M 420.813223 143.49092 
L 355.658912 125.082468 
" clip-path="url(#p28b40ea107)" style="fill: none; stroke: #000000; stroke-opacity: 0.9"/>
    <path d="M 355.658912 125.082468 
L 268.211204 139.90405 
" clip-path="url(#p28b40ea107)" style="fill: none; stroke: #000000; stroke-opacity: 0.9"/>
    <path d="M 344.92163 153.65493 
L 268.211204 139.90405 
" clip-path="url(#p28b40ea107)" style="fill: none; stroke: #000000; stroke-opacity: 0.9"/>
    <path d="M 268.211204 139.90405 
L 155.553465 158.038166 
" clip-path="url(#p28b40ea107)" style="fill: none; stroke: #000000; stroke-opacity: 0.9"/>
    <path d="M 155.553465 158.038166 
L 85.893316 189.388294 
" clip-path="url(#p28b40ea107)" style="fill: none; stroke: #000000; stroke-opacity: 0.9"/>
    <path d="M 85.893316 189.388294 
L 90.006034 224.897659 
" clip-path="url(#p28b40ea107)" style="fill: none; stroke: #000000; stroke-opacity: 0.9"/>
    <path d="M 90.006034 224.897659 
L 163.336027 245.75554 
" clip-path="url(#p28b40ea107)" style="fill: none; stroke: #000000; stroke-opacity: 0.9"/>
    <path d="M 283.054937 284.759142 
L 293.238406 315.609917 
" clip-path="url(#p28b40ea107)" style="fill: none; stroke: #000000; stroke-opacity: 0.9"/>
   </g>
   <g id="text_1">
    <g id="patch_2">
     <path d="M 40.468853 39.677897 
L 55.474116 55.696316 
Q 57.114876 57.44786 58.86642 55.8071 
L 64.516974 50.51394 
Q 66.268518 48.87318 64.627758 47.121636 
L 49.622496 31.103217 
Q 47.981736 29.351673 46.230192 30.992433 
L 40.579637 36.285593 
Q 38.828093 37.926353 40.468853 39.677897 
z
" clip-path="url(#p28b40ea107)" style="fill: #ffffff; stroke: #ffffff; stroke-linejoin: miter"/>
    </g>
    <g clip-path="url(#p28b40ea107)">
     <!-- n = 0 -->
     <g style="fill: #ff0000" transform="translate(43.434619 36.899715)rotate(-313.129527)scale(0.08 -0.08)">
      <defs>
       <path id="DejaVuSans-6e" d="M 3513 2113 
L 3513 0 
L 2938 0 
L 2938 2094 
Q 2938 2591 2744 2837 
Q 2550 3084 2163 3084 
Q 1697 3084 1428 2787 
Q 1159 2491 1159 1978 
L 1159 0 
L 581 0 
L 581 3500 
L 1159 3500 
L 1159 2956 
Q 1366 3272 1645 3428 
Q 1925 3584 2291 3584 
Q 2894 3584 3203 3211 
Q 3513 2838 3513 2113 
z
" transform="scale(0.015625)"/>
       <path id="DejaVuSans-20" transform="scale(0.015625)"/>
       <path id="DejaVuSans-3d" d="M 678 2906 
L 4684 2906 
L 4684 2381 
L 678 2381 
L 678 2906 
z
M 678 1631 
L 4684 1631 
L 4684 1100 
L 678 1100 
L 678 1631 
z
" transform="scale(0.015625)"/>
       <path id="DejaVuSans-30" d="M 2034 4250 
Q 1547 4250 1301 3770 
Q 1056 3291 1056 2328 
Q 1056 1369 1301 889 
Q 1547 409 2034 409 
Q 2525 409 2770 889 
Q 3016 1369 3016 2328 
Q 3016 3291 2770 3770 
Q 2525 4250 2034 4250 
z
M 2034 4750 
Q 2819 4750 3233 4129 
Q 3647 3509 3647 2328 
Q 3647 1150 3233 529 
Q 2819 -91 2034 -91 
Q 1250 -91 836 529 
Q 422 1150 422 2328 
Q 422 3509 836 4129 
Q 1250 4750 2034 4750 
z
" transform="scale(0.015625)"/>
      </defs>
      <use xlink:href="#DejaVuSans-6e"/>
      <use xlink:href="#DejaVuSans-20" x="63.378906"/>
      <use xlink:href="#DejaVuSans-3d" x="95.166016"/>
      <use xlink:href="#DejaVuSans-20" x="178.955078"/>
      <use xlink:href="#DejaVuSans-30" x="210.742188"/>
     </g>
    </g>
   </g>
   <g id="text_2">
    <g id="patch_3">
     <path d="M 70.537828 70.775715 
L 86.080339 85.795187 
Q 87.806186 87.462956 89.473954 85.737109 
L 94.854245 80.169455 
Q 96.522014 78.443608 94.796167 76.775839 
L 79.253656 61.756367 
Q 77.527809 60.088598 75.86004 61.814445 
L 70.479749 67.3821 
Q 68.811981 69.107947 70.537828 70.775715 
z
" clip-path="url(#p28b40ea107)" style="fill: #ffffff; stroke: #ffffff; stroke-linejoin: miter"/>
    </g>
    <g clip-path="url(#p28b40ea107)">
     <!-- x = 0 -->
     <g style="fill: #ff0000" transform="translate(73.361742 67.853461)rotate(-315.980466)scale(0.08 -0.08)">
      <defs>
       <path id="DejaVuSans-78" d="M 3513 3500 
L 2247 1797 
L 3578 0 
L 2900 0 
L 1881 1375 
L 863 0 
L 184 0 
L 1544 1831 
L 300 3500 
L 978 3500 
L 1906 2253 
L 2834 3500 
L 3513 3500 
z
" transform="scale(0.015625)"/>
      </defs>
      <use xlink:href="#DejaVuSans-78"/>
      <use xlink:href="#DejaVuSans-20" x="59.179688"/>
      <use xlink:href="#DejaVuSans-3d" x="90.966797"/>
      <use xlink:href="#DejaVuSans-20" x="174.755859"/>
      <use xlink:href="#DejaVuSans-30" x="206.542969"/>
     </g>
    </g>
   </g>
   <g id="text_3">
    <g id="patch_4">
     <path d="M 112.349917 108.694659 
L 129.114414 122.336721 
Q 130.975951 123.851541 132.490771 121.990004 
L 137.377644 115.984609 
Q 138.892465 114.123072 137.030928 112.608252 
L 120.266431 98.96619 
Q 118.404894 97.45137 116.890074 99.312907 
L 112.003201 105.318302 
Q 110.48838 107.179839 112.349917 108.694659 
z
" clip-path="url(#p28b40ea107)" style="fill: #ffffff; stroke: #ffffff; stroke-linejoin: miter"/>
    </g>
    <g clip-path="url(#p28b40ea107)">
     <!-- y = 1 -->
     <g style="fill: #ff0000" transform="translate(114.914855 105.542651)rotate(-320.863125)scale(0.08 -0.08)">
      <defs>
       <path id="DejaVuSans-79" d="M 2059 -325 
Q 1816 -950 1584 -1140 
Q 1353 -1331 966 -1331 
L 506 -1331 
L 506 -850 
L 844 -850 
Q 1081 -850 1212 -737 
Q 1344 -625 1503 -206 
L 1606 56 
L 191 3500 
L 800 3500 
L 1894 763 
L 2988 3500 
L 3597 3500 
L 2059 -325 
z
" transform="scale(0.015625)"/>
       <path id="DejaVuSans-31" d="M 794 531 
L 1825 531 
L 1825 4091 
L 703 3866 
L 703 4441 
L 1819 4666 
L 2450 4666 
L 2450 531 
L 3481 531 
L 3481 0 
L 794 0 
L 794 531 
z
" transform="scale(0.015625)"/>
      </defs>
      <use xlink:href="#DejaVuSans-79"/>
      <use xlink:href="#DejaVuSans-20" x="59.179688"/>
      <use xlink:href="#DejaVuSans-3d" x="90.966797"/>
      <use xlink:href="#DejaVuSans-20" x="174.755859"/>
      <use xlink:href="#DejaVuSans-31" x="206.542969"/>
     </g>
    </g>
   </g>
   <g id="text_4">
    <g id="patch_5">
     <path d="M 154.764326 147.130702 
L 168.229395 163.346525 
Q 169.762602 165.192948 171.609025 163.659741 
L 177.565661 158.713552 
Q 179.412084 157.180345 177.878877 155.333922 
L 164.413808 139.118099 
Q 162.880601 137.271677 161.034178 138.804883 
L 155.077542 143.751072 
Q 153.231119 145.284279 154.764326 147.130702 
z
" clip-path="url(#p28b40ea107)" style="fill: #ffffff; stroke: #ffffff; stroke-linejoin: miter"/>
    </g>
    <g clip-path="url(#p28b40ea107)">
     <!-- z = 6 -->
     <g style="fill: #ff0000" transform="translate(157.890743 144.534632)rotate(-309.70509)scale(0.08 -0.08)">
      <defs>
       <path id="DejaVuSans-7a" d="M 353 3500 
L 3084 3500 
L 3084 2975 
L 922 459 
L 3084 459 
L 3084 0 
L 275 0 
L 275 525 
L 2438 3041 
L 353 3041 
L 353 3500 
z
" transform="scale(0.015625)"/>
       <path id="DejaVuSans-36" d="M 2113 2584 
Q 1688 2584 1439 2293 
Q 1191 2003 1191 1497 
Q 1191 994 1439 701 
Q 1688 409 2113 409 
Q 2538 409 2786 701 
Q 3034 994 3034 1497 
Q 3034 2003 2786 2293 
Q 2538 2584 2113 2584 
z
M 3366 4563 
L 3366 3988 
Q 3128 4100 2886 4159 
Q 2644 4219 2406 4219 
Q 1781 4219 1451 3797 
Q 1122 3375 1075 2522 
Q 1259 2794 1537 2939 
Q 1816 3084 2150 3084 
Q 2853 3084 3261 2657 
Q 3669 2231 3669 1497 
Q 3669 778 3244 343 
Q 2819 -91 2113 -91 
Q 1303 -91 875 529 
Q 447 1150 447 2328 
Q 447 3434 972 4092 
Q 1497 4750 2381 4750 
Q 2619 4750 2861 4703 
Q 3103 4656 3366 4563 
z
" transform="scale(0.015625)"/>
      </defs>
      <use xlink:href="#DejaVuSans-7a"/>
      <use xlink:href="#DejaVuSans-20" x="52.490234"/>
      <use xlink:href="#DejaVuSans-3d" x="84.277344"/>
      <use xlink:href="#DejaVuSans-20" x="168.066406"/>
      <use xlink:href="#DejaVuSans-36" x="199.853516"/>
     </g>
    </g>
   </g>
   <g id="text_5">
    <g id="patch_6">
     <path d="M 190.784891 188.007657 
L 205.707132 202.849198 
Q 207.408784 204.541647 209.101232 202.839996 
L 214.561142 197.350398 
Q 216.253591 195.648746 214.55194 193.956297 
L 199.629698 179.114756 
Q 197.928047 177.422308 196.235598 179.123959 
L 190.775688 184.613557 
Q 189.083239 186.315209 190.784891 188.007657 
z
" clip-path="url(#p28b40ea107)" style="fill: #ffffff; stroke: #ffffff; stroke-linejoin: miter"/>
    </g>
    <g clip-path="url(#p28b40ea107)">
     <!-- s = 0 -->
     <g style="fill: #ff0000" transform="translate(193.650594 185.126372)rotate(-315.15535)scale(0.08 -0.08)">
      <defs>
       <path id="DejaVuSans-73" d="M 2834 3397 
L 2834 2853 
Q 2591 2978 2328 3040 
Q 2066 3103 1784 3103 
Q 1356 3103 1142 2972 
Q 928 2841 928 2578 
Q 928 2378 1081 2264 
Q 1234 2150 1697 2047 
L 1894 2003 
Q 2506 1872 2764 1633 
Q 3022 1394 3022 966 
Q 3022 478 2636 193 
Q 2250 -91 1575 -91 
Q 1294 -91 989 -36 
Q 684 19 347 128 
L 347 722 
Q 666 556 975 473 
Q 1284 391 1588 391 
Q 1994 391 2212 530 
Q 2431 669 2431 922 
Q 2431 1156 2273 1281 
Q 2116 1406 1581 1522 
L 1381 1569 
Q 847 1681 609 1914 
Q 372 2147 372 2553 
Q 372 3047 722 3315 
Q 1072 3584 1716 3584 
Q 2034 3584 2315 3537 
Q 2597 3491 2834 3397 
z
" transform="scale(0.015625)"/>
      </defs>
      <use xlink:href="#DejaVuSans-73"/>
      <use xlink:href="#DejaVuSans-20" x="52.099609"/>
      <use xlink:href="#DejaVuSans-3d" x="83.886719"/>
      <use xlink:href="#DejaVuSans-20" x="167.675781"/>
      <use xlink:href="#DejaVuSans-30" x="199.462891"/>
     </g>
    </g>
   </g>
   <g id="text_6">
    <g id="patch_7">
     <path d="M 294.418064 239.953266 
L 322.488535 230.728118 
Q 324.768564 229.978804 324.01925 227.698775 
L 321.601931 220.343309 
Q 320.852617 218.063281 318.572589 218.812595 
L 290.502117 228.037744 
Q 288.222089 228.787058 288.971403 231.067086 
L 291.388721 238.422552 
Q 292.138035 240.70258 294.418064 239.953266 
z
" clip-path="url(#p28b40ea107)" style="fill: #ffffff; stroke: #ffffff; stroke-linejoin: miter"/>
    </g>
    <g clip-path="url(#p28b40ea107)">
     <!-- n &lt;= N -->
     <g style="fill: #ff0000" transform="translate(293.149303 236.092656)rotate(-18.192718)scale(0.08 -0.08)">
      <defs>
       <path id="DejaVuSans-3c" d="M 4684 3150 
L 1459 2003 
L 4684 863 
L 4684 294 
L 678 1747 
L 678 2266 
L 4684 3719 
L 4684 3150 
z
" transform="scale(0.015625)"/>
       <path id="DejaVuSans-4e" d="M 628 4666 
L 1478 4666 
L 3547 763 
L 3547 4666 
L 4159 4666 
L 4159 0 
L 3309 0 
L 1241 3903 
L 1241 0 
L 628 0 
L 628 4666 
z
" transform="scale(0.015625)"/>
      </defs>
      <use xlink:href="#DejaVuSans-6e"/>
      <use xlink:href="#DejaVuSans-20" x="63.378906"/>
      <use xlink:href="#DejaVuSans-3c" x="95.166016"/>
      <use xlink:href="#DejaVuSans-3d" x="178.955078"/>
      <use xlink:href="#DejaVuSans-20" x="262.744141"/>
      <use xlink:href="#DejaVuSans-4e" x="294.53125"/>
     </g>
    </g>
   </g>
   <g id="text_7">
    <g id="patch_8">
     <path d="M 398.927723 179.679976 
L 425.165019 148.067065 
Q 426.697777 146.220269 424.850981 144.687512 
L 418.893141 139.742772 
Q 417.046345 138.210015 415.513588 140.056811 
L 389.276292 171.669721 
Q 387.743535 173.516517 389.59033 175.049274 
L 395.54817 179.994014 
Q 397.394966 181.526771 398.927723 179.679976 
z
" clip-path="url(#p28b40ea107)" style="fill: #ffffff; stroke: #ffffff; stroke-linejoin: miter"/>
    </g>
    <g clip-path="url(#p28b40ea107)">
     <!-- x == ((n * -->
     <g style="fill: #ff0000" transform="translate(395.800675 177.084666)rotate(-50.308851)scale(0.08 -0.08)">
      <defs>
       <path id="DejaVuSans-28" d="M 1984 4856 
Q 1566 4138 1362 3434 
Q 1159 2731 1159 2009 
Q 1159 1288 1364 580 
Q 1569 -128 1984 -844 
L 1484 -844 
Q 1016 -109 783 600 
Q 550 1309 550 2009 
Q 550 2706 781 3412 
Q 1013 4119 1484 4856 
L 1984 4856 
z
" transform="scale(0.015625)"/>
       <path id="DejaVuSans-2a" d="M 3009 3897 
L 1888 3291 
L 3009 2681 
L 2828 2375 
L 1778 3009 
L 1778 1831 
L 1422 1831 
L 1422 3009 
L 372 2375 
L 191 2681 
L 1313 3291 
L 191 3897 
L 372 4206 
L 1422 3572 
L 1422 4750 
L 1778 4750 
L 1778 3572 
L 2828 4206 
L 3009 3897 
z
" transform="scale(0.015625)"/>
      </defs>
      <use xlink:href="#DejaVuSans-78"/>
      <use xlink:href="#DejaVuSans-20" x="59.179688"/>
      <use xlink:href="#DejaVuSans-3d" x="90.966797"/>
      <use xlink:href="#DejaVuSans-3d" x="174.755859"/>
      <use xlink:href="#DejaVuSans-20" x="258.544922"/>
      <use xlink:href="#DejaVuSans-28" x="290.332031"/>
      <use xlink:href="#DejaVuSans-28" x="329.345703"/>
      <use xlink:href="#DejaVuSans-6e" x="368.359375"/>
      <use xlink:href="#DejaVuSans-20" x="431.738281"/>
      <use xlink:href="#DejaVuSans-2a" x="463.525391"/>
     </g>
    </g>
   </g>
   <g id="text_8">
    <g id="patch_9">
     <path d="M 367.395678 134.915281 
L 405.666246 145.728102 
Q 407.975833 146.380643 408.628374 144.071057 
L 410.733501 136.620235 
Q 411.386043 134.310649 409.076457 133.658107 
L 370.805888 122.845286 
Q 368.496302 122.192745 367.84376 124.502331 
L 365.738634 131.953153 
Q 365.086092 134.262739 367.395678 134.915281 
z
" clip-path="url(#p28b40ea107)" style="fill: #ffffff; stroke: #ffffff; stroke-linejoin: miter"/>
    </g>
    <g clip-path="url(#p28b40ea107)">
     <!-- s = (s + x -->
     <g style="fill: #ff0000" transform="translate(368.500581 131.004622)rotate(-344.223094)scale(0.08 -0.08)">
      <defs>
       <path id="DejaVuSans-2b" d="M 2944 4013 
L 2944 2272 
L 4684 2272 
L 4684 1741 
L 2944 1741 
L 2944 0 
L 2419 0 
L 2419 1741 
L 678 1741 
L 678 2272 
L 2419 2272 
L 2419 4013 
L 2944 4013 
z
" transform="scale(0.015625)"/>
      </defs>
      <use xlink:href="#DejaVuSans-73"/>
      <use xlink:href="#DejaVuSans-20" x="52.099609"/>
      <use xlink:href="#DejaVuSans-3d" x="83.886719"/>
      <use xlink:href="#DejaVuSans-20" x="167.675781"/>
      <use xlink:href="#DejaVuSans-28" x="199.462891"/>
      <use xlink:href="#DejaVuSans-73" x="238.476562"/>
      <use xlink:href="#DejaVuSans-20" x="290.576172"/>
      <use xlink:href="#DejaVuSans-2b" x="322.363281"/>
      <use xlink:href="#DejaVuSans-20" x="406.152344"/>
      <use xlink:href="#DejaVuSans-78" x="437.939453"/>
     </g>
    </g>
   </g>
   <g id="text_9">
    <g id="patch_10">
     <path d="M 347.173935 161.612565 
L 386.098372 179.666423 
Q 388.275582 180.676253 389.285412 178.499042 
L 392.543164 171.475272 
Q 393.552993 169.298061 391.375783 168.288232 
L 352.451346 150.234374 
Q 350.274136 149.224544 349.264307 151.401754 
L 346.006555 158.425525 
Q 344.996725 160.602735 347.173935 161.612565 
z
" clip-path="url(#p28b40ea107)" style="fill: #ffffff; stroke: #ffffff; stroke-linejoin: miter"/>
    </g>
    <g clip-path="url(#p28b40ea107)">
     <!-- Not (x ==  -->
     <g style="fill: #ff0000" transform="translate(348.883808 157.926049)rotate(-335.117276)scale(0.08 -0.08)">
      <defs>
       <path id="DejaVuSans-6f" d="M 1959 3097 
Q 1497 3097 1228 2736 
Q 959 2375 959 1747 
Q 959 1119 1226 758 
Q 1494 397 1959 397 
Q 2419 397 2687 759 
Q 2956 1122 2956 1747 
Q 2956 2369 2687 2733 
Q 2419 3097 1959 3097 
z
M 1959 3584 
Q 2709 3584 3137 3096 
Q 3566 2609 3566 1747 
Q 3566 888 3137 398 
Q 2709 -91 1959 -91 
Q 1206 -91 779 398 
Q 353 888 353 1747 
Q 353 2609 779 3096 
Q 1206 3584 1959 3584 
z
" transform="scale(0.015625)"/>
       <path id="DejaVuSans-74" d="M 1172 4494 
L 1172 3500 
L 2356 3500 
L 2356 3053 
L 1172 3053 
L 1172 1153 
Q 1172 725 1289 603 
Q 1406 481 1766 481 
L 2356 481 
L 2356 0 
L 1766 0 
Q 1100 0 847 248 
Q 594 497 594 1153 
L 594 3053 
L 172 3053 
L 172 3500 
L 594 3500 
L 594 4494 
L 1172 4494 
z
" transform="scale(0.015625)"/>
      </defs>
      <use xlink:href="#DejaVuSans-4e"/>
      <use xlink:href="#DejaVuSans-6f" x="74.804688"/>
      <use xlink:href="#DejaVuSans-74" x="135.986328"/>
      <use xlink:href="#DejaVuSans-20" x="175.195312"/>
      <use xlink:href="#DejaVuSans-28" x="206.982422"/>
      <use xlink:href="#DejaVuSans-78" x="245.996094"/>
      <use xlink:href="#DejaVuSans-20" x="305.175781"/>
      <use xlink:href="#DejaVuSans-3d" x="336.962891"/>
      <use xlink:href="#DejaVuSans-3d" x="420.751953"/>
      <use xlink:href="#DejaVuSans-20" x="504.541016"/>
     </g>
    </g>
   </g>
   <g id="text_10">
    <g id="patch_11">
     <path d="M 192.181021 158.494333 
L 233.576912 151.830984 
Q 235.946411 151.449574 235.565002 149.080075 
L 234.334557 141.435972 
Q 233.953148 139.066472 231.583648 139.447882 
L 190.187757 146.111232 
Q 187.818257 146.492642 188.199667 148.862141 
L 189.430111 156.506244 
Q 189.811521 158.875743 192.181021 158.494333 
z
" clip-path="url(#p28b40ea107)" style="fill: #ffffff; stroke: #ffffff; stroke-linejoin: miter"/>
    </g>
    <g clip-path="url(#p28b40ea107)">
     <!-- n = (n + 1 -->
     <g style="fill: #ff0000" transform="translate(191.535206 154.482228)rotate(-9.14426)scale(0.08 -0.08)">
      <use xlink:href="#DejaVuSans-6e"/>
      <use xlink:href="#DejaVuSans-20" x="63.378906"/>
      <use xlink:href="#DejaVuSans-3d" x="95.166016"/>
      <use xlink:href="#DejaVuSans-20" x="178.955078"/>
      <use xlink:href="#DejaVuSans-28" x="210.742188"/>
      <use xlink:href="#DejaVuSans-6e" x="249.755859"/>
      <use xlink:href="#DejaVuSans-20" x="313.134766"/>
      <use xlink:href="#DejaVuSans-2b" x="344.921875"/>
      <use xlink:href="#DejaVuSans-20" x="428.710938"/>
      <use xlink:href="#DejaVuSans-31" x="460.498047"/>
     </g>
    </g>
   </g>
   <g id="text_11">
    <g id="patch_12">
     <path d="M 104.356207 188.073457 
L 142.325714 170.98551 
Q 144.51429 170.000555 143.529334 167.811979 
L 140.264105 160.556623 
Q 139.27915 158.368047 137.090574 159.353003 
L 99.121067 176.44095 
Q 96.932492 177.425905 97.917447 179.614481 
L 101.182676 186.869837 
Q 102.167631 189.058412 104.356207 188.073457 
z
" clip-path="url(#p28b40ea107)" style="fill: #ffffff; stroke: #ffffff; stroke-linejoin: miter"/>
    </g>
    <g clip-path="url(#p28b40ea107)">
     <!-- x = (_a_0_ -->
     <g style="fill: #ff0000" transform="translate(102.597138 184.164798)rotate(-24.229839)scale(0.08 -0.08)">
      <defs>
       <path id="DejaVuSans-5f" d="M 3263 -1063 
L 3263 -1509 
L -63 -1509 
L -63 -1063 
L 3263 -1063 
z
" transform="scale(0.015625)"/>
       <path id="DejaVuSans-61" d="M 2194 1759 
Q 1497 1759 1228 1600 
Q 959 1441 959 1056 
Q 959 750 1161 570 
Q 1363 391 1709 391 
Q 2188 391 2477 730 
Q 2766 1069 2766 1631 
L 2766 1759 
L 2194 1759 
z
M 3341 1997 
L 3341 0 
L 2766 0 
L 2766 531 
Q 2569 213 2275 61 
Q 1981 -91 1556 -91 
Q 1019 -91 701 211 
Q 384 513 384 1019 
Q 384 1609 779 1909 
Q 1175 2209 1959 2209 
L 2766 2209 
L 2766 2266 
Q 2766 2663 2505 2880 
Q 2244 3097 1772 3097 
Q 1472 3097 1187 3025 
Q 903 2953 641 2809 
L 641 3341 
Q 956 3463 1253 3523 
Q 1550 3584 1831 3584 
Q 2591 3584 2966 3190 
Q 3341 2797 3341 1997 
z
" transform="scale(0.015625)"/>
      </defs>
      <use xlink:href="#DejaVuSans-78"/>
      <use xlink:href="#DejaVuSans-20" x="59.179688"/>
      <use xlink:href="#DejaVuSans-3d" x="90.966797"/>
      <use xlink:href="#DejaVuSans-20" x="174.755859"/>
      <use xlink:href="#DejaVuSans-28" x="206.542969"/>
      <use xlink:href="#DejaVuSans-5f" x="245.556641"/>
      <use xlink:href="#DejaVuSans-61" x="295.556641"/>
      <use xlink:href="#DejaVuSans-5f" x="356.835938"/>
      <use xlink:href="#DejaVuSans-30" x="406.835938"/>
      <use xlink:href="#DejaVuSans-5f" x="470.458984"/>
     </g>
    </g>
   </g>
   <g id="text_12">
    <g id="patch_13">
     <path d="M 79.218674 187.196286 
L 84.009133 228.557293 
Q 84.285257 230.941356 86.66932 230.665232 
L 94.572736 229.749854 
Q 96.956799 229.47373 96.680676 227.089667 
L 91.890217 185.72866 
Q 91.614093 183.344597 89.23003 183.620721 
L 81.326614 184.5361 
Q 78.942551 184.812223 79.218674 187.196286 
z
" clip-path="url(#p28b40ea107)" style="fill: #ffffff; stroke: #ffffff; stroke-linejoin: miter"/>
    </g>
    <g clip-path="url(#p28b40ea107)">
     <!-- y = (_a_6_ -->
     <g style="fill: #ff0000" transform="translate(83.476462 186.703147)rotate(-276.606598)scale(0.08 -0.08)">
      <use xlink:href="#DejaVuSans-79"/>
      <use xlink:href="#DejaVuSans-20" x="59.179688"/>
      <use xlink:href="#DejaVuSans-3d" x="90.966797"/>
      <use xlink:href="#DejaVuSans-20" x="174.755859"/>
      <use xlink:href="#DejaVuSans-28" x="206.542969"/>
      <use xlink:href="#DejaVuSans-5f" x="245.556641"/>
      <use xlink:href="#DejaVuSans-61" x="295.556641"/>
      <use xlink:href="#DejaVuSans-5f" x="356.835938"/>
      <use xlink:href="#DejaVuSans-36" x="406.835938"/>
      <use xlink:href="#DejaVuSans-5f" x="470.458984"/>
     </g>
    </g>
   </g>
   <g id="text_13">
    <g id="patch_14">
     <path d="M 104.635289 235.689903 
L 145.216833 247.232861 
Q 147.525267 247.889469 148.181875 245.581035 
L 150.358598 237.928337 
Q 151.015205 235.619903 148.706771 234.963295 
L 108.125227 223.420338 
Q 105.816794 222.76373 105.160186 225.072164 
L 102.983463 232.724862 
Q 102.326856 235.033296 104.635289 235.689903 
z
" clip-path="url(#p28b40ea107)" style="fill: #ffffff; stroke: #ffffff; stroke-linejoin: miter"/>
    </g>
    <g clip-path="url(#p28b40ea107)">
     <!-- z = (_a_12 -->
     <g style="fill: #ff0000" transform="translate(105.80795 231.567185)rotate(-344.122202)scale(0.08 -0.08)">
      <defs>
       <path id="DejaVuSans-32" d="M 1228 531 
L 3431 531 
L 3431 0 
L 469 0 
L 469 531 
Q 828 903 1448 1529 
Q 2069 2156 2228 2338 
Q 2531 2678 2651 2914 
Q 2772 3150 2772 3378 
Q 2772 3750 2511 3984 
Q 2250 4219 1831 4219 
Q 1534 4219 1204 4116 
Q 875 4013 500 3803 
L 500 4441 
Q 881 4594 1212 4672 
Q 1544 4750 1819 4750 
Q 2544 4750 2975 4387 
Q 3406 4025 3406 3419 
Q 3406 3131 3298 2873 
Q 3191 2616 2906 2266 
Q 2828 2175 2409 1742 
Q 1991 1309 1228 531 
z
" transform="scale(0.015625)"/>
      </defs>
      <use xlink:href="#DejaVuSans-7a"/>
      <use xlink:href="#DejaVuSans-20" x="52.490234"/>
      <use xlink:href="#DejaVuSans-3d" x="84.277344"/>
      <use xlink:href="#DejaVuSans-20" x="168.066406"/>
      <use xlink:href="#DejaVuSans-28" x="199.853516"/>
      <use xlink:href="#DejaVuSans-5f" x="238.867188"/>
      <use xlink:href="#DejaVuSans-61" x="288.867188"/>
      <use xlink:href="#DejaVuSans-5f" x="350.146484"/>
      <use xlink:href="#DejaVuSans-31" x="400.146484"/>
      <use xlink:href="#DejaVuSans-32" x="463.769531"/>
     </g>
    </g>
   </g>
   <g id="text_14">
    <g id="patch_15">
     <path d="M 257.543156 245.769118 
L 277.613883 287.919505 
Q 278.645687 290.086388 280.812569 289.054585 
L 287.803024 285.725944 
Q 289.969907 284.69414 288.938104 282.527257 
L 268.867377 240.37687 
Q 267.835573 238.209987 265.66869 239.241791 
L 258.678236 242.570432 
Q 256.511353 243.602235 257.543156 245.769118 
z
" clip-path="url(#p28b40ea107)" style="fill: #ffffff; stroke: #ffffff; stroke-linejoin: miter"/>
    </g>
    <g clip-path="url(#p28b40ea107)">
     <!-- Not(n &lt;= N -->
     <g style="fill: #ff0000" transform="translate(261.212186 244.022038)rotate(-295.462363)scale(0.08 -0.08)">
      <use xlink:href="#DejaVuSans-4e"/>
      <use xlink:href="#DejaVuSans-6f" x="74.804688"/>
      <use xlink:href="#DejaVuSans-74" x="135.986328"/>
      <use xlink:href="#DejaVuSans-28" x="175.195312"/>
      <use xlink:href="#DejaVuSans-6e" x="214.208984"/>
      <use xlink:href="#DejaVuSans-20" x="277.587891"/>
      <use xlink:href="#DejaVuSans-3c" x="309.375"/>
      <use xlink:href="#DejaVuSans-3d" x="393.164062"/>
      <use xlink:href="#DejaVuSans-20" x="476.953125"/>
      <use xlink:href="#DejaVuSans-4e" x="508.740234"/>
     </g>
    </g>
   </g>
   <g id="PathCollection_1">
    <defs>
     <path id="m5f54a11918" d="M 0 11.18034 
C 2.965061 11.18034 5.80908 10.002309 7.905694 7.905694 
C 10.002309 5.80908 11.18034 2.965061 11.18034 0 
C 11.18034 -2.965061 10.002309 -5.80908 7.905694 -7.905694 
C 5.80908 -10.002309 2.965061 -11.18034 0 -11.18034 
C -2.965061 -11.18034 -5.80908 -10.002309 -7.905694 -7.905694 
C -10.002309 -5.80908 -11.18034 -2.965061 -11.18034 0 
C -11.18034 2.965061 -10.002309 5.80908 -7.905694 7.905694 
C -5.80908 10.002309 -2.965061 11.18034 0 11.18034 
z
" style="stroke: #ffc0cb; stroke-opacity: 0.9; stroke-width: 2"/>
    </defs>
    <g clip-path="url(#p28b40ea107)">
     <use xlink:href="#m5f54a11918" x="39.986777" y="29.990083" style="fill: #ffc0cb; fill-opacity: 0.9; stroke: #ffc0cb; stroke-opacity: 0.9; stroke-width: 2"/>
     <use xlink:href="#m5f54a11918" x="65.109835" y="56.80945" style="fill: #ffc0cb; fill-opacity: 0.9; stroke: #ffc0cb; stroke-opacity: 0.9; stroke-width: 2"/>
     <use xlink:href="#m5f54a11918" x="100.22416" y="90.742104" style="fill: #ffc0cb; fill-opacity: 0.9; stroke: #ffc0cb; stroke-opacity: 0.9; stroke-width: 2"/>
     <use xlink:href="#m5f54a11918" x="149.156685" y="130.560807" style="fill: #ffc0cb; fill-opacity: 0.9; stroke: #ffc0cb; stroke-opacity: 0.9; stroke-width: 2"/>
     <use xlink:href="#m5f54a11918" x="183.486518" y="171.903817" style="fill: #ffc0cb; fill-opacity: 0.9; stroke: #ffc0cb; stroke-opacity: 0.9; stroke-width: 2"/>
     <use xlink:href="#m5f54a11918" x="221.850312" y="210.060138" style="fill: #ffc0cb; fill-opacity: 0.9; stroke: #ffc0cb; stroke-opacity: 0.9; stroke-width: 2"/>
     <use xlink:href="#m5f54a11918" x="263.426323" y="243.537233" style="fill: #ffc0cb; fill-opacity: 0.9; stroke: #ffc0cb; stroke-opacity: 0.9; stroke-width: 2"/>
     <use xlink:href="#m5f54a11918" x="349.56433" y="215.228628" style="fill: #ffc0cb; fill-opacity: 0.9; stroke: #ffc0cb; stroke-opacity: 0.9; stroke-width: 2"/>
     <use xlink:href="#m5f54a11918" x="393.628088" y="176.245867" style="fill: #ffc0cb; fill-opacity: 0.9; stroke: #ffc0cb; stroke-opacity: 0.9; stroke-width: 2"/>
     <use xlink:href="#m5f54a11918" x="420.813223" y="143.49092" style="fill: #ffc0cb; fill-opacity: 0.9; stroke: #ffc0cb; stroke-opacity: 0.9; stroke-width: 2"/>
     <use xlink:href="#m5f54a11918" x="355.658912" y="125.082468" style="fill: #ffc0cb; fill-opacity: 0.9; stroke: #ffc0cb; stroke-opacity: 0.9; stroke-width: 2"/>
     <use xlink:href="#m5f54a11918" x="344.92163" y="153.65493" style="fill: #ffc0cb; fill-opacity: 0.9; stroke: #ffc0cb; stroke-opacity: 0.9; stroke-width: 2"/>
     <use xlink:href="#m5f54a11918" x="268.211204" y="139.90405" style="fill: #ffc0cb; fill-opacity: 0.9; stroke: #ffc0cb; stroke-opacity: 0.9; stroke-width: 2"/>
     <use xlink:href="#m5f54a11918" x="155.553465" y="158.038166" style="fill: #ffc0cb; fill-opacity: 0.9; stroke: #ffc0cb; stroke-opacity: 0.9; stroke-width: 2"/>
     <use xlink:href="#m5f54a11918" x="85.893316" y="189.388294" style="fill: #ffc0cb; fill-opacity: 0.9; stroke: #ffc0cb; stroke-opacity: 0.9; stroke-width: 2"/>
     <use xlink:href="#m5f54a11918" x="90.006034" y="224.897659" style="fill: #ffc0cb; fill-opacity: 0.9; stroke: #ffc0cb; stroke-opacity: 0.9; stroke-width: 2"/>
     <use xlink:href="#m5f54a11918" x="163.336027" y="245.75554" style="fill: #ffc0cb; fill-opacity: 0.9; stroke: #ffc0cb; stroke-opacity: 0.9; stroke-width: 2"/>
     <use xlink:href="#m5f54a11918" x="283.054937" y="284.759142" style="fill: #ffc0cb; fill-opacity: 0.9; stroke: #ffc0cb; stroke-opacity: 0.9; stroke-width: 2"/>
     <use xlink:href="#m5f54a11918" x="293.238406" y="315.609917" style="fill: #ffc0cb; fill-opacity: 0.9; stroke: #ffc0cb; stroke-opacity: 0.9; stroke-width: 2"/>
    </g>
   </g>
   <g id="text_15">
    <g clip-path="url(#p28b40ea107)">
     <!-- 0 -->
     <g style="opacity: 0.9" transform="translate(36.169277 33.301333)scale(0.12 -0.12)">
      <use xlink:href="#DejaVuSans-30"/>
     </g>
    </g>
   </g>
   <g id="text_16">
    <g clip-path="url(#p28b40ea107)">
     <!-- 1 -->
     <g style="opacity: 0.9" transform="translate(61.292335 60.1207)scale(0.12 -0.12)">
      <use xlink:href="#DejaVuSans-31"/>
     </g>
    </g>
   </g>
   <g id="text_17">
    <g clip-path="url(#p28b40ea107)">
     <!-- 2 -->
     <g style="opacity: 0.9" transform="translate(96.40666 94.053354)scale(0.12 -0.12)">
      <use xlink:href="#DejaVuSans-32"/>
     </g>
    </g>
   </g>
   <g id="text_18">
    <g clip-path="url(#p28b40ea107)">
     <!-- 3 -->
     <g style="opacity: 0.9" transform="translate(145.339185 133.872057)scale(0.12 -0.12)">
      <defs>
       <path id="DejaVuSans-33" d="M 2597 2516 
Q 3050 2419 3304 2112 
Q 3559 1806 3559 1356 
Q 3559 666 3084 287 
Q 2609 -91 1734 -91 
Q 1441 -91 1130 -33 
Q 819 25 488 141 
L 488 750 
Q 750 597 1062 519 
Q 1375 441 1716 441 
Q 2309 441 2620 675 
Q 2931 909 2931 1356 
Q 2931 1769 2642 2001 
Q 2353 2234 1838 2234 
L 1294 2234 
L 1294 2753 
L 1863 2753 
Q 2328 2753 2575 2939 
Q 2822 3125 2822 3475 
Q 2822 3834 2567 4026 
Q 2313 4219 1838 4219 
Q 1578 4219 1281 4162 
Q 984 4106 628 3988 
L 628 4550 
Q 988 4650 1302 4700 
Q 1616 4750 1894 4750 
Q 2613 4750 3031 4423 
Q 3450 4097 3450 3541 
Q 3450 3153 3228 2886 
Q 3006 2619 2597 2516 
z
" transform="scale(0.015625)"/>
      </defs>
      <use xlink:href="#DejaVuSans-33"/>
     </g>
    </g>
   </g>
   <g id="text_19">
    <g clip-path="url(#p28b40ea107)">
     <!-- 4 -->
     <g style="opacity: 0.9" transform="translate(179.669018 175.215067)scale(0.12 -0.12)">
      <defs>
       <path id="DejaVuSans-34" d="M 2419 4116 
L 825 1625 
L 2419 1625 
L 2419 4116 
z
M 2253 4666 
L 3047 4666 
L 3047 1625 
L 3713 1625 
L 3713 1100 
L 3047 1100 
L 3047 0 
L 2419 0 
L 2419 1100 
L 313 1100 
L 313 1709 
L 2253 4666 
z
" transform="scale(0.015625)"/>
      </defs>
      <use xlink:href="#DejaVuSans-34"/>
     </g>
    </g>
   </g>
   <g id="text_20">
    <g clip-path="url(#p28b40ea107)">
     <!-- 5 -->
     <g style="opacity: 0.9" transform="translate(218.032812 213.371388)scale(0.12 -0.12)">
      <defs>
       <path id="DejaVuSans-35" d="M 691 4666 
L 3169 4666 
L 3169 4134 
L 1269 4134 
L 1269 2991 
Q 1406 3038 1543 3061 
Q 1681 3084 1819 3084 
Q 2600 3084 3056 2656 
Q 3513 2228 3513 1497 
Q 3513 744 3044 326 
Q 2575 -91 1722 -91 
Q 1428 -91 1123 -41 
Q 819 9 494 109 
L 494 744 
Q 775 591 1075 516 
Q 1375 441 1709 441 
Q 2250 441 2565 725 
Q 2881 1009 2881 1497 
Q 2881 1984 2565 2268 
Q 2250 2553 1709 2553 
Q 1456 2553 1204 2497 
Q 953 2441 691 2322 
L 691 4666 
z
" transform="scale(0.015625)"/>
      </defs>
      <use xlink:href="#DejaVuSans-35"/>
     </g>
    </g>
   </g>
   <g id="text_21">
    <g clip-path="url(#p28b40ea107)">
     <!-- 6 -->
     <g style="opacity: 0.9" transform="translate(259.608823 246.848483)scale(0.12 -0.12)">
      <use xlink:href="#DejaVuSans-36"/>
     </g>
    </g>
   </g>
   <g id="text_22">
    <g clip-path="url(#p28b40ea107)">
     <!-- 7 -->
     <g style="opacity: 0.9" transform="translate(345.74683 218.539878)scale(0.12 -0.12)">
      <defs>
       <path id="DejaVuSans-37" d="M 525 4666 
L 3525 4666 
L 3525 4397 
L 1831 0 
L 1172 0 
L 2766 4134 
L 525 4134 
L 525 4666 
z
" transform="scale(0.015625)"/>
      </defs>
      <use xlink:href="#DejaVuSans-37"/>
     </g>
    </g>
   </g>
   <g id="text_23">
    <g clip-path="url(#p28b40ea107)">
     <!-- 8 -->
     <g style="opacity: 0.9" transform="translate(389.810588 179.557117)scale(0.12 -0.12)">
      <defs>
       <path id="DejaVuSans-38" d="M 2034 2216 
Q 1584 2216 1326 1975 
Q 1069 1734 1069 1313 
Q 1069 891 1326 650 
Q 1584 409 2034 409 
Q 2484 409 2743 651 
Q 3003 894 3003 1313 
Q 3003 1734 2745 1975 
Q 2488 2216 2034 2216 
z
M 1403 2484 
Q 997 2584 770 2862 
Q 544 3141 544 3541 
Q 544 4100 942 4425 
Q 1341 4750 2034 4750 
Q 2731 4750 3128 4425 
Q 3525 4100 3525 3541 
Q 3525 3141 3298 2862 
Q 3072 2584 2669 2484 
Q 3125 2378 3379 2068 
Q 3634 1759 3634 1313 
Q 3634 634 3220 271 
Q 2806 -91 2034 -91 
Q 1263 -91 848 271 
Q 434 634 434 1313 
Q 434 1759 690 2068 
Q 947 2378 1403 2484 
z
M 1172 3481 
Q 1172 3119 1398 2916 
Q 1625 2713 2034 2713 
Q 2441 2713 2670 2916 
Q 2900 3119 2900 3481 
Q 2900 3844 2670 4047 
Q 2441 4250 2034 4250 
Q 1625 4250 1398 4047 
Q 1172 3844 1172 3481 
z
" transform="scale(0.015625)"/>
      </defs>
      <use xlink:href="#DejaVuSans-38"/>
     </g>
    </g>
   </g>
   <g id="text_24">
    <g clip-path="url(#p28b40ea107)">
     <!-- 9 -->
     <g style="opacity: 0.9" transform="translate(416.995723 146.80217)scale(0.12 -0.12)">
      <defs>
       <path id="DejaVuSans-39" d="M 703 97 
L 703 672 
Q 941 559 1184 500 
Q 1428 441 1663 441 
Q 2288 441 2617 861 
Q 2947 1281 2994 2138 
Q 2813 1869 2534 1725 
Q 2256 1581 1919 1581 
Q 1219 1581 811 2004 
Q 403 2428 403 3163 
Q 403 3881 828 4315 
Q 1253 4750 1959 4750 
Q 2769 4750 3195 4129 
Q 3622 3509 3622 2328 
Q 3622 1225 3098 567 
Q 2575 -91 1691 -91 
Q 1453 -91 1209 -44 
Q 966 3 703 97 
z
M 1959 2075 
Q 2384 2075 2632 2365 
Q 2881 2656 2881 3163 
Q 2881 3666 2632 3958 
Q 2384 4250 1959 4250 
Q 1534 4250 1286 3958 
Q 1038 3666 1038 3163 
Q 1038 2656 1286 2365 
Q 1534 2075 1959 2075 
z
" transform="scale(0.015625)"/>
      </defs>
      <use xlink:href="#DejaVuSans-39"/>
     </g>
    </g>
   </g>
   <g id="text_25">
    <g clip-path="url(#p28b40ea107)">
     <!-- 10 -->
     <g style="opacity: 0.9" transform="translate(348.023912 128.393718)scale(0.12 -0.12)">
      <use xlink:href="#DejaVuSans-31"/>
      <use xlink:href="#DejaVuSans-30" x="63.623047"/>
     </g>
    </g>
   </g>
   <g id="text_26">
    <g clip-path="url(#p28b40ea107)">
     <!-- 11 -->
     <g style="opacity: 0.9" transform="translate(337.28663 156.96618)scale(0.12 -0.12)">
      <use xlink:href="#DejaVuSans-31"/>
      <use xlink:href="#DejaVuSans-31" x="63.623047"/>
     </g>
    </g>
   </g>
   <g id="text_27">
    <g clip-path="url(#p28b40ea107)">
     <!-- 12 -->
     <g style="opacity: 0.9" transform="translate(260.576204 143.2153)scale(0.12 -0.12)">
      <use xlink:href="#DejaVuSans-31"/>
      <use xlink:href="#DejaVuSans-32" x="63.623047"/>
     </g>
    </g>
   </g>
   <g id="text_28">
    <g clip-path="url(#p28b40ea107)">
     <!-- 13 -->
     <g style="opacity: 0.9" transform="translate(147.918465 161.349416)scale(0.12 -0.12)">
      <use xlink:href="#DejaVuSans-31"/>
      <use xlink:href="#DejaVuSans-33" x="63.623047"/>
     </g>
    </g>
   </g>
   <g id="text_29">
    <g clip-path="url(#p28b40ea107)">
     <!-- 14 -->
     <g style="opacity: 0.9" transform="translate(78.258316 192.699544)scale(0.12 -0.12)">
      <use xlink:href="#DejaVuSans-31"/>
      <use xlink:href="#DejaVuSans-34" x="63.623047"/>
     </g>
    </g>
   </g>
   <g id="text_30">
    <g clip-path="url(#p28b40ea107)">
     <!-- 15 -->
     <g style="opacity: 0.9" transform="translate(82.371034 228.208909)scale(0.12 -0.12)">
      <use xlink:href="#DejaVuSans-31"/>
      <use xlink:href="#DejaVuSans-35" x="63.623047"/>
     </g>
    </g>
   </g>
   <g id="text_31">
    <g clip-path="url(#p28b40ea107)">
     <!-- 16 -->
     <g style="opacity: 0.9" transform="translate(155.701027 249.06679)scale(0.12 -0.12)">
      <use xlink:href="#DejaVuSans-31"/>
      <use xlink:href="#DejaVuSans-36" x="63.623047"/>
     </g>
    </g>
   </g>
   <g id="text_32">
    <g clip-path="url(#p28b40ea107)">
     <!-- 17 -->
     <g style="opacity: 0.9" transform="translate(275.419937 288.070392)scale(0.12 -0.12)">
      <use xlink:href="#DejaVuSans-31"/>
      <use xlink:href="#DejaVuSans-37" x="63.623047"/>
     </g>
    </g>
   </g>
   <g id="text_33">
    <g clip-path="url(#p28b40ea107)">
     <!-- 18 -->
     <g style="opacity: 0.9" transform="translate(285.603406 318.921167)scale(0.12 -0.12)">
      <use xlink:href="#DejaVuSans-31"/>
      <use xlink:href="#DejaVuSans-38" x="63.623047"/>
     </g>
    </g>
   </g>
   <g id="text_34">
    <g clip-path="url(#p28b40ea107)">
     <!-- 1 &gt;= 0 -->
     <g transform="translate(234.446554 320.181545)scale(0.08 -0.08)">
      <defs>
       <path id="DejaVuSans-3e" d="M 678 3150 
L 678 3719 
L 4684 2266 
L 4684 1747 
L 678 294 
L 678 863 
L 3897 2003 
L 678 3150 
z
" transform="scale(0.015625)"/>
      </defs>
      <use xlink:href="#DejaVuSans-31"/>
      <use xlink:href="#DejaVuSans-20" x="63.623047"/>
      <use xlink:href="#DejaVuSans-3e" x="95.410156"/>
      <use xlink:href="#DejaVuSans-3d" x="179.199219"/>
      <use xlink:href="#DejaVuSans-20" x="262.988281"/>
      <use xlink:href="#DejaVuSans-30" x="294.775391"/>
     </g>
    </g>
   </g>
   <g id="text_35">
    <g clip-path="url(#p28b40ea107)">
     <!-- (((((z &gt;= ((6 * n) + 6) and z &lt;= ((6 * n) + 6)) and y &lt;= ((3 * (n * n)) + ((3 * n) + 1))) and y &gt;= ((3 * (n * n)) + ((3 * n) + 1))) and x &gt;= (n * (n * n))) and x &lt;= (n * (n * n))) -->
     <g transform="translate(227.341492 178.60323)scale(0.08 -0.08)">
      <defs>
       <path id="DejaVuSans-29" d="M 513 4856 
L 1013 4856 
Q 1481 4119 1714 3412 
Q 1947 2706 1947 2009 
Q 1947 1309 1714 600 
Q 1481 -109 1013 -844 
L 513 -844 
Q 928 -128 1133 580 
Q 1338 1288 1338 2009 
Q 1338 2731 1133 3434 
Q 928 4138 513 4856 
z
" transform="scale(0.015625)"/>
       <path id="DejaVuSans-64" d="M 2906 2969 
L 2906 4863 
L 3481 4863 
L 3481 0 
L 2906 0 
L 2906 525 
Q 2725 213 2448 61 
Q 2172 -91 1784 -91 
Q 1150 -91 751 415 
Q 353 922 353 1747 
Q 353 2572 751 3078 
Q 1150 3584 1784 3584 
Q 2172 3584 2448 3432 
Q 2725 3281 2906 2969 
z
M 947 1747 
Q 947 1113 1208 752 
Q 1469 391 1925 391 
Q 2381 391 2643 752 
Q 2906 1113 2906 1747 
Q 2906 2381 2643 2742 
Q 2381 3103 1925 3103 
Q 1469 3103 1208 2742 
Q 947 2381 947 1747 
z
" transform="scale(0.015625)"/>
      </defs>
      <use xlink:href="#DejaVuSans-28"/>
      <use xlink:href="#DejaVuSans-28" x="39.013672"/>
      <use xlink:href="#DejaVuSans-28" x="78.027344"/>
      <use xlink:href="#DejaVuSans-28" x="117.041016"/>
      <use xlink:href="#DejaVuSans-28" x="156.054688"/>
      <use xlink:href="#DejaVuSans-7a" x="195.068359"/>
      <use xlink:href="#DejaVuSans-20" x="247.558594"/>
      <use xlink:href="#DejaVuSans-3e" x="279.345703"/>
      <use xlink:href="#DejaVuSans-3d" x="363.134766"/>
      <use xlink:href="#DejaVuSans-20" x="446.923828"/>
      <use xlink:href="#DejaVuSans-28" x="478.710938"/>
      <use xlink:href="#DejaVuSans-28" x="517.724609"/>
      <use xlink:href="#DejaVuSans-36" x="556.738281"/>
      <use xlink:href="#DejaVuSans-20" x="620.361328"/>
      <use xlink:href="#DejaVuSans-2a" x="652.148438"/>
      <use xlink:href="#DejaVuSans-20" x="702.148438"/>
      <use xlink:href="#DejaVuSans-6e" x="733.935547"/>
      <use xlink:href="#DejaVuSans-29" x="797.314453"/>
      <use xlink:href="#DejaVuSans-20" x="836.328125"/>
      <use xlink:href="#DejaVuSans-2b" x="868.115234"/>
      <use xlink:href="#DejaVuSans-20" x="951.904297"/>
      <use xlink:href="#DejaVuSans-36" x="983.691406"/>
      <use xlink:href="#DejaVuSans-29" x="1047.314453"/>
      <use xlink:href="#DejaVuSans-20" x="1086.328125"/>
      <use xlink:href="#DejaVuSans-61" x="1118.115234"/>
      <use xlink:href="#DejaVuSans-6e" x="1179.394531"/>
      <use xlink:href="#DejaVuSans-64" x="1242.773438"/>
      <use xlink:href="#DejaVuSans-20" x="1306.25"/>
      <use xlink:href="#DejaVuSans-7a" x="1338.037109"/>
      <use xlink:href="#DejaVuSans-20" x="1390.527344"/>
      <use xlink:href="#DejaVuSans-3c" x="1422.314453"/>
      <use xlink:href="#DejaVuSans-3d" x="1506.103516"/>
      <use xlink:href="#DejaVuSans-20" x="1589.892578"/>
      <use xlink:href="#DejaVuSans-28" x="1621.679688"/>
      <use xlink:href="#DejaVuSans-28" x="1660.693359"/>
      <use xlink:href="#DejaVuSans-36" x="1699.707031"/>
      <use xlink:href="#DejaVuSans-20" x="1763.330078"/>
      <use xlink:href="#DejaVuSans-2a" x="1795.117188"/>
      <use xlink:href="#DejaVuSans-20" x="1845.117188"/>
      <use xlink:href="#DejaVuSans-6e" x="1876.904297"/>
      <use xlink:href="#DejaVuSans-29" x="1940.283203"/>
      <use xlink:href="#DejaVuSans-20" x="1979.296875"/>
      <use xlink:href="#DejaVuSans-2b" x="2011.083984"/>
      <use xlink:href="#DejaVuSans-20" x="2094.873047"/>
      <use xlink:href="#DejaVuSans-36" x="2126.660156"/>
      <use xlink:href="#DejaVuSans-29" x="2190.283203"/>
      <use xlink:href="#DejaVuSans-29" x="2229.296875"/>
      <use xlink:href="#DejaVuSans-20" x="2268.310547"/>
      <use xlink:href="#DejaVuSans-61" x="2300.097656"/>
      <use xlink:href="#DejaVuSans-6e" x="2361.376953"/>
      <use xlink:href="#DejaVuSans-64" x="2424.755859"/>
      <use xlink:href="#DejaVuSans-20" x="2488.232422"/>
      <use xlink:href="#DejaVuSans-79" x="2520.019531"/>
      <use xlink:href="#DejaVuSans-20" x="2579.199219"/>
      <use xlink:href="#DejaVuSans-3c" x="2610.986328"/>
      <use xlink:href="#DejaVuSans-3d" x="2694.775391"/>
      <use xlink:href="#DejaVuSans-20" x="2778.564453"/>
      <use xlink:href="#DejaVuSans-28" x="2810.351562"/>
      <use xlink:href="#DejaVuSans-28" x="2849.365234"/>
      <use xlink:href="#DejaVuSans-33" x="2888.378906"/>
      <use xlink:href="#DejaVuSans-20" x="2952.001953"/>
      <use xlink:href="#DejaVuSans-2a" x="2983.789062"/>
      <use xlink:href="#DejaVuSans-20" x="3033.789062"/>
      <use xlink:href="#DejaVuSans-28" x="3065.576172"/>
      <use xlink:href="#DejaVuSans-6e" x="3104.589844"/>
      <use xlink:href="#DejaVuSans-20" x="3167.96875"/>
      <use xlink:href="#DejaVuSans-2a" x="3199.755859"/>
      <use xlink:href="#DejaVuSans-20" x="3249.755859"/>
      <use xlink:href="#DejaVuSans-6e" x="3281.542969"/>
      <use xlink:href="#DejaVuSans-29" x="3344.921875"/>
      <use xlink:href="#DejaVuSans-29" x="3383.935547"/>
      <use xlink:href="#DejaVuSans-20" x="3422.949219"/>
      <use xlink:href="#DejaVuSans-2b" x="3454.736328"/>
      <use xlink:href="#DejaVuSans-20" x="3538.525391"/>
      <use xlink:href="#DejaVuSans-28" x="3570.3125"/>
      <use xlink:href="#DejaVuSans-28" x="3609.326172"/>
      <use xlink:href="#DejaVuSans-33" x="3648.339844"/>
      <use xlink:href="#DejaVuSans-20" x="3711.962891"/>
      <use xlink:href="#DejaVuSans-2a" x="3743.75"/>
      <use xlink:href="#DejaVuSans-20" x="3793.75"/>
      <use xlink:href="#DejaVuSans-6e" x="3825.537109"/>
      <use xlink:href="#DejaVuSans-29" x="3888.916016"/>
      <use xlink:href="#DejaVuSans-20" x="3927.929688"/>
      <use xlink:href="#DejaVuSans-2b" x="3959.716797"/>
      <use xlink:href="#DejaVuSans-20" x="4043.505859"/>
      <use xlink:href="#DejaVuSans-31" x="4075.292969"/>
      <use xlink:href="#DejaVuSans-29" x="4138.916016"/>
      <use xlink:href="#DejaVuSans-29" x="4177.929688"/>
      <use xlink:href="#DejaVuSans-29" x="4216.943359"/>
      <use xlink:href="#DejaVuSans-20" x="4255.957031"/>
      <use xlink:href="#DejaVuSans-61" x="4287.744141"/>
      <use xlink:href="#DejaVuSans-6e" x="4349.023438"/>
      <use xlink:href="#DejaVuSans-64" x="4412.402344"/>
      <use xlink:href="#DejaVuSans-20" x="4475.878906"/>
      <use xlink:href="#DejaVuSans-79" x="4507.666016"/>
      <use xlink:href="#DejaVuSans-20" x="4566.845703"/>
      <use xlink:href="#DejaVuSans-3e" x="4598.632812"/>
      <use xlink:href="#DejaVuSans-3d" x="4682.421875"/>
      <use xlink:href="#DejaVuSans-20" x="4766.210938"/>
      <use xlink:href="#DejaVuSans-28" x="4797.998047"/>
      <use xlink:href="#DejaVuSans-28" x="4837.011719"/>
      <use xlink:href="#DejaVuSans-33" x="4876.025391"/>
      <use xlink:href="#DejaVuSans-20" x="4939.648438"/>
      <use xlink:href="#DejaVuSans-2a" x="4971.435547"/>
      <use xlink:href="#DejaVuSans-20" x="5021.435547"/>
      <use xlink:href="#DejaVuSans-28" x="5053.222656"/>
      <use xlink:href="#DejaVuSans-6e" x="5092.236328"/>
      <use xlink:href="#DejaVuSans-20" x="5155.615234"/>
      <use xlink:href="#DejaVuSans-2a" x="5187.402344"/>
      <use xlink:href="#DejaVuSans-20" x="5237.402344"/>
      <use xlink:href="#DejaVuSans-6e" x="5269.189453"/>
      <use xlink:href="#DejaVuSans-29" x="5332.568359"/>
      <use xlink:href="#DejaVuSans-29" x="5371.582031"/>
      <use xlink:href="#DejaVuSans-20" x="5410.595703"/>
      <use xlink:href="#DejaVuSans-2b" x="5442.382812"/>
      <use xlink:href="#DejaVuSans-20" x="5526.171875"/>
      <use xlink:href="#DejaVuSans-28" x="5557.958984"/>
      <use xlink:href="#DejaVuSans-28" x="5596.972656"/>
      <use xlink:href="#DejaVuSans-33" x="5635.986328"/>
      <use xlink:href="#DejaVuSans-20" x="5699.609375"/>
      <use xlink:href="#DejaVuSans-2a" x="5731.396484"/>
      <use xlink:href="#DejaVuSans-20" x="5781.396484"/>
      <use xlink:href="#DejaVuSans-6e" x="5813.183594"/>
      <use xlink:href="#DejaVuSans-29" x="5876.5625"/>
      <use xlink:href="#DejaVuSans-20" x="5915.576172"/>
      <use xlink:href="#DejaVuSans-2b" x="5947.363281"/>
      <use xlink:href="#DejaVuSans-20" x="6031.152344"/>
      <use xlink:href="#DejaVuSans-31" x="6062.939453"/>
      <use xlink:href="#DejaVuSans-29" x="6126.5625"/>
      <use xlink:href="#DejaVuSans-29" x="6165.576172"/>
      <use xlink:href="#DejaVuSans-29" x="6204.589844"/>
      <use xlink:href="#DejaVuSans-20" x="6243.603516"/>
      <use xlink:href="#DejaVuSans-61" x="6275.390625"/>
      <use xlink:href="#DejaVuSans-6e" x="6336.669922"/>
      <use xlink:href="#DejaVuSans-64" x="6400.048828"/>
      <use xlink:href="#DejaVuSans-20" x="6463.525391"/>
      <use xlink:href="#DejaVuSans-78" x="6495.3125"/>
      <use xlink:href="#DejaVuSans-20" x="6554.492188"/>
      <use xlink:href="#DejaVuSans-3e" x="6586.279297"/>
      <use xlink:href="#DejaVuSans-3d" x="6670.068359"/>
      <use xlink:href="#DejaVuSans-20" x="6753.857422"/>
      <use xlink:href="#DejaVuSans-28" x="6785.644531"/>
      <use xlink:href="#DejaVuSans-6e" x="6824.658203"/>
      <use xlink:href="#DejaVuSans-20" x="6888.037109"/>
      <use xlink:href="#DejaVuSans-2a" x="6919.824219"/>
      <use xlink:href="#DejaVuSans-20" x="6969.824219"/>
      <use xlink:href="#DejaVuSans-28" x="7001.611328"/>
      <use xlink:href="#DejaVuSans-6e" x="7040.625"/>
      <use xlink:href="#DejaVuSans-20" x="7104.003906"/>
      <use xlink:href="#DejaVuSans-2a" x="7135.791016"/>
      <use xlink:href="#DejaVuSans-20" x="7185.791016"/>
      <use xlink:href="#DejaVuSans-6e" x="7217.578125"/>
      <use xlink:href="#DejaVuSans-29" x="7280.957031"/>
      <use xlink:href="#DejaVuSans-29" x="7319.970703"/>
      <use xlink:href="#DejaVuSans-29" x="7358.984375"/>
      <use xlink:href="#DejaVuSans-20" x="7397.998047"/>
      <use xlink:href="#DejaVuSans-61" x="7429.785156"/>
      <use xlink:href="#DejaVuSans-6e" x="7491.064453"/>
      <use xlink:href="#DejaVuSans-64" x="7554.443359"/>
      <use xlink:href="#DejaVuSans-20" x="7617.919922"/>
      <use xlink:href="#DejaVuSans-78" x="7649.707031"/>
      <use xlink:href="#DejaVuSans-20" x="7708.886719"/>
      <use xlink:href="#DejaVuSans-3c" x="7740.673828"/>
      <use xlink:href="#DejaVuSans-3d" x="7824.462891"/>
      <use xlink:href="#DejaVuSans-20" x="7908.251953"/>
      <use xlink:href="#DejaVuSans-28" x="7940.039062"/>
      <use xlink:href="#DejaVuSans-6e" x="7979.052734"/>
      <use xlink:href="#DejaVuSans-20" x="8042.431641"/>
      <use xlink:href="#DejaVuSans-2a" x="8074.21875"/>
      <use xlink:href="#DejaVuSans-20" x="8124.21875"/>
      <use xlink:href="#DejaVuSans-28" x="8156.005859"/>
      <use xlink:href="#DejaVuSans-6e" x="8195.019531"/>
      <use xlink:href="#DejaVuSans-20" x="8258.398438"/>
      <use xlink:href="#DejaVuSans-2a" x="8290.185547"/>
      <use xlink:href="#DejaVuSans-20" x="8340.185547"/>
      <use xlink:href="#DejaVuSans-6e" x="8371.972656"/>
      <use xlink:href="#DejaVuSans-29" x="8435.351562"/>
      <use xlink:href="#DejaVuSans-29" x="8474.365234"/>
      <use xlink:href="#DejaVuSans-29" x="8513.378906"/>
     </g>
    </g>
   </g>
   <g id="text_36">
    <g clip-path="url(#p28b40ea107)">
     <!-- If -->
     <g transform="translate(266.788239 124.841221)scale(0.08 -0.08)">
      <defs>
       <path id="DejaVuSans-49" d="M 628 4666 
L 1259 4666 
L 1259 0 
L 628 0 
L 628 4666 
z
" transform="scale(0.015625)"/>
       <path id="DejaVuSans-66" d="M 2375 4863 
L 2375 4384 
L 1825 4384 
Q 1516 4384 1395 4259 
Q 1275 4134 1275 3809 
L 1275 3500 
L 2222 3500 
L 2222 3053 
L 1275 3053 
L 1275 0 
L 697 0 
L 697 3053 
L 147 3053 
L 147 3500 
L 697 3500 
L 697 3744 
Q 697 4328 969 4595 
Q 1241 4863 1831 4863 
L 2375 4863 
z
" transform="scale(0.015625)"/>
      </defs>
      <use xlink:href="#DejaVuSans-49"/>
      <use xlink:href="#DejaVuSans-66" x="29.492188"/>
     </g>
    </g>
   </g>
   <g id="text_37">
    <g clip-path="url(#p28b40ea107)">
     <!-- 1 &gt;= 0 -->
     <g transform="translate(325.887254 197.161791)scale(0.08 -0.08)">
      <use xlink:href="#DejaVuSans-31"/>
      <use xlink:href="#DejaVuSans-20" x="63.623047"/>
      <use xlink:href="#DejaVuSans-3e" x="95.410156"/>
      <use xlink:href="#DejaVuSans-3d" x="179.199219"/>
      <use xlink:href="#DejaVuSans-20" x="262.988281"/>
      <use xlink:href="#DejaVuSans-30" x="294.775391"/>
     </g>
    </g>
   </g>
  </g>
 </g>
 <defs>
  <clipPath id="p28b40ea107">
   <rect x="0" y="0" width="460.8" height="345.6"/>
  </clipPath>
 </defs>
</svg>
