<?xml version="1.0" encoding="utf-8" standalone="no"?>
<!DOCTYPE svg PUBLIC "-//W3C//DTD SVG 1.1//EN"
  "http://www.w3.org/Graphics/SVG/1.1/DTD/svg11.dtd">
<svg xmlns:xlink="http://www.w3.org/1999/xlink" width="460.8pt" height="345.6pt" viewBox="0 0 460.8 345.6" xmlns="http://www.w3.org/2000/svg" version="1.1">
 <metadata>
  <rdf:RDF xmlns:dc="http://purl.org/dc/elements/1.1/" xmlns:cc="http://creativecommons.org/ns#" xmlns:rdf="http://www.w3.org/1999/02/22-rdf-syntax-ns#">
   <cc:Work>
    <dc:type rdf:resource="http://purl.org/dc/dcmitype/StillImage"/>
    <dc:date>2023-01-06T10:47:51.875428</dc:date>
    <dc:format>image/svg+xml</dc:format>
    <dc:creator>
     <cc:Agent>
      <dc:title>Matplotlib v3.6.1, https://matplotlib.org/</dc:title>
     </cc:Agent>
    </dc:creator>
   </cc:Work>
  </rdf:RDF>
 </metadata>
 <defs>
  <style type="text/css">*{stroke-linejoin: round; stroke-linecap: butt}</style>
 </defs>
 <g id="figure_1">
  <g id="patch_1">
   <path d="M 0 345.6 
L 460.8 345.6 
L 460.8 0 
L 0 0 
z
" style="fill: #ffffff"/>
  </g>
  <g id="axes_1">
   <g id="LineCollection_1">
    <path d="M 420.813223 315.609917 
L 350.39255 304.857087 
" clip-path="url(#pd812155cb2)" style="fill: none; stroke: #000000; stroke-opacity: 0.9"/>
    <path d="M 350.39255 304.857087 
L 269.139017 292.910025 
" clip-path="url(#pd812155cb2)" style="fill: none; stroke: #000000; stroke-opacity: 0.9"/>
    <path d="M 269.139017 292.910025 
L 205.134936 268.077371 
" clip-path="url(#pd812155cb2)" style="fill: none; stroke: #000000; stroke-opacity: 0.9"/>
    <path d="M 205.134936 268.077371 
L 164.054714 234.913895 
" clip-path="url(#pd812155cb2)" style="fill: none; stroke: #000000; stroke-opacity: 0.9"/>
    <path d="M 164.054714 234.913895 
L 147.438956 196.10941 
" clip-path="url(#pd812155cb2)" style="fill: none; stroke: #000000; stroke-opacity: 0.9"/>
    <path d="M 147.438956 196.10941 
L 231.661864 173.683958 
" clip-path="url(#pd812155cb2)" style="fill: none; stroke: #000000; stroke-opacity: 0.9"/>
    <path d="M 147.438956 196.10941 
L 72.303944 167.766603 
" clip-path="url(#pd812155cb2)" style="fill: none; stroke: #000000; stroke-opacity: 0.9"/>
    <path d="M 231.661864 173.683958 
L 295.864103 145.336905 
" clip-path="url(#pd812155cb2)" style="fill: none; stroke: #000000; stroke-opacity: 0.9"/>
    <path d="M 295.864103 145.336905 
L 322.58481 112.966827 
" clip-path="url(#pd812155cb2)" style="fill: none; stroke: #000000; stroke-opacity: 0.9"/>
    <path d="M 322.58481 112.966827 
L 296.958332 81.157168 
" clip-path="url(#pd812155cb2)" style="fill: none; stroke: #000000; stroke-opacity: 0.9"/>
    <path d="M 296.958332 81.157168 
L 224.147961 58.357291 
" clip-path="url(#pd812155cb2)" style="fill: none; stroke: #000000; stroke-opacity: 0.9"/>
    <path d="M 72.303944 167.766603 
L 39.986777 133.419968 
" clip-path="url(#pd812155cb2)" style="fill: none; stroke: #000000; stroke-opacity: 0.9"/>
    <path d="M 39.986777 133.419968 
L 59.34157 99.142211 
" clip-path="url(#pd812155cb2)" style="fill: none; stroke: #000000; stroke-opacity: 0.9"/>
    <path d="M 59.34157 99.142211 
L 127.031978 72.620211 
" clip-path="url(#pd812155cb2)" style="fill: none; stroke: #000000; stroke-opacity: 0.9"/>
    <path d="M 127.031978 72.620211 
L 224.147961 58.357291 
" clip-path="url(#pd812155cb2)" style="fill: none; stroke: #000000; stroke-opacity: 0.9"/>
    <path d="M 224.147961 58.357291 
L 242.609874 29.990083 
" clip-path="url(#pd812155cb2)" style="fill: none; stroke: #000000; stroke-opacity: 0.9"/>
   </g>
   <g id="text_1">
    <g id="patch_2">
     <path d="M 372.699239 314.607127 
L 396.613311 318.258668 
Q 398.985812 318.620935 399.348079 316.248434 
L 400.516768 308.594646 
Q 400.879036 306.222145 398.506534 305.859877 
L 374.592463 302.208337 
Q 372.219961 301.846069 371.857694 304.218571 
L 370.689005 311.872359 
Q 370.326738 314.24486 372.699239 314.607127 
z
" clip-path="url(#pd812155cb2)" style="fill: #ffffff; stroke: #ffffff; stroke-linejoin: miter"/>
    </g>
    <g clip-path="url(#pd812155cb2)">
     <!-- l = 10 -->
     <g style="fill: #ff0000" transform="translate(373.31264 310.589939) rotate(-351.318323) scale(0.08 -0.08)">
      <defs>
       <path id="DejaVuSans-6c" d="M 603 4863 
L 1178 4863 
L 1178 0 
L 603 0 
L 603 4863 
z
" transform="scale(0.015625)"/>
       <path id="DejaVuSans-20" transform="scale(0.015625)"/>
       <path id="DejaVuSans-3d" d="M 678 2906 
L 4684 2906 
L 4684 2381 
L 678 2381 
L 678 2906 
z
M 678 1631 
L 4684 1631 
L 4684 1100 
L 678 1100 
L 678 1631 
z
" transform="scale(0.015625)"/>
       <path id="DejaVuSans-31" d="M 794 531 
L 1825 531 
L 1825 4091 
L 703 3866 
L 703 4441 
L 1819 4666 
L 2450 4666 
L 2450 531 
L 3481 531 
L 3481 0 
L 794 0 
L 794 531 
z
" transform="scale(0.015625)"/>
       <path id="DejaVuSans-30" d="M 2034 4250 
Q 1547 4250 1301 3770 
Q 1056 3291 1056 2328 
Q 1056 1369 1301 889 
Q 1547 409 2034 409 
Q 2525 409 2770 889 
Q 3016 1369 3016 2328 
Q 3016 3291 2770 3770 
Q 2525 4250 2034 4250 
z
M 2034 4750 
Q 2819 4750 3233 4129 
Q 3647 3509 3647 2328 
Q 3647 1150 3233 529 
Q 2819 -91 2034 -91 
Q 1250 -91 836 529 
Q 422 1150 422 2328 
Q 422 3509 836 4129 
Q 1250 4750 2034 4750 
z
" transform="scale(0.015625)"/>
      </defs>
      <use xlink:href="#DejaVuSans-6c"/>
      <use xlink:href="#DejaVuSans-20" x="27.783203"/>
      <use xlink:href="#DejaVuSans-3d" x="59.570312"/>
      <use xlink:href="#DejaVuSans-20" x="143.359375"/>
      <use xlink:href="#DejaVuSans-31" x="175.146484"/>
      <use xlink:href="#DejaVuSans-30" x="238.769531"/>
     </g>
    </g>
   </g>
   <g id="text_2">
    <g id="patch_3">
     <path d="M 297.991538 303.491014 
L 319.715467 306.685179 
Q 322.089938 307.034307 322.439066 304.659837 
L 323.56537 296.999697 
Q 323.914499 294.625227 321.540029 294.276098 
L 299.816099 291.081934 
Q 297.441629 290.732805 297.0925 293.107275 
L 295.966196 300.767415 
Q 295.617067 303.141885 297.991538 303.491014 
z
" clip-path="url(#pd812155cb2)" style="fill: #ffffff; stroke: #ffffff; stroke-linejoin: miter"/>
    </g>
    <g clip-path="url(#pd812155cb2)">
     <!-- b = 5 -->
     <g style="fill: #ff0000" transform="translate(298.582693 299.470492) rotate(-351.635485) scale(0.08 -0.08)">
      <defs>
       <path id="DejaVuSans-62" d="M 3116 1747 
Q 3116 2381 2855 2742 
Q 2594 3103 2138 3103 
Q 1681 3103 1420 2742 
Q 1159 2381 1159 1747 
Q 1159 1113 1420 752 
Q 1681 391 2138 391 
Q 2594 391 2855 752 
Q 3116 1113 3116 1747 
z
M 1159 2969 
Q 1341 3281 1617 3432 
Q 1894 3584 2278 3584 
Q 2916 3584 3314 3078 
Q 3713 2572 3713 1747 
Q 3713 922 3314 415 
Q 2916 -91 2278 -91 
Q 1894 -91 1617 61 
Q 1341 213 1159 525 
L 1159 0 
L 581 0 
L 581 4863 
L 1159 4863 
L 1159 2969 
z
" transform="scale(0.015625)"/>
       <path id="DejaVuSans-35" d="M 691 4666 
L 3169 4666 
L 3169 4134 
L 1269 4134 
L 1269 2991 
Q 1406 3038 1543 3061 
Q 1681 3084 1819 3084 
Q 2600 3084 3056 2656 
Q 3513 2228 3513 1497 
Q 3513 744 3044 326 
Q 2575 -91 1722 -91 
Q 1428 -91 1123 -41 
Q 819 9 494 109 
L 494 744 
Q 775 591 1075 516 
Q 1375 441 1709 441 
Q 2250 441 2565 725 
Q 2881 1009 2881 1497 
Q 2881 1984 2565 2268 
Q 2250 2553 1709 2553 
Q 1456 2553 1204 2497 
Q 953 2441 691 2322 
L 691 4666 
z
" transform="scale(0.015625)"/>
      </defs>
      <use xlink:href="#DejaVuSans-62"/>
      <use xlink:href="#DejaVuSans-20" x="63.476562"/>
      <use xlink:href="#DejaVuSans-3d" x="95.263672"/>
      <use xlink:href="#DejaVuSans-20" x="179.052734"/>
      <use xlink:href="#DejaVuSans-35" x="210.839844"/>
     </g>
    </g>
   </g>
   <g id="text_3">
    <g id="patch_4">
     <path d="M 224.637286 282.370724 
L 245.099862 290.309906 
Q 247.337355 291.178021 248.20547 288.940527 
L 251.006045 281.722281 
Q 251.87416 279.484787 249.636667 278.616672 
L 229.174091 270.67749 
Q 226.936597 269.809375 226.068483 272.046869 
L 223.267908 279.265115 
Q 222.399793 281.502609 224.637286 282.370724 
z
" clip-path="url(#pd812155cb2)" style="fill: #ffffff; stroke: #ffffff; stroke-linejoin: miter"/>
    </g>
    <g clip-path="url(#pd812155cb2)">
     <!-- h = 2 -->
     <g style="fill: #ff0000" transform="translate(226.107204 278.582135) rotate(-338.79447) scale(0.08 -0.08)">
      <defs>
       <path id="DejaVuSans-68" d="M 3513 2113 
L 3513 0 
L 2938 0 
L 2938 2094 
Q 2938 2591 2744 2837 
Q 2550 3084 2163 3084 
Q 1697 3084 1428 2787 
Q 1159 2491 1159 1978 
L 1159 0 
L 581 0 
L 581 4863 
L 1159 4863 
L 1159 2956 
Q 1366 3272 1645 3428 
Q 1925 3584 2291 3584 
Q 2894 3584 3203 3211 
Q 3513 2838 3513 2113 
z
" transform="scale(0.015625)"/>
       <path id="DejaVuSans-32" d="M 1228 531 
L 3431 531 
L 3431 0 
L 469 0 
L 469 531 
Q 828 903 1448 1529 
Q 2069 2156 2228 2338 
Q 2531 2678 2651 2914 
Q 2772 3150 2772 3378 
Q 2772 3750 2511 3984 
Q 2250 4219 1831 4219 
Q 1534 4219 1204 4116 
Q 875 4013 500 3803 
L 500 4441 
Q 881 4594 1212 4672 
Q 1544 4750 1819 4750 
Q 2544 4750 2975 4387 
Q 3406 4025 3406 3419 
Q 3406 3131 3298 2873 
Q 3191 2616 2906 2266 
Q 2828 2175 2409 1742 
Q 1991 1309 1228 531 
z
" transform="scale(0.015625)"/>
      </defs>
      <use xlink:href="#DejaVuSans-68"/>
      <use xlink:href="#DejaVuSans-20" x="63.378906"/>
      <use xlink:href="#DejaVuSans-3d" x="95.166016"/>
      <use xlink:href="#DejaVuSans-20" x="178.955078"/>
      <use xlink:href="#DejaVuSans-32" x="210.742188"/>
     </g>
    </g>
   </g>
   <g id="text_4">
    <g id="patch_5">
     <path d="M 168.987047 246.955438 
L 192.324086 265.795095 
Q 194.191516 267.302645 195.699065 265.435215 
L 200.562483 259.410808 
Q 202.070032 257.543378 200.202602 256.035828 
L 176.865564 237.196171 
Q 174.998134 235.688622 173.490584 237.556052 
L 168.627167 243.580458 
Q 167.119618 245.447888 168.987047 246.955438 
z
" clip-path="url(#pd812155cb2)" style="fill: #ffffff; stroke: #ffffff; stroke-linejoin: miter"/>
    </g>
    <g clip-path="url(#pd812155cb2)">
     <!-- rho = 2 -->
     <g style="fill: #ff0000" transform="translate(171.539674 243.793451) rotate(-321.086558) scale(0.08 -0.08)">
      <defs>
       <path id="DejaVuSans-72" d="M 2631 2963 
Q 2534 3019 2420 3045 
Q 2306 3072 2169 3072 
Q 1681 3072 1420 2755 
Q 1159 2438 1159 1844 
L 1159 0 
L 581 0 
L 581 3500 
L 1159 3500 
L 1159 2956 
Q 1341 3275 1631 3429 
Q 1922 3584 2338 3584 
Q 2397 3584 2469 3576 
Q 2541 3569 2628 3553 
L 2631 2963 
z
" transform="scale(0.015625)"/>
       <path id="DejaVuSans-6f" d="M 1959 3097 
Q 1497 3097 1228 2736 
Q 959 2375 959 1747 
Q 959 1119 1226 758 
Q 1494 397 1959 397 
Q 2419 397 2687 759 
Q 2956 1122 2956 1747 
Q 2956 2369 2687 2733 
Q 2419 3097 1959 3097 
z
M 1959 3584 
Q 2709 3584 3137 3096 
Q 3566 2609 3566 1747 
Q 3566 888 3137 398 
Q 2709 -91 1959 -91 
Q 1206 -91 779 398 
Q 353 888 353 1747 
Q 353 2609 779 3096 
Q 1206 3584 1959 3584 
z
" transform="scale(0.015625)"/>
      </defs>
      <use xlink:href="#DejaVuSans-72"/>
      <use xlink:href="#DejaVuSans-68" x="39.363281"/>
      <use xlink:href="#DejaVuSans-6f" x="102.742188"/>
      <use xlink:href="#DejaVuSans-20" x="163.923828"/>
      <use xlink:href="#DejaVuSans-3d" x="195.710938"/>
      <use xlink:href="#DejaVuSans-20" x="279.5"/>
      <use xlink:href="#DejaVuSans-32" x="311.287109"/>
     </g>
    </g>
   </g>
   <g id="text_5">
    <g id="patch_6">
     <path d="M 169.96871 196.600315 
L 212.359277 185.313271 
Q 214.678474 184.695755 214.060958 182.376558 
L 212.068824 174.894733 
Q 211.451307 172.575536 209.13211 173.193053 
L 166.741543 184.480096 
Q 164.422346 185.097613 165.039863 187.416809 
L 167.031997 194.898635 
Q 167.649513 197.217831 169.96871 196.600315 
z
" clip-path="url(#pd812155cb2)" style="fill: #ffffff; stroke: #ffffff; stroke-linejoin: miter"/>
    </g>
    <g clip-path="url(#pd812155cb2)">
     <!-- m &lt;= (((rh -->
     <g style="fill: #ff0000" transform="translate(168.923113 192.673383) rotate(-14.909827) scale(0.08 -0.08)">
      <defs>
       <path id="DejaVuSans-6d" d="M 3328 2828 
Q 3544 3216 3844 3400 
Q 4144 3584 4550 3584 
Q 5097 3584 5394 3201 
Q 5691 2819 5691 2113 
L 5691 0 
L 5113 0 
L 5113 2094 
Q 5113 2597 4934 2840 
Q 4756 3084 4391 3084 
Q 3944 3084 3684 2787 
Q 3425 2491 3425 1978 
L 3425 0 
L 2847 0 
L 2847 2094 
Q 2847 2600 2669 2842 
Q 2491 3084 2119 3084 
Q 1678 3084 1418 2786 
Q 1159 2488 1159 1978 
L 1159 0 
L 581 0 
L 581 3500 
L 1159 3500 
L 1159 2956 
Q 1356 3278 1631 3431 
Q 1906 3584 2284 3584 
Q 2666 3584 2933 3390 
Q 3200 3197 3328 2828 
z
" transform="scale(0.015625)"/>
       <path id="DejaVuSans-3c" d="M 4684 3150 
L 1459 2003 
L 4684 863 
L 4684 294 
L 678 1747 
L 678 2266 
L 4684 3719 
L 4684 3150 
z
" transform="scale(0.015625)"/>
       <path id="DejaVuSans-28" d="M 1984 4856 
Q 1566 4138 1362 3434 
Q 1159 2731 1159 2009 
Q 1159 1288 1364 580 
Q 1569 -128 1984 -844 
L 1484 -844 
Q 1016 -109 783 600 
Q 550 1309 550 2009 
Q 550 2706 781 3412 
Q 1013 4119 1484 4856 
L 1984 4856 
z
" transform="scale(0.015625)"/>
      </defs>
      <use xlink:href="#DejaVuSans-6d"/>
      <use xlink:href="#DejaVuSans-20" x="97.412109"/>
      <use xlink:href="#DejaVuSans-3c" x="129.199219"/>
      <use xlink:href="#DejaVuSans-3d" x="212.988281"/>
      <use xlink:href="#DejaVuSans-20" x="296.777344"/>
      <use xlink:href="#DejaVuSans-28" x="328.564453"/>
      <use xlink:href="#DejaVuSans-28" x="367.578125"/>
      <use xlink:href="#DejaVuSans-28" x="406.591797"/>
      <use xlink:href="#DejaVuSans-72" x="445.605469"/>
      <use xlink:href="#DejaVuSans-68" x="484.96875"/>
     </g>
    </g>
   </g>
   <g id="text_6">
    <g id="patch_7">
     <path d="M 256.270942 169.673703 
L 276.321053 160.821028 
Q 278.516571 159.851647 277.54719 157.656129 
L 274.419924 150.573296 
Q 273.450543 148.377778 271.255025 149.34716 
L 251.204914 158.199835 
Q 249.009396 159.169216 249.978777 161.364734 
L 253.106043 168.447567 
Q 254.075424 170.643085 256.270942 169.673703 
z
" clip-path="url(#pd812155cb2)" style="fill: #ffffff; stroke: #ffffff; stroke-linejoin: miter"/>
    </g>
    <g clip-path="url(#pd812155cb2)">
     <!-- fl = 1 -->
     <g style="fill: #ff0000" transform="translate(254.629557 165.956188) rotate(-23.822776) scale(0.08 -0.08)">
      <defs>
       <path id="DejaVuSans-66" d="M 2375 4863 
L 2375 4384 
L 1825 4384 
Q 1516 4384 1395 4259 
Q 1275 4134 1275 3809 
L 1275 3500 
L 2222 3500 
L 2222 3053 
L 1275 3053 
L 1275 0 
L 697 0 
L 697 3053 
L 147 3053 
L 147 3500 
L 697 3500 
L 697 3744 
Q 697 4328 969 4595 
Q 1241 4863 1831 4863 
L 2375 4863 
z
" transform="scale(0.015625)"/>
      </defs>
      <use xlink:href="#DejaVuSans-66"/>
      <use xlink:href="#DejaVuSans-6c" x="35.205078"/>
      <use xlink:href="#DejaVuSans-20" x="62.988281"/>
      <use xlink:href="#DejaVuSans-3d" x="94.775391"/>
      <use xlink:href="#DejaVuSans-20" x="178.564453"/>
      <use xlink:href="#DejaVuSans-31" x="210.351562"/>
     </g>
    </g>
   </g>
   <g id="text_7">
    <g id="patch_8">
     <path d="M 301.16969 148.928624 
L 327.116756 117.495752 
Q 328.644599 115.644888 326.793735 114.117045 
L 320.657929 109.052087 
Q 318.807066 107.524245 317.279223 109.375108 
L 291.332156 140.80798 
Q 289.804314 142.658844 291.655177 144.186687 
L 297.790983 149.251645 
Q 299.641847 150.779487 301.16969 148.928624 
z
" clip-path="url(#pd812155cb2)" style="fill: #ffffff; stroke: #ffffff; stroke-linejoin: miter"/>
    </g>
    <g clip-path="url(#pd812155cb2)">
     <!-- x = ((_a_0 -->
     <g style="fill: #ff0000" transform="translate(297.864163 146.199992) rotate(-50.461161) scale(0.08 -0.08)">
      <defs>
       <path id="DejaVuSans-78" d="M 3513 3500 
L 2247 1797 
L 3578 0 
L 2900 0 
L 1881 1375 
L 863 0 
L 184 0 
L 1544 1831 
L 300 3500 
L 978 3500 
L 1906 2253 
L 2834 3500 
L 3513 3500 
z
" transform="scale(0.015625)"/>
       <path id="DejaVuSans-5f" d="M 3263 -1063 
L 3263 -1509 
L -63 -1509 
L -63 -1063 
L 3263 -1063 
z
" transform="scale(0.015625)"/>
       <path id="DejaVuSans-61" d="M 2194 1759 
Q 1497 1759 1228 1600 
Q 959 1441 959 1056 
Q 959 750 1161 570 
Q 1363 391 1709 391 
Q 2188 391 2477 730 
Q 2766 1069 2766 1631 
L 2766 1759 
L 2194 1759 
z
M 3341 1997 
L 3341 0 
L 2766 0 
L 2766 531 
Q 2569 213 2275 61 
Q 1981 -91 1556 -91 
Q 1019 -91 701 211 
Q 384 513 384 1019 
Q 384 1609 779 1909 
Q 1175 2209 1959 2209 
L 2766 2209 
L 2766 2266 
Q 2766 2663 2505 2880 
Q 2244 3097 1772 3097 
Q 1472 3097 1187 3025 
Q 903 2953 641 2809 
L 641 3341 
Q 956 3463 1253 3523 
Q 1550 3584 1831 3584 
Q 2591 3584 2966 3190 
Q 3341 2797 3341 1997 
z
" transform="scale(0.015625)"/>
      </defs>
      <use xlink:href="#DejaVuSans-78"/>
      <use xlink:href="#DejaVuSans-20" x="59.179688"/>
      <use xlink:href="#DejaVuSans-3d" x="90.966797"/>
      <use xlink:href="#DejaVuSans-20" x="174.755859"/>
      <use xlink:href="#DejaVuSans-28" x="206.542969"/>
      <use xlink:href="#DejaVuSans-28" x="245.556641"/>
      <use xlink:href="#DejaVuSans-5f" x="284.570312"/>
      <use xlink:href="#DejaVuSans-61" x="334.570312"/>
      <use xlink:href="#DejaVuSans-5f" x="395.849609"/>
      <use xlink:href="#DejaVuSans-30" x="445.849609"/>
     </g>
    </g>
   </g>
   <g id="text_8">
    <g id="patch_9">
     <path d="M 292.743063 85.921095 
L 317.032862 116.071559 
Q 318.538525 117.94051 320.407477 116.434846 
L 326.436791 111.577514 
Q 328.305742 110.071851 326.800078 108.2029 
L 302.51028 78.052436 
Q 301.004616 76.183485 299.135665 77.689148 
L 293.106351 82.54648 
Q 291.2374 84.052144 292.743063 85.921095 
z
" clip-path="url(#pd812155cb2)" style="fill: #ffffff; stroke: #ffffff; stroke-linejoin: miter"/>
    </g>
    <g clip-path="url(#pd812155cb2)">
     <!-- e = (m - ( -->
     <g style="fill: #ff0000" transform="translate(295.907626 83.371662) rotate(-308.855593) scale(0.08 -0.08)">
      <defs>
       <path id="DejaVuSans-65" d="M 3597 1894 
L 3597 1613 
L 953 1613 
Q 991 1019 1311 708 
Q 1631 397 2203 397 
Q 2534 397 2845 478 
Q 3156 559 3463 722 
L 3463 178 
Q 3153 47 2828 -22 
Q 2503 -91 2169 -91 
Q 1331 -91 842 396 
Q 353 884 353 1716 
Q 353 2575 817 3079 
Q 1281 3584 2069 3584 
Q 2775 3584 3186 3129 
Q 3597 2675 3597 1894 
z
M 3022 2063 
Q 3016 2534 2758 2815 
Q 2500 3097 2075 3097 
Q 1594 3097 1305 2825 
Q 1016 2553 972 2059 
L 3022 2063 
z
" transform="scale(0.015625)"/>
       <path id="DejaVuSans-2d" d="M 313 2009 
L 1997 2009 
L 1997 1497 
L 313 1497 
L 313 2009 
z
" transform="scale(0.015625)"/>
      </defs>
      <use xlink:href="#DejaVuSans-65"/>
      <use xlink:href="#DejaVuSans-20" x="61.523438"/>
      <use xlink:href="#DejaVuSans-3d" x="93.310547"/>
      <use xlink:href="#DejaVuSans-20" x="177.099609"/>
      <use xlink:href="#DejaVuSans-28" x="208.886719"/>
      <use xlink:href="#DejaVuSans-6d" x="247.900391"/>
      <use xlink:href="#DejaVuSans-20" x="345.3125"/>
      <use xlink:href="#DejaVuSans-2d" x="377.099609"/>
      <use xlink:href="#DejaVuSans-20" x="413.183594"/>
      <use xlink:href="#DejaVuSans-28" x="444.970703"/>
     </g>
    </g>
   </g>
   <g id="text_9">
    <g id="patch_10">
     <path d="M 86.154611 179.694031 
L 129.16144 195.917283 
Q 131.406983 196.764358 132.254058 194.518815 
L 134.986757 187.2746 
Q 135.833832 185.029057 133.588289 184.181982 
L 90.58146 167.95873 
Q 88.335917 167.111654 87.488842 169.357198 
L 84.756143 176.601413 
Q 83.909068 178.846956 86.154611 179.694031 
z
" clip-path="url(#pd812155cb2)" style="fill: #ffffff; stroke: #ffffff; stroke-linejoin: miter"/>
    </g>
    <g clip-path="url(#pd812155cb2)">
     <!-- Not (m &lt;=  -->
     <g style="fill: #ff0000" transform="translate(87.588903 175.891812) rotate(-339.332269) scale(0.08 -0.08)">
      <defs>
       <path id="DejaVuSans-4e" d="M 628 4666 
L 1478 4666 
L 3547 763 
L 3547 4666 
L 4159 4666 
L 4159 0 
L 3309 0 
L 1241 3903 
L 1241 0 
L 628 0 
L 628 4666 
z
" transform="scale(0.015625)"/>
       <path id="DejaVuSans-74" d="M 1172 4494 
L 1172 3500 
L 2356 3500 
L 2356 3053 
L 1172 3053 
L 1172 1153 
Q 1172 725 1289 603 
Q 1406 481 1766 481 
L 2356 481 
L 2356 0 
L 1766 0 
Q 1100 0 847 248 
Q 594 497 594 1153 
L 594 3053 
L 172 3053 
L 172 3500 
L 594 3500 
L 594 4494 
L 1172 4494 
z
" transform="scale(0.015625)"/>
      </defs>
      <use xlink:href="#DejaVuSans-4e"/>
      <use xlink:href="#DejaVuSans-6f" x="74.804688"/>
      <use xlink:href="#DejaVuSans-74" x="135.986328"/>
      <use xlink:href="#DejaVuSans-20" x="175.195312"/>
      <use xlink:href="#DejaVuSans-28" x="206.982422"/>
      <use xlink:href="#DejaVuSans-6d" x="245.996094"/>
      <use xlink:href="#DejaVuSans-20" x="343.408203"/>
      <use xlink:href="#DejaVuSans-3c" x="375.195312"/>
      <use xlink:href="#DejaVuSans-3d" x="458.984375"/>
      <use xlink:href="#DejaVuSans-20" x="542.773438"/>
     </g>
    </g>
   </g>
   <g id="text_10">
    <g id="patch_11">
     <path d="M 44.108243 146.951857 
L 59.047825 162.829621 
Q 60.692455 164.577532 62.440366 162.932901 
L 68.079198 157.627255 
Q 69.827108 155.982625 68.182478 154.234715 
L 53.242896 138.35695 
Q 51.598266 136.60904 49.850355 138.25367 
L 44.211523 143.559316 
Q 42.463613 145.203946 44.108243 146.951857 
z
" clip-path="url(#pd812155cb2)" style="fill: #ffffff; stroke: #ffffff; stroke-linejoin: miter"/>
    </g>
    <g clip-path="url(#pd812155cb2)">
     <!-- e = 0 -->
     <g style="fill: #ff0000" transform="translate(47.067856 144.167121) rotate(-313.256265) scale(0.08 -0.08)">
      <use xlink:href="#DejaVuSans-65"/>
      <use xlink:href="#DejaVuSans-20" x="61.523438"/>
      <use xlink:href="#DejaVuSans-3d" x="93.310547"/>
      <use xlink:href="#DejaVuSans-20" x="177.099609"/>
      <use xlink:href="#DejaVuSans-30" x="208.886719"/>
     </g>
    </g>
   </g>
   <g id="text_11">
    <g id="patch_12">
     <path d="M 49.736829 128.907154 
L 60.513226 109.821922 
Q 61.693258 107.73206 59.603395 106.552028 
L 52.861413 102.745195 
Q 50.77155 101.565163 49.591518 103.655025 
L 38.815121 122.740257 
Q 37.635089 124.830119 39.724952 126.010152 
L 46.466934 129.816984 
Q 48.556797 130.997016 49.736829 128.907154 
z
" clip-path="url(#pd812155cb2)" style="fill: #ffffff; stroke: #ffffff; stroke-linejoin: miter"/>
    </g>
    <g clip-path="url(#pd812155cb2)">
     <!-- fl = 0 -->
     <g style="fill: #ff0000" transform="translate(46.198213 126.909089) rotate(-60.548935) scale(0.08 -0.08)">
      <use xlink:href="#DejaVuSans-66"/>
      <use xlink:href="#DejaVuSans-6c" x="35.205078"/>
      <use xlink:href="#DejaVuSans-20" x="62.988281"/>
      <use xlink:href="#DejaVuSans-3d" x="94.775391"/>
      <use xlink:href="#DejaVuSans-20" x="178.564453"/>
      <use xlink:href="#DejaVuSans-30" x="210.351562"/>
     </g>
    </g>
   </g>
   <g id="text_12">
    <g id="patch_13">
     <path d="M 76.538712 99.254373 
L 114.488446 84.385163 
Q 116.723043 83.509619 115.847498 81.275022 
L 112.944977 73.867102 
Q 112.069432 71.632505 109.834836 72.50805 
L 71.885101 87.377259 
Q 69.650505 88.252804 70.526049 90.4874 
L 73.428571 97.895321 
Q 74.304115 100.129917 76.538712 99.254373 
z
" clip-path="url(#pd812155cb2)" style="fill: #ffffff; stroke: #ffffff; stroke-linejoin: miter"/>
    </g>
    <g clip-path="url(#pd812155cb2)">
     <!-- x = ((_a_0 -->
     <g style="fill: #ff0000" transform="translate(74.975044 95.263523) rotate(-21.395905) scale(0.08 -0.08)">
      <use xlink:href="#DejaVuSans-78"/>
      <use xlink:href="#DejaVuSans-20" x="59.179688"/>
      <use xlink:href="#DejaVuSans-3d" x="90.966797"/>
      <use xlink:href="#DejaVuSans-20" x="174.755859"/>
      <use xlink:href="#DejaVuSans-28" x="206.542969"/>
      <use xlink:href="#DejaVuSans-28" x="245.556641"/>
      <use xlink:href="#DejaVuSans-5f" x="284.570312"/>
      <use xlink:href="#DejaVuSans-61" x="334.570312"/>
      <use xlink:href="#DejaVuSans-5f" x="395.849609"/>
      <use xlink:href="#DejaVuSans-30" x="445.849609"/>
     </g>
    </g>
   </g>
   <g id="PathCollection_1">
    <defs>
     <path id="m79f2cc7ff5" d="M 0 11.18034 
C 2.965061 11.18034 5.80908 10.002309 7.905694 7.905694 
C 10.002309 5.80908 11.18034 2.965061 11.18034 0 
C 11.18034 -2.965061 10.002309 -5.80908 7.905694 -7.905694 
C 5.80908 -10.002309 2.965061 -11.18034 0 -11.18034 
C -2.965061 -11.18034 -5.80908 -10.002309 -7.905694 -7.905694 
C -10.002309 -5.80908 -11.18034 -2.965061 -11.18034 0 
C -11.18034 2.965061 -10.002309 5.80908 -7.905694 7.905694 
C -5.80908 10.002309 -2.965061 11.18034 0 11.18034 
z
" style="stroke: #ffc0cb; stroke-opacity: 0.9; stroke-width: 2"/>
    </defs>
    <g clip-path="url(#pd812155cb2)">
     <use xlink:href="#m79f2cc7ff5" x="420.813223" y="315.609917" style="fill: #ffc0cb; fill-opacity: 0.9; stroke: #ffc0cb; stroke-opacity: 0.9; stroke-width: 2"/>
     <use xlink:href="#m79f2cc7ff5" x="350.39255" y="304.857087" style="fill: #ffc0cb; fill-opacity: 0.9; stroke: #ffc0cb; stroke-opacity: 0.9; stroke-width: 2"/>
     <use xlink:href="#m79f2cc7ff5" x="269.139017" y="292.910025" style="fill: #ffc0cb; fill-opacity: 0.9; stroke: #ffc0cb; stroke-opacity: 0.9; stroke-width: 2"/>
     <use xlink:href="#m79f2cc7ff5" x="205.134936" y="268.077371" style="fill: #ffc0cb; fill-opacity: 0.9; stroke: #ffc0cb; stroke-opacity: 0.9; stroke-width: 2"/>
     <use xlink:href="#m79f2cc7ff5" x="164.054714" y="234.913895" style="fill: #ffc0cb; fill-opacity: 0.9; stroke: #ffc0cb; stroke-opacity: 0.9; stroke-width: 2"/>
     <use xlink:href="#m79f2cc7ff5" x="147.438956" y="196.10941" style="fill: #ffc0cb; fill-opacity: 0.9; stroke: #ffc0cb; stroke-opacity: 0.9; stroke-width: 2"/>
     <use xlink:href="#m79f2cc7ff5" x="231.661864" y="173.683958" style="fill: #ffc0cb; fill-opacity: 0.9; stroke: #ffc0cb; stroke-opacity: 0.9; stroke-width: 2"/>
     <use xlink:href="#m79f2cc7ff5" x="295.864103" y="145.336905" style="fill: #ffc0cb; fill-opacity: 0.9; stroke: #ffc0cb; stroke-opacity: 0.9; stroke-width: 2"/>
     <use xlink:href="#m79f2cc7ff5" x="322.58481" y="112.966827" style="fill: #ffc0cb; fill-opacity: 0.9; stroke: #ffc0cb; stroke-opacity: 0.9; stroke-width: 2"/>
     <use xlink:href="#m79f2cc7ff5" x="296.958332" y="81.157168" style="fill: #ffc0cb; fill-opacity: 0.9; stroke: #ffc0cb; stroke-opacity: 0.9; stroke-width: 2"/>
     <use xlink:href="#m79f2cc7ff5" x="72.303944" y="167.766603" style="fill: #ffc0cb; fill-opacity: 0.9; stroke: #ffc0cb; stroke-opacity: 0.9; stroke-width: 2"/>
     <use xlink:href="#m79f2cc7ff5" x="39.986777" y="133.419968" style="fill: #ffc0cb; fill-opacity: 0.9; stroke: #ffc0cb; stroke-opacity: 0.9; stroke-width: 2"/>
     <use xlink:href="#m79f2cc7ff5" x="59.34157" y="99.142211" style="fill: #ffc0cb; fill-opacity: 0.9; stroke: #ffc0cb; stroke-opacity: 0.9; stroke-width: 2"/>
     <use xlink:href="#m79f2cc7ff5" x="127.031978" y="72.620211" style="fill: #ffc0cb; fill-opacity: 0.9; stroke: #ffc0cb; stroke-opacity: 0.9; stroke-width: 2"/>
     <use xlink:href="#m79f2cc7ff5" x="224.147961" y="58.357291" style="fill: #ffc0cb; fill-opacity: 0.9; stroke: #ffc0cb; stroke-opacity: 0.9; stroke-width: 2"/>
     <use xlink:href="#m79f2cc7ff5" x="242.609874" y="29.990083" style="fill: #ffc0cb; fill-opacity: 0.9; stroke: #ffc0cb; stroke-opacity: 0.9; stroke-width: 2"/>
    </g>
   </g>
   <g id="text_13">
    <g clip-path="url(#pd812155cb2)">
     <!-- 0 -->
     <g style="opacity: 0.9" transform="translate(416.995723 318.921167) scale(0.12 -0.12)">
      <use xlink:href="#DejaVuSans-30"/>
     </g>
    </g>
   </g>
   <g id="text_14">
    <g clip-path="url(#pd812155cb2)">
     <!-- 1 -->
     <g style="opacity: 0.9" transform="translate(346.57505 308.168337) scale(0.12 -0.12)">
      <use xlink:href="#DejaVuSans-31"/>
     </g>
    </g>
   </g>
   <g id="text_15">
    <g clip-path="url(#pd812155cb2)">
     <!-- 2 -->
     <g style="opacity: 0.9" transform="translate(265.321517 296.221275) scale(0.12 -0.12)">
      <use xlink:href="#DejaVuSans-32"/>
     </g>
    </g>
   </g>
   <g id="text_16">
    <g clip-path="url(#pd812155cb2)">
     <!-- 3 -->
     <g style="opacity: 0.9" transform="translate(201.317436 271.388621) scale(0.12 -0.12)">
      <defs>
       <path id="DejaVuSans-33" d="M 2597 2516 
Q 3050 2419 3304 2112 
Q 3559 1806 3559 1356 
Q 3559 666 3084 287 
Q 2609 -91 1734 -91 
Q 1441 -91 1130 -33 
Q 819 25 488 141 
L 488 750 
Q 750 597 1062 519 
Q 1375 441 1716 441 
Q 2309 441 2620 675 
Q 2931 909 2931 1356 
Q 2931 1769 2642 2001 
Q 2353 2234 1838 2234 
L 1294 2234 
L 1294 2753 
L 1863 2753 
Q 2328 2753 2575 2939 
Q 2822 3125 2822 3475 
Q 2822 3834 2567 4026 
Q 2313 4219 1838 4219 
Q 1578 4219 1281 4162 
Q 984 4106 628 3988 
L 628 4550 
Q 988 4650 1302 4700 
Q 1616 4750 1894 4750 
Q 2613 4750 3031 4423 
Q 3450 4097 3450 3541 
Q 3450 3153 3228 2886 
Q 3006 2619 2597 2516 
z
" transform="scale(0.015625)"/>
      </defs>
      <use xlink:href="#DejaVuSans-33"/>
     </g>
    </g>
   </g>
   <g id="text_17">
    <g clip-path="url(#pd812155cb2)">
     <!-- 4 -->
     <g style="opacity: 0.9" transform="translate(160.237214 238.225145) scale(0.12 -0.12)">
      <defs>
       <path id="DejaVuSans-34" d="M 2419 4116 
L 825 1625 
L 2419 1625 
L 2419 4116 
z
M 2253 4666 
L 3047 4666 
L 3047 1625 
L 3713 1625 
L 3713 1100 
L 3047 1100 
L 3047 0 
L 2419 0 
L 2419 1100 
L 313 1100 
L 313 1709 
L 2253 4666 
z
" transform="scale(0.015625)"/>
      </defs>
      <use xlink:href="#DejaVuSans-34"/>
     </g>
    </g>
   </g>
   <g id="text_18">
    <g clip-path="url(#pd812155cb2)">
     <!-- 5 -->
     <g style="opacity: 0.9" transform="translate(143.621456 199.42066) scale(0.12 -0.12)">
      <use xlink:href="#DejaVuSans-35"/>
     </g>
    </g>
   </g>
   <g id="text_19">
    <g clip-path="url(#pd812155cb2)">
     <!-- 6 -->
     <g style="opacity: 0.9" transform="translate(227.844364 176.995208) scale(0.12 -0.12)">
      <defs>
       <path id="DejaVuSans-36" d="M 2113 2584 
Q 1688 2584 1439 2293 
Q 1191 2003 1191 1497 
Q 1191 994 1439 701 
Q 1688 409 2113 409 
Q 2538 409 2786 701 
Q 3034 994 3034 1497 
Q 3034 2003 2786 2293 
Q 2538 2584 2113 2584 
z
M 3366 4563 
L 3366 3988 
Q 3128 4100 2886 4159 
Q 2644 4219 2406 4219 
Q 1781 4219 1451 3797 
Q 1122 3375 1075 2522 
Q 1259 2794 1537 2939 
Q 1816 3084 2150 3084 
Q 2853 3084 3261 2657 
Q 3669 2231 3669 1497 
Q 3669 778 3244 343 
Q 2819 -91 2113 -91 
Q 1303 -91 875 529 
Q 447 1150 447 2328 
Q 447 3434 972 4092 
Q 1497 4750 2381 4750 
Q 2619 4750 2861 4703 
Q 3103 4656 3366 4563 
z
" transform="scale(0.015625)"/>
      </defs>
      <use xlink:href="#DejaVuSans-36"/>
     </g>
    </g>
   </g>
   <g id="text_20">
    <g clip-path="url(#pd812155cb2)">
     <!-- 7 -->
     <g style="opacity: 0.9" transform="translate(292.046603 148.648155) scale(0.12 -0.12)">
      <defs>
       <path id="DejaVuSans-37" d="M 525 4666 
L 3525 4666 
L 3525 4397 
L 1831 0 
L 1172 0 
L 2766 4134 
L 525 4134 
L 525 4666 
z
" transform="scale(0.015625)"/>
      </defs>
      <use xlink:href="#DejaVuSans-37"/>
     </g>
    </g>
   </g>
   <g id="text_21">
    <g clip-path="url(#pd812155cb2)">
     <!-- 8 -->
     <g style="opacity: 0.9" transform="translate(318.76731 116.278077) scale(0.12 -0.12)">
      <defs>
       <path id="DejaVuSans-38" d="M 2034 2216 
Q 1584 2216 1326 1975 
Q 1069 1734 1069 1313 
Q 1069 891 1326 650 
Q 1584 409 2034 409 
Q 2484 409 2743 651 
Q 3003 894 3003 1313 
Q 3003 1734 2745 1975 
Q 2488 2216 2034 2216 
z
M 1403 2484 
Q 997 2584 770 2862 
Q 544 3141 544 3541 
Q 544 4100 942 4425 
Q 1341 4750 2034 4750 
Q 2731 4750 3128 4425 
Q 3525 4100 3525 3541 
Q 3525 3141 3298 2862 
Q 3072 2584 2669 2484 
Q 3125 2378 3379 2068 
Q 3634 1759 3634 1313 
Q 3634 634 3220 271 
Q 2806 -91 2034 -91 
Q 1263 -91 848 271 
Q 434 634 434 1313 
Q 434 1759 690 2068 
Q 947 2378 1403 2484 
z
M 1172 3481 
Q 1172 3119 1398 2916 
Q 1625 2713 2034 2713 
Q 2441 2713 2670 2916 
Q 2900 3119 2900 3481 
Q 2900 3844 2670 4047 
Q 2441 4250 2034 4250 
Q 1625 4250 1398 4047 
Q 1172 3844 1172 3481 
z
" transform="scale(0.015625)"/>
      </defs>
      <use xlink:href="#DejaVuSans-38"/>
     </g>
    </g>
   </g>
   <g id="text_22">
    <g clip-path="url(#pd812155cb2)">
     <!-- 9 -->
     <g style="opacity: 0.9" transform="translate(293.140832 84.468418) scale(0.12 -0.12)">
      <defs>
       <path id="DejaVuSans-39" d="M 703 97 
L 703 672 
Q 941 559 1184 500 
Q 1428 441 1663 441 
Q 2288 441 2617 861 
Q 2947 1281 2994 2138 
Q 2813 1869 2534 1725 
Q 2256 1581 1919 1581 
Q 1219 1581 811 2004 
Q 403 2428 403 3163 
Q 403 3881 828 4315 
Q 1253 4750 1959 4750 
Q 2769 4750 3195 4129 
Q 3622 3509 3622 2328 
Q 3622 1225 3098 567 
Q 2575 -91 1691 -91 
Q 1453 -91 1209 -44 
Q 966 3 703 97 
z
M 1959 2075 
Q 2384 2075 2632 2365 
Q 2881 2656 2881 3163 
Q 2881 3666 2632 3958 
Q 2384 4250 1959 4250 
Q 1534 4250 1286 3958 
Q 1038 3666 1038 3163 
Q 1038 2656 1286 2365 
Q 1534 2075 1959 2075 
z
" transform="scale(0.015625)"/>
      </defs>
      <use xlink:href="#DejaVuSans-39"/>
     </g>
    </g>
   </g>
   <g id="text_23">
    <g clip-path="url(#pd812155cb2)">
     <!-- 10 -->
     <g style="opacity: 0.9" transform="translate(64.668944 171.077853) scale(0.12 -0.12)">
      <use xlink:href="#DejaVuSans-31"/>
      <use xlink:href="#DejaVuSans-30" x="63.623047"/>
     </g>
    </g>
   </g>
   <g id="text_24">
    <g clip-path="url(#pd812155cb2)">
     <!-- 11 -->
     <g style="opacity: 0.9" transform="translate(32.351777 136.731218) scale(0.12 -0.12)">
      <use xlink:href="#DejaVuSans-31"/>
      <use xlink:href="#DejaVuSans-31" x="63.623047"/>
     </g>
    </g>
   </g>
   <g id="text_25">
    <g clip-path="url(#pd812155cb2)">
     <!-- 12 -->
     <g style="opacity: 0.9" transform="translate(51.70657 102.453461) scale(0.12 -0.12)">
      <use xlink:href="#DejaVuSans-31"/>
      <use xlink:href="#DejaVuSans-32" x="63.623047"/>
     </g>
    </g>
   </g>
   <g id="text_26">
    <g clip-path="url(#pd812155cb2)">
     <!-- 13 -->
     <g style="opacity: 0.9" transform="translate(119.396978 75.931461) scale(0.12 -0.12)">
      <use xlink:href="#DejaVuSans-31"/>
      <use xlink:href="#DejaVuSans-33" x="63.623047"/>
     </g>
    </g>
   </g>
   <g id="text_27">
    <g clip-path="url(#pd812155cb2)">
     <!-- 14 -->
     <g style="opacity: 0.9" transform="translate(216.512961 61.668541) scale(0.12 -0.12)">
      <use xlink:href="#DejaVuSans-31"/>
      <use xlink:href="#DejaVuSans-34" x="63.623047"/>
     </g>
    </g>
   </g>
   <g id="text_28">
    <g clip-path="url(#pd812155cb2)">
     <!-- 15 -->
     <g style="opacity: 0.9" transform="translate(234.974874 33.301333) scale(0.12 -0.12)">
      <use xlink:href="#DejaVuSans-31"/>
      <use xlink:href="#DejaVuSans-35" x="63.623047"/>
     </g>
    </g>
   </g>
   <g id="text_29">
    <g clip-path="url(#pd812155cb2)">
     <!-- (x &gt;= 0 and m &gt;= 0) -->
     <g transform="translate(680.883543 261.898439) scale(0.08 -0.08)">
      <defs>
       <path id="DejaVuSans-3e" d="M 678 3150 
L 678 3719 
L 4684 2266 
L 4684 1747 
L 678 294 
L 678 863 
L 3897 2003 
L 678 3150 
z
" transform="scale(0.015625)"/>
       <path id="DejaVuSans-6e" d="M 3513 2113 
L 3513 0 
L 2938 0 
L 2938 2094 
Q 2938 2591 2744 2837 
Q 2550 3084 2163 3084 
Q 1697 3084 1428 2787 
Q 1159 2491 1159 1978 
L 1159 0 
L 581 0 
L 581 3500 
L 1159 3500 
L 1159 2956 
Q 1366 3272 1645 3428 
Q 1925 3584 2291 3584 
Q 2894 3584 3203 3211 
Q 3513 2838 3513 2113 
z
" transform="scale(0.015625)"/>
       <path id="DejaVuSans-64" d="M 2906 2969 
L 2906 4863 
L 3481 4863 
L 3481 0 
L 2906 0 
L 2906 525 
Q 2725 213 2448 61 
Q 2172 -91 1784 -91 
Q 1150 -91 751 415 
Q 353 922 353 1747 
Q 353 2572 751 3078 
Q 1150 3584 1784 3584 
Q 2172 3584 2448 3432 
Q 2725 3281 2906 2969 
z
M 947 1747 
Q 947 1113 1208 752 
Q 1469 391 1925 391 
Q 2381 391 2643 752 
Q 2906 1113 2906 1747 
Q 2906 2381 2643 2742 
Q 2381 3103 1925 3103 
Q 1469 3103 1208 2742 
Q 947 2381 947 1747 
z
" transform="scale(0.015625)"/>
       <path id="DejaVuSans-29" d="M 513 4856 
L 1013 4856 
Q 1481 4119 1714 3412 
Q 1947 2706 1947 2009 
Q 1947 1309 1714 600 
Q 1481 -109 1013 -844 
L 513 -844 
Q 928 -128 1133 580 
Q 1338 1288 1338 2009 
Q 1338 2731 1133 3434 
Q 928 4138 513 4856 
z
" transform="scale(0.015625)"/>
      </defs>
      <use xlink:href="#DejaVuSans-28"/>
      <use xlink:href="#DejaVuSans-78" x="39.013672"/>
      <use xlink:href="#DejaVuSans-20" x="98.193359"/>
      <use xlink:href="#DejaVuSans-3e" x="129.980469"/>
      <use xlink:href="#DejaVuSans-3d" x="213.769531"/>
      <use xlink:href="#DejaVuSans-20" x="297.558594"/>
      <use xlink:href="#DejaVuSans-30" x="329.345703"/>
      <use xlink:href="#DejaVuSans-20" x="392.96875"/>
      <use xlink:href="#DejaVuSans-61" x="424.755859"/>
      <use xlink:href="#DejaVuSans-6e" x="486.035156"/>
      <use xlink:href="#DejaVuSans-64" x="549.414062"/>
      <use xlink:href="#DejaVuSans-20" x="612.890625"/>
      <use xlink:href="#DejaVuSans-6d" x="644.677734"/>
      <use xlink:href="#DejaVuSans-20" x="742.089844"/>
      <use xlink:href="#DejaVuSans-3e" x="773.876953"/>
      <use xlink:href="#DejaVuSans-3d" x="857.666016"/>
      <use xlink:href="#DejaVuSans-20" x="941.455078"/>
      <use xlink:href="#DejaVuSans-30" x="973.242188"/>
      <use xlink:href="#DejaVuSans-29" x="1036.865234"/>
     </g>
    </g>
   </g>
   <g id="text_30">
    <g clip-path="url(#pd812155cb2)">
     <!-- If -->
     <g transform="translate(231.289666 197.892079) scale(0.08 -0.08)">
      <defs>
       <path id="DejaVuSans-49" d="M 628 4666 
L 1259 4666 
L 1259 0 
L 628 0 
L 628 4666 
z
" transform="scale(0.015625)"/>
      </defs>
      <use xlink:href="#DejaVuSans-49"/>
      <use xlink:href="#DejaVuSans-66" x="29.492188"/>
     </g>
    </g>
   </g>
   <g id="text_31">
    <g clip-path="url(#pd812155cb2)">
     <!-- (((e &gt;= 0 and e &lt;= 0) and x &gt;= 0) and x &lt;= 1) -->
     <g transform="translate(-61.96276 67.57241) scale(0.08 -0.08)">
      <use xlink:href="#DejaVuSans-28"/>
      <use xlink:href="#DejaVuSans-28" x="39.013672"/>
      <use xlink:href="#DejaVuSans-28" x="78.027344"/>
      <use xlink:href="#DejaVuSans-65" x="117.041016"/>
      <use xlink:href="#DejaVuSans-20" x="178.564453"/>
      <use xlink:href="#DejaVuSans-3e" x="210.351562"/>
      <use xlink:href="#DejaVuSans-3d" x="294.140625"/>
      <use xlink:href="#DejaVuSans-20" x="377.929688"/>
      <use xlink:href="#DejaVuSans-30" x="409.716797"/>
      <use xlink:href="#DejaVuSans-20" x="473.339844"/>
      <use xlink:href="#DejaVuSans-61" x="505.126953"/>
      <use xlink:href="#DejaVuSans-6e" x="566.40625"/>
      <use xlink:href="#DejaVuSans-64" x="629.785156"/>
      <use xlink:href="#DejaVuSans-20" x="693.261719"/>
      <use xlink:href="#DejaVuSans-65" x="725.048828"/>
      <use xlink:href="#DejaVuSans-20" x="786.572266"/>
      <use xlink:href="#DejaVuSans-3c" x="818.359375"/>
      <use xlink:href="#DejaVuSans-3d" x="902.148438"/>
      <use xlink:href="#DejaVuSans-20" x="985.9375"/>
      <use xlink:href="#DejaVuSans-30" x="1017.724609"/>
      <use xlink:href="#DejaVuSans-29" x="1081.347656"/>
      <use xlink:href="#DejaVuSans-20" x="1120.361328"/>
      <use xlink:href="#DejaVuSans-61" x="1152.148438"/>
      <use xlink:href="#DejaVuSans-6e" x="1213.427734"/>
      <use xlink:href="#DejaVuSans-64" x="1276.806641"/>
      <use xlink:href="#DejaVuSans-20" x="1340.283203"/>
      <use xlink:href="#DejaVuSans-78" x="1372.070312"/>
      <use xlink:href="#DejaVuSans-20" x="1431.25"/>
      <use xlink:href="#DejaVuSans-3e" x="1463.037109"/>
      <use xlink:href="#DejaVuSans-3d" x="1546.826172"/>
      <use xlink:href="#DejaVuSans-20" x="1630.615234"/>
      <use xlink:href="#DejaVuSans-30" x="1662.402344"/>
      <use xlink:href="#DejaVuSans-29" x="1726.025391"/>
      <use xlink:href="#DejaVuSans-20" x="1765.039062"/>
      <use xlink:href="#DejaVuSans-61" x="1796.826172"/>
      <use xlink:href="#DejaVuSans-6e" x="1858.105469"/>
      <use xlink:href="#DejaVuSans-64" x="1921.484375"/>
      <use xlink:href="#DejaVuSans-20" x="1984.960938"/>
      <use xlink:href="#DejaVuSans-78" x="2016.748047"/>
      <use xlink:href="#DejaVuSans-20" x="2075.927734"/>
      <use xlink:href="#DejaVuSans-3c" x="2107.714844"/>
      <use xlink:href="#DejaVuSans-3d" x="2191.503906"/>
      <use xlink:href="#DejaVuSans-20" x="2275.292969"/>
      <use xlink:href="#DejaVuSans-31" x="2307.080078"/>
      <use xlink:href="#DejaVuSans-29" x="2370.703125"/>
     </g>
    </g>
   </g>
  </g>
 </g>
 <defs>
  <clipPath id="pd812155cb2">
   <rect x="0" y="0" width="460.8" height="345.6"/>
  </clipPath>
 </defs>
</svg>
